#N canvas 399 150 518 501 10;
#X obj 82 201 until;
#X obj 82 24 inlet;
#X obj 138 223 + \$2;
#X obj 82 450 outlet;
#X obj 82 409 spigot 0;
#X obj 82 249 t f f;
#X obj 125 71 unpack f f f;
#X obj 82 49 route bang list;
#X obj 82 134 f \$1;
#X obj 82 223 f, f 8;
#X obj 109 180 r \$0-stop;
#X obj 161 282 spigot;
#X obj 194 246 < 0;
#X obj 244 246 > 0;
#X obj 211 282 spigot;
#X obj 181 360 s \$0-stop;
#X obj 211 305 < \$3;
#X obj 161 305 > \$3;
#X obj 181 338 sel 0;
#X obj 194 199 f \$2;
#X obj 82 159 t b f b, f 16;
#X connect 0 0 9 0;
#X connect 1 0 7 0;
#X connect 2 0 9 1;
#X connect 4 0 3 0;
#X connect 5 0 4 0;
#X connect 5 1 11 0;
#X connect 5 1 14 0;
#X connect 6 0 8 0;
#X connect 6 1 19 0;
#X connect 6 2 17 1;
#X connect 6 2 16 1;
#X connect 7 0 8 0;
#X connect 7 1 6 0;
#X connect 8 0 20 0;
#X connect 9 0 2 0;
#X connect 9 0 5 0;
#X connect 10 0 0 1;
#X connect 11 0 17 0;
#X connect 12 0 11 1;
#X connect 13 0 14 1;
#X connect 14 0 16 0;
#X connect 16 0 4 1;
#X connect 16 0 18 0;
#X connect 17 0 4 1;
#X connect 17 0 18 0;
#X connect 18 0 15 0;
#X connect 19 0 12 0;
#X connect 19 0 13 0;
#X connect 19 0 2 1;
#X connect 20 0 0 0;
#X connect 20 1 9 1;
#X connect 20 2 19 0;
