#N canvas 608 217 450 300 10;
#X obj 26 11 inlet;
#X obj 26 202 outlet;
#X obj 26 77 t f f;
#X obj 83 77 t f f;
#X obj 26 99 *, f 5;
#X obj 83 99 *, f 5;
#X obj 26 121 +, f 10;
#X obj 26 143 sqrt;
#X obj 125 97 atan2, f 10;
#X obj 26 33 t l l, f 17;
#X obj 125 55 unpack f f;
#X obj 26 55 unpack f f;
#X obj 125 77 swap, f 10;
#X obj 26 165 pack f f, f 17;
#X connect 0 0 9 0;
#X connect 2 0 4 0;
#X connect 2 1 4 1;
#X connect 3 0 5 0;
#X connect 3 1 5 1;
#X connect 4 0 6 0;
#X connect 5 0 6 1;
#X connect 6 0 7 0;
#X connect 7 0 13 0;
#X connect 8 0 13 1;
#X connect 9 0 11 0;
#X connect 9 1 10 0;
#X connect 10 0 12 0;
#X connect 10 1 12 1;
#X connect 11 0 2 0;
#X connect 11 1 3 0;
#X connect 12 0 8 0;
#X connect 12 1 8 1;
#X connect 13 0 1 0;
