#N canvas 608 217 450 300 10;
#X obj 26 11 inlet;
#X obj 26 172 outlet;
#X obj 26 135 pack f f, f 14;
#X obj 26 33 unpack f f, f 17;
#X obj 107 103 *;
#X obj 26 55 t f f, f 14;
#X obj 125 81 sin;
#X obj 26 103 *;
#X obj 44 81 cos;
#X connect 0 0 3 0;
#X connect 2 0 1 0;
#X connect 3 0 5 0;
#X connect 3 1 6 0;
#X connect 3 1 8 0;
#X connect 4 0 2 1;
#X connect 5 0 7 0;
#X connect 5 1 4 0;
#X connect 6 0 4 1;
#X connect 7 0 2 0;
#X connect 8 0 7 1;
