#N canvas 319 138 926 548 10;
#N canvas 443 106 450 300 header 0;
#X obj 3 3 cnv 18 18 18 empty empty spam~ 2 8 0 14 -262144 -66577 0
;
#X text 215 4 by Pierre Guillot - 2016;
#X coords 0 -1 1 1 397 20 2 2 2;
#X restore 10 5 pd header;
#X text 6 28 The object loads several instances of a patch. It acts
in a similar way to the clone object but allows to differentiate the
inputs and outputs of each instance. This specificity can be useful
to implement vector or matrix operations especially for spatialization
techniques.;
#X text 6 98 The first argument is the number of instances. The second
argument is the name of the patch. The other arguments are sent to
each instance. Nevertheless the first argument of each instance is
its number \, starting with zero., f 60;
#X text 6 278 The first inlet can also be used to send messages to
the object instead of the patches. The only message available for the
moment is vis with the index of an instance that displays the patch.
Perhaps in the futur other messages will be used.;
#X text 6 158 Depending on the objects spam.in \, spam.out \, spam.in~
and spam.out~ in the patch \, the number of inlet and outlet of the
object varies but their distribution always follows a specific order.
The first inlets and outlets match to the signal \, starting with the
inlets and outlets specifics to each instance and finishing with the
inlets and outlets shared by all the instances. The inlets and outlets
for messages are always at the end.;
#X msg 473 171 vis \$1;
#X obj 473 141 nbx 5 14 0 3 0 0 empty empty empty 0 -8 0 10 -262144
-1 -1 0 256;
#X obj 537 94 sig~ 1;
#X obj 537 483 nbx 5 14 -1e+37 1e+37 0 0 empty empty empty 0 -8 0 10
-262144 -1 -1 2 256;
#X obj 537 462 snapshot~;
#X obj 545 442 r \$0-b;
#X obj 463 95 s \$0-b;
#X obj 463 72 metro 20;
#X obj 463 18 tgl 15 0 empty empty empty 17 7 0 10 -262144 -1 -1 1
1;
#X msg 472 38 \; pd dsp \$1;
#X obj 571 423 nbx 5 14 -1e+37 1e+37 0 0 empty empty empty 0 -8 0 10
-262144 -1 -1 4 256;
#X obj 571 402 snapshot~;
#X obj 579 382 r \$0-b;
#X obj 566 114 sig~ 2;
#X obj 596 135 sig~ 3;
#X obj 625 155 sig~ 4;
#X obj 606 363 nbx 5 14 -1e+37 1e+37 0 0 empty empty empty 0 -8 0 10
-262144 -1 -1 6 256;
#X obj 606 342 snapshot~;
#X obj 614 322 r \$0-b;
#X obj 640 303 nbx 5 14 -1e+37 1e+37 0 0 empty empty empty 0 -8 0 10
-262144 -1 -1 8 256;
#X obj 640 282 snapshot~;
#X obj 648 262 r \$0-b;
#X obj 655 74 nbx 5 14 -1e+37 1e+37 0 0 empty empty empty 0 -8 0 10
-262144 -1 -1 0 256;
#X obj 684 118 nbx 5 14 -1e+37 1e+37 0 0 empty empty empty 0 -8 0 10
-262144 -1 -1 0 256;
#X obj 675 423 nbx 5 14 -1e+37 1e+37 0 0 empty empty empty 0 -8 0 10
-262144 -1 -1 1 256;
#X obj 675 402 snapshot~;
#X obj 683 382 r \$0-b;
#X obj 709 354 nbx 5 14 -1e+37 1e+37 0 0 empty empty empty 0 -8 0 10
-262144 -1 -1 20 256;
#X obj 709 333 snapshot~;
#X obj 717 313 r \$0-b;
#X obj 744 280 nbx 5 14 -1e+37 1e+37 0 0 empty empty empty 0 -8 0 10
-262144 -1 -1 2 256;
#X obj 714 157 nbx 5 14 -1e+37 1e+37 0 0 empty empty empty 0 -8 0 10
-262144 -1 -1 0 256;
#X obj 744 177 nbx 5 14 -1e+37 1e+37 0 0 empty empty empty 0 -8 0 10
-262144 -1 -1 2 256;
#X text 485 17 Turn on the dsp.;
#X obj 684 136 sig~ 0;
#X obj 812 299 + 1;
#X obj 783 321 nbx 5 14 -1e+37 1e+37 0 0 empty empty empty 0 -8 0 10
-262144 -1 -1 4 256;
#X obj 744 256 t f b, f 6;
#X obj 744 196 t f b, f 8;
#X obj 801 259 f 1;
#X obj 783 299 f 1;
#X obj 655 94 sig~ 2;
#X obj 537 228 spam~ 4 spam.example 8 shadoks;
#X text 6 358 If you don't have any spam.in~ objects but you do have
a spam.in object in your patch \, the first inlet will be used for
the first spam.in object and the spam~ object. The inlets and outlets
for messages are always shared by all the instance and there is no
methods to target a specfic instance so you you should use route the
messages within the patches.;
#X text 6 478 Important: If you edit the patch \, you have to recreate
the spam~ object to reflect the changes.;
#X connect 5 0 47 0;
#X connect 6 0 5 0;
#X connect 7 0 47 0;
#X connect 9 0 8 0;
#X connect 10 0 9 0;
#X connect 12 0 11 0;
#X connect 13 0 12 0;
#X connect 13 0 14 0;
#X connect 16 0 15 0;
#X connect 17 0 16 0;
#X connect 18 0 47 1;
#X connect 19 0 47 2;
#X connect 20 0 47 3;
#X connect 22 0 21 0;
#X connect 23 0 22 0;
#X connect 25 0 24 0;
#X connect 26 0 25 0;
#X connect 27 0 46 0;
#X connect 28 0 39 0;
#X connect 30 0 29 0;
#X connect 31 0 30 0;
#X connect 33 0 32 0;
#X connect 34 0 33 0;
#X connect 36 0 47 6;
#X connect 37 0 43 0;
#X connect 39 0 47 5;
#X connect 40 0 45 1;
#X connect 42 0 35 0;
#X connect 42 1 45 0;
#X connect 43 0 47 7;
#X connect 43 1 44 0;
#X connect 44 0 45 1;
#X connect 45 0 40 0;
#X connect 45 0 41 0;
#X connect 46 0 47 4;
#X connect 47 0 9 0;
#X connect 47 1 16 0;
#X connect 47 2 22 0;
#X connect 47 3 25 0;
#X connect 47 4 30 0;
#X connect 47 5 33 0;
#X connect 47 6 42 0;
