#N canvas 101 203 649 416 10;
#X obj 502 222 spam.out 0;
#X obj 153 92 spam.in~ 0;
#X obj 153 274 spam.out~ 0;
#X obj 20 92 spam.in~;
#X obj 20 274 spam.out~;
#X obj 20 164 *~;
#X obj 20 206 -~;
#X obj 273 92 spam.in~ 1;
#X obj 263 274 spam.out~ 1;
#X obj 174 155 loadbang;
#X obj 153 216 /~ 1;
#X text 379 344 The index of the instance, f 10;
#X text 19 11 Receives the signal by the signal inlet specific to the
instance., f 16;
#X text 19 301 Sens the signal to the signal outlet specific to the
instance., f 16;
#X text 151 301 Adds the signal to the 1st signal outlet shared by
all the instance., f 13;
#X text 151 11 Receives the signal by the 1st signal inlet shared by
all the instance., f 15;
#X text 271 11 Receives the signal by the 2nd signal inlet shared by
all the instance., f 14;
#X text 261 301 Adds the signal to the 2nd signal outlet shared by
all the instance., f 13;
#X text 501 46 Receives the messages by the 2nd message inlet shared
by all the instance., f 15;
#X text 501 256 Sends the messages to the 1st message outlet shared
by all the instance., f 15;
#X text 371 46 Receives the messages by the 1st message inlet shared
by all the instance., f 15;
#X obj 263 250 *~ 1;
#X obj 382 280 loadbang;
#X obj 382 324 nbx 5 14 -1e+37 1e+37 0 0 empty empty empty 0 -8 0 10
-262144 -1 -1 0 256;
#X text 203 174 The 1st extra argument, f 9;
#X obj 174 177 f \$2;
#X obj 382 302 f \$1;
#X obj 372 137 spam.in 0;
#X obj 502 137 spam.in 1;
#X connect 1 0 5 1;
#X connect 1 0 10 0;
#X connect 3 0 5 0;
#X connect 5 0 6 0;
#X connect 6 0 4 0;
#X connect 6 0 21 0;
#X connect 7 0 6 1;
#X connect 9 0 25 0;
#X connect 10 0 2 0;
#X connect 21 0 8 0;
#X connect 22 0 26 0;
#X connect 25 0 10 1;
#X connect 26 0 23 0;
#X connect 27 0 21 1;
#X connect 28 0 0 0;
