#N canvas 75 452 564 282 10;
#X declare -path ../bin;
#X obj 258 46 spam.in 1;
#X obj 138 46 spam.in 2;
#X obj 198 46 spam.in 3;
#X obj 138 111 spam.out 1;
#X obj 198 91 spam.out 2;
#X obj 258 71 spam.out 3;
#X obj 78 131 spam.out 0;
#X obj 78 46 spam.in 0;
#X obj 9 42 spam.in~ 0;
#X obj 343 9 declare -path ../bin;
#X obj 6 157 spam.out~ 0;
#X connect 0 0 5 0;
#X connect 1 0 3 0;
#X connect 2 0 4 0;
#X connect 7 0 6 0;
#X connect 8 0 10 0;
