#N canvas 75 452 564 282 10;
#X declare -path ../bin;
#X obj 435 39 loadbang;
#X obj 435 81 print \$0 \$1 \$2 \$3 \$4;
#X obj 258 46 spam.in 1;
#X obj 138 46 spam.in 2;
#X obj 198 46 spam.in 3;
#X obj 138 111 spam.out 1;
#X obj 198 91 spam.out 2;
#X obj 258 71 spam.out 3;
#X obj 78 131 spam.out 0;
#X obj 78 46 spam.in 0;
#X obj 25 83 bng 15 250 50 0 empty empty empty 17 7 0 10 -262144 -1
-1;
#X obj 9 42 spam.in~ 0;
#X obj 6 157 print~;
#X obj 27 120 print \$3 \$4;
#X obj 343 9 declare -path ../bin;
#X connect 2 0 7 0;
#X connect 3 0 5 0;
#X connect 4 0 6 0;
#X connect 9 0 8 0;
#X connect 9 0 10 0;
#X connect 10 0 12 0;
#X connect 10 0 13 0;
#X connect 11 0 12 0;
