#N canvas 588 460 450 300 10;
#X declare -path ../bin;
#X msg 149 44 vis \$1;
#X obj 149 20 nbx 5 14 -1e+37 1e+37 0 0 empty empty empty 0 -8 0 10
-262144 -1 -1 0 256;
#X obj 112 40 + 1;
#X obj 79 1 bng 15 250 50 0 empty empty empty 17 7 0 10 -262144 -1
-1;
#X obj 108 2 bng 15 250 50 0 empty empty empty 17 7 0 10 -262144 -1
-1;
#X obj 79 40 - 1;
#X obj 79 21 f 0;
#X obj 112 21 f 0;
#X obj 169 257 nbx 5 14 -1e+37 1e+37 0 0 empty empty empty 0 -8 0 10
-262144 -1 -1 115 256;
#X obj 229 257 nbx 5 14 -1e+37 1e+37 0 0 empty empty empty 0 -8 0 10
-262144 -1 -1 0 256;
#X obj 148 162 nbx 5 14 -1e+37 1e+37 0 0 empty empty empty 0 -8 0 10
-262144 -1 -1 196 256;
#X obj 224 172 nbx 5 14 -1e+37 1e+37 0 0 empty empty empty 0 -8 0 10
-262144 -1 -1 77 256;
#X obj 295 181 nbx 5 14 -1e+37 1e+37 0 0 empty empty empty 0 -8 0 10
-262144 -1 -1 115 256;
#X obj 299 257 nbx 5 14 -1e+37 1e+37 0 0 empty empty empty 0 -8 0 10
-262144 -1 -1 72 256;
#X obj 295 160 nbx 5 14 -1e+37 1e+37 0 0 empty empty empty 0 -8 0 10
-262144 -1 -1 72 256;
#X obj 98 267 nbx 5 14 -1e+37 1e+37 0 0 empty empty empty 0 -8 0 10
-262144 -1 -1 77 256;
#X obj 89 89 sig~ 1;
#X obj 149 123 spam.process~ 4 4 spam.dummy;
#X obj 232 14 declare -path ../bin;
#X obj 149 203 spam.process~ 4 4 spam.sub;
#X obj 359 257 nbx 5 14 -1e+37 1e+37 0 0 empty empty empty 0 -8 0 10
-262144 -1 -1 0 256;
#X obj 88 162 nbx 5 14 -1e+37 1e+37 0 0 empty empty empty 0 -8 0 10
-262144 -1 -1 85 256;
#X connect 0 0 17 0;
#X connect 1 0 0 0;
#X connect 1 0 6 1;
#X connect 1 0 7 1;
#X connect 2 0 1 0;
#X connect 3 0 6 0;
#X connect 4 0 7 0;
#X connect 5 0 1 0;
#X connect 6 0 5 0;
#X connect 7 0 2 0;
#X connect 10 0 19 1;
#X connect 11 0 19 2;
#X connect 12 0 19 4;
#X connect 14 0 19 3;
#X connect 19 0 15 0;
#X connect 19 1 8 0;
#X connect 19 2 9 0;
#X connect 19 3 13 0;
#X connect 21 0 19 0;
