#N struct 2601-t-scope float x array bufr 2601-t-scope-value-r array
bufg 2601-t-scope-value-g;
#N struct 2601-t-scope-value-r float x float y;
#N struct 2601-t-scope-value-g float x float y;
#N canvas 606 55 686 774 10;
#X declare -stdpath spam;
#X obj 14 85 text define -k \$0-config;
#A set ylm.order 3 \; ylm.dec.nls 8 \; ylm.dec.angles 45 90 135 180
225 270 315 360 \; ylm.scope.gain 120 \;;
#X obj 37 332 *~;
#X obj 49 355 nbx 5 14 0 100 0 0 empty \$0-gain empty 0 -8 0 10 -262144
-1 -1 90 256;
#X obj 22 399 *~, f 5;
#X obj 22 287 noise~;
#N canvas 0 22 450 300 init 0;
#X obj 13 42 loadbang;
#X msg 13 64 100;
#X obj 13 86 s \$0-gain;
#X obj 82 42 loadbang;
#X msg 82 64 0 0;
#X obj 82 86 s \$0-coord;
#X obj 152 42 loadbang;
#X msg 152 64 0;
#X obj 152 86 s \$0-hardness;
#X obj 242 42 loadbang;
#X obj 242 86 s \$0-opacity;
#X msg 242 64 100;
#X obj 322 42 loadbang;
#X obj 322 86 s \$0-size;
#X msg 322 64 1;
#X connect 0 0 1 0;
#X connect 1 0 2 0;
#X connect 3 0 4 0;
#X connect 4 0 5 0;
#X connect 6 0 7 0;
#X connect 7 0 8 0;
#X connect 9 0 11 0;
#X connect 11 0 10 0;
#X connect 12 0 14 0;
#X connect 14 0 13 0;
#X restore 22 266 pd init;
#X obj 434 10 declare -stdpath spam;
#N canvas 0 22 450 300 gain 0;
#X obj 10 45 dbtorms;
#X obj 10 67 pack f 20;
#X obj 10 89 line~;
#X obj 10 25 inlet;
#X obj 10 111 outlet~;
#X connect 0 0 1 0;
#X connect 1 0 2 0;
#X connect 2 0 4 0;
#X connect 3 0 0 0;
#X restore 49 375 pd gain;
#X obj 37 310 osc~ 5;
#X obj 4 8 ../misc/spam.header hoa.2d.encoder~;
#X text 4 31 The abstraction synthesizes the signals of a circular
harmonics..., f 67;
#X obj 4 735 ../misc/spam.footer;
#N canvas 0 22 450 300 \$0-scope 0;
#X scalar 2601-t-scope 0 \; 0.0982682 0 \; 0.0829807 0.00291395 \;
0.066581 0.0046819 \; 0.0493736 0.00521858 \; 0.0316746 0.00447678
\; 0.0138059 0.00244824 \; 0 0 \; 0 0 \; 0 0 \; 0 0 \; 0 0 \; 0 0 \;
0 0 \; 0 0 \; 0 0 \; 0 0 \; 0 0 \; 0 0 \; 0 0 \; 0 0 \; 0 0 \; 0 0
\; 0 0 \; 0 0 \; 0 0 \; 0 0 \; 0 0 \; 0 0 \; 0 0 \; 0 0 \; 0 0 \; 0
0 \; 0.00508136 0.0105855 \; 0.0119176 0.0272378 \; 0.0174804 0.0441052
\; 0.0216878 0.0608766 \; 0.0244969 0.0772347 \; 0.0259043 0.0928629
\; 0.0259464 0.107452 \; 0.0246985 0.120705 \; 0.0222732 0.132347 \;
0.0188171 0.142128 \; 0.0145078 0.149829 \; 0.00954961 0.155268 \;
0.00416832 0.158304 \; -0.0013941 0.158838 \; -0.00688546 0.156821
\; -0.0120497 0.15225 \; -0.0166334 0.14517 \; -0.0203922 0.135677
\; -0.0230974 0.123914 \; -0.0245419 0.110066 \; -0.0245465 0.0943634
\; -0.022965 0.0770725 \; -0.0196887 0.0584922 \; -0.0146511 0.0389486
\; -0.00783065 0.0187881 \; -0 0 \; -0 0 \; -0 0 \; -0 0 \; -0 0 \;
-0 0 \; -0 0 \; -0 0 \; -0 0 \; -0 0 \; -0 0 \; -0 0 \; -0 0 \; -0
0 \; -0 0 \; -0 0 \; -0 0 \; -0 0 \; -0 0 \; -0 0 \; -0 0 \; -0 0 \;
-0 0 \; -0 0 \; -0 0 \; -0 0 \; -0.0204033 0.00473768 \; -0.0630321
0.0123222 \; -0.108666 0.0173085 \; -0.156875 0.0193701 \; -0.207177
0.018227 \; -0.259048 0.0136515 \; -0.311927 0.00547441 \; -0.365225
-0.00641151 \; -0.418332 -0.0220475 \; -0.470633 -0.0414074 \; -0.521508
-0.0643957 \; -0.57035 -0.0908492 \; -0.61657 -0.120537 \; -0.659609
-0.153165 \; -0.698943 -0.188379 \; -0.734098 -0.225769 \; -0.764651
-0.264878 \; -0.79024 -0.305205 \; -0.81057 -0.346216 \; -0.825418
-0.387353 \; -0.834635 -0.428042 \; -0.838149 -0.467699 \; -0.835965
-0.505747 \; -0.82817 -0.541619 \; -0.814923 -0.574773 \; -0.796458
-0.604694 \; -0.773078 -0.630912 \; -0.745151 -0.653002 \; -0.713104
-0.670595 \; -0.67741 -0.683385 \; -0.638591 -0.691131 \; -0.597197
-0.693667 \; -0.553808 -0.690896 \; -0.509014 -0.682802 \; -0.463416
-0.669443 \; -0.417605 -0.650952 \; -0.372163 -0.627537 \; -0.327647
-0.599476 \; -0.284581 -0.567112 \; -0.243452 -0.530847 \; -0.204698
-0.491138 \; -0.168703 -0.448485 \; -0.135793 -0.403428 \; -0.106234
-0.356535 \; -0.08022 -0.308393 \; -0.0578827 -0.259598 \; -0.0392822
-0.210747 \; -0.0244124 -0.16243 \; -0.0132005 -0.115213 \; -0.00551142
-0.0696416 \; -0.00115111 -0.0262199 \; -0 -0 \; 0 -0 \; 0 -0 \; 0
-0 \; 0 -0 \; 0 -0 \; 0 -0 \; 0 -0 \; 0 -0 \; 0 -0 \; 0 -0 \; 0 -0
\; 0 -0 \; 0 -0 \; 0 -0 \; 0 -0 \; 0 -0 \; 0 -0 \; 0 -0 \; 0 -0 \;
0 -0 \; 0 -0 \; 0 -0 \; 0 -0 \; 0 -0 \; 0 -0 \; 0.0138331 -0.0108903
\; 0.0314642 -0.023029 \; 0.0490147 -0.0332975 \; 0.0661445 -0.0416188
\; 0.0825202 -0.0479649 \; 0.0978222 -0.0523555 \; 0.111752 -0.0548557
\; 0.124038 -0.0555727 \; 0.13444 -0.0546522 \; 0.142755 -0.0522734
\; 0.148822 -0.0486435 \; 0.152524 -0.0439925 \; 0.153789 -0.0385663
\; 0.152594 -0.0326208 \; 0.148962 -0.0264152 \; 0.142966 -0.0202057
\; 0.13472 -0.0142388 \; 0.124384 -0.008746 \; 0.112156 -0.00393794
\; 0.0982663 4.38895e-07 \; \; 0 0 \; 0 0 \; 0 0 \; 0 0 \; 0 0 \; 0
0 \; 0.00391221 0.000836352 \; 0.021167 0.00530822 \; 0.0376595 0.0108623
\; 0.0531109 0.0173599 \; 0.0672677 0.0246321 \; 0.0799063 0.0324838
\; 0.0908377 0.0406985 \; 0.0999107 0.0490436 \; 0.107014 0.057276
\; 0.11208 0.0651476 \; 0.115083 0.0724121 \; 0.116039 0.0788302 \;
0.115007 0.0841762 \; 0.112087 0.0882429 \; 0.107414 0.0908476 \; 0.101158
0.0918362 \; 0.0935177 0.0910877 \; 0.0847164 0.0885176 \; 0.0749967
0.0840805 \; 0.0646146 0.0777717 \; 0.0538333 0.0696284 \; 0.0429176
0.0597299 \; 0.0321272 0.0481961 \; 0.0217109 0.035186 \; 0.0119015
0.0208953 \; 0.00290937 0.00555245 \; 0 0 \; 0 0 \; 0 0 \; 0 0 \; 0
0 \; 0 0 \; 0 0 \; 0 0 \; 0 0 \; 0 0 \; 0 0 \; 0 0 \; 0 0 \; -0 0 \;
-0 0 \; -0 0 \; -0 0 \; -0 0 \; -0 0 \; -0 0 \; -0 0 \; -0 0 \; -0
0 \; -0 0 \; -0 0 \; -0.000747076 0.00162898 \; -0.0110077 0.0219358
\; -0.0228277 0.0417661 \; -0.0360355 0.060762 \; -0.0504129 0.0785815
\; -0.0656979 0.0949052 \; -0.0815887 0.109444 \; -0.097748 0.121943
\; -0.113809 0.132192 \; -0.129381 0.140025 \; -0.144057 0.145327 \;
-0.157422 0.148037 \; -0.169058 0.14815 \; -0.178554 0.145718 \; -0.185516
0.140848 \; -0.189571 0.133705 \; -0.190378 0.124505 \; -0.187633 0.113514
\; -0.181079 0.101043 \; -0.170509 0.0874444 \; -0.155774 0.073101
\; -0.136785 0.058424 \; -0.11352 0.043843 \; -0.0860225 0.0297981
\; -0.0544043 0.0167316 \; -0.0188463 0.00507936 \; -0 0 \; -0 0 \;
-0 0 \; -0 0 \; -0 0 \; -0 0 \; -0 0 \; -0 -0 \; -0 -0 \; -0 -0 \;
-0 -0 \; -0 -0 \; -0 -0 \; -0 -0 \; -0 -0 \; -0 -0 \; -0 -0 \; -0 -0
\; -0 -0 \; -0 -0 \; -0 -0 \; -0 -0 \; -0 -0 \; -0 -0 \; -0 -0 \; -0
-0 \; -0 -0 \; -0 -0 \; -0 -0 \; -0 -0 \; -0 -0 \; -0 -0 \; -0 -0 \;
-0 -0 \; -0 -0 \; -0 -0 \; -0 -0 \; -0 -0 \; -0 -0 \; -0 -0 \; -0 -0
\; -0 -0 \; -0 -0 \; -0 -0 \; -0 -0 \; -0 -0 \; -0 -0 \; -0 -0 \; -0
-0 \; -0 -0 \; -0 -0 \; -0.000127975 -0.0145888 \; 0.0013792 -0.0523703
\; 0.00533689 -0.086767 \; 0.0113762 -0.117482 \; 0.0191028 -0.144281
\; 0.0281054 -0.166997 \; 0.0379642 -0.185532 \; 0.048259 -0.199851
\; 0.0585783 -0.209991 \; 0.068526 -0.216048 \; 0.0777308 -0.218183
\; 0.085851 -0.216611 \; 0.0925827 -0.211596 \; 0.0976639 -0.203451
\; 0.10088 -0.192524 \; 0.102065 -0.179193 \; 0.101108 -0.16386 \;
0.0979502 -0.14694 \; 0.0925884 -0.128857 \; 0.0850721 -0.110032 \;
0.075502 -0.0908752 \; 0.0640277 -0.0717821 \; 0.050844 -0.0531249
\; 0.0361838 -0.0352433 \; 0.0203164 -0.018444 \; 0.00353801 -0.00299231
\; 0 -0 \; 0 -0 \; 0 -0 \; 0 -0 \; 0 -0 \; 0 -0 \; 0 -0 \; 0 -0 \;
0 -0 \; 0 -0 \; 0 -0 \; 0 -0 \; 0 -0 \; 0 -0 \; 0 -0 \; 0 -0 \; 0 -0
\; 0 -0 \; 0 -0 \; 0 0 \; \;;
#X coords -1 1 1 -1 200 200 2 100 100;
#X restore 351 410 pd \$0-scope;
#X obj 375 306 nbx 5 14 -1e+37 1e+37 0 0 empty empty empty 0 -8 0 10
-262144 -1 -1 2.49 256;
#X obj 314 308 nbx 5 14 -1e+37 1e+37 0 0 empty empty empty 0 -8 0 10
-262144 -1 -1 0 256;
#X obj 325 335 t b f;
#X obj 325 357 pack 1 f;
#X obj 475 126 bng 15 250 50 0 empty empty empty 17 7 0 10 -262144
-1 -1;
#X obj 475 146 spam.connect;
#X obj 22 369 *~;
#X obj 22 426 spam~ 7 ylm.2d.syn.directional~ \$0-config, f 51;
#X obj 22 473 spam~ 7 ylm.2d.scope~ \$0-config \$0-scope, f 51;
#X obj 22 712 dac~ 1 2 3 4 5 6 7 8, f 51;
#X obj 22 505 spam~ 7 ylm.2d.decoder~ \$0-config, f 51;
#X connect 1 0 19 1;
#X connect 2 0 7 0;
#X connect 3 0 20 0;
#X connect 4 0 19 0;
#X connect 7 0 3 1;
#X connect 8 0 1 0;
#X connect 8 0 1 1;
#X connect 13 0 15 0;
#X connect 13 0 16 1;
#X connect 14 0 16 0;
#X connect 15 0 16 0;
#X connect 16 0 20 1;
#X connect 17 0 18 0;
#X connect 19 0 3 0;
#X connect 20 0 21 0;
#X connect 20 0 23 0;
#X connect 20 1 21 1;
#X connect 20 1 23 1;
#X connect 20 2 21 2;
#X connect 20 2 23 2;
#X connect 20 3 21 3;
#X connect 20 3 23 3;
#X connect 20 4 21 4;
#X connect 20 4 23 4;
#X connect 20 5 21 5;
#X connect 20 5 23 5;
#X connect 20 6 21 6;
#X connect 20 6 23 6;
#X connect 23 0 22 0;
#X connect 23 1 22 1;
#X connect 23 2 22 2;
#X connect 23 3 22 3;
#X connect 23 4 22 4;
#X connect 23 5 22 5;
#X connect 23 6 22 6;
#X connect 23 7 22 7;
