#N canvas 237 60 576 513 10;
#X obj 90 310 spam.in~ 0;
#X obj 32 475 spam.out~;
#X obj 424 18 spam.in 0;
#X obj 424 40 route diffusion;
#X obj 424 62 clip 0 100;
#X obj 439 107 loadbang;
#X obj 439 129 t b b, f 6;
#X obj 439 218 -, f 6;
#X obj 439 151 f \$2;
#X obj 439 240 + 1;
#X obj 472 151 f \$1;
#X obj 472 194 unpack;
#N canvas 0 22 450 300 itolm 0;
#X obj 26 57 + 1;
#X obj 26 79 / 2;
#X obj 26 101 int;
#X obj 26 35 t f f, f 10;
#X obj 86 57 mod 2;
#X obj 26 123 t f f, f 8;
#X obj 86 79 sel 0 1, f 9;
#X obj 86 101 f 1;
#X obj 111 101 f -1;
#X obj 71 147 *;
#X obj 26 11 inlet;
#X obj 26 222 outlet;
#X obj 26 177 pack f f;
#X connect 0 0 1 0;
#X connect 1 0 2 0;
#X connect 2 0 5 0;
#X connect 3 0 0 0;
#X connect 3 1 4 0;
#X connect 4 0 6 0;
#X connect 5 0 12 0;
#X connect 5 1 9 0;
#X connect 6 0 7 0;
#X connect 6 1 8 0;
#X connect 7 0 9 1;
#X connect 8 0 9 1;
#X connect 9 0 12 1;
#X connect 10 0 3 0;
#X connect 12 0 11 0;
#X restore 472 173 pd itolm;
#X obj 424 266 pow;
#X obj 424 314 s \$0-diff;
#X obj 424 84 / 100;
#X obj 32 6 spam.in~ 0;
#X obj 90 443 *~, f 14;
#X obj 180 249 spam.in 0;
#X obj 171 207 loadbang;
#N canvas 571 248 310 376 e^imθ 0;
#X obj 42 92 f \$1;
#X obj 42 69 loadbang;
#X obj 21 219 cos~;
#X obj 21 198 +~ 0, f 9;
#X obj 21 241 outlet~;
#X obj 21 163 *~ 1;
#X obj 42 135 unpack;
#X obj 74 155 < 0;
#X obj 74 177 * 0.25;
#X obj 21 49 line~;
#X obj 21 27 pack f 20;
#X obj 21 7 inlet;
#N canvas 0 22 450 300 itolm 0;
#X obj 26 57 + 1;
#X obj 26 79 / 2;
#X obj 26 101 int;
#X obj 26 35 t f f, f 10;
#X obj 86 57 mod 2;
#X obj 26 123 t f f, f 8;
#X obj 86 79 sel 0 1, f 9;
#X obj 86 101 f 1;
#X obj 111 101 f -1;
#X obj 71 147 *;
#X obj 26 11 inlet;
#X obj 26 222 outlet;
#X obj 26 177 pack f f;
#X connect 0 0 1 0;
#X connect 1 0 2 0;
#X connect 2 0 5 0;
#X connect 3 0 0 0;
#X connect 3 1 4 0;
#X connect 4 0 6 0;
#X connect 5 0 12 0;
#X connect 5 1 9 0;
#X connect 6 0 7 0;
#X connect 6 1 8 0;
#X connect 7 0 9 1;
#X connect 8 0 9 1;
#X connect 9 0 12 1;
#X connect 10 0 3 0;
#X connect 12 0 11 0;
#X restore 42 113 pd itolm;
#X connect 0 0 12 0;
#X connect 1 0 0 0;
#X connect 2 0 4 0;
#X connect 3 0 2 0;
#X connect 5 0 3 0;
#X connect 6 0 5 1;
#X connect 6 1 7 0;
#X connect 7 0 8 0;
#X connect 8 0 3 1;
#X connect 9 0 5 0;
#X connect 10 0 9 0;
#X connect 11 0 10 0;
#X connect 12 0 6 0;
#X restore 228 399 pd e^imθ;
#X obj 171 275 route list pol car;
#X obj 171 347 unpack f f;
#N canvas 0 23 175 333 pi_wrap 0;
#X obj 92 164 > 0;
#X obj 26 32 / 6.28319;
#X obj 26 54 wrap;
#X obj 26 76 nbx 5 14 -1e+37 1e+37 0 0 empty empty empty 0 -8 0 10
-262144 -1 -1 0.866665 256;
#X obj 53 164 abs;
#X obj 26 253 +, f 5;
#X obj 53 231 *, f 7;
#X obj 26 98 t f f;
#X obj 26 275 t f f;
#X obj 53 122 - 0;
#X obj 92 186 * -2;
#X obj 92 208 + 1;
#X obj 53 144 t f f, f 7;
#X obj 53 206 int;
#X obj 53 186 + 0.5;
#X obj 26 10 inlet;
#X obj 26 297 outlet;
#X connect 0 0 10 0;
#X connect 1 0 2 0;
#X connect 2 0 3 0;
#X connect 3 0 7 0;
#X connect 4 0 14 0;
#X connect 5 0 8 0;
#X connect 6 0 5 1;
#X connect 7 0 5 0;
#X connect 7 1 9 0;
#X connect 8 0 16 0;
#X connect 8 1 9 1;
#X connect 9 0 12 0;
#X connect 10 0 11 0;
#X connect 11 0 6 1;
#X connect 12 0 4 0;
#X connect 12 1 0 0;
#X connect 13 0 6 0;
#X connect 14 0 13 0;
#X connect 15 0 1 0;
#X restore 228 373 pd pi_wrap;
#X msg 171 228 list 1 0;
#N canvas 988 94 344 422 dc 0;
#X obj 120 115 f \$1;
#X obj 93 52 loadbang;
#X obj 120 158 unpack;
#X obj 93 74 t b b;
#X obj 93 186 -, f 5;
#X obj 23 220 pow;
#X obj 23 187 t f b f, f 9;
#X obj 48 220 f 1;
#X obj 48 242 -, f 5;
#X obj 48 264 *, f 8;
#X obj 48 286 + 1;
#X obj 23 312 *, f 4;
#X obj 23 61 moses 1;
#X obj 52 86 t b f;
#X obj 52 108 f 1;
#X obj 52 130 /, f 5;
#X obj 23 12 inlet;
#X obj 23 346 pack f 20;
#X obj 23 368 line~;
#X obj 23 390 outlet~;
#X text 103 300 if r > 1 -> g = 1/r;
#X text 103 320 if r <= 1 -> r^l(1+(1-x)*(N-l));
#X obj 23 39 max 1e-06;
#N canvas 0 22 450 300 itolm 0;
#X obj 26 57 + 1;
#X obj 26 79 / 2;
#X obj 26 101 int;
#X obj 26 35 t f f, f 10;
#X obj 86 57 mod 2;
#X obj 26 123 t f f, f 8;
#X obj 86 79 sel 0 1, f 9;
#X obj 86 101 f 1;
#X obj 111 101 f -1;
#X obj 71 147 *;
#X obj 26 11 inlet;
#X obj 26 222 outlet;
#X obj 26 177 pack f f;
#X connect 0 0 1 0;
#X connect 1 0 2 0;
#X connect 2 0 5 0;
#X connect 3 0 0 0;
#X connect 3 1 4 0;
#X connect 4 0 6 0;
#X connect 5 0 12 0;
#X connect 5 1 9 0;
#X connect 6 0 7 0;
#X connect 6 1 8 0;
#X connect 7 0 9 1;
#X connect 8 0 9 1;
#X connect 9 0 12 1;
#X connect 10 0 3 0;
#X connect 12 0 11 0;
#X restore 120 137 pd itolm;
#X obj 93 96 f \$2;
#X connect 0 0 23 0;
#X connect 1 0 3 0;
#X connect 2 0 4 1;
#X connect 2 0 5 1;
#X connect 3 0 24 0;
#X connect 3 1 0 0;
#X connect 4 0 9 1;
#X connect 5 0 11 0;
#X connect 6 0 5 0;
#X connect 6 1 7 0;
#X connect 6 2 8 1;
#X connect 7 0 8 0;
#X connect 8 0 9 0;
#X connect 9 0 10 0;
#X connect 10 0 11 1;
#X connect 11 0 17 0;
#X connect 12 0 6 0;
#X connect 12 1 13 0;
#X connect 13 0 14 0;
#X connect 13 1 15 1;
#X connect 14 0 15 0;
#X connect 15 0 17 0;
#X connect 16 0 22 0;
#X connect 17 0 18 0;
#X connect 18 0 19 0;
#X connect 22 0 12 0;
#X connect 23 0 2 0;
#X connect 24 0 4 0;
#X restore 171 399 pd dc;
#N canvas 0 22 450 300 cartopol 0;
#X obj 26 11 inlet;
#X obj 26 202 outlet;
#X obj 26 77 t f f;
#X obj 83 77 t f f;
#X obj 26 99 *, f 5;
#X obj 83 99 *, f 5;
#X obj 26 121 +, f 10;
#X obj 26 143 sqrt;
#X obj 125 97 atan2, f 10;
#X obj 26 33 t l l, f 17;
#X obj 125 55 unpack f f;
#X obj 26 55 unpack f f;
#X obj 125 77 swap, f 10;
#X obj 26 165 pack f f, f 17;
#X connect 0 0 9 0;
#X connect 2 0 4 0;
#X connect 2 1 4 1;
#X connect 3 0 5 0;
#X connect 3 1 5 1;
#X connect 4 0 6 0;
#X connect 5 0 6 1;
#X connect 6 0 7 0;
#X connect 7 0 13 0;
#X connect 8 0 13 1;
#X connect 9 0 11 0;
#X connect 9 1 10 0;
#X connect 10 0 12 0;
#X connect 10 1 12 1;
#X connect 11 0 2 0;
#X connect 11 1 3 0;
#X connect 12 0 8 0;
#X connect 12 1 8 1;
#X connect 13 0 1 0;
#X restore 211 301 pd cartopol;
#X obj 171 421 *~, f 10;
#X obj 32 413 *~;
#X obj 47 314 line~;
#X obj 105 338 sig~ 1;
#X obj 105 360 -~;
#X obj 90 413 *~;
#X obj 47 269 r \$0-diff;
#X obj 47 291 pack f 20;
#X obj 86 28 spam.in 0;
#X obj 86 50 route size delay feedback rarefaction;
#X obj 195 107 / 100;
#X obj 195 84 clip 0 100;
#X obj 250 137 / 100;
#X obj 250 114 clip 0 100;
#X obj 305 133 loadbang;
#X obj 305 155 symbol \$3;
#N canvas 0 22 450 300 sizes 0;
#X obj 125 26 r \$0-diff;
#X obj 115 5 inlet;
#X obj 125 178 t b f;
#X obj 115 204 *, f 5;
#X obj 115 226 outlet;
#X obj 125 135 *, f 7;
#N canvas 0 22 450 300 grainf 0;
#X obj 15 9 loadbang;
#X obj 15 51 f \$1;
#X obj 15 31 t b b, f 6;
#X obj 48 51 f \$2;
#X obj 48 73 * 2;
#X obj 48 95 + 1;
#X obj 15 118 /, f 6;
#X obj 15 142 t b f;
#X obj 15 164 f 1;
#X obj 15 186 -, f 5;
#X obj 15 208 outlet;
#X connect 0 0 2 0;
#X connect 1 0 6 0;
#X connect 2 0 1 0;
#X connect 2 1 3 0;
#X connect 3 0 4 0;
#X connect 4 0 5 0;
#X connect 5 0 6 1;
#X connect 6 0 7 0;
#X connect 7 0 8 0;
#X connect 7 1 9 1;
#X connect 8 0 9 0;
#X connect 9 0 10 0;
#X restore 164 112 pd grainf;
#X obj 125 157 +, f 5;
#X obj 125 48 t f b f, f 10;
#X obj 153 70 f 1;
#X obj 153 92 -, f 5;
#X connect 0 0 8 0;
#X connect 1 0 3 0;
#X connect 2 0 3 0;
#X connect 2 1 3 1;
#X connect 3 0 4 0;
#X connect 5 0 7 0;
#X connect 6 0 5 1;
#X connect 7 0 2 0;
#X connect 8 0 5 0;
#X connect 8 1 9 0;
#X connect 8 2 10 1;
#X connect 9 0 10 0;
#X connect 10 0 7 1;
#X restore 86 103 pd sizes;
#X obj 86 82 max 1e-06;
#N canvas 0 22 450 300 delays 0;
#X obj 125 26 r \$0-diff;
#X obj 115 5 inlet;
#X obj 125 178 t b f;
#X obj 115 204 *, f 5;
#X obj 115 226 outlet;
#X obj 125 135 *, f 7;
#X obj 125 157 +, f 5;
#X obj 125 48 t f b f, f 10;
#X obj 153 70 f 1;
#X obj 153 92 -, f 5;
#N canvas 0 22 450 300 sizef 0;
#X obj 15 9 loadbang;
#X obj 15 51 f \$1;
#X obj 15 31 t b b, f 6;
#X obj 48 51 f \$2;
#X obj 48 73 * 2;
#X obj 48 95 + 1;
#X obj 15 118 /, f 6;
#X obj 15 158 outlet;
#X obj 15 73 + 1;
#X connect 0 0 2 0;
#X connect 1 0 8 0;
#X connect 2 0 1 0;
#X connect 2 1 3 0;
#X connect 3 0 4 0;
#X connect 4 0 5 0;
#X connect 5 0 6 1;
#X connect 6 0 7 0;
#X connect 8 0 6 0;
#X restore 164 112 pd sizef;
#X connect 0 0 7 0;
#X connect 1 0 3 0;
#X connect 2 0 3 0;
#X connect 2 1 3 1;
#X connect 3 0 4 0;
#X connect 5 0 6 0;
#X connect 6 0 2 0;
#X connect 7 0 5 0;
#X connect 7 1 8 0;
#X connect 7 2 9 1;
#X connect 8 0 9 0;
#X connect 9 0 6 1;
#X connect 10 0 5 1;
#X restore 140 153 pd delays;
#N canvas 0 22 694 532 grain~ 0;
#X obj 87 312 line~;
#X obj 64 475 *~, f 17;
#X obj 163 447 *~, f 11;
#X obj 226 346 *~ 513;
#X obj 192 158 phasor~ 1;
#X msg 87 288 \$1 20;
#X obj 226 375 tabread4~;
#X obj 64 211 samphold~;
#X obj 64 123 noise~;
#X obj 64 146 *~ 1;
#X obj 64 167 +~;
#X obj 64 188 abs~;
#X obj 85 97 * 0.1;
#X obj 163 361 samphold~;
#X obj 163 284 +~ 1;
#X obj 163 310 *~ 0.5;
#X obj 163 262 noise~;
#N canvas 0 50 450 300 >~ 0;
#X obj 67 114 max~ 0;
#X obj 67 175 -~ 0;
#X obj 130 188 /~;
#X obj 130 152 sig~ -1;
#X obj 145 114 -~;
#X obj 67 212 *~;
#X obj 67 17 inlet~;
#X obj 67 252 outlet~;
#X obj 132 15 inlet;
#X connect 0 0 1 0;
#X connect 1 0 5 0;
#X connect 2 0 5 1;
#X connect 3 0 2 0;
#X connect 4 0 2 1;
#X connect 5 0 7 0;
#X connect 6 0 0 0;
#X connect 6 0 4 1;
#X connect 8 0 4 0;
#X connect 8 0 1 1;
#X connect 8 0 0 1;
#X restore 163 339 pd >~ 1;
#X obj 42 13 inlet~;
#X obj 64 510 outlet~;
#X obj 549 18 inlet;
#X obj 434 18 inlet;
#X obj 344 18 inlet;
#X obj 193 18 inlet;
#X obj 249 18 inlet;
#X msg 286 345 set \$1;
#N canvas 0 22 230 332 frequ 0;
#X obj 19 114 random;
#X obj 19 190 +;
#X obj 19 92 metro;
#X obj 19 163 t b f;
#X obj 19 137 * 0.1;
#X obj 18 213 t b f;
#X obj 20 278 /;
#X msg 20 245 1000;
#X obj 112 13 inlet;
#X obj 19 48 loadbang;
#X obj 20 300 outlet;
#X msg 19 70 1;
#X obj 112 35 moses 1;
#X connect 0 0 4 0;
#X connect 1 0 5 0;
#X connect 1 0 6 1;
#X connect 2 0 0 0;
#X connect 3 0 1 0;
#X connect 3 1 1 1;
#X connect 4 0 3 0;
#X connect 5 0 7 0;
#X connect 5 1 6 1;
#X connect 6 0 10 0;
#X connect 7 0 6 0;
#X connect 8 0 1 0;
#X connect 8 0 0 1;
#X connect 8 0 12 0;
#X connect 9 0 11 0;
#X connect 11 0 2 0;
#X connect 12 1 2 1;
#X restore 193 133 pd frequ;
#X obj 87 265 clip 0 0.99;
#X obj 4 438 *~;
#X obj 64 407 +~ 2;
#X obj 42 352 delwrite~ \$0-grainbuffer 10000, f 16;
#X obj 64 427 vd~ \$0-grainbuffer;
#X obj 249 40 s \$0-delaytime;
#X obj 79 52 r \$0-delaytime;
#X obj 344 40 s \$0-feedback;
#X obj 87 234 r \$0-feedback;
#X obj 434 40 s \$0-rarefaction;
#X obj 202 285 r \$0-rarefaction;
#X obj 549 40 s \$0-waveform;
#X obj 286 320 r \$0-waveform, f 38;
#X connect 0 0 28 1;
#X connect 1 0 19 0;
#X connect 1 0 28 0;
#X connect 2 0 1 1;
#X connect 3 0 6 0;
#X connect 4 0 3 0;
#X connect 4 0 7 1;
#X connect 4 0 13 1;
#X connect 5 0 0 0;
#X connect 6 0 2 1;
#X connect 7 0 29 0;
#X connect 8 0 9 0;
#X connect 9 0 10 0;
#X connect 10 0 11 0;
#X connect 11 0 7 0;
#X connect 12 0 9 1;
#X connect 13 0 2 0;
#X connect 14 0 15 0;
#X connect 15 0 17 0;
#X connect 16 0 14 0;
#X connect 17 0 13 0;
#X connect 18 0 30 0;
#X connect 20 0 38 0;
#X connect 21 0 36 0;
#X connect 22 0 34 0;
#X connect 23 0 26 0;
#X connect 24 0 32 0;
#X connect 25 0 6 0;
#X connect 26 0 4 0;
#X connect 27 0 5 0;
#X connect 28 0 30 0;
#X connect 29 0 31 0;
#X connect 31 0 1 0;
#X connect 33 0 12 0;
#X connect 33 0 10 1;
#X connect 35 0 27 0;
#X connect 37 0 17 1;
#X connect 39 0 25 0;
#X restore 32 184 pd grain~ ____________________________________;
#X obj 140 132 clip 0 10000;
#X connect 0 0 32 0;
#X connect 2 0 3 0;
#X connect 3 0 4 0;
#X connect 4 0 15 0;
#X connect 5 0 6 0;
#X connect 6 0 8 0;
#X connect 6 1 10 0;
#X connect 7 0 9 0;
#X connect 8 0 7 0;
#X connect 9 0 13 1;
#X connect 10 0 12 0;
#X connect 11 0 7 1;
#X connect 12 0 11 0;
#X connect 13 0 14 0;
#X connect 15 0 13 0;
#X connect 16 0 46 0;
#X connect 17 0 1 0;
#X connect 18 0 21 0;
#X connect 19 0 24 0;
#X connect 20 0 27 1;
#X connect 21 0 22 0;
#X connect 21 1 22 0;
#X connect 21 2 26 0;
#X connect 22 0 25 0;
#X connect 22 1 23 0;
#X connect 23 0 20 0;
#X connect 24 0 21 0;
#X connect 25 0 27 0;
#X connect 26 0 22 0;
#X connect 27 0 17 1;
#X connect 28 0 1 0;
#X connect 29 0 31 1;
#X connect 29 0 28 1;
#X connect 30 0 31 0;
#X connect 31 0 32 1;
#X connect 32 0 17 0;
#X connect 33 0 34 0;
#X connect 34 0 29 0;
#X connect 35 0 36 0;
#X connect 36 0 44 0;
#X connect 36 1 47 0;
#X connect 36 2 38 0;
#X connect 36 3 40 0;
#X connect 37 0 46 3;
#X connect 38 0 37 0;
#X connect 39 0 46 4;
#X connect 40 0 39 0;
#X connect 41 0 42 0;
#X connect 42 0 46 5;
#X connect 43 0 46 1;
#X connect 44 0 43 0;
#X connect 45 0 46 2;
#X connect 46 0 28 0;
#X connect 47 0 45 0;
