#N canvas 208 49 497 557 10;
#X obj 140 360 spam.in~ 0;
#X obj 72 525 spam.out~;
#X obj 32 40 delwrite~ \$0-del \$3;
#N canvas 571 23 696 606 delread~ 0;
#X obj 176 359 f;
#X obj 53 403 *~;
#X obj 175 405 *~;
#X obj 53 359 f;
#X obj 53 118 phasor~ 0.5;
#X obj 190 238 *~ -1;
#X obj 190 260 +~ 1;
#X obj 53 465 outlet~;
#X obj 448 48 array define \$0-env 515;
#N canvas 0 22 450 300 gen_array 0;
#N canvas 0 22 450 300 counter 0;
#X obj 66 121 until;
#X obj 66 96 f 512;
#X obj 66 146 f 0, f 8;
#X obj 146 146 + 1;
#X obj 66 46 inlet;
#X obj 66 71 t b b, f 8;
#X obj 127 96 f 0;
#X obj 66 171 outlet;
#X connect 0 0 2 0;
#X connect 1 0 0 0;
#X connect 2 0 3 0;
#X connect 2 0 7 0;
#X connect 3 0 2 1;
#X connect 4 0 5 0;
#X connect 5 0 1 0;
#X connect 5 1 6 0;
#X connect 6 0 2 1;
#X restore 48 86 pd counter;
#X obj 48 190 array set \$0-env, f 28;
#X obj 48 111 t f f, f 14;
#X obj 130 158 + 1;
#N canvas 0 22 450 300 mapcos 0;
#X obj 79 81 * 6.28319;
#X obj 79 106 - 3.14159;
#X obj 79 159 + 1;
#X obj 79 182 * 0.5;
#X obj 79 134 cos;
#X obj 79 27 inlet;
#X obj 79 207 outlet;
#X connect 0 0 1 0;
#X connect 1 0 4 0;
#X connect 2 0 3 0;
#X connect 3 0 6 0;
#X connect 4 0 2 0;
#X connect 5 0 0 0;
#X restore 48 158 pd mapcos;
#X obj 48 133 / 512;
#X msg 48 62 512;
#X obj 48 36 loadbang;
#X connect 0 0 2 0;
#X connect 2 0 5 0;
#X connect 2 1 3 0;
#X connect 3 0 1 1;
#X connect 4 0 1 0;
#X connect 5 0 4 0;
#X connect 6 0 0 0;
#X connect 7 0 6 0;
#X restore 448 24 pd gen_array;
#X obj 68 148 *~ 512;
#X obj 68 176 tabread4~ \$0-env;
#X obj 170 70 inlet;
#X obj 53 383 delread~ \$0-del 1;
#X obj 176 385 delread~ \$0-del 1;
#N canvas 0 22 505 496 switcher 0;
#X obj 95 209 samphold~;
#X obj 95 253 snapshot~;
#X obj 160 209 bang~;
#X obj 146 160 *~ 2;
#X obj 146 181 wrap~;
#X obj 95 275 change;
#X obj 95 298 bang;
#X obj 95 342 sel 0 1;
#X obj 95 320 tgl 15 0 empty empty empty 17 7 0 10 -262144 -1 -1 1
1;
#X obj 95 98 inlet~;
#X obj 145 384 outlet;
#X obj 95 384 outlet;
#X connect 0 0 1 0;
#X connect 1 0 5 0;
#X connect 2 0 1 0;
#X connect 3 0 4 0;
#X connect 4 0 0 1;
#X connect 5 0 6 0;
#X connect 6 0 8 0;
#X connect 7 0 10 0;
#X connect 7 1 11 0;
#X connect 8 0 7 0;
#X connect 9 0 0 0;
#X connect 9 0 3 0;
#X restore 53 288 pd switcher;
#X connect 0 0 14 0;
#X connect 1 0 7 0;
#X connect 2 0 7 0;
#X connect 3 0 13 0;
#X connect 4 0 10 0;
#X connect 4 0 15 0;
#X connect 5 0 6 0;
#X connect 6 0 2 1;
#X connect 10 0 11 0;
#X connect 11 0 1 1;
#X connect 11 0 5 0;
#X connect 12 0 3 1;
#X connect 12 0 0 1;
#X connect 13 0 1 0;
#X connect 14 0 2 0;
#X connect 15 0 3 0;
#X connect 15 1 0 0;
#X restore 72 288 pd delread~;
#X obj 72 148 spam.in 0;
#X obj 147 71 loadbang;
#X obj 147 113 f \$1;
#X obj 147 93 t b b, f 6;
#X obj 180 113 f \$2;
#X obj 180 135 * 2;
#X obj 180 157 + 1;
#X obj 147 135 + 1;
#X obj 147 187 /, f 6;
#X obj 72 262 *, f 13;
#X obj 354 118 spam.in 0;
#X obj 354 140 route diffusion;
#X obj 354 162 clip 0 100;
#X obj 369 207 loadbang;
#X obj 369 229 t b b, f 6;
#X obj 369 318 -, f 6;
#X obj 369 251 f \$2;
#X obj 369 340 + 1;
#X obj 402 251 f \$1;
#X obj 402 294 unpack;
#N canvas 0 22 450 300 itolm 0;
#X obj 26 57 + 1;
#X obj 26 79 / 2;
#X obj 26 101 int;
#X obj 26 35 t f f, f 10;
#X obj 86 57 mod 2;
#X obj 26 123 t f f, f 8;
#X obj 86 79 sel 0 1, f 9;
#X obj 86 101 f 1;
#X obj 111 101 f -1;
#X obj 71 147 *;
#X obj 26 11 inlet;
#X obj 26 222 outlet;
#X obj 26 177 pack f f;
#X connect 0 0 1 0;
#X connect 1 0 2 0;
#X connect 2 0 5 0;
#X connect 3 0 0 0;
#X connect 3 1 4 0;
#X connect 4 0 6 0;
#X connect 5 0 12 0;
#X connect 5 1 9 0;
#X connect 6 0 7 0;
#X connect 6 1 8 0;
#X connect 7 0 9 1;
#X connect 8 0 9 1;
#X connect 9 0 12 1;
#X connect 10 0 3 0;
#X connect 12 0 11 0;
#X restore 402 273 pd itolm;
#X obj 354 366 pow;
#X obj 21 163 t b f;
#X obj 354 414 s \$0-diff;
#X obj 21 113 r \$0-diff;
#X obj 72 239 *, f 5;
#X obj 354 184 / 100;
#X obj 32 16 spam.in~ 0;
#X obj 140 493 *~, f 14;
#X obj 230 299 spam.in 0;
#X obj 221 257 loadbang;
#N canvas 571 248 310 376 e^imθ 0;
#X obj 42 92 f \$1;
#X obj 42 69 loadbang;
#X obj 21 219 cos~;
#X obj 21 198 +~ 0, f 9;
#X obj 21 241 outlet~;
#X obj 21 163 *~ 1;
#X obj 42 135 unpack;
#X obj 74 155 < 0;
#X obj 74 177 * 0.25;
#X obj 21 49 line~;
#X obj 21 27 pack f 20;
#X obj 21 7 inlet;
#N canvas 0 22 450 300 itolm 0;
#X obj 26 57 + 1;
#X obj 26 79 / 2;
#X obj 26 101 int;
#X obj 26 35 t f f, f 10;
#X obj 86 57 mod 2;
#X obj 26 123 t f f, f 8;
#X obj 86 79 sel 0 1, f 9;
#X obj 86 101 f 1;
#X obj 111 101 f -1;
#X obj 71 147 *;
#X obj 26 11 inlet;
#X obj 26 222 outlet;
#X obj 26 177 pack f f;
#X connect 0 0 1 0;
#X connect 1 0 2 0;
#X connect 2 0 5 0;
#X connect 3 0 0 0;
#X connect 3 1 4 0;
#X connect 4 0 6 0;
#X connect 5 0 12 0;
#X connect 5 1 9 0;
#X connect 6 0 7 0;
#X connect 6 1 8 0;
#X connect 7 0 9 1;
#X connect 8 0 9 1;
#X connect 9 0 12 1;
#X connect 10 0 3 0;
#X connect 12 0 11 0;
#X restore 42 113 pd itolm;
#X connect 0 0 12 0;
#X connect 1 0 0 0;
#X connect 2 0 4 0;
#X connect 3 0 2 0;
#X connect 5 0 3 0;
#X connect 6 0 5 1;
#X connect 6 1 7 0;
#X connect 7 0 8 0;
#X connect 8 0 3 1;
#X connect 9 0 5 0;
#X connect 10 0 9 0;
#X connect 11 0 10 0;
#X connect 12 0 6 0;
#X restore 278 449 pd e^imθ;
#X obj 221 325 route list pol car;
#X obj 221 397 unpack f f;
#N canvas 0 23 175 333 pi_wrap 0;
#X obj 92 164 > 0;
#X obj 26 32 / 6.28319;
#X obj 26 54 wrap;
#X obj 26 76 nbx 5 14 -1e+37 1e+37 0 0 empty empty empty 0 -8 0 10
-262144 -1 -1 0 256;
#X obj 53 164 abs;
#X obj 26 253 +, f 5;
#X obj 53 231 *, f 7;
#X obj 26 98 t f f;
#X obj 26 275 t f f;
#X obj 53 122 - 0;
#X obj 92 186 * -2;
#X obj 92 208 + 1;
#X obj 53 144 t f f, f 7;
#X obj 53 206 int;
#X obj 53 186 + 0.5;
#X obj 26 10 inlet;
#X obj 26 297 outlet;
#X connect 0 0 10 0;
#X connect 1 0 2 0;
#X connect 2 0 3 0;
#X connect 3 0 7 0;
#X connect 4 0 14 0;
#X connect 5 0 8 0;
#X connect 6 0 5 1;
#X connect 7 0 5 0;
#X connect 7 1 9 0;
#X connect 8 0 16 0;
#X connect 8 1 9 1;
#X connect 9 0 12 0;
#X connect 10 0 11 0;
#X connect 11 0 6 1;
#X connect 12 0 4 0;
#X connect 12 1 0 0;
#X connect 13 0 6 0;
#X connect 14 0 13 0;
#X connect 15 0 1 0;
#X restore 278 423 pd pi_wrap;
#X msg 221 278 list 1 0;
#N canvas 988 94 344 422 dc 0;
#X obj 120 115 f \$1;
#X obj 93 52 loadbang;
#X obj 120 158 unpack;
#X obj 93 74 t b b;
#X obj 93 186 -, f 5;
#X obj 23 220 pow;
#X obj 23 187 t f b f, f 9;
#X obj 48 220 f 1;
#X obj 48 242 -, f 5;
#X obj 48 264 *, f 8;
#X obj 48 286 + 1;
#X obj 23 312 *, f 4;
#X obj 23 61 moses 1;
#X obj 52 86 t b f;
#X obj 52 108 f 1;
#X obj 52 130 /, f 5;
#X obj 23 12 inlet;
#X obj 23 346 pack f 20;
#X obj 23 368 line~;
#X obj 23 390 outlet~;
#X text 103 300 if r > 1 -> g = 1/r;
#X text 103 320 if r <= 1 -> r^l(1+(1-x)*(N-l));
#X obj 23 39 max 1e-06;
#N canvas 0 22 450 300 itolm 0;
#X obj 26 57 + 1;
#X obj 26 79 / 2;
#X obj 26 101 int;
#X obj 26 35 t f f, f 10;
#X obj 86 57 mod 2;
#X obj 26 123 t f f, f 8;
#X obj 86 79 sel 0 1, f 9;
#X obj 86 101 f 1;
#X obj 111 101 f -1;
#X obj 71 147 *;
#X obj 26 11 inlet;
#X obj 26 222 outlet;
#X obj 26 177 pack f f;
#X connect 0 0 1 0;
#X connect 1 0 2 0;
#X connect 2 0 5 0;
#X connect 3 0 0 0;
#X connect 3 1 4 0;
#X connect 4 0 6 0;
#X connect 5 0 12 0;
#X connect 5 1 9 0;
#X connect 6 0 7 0;
#X connect 6 1 8 0;
#X connect 7 0 9 1;
#X connect 8 0 9 1;
#X connect 9 0 12 1;
#X connect 10 0 3 0;
#X connect 12 0 11 0;
#X restore 120 137 pd itolm;
#X obj 93 96 f \$2;
#X connect 0 0 23 0;
#X connect 1 0 3 0;
#X connect 2 0 4 1;
#X connect 2 0 5 1;
#X connect 3 0 24 0;
#X connect 3 1 0 0;
#X connect 4 0 9 1;
#X connect 5 0 11 0;
#X connect 6 0 5 0;
#X connect 6 1 7 0;
#X connect 6 2 8 1;
#X connect 7 0 8 0;
#X connect 8 0 9 0;
#X connect 9 0 10 0;
#X connect 10 0 11 1;
#X connect 11 0 17 0;
#X connect 12 0 6 0;
#X connect 12 1 13 0;
#X connect 13 0 14 0;
#X connect 13 1 15 1;
#X connect 14 0 15 0;
#X connect 15 0 17 0;
#X connect 16 0 22 0;
#X connect 17 0 18 0;
#X connect 18 0 19 0;
#X connect 22 0 12 0;
#X connect 23 0 2 0;
#X connect 24 0 4 0;
#X restore 221 449 pd dc;
#N canvas 0 22 450 300 cartopol 0;
#X obj 26 11 inlet;
#X obj 26 202 outlet;
#X obj 26 77 t f f;
#X obj 83 77 t f f;
#X obj 26 99 *, f 5;
#X obj 83 99 *, f 5;
#X obj 26 121 +, f 10;
#X obj 26 143 sqrt;
#X obj 125 97 atan2, f 10;
#X obj 26 33 t l l, f 17;
#X obj 125 55 unpack f f;
#X obj 26 55 unpack f f;
#X obj 125 77 swap, f 10;
#X obj 26 165 pack f f, f 17;
#X connect 0 0 9 0;
#X connect 2 0 4 0;
#X connect 2 1 4 1;
#X connect 3 0 5 0;
#X connect 3 1 5 1;
#X connect 4 0 6 0;
#X connect 5 0 6 1;
#X connect 6 0 7 0;
#X connect 7 0 13 0;
#X connect 8 0 13 1;
#X connect 9 0 11 0;
#X connect 9 1 10 0;
#X connect 10 0 12 0;
#X connect 10 1 12 1;
#X connect 11 0 2 0;
#X connect 11 1 3 0;
#X connect 12 0 8 0;
#X connect 12 1 8 1;
#X connect 13 0 1 0;
#X restore 261 351 pd cartopol;
#X obj 221 471 *~, f 10;
#X obj 72 463 *~;
#X obj 87 364 line~;
#X obj 155 388 sig~ 1;
#X obj 155 410 -~;
#X obj 140 463 *~;
#X obj 87 319 r \$0-diff;
#X obj 87 341 pack f 20;
#X obj 72 170 route delay;
#X connect 0 0 47 0;
#X connect 3 0 43 0;
#X connect 4 0 50 0;
#X connect 5 0 7 0;
#X connect 6 0 11 0;
#X connect 7 0 6 0;
#X connect 7 1 8 0;
#X connect 8 0 9 0;
#X connect 9 0 10 0;
#X connect 10 0 12 1;
#X connect 11 0 12 0;
#X connect 12 0 13 1;
#X connect 13 0 3 0;
#X connect 14 0 15 0;
#X connect 15 0 16 0;
#X connect 16 0 30 0;
#X connect 17 0 18 0;
#X connect 18 0 20 0;
#X connect 18 1 22 0;
#X connect 19 0 21 0;
#X connect 20 0 19 0;
#X connect 21 0 25 1;
#X connect 22 0 24 0;
#X connect 23 0 19 1;
#X connect 24 0 23 0;
#X connect 25 0 27 0;
#X connect 26 0 29 0;
#X connect 26 1 29 1;
#X connect 28 0 26 0;
#X connect 29 0 13 0;
#X connect 30 0 25 0;
#X connect 31 0 2 0;
#X connect 32 0 1 0;
#X connect 33 0 36 0;
#X connect 34 0 39 0;
#X connect 35 0 42 1;
#X connect 36 0 37 0;
#X connect 36 1 37 0;
#X connect 36 2 41 0;
#X connect 37 0 40 0;
#X connect 37 1 38 0;
#X connect 38 0 35 0;
#X connect 39 0 36 0;
#X connect 40 0 42 0;
#X connect 41 0 37 0;
#X connect 42 0 32 1;
#X connect 43 0 1 0;
#X connect 44 0 46 1;
#X connect 44 0 43 1;
#X connect 45 0 46 0;
#X connect 46 0 47 1;
#X connect 47 0 32 0;
#X connect 48 0 49 0;
#X connect 49 0 44 0;
#X connect 50 0 29 0;
