#N struct 2528-t-scope float x array bufr 2528-t-scope-value-r array
bufg 2528-t-scope-value-g;
#N struct 2528-t-scope-value-r float x float y;
#N struct 2528-t-scope-value-g float x float y;
#N canvas 606 23 527 770 10;
#X declare -stdpath spam;
#X obj 37 322 *~;
#X obj 49 345 nbx 5 14 0 100 0 0 empty \$0-gain empty 0 -8 0 10 -262144
-1 -1 80 256;
#X obj 22 389 *~, f 5;
#X obj 22 280 noise~;
#X obj 320 659 declare -stdpath spam;
#N canvas 0 22 450 300 gain 0;
#X obj 10 45 dbtorms;
#X obj 10 67 pack f 20;
#X obj 10 89 line~;
#X obj 10 25 inlet;
#X obj 10 111 outlet~;
#X connect 0 0 1 0;
#X connect 1 0 2 0;
#X connect 2 0 4 0;
#X connect 3 0 0 0;
#X restore 49 365 pd gain;
#X obj 37 300 osc~ 5;
#N canvas 0 22 450 300 \$0-scope 0;
#X scalar 2528-t-scope 0 \; 0.576849 0 \; 0.560785 0.0196925 \; 0.543716
0.0382334 \; 0.525922 0.0555878 \; 0.507685 0.0717544 \; 0.489284 0.086766
\; 0.47099 0.100688 \; 0.453062 0.113618 \; 0.435738 0.125682 \; 0.419238
0.137033 \; 0.40375 0.147845 \; 0.389437 0.158316 \; 0.376426 0.168653
\; 0.36481 0.179076 \; 0.354645 0.189812 \; 0.345948 0.201085 \; 0.338698
0.213115 \; 0.33284 0.226112 \; 0.328277 0.240273 \; 0.324884 0.255772
\; 0.3225 0.27276 \; 0.320937 0.291362 \; 0.319985 0.31167 \; 0.31941
0.333741 \; 0.318965 0.357598 \; 0.318392 0.383224 \; 0.317429 0.410565
\; 0.315811 0.439525 \; 0.313281 0.469974 \; 0.309592 0.501744 \; 0.304512
0.534631 \; 0.297829 0.568399 \; 0.289356 0.602787 \; 0.278934 0.637507
\; 0.266435 0.67225 \; 0.251766 0.706694 \; 0.23487 0.740507 \; 0.215728
0.773352 \; 0.194357 0.804891 \; 0.170815 0.834796 \; 0.145195 0.862748
\; 0.117626 0.888446 \; 0.0882708 0.911612 \; 0.0573215 0.931994 \;
0.024998 0.94937 \; -0.00845693 0.963553 \; -0.0427821 0.974393 \;
-0.0777025 0.98178 \; -0.112934 0.985643 \; -0.148189 0.985956 \; -0.183181
0.982734 \; -0.217631 0.976031 \; -0.251269 0.965945 \; -0.283845 0.952609
\; -0.315126 0.936193 \; -0.344906 0.916898 \; -0.373006 0.894953 \;
-0.399277 0.870613 \; -0.423605 0.844148 \; -0.44591 0.815847 \; -0.466148
0.786005 \; -0.48431 0.754921 \; -0.500422 0.722894 \; -0.514546 0.690216
\; -0.526775 0.657166 \; -0.537233 0.62401 \; -0.546069 0.590992 \;
-0.553455 0.558331 \; -0.559584 0.526223 \; -0.564663 0.494829 \; -0.568907
0.464284 \; -0.572539 0.434685 \; -0.57578 0.406099 \; -0.578847 0.378559
\; -0.581947 0.352066 \; -0.585273 0.326587 \; -0.589001 0.302065 \;
-0.593282 0.278413 \; -0.598244 0.255523 \; -0.603985 0.233267 \; -0.610572
0.211501 \; -0.618039 0.190073 \; -0.626389 0.168821 \; -0.635588 0.147585
\; -0.645571 0.126204 \; -0.65624 0.104527 \; -0.667467 0.0824156 \;
-0.679095 0.0597452 \; -0.690943 0.0364119 \; -0.702809 0.0123345 \;
-0.714472 -0.0125425 \; -0.725699 -0.0382467 \; -0.736248 -0.0647769
\; -0.745875 -0.0921005 \; -0.754335 -0.120156 \; -0.761391 -0.148849
\; -0.766816 -0.17806 \; -0.7704 -0.207638 \; -0.771953 -0.237412 \;
-0.771307 -0.267184 \; -0.768326 -0.296741 \; -0.7629 -0.325855 \;
-0.754955 -0.354286 \; -0.744451 -0.381791 \; -0.731385 -0.408124 \;
-0.71579 -0.433043 \; -0.697734 -0.456315 \; -0.677321 -0.477721 \;
-0.654689 -0.49706 \; -0.630007 -0.514152 \; -0.603472 -0.528844 \;
-0.575307 -0.541013 \; -0.545754 -0.550567 \; -0.515072 -0.55745 \;
-0.483533 -0.561641 \; -0.451416 -0.563158 \; -0.419 -0.562054 \; -0.386563
-0.558422 \; -0.354374 -0.552389 \; -0.322691 -0.544117 \; -0.29175
-0.533798 \; -0.26177 -0.521654 \; -0.232943 -0.507933 \; -0.205432
-0.492901 \; -0.179369 -0.476841 \; -0.154852 -0.460049 \; -0.131944
-0.442824 \; -0.110674 -0.425468 \; -0.0910339 -0.408278 \; -0.0729812
-0.391542 \; -0.0564405 -0.375531 \; -0.0413039 -0.3605 \; -0.0274358
-0.346676 \; -0.0146747 -0.334261 \; -0.0028371 -0.323423 \; 0.00827726
-0.314299 \; 0.0188822 -0.306986 \; 0.0291997 -0.301544 \; 0.0394544
-0.297994 \; 0.0498696 -0.296317 \; 0.060662 -0.296456 \; 0.072036
-0.298317 \; 0.0841802 -0.301768 \; 0.0972625 -0.306648 \; 0.111426
-0.312764 \; 0.126787 -0.319897 \; 0.143431 -0.327809 \; 0.161408 -0.336242
\; 0.180738 -0.344929 \; 0.201401 -0.353595 \; 0.223346 -0.361964 \;
0.246483 -0.369763 \; 0.270692 -0.376729 \; 0.29582 -0.382612 \; 0.321682
-0.387181 \; 0.348073 -0.390228 \; 0.374759 -0.391571 \; 0.401495 -0.391058
\; 0.428016 -0.38857 \; 0.454054 -0.384021 \; 0.479334 -0.377362 \;
0.503584 -0.368579 \; 0.526538 -0.357697 \; 0.547944 -0.344772 \; 0.567564
-0.329897 \; 0.585184 -0.313197 \; 0.600612 -0.294822 \; 0.613689 -0.274952
\; 0.624286 -0.253784 \; 0.632308 -0.231536 \; 0.637699 -0.208436 \;
0.64044 -0.184722 \; 0.64055 -0.160633 \; 0.638086 -0.136407 \; 0.633142
-0.112274 \; 0.625847 -0.0884523 \; 0.616365 -0.0651444 \; 0.604888
-0.0425323 \; 0.591635 -0.0207731 \; 0.576847 2.57642e-06 \; \; -0
-0 \; -0 -0 \; -0 -0 \; -0 -0 \; -0 -0 \; -0 -0 \; -0 -0 \; -0 -0 \;
-0 -0 \; -0 -0 \; -0 -0 \; -0 -0 \; -0 -0 \; -0 -0 \; -0 -0 \; -0 -0
\; -0 -0 \; -0 -0 \; -0 -0 \; -0 -0 \; -0 -0 \; -0 -0 \; -0 -0 \; -0
-0 \; -0 -0 \; -0 -0 \; -0 -0 \; -0 -0 \; -0 -0 \; -0 -0 \; -0 -0 \;
-0 -0 \; -0 -0 \; -0 -0 \; -0 -0 \; -0 -0 \; -0 -0 \; -0 -0 \; -0 -0
\; -0 -0 \; -0 -0 \; -0 -0 \; -0 -0 \; -0 -0 \; -0 -0 \; 0 -0 \; 0
-0 \; 0 -0 \; 0 -0 \; 0 -0 \; 0 -0 \; 0 -0 \; 0 -0 \; 0 -0 \; 0 -0
\; 0 -0 \; 0 -0 \; 0 -0 \; 0 -0 \; 0 -0 \; 0 -0 \; 0 -0 \; 0 -0 \;
0 -0 \; 0 -0 \; 0 -0 \; 0 -0 \; 0 -0 \; 0 -0 \; 0 -0 \; 0 -0 \; 0 -0
\; 0 -0 \; 0 -0 \; 0 -0 \; 0 -0 \; 0 -0 \; 0 -0 \; 0 -0 \; 0 -0 \;
0 -0 \; 0 -0 \; 0 -0 \; 0 -0 \; 0 -0 \; 0 -0 \; 0 -0 \; 0 -0 \; 0 -0
\; 0 -0 \; 0 0 \; 0 0 \; 0 0 \; 0 0 \; 0 0 \; 0 0 \; 0 0 \; 0 0 \;
0 0 \; 0 0 \; 0 0 \; 0 0 \; 0 0 \; 0 0 \; 0 0 \; 0 0 \; 0 0 \; 0 0
\; 0 0 \; 0 0 \; 0 0 \; 0 0 \; 0 0 \; 0 0 \; 0 0 \; 0 0 \; 0 0 \; 0
0 \; 0 0 \; 0 0 \; 0 0 \; 0 0 \; 0 0 \; 0 0 \; 0 0 \; 0 0 \; 0 0 \;
0 0 \; 0 0 \; 0 0 \; 0 0 \; 0 0 \; 0 0 \; 0 0 \; 0 0 \; -0 0 \; -0
0 \; -0 0 \; -0 0 \; -0 0 \; -0 0 \; -0 0 \; -0 0 \; -0 0 \; -0 0 \;
-0 0 \; -0 0 \; -0 0 \; -0 0 \; -0 0 \; -0 0 \; -0 0 \; -0 0 \; -0
0 \; -0 0 \; -0 0 \; -0 0 \; -0 0 \; -0 0 \; -0 0 \; -0 0 \; -0 0 \;
-0 0 \; -0 0 \; -0 0 \; -0 0 \; -0 0 \; -0 0 \; -0 0 \; -0 0 \; -0
0 \; -0 0 \; -0 0 \; -0 0 \; -0 0 \; -0 0 \; -0 0 \; -0 0 \; -0 0 \;
-0 -0 \; \;;
#X coords -1 1 1 -1 201 201 2 100 100;
#X restore 75 466 pd \$0-scope;
#X obj 22 359 *~;
#X obj 22 702 dac~ 1 2 3 4 5 6 7 8, f 47;
#X obj 6 10 misc/ylm.header ylm.2d.syn.ringmod~;
#X obj 320 679 text define -k \$0-scope-attrs;
#A set gain 150 \; interval 100 \;;
#X obj 320 700 text define -k \$0-dec-attrs;
#A set angles 45 90 135 180 225 270 315 360 \;;
#X obj 22 675 spam~ 7 ylm.2d.decoder~ 3 8 \$0-dec-attrs, f 47;
#X obj 9 730 misc/ylm.footer;
#N canvas 0 22 450 300 init 0;
#X obj 23 32 loadbang;
#X msg 23 54 80;
#X obj 23 76 s \$0-gain;
#X obj 93 32 loadbang;
#X obj 93 76 s \$0-pos;
#X msg 93 54 1 0;
#X obj 163 32 loadbang;
#X msg 163 54 1;
#X obj 163 76 s \$0-traj;
#X obj 23 102 loadbang;
#X obj 163 102 loadbang;
#X msg 163 124 1;
#X obj 163 146 s \$0-diff;
#X obj 23 146 s \$0-frequency;
#X msg 23 124 20;
#X connect 0 0 1 0;
#X connect 1 0 2 0;
#X connect 3 0 5 0;
#X connect 5 0 4 0;
#X connect 6 0 7 0;
#X connect 7 0 8 0;
#X connect 9 0 14 0;
#X connect 10 0 11 0;
#X connect 11 0 12 0;
#X connect 14 0 13 0;
#X restore 320 638 pd init;
#X obj 22 443 spam~ 7 ylm.2d.scope~ 3 \$0-scope \$0-scope-attrs;
#N canvas 217 367 450 300 pos 0;
#X obj 145 100 nbx 4 14 -1e+37 1e+37 0 0 empty empty empty 0 -8 0 10
-262144 -1 -1 4.15388 256;
#X obj 100 100 nbx 4 14 0 1e+37 0 0 empty empty empty 0 -8 0 10 -262144
-1 -1 0.225 256;
#X obj 119 77 t b f;
#X obj 101 150 pack 1 f;
#X obj 101 18 r \$0-pos;
#X obj 101 40 unpack f f;
#X obj 101 172 outlet;
#X obj 164 19 inlet;
#X connect 0 0 2 0;
#X connect 1 0 3 0;
#X connect 2 0 1 0;
#X connect 2 1 3 1;
#X connect 3 0 6 0;
#X connect 4 0 5 0;
#X connect 5 0 1 0;
#X connect 5 1 0 0;
#X connect 7 0 5 0;
#X coords 0 -1 1 1 90 14 2 100 100;
#X restore 301 369 pd pos;
#X obj 301 323 tgl 15 0 empty \$0-traj empty 17 7 0 10 -262144 -1 -1
1 1;
#N canvas 0 22 450 406 trajectory 0;
#X obj 158 109 + 1;
#X obj 128 173 / 180;
#X obj 128 195 * 6.28318;
#X obj 128 153 f -1;
#X obj 128 131 sel 179 0;
#X obj 128 109 f 0;
#X obj 83 106 + 1;
#X obj 53 150 f -1;
#X obj 93 150 f 1;
#X obj 53 106 f 0;
#X obj 53 128 sel 499 0;
#X obj 53 235 t b f;
#X obj 53 257 f 1;
#X obj 53 279 -, f 5;
#X obj 53 79 t b b, f 13;
#X obj 53 55 metro 20;
#X obj 53 341 pack f f, f 13;
#X obj 53 33 inlet;
#X obj 53 363 outlet;
#X obj 159 153 f 1;
#X obj 53 170 max 300;
#X obj 53 192 - 300;
#X obj 53 214 / 200;
#X connect 0 0 5 1;
#X connect 1 0 2 0;
#X connect 2 0 16 1;
#X connect 3 0 0 1;
#X connect 4 0 3 0;
#X connect 4 1 19 0;
#X connect 5 0 0 0;
#X connect 5 0 1 0;
#X connect 5 0 4 0;
#X connect 6 0 9 1;
#X connect 7 0 6 1;
#X connect 8 0 6 1;
#X connect 9 0 6 0;
#X connect 9 0 10 0;
#X connect 9 0 20 0;
#X connect 10 0 7 0;
#X connect 10 1 8 0;
#X connect 11 0 12 0;
#X connect 11 1 13 1;
#X connect 12 0 13 0;
#X connect 13 0 16 0;
#X connect 14 0 9 0;
#X connect 14 1 5 0;
#X connect 15 0 14 0;
#X connect 16 0 18 0;
#X connect 17 0 15 0;
#X connect 19 0 0 1;
#X connect 20 0 21 0;
#X connect 21 0 22 0;
#X connect 22 0 11 0;
#X restore 301 346 pd trajectory;
#X obj 112 368 nbx 5 14 0 5000 0 0 empty \$0-frequency empty 0 -8 0
10 -262144 -1 -1 20 256;
#X obj 199 369 nbx 5 14 -1e+37 1e+37 0 0 empty empty empty 0 -8 0 10
-262144 -1 -1 44.1429 256;
#X msg 199 387 diffusion \$1;
#X obj 199 323 tgl 15 0 empty \$0-diff empty 17 7 0 10 -262144 -1 -1
1 1;
#N canvas 0 22 450 406 diffuse 0;
#X obj 53 150 f -1;
#X obj 93 150 f 1;
#X obj 53 55 metro 20;
#X obj 53 33 inlet;
#X obj 33 263 outlet;
#X obj 53 106 f 0;
#X obj 83 106 + 1;
#X obj 32 198 - 150;
#X obj 53 128 sel 999 0;
#X obj 32 176 clip 150 850;
#X obj 32 224 / 7;
#X connect 0 0 6 1;
#X connect 1 0 6 1;
#X connect 2 0 5 0;
#X connect 3 0 2 0;
#X connect 5 0 6 0;
#X connect 5 0 8 0;
#X connect 5 0 9 0;
#X connect 6 0 5 1;
#X connect 7 0 10 0;
#X connect 8 0 0 0;
#X connect 8 1 1 0;
#X connect 9 0 7 0;
#X connect 10 0 4 0;
#X restore 199 346 pd diffuse;
#X obj 22 416 spam~ 7 ylm.2d.syn.ringmod~ 3, f 47;
#X msg 112 387 frequency \$1;
#X text 4 31 The abstraction synthesizes the signals of the circular
harmonics with a source signal using ring modulation. The idea behind
this implementation is again to decorrelate the signal depending a
factor of diffusion. When the diffussion is 100% \, all the signal
are decorrelated. Decreasing the factor of diffusion toward zero brings
back linearly to a directional synthesis. Like for the directional
synthesis \, a list of coordinates controls the position but in this
implementation \, the frequency value controls a global frequency rate
that is scaled depending on the degree and the order of harmonics following
this equation:, f 67;
#X text 4 198 The abstraction expects the order of decomposition as
the first argument. For an order of decomposition N \, there are 2N+1
harmonics. The left inlet expects the signal to synthesize and the
right inlet expects the coordinates as a list \, the frequency value
and the diffusion value., f 67;
#X text 4 161 freq[l \, m] = freq * 2m / (2N+1) if m >= 0, f 67;
#X text 4 174 freq[l \, m] = freq * (2m-1) / (2N+1) if m < 0, f 67
;
#X connect 0 0 8 1;
#X connect 1 0 5 0;
#X connect 2 0 25 0;
#X connect 3 0 8 0;
#X connect 5 0 2 1;
#X connect 6 0 0 0;
#X connect 6 0 0 1;
#X connect 8 0 2 0;
#X connect 13 0 9 0;
#X connect 13 1 9 1;
#X connect 13 2 9 2;
#X connect 13 3 9 3;
#X connect 13 4 9 4;
#X connect 13 5 9 5;
#X connect 13 6 9 6;
#X connect 13 7 9 7;
#X connect 17 0 25 1;
#X connect 18 0 19 0;
#X connect 19 0 17 0;
#X connect 20 0 26 0;
#X connect 21 0 22 0;
#X connect 22 0 25 1;
#X connect 23 0 24 0;
#X connect 24 0 21 0;
#X connect 25 0 13 0;
#X connect 25 0 16 0;
#X connect 25 1 13 1;
#X connect 25 1 16 1;
#X connect 25 2 13 2;
#X connect 25 2 16 2;
#X connect 25 3 13 3;
#X connect 25 3 16 3;
#X connect 25 4 13 4;
#X connect 25 4 16 4;
#X connect 25 5 13 5;
#X connect 25 5 16 5;
#X connect 25 6 13 6;
#X connect 25 6 16 6;
#X connect 26 0 25 1;
