#N canvas 273 28 968 643 10;
#X obj 17 16 spam.in~;
#X obj 212 5 loadbang;
#X obj 212 27 delay 10;
#X obj 38 63 dbtorms;
#X obj 38 85 + 1;
#X obj 17 105 *~ 1;
#X obj 38 39 r \$0-gain;
#X obj 17 188 snapshot~;
#N canvas 0 22 168 206 split 0;
#X obj 13 130 spigot;
#X obj 64 130 spigot;
#X obj 13 49 loadbang;
#X obj 13 93 == 0;
#X obj 44 93 != 0;
#X obj 13 71 f \$1;
#X obj 13 13 inlet;
#X obj 13 152 outlet;
#X obj 64 152 outlet;
#X connect 0 0 7 0;
#X connect 1 0 8 0;
#X connect 2 0 5 0;
#X connect 3 0 0 1;
#X connect 4 0 1 1;
#X connect 5 0 3 0;
#X connect 5 0 4 0;
#X connect 6 0 0 0;
#X connect 6 0 1 0;
#X restore 17 224 pd split;
#N canvas 386 27 340 331 omni 0;
#X obj 93 6 inlet;
#X obj 93 234 +, f 11;
#X obj 93 184 *, f 5;
#X obj 166 174 array get \$3-buffer-0;
#X obj 227 130 loadbang;
#X obj 227 152 f 1;
#X obj 93 256 pack f f, f 11;
#X obj 15 60 r \$0-order;
#X obj 15 81 t b f;
#X obj 15 103 f 1;
#X obj 15 125 /, f 5;
#X obj 42 103 + 1;
#X obj 93 164 f;
#X obj 93 279 outlet, f 8;
#X obj 93 206 / 2;
#X obj 93 92 t b f, f 11;
#X obj 93 28 t b f;
#N canvas 0 22 450 300 loop.until 0;
#X obj 21 11 inlet;
#X obj 21 118 outlet;
#X obj 21 76 until;
#X obj 21 53 t f b, f 7;
#X obj 21 98 f 0, f 7;
#X obj 60 76 f 0;
#X obj 71 98 + 1, f 4;
#X obj 21 33 f 180;
#X connect 0 0 7 0;
#X connect 2 0 4 0;
#X connect 3 0 2 0;
#X connect 3 1 5 0;
#X connect 4 0 6 0;
#X connect 4 0 1 0;
#X connect 5 0 4 1;
#X connect 6 0 4 1;
#X connect 7 0 3 0;
#X restore 93 64 pd loop.until;
#X connect 0 0 16 0;
#X connect 1 0 6 0;
#X connect 2 0 14 0;
#X connect 3 0 1 1;
#X connect 4 0 5 0;
#X connect 5 0 3 1;
#X connect 6 0 13 0;
#X connect 7 0 8 0;
#X connect 8 0 9 0;
#X connect 8 1 11 0;
#X connect 9 0 10 0;
#X connect 10 0 12 1;
#X connect 11 0 10 1;
#X connect 12 0 2 0;
#X connect 14 0 1 0;
#X connect 15 0 12 0;
#X connect 15 1 3 0;
#X connect 15 1 6 1;
#X connect 16 0 17 0;
#X connect 16 1 2 1;
#X connect 17 0 15 0;
#X restore 17 270 pd omni;
#N canvas 428 64 490 584 directional 0;
#X obj 112 182 * 6.28319;
#N canvas 188 232 242 320 e^imθ 0;
#X obj 36 74 f \$1;
#X obj 36 49 loadbang;
#X obj 36 135 unpack;
#X obj 21 7 inlet;
#X obj 21 163 * 1;
#X obj 21 271 outlet;
#X obj 69 163 < 0;
#X obj 21 215 spigot;
#X obj 21 237 sin;
#X obj 109 163 > 0;
#X obj 76 215 spigot;
#X obj 76 237 cos;
#N canvas 0 22 450 300 itolm 0;
#X obj 26 57 + 1;
#X obj 26 79 / 2;
#X obj 26 101 int;
#X obj 26 35 t f f, f 10;
#X obj 86 57 mod 2;
#X obj 26 123 t f f, f 8;
#X obj 86 79 sel 0 1, f 9;
#X obj 86 101 f 1;
#X obj 111 101 f -1;
#X obj 71 147 *;
#X obj 26 11 inlet;
#X obj 26 222 outlet;
#X obj 26 177 pack f f;
#X connect 0 0 1 0;
#X connect 1 0 2 0;
#X connect 2 0 5 0;
#X connect 3 0 0 0;
#X connect 3 1 4 0;
#X connect 4 0 6 0;
#X connect 5 0 12 0;
#X connect 5 1 9 0;
#X connect 6 0 7 0;
#X connect 6 1 8 0;
#X connect 7 0 9 1;
#X connect 8 0 9 1;
#X connect 9 0 12 1;
#X connect 10 0 3 0;
#X connect 12 0 11 0;
#X restore 36 113 pd itolm;
#X connect 0 0 12 0;
#X connect 1 0 0 0;
#X connect 2 0 4 1;
#X connect 2 1 6 0;
#X connect 2 1 9 0;
#X connect 3 0 4 0;
#X connect 4 0 7 0;
#X connect 4 0 10 0;
#X connect 6 0 7 1;
#X connect 7 0 8 0;
#X connect 8 0 5 0;
#X connect 9 0 10 1;
#X connect 10 0 11 0;
#X connect 11 0 5 0;
#X connect 12 0 2 0;
#X restore 112 210 pd e^imθ;
#X obj 112 140 t f f, f 11;
#X obj 112 282 +, f 11;
#X obj 112 23 inlet;
#X obj 112 262 *;
#X obj 175 252 array get \$3-buffer-0;
#X obj 112 327 array set \$3-buffer-0, f 22;
#X obj 236 208 loadbang;
#X obj 236 230 f 1;
#X obj 112 242 *;
#X obj 40 107 r \$0-order;
#X obj 40 128 t b f;
#X obj 40 150 f 1;
#X obj 40 172 /, f 5;
#X obj 67 150 + 1;
#X obj 247 145 s \$3-buffer-0;
#X msg 247 123 const 0;
#X obj 112 69 t b f b, f 23;
#X obj 292 33 r \$0-order;
#X obj 247 99 spigot 0;
#X obj 292 55 * 2;
#X obj 292 77 == \$1;
#X obj 112 160 / 179;
#N canvas 0 22 450 300 loop.until 0;
#X obj 21 11 inlet;
#X obj 21 118 outlet;
#X obj 21 76 until;
#X obj 21 53 t f b, f 7;
#X obj 21 98 f 0, f 7;
#X obj 60 76 f 0;
#X obj 71 98 + 1, f 4;
#X obj 21 33 f 180;
#X connect 0 0 7 0;
#X connect 2 0 4 0;
#X connect 3 0 2 0;
#X connect 3 1 5 0;
#X connect 4 0 6 0;
#X connect 4 0 1 0;
#X connect 5 0 4 1;
#X connect 6 0 4 1;
#X connect 7 0 3 0;
#X restore 112 104 pd loop.until;
#X connect 0 0 1 0;
#X connect 1 0 10 0;
#X connect 2 0 23 0;
#X connect 2 1 6 0;
#X connect 2 1 7 1;
#X connect 3 0 7 0;
#X connect 4 0 18 0;
#X connect 5 0 3 0;
#X connect 6 0 3 1;
#X connect 8 0 9 0;
#X connect 9 0 6 1;
#X connect 10 0 5 0;
#X connect 11 0 12 0;
#X connect 12 0 13 0;
#X connect 12 1 15 0;
#X connect 13 0 14 0;
#X connect 14 0 10 1;
#X connect 15 0 14 1;
#X connect 17 0 16 0;
#X connect 18 0 24 0;
#X connect 18 1 5 1;
#X connect 18 2 20 0;
#X connect 19 0 21 0;
#X connect 20 0 17 0;
#X connect 21 0 22 0;
#X connect 22 0 20 1;
#X connect 23 0 0 0;
#X connect 24 0 2 0;
#X restore 62 250 pd directional;
#X obj 687 65 array define \$3-buffer-\$1 180;
#N canvas 185 276 665 431 \$0-t-scope 0;
#X obj 6 8 struct \$0-t-scope float x array bufr \$0-t-scope-value-r
array bufg \$0-t-scope-value-g;
#X obj 8 322 drawcurve -x 0 1 0.25 0 0.1775 0.1775 0 0.25 -0.1775 0.1775
-0.25 0 -0.1775 -0.1775 0 -0.25 0.1775 -0.1775 0.25 0;
#X obj 8 282 drawcurve -x 0 1 0.5 0 0.355 0.355 0 0.5 -0.355 0.355
-0.5 0 -0.355 -0.355 0 -0.5 0.355 -0.355 0.5 0;
#X obj 8 242 drawcurve -x 0 1 0.75 0 0.5325 0.5325 0 0.75 -0.5325 0.5325
-0.75 0 -0.5325 -0.5325 0 -0.75 0.5325 -0.5325 0.75 0;
#X obj 8 202 drawcurve -x 0 1 1 0 0.71 0.71 0 1 -0.71 0.71 -1 0 -0.71
-0.71 0 -1 0.71 -0.71 1 0;
#X obj 7 150 drawpolygon -x 0 1 0 0.93 0 0.23;
#X obj 7 170 drawpolygon -x 0 1 0 -0.93 0 -0.23;
#X obj 7 100 drawpolygon -x 0 1 0.93 0 0.23 0;
#X obj 7 120 drawpolygon -x 0 1 -0.93 0 -0.23 0;
#X obj 7 53 plot bufr 900 1 0 0 0;
#X obj 7 73 plot bufg 9 1 0 0 0;
#X restore 687 5 pd \$0-t-scope;
#X obj 323 253 pointer;
#X obj 212 301 t b b p, f 45;
#X obj 212 277 append \$0-t-scope x;
#X obj 212 137 spigot 0, f 12;
#X obj 323 184 symbol \$3;
#X msg 452 230 \; pd-\$1 clear;
#X msg 323 230 traverse pd-\$1 \, bang;
#X obj 17 344 spigot, f 33;
#X obj 212 323 f 1;
#X obj 17 431 pack f f;
#X obj 17 366 unpack f f, f 30;
#X obj 62 412 * 6.28319;
#X obj 321 88 s \$0-order;
#X obj 212 71 t b b, f 12;
#X obj 281 91 f \$1;
#X obj 281 113 == 0;
#X obj 212 182 f 0;
#N canvas 65 248 568 128 \$0-t-scope-value-r 0;
#X obj 35 11 struct \$0-t-scope-value-r float x float y;
#X restore 687 25 pd \$0-t-scope-value-r;
#X obj 345 342 setsize \$0-t-scope bufr;
#X obj 345 363 setsize \$0-t-scope bufg;
#X obj 345 322 f 180;
#X obj 194 394 element \$0-t-scope bufr;
#X obj 194 504 element \$0-t-scope bufg;
#X obj 17 408 max 0;
#X obj 17 551 pack f f;
#X obj 17 500 min 0;
#X obj 17 522 abs;
#N canvas 65 248 568 128 \$0-t-scope-value-g 0;
#X obj 35 11 struct \$0-t-scope-value-g float x float y;
#X restore 687 45 pd \$0-t-scope-value-g;
#X obj 17 601 set \$0-t-scope-value-g x y, f 30;
#X obj 17 477 set \$0-t-scope-value-r x y, f 30;
#X obj 62 390 / 179;
#X obj 430 88 s \$0-gain;
#X obj 212 160 t b b, f 19;
#X obj 323 206 t s s, f 22;
#X obj 17 454 ../misc/spam.2d.poltocar;
#X obj 17 574 ../misc/spam.2d.poltocar;
#X obj 212 49 t b b b b, f 55;
#X obj 539 89 s \$0-interval;
#N canvas 0 22 450 300 timer 0;
#X obj 144 70 bang~;
#X obj 77 115 r pd;
#X obj 77 137 route dsp;
#X obj 77 199 metro 100;
#X obj 144 92 spigot 1;
#X obj 171 137 f 0;
#X obj 128 176 r \$0-interval;
#X obj 77 221 outlet;
#X obj 77 179 change;
#X obj 144 114 t b b;
#X obj 144 136 f 1;
#X connect 0 0 4 0;
#X connect 1 0 2 0;
#X connect 2 0 8 0;
#X connect 3 0 7 0;
#X connect 4 0 9 0;
#X connect 5 0 4 1;
#X connect 6 0 3 1;
#X connect 8 0 3 0;
#X connect 9 0 10 0;
#X connect 9 1 5 0;
#X connect 10 0 8 0;
#X restore 26 161 pd timer;
#N canvas 0 22 450 300 get.interval 0;
#X obj 20 94 list split 1;
#X obj 54 119 outlet;
#X obj 20 4 inlet;
#X obj 20 50 text search \$2;
#X obj 20 72 text get \$2;
#X obj 20 26 symbol ylm.scope.interval;
#X connect 0 1 1 0;
#X connect 2 0 5 0;
#X connect 3 0 4 0;
#X connect 4 0 0 0;
#X connect 5 0 3 0;
#X restore 539 69 pd get.interval;
#N canvas 0 22 450 300 get.gain 0;
#X obj 20 94 list split 1;
#X obj 54 119 outlet;
#X obj 20 4 inlet;
#X obj 20 50 text search \$2;
#X obj 20 72 text get \$2;
#X obj 20 26 symbol ylm.scope.gain;
#X connect 0 1 1 0;
#X connect 2 0 5 0;
#X connect 3 0 4 0;
#X connect 4 0 0 0;
#X connect 5 0 3 0;
#X restore 430 69 pd get.gain;
#N canvas 0 23 450 300 get.order 0;
#X obj 20 94 list split 1;
#X obj 54 119 outlet;
#X obj 20 4 inlet;
#X obj 20 50 text search \$2;
#X obj 20 72 text get \$2;
#X obj 20 26 symbol ylm.order;
#X connect 0 1 1 0;
#X connect 2 0 5 0;
#X connect 3 0 4 0;
#X connect 4 0 0 0;
#X connect 5 0 3 0;
#X restore 321 69 pd get.order;
#X connect 0 0 5 0;
#X connect 1 0 2 0;
#X connect 2 0 49 0;
#X connect 3 0 4 0;
#X connect 4 0 5 1;
#X connect 5 0 7 0;
#X connect 6 0 3 0;
#X connect 7 0 8 0;
#X connect 8 0 9 0;
#X connect 8 1 10 0;
#X connect 9 0 20 0;
#X connect 13 0 15 1;
#X connect 14 0 21 0;
#X connect 14 1 33 0;
#X connect 14 2 31 1;
#X connect 14 2 32 1;
#X connect 14 2 34 1;
#X connect 14 2 35 1;
#X connect 15 0 14 0;
#X connect 16 0 45 0;
#X connect 17 0 46 0;
#X connect 19 0 13 0;
#X connect 20 0 23 0;
#X connect 21 0 20 1;
#X connect 22 0 47 0;
#X connect 23 0 36 0;
#X connect 23 0 38 0;
#X connect 23 1 34 0;
#X connect 23 1 35 0;
#X connect 23 1 43 0;
#X connect 24 0 22 1;
#X connect 24 0 37 1;
#X connect 26 0 16 0;
#X connect 26 1 27 0;
#X connect 27 0 28 0;
#X connect 28 0 16 1;
#X connect 29 0 15 0;
#X connect 33 0 31 0;
#X connect 33 0 32 0;
#X connect 34 0 42 2;
#X connect 35 0 41 2;
#X connect 36 0 22 0;
#X connect 37 0 48 0;
#X connect 38 0 39 0;
#X connect 39 0 37 0;
#X connect 43 0 24 0;
#X connect 45 0 29 0;
#X connect 45 1 17 0;
#X connect 46 0 19 0;
#X connect 46 1 18 0;
#X connect 47 0 42 0;
#X connect 48 0 41 0;
#X connect 49 0 26 0;
#X connect 49 1 54 0;
#X connect 49 2 53 0;
#X connect 49 3 52 0;
#X connect 51 0 7 0;
#X connect 52 0 50 0;
#X connect 53 0 44 0;
#X connect 54 0 25 0;
