#N struct 1012-t-meter float x;
#N struct 1012-t-vector float x1 float y1 float x2 float y2 float x3
float y3 float g1 float g2;
#N canvas 434 44 444 654 10;
#X obj 6 607 tutos.footer;
#X obj 5 7 tutos.header Linear_Panning;
#X obj 25 161 noise~;
#N canvas 732 307 450 300 trajectory 0;
#X obj 50 143 * 90;
#X obj 50 165 - 45;
#X msg 50 207 \$1 5000;
#X obj 50 123 tgl 15 0 empty empty empty 17 7 0 10 -262144 -1 -1 0
1;
#X obj 49 229 line 0 20;
#X obj 49 261 outlet;
#X obj 121 187 loadbang;
#X obj 121 209 f 0;
#X obj 50 98 metro 5000;
#X msg 131 120 stop;
#X obj 131 78 sel 0 1;
#X obj 50 187 f;
#X obj 50 28 inlet;
#X connect 0 0 1 0;
#X connect 1 0 11 0;
#X connect 2 0 4 0;
#X connect 3 0 0 0;
#X connect 4 0 5 0;
#X connect 6 0 7 0;
#X connect 7 0 4 0;
#X connect 8 0 3 0;
#X connect 9 0 4 0;
#X connect 10 0 9 0;
#X connect 10 1 11 0;
#X connect 11 0 2 0;
#X connect 12 0 8 0;
#X connect 12 0 10 0;
#X restore 256 149 pd trajectory;
#X obj 25 195 tut.linear.panner~, f 39;
#X msg 298 283 \; pd dsp 1;
#X msg 298 243 \; pd dsp 0;
#X obj 256 174 nbx 5 14 -45 45 0 0 \$0-pos empty empty 0 -8 0 10 -262144
-1 -1 6 256;
#X obj 25 433 dac~ 1 2, f 39;
#N canvas 0 22 450 300 \$0-monitor 0;
#X scalar 1012-t-meter 0 \;;
#X scalar 1012-t-vector 0.104528 0.994522 0.185268 1.28116 0.294 2.228
0.566 0.433 \;;
#X coords -1 1.5 1 0 150 150 2 100 100;
#X restore 65 261 pd \$0-monitor;
#X obj 25 228 tut.linear.analyzer~ \$0-monitor \$0-pos, f 39;
#X text 4 58 g1 = θ/θmax, f 67;
#X text 4 70 g2 = 1 - θ/θmax, f 67;
#X text 4 84 With θmax the angle between the two loudspeakers \, θ
the angle between the first loudspeaker and the sound source and the
g1 and g2 the respective gains of the first and the second loudspeakers.
, f 67;
#X text 312 173 θ in degree;
#X text 4 31 The linear panning is the most simple approach for positioning
a sound source between two loudspeakers., f 67;
#X obj 256 129 tgl 15 0 empty empty empty 17 7 0 10 -262144 -1 -1 0
1;
#X text 4 464 The grey point represents the expected sound source while
the blue point represents the perceived sound source. The representation
highlights the augmentation of the radius Δr toward 0° due to the
law of sound intensity defined by I = √(g1^2 + g2^2). Indeed when
θ = 0° \, I = √(0.5^2 + 0.5^2) = 0.707 instead of 1 resulting in
a "hole" in middle. The small azimuthal deviation Δθ is negligible.
, f 67;
#X connect 2 0 4 0;
#X connect 3 0 7 0;
#X connect 4 0 8 0;
#X connect 4 0 10 0;
#X connect 4 1 8 1;
#X connect 4 1 10 1;
#X connect 7 0 4 1;
#X connect 16 0 3 0;
