#N canvas 485 300 755 434 10;
#X obj 35 17 inlet~;
#X obj 110 17 inlet~;
#N canvas 382 23 920 411 \$0-t-meter 0;
#X obj 11 18 struct \$0-t-meter float x;
#X obj 527 107 filledpolygon 555 555 12 0.707106 0.707106 0.707106
0.707106, f 62;
#X obj 77 107 filledpolygon 555 555 12 -0.707106 0.707106 -0.707106
0.707106, f 62;
#X obj 460 107 t f f f f;
#X obj 460 45 inlet~;
#X obj 460 67 env~ 2048 2;
#X obj 61 151 filledpolygon 900 900 48 -0.707106 0.707106 -0.707106
0.707106, f 62;
#X obj 44 196 filledpolygon 950 950 36 -0.707106 0.707106 -0.707106
0.707106, f 62;
#X obj 27 244 filledpolygon 990 990 24 -0.707106 0.707106 -0.707106
0.707106, f 62;
#X obj 10 290 filledpolygon 90 90 12 -0.707106 0.707106 -0.707106 0.707106
;
#X obj 61 129 >= 100;
#X obj 44 173 >= 94;
#X obj 27 220 >= 88;
#X obj 10 267 >= 1;
#X obj 10 107 t f f f f;
#X obj 10 45 inlet~;
#X obj 10 67 env~ 2048 2;
#X obj 384 18 loadbang;
#X obj 384 40 f 0;
#X obj 511 129 >= 100;
#X obj 511 151 filledpolygon 900 900 48 0.707106 0.707106 0.707106
0.707106, f 62;
#X obj 494 173 >= 94;
#X obj 494 196 filledpolygon 950 950 36 0.707106 0.707106 0.707106
0.707106, f 62;
#X obj 477 220 >= 88;
#X obj 477 244 filledpolygon 990 990 24 0.707106 0.707106 0.707106
0.707106, f 62;
#X obj 460 267 >= 1;
#X obj 460 290 filledpolygon 90 90 12 0.707106 0.707106 0.707106 0.707106
;
#X connect 3 0 25 0;
#X connect 3 1 23 0;
#X connect 3 2 21 0;
#X connect 3 3 19 0;
#X connect 4 0 5 0;
#X connect 5 0 3 0;
#X connect 10 0 6 0;
#X connect 11 0 7 0;
#X connect 12 0 8 0;
#X connect 13 0 9 0;
#X connect 14 0 13 0;
#X connect 14 1 12 0;
#X connect 14 2 11 0;
#X connect 14 3 10 0;
#X connect 15 0 16 0;
#X connect 16 0 14 0;
#X connect 17 0 18 0;
#X connect 18 0 3 0;
#X connect 18 0 14 0;
#X connect 19 0 20 0;
#X connect 21 0 22 0;
#X connect 23 0 24 0;
#X connect 25 0 26 0;
#X restore 35 107 pd \$0-t-meter;
#X obj 559 101 pointer;
#X obj 480 14 loadbang;
#X obj 480 37 t b b b, f 27;
#X msg 639 102 \; pd-\$1 clear;
#X obj 480 59 f 0;
#X obj 480 123 append \$0-t-meter x, f 13;
#X obj 639 58 symbol \$1;
#X obj 559 58 symbol \$1;
#X msg 559 78 traverse pd-\$1 \, bang;
#N canvas 736 262 450 380 \$0-t-vector 1;
#X obj 37 234 filledpolygon 9 9 7 x2 y2 x2 y2;
#X obj 26 307 drawpolygon 9 1 0 0.05 x2 y2;
#X obj 26 287 drawpolygon 555 1 0 0.05 x1 y1;
#X obj 27 354 filledpolygon 333 333 8 0 0.05 0 0.05;
#X obj 46 213 filledpolygon 333 333 7 x1 y1 x1 y1;
#X obj 35 96 drawnumber x3 -0.95 0.25 333 Δr=;
#X obj 35 116 drawnumber y3 -0.95 0.15 333 Δθ=;
#X obj 27 18 struct \$0-t-vector float x1 float y1 float x2 float y2
float x3 float y3 float g1 float g2;
#X obj 36 167 drawnumber g2 -0.9 1.45 333 g1=;
#X obj 35 146 drawnumber g1 -0.9 1.35 333 g2=;
#X restore 342 13 pd \$0-t-vector;
#X msg 480 180 0 0 0 0 0 0;
#X obj 480 158 t b p, f 13;
#X obj 480 204 append \$0-t-vector x1 y1 x2 y2 x3 y3, f 13;
#X obj 540 11 bng 15 250 50 0 empty empty empty 17 7 0 10 -262144 -1
-1;
#N canvas 129 104 694 670 compute_vector 0;
#X obj 35 17 inlet~;
#X obj 110 17 inlet~;
#X obj 205 15 block~ 1024 1 1;
#X obj 35 108 snapshot~;
#X obj 110 108 snapshot~;
#X obj 62 259 +, f 13;
#X obj 35 157 *, f 5;
#X obj 35 135 t f f;
#X obj 110 157 *, f 5;
#X obj 110 135 t f f;
#X obj 65 56 bang~;
#X obj 65 78 t b b;
#X obj 35 179 t f f;
#X obj 35 207 * -0.707106;
#X obj 110 207 * 0.707106;
#X obj 110 179 t f f;
#X obj 35 229 +, f 13;
#X obj 35 281 /;
#X obj 193 301 sqrt;
#X obj 193 124 / 90;
#X obj 193 102 + 45;
#X obj 193 237 *, f 5;
#X obj 193 215 t f f;
#X obj 268 257 *, f 5;
#X obj 268 235 t f f;
#X obj 193 37 r \$2;
#X obj 193 146 t f f, f 13;
#X obj 268 168 t b f;
#X obj 268 190 f 1;
#X obj 268 212 -, f 5;
#X obj 193 281 +, f 13;
#X obj 345 169 * 3.14159;
#X obj 345 191 t f f;
#X obj 345 224 sin;
#X obj 372 224 cos;
#X obj 345 147 / 180;
#X obj 96 444 pack f f;
#X obj 193 328 t b f;
#X obj 193 350 f 1;
#X obj 193 372 -, f 5;
#X obj 193 394 +;
#X obj 96 466 outlet;
#X obj 35 441 pack f f;
#X obj 35 463 outlet;
#X obj 327 466 atan2;
#X obj 325 442 swap;
#X obj 327 488 nbx 5 14 -1e+37 1e+37 0 0 empty empty empty 0 -8 0 10
-262144 -1 -1 1.13709 256;
#X obj 201 495 sqrt;
#X obj 201 452 *, f 5;
#X obj 201 430 t f f;
#X obj 237 451 *, f 5;
#X obj 237 429 t f f;
#X obj 201 475 +, f 6;
#X obj 201 517 - 1;
#X obj 327 507 / 3.14159;
#X obj 327 529 * -180;
#X obj 327 551 + 90;
#X obj 193 59 t f f f, f 51;
#X obj 327 573 -;
#X obj 75 312 t f f;
#X obj 201 579 pack f f;
#X obj 201 601 outlet;
#X obj 461 580 pack f f;
#X obj 461 602 outlet;
#X connect 0 0 3 0;
#X connect 1 0 4 0;
#X connect 3 0 7 0;
#X connect 4 0 9 0;
#X connect 5 0 17 1;
#X connect 6 0 12 0;
#X connect 7 0 6 0;
#X connect 7 1 6 1;
#X connect 8 0 15 0;
#X connect 9 0 8 0;
#X connect 9 1 8 1;
#X connect 10 0 11 0;
#X connect 11 0 3 0;
#X connect 11 1 4 0;
#X connect 12 0 13 0;
#X connect 12 1 5 0;
#X connect 13 0 16 0;
#X connect 14 0 16 1;
#X connect 15 0 14 0;
#X connect 15 1 5 1;
#X connect 16 0 17 0;
#X connect 17 0 36 0;
#X connect 17 0 59 0;
#X connect 18 0 37 0;
#X connect 19 0 26 0;
#X connect 20 0 19 0;
#X connect 21 0 30 0;
#X connect 22 0 21 0;
#X connect 22 1 21 1;
#X connect 23 0 30 1;
#X connect 24 0 23 0;
#X connect 24 1 23 1;
#X connect 25 0 57 0;
#X connect 26 0 22 0;
#X connect 26 0 62 0;
#X connect 26 1 27 0;
#X connect 27 0 28 0;
#X connect 27 1 29 1;
#X connect 28 0 29 0;
#X connect 29 0 24 0;
#X connect 29 0 62 1;
#X connect 30 0 18 0;
#X connect 31 0 32 0;
#X connect 32 0 33 0;
#X connect 32 1 34 0;
#X connect 33 0 42 0;
#X connect 34 0 40 1;
#X connect 34 0 42 1;
#X connect 35 0 31 0;
#X connect 36 0 41 0;
#X connect 37 0 38 0;
#X connect 37 1 39 1;
#X connect 38 0 39 0;
#X connect 39 0 40 0;
#X connect 40 0 36 1;
#X connect 40 0 51 0;
#X connect 40 0 45 1;
#X connect 42 0 43 0;
#X connect 44 0 46 0;
#X connect 45 0 44 0;
#X connect 45 1 44 1;
#X connect 46 0 54 0;
#X connect 47 0 53 0;
#X connect 48 0 52 0;
#X connect 49 0 48 0;
#X connect 49 1 48 1;
#X connect 50 0 52 1;
#X connect 51 0 50 0;
#X connect 51 1 50 1;
#X connect 52 0 47 0;
#X connect 53 0 60 0;
#X connect 54 0 55 0;
#X connect 55 0 56 0;
#X connect 56 0 58 0;
#X connect 57 0 20 0;
#X connect 57 1 35 0;
#X connect 57 2 58 1;
#X connect 58 0 60 1;
#X connect 59 0 49 0;
#X connect 59 1 45 0;
#X connect 60 0 61 0;
#X connect 62 0 63 0;
#X restore 140 106 pd compute_vector;
#X obj 65 362 set \$0-t-vector x1 y1;
#X obj 225 362 set \$0-t-vector x2 y2;
#X obj 207 275 set \$0-t-vector x3 y3;
#X obj 207 306 set \$0-t-vector g1 g2;
#N canvas 0 22 450 300 roundf 0;
#X obj 82 28 inlet;
#X obj 74 50 unpack f f;
#X obj 74 72 * 1000;
#X obj 131 72 * 1000;
#X obj 74 94 int;
#X obj 131 94 int;
#X obj 74 116 / 1000;
#X obj 131 116 / 1000;
#X obj 74 138 pack f f;
#X obj 74 160 outlet;
#X connect 0 0 1 0;
#X connect 1 0 2 0;
#X connect 1 1 3 0;
#X connect 2 0 4 0;
#X connect 3 0 5 0;
#X connect 4 0 6 0;
#X connect 5 0 7 0;
#X connect 6 0 8 0;
#X connect 7 0 8 1;
#X connect 8 0 9 0;
#X restore 225 183 pd roundf;
#N canvas 0 22 450 300 roundf 0;
#X obj 82 28 inlet;
#X obj 74 50 unpack f f;
#X obj 74 72 * 1000;
#X obj 131 72 * 1000;
#X obj 74 94 int;
#X obj 131 94 int;
#X obj 74 116 / 1000;
#X obj 131 116 / 1000;
#X obj 74 138 pack f f;
#X obj 74 160 outlet;
#X connect 0 0 1 0;
#X connect 1 0 2 0;
#X connect 1 1 3 0;
#X connect 2 0 4 0;
#X connect 3 0 5 0;
#X connect 4 0 6 0;
#X connect 5 0 7 0;
#X connect 6 0 8 0;
#X connect 7 0 8 1;
#X connect 8 0 9 0;
#X restore 295 183 pd roundf;
#X connect 0 0 17 0;
#X connect 0 0 2 0;
#X connect 1 0 17 1;
#X connect 1 0 2 1;
#X connect 3 0 8 1;
#X connect 4 0 5 0;
#X connect 5 0 7 0;
#X connect 5 1 10 0;
#X connect 5 2 9 0;
#X connect 7 0 8 0;
#X connect 8 0 14 0;
#X connect 9 0 6 0;
#X connect 10 0 11 0;
#X connect 11 0 3 0;
#X connect 13 0 15 0;
#X connect 14 0 13 0;
#X connect 14 1 15 6;
#X connect 15 0 19 2;
#X connect 15 0 18 2;
#X connect 15 0 20 2;
#X connect 15 0 21 2;
#X connect 16 0 5 0;
#X connect 17 0 18 0;
#X connect 17 1 19 0;
#X connect 17 2 22 0;
#X connect 17 3 23 0;
#X connect 22 0 20 0;
#X connect 23 0 21 0;
