#N canvas 359 23 968 560 10;
#X obj 378 9 spam.in~;
#X obj 378 31 s~ \$0-in;
#X obj 378 53 loadbang;
#N canvas 256 121 413 79 error 0;
#X obj 9 7 inlet;
#X obj 9 30 print hoa.2d.decoder~ error: needs a positive number of
loudspeakers.;
#X connect 0 0 1 0;
#X restore 378 139 pd error;
#X obj 378 117 moses 1, f 12;
#X obj 447 222 f \$0;
#X obj 550 222 * 20;
#X obj 550 244 + 10;
#N canvas 0 22 450 300 loop.until 0;
#X obj 22 19 inlet;
#X obj 22 41 t f b, f 7;
#X obj 22 63 until;
#X obj 61 63 f 0;
#X obj 22 85 f, f 7;
#X obj 82 85 + 1, f 4;
#X obj 22 107 outlet;
#X connect 0 0 1 0;
#X connect 1 0 2 0;
#X connect 1 1 3 0;
#X connect 2 0 4 0;
#X connect 3 0 4 1;
#X connect 4 0 5 0;
#X connect 4 0 6 0;
#X connect 5 0 4 1;
#X restore 447 177 pd loop.until;
#X obj 438 9 namecanvas \$0-hoa.dec;
#N canvas 0 22 450 300 get.nls 0;
#X obj 12 144 list split 1;
#X obj 46 169 outlet;
#X obj 12 54 inlet;
#X obj 12 100 text search \$2;
#X obj 12 122 text get \$2;
#X obj 12 76 symbol hoa.dec.nls;
#X connect 0 1 1 0;
#X connect 2 0 5 0;
#X connect 3 0 4 0;
#X connect 4 0 0 0;
#X connect 5 0 3 0;
#X restore 378 95 pd get.nls;
#N canvas 0 22 450 300 get.angles 0;
#X obj 12 144 list split 1;
#X obj 46 169 outlet;
#X obj 12 54 inlet;
#X obj 12 100 text search \$2;
#X obj 12 122 text get \$2;
#X obj 12 76 symbol hoa.dec.angles;
#X connect 0 1 1 0;
#X connect 2 0 5 0;
#X connect 3 0 4 0;
#X connect 4 0 0 0;
#X connect 5 0 3 0;
#X restore 535 95 pd get.angles;
#N canvas 256 121 439 209 error 0;
#X obj 9 7 inlet;
#X obj 54 7 inlet;
#X obj 53 30 list length;
#X obj 38 56 !=;
#X obj 38 78 sel 1;
#X obj 38 100 print hoa.2d.decoder~ error: wrong number of angles for
loudpeakers., f 12;
#X connect 0 0 3 0;
#X connect 1 0 2 0;
#X connect 2 0 3 1;
#X connect 3 0 4 0;
#X connect 4 0 5 0;
#X restore 466 140 pd error;
#X obj 602 221 list;
#X obj 602 243 list split;
#X obj 630 265 unpack f;
#X obj 447 199 t b f f b f, f 35;
#X obj 447 374 pack f f f f, f 31;
#X msg 447 417 \; \$1-hoa.dec obj 10 \$3 ../misc/spam.speaker~ \$2
\$1-in \$1-gain-\$2 \$4;
#N canvas 188 232 242 320 e^imθ 0;
#X obj 36 74 f \$1;
#X obj 36 135 unpack;
#X obj 21 7 inlet;
#X obj 21 163 * 1;
#X obj 21 271 outlet;
#X obj 69 163 < 0;
#X obj 21 215 spigot;
#X obj 21 237 sin;
#X obj 76 215 spigot;
#X obj 76 237 cos;
#N canvas 0 22 450 300 itolm 0;
#X obj 26 57 + 1;
#X obj 26 79 / 2;
#X obj 26 101 int;
#X obj 26 35 t f f, f 10;
#X obj 86 57 mod 2;
#X obj 26 123 t f f, f 8;
#X obj 86 79 sel 0 1, f 9;
#X obj 86 101 f 1;
#X obj 111 101 f -1;
#X obj 71 147 *;
#X obj 26 11 inlet;
#X obj 26 222 outlet;
#X obj 26 177 pack f f;
#X connect 0 0 1 0;
#X connect 1 0 2 0;
#X connect 2 0 5 0;
#X connect 3 0 0 0;
#X connect 3 1 4 0;
#X connect 4 0 6 0;
#X connect 5 0 12 0;
#X connect 5 1 9 0;
#X connect 6 0 7 0;
#X connect 6 1 8 0;
#X connect 7 0 9 1;
#X connect 8 0 9 1;
#X connect 9 0 12 1;
#X connect 10 0 3 0;
#X connect 12 0 11 0;
#X restore 36 113 pd itolm;
#X obj 21 29 t f b;
#X obj 109 163 >= 0;
#X connect 0 0 10 0;
#X connect 1 0 3 1;
#X connect 1 1 5 0;
#X connect 1 1 12 0;
#X connect 2 0 11 0;
#X connect 3 0 6 0;
#X connect 3 0 8 0;
#X connect 5 0 6 1;
#X connect 6 0 7 0;
#X connect 7 0 4 0;
#X connect 8 0 9 0;
#X connect 9 0 4 0;
#X connect 10 0 1 0;
#X connect 11 0 3 0;
#X connect 11 1 0 0;
#X connect 12 0 8 1;
#X restore 630 330 pd e^imθ;
#X obj 630 287 / 360;
#X obj 630 309 * 6.28319;
#X obj 693 264 f 1;
#X obj 693 286 /, f 5;
#X obj 724 264 + 1;
#X obj 630 352 *, f 11;
#X obj 693 332 / 1, f 11;
#X obj 756 265 f \$1;
#X obj 756 287 == 0;
#X obj 693 242 t b f b, f 11;
#X obj 378 73 t b b b, f 53;
#N canvas 0 22 450 300 get.order 0;
#X obj 12 144 list split 1;
#X obj 46 169 outlet;
#X obj 12 54 inlet;
#X obj 12 100 text search \$2;
#X obj 12 122 text get \$2;
#X obj 12 76 symbol hoa.order;
#X connect 0 1 1 0;
#X connect 2 0 5 0;
#X connect 3 0 4 0;
#X connect 4 0 0 0;
#X connect 5 0 3 0;
#X restore 693 95 pd get.order;
#X obj 756 309 + 1;
#X connect 0 0 1 0;
#X connect 2 0 30 0;
#X connect 4 0 3 0;
#X connect 4 1 8 0;
#X connect 4 1 12 0;
#X connect 5 0 17 0;
#X connect 6 0 7 0;
#X connect 7 0 17 2;
#X connect 8 0 16 0;
#X connect 10 0 4 0;
#X connect 11 0 12 1;
#X connect 11 0 13 1;
#X connect 13 0 14 0;
#X connect 14 1 15 0;
#X connect 15 0 20 0;
#X connect 16 0 5 0;
#X connect 16 1 17 1;
#X connect 16 2 6 0;
#X connect 16 3 13 0;
#X connect 16 4 14 1;
#X connect 17 0 18 0;
#X connect 19 0 25 0;
#X connect 20 0 21 0;
#X connect 21 0 19 0;
#X connect 22 0 23 0;
#X connect 23 0 26 0;
#X connect 24 0 23 1;
#X connect 25 0 17 3;
#X connect 26 0 25 1;
#X connect 27 0 28 0;
#X connect 28 0 32 0;
#X connect 29 0 22 0;
#X connect 29 1 24 0;
#X connect 29 2 27 0;
#X connect 30 0 10 0;
#X connect 30 1 11 0;
#X connect 30 2 31 0;
#X connect 31 0 29 0;
#X connect 32 0 26 1;
