#N canvas 609 23 673 585 10;
#X declare -stdpath spam;
#X obj 378 7 declare -stdpath spam;
#X obj 379 94 spam.in~;
#X obj 379 146 s~ \$0-in;
#X obj 378 26 namecanvas \$0-dbap;
#N canvas 0 22 450 300 create_speakers 0;
#X obj 65 113 until;
#N canvas 0 23 413 79 error 0;
#X obj 9 30 print mat.2d.decoder.dbap~ error: needs a positive number
of loudspeakers;
#X obj 9 7 inlet;
#X connect 1 0 0 0;
#X restore 26 91 pd error;
#X obj 26 69 moses 1;
#X obj 65 176 f \$0;
#X obj 65 133 f 0;
#X obj 95 133 + 1;
#X obj 65 155 t b f f, f 16;
#X obj 65 218 pack f f f, f 16;
#X obj 158 176 * 20;
#X obj 158 198 + 10;
#X obj 26 40 r \$0-nspeakers;
#X msg 65 241 \; \$1-dbap obj 10 \$3 tools/mat.2d.speaker~ \$2 \$1-in
\$1-gain-\$2;
#X connect 0 0 4 0;
#X connect 2 0 1 0;
#X connect 2 1 0 0;
#X connect 3 0 7 0;
#X connect 4 0 5 0;
#X connect 4 0 6 0;
#X connect 5 0 4 1;
#X connect 6 0 3 0;
#X connect 6 1 7 1;
#X connect 6 2 8 0;
#X connect 7 0 11 0;
#X connect 8 0 9 0;
#X connect 9 0 7 2;
#X connect 10 0 2 0;
#X restore 379 66 pd create_speakers;
#X connect 1 0 2 0;
