#N canvas 244 43 954 792 10;
#X declare -stdpath spam;
#X obj 12 16 spam.in~;
#X obj 252 85 loadbang;
#X obj 252 107 delay 10;
#X obj 33 63 dbtorms;
#X obj 33 85 + 1;
#X obj 12 105 *~ 1;
#X obj 33 39 r \$0-gain;
#N canvas 0 22 187 147 set_gain 0;
#X obj 14 77 s \$0-gain;
#X obj 14 12 inlet;
#X obj 14 38 ../misc/spam.text.get \$2 mat.scope.gain, f 20;
#X connect 1 0 2 0;
#X connect 2 0 0 0;
#X restore 393 151 pd set_gain;
#X obj 624 14 declare -stdpath spam;
#X obj 12 188 snapshot~;
#N canvas 0 22 168 206 split 0;
#X obj 13 130 spigot;
#X obj 64 130 spigot;
#X obj 13 49 loadbang;
#X obj 13 93 == 0;
#X obj 44 93 != 0;
#X obj 13 71 f \$1;
#X obj 13 13 inlet;
#X obj 13 152 outlet;
#X obj 64 152 outlet;
#X connect 0 0 7 0;
#X connect 1 0 8 0;
#X connect 2 0 5 0;
#X connect 3 0 0 1;
#X connect 4 0 1 1;
#X connect 5 0 3 0;
#X connect 5 0 4 0;
#X connect 6 0 0 0;
#X connect 6 0 1 0;
#X restore 12 224 pd split;
#N canvas 386 27 522 468 omni 0;
#X obj 93 26 inlet;
#X obj 93 71 t b f, f 12;
#X obj 93 138 until;
#X obj 93 115 t f b, f 7;
#X obj 93 160 f 0, f 7;
#X obj 132 138 f 0;
#X obj 143 160 + 1, f 4;
#X obj 93 324 +, f 11;
#X obj 93 274 *;
#X obj 166 264 array get \$3-buffer-0;
#X obj 227 220 loadbang;
#X obj 227 242 f 1;
#X obj 93 346 pack f f, f 11;
#X obj 15 150 r \$0-order;
#X obj 15 171 t b f;
#X obj 15 193 f 1;
#X obj 15 215 /, f 5;
#X obj 42 193 + 1;
#X obj 93 254 f;
#X obj 93 369 outlet, f 8;
#X obj 93 296 / 2;
#X obj 93 182 t b f, f 11;
#X obj 93 93 f 180;
#X connect 0 0 1 0;
#X connect 1 0 22 0;
#X connect 1 1 8 1;
#X connect 2 0 4 0;
#X connect 3 0 2 0;
#X connect 3 1 5 0;
#X connect 4 0 6 0;
#X connect 4 0 21 0;
#X connect 5 0 4 1;
#X connect 6 0 4 1;
#X connect 7 0 12 0;
#X connect 8 0 20 0;
#X connect 9 0 7 1;
#X connect 10 0 11 0;
#X connect 11 0 9 1;
#X connect 12 0 19 0;
#X connect 13 0 14 0;
#X connect 14 0 15 0;
#X connect 14 1 17 0;
#X connect 15 0 16 0;
#X connect 16 0 18 1;
#X connect 17 0 16 1;
#X connect 18 0 8 0;
#X connect 20 0 7 0;
#X connect 21 0 18 0;
#X connect 21 1 9 0;
#X connect 21 1 12 1;
#X connect 22 0 3 0;
#X restore 12 270 pd omni;
#N canvas 428 64 490 584 directional 0;
#X obj 62 166 until;
#X obj 62 113 t f b, f 7;
#X obj 62 188 f 0, f 7;
#X obj 101 166 f 0;
#X obj 112 188 + 1, f 4;
#X obj 62 252 * 6.28319;
#N canvas 188 232 242 320 e^imθ 0;
#X obj 36 94 f \$1;
#X obj 36 69 loadbang;
#X obj 36 113 tools/hoa.2d.itolm;
#X obj 36 135 unpack;
#X obj 21 7 inlet;
#X obj 21 163 * 1;
#X obj 21 271 outlet;
#X obj 69 163 < 0;
#X obj 21 215 spigot;
#X obj 21 237 sin;
#X obj 109 163 > 0;
#X obj 76 215 spigot;
#X obj 76 237 cos;
#X connect 0 0 2 0;
#X connect 1 0 0 0;
#X connect 2 0 3 0;
#X connect 3 0 5 1;
#X connect 3 1 7 0;
#X connect 3 1 10 0;
#X connect 4 0 5 0;
#X connect 5 0 8 0;
#X connect 5 0 11 0;
#X connect 7 0 8 1;
#X connect 8 0 9 0;
#X connect 9 0 6 0;
#X connect 10 0 11 1;
#X connect 11 0 12 0;
#X connect 12 0 6 0;
#X restore 62 280 pd e^imθ;
#X obj 62 210 t f f, f 11;
#X obj 62 352 +, f 11;
#X obj 62 23 inlet;
#X obj 62 332 *;
#X obj 125 322 array get \$3-buffer-0;
#X obj 62 397 array set \$3-buffer-0, f 22;
#X obj 186 278 loadbang;
#X obj 186 300 f 1;
#X obj 62 312 *;
#X obj 170 177 r \$0-order;
#X obj 170 198 t b f;
#X obj 170 220 f 1;
#X obj 170 242 /, f 5;
#X obj 197 220 + 1;
#X obj 185 145 s \$3-buffer-0;
#X msg 185 123 const 0;
#X obj 62 69 t b f b, f 21;
#X obj 230 33 r \$0-order;
#X obj 185 99 spigot 0;
#X obj 230 55 * 2;
#X obj 230 77 == \$1;
#X obj 62 91 f 180;
#X obj 62 230 / 179;
#X connect 0 0 2 0;
#X connect 1 0 0 0;
#X connect 1 1 3 0;
#X connect 2 0 4 0;
#X connect 2 0 7 0;
#X connect 3 0 2 1;
#X connect 4 0 2 1;
#X connect 5 0 6 0;
#X connect 6 0 15 0;
#X connect 7 0 29 0;
#X connect 7 1 11 0;
#X connect 7 1 12 1;
#X connect 8 0 12 0;
#X connect 9 0 23 0;
#X connect 10 0 8 0;
#X connect 11 0 8 1;
#X connect 13 0 14 0;
#X connect 14 0 11 1;
#X connect 15 0 10 0;
#X connect 16 0 17 0;
#X connect 17 0 18 0;
#X connect 17 1 20 0;
#X connect 18 0 19 0;
#X connect 19 0 15 1;
#X connect 20 0 19 1;
#X connect 22 0 21 0;
#X connect 23 0 28 0;
#X connect 23 1 10 1;
#X connect 23 2 25 0;
#X connect 24 0 26 0;
#X connect 25 0 22 0;
#X connect 26 0 27 0;
#X connect 27 0 25 1;
#X connect 28 0 1 0;
#X connect 29 0 5 0;
#X restore 57 250 pd directional;
#X obj 624 41 array define \$3-buffer-\$1 180;
#X obj 132 72 bang~;
#X obj 162 94 + 1;
#X obj 132 116 sel 50;
#X obj 132 138 f 0;
#X obj 132 94 f 0;
#N canvas 88 336 651 343 \$0-t-scope 0;
#X obj 6 8 struct \$0-t-scope float x array bufr \$0-t-scope-value-r
array bufg \$0-t-scope-value-g;
#X obj 8 262 drawcurve -x 0 1 0.25 0 0.1775 0.1775 0 0.25 -0.1775 0.1775
-0.25 0 -0.1775 -0.1775 0 -0.25 0.1775 -0.1775 0.25 0;
#X obj 8 222 drawcurve -x 0 1 0.5 0 0.355 0.355 0 0.5 -0.355 0.355
-0.5 0 -0.355 -0.355 0 -0.5 0.355 -0.355 0.5 0;
#X obj 8 182 drawcurve -x 0 1 0.75 0 0.5325 0.5325 0 0.75 -0.5325 0.5325
-0.75 0 -0.5325 -0.5325 0 -0.75 0.5325 -0.5325 0.75 0;
#X obj 8 142 drawcurve -x 0 1 1 0 0.71 0.71 0 1 -0.71 0.71 -1 0 -0.71
-0.71 0 -1 0.71 -0.71 1 0;
#X obj 7 120 drawpolygon -x 0 1 0 1 0 -1;
#X obj 7 100 drawpolygon -x 0 1 -1 0 1 0;
#X obj 7 53 plot bufr 900 1 0 0 0;
#X obj 7 73 plot bufg 9 1 0 0 0;
#X restore 310 19 pd \$0-t-scope;
#X obj 313 427 pointer;
#X obj 252 324 t b b b, f 21;
#X obj 252 471 t b b p, f 19;
#X obj 375 348 symbol \$3;
#X obj 252 447 append \$0-t-scope x;
#X obj 252 129 t b b b, f 24;
#X obj 322 192 ../misc/spam.text.get \$2;
#X msg 322 171 symbol hoa.order;
#X obj 252 300 spigot 0, f 12;
#X obj 313 348 symbol \$3;
#X msg 375 370 \; pd-\$1 clear;
#X msg 313 404 traverse pd-\$1 \, bang;
#X obj 57 514 spigot, f 33;
#X obj 252 493 f 1;
#X obj 57 624 tools/hoa.2d.poltocar;
#X obj 57 601 pack f f;
#X obj 57 536 unpack f f, f 30;
#X obj 152 582 * 6.28319;
#X obj 322 213 s \$0-order;
#X obj 252 151 t b b;
#X obj 279 185 f \$1;
#X obj 279 207 == 0;
#X obj 252 346 f 0;
#N canvas 65 248 568 128 \$0-t-scope-value-r 0;
#X obj 35 11 struct \$0-t-scope-value-r float x float y;
#X restore 310 42 pd \$0-t-scope-value-r;
#X obj 307 512 setsize \$0-t-scope bufr;
#X obj 317 533 setsize \$0-t-scope bufg;
#X obj 307 492 f 180;
#X obj 234 564 element \$0-t-scope bufr;
#X obj 254 594 element \$0-t-scope bufg;
#X obj 57 578 max 0;
#X obj 77 714 tools/hoa.2d.poltocar;
#X obj 77 691 pack f f;
#X obj 12 600 min 0;
#X obj 12 622 abs;
#N canvas 65 248 568 128 \$0-t-scope-value-g 0;
#X obj 35 11 struct \$0-t-scope-value-g float x float y;
#X restore 310 62 pd \$0-t-scope-value-g;
#X obj 77 741 set \$0-t-scope-value-g x y, f 30;
#X obj 57 647 set \$0-t-scope-value-r x y, f 30;
#X obj 152 560 / 179;
#X connect 0 0 5 0;
#X connect 1 0 2 0;
#X connect 2 0 25 0;
#X connect 3 0 4 0;
#X connect 4 0 5 1;
#X connect 5 0 9 0;
#X connect 6 0 3 0;
#X connect 9 0 10 0;
#X connect 10 0 11 0;
#X connect 10 1 12 0;
#X connect 11 0 32 0;
#X connect 14 0 18 0;
#X connect 15 0 18 1;
#X connect 16 0 17 0;
#X connect 16 0 9 0;
#X connect 17 0 18 1;
#X connect 18 0 15 0;
#X connect 18 0 16 0;
#X connect 20 0 24 1;
#X connect 21 0 42 0;
#X connect 21 1 29 0;
#X connect 21 2 23 0;
#X connect 22 0 33 0;
#X connect 22 1 46 0;
#X connect 22 2 44 1;
#X connect 22 2 45 1;
#X connect 22 2 47 1;
#X connect 22 2 48 1;
#X connect 23 0 30 0;
#X connect 24 0 22 0;
#X connect 25 0 39 0;
#X connect 25 1 27 0;
#X connect 25 2 7 0;
#X connect 26 0 38 0;
#X connect 27 0 26 0;
#X connect 28 0 21 0;
#X connect 29 0 31 0;
#X connect 31 0 20 0;
#X connect 32 0 36 0;
#X connect 33 0 32 1;
#X connect 34 0 56 0;
#X connect 35 0 34 0;
#X connect 36 0 49 0;
#X connect 36 0 52 0;
#X connect 36 1 47 0;
#X connect 36 1 48 0;
#X connect 36 1 57 0;
#X connect 37 0 35 1;
#X connect 37 0 51 1;
#X connect 39 0 28 0;
#X connect 39 1 40 0;
#X connect 40 0 41 0;
#X connect 41 0 28 1;
#X connect 42 0 24 0;
#X connect 46 0 44 0;
#X connect 46 0 45 0;
#X connect 47 0 56 2;
#X connect 48 0 55 2;
#X connect 49 0 35 0;
#X connect 50 0 55 0;
#X connect 51 0 50 0;
#X connect 52 0 53 0;
#X connect 53 0 51 0;
#X connect 57 0 37 0;
