#N canvas 609 23 376 353 10;
#X declare -stdpath spam;
#X obj 12 283 *~, f 13;
#X obj 12 16 spam.in~ 0;
#X obj 12 315 spam.out~;
#X obj 87 67 spam.in 0;
#X obj 27 47 loadbang;
#X obj 88 15 declare -stdpath spam;
#N canvas 188 232 242 320 e^imθ 0;
#X obj 42 92 f \$1;
#X obj 42 69 loadbang;
#X obj 21 219 cos~;
#X obj 21 198 +~ 0, f 9;
#X obj 21 241 outlet~;
#X obj 21 163 *~ 1;
#X obj 42 113 tools/hoa.2d.itolm;
#X obj 42 135 unpack;
#X obj 74 155 < 0;
#X obj 74 177 * 0.25;
#X obj 21 49 line~;
#X obj 21 27 pack f 20;
#X obj 21 7 inlet;
#X connect 0 0 6 0;
#X connect 1 0 0 0;
#X connect 2 0 4 0;
#X connect 3 0 2 0;
#X connect 5 0 3 0;
#X connect 6 0 7 0;
#X connect 7 0 5 1;
#X connect 7 1 8 0;
#X connect 8 0 9 0;
#X connect 9 0 3 1;
#X connect 10 0 5 0;
#X connect 11 0 10 0;
#X connect 12 0 11 0;
#X restore 87 261 pd e^imθ;
#X obj 27 115 route list pol car;
#X obj 27 187 unpack f f;
#N canvas 0 22 175 333 pi_wrap 0;
#X obj 92 164 > 0;
#X obj 26 32 / 6.28319;
#X obj 26 54 wrap;
#X obj 26 76 nbx 5 14 -1e+37 1e+37 0 0 empty empty empty 0 -8 0 10
-262144 -1 -1 0.914056 256;
#X obj 53 164 abs;
#X obj 26 253 +, f 5;
#X obj 53 231 *, f 7;
#X obj 26 98 t f f;
#X obj 26 275 t f f;
#X obj 53 122 - 0;
#X obj 92 186 * -2;
#X obj 92 208 + 1;
#X obj 53 144 t f f, f 7;
#X obj 53 206 int;
#X obj 53 186 + 0.5;
#X obj 26 10 inlet;
#X obj 26 297 outlet;
#X connect 0 0 10 0;
#X connect 1 0 2 0;
#X connect 2 0 3 0;
#X connect 3 0 7 0;
#X connect 4 0 14 0;
#X connect 5 0 8 0;
#X connect 6 0 5 1;
#X connect 7 0 5 0;
#X connect 7 1 9 0;
#X connect 8 0 16 0;
#X connect 8 1 9 1;
#X connect 9 0 12 0;
#X connect 10 0 11 0;
#X connect 11 0 6 1;
#X connect 12 0 4 0;
#X connect 12 1 0 0;
#X connect 13 0 6 0;
#X connect 14 0 13 0;
#X connect 15 0 1 0;
#X restore 87 213 pd pi_wrap;
#X text 153 209 small trick to avoid the jump between 0 and 2π, f
18;
#X obj 97 147 tools/hoa.2d.cartopol;
#X msg 27 68 list 1 0;
#N canvas 988 94 344 422 dc 0;
#X obj 120 115 f \$1;
#X obj 93 22 loadbang;
#X obj 120 136 tools/hoa.2d.itolm;
#X obj 120 158 unpack;
#X obj 93 90 ../misc/spam.text.get \$2;
#X msg 93 69 symbol hoa.order;
#X obj 93 44 t b b;
#X obj 93 186 -, f 5;
#X obj 23 220 pow;
#X obj 23 187 t f b f, f 9;
#X obj 48 220 f 1;
#X obj 48 242 -, f 5;
#X obj 48 264 *, f 8;
#X obj 48 286 + 1;
#X obj 23 312 *, f 4;
#X obj 23 61 moses 1;
#X obj 52 86 t b f;
#X obj 52 108 f 1;
#X obj 52 130 /, f 5;
#X obj 23 12 inlet;
#X obj 23 346 pack f 20;
#X obj 23 368 line~;
#X obj 23 390 outlet~;
#X text 103 300 if r > 1 -> g = 1/r;
#X obj 23 39 max 1e-06;
#X text 103 320 if r <= 1 -> r^l(1+(1-x)*(N-l));
#X connect 0 0 2 0;
#X connect 1 0 6 0;
#X connect 2 0 3 0;
#X connect 3 0 7 1;
#X connect 3 0 8 1;
#X connect 4 0 7 0;
#X connect 5 0 4 0;
#X connect 6 0 5 0;
#X connect 6 1 0 0;
#X connect 7 0 12 1;
#X connect 8 0 14 0;
#X connect 9 0 8 0;
#X connect 9 1 10 0;
#X connect 9 2 11 1;
#X connect 10 0 11 0;
#X connect 11 0 12 0;
#X connect 12 0 13 0;
#X connect 13 0 14 1;
#X connect 14 0 20 0;
#X connect 15 0 9 0;
#X connect 15 1 16 0;
#X connect 16 0 17 0;
#X connect 16 1 18 1;
#X connect 17 0 18 0;
#X connect 18 0 20 0;
#X connect 19 0 24 0;
#X connect 20 0 21 0;
#X connect 21 0 22 0;
#X connect 24 0 15 0;
#X restore 27 239 pd dc;
#X obj 12 262 *~;
#X connect 0 0 2 0;
#X connect 1 0 14 0;
#X connect 3 0 7 0;
#X connect 4 0 12 0;
#X connect 6 0 0 1;
#X connect 7 0 8 0;
#X connect 7 1 8 0;
#X connect 7 2 11 0;
#X connect 8 0 13 0;
#X connect 8 1 9 0;
#X connect 9 0 6 0;
#X connect 11 0 8 0;
#X connect 12 0 7 0;
#X connect 13 0 14 1;
#X connect 14 0 0 0;
