#N canvas 286 260 855 498 10;
#X obj 12 16 spam.in~;
#X obj 12 78 env~;
#X obj 12 225 t f f f f;
#X obj 12 397 filledpolygon c4 c4 s4 x1 y1 x1 y1;
#X obj 12 376 >= 100;
#X obj 29 355 filledpolygon c3 c3 s3 x1 y1 x1 y1;
#X obj 29 336 >= 94;
#X obj 46 315 filledpolygon c2 c2 s2 x1 y1 x1 y1;
#X obj 46 296 >= 88;
#X obj 73 230 filledpolygon c0 c0 s1 x1 y1 x1 y1;
#X obj 63 254 >= 1;
#X obj 63 274 filledpolygon c1 c1 s1 x1 y1 x1 y1;
#X obj 12 202 spigot 0;
#X obj 31 178 f 0;
#X obj 31 156 t b b;
#X obj 57 178 f 1;
#X obj 12 57 *~ 1;
#N canvas 0 23 435 240 get.gain 0;
#X obj 14 136 list split 1;
#X obj 14 68 symbol gain;
#X obj 47 207 outlet;
#X obj 48 163 dbtorms;
#X obj 48 185 + 1;
#X obj 14 23 loadbang;
#X obj 14 45 delay 10;
#X obj 14 92 text search \$4;
#X obj 14 114 text get \$4;
#X connect 0 1 3 0;
#X connect 1 0 7 0;
#X connect 3 0 4 0;
#X connect 4 0 2 0;
#X connect 5 0 6 0;
#X connect 6 0 1 0;
#X connect 7 0 8 0;
#X connect 8 0 0 0;
#X restore 33 36 pd get.gain;
#N canvas 0 22 530 429 filter.cell 0;
#X obj 37 315 outlet;
#X obj 37 2 loadbang;
#X obj 37 256 delay 10;
#X obj 37 90 spigot 0;
#X obj 82 45 f \$1;
#X obj 82 67 == 0;
#N canvas 627 102 555 431 get.colors 0;
#X obj 63 117 t l l;
#X obj 90 139 list length;
#N canvas 536 255 450 300 pass 0;
#X obj 51 9 inlet;
#X obj 51 54 spigot, f 7;
#X obj 90 29 > 0;
#X obj 90 9 inlet;
#X obj 51 76 outlet;
#X connect 0 0 1 0;
#X connect 1 0 4 0;
#X connect 2 0 1 1;
#X connect 3 0 2 0;
#X restore 90 258 pd pass;
#N canvas 536 255 450 300 pass 0;
#X obj 51 9 inlet;
#X obj 51 54 spigot, f 7;
#X obj 90 9 inlet;
#X obj 51 76 outlet;
#X obj 90 29 > 3;
#X connect 0 0 1 0;
#X connect 1 0 3 0;
#X connect 2 0 4 0;
#X connect 4 0 1 1;
#X restore 174 214 pd pass;
#N canvas 536 255 450 300 pass 0;
#X obj 51 9 inlet;
#X obj 51 54 spigot, f 7;
#X obj 90 9 inlet;
#X obj 51 76 outlet;
#X obj 90 29 > 2;
#X connect 0 0 1 0;
#X connect 1 0 3 0;
#X connect 2 0 4 0;
#X connect 4 0 1 1;
#X restore 146 258 pd pass;
#N canvas 536 255 450 300 pass 0;
#X obj 51 9 inlet;
#X obj 51 54 spigot, f 7;
#X obj 90 9 inlet;
#X obj 51 76 outlet;
#X obj 90 29 > 1;
#X connect 0 0 1 0;
#X connect 1 0 3 0;
#X connect 2 0 4 0;
#X connect 4 0 1 1;
#X restore 118 215 pd pass;
#X obj 63 189 unpack f f f f f, f 19;
#N canvas 536 255 450 300 pass 0;
#X obj 51 9 inlet;
#X obj 51 54 spigot, f 7;
#X obj 90 9 inlet;
#X obj 51 76 outlet;
#X obj 90 29 > 4;
#X connect 0 0 1 0;
#X connect 1 0 3 0;
#X connect 2 0 4 0;
#X connect 4 0 1 1;
#X restore 63 215 pd pass;
#X obj 29 6 inlet;
#X obj 248 204 > 5;
#X obj 248 226 sel 1;
#X msg 248 248 warning extra colors arguments;
#X obj 29 95 list split 1;
#X obj 29 27 symbol colors;
#X obj 248 272 print zpt.2d.meter~;
#X obj 90 280 v \$0-c1;
#X obj 63 237 v \$0-c0;
#X obj 118 237 v \$0-c2;
#X obj 174 236 v \$0-c4;
#X obj 146 280 v \$0-c3;
#X obj 29 51 text search \$4;
#X obj 29 73 text get \$4;
#X connect 0 0 6 0;
#X connect 0 1 1 0;
#X connect 1 0 7 1;
#X connect 1 0 2 1;
#X connect 1 0 5 1;
#X connect 1 0 4 1;
#X connect 1 0 3 1;
#X connect 1 0 9 0;
#X connect 2 0 15 0;
#X connect 3 0 18 0;
#X connect 4 0 19 0;
#X connect 5 0 17 0;
#X connect 6 0 7 0;
#X connect 6 1 2 0;
#X connect 6 2 5 0;
#X connect 6 3 4 0;
#X connect 6 4 3 0;
#X connect 7 0 16 0;
#X connect 8 0 13 0;
#X connect 9 0 10 0;
#X connect 10 0 11 0;
#X connect 11 0 14 0;
#X connect 12 1 0 0;
#X connect 13 0 20 0;
#X connect 20 0 21 0;
#X connect 21 0 12 0;
#X restore 176 315 pd get.colors;
#X obj 37 111 t b b, f 8;
#N canvas 0 22 450 300 resize.buffer 0;
#X msg 19 69 resize \$1;
#X obj 19 92 array define \$4-buffer-\$1;
#X obj 19 25 inlet;
#X obj 19 47 f \$2;
#X connect 0 0 1 0;
#X connect 2 0 3 0;
#X connect 3 0 0 0;
#X restore 82 134 pd resize.buffer;
#N canvas 663 140 555 431 get.sizes 0;
#X obj 29 6 inlet;
#X obj 29 27 symbol colors;
#X obj 198 198 sel 1;
#X obj 63 126 unpack;
#X obj 63 148 swap, f 6;
#X obj 63 170 -, f 6;
#X obj 63 235 +;
#X obj 113 235 +;
#X obj 113 212 * 2;
#X obj 63 193 / 3;
#X obj 198 153 list length;
#X obj 198 176 != 2;
#X msg 198 220 warning size needs a minimum and a maximum;
#X obj 29 101 list split 1;
#X obj 198 244 print zpt.2d.meter~;
#X obj 29 50 text search \$4;
#X obj 29 73 text get \$4;
#X obj 9 169 v \$0-s4;
#X obj 109 169 v \$0-s1;
#X obj 63 257 v \$0-s2;
#X obj 113 257 v \$0-s3;
#X connect 0 0 1 0;
#X connect 1 0 15 0;
#X connect 2 0 12 0;
#X connect 3 0 4 0;
#X connect 3 1 4 1;
#X connect 4 0 5 0;
#X connect 4 0 17 0;
#X connect 4 1 5 1;
#X connect 4 1 6 1;
#X connect 4 1 7 1;
#X connect 4 1 18 0;
#X connect 5 0 9 0;
#X connect 6 0 19 0;
#X connect 7 0 20 0;
#X connect 8 0 7 0;
#X connect 9 0 6 0;
#X connect 9 0 8 0;
#X connect 10 0 11 0;
#X connect 11 0 2 0;
#X connect 12 0 14 0;
#X connect 13 1 10 0;
#X connect 13 1 3 0;
#X connect 15 0 16 0;
#X connect 16 0 13 0;
#X restore 316 314 pd get.sizes;
#X obj 37 24 t b b, f 8;
#X obj 37 155 t b b, f 8;
#X obj 37 219 spigot 0;
#X obj 82 176 f \$2;
#X obj 82 198 != 0;
#X obj 37 286 t b b b, f 47;
#X connect 1 0 10 0;
#X connect 2 0 15 0;
#X connect 3 0 7 0;
#X connect 4 0 5 0;
#X connect 5 0 3 1;
#X connect 7 0 11 0;
#X connect 7 1 8 0;
#X connect 10 0 3 0;
#X connect 10 1 4 0;
#X connect 11 0 12 0;
#X connect 11 1 13 0;
#X connect 12 0 2 0;
#X connect 13 0 14 0;
#X connect 14 0 12 1;
#X connect 15 0 0 0;
#X connect 15 1 6 0;
#X connect 15 2 9 0;
#X restore 426 115 pd filter.cell;
#N canvas 0 22 450 300 \$0-t-meter-value 0;
#X obj 8 159 filledpolygon c4 c4 s4 x1 y1 x1 y1;
#X obj 8 137 filledpolygon c3 c3 s3 x1 y1 x1 y1;
#X obj 8 117 filledpolygon c2 c2 s2 x1 y1 x1 y1;
#X obj 9 75 filledpolygon c0 c0 s1 x1 y1 x1 y1;
#X obj 8 96 filledpolygon c1 c1 s1 x1 y1 x1 y1;
#X obj 9 17 struct \$0-t-meter-value float x1 float y1 float s1 float
s2 float s3 float s4 float c0 float c1 float c2 float c3 float c4,
f 35;
#X restore 477 30 pd \$0-t-meter-value;
#N canvas 88 457 450 300 \$0-t-meter 0;
#X obj 27 18 struct \$0-t-meter float x array ls \$0-t-meter-value
;
#X obj 27 46 plot ls 0 1 0 0 0;
#X restore 476 10 pd \$0-t-meter;
#X obj 426 288 t b b b, f 43;
#X obj 426 340 list;
#X obj 639 342 r \$0-c3;
#X obj 663 363 r \$0-c4;
#X obj 591 342 r \$0-c1;
#X obj 615 363 r \$0-c2;
#X obj 426 387 pack f f 8 16 24 32 555 90 990 950 900, f 40;
#X obj 426 411 append \$0-t-meter x1 y1 s1 s2 s3 s4 c0 c1 c2 c3 c4
, f 22;
#X obj 568 363 r \$0-c0;
#X obj 473 363 r \$0-s1;
#X obj 497 342 r \$0-s2;
#X obj 520 363 r \$0-s3;
#X obj 544 342 r \$0-s4;
#N canvas 0 22 584 342 get.positions 0;
#N canvas 368 171 450 300 l_it2 0;
#X obj 43 180 until;
#X obj 43 201 list append;
#X obj 43 223 list split 2;
#X obj 43 138 / 2;
#X obj 43 160 + 1;
#X obj 43 93 list length;
#N canvas 0 22 256 116 error 0;
#X obj 8 27 % 2;
#X obj 8 49 sel 1;
#X obj 8 6 inlet;
#X msg 8 71 list has an odd number of coordinates;
#X obj 8 93 print xel.2d.meter~ warning;
#X connect 0 0 1 0;
#X connect 1 0 3 0;
#X connect 2 0 0 0;
#X connect 3 0 4 0;
#X restore 53 116 pd error;
#X obj 43 59 t l l;
#X obj 43 35 inlet list;
#X obj 43 245 outlet end;
#X obj 113 245 outlet elements;
#X connect 0 0 1 0;
#X connect 1 0 2 0;
#X connect 2 0 10 0;
#X connect 2 1 1 1;
#X connect 2 2 9 0;
#X connect 3 0 4 0;
#X connect 4 0 0 0;
#X connect 5 0 6 0;
#X connect 5 0 3 0;
#X connect 7 0 5 0;
#X connect 7 1 1 1;
#X connect 8 0 7 0;
#X restore 46 153 pd l_it2;
#X obj 139 44 f 0;
#X obj 91 176 t l b, f 6;
#X obj 91 248 spigot;
#X obj 124 222 == \$1;
#X obj 124 200 f 0;
#X obj 154 200 + 1;
#X obj 12 22 t b b, f 22;
#X obj 12 3 inlet;
#X obj 12 116 list split 1;
#X obj 12 72 text search \$4;
#X obj 12 94 text get \$4;
#X obj 12 48 symbol positions;
#X obj 46 295 outlet;
#X obj 91 295 outlet;
#X connect 0 0 13 0;
#X connect 0 1 2 0;
#X connect 1 0 5 1;
#X connect 2 0 3 0;
#X connect 2 1 5 0;
#X connect 3 0 14 0;
#X connect 4 0 3 1;
#X connect 5 0 6 0;
#X connect 5 0 4 0;
#X connect 6 0 5 1;
#X connect 7 0 12 0;
#X connect 7 1 1 0;
#X connect 8 0 7 0;
#X connect 9 1 0 0;
#X connect 10 0 11 0;
#X connect 11 0 9 0;
#X connect 12 0 10 0;
#X restore 426 263 pd get.positions;
#N canvas 0 22 450 300 clearer 0;
#X msg 23 81 \; pd-\$1 clear;
#X obj 23 35 inlet;
#X obj 23 57 symbol \$3, f 11;
#X connect 1 0 2 0;
#X connect 2 0 0 0;
#X restore 597 168 pd clearer;
#X obj 426 145 t b b b, f 29;
#X obj 426 167 f 0;
#N canvas 0 22 450 300 get.ptr 0;
#X obj 4 72 pointer;
#X msg 4 48 traverse pd-\$1 \, bang;
#X obj 4 3 inlet;
#X obj 4 94 outlet;
#X obj 4 23 symbol \$3;
#X connect 0 0 3 0;
#X connect 1 0 0 0;
#X connect 2 0 4 0;
#X connect 4 0 1 0;
#X restore 511 168 pd get.ptr;
#X obj 426 189 append \$0-t-meter x;
#X obj 426 211 t b p;
#N canvas 0 22 558 452 resize.ls 1;
#X obj 73 25 inlet;
#X obj 73 115 t f f;
#N canvas 0 22 450 300 counter 0;
#X obj 35 17 inlet;
#X obj 35 39 t f b, f 7;
#X obj 35 61 until;
#X obj 74 61 f 0;
#X obj 35 83 f, f 7;
#X obj 85 83 + 1;
#X obj 35 105 outlet;
#X connect 0 0 1 0;
#X connect 1 0 2 0;
#X connect 1 1 3 0;
#X connect 2 0 4 0;
#X connect 3 0 4 1;
#X connect 4 0 5 0;
#X connect 4 0 6 0;
#X connect 5 0 4 1;
#X restore 73 188 pd counter;
#X obj 73 263 pack f f f f 999, f 20;
#X msg 73 289 \$5 0 \$1 \$2 \$3 \$4;
#X obj 73 210 t f f, f 38;
#X obj 154 68 outlet;
#X obj 73 45 t b p, f 21;
#X obj 73 67 f \$2;
#X obj 100 138 setsize \$0-t-meter ls, f 17;
#N canvas 0 22 584 342 get.positions 0;
#N canvas 368 171 450 300 l_it2 0;
#X obj 43 180 until;
#X obj 43 201 list append;
#X obj 43 223 list split 2;
#X obj 43 138 / 2;
#X obj 43 160 + 1;
#X obj 43 93 list length;
#N canvas 0 22 256 116 error 0;
#X obj 8 27 % 2;
#X obj 8 49 sel 1;
#X obj 8 6 inlet;
#X msg 8 71 list has an odd number of coordinates;
#X obj 8 93 print xel.2d.meter~ warning;
#X connect 0 0 1 0;
#X connect 1 0 3 0;
#X connect 2 0 0 0;
#X connect 3 0 4 0;
#X restore 53 116 pd error;
#X obj 43 59 t l l;
#X obj 43 35 inlet list;
#X obj 43 245 outlet end;
#X obj 113 245 outlet elements;
#X connect 0 0 1 0;
#X connect 1 0 2 0;
#X connect 2 0 10 0;
#X connect 2 1 1 1;
#X connect 2 2 9 0;
#X connect 3 0 4 0;
#X connect 4 0 0 0;
#X connect 5 0 6 0;
#X connect 5 0 3 0;
#X connect 7 0 5 0;
#X connect 7 1 1 1;
#X connect 8 0 7 0;
#X restore 46 153 pd l_it2;
#X obj 139 44 f 0;
#X obj 91 176 t l b, f 6;
#X obj 91 248 spigot;
#X obj 124 222 == \$1;
#X obj 124 200 f 0;
#X obj 154 200 + 1;
#X obj 12 22 t b b, f 22;
#X obj 12 3 inlet;
#X obj 12 116 list split 1;
#X obj 12 72 text search \$4;
#X obj 12 94 text get \$4;
#X obj 12 48 symbol positions;
#X obj 46 295 outlet;
#X obj 91 295 outlet;
#X connect 0 0 13 0;
#X connect 0 1 2 0;
#X connect 1 0 5 1;
#X connect 2 0 3 0;
#X connect 2 1 5 0;
#X connect 3 0 14 0;
#X connect 4 0 3 1;
#X connect 5 0 6 0;
#X connect 5 0 4 0;
#X connect 6 0 5 1;
#X connect 7 0 12 0;
#X connect 7 1 1 0;
#X connect 8 0 7 0;
#X connect 9 1 0 0;
#X connect 10 0 11 0;
#X connect 11 0 9 0;
#X connect 12 0 10 0;
#X restore 72 236 pd get.positions;
#X obj 298 238 element \$0-t-meter ls;
#X obj 73 347 set \$0-t-meter-value x1 y1 s1 s2 s3 s4 c0 c1 c2 c3 c4
, f 38;
#X connect 0 0 7 0;
#X connect 1 0 2 0;
#X connect 1 1 9 0;
#X connect 2 0 5 0;
#X connect 3 0 4 0;
#X connect 4 0 12 0;
#X connect 5 1 11 0;
#X connect 7 0 8 0;
#X connect 7 1 6 0;
#X connect 7 1 9 1;
#X connect 7 1 11 1;
#X connect 8 0 1 0;
#X connect 11 0 12 11;
#X restore 453 234 pd resize.ls;
#X connect 0 0 16 0;
#X connect 1 0 12 0;
#X connect 2 0 4 0;
#X connect 2 1 6 0;
#X connect 2 2 8 0;
#X connect 2 3 10 0;
#X connect 4 0 3 0;
#X connect 6 0 5 0;
#X connect 8 0 7 0;
#X connect 10 0 11 0;
#X connect 12 0 2 0;
#X connect 13 0 12 0;
#X connect 14 0 13 0;
#X connect 14 1 15 0;
#X connect 15 0 12 1;
#X connect 16 0 1 0;
#X connect 17 0 16 1;
#X connect 18 0 36 0;
#X connect 21 0 22 0;
#X connect 22 0 27 0;
#X connect 23 0 27 9;
#X connect 24 0 27 10;
#X connect 25 0 27 7;
#X connect 26 0 27 8;
#X connect 27 0 28 0;
#X connect 29 0 27 6;
#X connect 30 0 27 2;
#X connect 31 0 27 3;
#X connect 32 0 27 4;
#X connect 33 0 27 5;
#X connect 34 0 21 0;
#X connect 34 1 22 1;
#X connect 36 0 37 0;
#X connect 36 1 38 0;
#X connect 36 2 35 0;
#X connect 37 0 39 0;
#X connect 38 0 39 1;
#X connect 39 0 40 0;
#X connect 40 1 41 0;
