#N struct 1027-stuct-matrix float x1 float y1 float x2 float y2 float
xv float yv float c1 float c2 float val float index;
#N struct 1024-stuct-matrix float x1 float y1 float x2 float y2 float
xv float yv float c1 float c2 float val float index;
#N canvas 452 143 922 651 10;
#X declare -lib iemmatrix;
#X obj 6 7 xel.header xel.2d.mat.brush;
#X obj 6 604 xel.footer;
#X obj 233 118 bng 15 250 50 0 empty empty empty 17 7 0 10 -262144
-1 -1;
#X obj 233 94 loadbang;
#X obj 233 452 xel.2d.mat.brush 5 5;
#N canvas 0 22 1029 742 \$0-canvas 0;
#X scalar 1027-stuct-matrix -1 1 -0.6 0.6 -0.9 0.8 999 0 0 0 \;;
#X scalar 1027-stuct-matrix -0.6 1 -0.2 0.6 -0.5 0.8 999 0 0 1 \;;
#X scalar 1027-stuct-matrix -0.2 1 0.2 0.6 -0.1 0.8 999 0 0 2 \;;
#X scalar 1027-stuct-matrix 0.2 1 0.6 0.6 0.3 0.8 999 0 0 3 \;;
#X scalar 1027-stuct-matrix 0.6 1 1 0.6 0.7 0.8 999 0 0 4 \;;
#X scalar 1027-stuct-matrix -1 0.6 -0.6 0.2 -0.9 0.4 999 0 0 5 \;;
#X scalar 1027-stuct-matrix -0.6 0.6 -0.2 0.2 -0.5 0.4 999 0 0 6 \;
;
#X scalar 1027-stuct-matrix -0.2 0.6 0.2 0.2 -0.1 0.4 999 0 0 7 \;
;
#X scalar 1027-stuct-matrix 0.2 0.6 0.6 0.2 0.3 0.4 999 0 0 8 \;;
#X scalar 1027-stuct-matrix 0.6 0.6 1 0.2 0.7 0.4 999 0 0 9 \;;
#X scalar 1027-stuct-matrix -1 0.2 -0.6 -0.2 -0.9 -1.49012e-08 999
0 0 10 \;;
#X scalar 1027-stuct-matrix -0.6 0.2 -0.2 -0.2 -0.5 -1.49012e-08 999
0 0 11 \;;
#X scalar 1027-stuct-matrix -0.2 0.2 0.2 -0.2 -0.1 -1.49012e-08 999
0 0 12 \;;
#X scalar 1027-stuct-matrix 0.2 0.2 0.6 -0.2 0.3 -1.49012e-08 999 0
0 13 \;;
#X scalar 1027-stuct-matrix 0.6 0.2 1 -0.2 0.7 -1.49012e-08 999 0 0
14 \;;
#X scalar 1027-stuct-matrix -1 -0.2 -0.6 -0.6 -0.9 -0.4 999 0 0 15
\;;
#X scalar 1027-stuct-matrix -0.6 -0.2 -0.2 -0.6 -0.5 -0.4 999 0 0 16
\;;
#X scalar 1027-stuct-matrix -0.2 -0.2 0.2 -0.6 -0.1 -0.4 999 0 0 17
\;;
#X scalar 1027-stuct-matrix 0.2 -0.2 0.6 -0.6 0.3 -0.4 999 0 0 18 \;
;
#X scalar 1027-stuct-matrix 0.6 -0.2 1 -0.6 0.7 -0.4 999 0 0 19 \;
;
#X scalar 1027-stuct-matrix -1 -0.6 -0.6 -1 -0.9 -0.8 999 0 0 20 \;
;
#X scalar 1027-stuct-matrix -0.6 -0.6 -0.2 -1 -0.5 -0.8 999 0 0 21
\;;
#X scalar 1027-stuct-matrix -0.2 -0.6 0.2 -1 -0.1 -0.8 999 0 0 22 \;
;
#X scalar 1027-stuct-matrix 0.2 -0.6 0.6 -1 0.3 -0.8 999 0 0 23 \;
;
#X scalar 1027-stuct-matrix 0.6 -0.6 1 -1 0.7 -0.8 999 0 0 24 \;;
#X coords -1 1 1 -1 201 201 2 100 100;
#X restore 7 88 pd \$0-canvas;
#X obj 233 496 list prepend set;
#X obj 233 518 list trim;
#X msg 233 540 matrix 5 5 0 0 0 0 0 0 0 0 0 0 0 0 0 0 0 0 0 0 0 0 0
0 0 0 0;
#X msg 244 143 matrix 5 5;
#X text 4 31 The abstraction generates a matrices. The arguments are
the default size of the matrix \, the number of rows and the number
of columns and the default value., f 66;
#X text 314 138 Changes the size of the matrix, f 16;
#X text 251 119 Outputs the matrix;
#N canvas 298 125 450 300 error.generator 0;
#X msg 20 139 cell -1 0 2;
#X msg 40 169 cell 100 0 2;
#X obj 20 238 outlet;
#X obj 20 18 inlet;
#X obj 20 40 bang;
#X msg 42 109 cell 0 100 2;
#X msg 52 79 cell 0 -1 2;
#X msg 132 79 matrix 0 3;
#X msg 149 138 matrix 5 5 0 0 0 1 2 4 0 0 0 0 0 0 0 0 0 0 0 0 0 0 0
0 0, f 38;
#X msg 139 215 column 100 3;
#X msg 139 185 column -1 3;
#X msg 239 185 row -1 3;
#X msg 239 215 row 100 3;
#X msg 314 202 zaza;
#X connect 0 0 2 0;
#X connect 1 0 2 0;
#X connect 3 0 4 0;
#X connect 4 0 0 0;
#X connect 4 0 1 0;
#X connect 4 0 5 0;
#X connect 4 0 6 0;
#X connect 4 0 7 0;
#X connect 4 0 8 0;
#X connect 4 0 9 0;
#X connect 4 0 10 0;
#X connect 4 0 11 0;
#X connect 4 0 12 0;
#X connect 4 0 13 0;
#X connect 5 0 2 0;
#X connect 6 0 2 0;
#X connect 7 0 2 0;
#X connect 8 0 2 0;
#X connect 9 0 2 0;
#X connect 10 0 2 0;
#X connect 11 0 2 0;
#X connect 12 0 2 0;
#X connect 13 0 2 0;
#X restore 78 474 pd error.generator;
#X obj 78 452 bng 15 250 50 0 empty empty empty 17 7 0 10 -262144 -1
-1;
#X msg 20 353 matrix 5 5 0.01 0.02 0.03 0.04 0.05 0.06 0.07 0.08 0.09
0.01 0.11 0.12 0.13 0.14 0.15 0.16 0.17 0.18 0.19 0.2 0.21 0.22 0.23
0.24 0.25, f 33;
#X text 19 302 Sets all the values of the matrix and resizes it if
needed, f 33;
#X text 19 332 nrows \, ncols \, coeff1 \, coeff2 \, etc.;
#X obj 259 428 r \$0-in;
#N canvas 0 22 450 300 \$0-pattern-gui 0;
#X scalar 1024-stuct-matrix -1 1 -0.333333 0.333333 -0.833333 0.666667
999 0 0 0 \;;
#X scalar 1024-stuct-matrix -0.333333 1 0.333333 0.333333 -0.166667
0.666667 999 0 0 1 \;;
#X scalar 1024-stuct-matrix 0.333333 1 1 0.333333 0.5 0.666667 999
0 0 2 \;;
#X scalar 1024-stuct-matrix -1 0.333333 -0.333333 -0.333333 -0.833333
-2.98023e-08 999 0 0 3 \;;
#X scalar 1024-stuct-matrix -0.333333 0.333333 0.333333 -0.333333 -0.166667
-2.98023e-08 999 0 0 4 \;;
#X scalar 1024-stuct-matrix 0.333333 0.333333 1 -0.333333 0.5 -2.98023e-08
999 0 0 5 \;;
#X scalar 1024-stuct-matrix -1 -0.333333 -0.333333 -1 -0.833333 -0.666667
999 0 0 6 \;;
#X scalar 1024-stuct-matrix -0.333333 -0.333333 0.333333 -1 -0.166667
-0.666667 999 0 0 7 \;;
#X scalar 1024-stuct-matrix 0.333333 -0.333333 1 -1 0.5 -0.666667 999
0 0 8 \;;
#X coords -1 1 1 -1 100 100 2 100 100;
#X restore 606 84 pd \$0-pattern-gui;
#X obj 542 345 xel.2d.gui.mat \$0-pattern-gui 3 3;
#X obj 233 474 xel.2d.gui.mat \$0-canvas 5 5;
#X obj 480 11 declare -lib iemmatrix;
#X msg 503 414 eye 4;
#X obj 503 466 list prepend set;
#X obj 503 488 list trim;
#X obj 588 438 mtx;
#X obj 503 444 mtx;
#X msg 503 510 matrix 4 4 1 0 0 0 0 1 0 0 0 0 1 0 0 0 0 1;
#X obj 306 336 nbx 5 14 -1e+37 1e+37 0 0 empty empty empty 0 -8 0 10
-262144 -1 -1 0 256;
#X obj 266 176 nbx 5 14 -1e+37 1e+37 0 0 empty empty empty 0 -8 0 10
-262144 -1 -1 0 256;
#X text 363 329 Fills the whole matrix with a value, f 21;
#X msg 266 200 cell 1 2 \$1;
#X text 340 201 row \, column \, value;
#X obj 296 286 nbx 5 14 -1e+37 1e+37 0 0 empty empty empty 0 -8 0 10
-262144 -1 -1 0 256;
#X text 328 171 Sets the value of a cell of the matrix, f 20;
#X text 358 281 Sets the values of a row of the matrix, f 19;
#X text 358 311 row \, value;
#X msg 296 310 row 3 \$1;
#X obj 276 232 nbx 5 14 -1e+37 1e+37 0 0 empty empty empty 0 -8 0 10
-262144 -1 -1 0 256;
#X text 350 257 row \, value;
#X text 350 227 Sets the values of a column of the matrix, f 23;
#X msg 276 256 column 2 \$1;
#X msg 306 355 fill \$1;
#X connect 2 0 4 0;
#X connect 3 0 2 0;
#X connect 4 0 21 0;
#X connect 6 0 7 0;
#X connect 7 0 8 0;
#X connect 9 0 4 0;
#X connect 13 0 4 0;
#X connect 14 0 13 0;
#X connect 15 0 4 0;
#X connect 18 0 4 0;
#X connect 21 0 6 0;
#X connect 23 0 27 0;
#X connect 24 0 25 0;
#X connect 25 0 28 0;
#X connect 27 0 24 0;
#X connect 29 0 43 0;
#X connect 30 0 32 0;
#X connect 32 0 4 0;
#X connect 34 0 38 0;
#X connect 38 0 4 0;
#X connect 39 0 42 0;
#X connect 42 0 4 0;
#X connect 43 0 4 0;
