#N canvas 363 178 596 644 10;
#X obj 164 83 spam~ 4 xel.2d.syn.pencil~ 2 2, f 51;
#X obj 165 361 spam~ 4 xel.2d.fx.kernel~ 2 2, f 52;
#X obj 164 550 spam~ 4 xel.2d.proj.dbap~ 2 2 8, f 52;
#X connect 0 0 1 0;
#X connect 0 1 1 1;
#X connect 0 2 1 2;
#X connect 0 3 1 3;
#X connect 1 0 2 0;
#X connect 1 1 2 1;
#X connect 1 2 2 2;
#X connect 1 3 2 3;
