#N canvas 453 23 703 448 10;
#X obj 21 7 inlet;
#X obj 301 21 r \$0-array;
#X obj 301 45 array define \$0-values;
#X obj 71 373 outlet;
#X obj 71 351 list trim;
#X obj 71 329 list prepend matrix \$1 \$2;
#X obj 218 288 r \$0-size;
#X msg 218 308 matrix \$1 \$2;
#X obj 71 309 array get \$0-values;
#X obj 21 29 route set;
#N canvas 0 22 174 226 init.size 0;
#X obj 16 99 pack f f;
#X obj 16 10 loadbang;
#X obj 16 210 outlet;
#X obj 16 57 f \$1;
#X obj 61 57 f \$2;
#X obj 16 34 t b b, f 8;
#X msg 16 187 matrix \$1 \$2;
#X obj 16 167 spigot;
#X obj 16 79 t f f;
#X obj 49 122 *;
#X obj 49 144 != 0;
#X connect 0 0 7 0;
#X connect 1 0 5 0;
#X connect 3 0 8 0;
#X connect 4 0 0 1;
#X connect 4 0 9 1;
#X connect 5 0 3 0;
#X connect 5 1 4 0;
#X connect 6 0 2 0;
#X connect 7 0 6 0;
#X connect 8 0 0 0;
#X connect 8 1 9 0;
#X connect 9 0 10 0;
#X connect 10 0 7 1;
#X restore 112 51 pd init.size;
#X obj 72 51 t b a;
#X obj 409 229 print xel.2d.mat;
#X msg 409 207 \$1 - message invalid;
#N canvas 0 22 127 130 fill 0;
#X msg 17 38 const \$1;
#X obj 17 60 s \$0-array;
#X obj 17 13 inlet;
#X connect 0 0 1 0;
#X connect 2 0 0 0;
#X restore 142 149 pd fill;
#N canvas 0 22 232 441 row 0;
#X obj 36 14 inlet;
#X obj 36 224 until;
#X obj 36 175 f, f 6;
#X obj 69 152 r \$0-nrows;
#X obj 36 396 array set \$0-values;
#X obj 36 36 unpack f f, f 13;
#X obj 36 371 f, f 13;
#X obj 36 58 t f f, f 6;
#X obj 36 105 spigot;
#X obj 36 127 t b f;
#X obj 36 346 t b f;
#X obj 36 322 +, f 5;
#X obj 36 246 f, f 7;
#X obj 36 197 t f b, f 7;
#X obj 75 224 f 0;
#N canvas 0 22 232 240 check.nrows 0;
#X obj 27 127 sel 0;
#X obj 27 173 print xel.2d.mat;
#X obj 20 83 <;
#X obj 20 31 t f f;
#X obj 47 83 >= 0;
#X obj 20 105 &&, f 5;
#X obj 20 7 inlet;
#X obj 20 195 outlet;
#X obj 35 60 r \$0-nrows;
#X msg 27 151 row - out of range;
#X connect 0 0 9 0;
#X connect 2 0 5 0;
#X connect 3 0 2 0;
#X connect 3 1 4 0;
#X connect 4 0 5 1;
#X connect 5 0 0 0;
#X connect 5 0 7 0;
#X connect 6 0 3 0;
#X connect 8 0 2 1;
#X connect 9 0 1 0;
#X restore 69 82 pd check.nrows;
#X obj 86 246 + 1;
#X obj 63 298 *;
#X obj 78 271 r \$0-ncols;
#X connect 0 0 5 0;
#X connect 1 0 12 0;
#X connect 2 0 13 0;
#X connect 3 0 2 1;
#X connect 5 0 7 0;
#X connect 5 1 6 1;
#X connect 6 0 4 0;
#X connect 7 0 8 0;
#X connect 7 1 15 0;
#X connect 8 0 9 0;
#X connect 9 0 2 0;
#X connect 9 1 17 0;
#X connect 10 0 6 0;
#X connect 10 1 4 1;
#X connect 11 0 10 0;
#X connect 12 0 11 0;
#X connect 12 0 16 0;
#X connect 13 0 1 0;
#X connect 13 1 14 0;
#X connect 14 0 12 1;
#X connect 15 0 8 1;
#X connect 16 0 12 1;
#X connect 17 0 11 1;
#X connect 18 0 17 1;
#X restore 230 149 pd row;
#N canvas 283 246 264 487 col 0;
#X obj 46 20 inlet;
#X obj 46 253 until;
#X obj 46 181 f, f 6;
#X obj 79 158 r \$0-nrows;
#X obj 46 372 array set \$0-values;
#X obj 46 42 unpack f f, f 13;
#X obj 46 347 f, f 13;
#N canvas 0 22 232 240 check.ncols 0;
#X obj 27 127 sel 0;
#X obj 27 173 print xel.2d.mat;
#X obj 20 83 <;
#X obj 35 60 r \$0-ncols;
#X obj 20 31 t f f;
#X obj 47 83 >= 0;
#X obj 20 105 &&, f 5;
#X obj 20 7 inlet;
#X obj 20 195 outlet;
#X msg 27 151 column - out of range;
#X connect 0 0 9 0;
#X connect 2 0 6 0;
#X connect 3 0 2 1;
#X connect 4 0 2 0;
#X connect 4 1 5 0;
#X connect 5 0 6 1;
#X connect 6 0 0 0;
#X connect 6 0 8 0;
#X connect 7 0 4 0;
#X connect 9 0 1 0;
#X restore 79 88 pd check.ncols;
#X obj 46 64 t f f, f 6;
#X obj 46 111 spigot;
#X obj 46 133 t b f;
#X obj 46 322 t b f;
#X obj 46 298 +, f 5;
#X obj 46 275 f, f 7;
#X obj 46 203 t f b, f 7;
#X obj 85 253 f 0;
#X obj 96 275 +;
#X obj 111 253 r \$0-ncols;
#X connect 0 0 5 0;
#X connect 1 0 13 0;
#X connect 2 0 14 0;
#X connect 3 0 2 1;
#X connect 5 0 8 0;
#X connect 5 1 6 1;
#X connect 6 0 4 0;
#X connect 7 0 9 1;
#X connect 8 0 9 0;
#X connect 8 1 7 0;
#X connect 9 0 10 0;
#X connect 10 0 2 0;
#X connect 10 1 12 1;
#X connect 11 0 6 0;
#X connect 11 1 4 1;
#X connect 12 0 11 0;
#X connect 13 0 12 0;
#X connect 13 0 16 0;
#X connect 14 0 1 0;
#X connect 14 1 15 0;
#X connect 15 0 13 1;
#X connect 16 0 13 1;
#X connect 17 0 16 1;
#X restore 274 149 pd col;
#N canvas 657 124 366 612 cell 0;
#X obj 46 230 *;
#X obj 46 252 +, f 10;
#X obj 46 20 inlet;
#X obj 46 327 array set \$0-values;
#X obj 46 48 unpack f f f, f 20;
#X obj 46 274 t b f, f 10;
#X obj 46 304 f, f 4;
#X obj 104 71 t f f;
#X obj 46 140 t f f, f 6;
#X obj 46 119 spigot;
#X obj 46 184 spigot;
#N canvas 0 22 232 240 check.ncols 0;
#X obj 27 127 sel 0;
#X obj 27 173 print xel.2d.mat;
#X obj 20 83 <;
#X obj 35 60 r \$0-ncols;
#X obj 20 31 t f f;
#X obj 47 83 >= 0;
#X obj 20 105 &&, f 5;
#X obj 20 7 inlet;
#X obj 20 195 outlet;
#X msg 27 151 cell - column out of range;
#X connect 0 0 9 0;
#X connect 2 0 6 0;
#X connect 3 0 2 1;
#X connect 4 0 2 0;
#X connect 4 1 5 0;
#X connect 5 0 6 1;
#X connect 6 0 0 0;
#X connect 6 0 8 0;
#X connect 7 0 4 0;
#X connect 9 0 1 0;
#X restore 131 95 pd check.ncols;
#N canvas 0 22 232 240 check.nrows 0;
#X obj 27 127 sel 0;
#X obj 27 173 print xel.2d.mat;
#X obj 20 83 <;
#X obj 20 31 t f f;
#X obj 47 83 >= 0;
#X obj 20 105 &&, f 5;
#X obj 20 7 inlet;
#X obj 20 195 outlet;
#X msg 27 151 matrix row out of range;
#X obj 35 60 r \$0-nrows;
#X connect 0 0 8 0;
#X connect 2 0 5 0;
#X connect 3 0 2 0;
#X connect 3 1 4 0;
#X connect 4 0 5 1;
#X connect 5 0 0 0;
#X connect 5 0 7 0;
#X connect 6 0 3 0;
#X connect 8 0 1 0;
#X connect 9 0 2 1;
#X restore 79 163 pd check.nrows;
#X obj 61 208 r \$0-ncols;
#X connect 0 0 1 0;
#X connect 1 0 5 0;
#X connect 2 0 4 0;
#X connect 4 0 9 0;
#X connect 4 1 7 0;
#X connect 4 2 6 1;
#X connect 5 0 6 0;
#X connect 5 1 3 1;
#X connect 6 0 3 0;
#X connect 7 0 1 1;
#X connect 7 1 11 0;
#X connect 8 0 10 0;
#X connect 8 1 12 0;
#X connect 9 0 8 0;
#X connect 10 0 0 0;
#X connect 11 0 9 1;
#X connect 12 0 10 1;
#X connect 13 0 0 1;
#X restore 362 150 pd cell;
#X obj 99 125 route matrix float fill row column col cell bang, f
59;
#N canvas 226 224 251 405 set.size 0;
#X obj 18 16 inlet;
#X obj 18 104 t l l l;
#X obj 57 217 s \$0-size;
#X obj 37 239 unpack f f;
#X obj 37 261 *, f 10;
#X obj 37 346 s \$0-array;
#X obj 18 370 outlet;
#X obj 37 283 t b f;
#X obj 64 305 array size \$0-values;
#X msg 37 325 const 0;
#X obj 18 39 t l l, f 6;
#X obj 18 83 spigot;
#N canvas 378 65 244 199 check.size 0;
#X obj 12 12 inlet;
#X obj 12 34 unpack f f;
#X obj 12 78 &&, f 10;
#X obj 12 167 outlet;
#X obj 22 100 sel 0;
#X obj 22 144 print xel.2d.mat;
#X obj 12 56 > 0;
#X obj 69 56 > 0;
#X msg 22 122 matrix - sizes must be positives;
#X connect 0 0 1 0;
#X connect 1 0 6 0;
#X connect 1 1 7 0;
#X connect 2 0 3 0;
#X connect 2 0 4 0;
#X connect 4 0 8 0;
#X connect 6 0 2 0;
#X connect 7 0 2 1;
#X connect 8 0 5 0;
#X restore 51 61 pd check.size;
#X obj 57 128 t l l;
#X obj 84 152 unpack f f;
#X obj 84 196 s \$0-nrows;
#X obj 141 174 s \$0-ncols;
#X connect 0 0 10 0;
#X connect 1 0 6 0;
#X connect 1 1 3 0;
#X connect 1 2 13 0;
#X connect 3 0 4 0;
#X connect 3 1 4 1;
#X connect 4 0 7 0;
#X connect 7 0 9 0;
#X connect 7 1 8 0;
#X connect 9 0 5 0;
#X connect 10 0 11 0;
#X connect 10 1 12 0;
#X connect 11 0 1 0;
#X connect 12 0 11 1;
#X connect 13 0 2 0;
#X connect 13 1 14 0;
#X connect 14 0 15 0;
#X connect 14 1 16 0;
#X restore 99 171 pd set.size;
#N canvas 0 22 253 174 set.values 0;
#X obj 6 29 list split 2;
#X obj 97 75 t l l, f 6;
#N canvas 0 22 450 300 check.size 0;
#X obj 50 50 array size \$0-values;
#X obj 23 29 t l b;
#X obj 23 71 list length;
#X obj 23 93 ==, f 5;
#X obj 29 115 sel 0;
#X obj 29 159 print xel.2d.mat;
#X obj 23 7 inlet;
#X obj 23 188 outlet;
#X msg 29 137 matrix - sizes and coefficients length are differents
;
#X connect 0 0 3 1;
#X connect 1 0 2 0;
#X connect 1 1 0 0;
#X connect 2 0 3 0;
#X connect 3 0 4 0;
#X connect 3 0 7 0;
#X connect 4 0 8 0;
#X connect 6 0 1 0;
#X connect 8 0 5 0;
#X restore 130 97 pd check.size;
#X obj 97 119 spigot;
#X obj 97 145 array set \$0-values;
#X obj 6 6 inlet;
#X obj 40 52 route bang;
#X connect 0 1 6 0;
#X connect 1 0 3 0;
#X connect 1 1 2 0;
#X connect 2 0 3 1;
#X connect 3 0 4 0;
#X connect 5 0 0 0;
#X connect 6 1 1 0;
#X restore 99 194 pd set.values;
#X obj 340 183 route square;
#N canvas 283 246 264 487 sqr 0;
#X obj 46 20 inlet;
#X obj 46 253 until;
#X obj 46 181 f, f 6;
#X obj 79 158 r \$0-nrows;
#X obj 46 402 array set \$0-values;
#X obj 46 377 f, f 13;
#N canvas 0 22 232 240 check.ncols 0;
#X obj 27 127 sel 0;
#X obj 27 173 print xel.2d.mat;
#X obj 20 83 <;
#X obj 35 60 r \$0-ncols;
#X obj 20 31 t f f;
#X obj 47 83 >= 0;
#X obj 20 105 &&, f 5;
#X obj 20 7 inlet;
#X obj 20 195 outlet;
#X msg 27 151 column - out of range;
#X connect 0 0 9 0;
#X connect 2 0 6 0;
#X connect 3 0 2 1;
#X connect 4 0 2 0;
#X connect 4 1 5 0;
#X connect 5 0 6 1;
#X connect 6 0 0 0;
#X connect 6 0 8 0;
#X connect 7 0 4 0;
#X connect 9 0 1 0;
#X restore 79 88 pd check.ncols;
#X obj 46 64 t f f, f 6;
#X obj 46 111 spigot;
#X obj 46 133 t b f;
#X obj 46 322 t b f;
#X obj 46 298 +, f 5;
#X obj 46 275 f, f 7;
#X obj 46 203 t f b, f 7;
#X obj 85 253 f 0;
#X obj 96 275 +;
#X obj 111 253 r \$0-ncols;
#X obj 46 42 unpack f f f f f;
#X connect 0 0 17 0;
#X connect 1 0 12 0;
#X connect 2 0 13 0;
#X connect 3 0 2 1;
#X connect 5 0 4 0;
#X connect 6 0 8 1;
#X connect 7 0 8 0;
#X connect 7 1 6 0;
#X connect 8 0 9 0;
#X connect 9 0 2 0;
#X connect 9 1 11 1;
#X connect 10 0 5 0;
#X connect 10 1 4 1;
#X connect 11 0 10 0;
#X connect 12 0 11 0;
#X connect 12 0 15 0;
#X connect 13 0 1 0;
#X connect 13 1 14 0;
#X connect 14 0 12 1;
#X connect 15 0 12 1;
#X connect 16 0 15 1;
#X connect 17 0 7 0;
#X connect 17 1 5 1;
#X restore 340 209 pd sqr;
#X obj 443 45 array define \$0-pattern;
#N canvas 869 276 295 432 apply.pattern 0;
#X obj 7 11 inlet;
#X obj 7 368 array set \$0-values;
#X obj 62 303 xel.2d.get.rctoi \$1 \$2;
#X obj 191 255 r \$0-size;
#X obj 62 281 xel.2d.get.valid \$1 \$2;
#X obj 62 259 pack f f, f 11;
#X obj 7 33 t b l, f 12;
#X obj 7 75 array size \$0-pattern;
#X obj 7 97 t f b, f 7;
#X obj 7 119 until;
#X obj 46 119 f 0;
#X obj 77 53 unpack f f f, f 21;
#X obj 7 141 f, f 7;
#X obj 56 141 + 1;
#X obj 7 163 t f f, f 9;
#X obj 7 326 array get \$0-pattern;
#X obj 7 347 *, f 24;
#X obj 155 170 r \$0-ptrn-size;
#X obj 62 215 unpack f f, f 11;
#X obj 62 237 +;
#X obj 125 237 +;
#X obj 62 193 xel.2d.get.itorc 1 1;
#X connect 0 0 6 0;
#X connect 2 0 1 1;
#X connect 3 0 2 1;
#X connect 3 0 4 1;
#X connect 4 0 2 0;
#X connect 5 0 4 0;
#X connect 6 0 7 0;
#X connect 6 1 11 0;
#X connect 7 0 8 0;
#X connect 8 0 9 0;
#X connect 8 1 10 0;
#X connect 9 0 12 0;
#X connect 10 0 12 1;
#X connect 11 0 19 1;
#X connect 11 1 20 1;
#X connect 11 2 16 1;
#X connect 12 0 13 0;
#X connect 12 0 14 0;
#X connect 13 0 12 1;
#X connect 14 0 15 0;
#X connect 14 1 21 0;
#X connect 15 0 16 0;
#X connect 16 0 1 0;
#X connect 17 0 21 1;
#X connect 18 0 19 0;
#X connect 18 1 20 0;
#X connect 19 0 5 0;
#X connect 20 0 5 1;
#X connect 21 0 18 0;
#X restore 372 327 pd apply.pattern;
#X obj 72 243 t b b, f 6;
#X obj 71 287 spigot;
#X obj 104 266 f 1;
#X msg 379 242 0;
#X connect 0 0 9 0;
#X connect 1 0 2 0;
#X connect 4 0 3 0;
#X connect 5 0 4 0;
#X connect 6 0 7 0;
#X connect 7 0 5 1;
#X connect 8 0 5 0;
#X connect 9 0 18 0;
#X connect 9 1 11 0;
#X connect 10 0 18 0;
#X connect 11 0 25 0;
#X connect 11 1 18 0;
#X connect 13 0 12 0;
#X connect 18 0 19 0;
#X connect 18 1 14 0;
#X connect 18 2 14 0;
#X connect 18 3 15 0;
#X connect 18 4 16 0;
#X connect 18 5 16 0;
#X connect 18 6 17 0;
#X connect 18 8 21 0;
#X connect 19 0 20 0;
#X connect 21 0 22 0;
#X connect 21 1 13 0;
#X connect 21 1 28 0;
#X connect 25 0 27 0;
#X connect 25 1 26 0;
#X connect 26 0 8 0;
#X connect 27 0 26 1;
#X connect 28 0 26 1;
