#N canvas 609 23 376 457 10;
#X obj 12 16 spam.in~;
#X obj 12 69 snapshot~;
#N canvas 0 22 450 300 timer 0;
#X obj 144 20 bang~;
#X obj 77 65 r pd;
#X obj 77 87 route dsp;
#X obj 77 199 metro 100;
#X obj 144 42 spigot 1;
#X obj 171 87 f 0;
#X obj 77 221 outlet;
#X obj 77 179 change;
#X obj 144 64 t b b;
#X obj 144 86 f 1;
#N canvas 0 22 450 300 get.interval 0;
#X obj 20 94 list split 1;
#X obj 54 119 outlet;
#X obj 20 4 inlet;
#X obj 20 26 symbol interval;
#X obj 20 50 text search \$3;
#X obj 20 72 text get \$3;
#X connect 0 1 1 0;
#X connect 2 0 3 0;
#X connect 3 0 4 0;
#X connect 4 0 5 0;
#X connect 5 0 0 0;
#X restore 128 178 pd get.interval;
#X obj 128 129 loadbang;
#X obj 128 151 delay 10;
#X connect 0 0 4 0;
#X connect 1 0 2 0;
#X connect 2 0 7 0;
#X connect 3 0 6 0;
#X connect 4 0 8 0;
#X connect 5 0 4 1;
#X connect 7 0 3 0;
#X connect 8 0 9 0;
#X connect 8 1 5 0;
#X connect 9 0 7 0;
#X connect 10 0 3 1;
#X connect 11 0 12 0;
#X connect 12 0 10 0;
#X restore 51 42 pd timer;
#X obj 12 206 spigot 0;
#N canvas 0 23 453 384 compute_energy 0;
#X obj 36 7 inlet;
#X obj 36 358 outlet;
#N canvas 386 33 450 300 counter 0;
#X obj 40 26 t b b, f 7;
#X obj 79 50 f 0;
#X obj 40 50 until;
#X obj 40 72 f, f 7;
#X obj 93 72 + 1;
#X obj 91 124 outlet;
#X obj 40 4 inlet;
#X obj 40 124 outlet;
#X obj 40 94 sel \$2, f 9;
#X connect 0 0 2 0;
#X connect 0 1 1 0;
#X connect 1 0 3 1;
#X connect 2 0 3 0;
#X connect 3 0 4 0;
#X connect 3 0 8 0;
#X connect 4 0 3 1;
#X connect 6 0 0 0;
#X connect 8 0 7 0;
#X connect 8 0 2 1;
#X connect 8 1 5 0;
#X restore 36 58 pd counter;
#X obj 51 90 t f f, f 7;
#X obj 51 132 t f f;
#X obj 51 154 *, f 5;
#X obj 51 216 *, f 7;
#X obj 186 266 +;
#X obj 212 266 f;
#X obj 51 236 +;
#X obj 77 236 f;
#X obj 36 293 f;
#X obj 36 315 /, f 10;
#X obj 90 132 array get \$3-ls-abs-\$1 0 1;
#X obj 51 110 array get \$3-val-\$1 0 1;
#X obj 36 29 t b b, f 16;
#X obj 129 59 f 0;
#X obj 51 176 t f f f, f 23;
#X obj 118 216 *, f 7;
#X obj 118 236 +;
#X obj 144 236 f;
#X obj 103 293 f;
#X obj 103 315 /, f 10;
#X obj 157 152 array get \$3-ls-ord-\$1 0 1;
#X obj 36 337 pack f f, f 11;
#X obj 36 260 t b b, f 11;
#X connect 0 0 15 0;
#X connect 2 0 25 0;
#X connect 2 1 3 0;
#X connect 3 0 14 0;
#X connect 3 1 13 0;
#X connect 3 1 23 0;
#X connect 4 0 5 0;
#X connect 4 1 5 1;
#X connect 5 0 17 0;
#X connect 6 0 9 0;
#X connect 7 0 8 0;
#X connect 7 0 12 1;
#X connect 7 0 22 1;
#X connect 8 0 7 1;
#X connect 9 0 10 0;
#X connect 9 0 11 1;
#X connect 10 0 9 1;
#X connect 11 0 12 0;
#X connect 12 0 24 0;
#X connect 13 0 6 1;
#X connect 14 0 4 0;
#X connect 15 0 2 0;
#X connect 15 1 16 0;
#X connect 16 0 9 1;
#X connect 16 0 7 1;
#X connect 16 0 19 1;
#X connect 17 0 6 0;
#X connect 17 1 18 0;
#X connect 17 2 7 0;
#X connect 18 0 19 0;
#X connect 19 0 20 0;
#X connect 19 0 21 1;
#X connect 20 0 19 1;
#X connect 21 0 22 0;
#X connect 22 0 24 1;
#X connect 23 0 18 1;
#X connect 24 0 1 0;
#X connect 25 0 11 0;
#X connect 25 1 21 0;
#X restore 12 258 pd compute_energy;
#N canvas 337 81 530 429 init.first 0;
#X obj 37 2 loadbang;
#X obj 37 90 spigot 0;
#X obj 82 45 f \$1;
#X obj 82 67 == 0;
#X obj 37 111 t b b, f 8;
#N canvas 437 33 450 300 resize.buffer 0;
#X msg 19 69 resize \$1;
#X obj 19 25 inlet;
#X obj 19 47 f \$2;
#X obj 19 112 array define \$3-ls-abs-\$1;
#X obj 19 132 array define \$3-ls-ord-\$1;
#X obj 19 92 array define \$3-val-\$1;
#X connect 0 0 3 0;
#X connect 0 0 4 0;
#X connect 0 0 5 0;
#X connect 1 0 2 0;
#X connect 2 0 0 0;
#X restore 82 134 pd resize.buffer;
#X obj 37 24 t b b, f 8;
#X obj 37 154 delay 10;
#N canvas 432 65 584 342 get.positions 0;
#X obj 12 3 inlet;
#X obj 12 116 list split 1, f 18;
#X obj 12 48 symbol positions;
#X obj 64 137 outlet;
#X obj 12 72 text search \$3;
#X obj 12 94 text get \$3;
#X connect 0 0 2 0;
#X connect 1 1 3 0;
#X connect 2 0 4 0;
#X connect 4 0 5 0;
#X connect 5 0 1 0;
#X restore 37 176 pd get.positions;
#N canvas 386 33 450 300 counter 0;
#X obj 40 26 t b b, f 7;
#X obj 79 50 f 0;
#X obj 40 50 until;
#X obj 40 72 f, f 7;
#X obj 93 72 + 1;
#X obj 91 124 outlet;
#X obj 40 4 inlet;
#X obj 40 124 outlet;
#X obj 40 94 sel \$2, f 9;
#X connect 0 0 2 0;
#X connect 0 1 1 0;
#X connect 1 0 3 1;
#X connect 2 0 3 0;
#X connect 3 0 4 0;
#X connect 3 0 8 0;
#X connect 4 0 3 1;
#X connect 6 0 0 0;
#X connect 8 0 7 0;
#X connect 8 0 2 1;
#X connect 8 1 5 0;
#X restore 37 222 pd counter;
#X obj 37 198 t b l;
#X obj 37 274 list, f 5;
#X obj 37 295 list split;
#X obj 94 274 * 2;
#X obj 65 315 unpack f f;
#X obj 37 385 outlet;
#X obj 65 336 array set \$3-ls-abs-\$1;
#X obj 122 356 array set \$3-ls-ord-\$1;
#X obj 37 249 t b f f, f 20;
#X connect 0 0 6 0;
#X connect 1 0 4 0;
#X connect 2 0 3 0;
#X connect 3 0 1 1;
#X connect 4 0 7 0;
#X connect 4 1 5 0;
#X connect 6 0 1 0;
#X connect 6 1 2 0;
#X connect 7 0 8 0;
#X connect 8 0 10 0;
#X connect 9 0 15 0;
#X connect 9 1 18 0;
#X connect 10 0 9 0;
#X connect 10 1 11 1;
#X connect 11 0 12 0;
#X connect 12 1 14 0;
#X connect 13 0 12 1;
#X connect 14 0 16 0;
#X connect 14 1 17 0;
#X connect 18 0 11 0;
#X connect 18 1 13 0;
#X connect 18 2 16 1;
#X connect 18 2 17 1;
#X restore 57 161 pd init.first;
#X obj 57 183 f 1;
#X obj 12 91 t b f;
#X obj 39 112 array set \$3-val-0 \$1;
#X obj 12 315 spam.out 0;
#X obj 12 228 t f f, f 20;
#N canvas 0 23 453 384 compute_velocity 0;
#X obj 36 7 inlet;
#X obj 36 358 outlet;
#N canvas 386 33 450 300 counter 0;
#X obj 40 26 t b b, f 7;
#X obj 79 50 f 0;
#X obj 40 50 until;
#X obj 40 72 f, f 7;
#X obj 93 72 + 1;
#X obj 91 124 outlet;
#X obj 40 4 inlet;
#X obj 40 124 outlet;
#X obj 40 94 sel \$2, f 9;
#X connect 0 0 2 0;
#X connect 0 1 1 0;
#X connect 1 0 3 1;
#X connect 2 0 3 0;
#X connect 3 0 4 0;
#X connect 3 0 8 0;
#X connect 4 0 3 1;
#X connect 6 0 0 0;
#X connect 8 0 7 0;
#X connect 8 0 2 1;
#X connect 8 1 5 0;
#X restore 36 58 pd counter;
#X obj 51 90 t f f, f 7;
#X obj 51 216 *, f 7;
#X obj 186 266 +;
#X obj 212 266 f;
#X obj 51 236 +;
#X obj 77 236 f;
#X obj 36 293 f;
#X obj 36 315 /, f 10;
#X obj 90 132 array get \$3-ls-abs-\$1 0 1;
#X obj 51 110 array get \$3-val-\$1 0 1;
#X obj 36 29 t b b, f 16;
#X obj 129 59 f 0;
#X obj 51 176 t f f f, f 23;
#X obj 118 216 *, f 7;
#X obj 118 236 +;
#X obj 144 236 f;
#X obj 103 293 f;
#X obj 103 315 /, f 10;
#X obj 157 152 array get \$3-ls-ord-\$1 0 1;
#X obj 36 337 pack f f, f 11;
#X obj 36 260 t b b, f 11;
#X connect 0 0 13 0;
#X connect 2 0 23 0;
#X connect 2 1 3 0;
#X connect 3 0 12 0;
#X connect 3 1 11 0;
#X connect 3 1 21 0;
#X connect 4 0 7 0;
#X connect 5 0 6 0;
#X connect 5 0 10 1;
#X connect 5 0 20 1;
#X connect 6 0 5 1;
#X connect 7 0 8 0;
#X connect 7 0 9 1;
#X connect 8 0 7 1;
#X connect 9 0 10 0;
#X connect 10 0 22 0;
#X connect 11 0 4 1;
#X connect 12 0 15 0;
#X connect 13 0 2 0;
#X connect 13 1 14 0;
#X connect 14 0 7 1;
#X connect 14 0 5 1;
#X connect 14 0 17 1;
#X connect 15 0 4 0;
#X connect 15 1 16 0;
#X connect 15 2 5 0;
#X connect 16 0 17 0;
#X connect 17 0 18 0;
#X connect 17 0 19 1;
#X connect 18 0 17 1;
#X connect 19 0 20 0;
#X connect 20 0 22 1;
#X connect 21 0 16 1;
#X connect 22 0 1 0;
#X connect 23 0 9 0;
#X connect 23 1 19 0;
#X restore 129 258 pd compute_velocity;
#X obj 129 315 spam.out 1;
#X connect 0 0 1 0;
#X connect 1 0 7 0;
#X connect 2 0 1 0;
#X connect 3 0 10 0;
#X connect 4 0 9 0;
#X connect 5 0 6 0;
#X connect 6 0 3 1;
#X connect 7 0 3 0;
#X connect 7 1 8 0;
#X connect 10 0 4 0;
#X connect 10 1 11 0;
#X connect 11 0 12 0;
