#N struct 1025-t-meter float x array ls 1025-t-meter-value;
#N struct 1025-t-meter-value float x1 float y1 float s1 float s2 float
s3 float s4 float c0 float c1 float c2 float c3 float c4 float v1 float
v2 float v3 float v4;
#N struct 1022-t-vector float x1 float y1 float x2 float y2;
#N canvas 592 61 490 694 10;
#X declare -stdpath spam;
#N canvas 0 22 730 563 \$0-meter 0;
#X scalar 1025-t-meter 0 \; 0 0.6 12 24 36 48 555 90 990 950 900 1
1 1 0 \; -0.6 0 12 24 36 48 555 90 990 950 900 1 1 1 0 \; 0 -0.6 12
24 36 48 555 90 990 950 900 1 1 0 0 \; 0.6 0 12 24 36 48 555 90 990
950 900 1 1 0 0 \; \;;
#X coords -1 1 1 -1 180 180 2 100 100;
#X restore 12 121 pd \$0-meter;
#X obj 27 575 declare -stdpath spam;
#X obj 6 635 zpt.footer;
#X obj 5 7 zpt.header zpt.2d.meter~;
#N canvas 0 22 450 300 \$0-vector 0;
#X scalar 1022-t-vector -0.231224 0.0768877 1 -1 \;;
#X coords -1 1 1 -1 180 180 2 100 100;
#X restore 12 121 pd \$0-vector;
#X obj 25 325 osc~ 0.1;
#X obj 25 347 *~ 1;
#X obj 118 347 *~ 1;
#X obj 211 347 *~ 1;
#X obj 304 345 *~ 1;
#X obj 118 325 osc~ 0.11;
#X obj 211 325 osc~ 0.12;
#X obj 304 325 osc~ 0.13;
#N canvas 0 22 604 360 ______draw_energy_and_velocity_vectors______
0;
#X obj 357 160 pointer;
#X obj 317 33 loadbang;
#X obj 317 55 t b b b, f 14;
#X obj 397 77 f \$0;
#X msg 397 100 \; pd-\$1-vector clear;
#X obj 357 77 f \$0;
#X msg 357 136 traverse pd-\$1-vector \, bang;
#X obj 317 184 append \$0-t-vector x1 y1 x2 y2;
#X msg 317 77 0 0 0 0;
#X obj 25 302 set \$0-t-vector x1 y1, f 24;
#X obj 176 302 set \$0-t-vector x2 y2, f 24;
#X obj 176 213 unpack, f 12;
#X obj 25 214 unpack, f 12;
#X obj 25 92 inlet;
#X obj 176 92 inlet;
#N canvas 736 262 450 300 \$0-t-vector 0;
#X obj 27 18 struct \$0-t-vector float x1 float y1 float x2 float y2
;
#X obj 27 39 filledpolygon 900 900 7 x1 y1 x1 y1;
#X obj 27 64 filledpolygon 9 9 7 x2 y2 x2 y2;
#X restore 317 8 pd \$0-t-vector;
#X obj 176 235 * 0.5;
#X obj 246 235 * 0.5;
#X obj 176 257 clip -1 1;
#X obj 246 257 clip -1 1;
#X connect 0 0 7 4;
#X connect 1 0 2 0;
#X connect 2 0 8 0;
#X connect 2 1 5 0;
#X connect 2 2 3 0;
#X connect 3 0 4 0;
#X connect 5 0 6 0;
#X connect 6 0 0 0;
#X connect 7 0 10 2;
#X connect 7 0 9 2;
#X connect 8 0 7 0;
#X connect 11 0 16 0;
#X connect 11 1 17 0;
#X connect 12 0 9 0;
#X connect 12 1 9 1;
#X connect 13 0 12 0;
#X connect 14 0 11 0;
#X connect 16 0 18 0;
#X connect 17 0 19 0;
#X connect 18 0 10 0;
#X connect 19 0 10 1;
#X restore 25 550 pd ______draw_energy_and_velocity_vectors______;
#X obj 27 598 text define -k \$0-attrs;
#A set positions 0 0.6 -0.6 0 0 -0.6 0.6 0 \; colors 555 90 990 950
900 \; sizes 12 48 \;;
#X obj 25 380 spam~ 4 zpt.2d.meter~ 4 \$0-meter \$0-attrs;
#X text 4 31 The abstraction displays computes the coordinates of the
velocity vector and the energy vector that characterize a sound field.
It's an useful tool to analyse the restitution of the sound field.
For futher information : Michael A. Gerzon \, General metatheorie of
auditory localisation. Audio Engineering Society Preprint \, 3306 \,
1992, f 67;
#N canvas 217 367 450 300 pos 0;
#X obj 145 100 nbx 4 14 -1e+37 1e+37 0 0 empty empty empty 0 -8 0 10
-262144 -1 -1 0.281008 256;
#X obj 100 100 nbx 4 14 -1e+37 1e+37 0 0 empty empty empty 0 -8 0 10
-262144 -1 -1 -0.196355 256;
#X obj 119 77 t b f;
#X obj 101 150 pack 1 f;
#X obj 101 18 r \$0-pos;
#X obj 101 40 unpack f f;
#X obj 101 172 outlet;
#X obj 164 19 inlet;
#X connect 0 0 2 0;
#X connect 1 0 3 0;
#X connect 2 0 1 0;
#X connect 2 1 3 1;
#X connect 3 0 6 0;
#X connect 4 0 5 0;
#X connect 5 0 1 0;
#X connect 5 1 0 0;
#X connect 7 0 5 0;
#X coords 0 -1 1 1 90 14 2 100 100;
#X restore 25 494 pd pos;
#N canvas 217 367 450 300 pos 0;
#X obj 145 100 nbx 4 14 -1e+37 1e+37 0 0 empty empty empty 0 -8 0 10
-262144 -1 -1 0.206292 256;
#X obj 100 100 nbx 4 14 -1e+37 1e+37 0 0 empty empty empty 0 -8 0 10
-262144 -1 -1 -0.346575 256;
#X obj 119 77 t b f;
#X obj 101 150 pack 1 f;
#X obj 101 18 r \$0-pos;
#X obj 101 40 unpack f f;
#X obj 101 172 outlet;
#X obj 164 19 inlet;
#X connect 0 0 2 0;
#X connect 1 0 3 0;
#X connect 2 0 1 0;
#X connect 2 1 3 1;
#X connect 3 0 6 0;
#X connect 4 0 5 0;
#X connect 5 0 1 0;
#X connect 5 1 0 0;
#X connect 7 0 5 0;
#X coords 0 -1 1 1 90 14 2 100 100;
#X restore 87 477 pd pos;
#X obj 149 461 nbx 5 14 -1e+37 1e+37 0 0 empty empty empty 0 -8 0 10
-262144 -1 -1 1.37072 256;
#X obj 25 410 spam~ 4 zpt.2d.analyzer~ 4 \$0-attrs, f 47;
#X obj 25 440 route energy velocity intensity mean, f 42;
#X obj 211 461 nbx 5 14 -1e+37 1e+37 0 0 empty empty empty 0 -8 0 10
-262144 -1 -1 0.475912 256;
#X connect 5 0 6 0;
#X connect 6 0 15 0;
#X connect 6 0 20 0;
#X connect 7 0 15 1;
#X connect 7 0 20 1;
#X connect 8 0 15 2;
#X connect 8 0 20 2;
#X connect 9 0 15 3;
#X connect 9 0 20 3;
#X connect 10 0 7 0;
#X connect 11 0 8 0;
#X connect 12 0 9 0;
#X connect 20 0 21 0;
#X connect 21 0 17 0;
#X connect 21 1 18 0;
#X connect 21 2 19 0;
#X connect 21 3 22 0;
