#N canvas 9 150 475 618 10;
#X obj 12 474 *~;
#X obj 12 16 spam.in~ 0;
#X obj 12 506 spam.out~;
#X obj 27 133 spam.in 0;
#X obj 27 430 pack f 20;
#X obj 27 452 line~;
#X obj 27 57 loadbang;
#X obj 27 318 * 3.14129;
#X obj 27 362 + 1;
#X obj 27 296 min 1;
#X obj 27 384 * 0.5;
#X obj 27 340 cos;
#X obj 79 210 max 0.001;
#X obj 27 274 / 1, f 6;
#X obj 27 406 / 1, f 14;
#X msg 27 108 0 0;
#X obj 27 155 route list spread, f 18;
#X obj 79 242 t b f;
#X obj 27 78 t b b b, f 44;
#X obj 157 108 f \$1;
#X obj 157 133 tools/mat.2d.itorc;
#X obj 157 156 tools/mat.2d.rctocar;
#X obj 288 100 tools/mat.2d.getdim \$2;
#X obj 27 182 tools/mat.2d.distance, f 44;
#X connect 0 0 2 0;
#X connect 1 0 0 0;
#X connect 3 0 16 0;
#X connect 4 0 5 0;
#X connect 5 0 0 1;
#X connect 6 0 18 0;
#X connect 7 0 11 0;
#X connect 8 0 10 0;
#X connect 9 0 7 0;
#X connect 10 0 14 0;
#X connect 11 0 8 0;
#X connect 12 0 17 0;
#X connect 13 0 9 0;
#X connect 14 0 4 0;
#X connect 15 0 16 0;
#X connect 16 0 23 0;
#X connect 16 1 12 0;
#X connect 17 0 13 0;
#X connect 17 1 13 1;
#X connect 17 1 14 1;
#X connect 18 0 15 0;
#X connect 18 1 19 0;
#X connect 18 2 22 0;
#X connect 19 0 20 0;
#X connect 20 0 21 0;
#X connect 21 0 23 1;
#X connect 22 0 20 1;
#X connect 22 0 21 1;
#X connect 22 0 23 2;
#X connect 23 0 13 0;
