#N struct 1790-t-scope float x1 float y1 float x2 float y2 float c1
float c2;
#N struct 1789-t-scope float x1 float y1 float x2 float y2 float c1
float c2;
#N struct 1788-t-scope float x1 float y1 float x2 float y2 float c1
float c2;
#N struct 1787-t-scope float x1 float y1 float x2 float y2 float c1
float c2;
#N struct 1786-t-scope float x1 float y1 float x2 float y2 float c1
float c2;
#N struct 1785-t-scope float x1 float y1 float x2 float y2 float c1
float c2;
#N struct 1784-t-scope float x1 float y1 float x2 float y2 float c1
float c2;
#N struct 1783-t-scope float x1 float y1 float x2 float y2 float c1
float c2;
#N struct 1782-t-scope float x1 float y1 float x2 float y2 float c1
float c2;
#N struct 1781-t-scope float x1 float y1 float x2 float y2 float c1
float c2;
#N struct 1780-t-scope float x1 float y1 float x2 float y2 float c1
float c2;
#N struct 1779-t-scope float x1 float y1 float x2 float y2 float c1
float c2;
#N struct 1778-t-scope float x1 float y1 float x2 float y2 float c1
float c2;
#N struct 1777-t-scope float x1 float y1 float x2 float y2 float c1
float c2;
#N struct 1776-t-scope float x1 float y1 float x2 float y2 float c1
float c2;
#N struct 1775-t-scope float x1 float y1 float x2 float y2 float c1
float c2;
#N struct 1774-t-scope float x1 float y1 float x2 float y2 float c1
float c2;
#N struct 1773-t-scope float x1 float y1 float x2 float y2 float c1
float c2;
#N struct 1772-t-scope float x1 float y1 float x2 float y2 float c1
float c2;
#N struct 1771-t-scope float x1 float y1 float x2 float y2 float c1
float c2;
#N struct 1770-t-scope float x1 float y1 float x2 float y2 float c1
float c2;
#N struct 1769-t-scope float x1 float y1 float x2 float y2 float c1
float c2;
#N struct 1768-t-scope float x1 float y1 float x2 float y2 float c1
float c2;
#N struct 1767-t-scope float x1 float y1 float x2 float y2 float c1
float c2;
#N struct 1766-t-scope float x1 float y1 float x2 float y2 float c1
float c2;
#N struct 1765-t-scope float x1 float y1 float x2 float y2 float c1
float c2;
#N struct 1764-t-scope float x1 float y1 float x2 float y2 float c1
float c2;
#N struct 1763-t-scope float x1 float y1 float x2 float y2 float c1
float c2;
#N struct 1762-t-scope float x1 float y1 float x2 float y2 float c1
float c2;
#N struct 1761-t-scope float x1 float y1 float x2 float y2 float c1
float c2;
#N struct 1760-t-scope float x1 float y1 float x2 float y2 float c1
float c2;
#N struct 1759-t-scope float x1 float y1 float x2 float y2 float c1
float c2;
#N struct 1758-t-scope float x1 float y1 float x2 float y2 float c1
float c2;
#N struct 1757-t-scope float x1 float y1 float x2 float y2 float c1
float c2;
#N struct 1756-t-scope float x1 float y1 float x2 float y2 float c1
float c2;
#N struct 1755-t-scope float x1 float y1 float x2 float y2 float c1
float c2;
#N struct 1754-t-meter float x1 float y1 float s1 float s2 float s3
float s4 float c0 float c1 float c2 float c3 float c4;
#N struct 1753-t-meter float x1 float y1 float s1 float s2 float s3
float s4 float c0 float c1 float c2 float c3 float c4;
#N struct 1752-t-meter float x1 float y1 float s1 float s2 float s3
float s4 float c0 float c1 float c2 float c3 float c4;
#N struct 1751-t-meter float x1 float y1 float s1 float s2 float s3
float s4 float c0 float c1 float c2 float c3 float c4;
#N struct 1750-t-meter float x1 float y1 float s1 float s2 float s3
float s4 float c0 float c1 float c2 float c3 float c4;
#N struct 1749-t-meter float x1 float y1 float s1 float s2 float s3
float s4 float c0 float c1 float c2 float c3 float c4;
#N struct 1748-t-meter float x1 float y1 float s1 float s2 float s3
float s4 float c0 float c1 float c2 float c3 float c4;
#N struct 1747-t-meter float x1 float y1 float s1 float s2 float s3
float s4 float c0 float c1 float c2 float c3 float c4;
#N canvas 231 23 545 825 10;
#X declare -stdpath spam;
#X obj 269 246 tgl 15 0 empty empty empty 17 7 0 10 -262144 -1 -1 1
1;
#N canvas 0 22 573 343 trajectory 0;
#X obj 54 191 t f f, f 15;
#X obj 54 279 pack f f, f 15;
#X obj 54 237 * 6.28319;
#X obj 141 237 * 6.28319;
#X obj 54 128 line 0;
#X obj 54 257 sin;
#X obj 141 257 sin;
#X obj 54 215 * 3;
#X obj 141 215 * 1;
#X obj 54 80 f 0;
#X obj 144 96 sel 1;
#X obj 54 301 outlet;
#X msg 17 104 stop;
#X obj 17 53 sel 0 1, f 13;
#X obj 144 118 f 0;
#X obj 17 25 inlet;
#X msg 54 104 \$1 \, 1 5000;
#X connect 0 0 7 0;
#X connect 0 1 8 0;
#X connect 1 0 11 0;
#X connect 2 0 5 0;
#X connect 3 0 6 0;
#X connect 4 0 0 0;
#X connect 4 0 10 0;
#X connect 5 0 1 0;
#X connect 6 0 1 1;
#X connect 7 0 2 0;
#X connect 8 0 3 0;
#X connect 9 0 16 0;
#X connect 10 0 14 0;
#X connect 10 1 9 1;
#X connect 12 0 4 0;
#X connect 13 0 12 0;
#X connect 13 1 9 0;
#X connect 14 0 9 0;
#X connect 15 0 13 0;
#X connect 16 0 4 0;
#X restore 269 270 pd trajectory;
#X obj 198 262 nbx 5 14 1 1e+37 0 0 empty empty empty 0 -8 0 10 -262144
-1 -1 1 256;
#X obj 291 218 tgl 15 0 empty empty empty 17 7 0 10 -262144 -1 -1 0
1;
#N canvas 0 22 573 343 trajectory 0;
#X obj 54 191 t f f, f 15;
#X obj 54 279 pack f f, f 15;
#X obj 54 237 * 6.28319;
#X obj 141 237 * 6.28319;
#X obj 54 128 line 0;
#X obj 141 257 sin;
#X obj 141 215 * 1;
#X obj 54 80 f 0;
#X obj 144 96 sel 1;
#X obj 54 301 outlet;
#X msg 17 104 stop;
#X obj 17 53 sel 0 1, f 13;
#X obj 144 118 f 0;
#X obj 17 25 inlet;
#X obj 54 215 * 1;
#X obj 54 257 cos;
#X msg 54 104 \$1 \, 1 5000;
#X connect 0 0 14 0;
#X connect 0 1 6 0;
#X connect 1 0 9 0;
#X connect 2 0 15 0;
#X connect 3 0 5 0;
#X connect 4 0 0 0;
#X connect 4 0 8 0;
#X connect 5 0 1 1;
#X connect 6 0 3 0;
#X connect 7 0 16 0;
#X connect 8 0 12 0;
#X connect 8 1 7 1;
#X connect 10 0 4 0;
#X connect 11 0 10 0;
#X connect 11 1 7 0;
#X connect 12 0 7 0;
#X connect 13 0 11 0;
#X connect 14 0 2 0;
#X connect 15 0 1 0;
#X connect 16 0 4 0;
#X restore 291 242 pd trajectory;
#X obj 284 752 text define -k \$0-config;
#A set positions -0.530331 0.530329 -0.75 -1.67489e-06 -0.530329 -0.530332
2.51234e-06 -0.75 0.530332 -0.530328 0.75 3.34978e-06 0.530328 0.530333
-4.18723e-06 0.75 \; rolloff 10 \; blur 0.01 \;;
#X obj 38 752 dac~ 1 2 3 4 5 6 7 8, f 39;
#N canvas 0 22 223 200 \$0-scope 0;
#X scalar 1790-t-scope 0.666667 -0.666667 1 -1 90 0 \;;
#X scalar 1789-t-scope 0.333333 -0.666667 0.666667 -1 90 0 \;;
#X scalar 1788-t-scope 0 -0.666667 0.333333 -1 90 0 \;;
#X scalar 1787-t-scope -0.333333 -0.666667 2.98023e-08 -1 999 0 \;
;
#X scalar 1786-t-scope -0.666667 -0.666667 -0.333333 -1 999 0 \;;
#X scalar 1785-t-scope -1 -0.666667 -0.666667 -1 999 0 \;;
#X scalar 1784-t-scope 0.666667 -0.333333 1 -0.666667 90 0 \;;
#X scalar 1783-t-scope 0.333333 -0.333333 0.666667 -0.666667 90 0 \;
;
#X scalar 1782-t-scope 0 -0.333333 0.333333 -0.666667 999 0 \;;
#X scalar 1781-t-scope -0.333333 -0.333333 2.98023e-08 -0.666667 999
0 \;;
#X scalar 1780-t-scope -0.666667 -0.333333 -0.333333 -0.666667 999
0 \;;
#X scalar 1779-t-scope -1 -0.333333 -0.666667 -0.666667 999 0 \;;
#X scalar 1778-t-scope 0.666667 -0 1 -0.333333 999 0 \;;
#X scalar 1777-t-scope 0.333333 -0 0.666667 -0.333333 999 0 \;;
#X scalar 1776-t-scope 0 -0 0.333333 -0.333333 999 0 \;;
#X scalar 1775-t-scope -0.333333 -0 2.98023e-08 -0.333333 999 0 \;
;
#X scalar 1774-t-scope -0.666667 -0 -0.333333 -0.333333 999 0 \;;
#X scalar 1773-t-scope -1 -0 -0.666667 -0.333333 999 0 \;;
#X scalar 1772-t-scope 0.666667 0.333333 1 -2.98023e-08 999 0 \;;
#X scalar 1771-t-scope 0.333333 0.333333 0.666667 -2.98023e-08 999
0 \;;
#X scalar 1770-t-scope 0 0.333333 0.333333 -2.98023e-08 999 0 \;;
#X scalar 1769-t-scope -0.333333 0.333333 2.98023e-08 -2.98023e-08
999 0 \;;
#X scalar 1768-t-scope -0.666667 0.333333 -0.333333 -2.98023e-08 999
0 \;;
#X scalar 1767-t-scope -1 0.333333 -0.666667 -2.98023e-08 999 0 \;
;
#X scalar 1766-t-scope 0.666667 0.666667 1 0.333333 999 0 \;;
#X scalar 1765-t-scope 0.333333 0.666667 0.666667 0.333333 999 0 \;
;
#X scalar 1764-t-scope 0 0.666667 0.333333 0.333333 999 0 \;;
#X scalar 1763-t-scope -0.333333 0.666667 2.98023e-08 0.333333 999
0 \;;
#X scalar 1762-t-scope -0.666667 0.666667 -0.333333 0.333333 999 0
\;;
#X scalar 1761-t-scope -1 0.666667 -0.666667 0.333333 999 0 \;;
#X scalar 1760-t-scope 0.666667 1 1 0.666667 999 0 \;;
#X scalar 1759-t-scope 0.333333 1 0.666667 0.666667 999 0 \;;
#X scalar 1758-t-scope 0 1 0.333333 0.666667 999 0 \;;
#X scalar 1757-t-scope -0.333333 1 2.98023e-08 0.666667 999 0 \;;
#X scalar 1756-t-scope -0.666667 1 -0.333333 0.666667 999 0 \;;
#X scalar 1755-t-scope -1 1 -0.666667 0.666667 999 0 \;;
#X coords -1 1 1 -1 153 153 2 100 100;
#X restore 79 363 pd \$0-scope;
#N canvas 0 22 450 300 \$0-meter 0;
#X scalar 1754-t-meter -4.18723e-06 0.75 8 16 24 32 555 90 990 950
900 \;;
#X scalar 1753-t-meter 0.530328 0.530333 8 16 24 32 555 90 990 950
900 \;;
#X scalar 1752-t-meter 0.75 3.34978e-06 8 16 24 32 555 90 990 950 900
\;;
#X scalar 1751-t-meter 0.530332 -0.530328 8 16 24 32 555 90 990 950
900 \;;
#X scalar 1750-t-meter 2.51234e-06 -0.75 8 16 24 32 555 90 990 950
900 \;;
#X scalar 1749-t-meter -0.530329 -0.530332 8 16 24 32 555 90 990 950
900 \;;
#X scalar 1748-t-meter -0.75 -1.67489e-06 8 16 24 32 555 90 990 950
900 \;;
#X scalar 1747-t-meter -0.530331 0.530329 8 16 24 32 555 90 990 950
900 \;;
#X coords -1 1 1 -1 153 153 2 100 100;
#X restore 80 592 pd \$0-meter;
#X obj 4 781 mat.footer;
#X obj 284 728 declare -stdpath spam;
#X obj 5 7 mat.header mat.2d.projector.dbap~;
#X obj 38 318 spam~ 36 mat.2d.syn.brush~ 6 6, f 39;
#X obj 38 556 spam~ 8 mat.2d.meter~ 8 \$0-meter \$0-config, f 39;
#X obj 38 340 spam~ 36 mat.2d.scope~ 6 6 \$0-scope, f 39;
#X text 4 31 The abstraction projects the signals of the cells of a
matrix onto a set of loudspeakers using distance based amplitude panning
(DBAP). The principles of DBAP are explained in the paper by Trond
Lossius \, Pascal Baltazar and Theo de la Hogue at the International
Computer Music Conference (ICMC) - 2009 Montreal. The first arguments
are the dimension of the matrix \, the number of rows and the number
of columns. The third argument is the number of loudspeakers. The last
argument is the name of the text object that defines the positions
of the loudspeakers \, it can also be used to define the rolloff and
the blur values.;
#X obj 38 523 spam~ 36 mat.2d.projector.dbap~ 6 6 8 \$0-config, f
39;
#N canvas 217 367 450 300 pos 0;
#X obj 145 100 nbx 4 14 -1e+37 1e+37 0 0 empty empty empty 0 -8 0 10
-262144 -1 -1 -0.971633 256;
#X obj 100 100 nbx 4 14 -1e+37 1e+37 0 0 empty empty empty 0 -8 0 10
-262144 -1 -1 0.754258 256;
#X obj 119 77 t b f;
#X obj 101 150 pack 1 f;
#X obj 101 18 r \$0-pos;
#X obj 101 40 unpack f f;
#X obj 101 172 outlet;
#X obj 164 19 inlet;
#X connect 0 0 2 0;
#X connect 1 0 3 0;
#X connect 2 0 1 0;
#X connect 2 1 3 1;
#X connect 3 0 6 0;
#X connect 4 0 5 0;
#X connect 5 0 1 0;
#X connect 5 1 0 0;
#X connect 7 0 5 0;
#X coords 0 -1 1 1 90 14 2 100 100;
#X restore 269 298 pd pos;
#X msg 198 281 size \$1;
#X obj 53 232 *~;
#X obj 38 265 *~;
#X obj 65 255 nbx 5 14 0 100 0 0 empty \$0-gain empty 0 -8 0 10 -262144
-1 -1 60 256;
#X obj 38 299 *~, f 5;
#X obj 38 187 noise~;
#N canvas 0 22 450 300 gain 0;
#X obj 10 45 dbtorms;
#X obj 10 67 pack f 20;
#X obj 10 89 line~;
#X obj 10 25 inlet;
#X obj 10 111 outlet~;
#X connect 0 0 1 0;
#X connect 1 0 2 0;
#X connect 2 0 4 0;
#X connect 3 0 0 0;
#X restore 65 275 pd gain;
#X obj 53 210 osc~ 5;
#N canvas 453 135 603 301 init 0;
#X obj 13 42 loadbang;
#X obj 13 86 s \$0-gain;
#X obj 89 42 loadbang;
#X obj 53 201 loadbang;
#X obj 89 87 s \$0-pos;
#X msg 89 64 list 0 0;
#X obj 269 42 loadbang;
#X msg 269 64 list 0 0;
#X obj 269 87 s \$0-coord;
#X obj 132 112 loadbang;
#X msg 132 134 0;
#X obj 132 156 s \$0-hardness;
#X obj 222 112 loadbang;
#X obj 222 156 s \$0-opacity;
#X msg 222 134 100;
#X obj 302 112 loadbang;
#X obj 302 156 s \$0-size;
#X msg 13 64 60;
#X msg 53 223 list 0 1;
#X obj 53 246 s \$0-brush1;
#X obj 184 201 loadbang;
#X obj 364 201 loadbang;
#X obj 364 246 s \$0-brush3;
#X obj 184 246 s \$0-brush2;
#X msg 184 223 list 0.9238 -0.3826;
#X msg 115 224 size 1.6;
#X msg 364 223 list -0.9238 -0.3826;
#X msg 306 224 size 1.7;
#X msg 506 224 size 1.7;
#X msg 302 134 1.7;
#X connect 0 0 17 0;
#X connect 2 0 5 0;
#X connect 3 0 18 0;
#X connect 3 0 25 0;
#X connect 5 0 4 0;
#X connect 6 0 7 0;
#X connect 7 0 8 0;
#X connect 9 0 10 0;
#X connect 10 0 11 0;
#X connect 12 0 14 0;
#X connect 14 0 13 0;
#X connect 15 0 29 0;
#X connect 17 0 1 0;
#X connect 18 0 19 0;
#X connect 20 0 24 0;
#X connect 20 0 27 0;
#X connect 21 0 26 0;
#X connect 21 0 28 0;
#X connect 24 0 23 0;
#X connect 25 0 19 0;
#X connect 26 0 22 0;
#X connect 27 0 23 0;
#X connect 28 0 22 0;
#X connect 29 0 16 0;
#X restore 284 706 pd init;
#X connect 0 0 1 0;
#X connect 1 0 17 0;
#X connect 2 0 18 0;
#X connect 3 0 4 0;
#X connect 4 0 17 0;
#X connect 12 0 14 0;
#X connect 12 0 16 0;
#X connect 12 1 14 1;
#X connect 12 1 16 1;
#X connect 12 2 14 2;
#X connect 12 2 16 2;
#X connect 12 3 14 3;
#X connect 12 3 16 3;
#X connect 12 4 14 4;
#X connect 12 4 16 4;
#X connect 12 5 14 5;
#X connect 12 5 16 5;
#X connect 12 6 14 6;
#X connect 12 6 16 6;
#X connect 12 7 14 7;
#X connect 12 7 16 7;
#X connect 12 8 14 8;
#X connect 12 8 16 8;
#X connect 12 9 14 9;
#X connect 12 9 16 9;
#X connect 12 10 14 10;
#X connect 12 10 16 10;
#X connect 12 11 14 11;
#X connect 12 11 16 11;
#X connect 12 12 14 12;
#X connect 12 12 16 12;
#X connect 12 13 14 13;
#X connect 12 13 16 13;
#X connect 12 14 14 14;
#X connect 12 14 16 14;
#X connect 12 15 14 15;
#X connect 12 15 16 15;
#X connect 12 16 14 16;
#X connect 12 16 16 16;
#X connect 12 17 14 17;
#X connect 12 17 16 17;
#X connect 12 18 14 18;
#X connect 12 18 16 18;
#X connect 12 19 14 19;
#X connect 12 19 16 19;
#X connect 12 20 14 20;
#X connect 12 20 16 20;
#X connect 12 21 14 21;
#X connect 12 21 16 21;
#X connect 12 22 14 22;
#X connect 12 22 16 22;
#X connect 12 23 14 23;
#X connect 12 23 16 23;
#X connect 12 24 14 24;
#X connect 12 24 16 24;
#X connect 12 25 14 25;
#X connect 12 25 16 25;
#X connect 12 26 14 26;
#X connect 12 26 16 26;
#X connect 12 27 14 27;
#X connect 12 27 16 27;
#X connect 12 28 14 28;
#X connect 12 28 16 28;
#X connect 12 29 14 29;
#X connect 12 29 16 29;
#X connect 12 30 14 30;
#X connect 12 30 16 30;
#X connect 12 31 14 31;
#X connect 12 31 16 31;
#X connect 12 32 14 32;
#X connect 12 32 16 32;
#X connect 12 33 14 33;
#X connect 12 33 16 33;
#X connect 12 34 14 34;
#X connect 12 34 16 34;
#X connect 12 35 14 35;
#X connect 12 35 16 35;
#X connect 16 0 6 0;
#X connect 16 0 13 0;
#X connect 16 1 6 1;
#X connect 16 1 13 1;
#X connect 16 2 6 2;
#X connect 16 2 13 2;
#X connect 16 3 6 3;
#X connect 16 3 13 3;
#X connect 16 4 6 4;
#X connect 16 4 13 4;
#X connect 16 5 6 5;
#X connect 16 5 13 5;
#X connect 16 6 6 6;
#X connect 16 6 13 6;
#X connect 16 7 6 7;
#X connect 16 7 13 7;
#X connect 17 0 12 1;
#X connect 18 0 12 1;
#X connect 19 0 20 1;
#X connect 20 0 22 0;
#X connect 21 0 24 0;
#X connect 22 0 12 0;
#X connect 23 0 20 0;
#X connect 24 0 22 1;
#X connect 25 0 19 0;
#X connect 25 0 19 1;
