#N canvas 493 91 547 343 10;
#X obj 20 34 inlet;
#X obj 18 284 pack f f, f 12;
#X obj 18 306 outlet;
#X obj 140 34 inlet;
#X obj 260 34 inlet;
#X obj 87 262 /;
#X obj 18 262 /;
#N canvas 567 145 314 410 compute_d 0;
#X obj 20 242 * 2;
#X obj 20 28 r \$0-ax;
#X obj 35 80 r \$0-by;
#X obj 50 102 r \$0-cy;
#X obj 35 146 -;
#X obj 20 168 *;
#X obj 120 146 -, f 4;
#X obj 105 168 *;
#X obj 105 28 r \$0-bx;
#X obj 120 80 r \$0-cy;
#X obj 135 102 r \$0-ay;
#X obj 135 124 t b f;
#X obj 191 168 *;
#X obj 191 28 r \$0-cx;
#X obj 206 80 r \$0-ay;
#X obj 221 102 r \$0-by;
#X obj 206 126 -;
#X obj 20 50 t f b b, f 29;
#X obj 105 190 +, f 15;
#X obj 20 220 +, f 14;
#X obj 5 304 s \$0-d;
#X obj 5 284 f;
#X obj 5 263 r \$0-compute1;
#X connect 0 0 21 1;
#X connect 1 0 17 0;
#X connect 2 0 4 0;
#X connect 3 0 4 1;
#X connect 4 0 5 1;
#X connect 5 0 19 0;
#X connect 6 0 7 1;
#X connect 7 0 18 0;
#X connect 8 0 7 0;
#X connect 9 0 6 0;
#X connect 10 0 11 0;
#X connect 11 0 6 0;
#X connect 11 1 6 1;
#X connect 12 0 18 1;
#X connect 13 0 12 0;
#X connect 14 0 16 0;
#X connect 15 0 16 1;
#X connect 16 0 12 1;
#X connect 17 0 5 0;
#X connect 17 1 7 0;
#X connect 17 2 12 0;
#X connect 18 0 19 1;
#X connect 19 0 0 0;
#X connect 21 0 20 0;
#X connect 22 0 21 0;
#X restore 422 20 pd compute_d;
#X obj 20 56 unpack f f;
#X obj 140 56 unpack f f;
#X obj 260 56 unpack f f;
#X obj 71 118 s \$0-ax;
#X obj 77 78 s \$0-ay;
#X obj 140 78 s \$0-bx;
#X obj 197 78 s \$0-by;
#X obj 260 78 s \$0-cx;
#X obj 317 78 s \$0-cy;
#X obj 102 241 r \$0-d;
#N canvas 756 70 375 259 compute_abc2 0;
#X obj 20 28 r \$0-ax;
#X obj 20 50 t f f;
#X obj 20 72 *, f 5;
#X obj 77 50 t f f;
#X obj 77 72 *, f 5;
#X obj 20 94 +, f 10;
#X obj 77 28 r \$0-ay;
#X obj 20 194 s \$0-a2;
#X obj 129 50 t f f;
#X obj 129 72 *, f 5;
#X obj 186 50 t f f;
#X obj 186 72 *, f 5;
#X obj 129 94 +, f 10;
#X obj 129 194 s \$0-b2;
#X obj 129 28 r \$0-bx;
#X obj 186 28 r \$0-by;
#X obj 239 50 t f f;
#X obj 239 72 *, f 5;
#X obj 296 50 t f f;
#X obj 296 72 *, f 5;
#X obj 239 94 +, f 10;
#X obj 239 28 r \$0-cx;
#X obj 296 28 r \$0-cy;
#X obj 239 194 s \$0-c2;
#X obj 20 174 f;
#X obj 129 174 f;
#X obj 239 174 f;
#X obj 20 118 r \$0-compute2;
#X obj 20 140 t b b b, f 37;
#X connect 0 0 1 0;
#X connect 1 0 2 0;
#X connect 1 1 2 1;
#X connect 2 0 5 0;
#X connect 3 0 4 0;
#X connect 3 1 4 1;
#X connect 4 0 5 1;
#X connect 5 0 24 1;
#X connect 6 0 3 0;
#X connect 8 0 9 0;
#X connect 8 1 9 1;
#X connect 9 0 12 0;
#X connect 10 0 11 0;
#X connect 10 1 11 1;
#X connect 11 0 12 1;
#X connect 12 0 25 1;
#X connect 14 0 8 0;
#X connect 15 0 10 0;
#X connect 16 0 17 0;
#X connect 16 1 17 1;
#X connect 17 0 20 0;
#X connect 18 0 19 0;
#X connect 18 1 19 1;
#X connect 19 0 20 1;
#X connect 20 0 26 1;
#X connect 21 0 16 0;
#X connect 22 0 18 0;
#X connect 24 0 7 0;
#X connect 25 0 13 0;
#X connect 26 0 23 0;
#X connect 27 0 28 0;
#X connect 28 0 24 0;
#X connect 28 1 25 0;
#X connect 28 2 26 0;
#X restore 422 50 pd compute_abc2;
#X obj 33 241 r \$0-d;
#X obj 20 98 t b b b f;
#X obj 54 139 s \$0-compute1;
#N canvas 489 392 693 327 compute_ux 0;
#X obj 33 184 r \$0-a2;
#X obj 144 184 r \$0-b2;
#X obj 255 184 r \$0-c2;
#X obj 18 206 *;
#X obj 129 206 *;
#X obj 240 206 *;
#X obj 129 228 +, f 19;
#X obj 18 248 +, f 19;
#X obj 18 18 r \$0-by;
#X obj 33 38 r \$0-cy;
#X obj 18 70 -;
#X obj 129 90 -, f 4;
#X obj 129 18 r \$0-cy;
#X obj 144 38 r \$0-ay;
#X obj 144 60 t b f;
#X obj 18 156 f;
#X obj 129 156 f;
#X obj 240 70 -;
#X obj 240 156 f;
#X obj 240 18 r \$0-ay;
#X obj 255 38 r \$0-by;
#X obj 354 184 r \$0-a2;
#X obj 465 184 r \$0-b2;
#X obj 576 184 r \$0-c2;
#X obj 339 206 *;
#X obj 450 206 *;
#X obj 561 206 *;
#X obj 450 228 +, f 19;
#X obj 339 248 +, f 19;
#X obj 339 90 -, f 4;
#X obj 450 90 -;
#X obj 339 156 f;
#X obj 450 156 f;
#X obj 561 90 -, f 5;
#X obj 561 156 f;
#X obj 18 110 r \$0-compute3;
#X obj 18 132 t b b b b b b, f 91;
#X obj 354 60 t b f;
#X obj 450 18 r \$0-ax;
#X obj 465 38 r \$0-cx;
#X obj 339 18 r \$0-cx;
#X obj 354 38 r \$0-bx;
#X obj 561 18 r \$0-bx;
#X obj 576 38 r \$0-ax;
#X obj 576 60 t b f;
#X obj 18 270 s \$0-ux;
#X obj 339 270 s \$0-uy;
#X connect 0 0 3 1;
#X connect 1 0 4 1;
#X connect 2 0 5 1;
#X connect 3 0 7 0;
#X connect 4 0 6 0;
#X connect 5 0 6 1;
#X connect 6 0 7 1;
#X connect 7 0 45 0;
#X connect 8 0 10 0;
#X connect 9 0 10 1;
#X connect 10 0 15 1;
#X connect 11 0 16 1;
#X connect 12 0 11 0;
#X connect 13 0 14 0;
#X connect 14 0 11 0;
#X connect 14 1 11 1;
#X connect 15 0 3 0;
#X connect 16 0 4 0;
#X connect 17 0 18 1;
#X connect 18 0 5 0;
#X connect 19 0 17 0;
#X connect 20 0 17 1;
#X connect 21 0 24 1;
#X connect 22 0 25 1;
#X connect 23 0 26 1;
#X connect 24 0 28 0;
#X connect 25 0 27 0;
#X connect 26 0 27 1;
#X connect 27 0 28 1;
#X connect 28 0 46 0;
#X connect 29 0 31 1;
#X connect 30 0 32 1;
#X connect 31 0 24 0;
#X connect 32 0 25 0;
#X connect 33 0 34 1;
#X connect 34 0 26 0;
#X connect 35 0 36 0;
#X connect 36 0 15 0;
#X connect 36 1 16 0;
#X connect 36 2 18 0;
#X connect 36 3 31 0;
#X connect 36 4 32 0;
#X connect 36 5 34 0;
#X connect 37 0 29 0;
#X connect 37 1 29 1;
#X connect 38 0 30 0;
#X connect 39 0 30 1;
#X connect 40 0 29 0;
#X connect 41 0 37 0;
#X connect 42 0 33 0;
#X connect 43 0 44 0;
#X connect 44 0 33 0;
#X connect 44 1 33 1;
#X restore 422 80 pd compute_ux;
#X obj 37 159 s \$0-compute2;
#X obj 20 180 s \$0-compute3;
#X obj 18 210 r \$0-ux;
#X obj 87 210 r \$0-uy;
#X connect 0 0 8 0;
#X connect 1 0 2 0;
#X connect 3 0 9 0;
#X connect 4 0 10 0;
#X connect 5 0 1 1;
#X connect 6 0 1 0;
#X connect 8 0 20 0;
#X connect 8 1 12 0;
#X connect 9 0 13 0;
#X connect 9 1 14 0;
#X connect 10 0 15 0;
#X connect 10 1 16 0;
#X connect 17 0 5 1;
#X connect 19 0 6 1;
#X connect 20 0 24 0;
#X connect 20 1 23 0;
#X connect 20 2 21 0;
#X connect 20 3 11 0;
#X connect 25 0 6 0;
#X connect 26 0 5 0;
