#N canvas 652 95 867 749 10;
#X obj 12 16 spam.in~;
#X obj 12 293 t f b f, f 15;
#X obj 55 337 -, f 8;
#X obj 12 380 +, f 7;
#X obj 12 315 * 100;
#X obj 55 315 f 9;
#X obj 12 272 int;
#X obj 55 359 * 10;
#X obj 12 402 + 1;
#X obj 12 88 env~;
#X obj 12 250 * 0.09;
#X obj 12 200 clip 0 100;
#X obj 218 141 != 0;
#X obj 191 161 spigot, f 5;
#X obj 191 91 t b b;
#X obj 12 173 spigot, f 11;
#X obj 550 25 loadbang;
#X msg 550 77 symbol channels;
#X obj 550 99 text search \$4;
#X obj 550 121 text get \$4;
#X obj 610 25 bng 15 250 50 0 empty empty empty 17 7 0 10 -262144 -1
-1;
#X obj 550 143 list split 1;
#N canvas 368 171 450 300 l_it2 0;
#X obj 43 180 until;
#X obj 43 201 list append;
#X obj 43 223 list split 2;
#X obj 43 138 / 2;
#X obj 43 160 + 1;
#X obj 43 93 list length;
#N canvas 0 22 256 116 error 0;
#X obj 8 27 % 2;
#X obj 8 49 sel 1;
#X obj 8 6 inlet;
#X msg 8 71 list has an odd number of coordinates;
#X obj 8 93 print mat.2d.dbap warning;
#X connect 0 0 1 0;
#X connect 1 0 3 0;
#X connect 2 0 0 0;
#X connect 3 0 4 0;
#X restore 53 116 pd error;
#X obj 43 59 t l l;
#X obj 43 35 inlet list;
#X obj 43 245 outlet end;
#X obj 113 245 outlet elements;
#X connect 0 0 1 0;
#X connect 1 0 2 0;
#X connect 2 0 10 0;
#X connect 2 1 1 1;
#X connect 2 2 9 0;
#X connect 3 0 4 0;
#X connect 4 0 0 0;
#X connect 5 0 6 0;
#X connect 5 0 3 0;
#X connect 7 0 5 0;
#X connect 7 1 1 1;
#X connect 8 0 7 0;
#X restore 584 166 pd l_it2;
#X obj 677 77 f 0;
#X obj 191 67 bng 15 250 50 0 empty empty empty 17 7 0 10 -262144 -1
-1;
#X obj 218 121 f \$2;
#X obj 211 69 r \$0-draw;
#N canvas 498 34 450 300 \$0-t-meter 0;
#X obj 7 11 struct \$0-t-meter float x1 float y1 float s float c;
#X obj 7 34 filledpolygon c c s x1 y1 x1 y1;
#X restore 161 31 pd \$0-t-meter;
#X obj 324 278 pointer;
#X obj 458 231 f \$1;
#X obj 458 253 sel 0;
#X obj 191 197 t b b b, f 45;
#X msg 458 298 \; pd-\$1 clear;
#X msg 324 254 traverse pd-\$1 \, bang;
#X obj 191 249 list;
#X obj 324 229 symbol \$3;
#X obj 458 274 symbol \$3;
#X obj 212 227 r \$0-pt;
#X obj 629 189 t l b, f 6;
#X obj 629 261 spigot;
#X obj 662 235 == \$1;
#X obj 629 282 s \$0-pt;
#X obj 12 455 set \$0-t-meter c s, f 25;
#X obj 191 300 append \$0-t-meter x1 y1 s c;
#X obj 12 222 t f f, f 11;
#X obj 12 424 pack f f, f 11;
#X obj 550 55 t b b, f 22;
#X obj 584 308 s \$0-draw;
#X obj 662 213 f 0;
#X obj 692 213 + 1;
#X obj 75 381 * 0.2;
#X obj 75 403 + 10;
#X obj 191 271 pack f f 10 90;
#X connect 0 0 9 0;
#X connect 1 0 4 0;
#X connect 1 1 5 0;
#X connect 1 2 2 1;
#X connect 2 0 7 0;
#X connect 3 0 8 0;
#X connect 4 0 3 0;
#X connect 5 0 2 0;
#X connect 6 0 1 0;
#X connect 7 0 3 1;
#X connect 8 0 45 0;
#X connect 9 0 15 0;
#X connect 10 0 6 0;
#X connect 11 0 44 0;
#X connect 12 0 13 1;
#X connect 12 0 15 1;
#X connect 13 0 31 0;
#X connect 14 0 13 0;
#X connect 14 1 25 0;
#X connect 15 0 11 0;
#X connect 16 0 46 0;
#X connect 17 0 18 0;
#X connect 18 0 19 0;
#X connect 19 0 21 0;
#X connect 20 0 46 0;
#X connect 21 1 22 0;
#X connect 22 0 47 0;
#X connect 22 1 38 0;
#X connect 23 0 48 1;
#X connect 24 0 14 0;
#X connect 25 0 12 0;
#X connect 26 0 14 0;
#X connect 28 0 43 4;
#X connect 29 0 30 0;
#X connect 30 0 36 0;
#X connect 31 0 34 0;
#X connect 31 1 35 0;
#X connect 31 2 29 0;
#X connect 33 0 28 0;
#X connect 34 0 52 0;
#X connect 35 0 33 0;
#X connect 36 0 32 0;
#X connect 37 0 34 1;
#X connect 38 0 39 0;
#X connect 38 1 48 0;
#X connect 39 0 41 0;
#X connect 40 0 39 1;
#X connect 43 0 42 2;
#X connect 44 0 10 0;
#X connect 44 1 50 0;
#X connect 45 0 42 0;
#X connect 46 0 17 0;
#X connect 46 1 23 0;
#X connect 48 0 49 0;
#X connect 48 0 40 0;
#X connect 49 0 48 1;
#X connect 50 0 51 0;
#X connect 51 0 45 1;
#X connect 52 0 43 0;
