#N canvas 55 97 1028 649 10;
#X obj 379 94 spam.in~;
#X obj 379 146 s~ \$0-in;
#X obj 374 26 namecanvas \$0-dbap;
#X obj 550 1 loadbang;
#N canvas 0 22 450 300 create_speakers 0;
#X obj 65 113 until;
#N canvas 0 23 413 79 error 0;
#X obj 9 30 print mat.2d.decoder.dbap~ error: needs a positive number
of loudspeakers;
#X obj 9 7 inlet;
#X connect 1 0 0 0;
#X restore 26 91 pd error;
#X obj 26 69 moses 1;
#X obj 65 176 f \$0;
#X obj 65 133 f 0;
#X obj 95 133 + 1;
#X obj 65 155 t b f f, f 16;
#X obj 65 218 pack f f f, f 16;
#X obj 158 176 * 20;
#X obj 158 198 + 10;
#X obj 26 40 r \$0-nspeakers;
#X msg 65 241 \; \$1-dbap obj 10 \$3 tools/mat.2d.speaker~ \$2 \$1-in
\$1-gain-\$2;
#X connect 0 0 4 0;
#X connect 2 0 1 0;
#X connect 2 1 0 0;
#X connect 3 0 7 0;
#X connect 4 0 5 0;
#X connect 4 0 6 0;
#X connect 5 0 4 1;
#X connect 6 0 3 0;
#X connect 6 1 7 1;
#X connect 6 2 8 0;
#X connect 7 0 11 0;
#X connect 8 0 9 0;
#X connect 9 0 7 2;
#X connect 10 0 2 0;
#X restore 379 66 pd create_speakers;
#X obj 550 429 until;
#X obj 550 451 f 0;
#X obj 580 451 + 1;
#X obj 550 523 list split;
#X obj 550 498 list, f 5;
#X obj 550 473 t b f, f 10;
#X obj 578 546 unpack f;
#X obj 578 590 send, f 11;
#X obj 641 520 f \$0;
#X obj 641 542 pack f f;
#X obj 607 495 t f b f, f 12;
#X msg 641 567 symbol \$1-gain-\$2;
#X obj 550 367 t b l b, f 9;
#X obj 601 427 f 0;
#X obj 550 23 t b b, f 15;
#X obj 550 65 f \$1;
#X obj 550 139 t l b b, f 32;
#X obj 565 388 r \$0-nspeakers;
#X obj 550 408 f;
#X obj 550 345 tools/mat.2d.dbap, f 32;
#X obj 550 94 tools/mat.2d.itorc, f 30;
#X obj 550 117 tools/mat.2d.rctocar, f 30;
#X obj 637 50 tools/mat.2d.getdim \$2;
#X obj 739 268 tools/mat.2d.txt.get \$2 mat.dec.rolloff;
#X msg 739 290 rolloff \$1;
#X obj 759 218 tools/mat.2d.txt.get \$2 mat.dec.blur;
#X msg 759 240 blur \$1;
#X obj 769 167 tools/mat.2d.txt.get \$2 mat.dec.nls;
#X obj 769 194 s \$0-nspeakers;
#X obj 644 315 tools/mat.2d.txt.get \$2 mat.dec.positions;
#X connect 0 0 1 0;
#X connect 3 0 19 0;
#X connect 5 0 6 0;
#X connect 6 0 7 0;
#X connect 6 0 10 0;
#X connect 7 0 6 1;
#X connect 8 1 11 0;
#X connect 9 0 8 0;
#X connect 10 0 9 0;
#X connect 10 1 15 0;
#X connect 11 0 12 0;
#X connect 13 0 14 0;
#X connect 14 0 16 0;
#X connect 15 0 8 1;
#X connect 15 1 13 0;
#X connect 15 2 14 1;
#X connect 16 0 12 1;
#X connect 17 0 23 0;
#X connect 17 1 9 1;
#X connect 17 2 18 0;
#X connect 18 0 6 1;
#X connect 19 0 20 0;
#X connect 19 1 27 0;
#X connect 20 0 25 0;
#X connect 21 0 24 0;
#X connect 21 1 34 0;
#X connect 21 2 28 0;
#X connect 21 2 30 0;
#X connect 21 2 32 0;
#X connect 22 0 23 1;
#X connect 23 0 5 0;
#X connect 24 0 17 0;
#X connect 25 0 26 0;
#X connect 26 0 21 0;
#X connect 27 0 25 1;
#X connect 27 0 26 1;
#X connect 28 0 29 0;
#X connect 29 0 24 2;
#X connect 30 0 31 0;
#X connect 31 0 24 2;
#X connect 32 0 33 0;
#X connect 34 0 24 1;
