#N canvas 399 150 133 195 10;
#X obj 11 171 outlet;
#X obj 11 16 inlet;
#X obj 56 16 inlet;
#X obj 11 38 unpack;
#X obj 56 38 unpack;
#X obj 11 82 t f f;
#X obj 11 104 *, f 5;
#X obj 11 126 +, f 10;
#X obj 11 148 sqrt;
#X obj 11 60 - \$1;
#X obj 68 60 - \$2;
#X obj 68 82 t f f;
#X obj 68 104 *, f 5;
#X connect 1 0 3 0;
#X connect 2 0 4 0;
#X connect 3 0 9 0;
#X connect 3 1 10 0;
#X connect 4 0 9 1;
#X connect 4 1 10 1;
#X connect 5 0 6 0;
#X connect 5 1 6 1;
#X connect 6 0 7 0;
#X connect 7 0 8 0;
#X connect 8 0 0 0;
#X connect 9 0 5 0;
#X connect 10 0 11 0;
#X connect 11 0 12 0;
#X connect 11 1 12 1;
#X connect 12 0 7 1;
