#N struct 1124-t-scope float x1 float y1 float x2 float y2 float c1
float c2;
#N struct 1119-t-scope float x1 float y1 float x2 float y2 float c1
float c2;
#N struct 1114-t-scope float x1 float y1 float x2 float y2 float c1
float c2;
#N struct 1109-t-scope float x1 float y1 float x2 float y2 float c1
float c2;
#N struct 1104-t-scope float x1 float y1 float x2 float y2 float c1
float c2;
#N struct 1099-t-scope float x1 float y1 float x2 float y2 float c1
float c2;
#N struct 1094-t-scope float x1 float y1 float x2 float y2 float c1
float c2;
#N struct 1089-t-scope float x1 float y1 float x2 float y2 float c1
float c2;
#N struct 1084-t-scope float x1 float y1 float x2 float y2 float c1
float c2;
#N struct 1079-t-scope float x1 float y1 float x2 float y2 float c1
float c2;
#N struct 1074-t-scope float x1 float y1 float x2 float y2 float c1
float c2;
#N struct 1069-t-scope float x1 float y1 float x2 float y2 float c1
float c2;
#N struct 1064-t-scope float x1 float y1 float x2 float y2 float c1
float c2;
#N struct 1059-t-scope float x1 float y1 float x2 float y2 float c1
float c2;
#N struct 1054-t-scope float x1 float y1 float x2 float y2 float c1
float c2;
#N struct 1049-t-scope float x1 float y1 float x2 float y2 float c1
float c2;
#N struct 1044-t-scope float x1 float y1 float x2 float y2 float c1
float c2;
#N struct 1039-t-scope float x1 float y1 float x2 float y2 float c1
float c2;
#N struct 1034-t-scope float x1 float y1 float x2 float y2 float c1
float c2;
#N struct 1029-t-scope float x1 float y1 float x2 float y2 float c1
float c2;
#N struct 1024-t-scope float x1 float y1 float x2 float y2 float c1
float c2;
#N struct 1019-t-scope float x1 float y1 float x2 float y2 float c1
float c2;
#N struct 1014-t-scope float x1 float y1 float x2 float y2 float c1
float c2;
#N struct 1009-t-scope float x1 float y1 float x2 float y2 float c1
float c2;
#N struct 1004-t-scope float x1 float y1 float x2 float y2 float c1
float c2;
#N canvas 256 42 1094 771 10;
#X declare -stdpath spam;
#N canvas 0 22 223 200 \$0-scope 0;
#X scalar 1124-t-scope 0.6 -0.6 1 -1 950 0 \;;
#X scalar 1119-t-scope 0.2 -0.6 0.6 -1 950 0 \;;
#X scalar 1114-t-scope -0.2 -0.6 0.2 -1 90 0 \;;
#X scalar 1109-t-scope -0.6 -0.6 -0.2 -1 950 0 \;;
#X scalar 1104-t-scope -1 -0.6 -0.6 -1 950 0 \;;
#X scalar 1099-t-scope 0.6 -0.2 1 -0.6 950 0 \;;
#X scalar 1094-t-scope 0.2 -0.2 0.6 -0.6 950 0 \;;
#X scalar 1089-t-scope -0.2 -0.2 0.2 -0.6 990 0 \;;
#X scalar 1084-t-scope -0.6 -0.2 -0.2 -0.6 950 0 \;;
#X scalar 1079-t-scope -1 -0.2 -0.6 -0.6 950 0 \;;
#X scalar 1074-t-scope 0.6 0.2 1 -0.2 950 0 \;;
#X scalar 1069-t-scope 0.2 0.2 0.6 -0.2 950 0 \;;
#X scalar 1064-t-scope -0.2 0.2 0.2 -0.2 90 0 \;;
#X scalar 1059-t-scope -0.6 0.2 -0.2 -0.2 990 0 \;;
#X scalar 1054-t-scope -1 0.2 -0.6 -0.2 90 0 \;;
#X scalar 1049-t-scope 0.6 0.6 1 0.2 990 0 \;;
#X scalar 1044-t-scope 0.2 0.6 0.6 0.2 950 0 \;;
#X scalar 1039-t-scope -0.2 0.6 0.2 0.2 990 0 \;;
#X scalar 1034-t-scope -0.6 0.6 -0.2 0.2 999 0 \;;
#X scalar 1029-t-scope -1 0.6 -0.6 0.2 999 0 \;;
#X scalar 1024-t-scope 0.6 1 1 0.6 90 0 \;;
#X scalar 1019-t-scope 0.2 1 0.6 0.6 950 0 \;;
#X scalar 1014-t-scope -0.2 1 0.2 0.6 90 0 \;;
#X scalar 1009-t-scope -0.6 1 -0.2 0.6 999 0 \;;
#X scalar 1004-t-scope -1 1 -0.6 0.6 999 0 \;;
#X coords -1 1 1 -1 200 200 2 100 100;
#X restore 373 478 pd \$0-scope;
#X obj 324 452 spam~ 25 mat.2d.scope~ \$0-config \$0-scope, f 51;
#X text 4 103 The text object must define the dimensions of the matrix.
;
#X obj 12 138 text define -k \$0-config;
#A set mat.dim 5 5 \; mat.dec.rolloff 8 \; mat.dec.blur 0.1 \; mat.dec.nls
8 \; mat.dec.positions -0.530331 0.530329 -0.75 -1.67489e-06 -0.530329
-0.530332 2.51234e-06 -0.75 0.530332 -0.530328 0.75 3.34978e-06 0.530328
0.530333 -4.18723e-06 0.75 \; mat.scope.gain 150 \;;
#N canvas 453 135 603 301 init 1;
#X obj 13 42 loadbang;
#X obj 13 86 s \$0-gain;
#X obj 89 42 loadbang;
#X obj 53 201 loadbang;
#X obj 89 87 s \$0-pos;
#X msg 89 64 list 0 0;
#X obj 269 42 loadbang;
#X msg 269 64 list 0 0;
#X obj 269 87 s \$0-coord;
#X obj 132 112 loadbang;
#X msg 132 134 0;
#X obj 132 156 s \$0-hardness;
#X obj 222 112 loadbang;
#X obj 222 156 s \$0-opacity;
#X msg 222 134 100;
#X obj 302 112 loadbang;
#X obj 302 156 s \$0-size;
#X msg 13 64 60;
#X msg 53 223 list 0 1;
#X obj 53 246 s \$0-brush1;
#X obj 184 201 loadbang;
#X obj 364 201 loadbang;
#X obj 364 246 s \$0-brush3;
#X obj 184 246 s \$0-brush2;
#X msg 184 223 list 0.9238 -0.3826;
#X msg 115 224 size 1.6;
#X msg 364 223 list -0.9238 -0.3826;
#X msg 306 224 size 1.7;
#X msg 506 224 size 1.7;
#X msg 302 134 1.7;
#X connect 0 0 17 0;
#X connect 2 0 5 0;
#X connect 3 0 18 0;
#X connect 3 0 25 0;
#X connect 5 0 4 0;
#X connect 6 0 7 0;
#X connect 7 0 8 0;
#X connect 9 0 10 0;
#X connect 10 0 11 0;
#X connect 12 0 14 0;
#X connect 14 0 13 0;
#X connect 15 0 29 0;
#X connect 17 0 1 0;
#X connect 18 0 19 0;
#X connect 20 0 24 0;
#X connect 20 0 27 0;
#X connect 21 0 26 0;
#X connect 21 0 28 0;
#X connect 24 0 23 0;
#X connect 25 0 19 0;
#X connect 26 0 22 0;
#X connect 27 0 23 0;
#X connect 28 0 22 0;
#X connect 29 0 16 0;
#X restore 12 158 pd init;
#X obj 14 368 spam~ 25 mat.2d.brush~ \$0-config, f 49;
#X obj 324 685 spam~ 25 mat.2d.dec.dbap~ \$0-config, f 51;
#X obj 324 428 spam~ 25 mat.2d.eraser~ \$0-config, f 51;
#X obj 7 9 declare -stdpath spam;
#X obj 5 7 mat.header mat.2d.eraser~;
#X obj 4 730 mat.footer;
#X obj 658 458 r \$0-eraser;
#X obj 98 171 tgl 15 0 empty \$0-auto empty 17 7 0 10 -262144 -1 -1
0 1;
#X msg 273 276 opacity \$1;
#X obj 273 254 nbx 5 14 0 100 0 0 empty \$0-opacity empty 0 -8 0 10
-262144 -1 -1 100 256;
#X obj 273 171 nbx 5 14 0 100 0 0 empty \$0-hardness empty 0 -8 0 10
-262144 -1 -1 0 256;
#X msg 273 190 hardness \$1;
#X obj 145 256 nbx 5 14 1 10 0 0 empty \$0-size empty 0 -8 0 10 -262144
-1 -1 2 256;
#X msg 145 275 size \$1;
#X obj 147 171 tools/mat.gnbx2 \$0-coord;
#X text 144 237 Size (min 1);
#X text 273 155 Hardness (0 to 100);
#X text 273 235 Opacity (0 to 100);
#X text 144 154 Coordinates (-1 to 1);
#N canvas 0 22 573 343 traj 0;
#X obj 54 191 t f f, f 15;
#X obj 54 279 pack f f, f 15;
#X obj 54 237 * 6.28319;
#X obj 141 237 * 6.28319;
#X obj 54 128 line 0;
#X obj 54 257 sin;
#X obj 141 257 sin;
#X obj 54 215 * 3;
#X obj 141 215 * 1;
#X msg 54 104 \$1 \, 1 10000;
#X obj 54 80 f 0;
#X obj 144 96 sel 1;
#X msg 17 104 stop;
#X obj 17 53 sel 0 1, f 13;
#X obj 144 118 f 0;
#X obj 17 25 inlet;
#X obj 54 301 s \$0-coord;
#X connect 0 0 7 0;
#X connect 0 1 8 0;
#X connect 1 0 16 0;
#X connect 2 0 5 0;
#X connect 3 0 6 0;
#X connect 4 0 0 0;
#X connect 4 0 11 0;
#X connect 5 0 1 0;
#X connect 6 0 1 1;
#X connect 7 0 2 0;
#X connect 8 0 3 0;
#X connect 9 0 4 0;
#X connect 10 0 9 0;
#X connect 11 0 14 0;
#X connect 11 1 10 1;
#X connect 12 0 4 0;
#X connect 13 0 12 0;
#X connect 13 1 10 0;
#X connect 14 0 10 0;
#X connect 15 0 13 0;
#X restore 98 192 pd traj;
#X obj 29 272 *~;
#X obj 14 305 *~;
#X obj 41 295 nbx 5 14 0 100 0 0 empty \$0-gain empty 0 -8 0 10 -262144
-1 -1 60 256;
#X obj 14 339 *~, f 5;
#X obj 14 227 noise~;
#N canvas 0 22 450 300 gain 0;
#X obj 10 45 dbtorms;
#X obj 10 67 pack f 20;
#X obj 10 89 line~;
#X obj 10 25 inlet;
#X obj 10 111 outlet~;
#X connect 0 0 1 0;
#X connect 1 0 2 0;
#X connect 2 0 4 0;
#X connect 3 0 0 0;
#X restore 41 315 pd gain;
#X obj 29 250 osc~ 5;
#X text 4 31 The abstraction decreases the amplitude of a set signals
of a matrix. The idea is to erase local part of the sound space. The
behavior is similar to mat.2d.brush~ except that instead a synthesing
signals \, the abstractions decreases and mutes the signals., f 67
;
#X obj 273 298 s \$0-eraser;
#X obj 273 212 s \$0-eraser;
#X obj 147 212 s \$0-eraser;
#X obj 145 297 s \$0-eraser;
#X obj 324 707 dac~ 1 2 3 4 5 6 7 8, f 51;
#X obj 489 52 bng 15 250 50 0 empty empty empty 17 7 0 10 -262144 -1
-1;
#X obj 489 72 spam.connect;
#X obj 324 368 spam~ 25 mat.2d.brush~ \$0-config, f 49;
#X obj 634 368 spam~ 25 mat.2d.brush~ \$0-config, f 49;
#X obj 557 344 r \$0-brush2;
#X obj 867 344 r \$0-brush3;
#X obj 247 344 r \$0-brush1;
#X obj 419 272 *~;
#X obj 404 305 *~;
#X obj 431 295 nbx 5 14 0 100 0 0 empty \$0-gain empty 0 -8 0 10 -262144
-1 -1 60 256;
#X obj 404 339 *~, f 5;
#N canvas 0 22 450 300 gain 0;
#X obj 10 45 dbtorms;
#X obj 10 67 pack f 20;
#X obj 10 89 line~;
#X obj 10 25 inlet;
#X obj 10 111 outlet~;
#X connect 0 0 1 0;
#X connect 1 0 2 0;
#X connect 2 0 4 0;
#X connect 3 0 0 0;
#X restore 431 315 pd gain;
#X obj 419 250 osc~ 5;
#X obj 649 272 *~;
#X obj 634 305 *~;
#X obj 661 295 nbx 5 14 0 100 0 0 empty \$0-gain empty 0 -8 0 10 -262144
-1 -1 60 256;
#X obj 634 339 *~, f 5;
#N canvas 0 22 450 300 gain 0;
#X obj 10 45 dbtorms;
#X obj 10 67 pack f 20;
#X obj 10 89 line~;
#X obj 10 25 inlet;
#X obj 10 111 outlet~;
#X connect 0 0 1 0;
#X connect 1 0 2 0;
#X connect 2 0 4 0;
#X connect 3 0 0 0;
#X restore 661 315 pd gain;
#X obj 649 250 osc~ 5;
#X msg 370 115 list 0 1;
#X msg 439 116 list 0.9238 -0.3826;
#X msg 564 113 list -0.9238 -0.3826;
#X obj 404 227 phasor~ 220;
#X obj 634 227 phasor~ 356;
#X connect 5 0 7 0;
#X connect 5 1 7 1;
#X connect 5 2 7 2;
#X connect 5 3 7 3;
#X connect 5 4 7 4;
#X connect 5 5 7 5;
#X connect 5 6 7 6;
#X connect 5 7 7 7;
#X connect 5 8 7 8;
#X connect 5 9 7 9;
#X connect 5 10 7 10;
#X connect 5 11 7 11;
#X connect 5 12 7 12;
#X connect 5 13 7 13;
#X connect 5 14 7 14;
#X connect 5 15 7 15;
#X connect 5 16 7 16;
#X connect 5 17 7 17;
#X connect 5 18 7 18;
#X connect 5 19 7 19;
#X connect 5 20 7 20;
#X connect 5 21 7 21;
#X connect 5 22 7 22;
#X connect 5 23 7 23;
#X connect 5 24 7 24;
#X connect 6 0 37 0;
#X connect 6 1 37 1;
#X connect 6 2 37 2;
#X connect 6 3 37 3;
#X connect 6 4 37 4;
#X connect 6 5 37 5;
#X connect 6 6 37 6;
#X connect 6 7 37 7;
#X connect 7 0 1 0;
#X connect 7 0 6 0;
#X connect 7 1 1 1;
#X connect 7 1 6 1;
#X connect 7 2 1 2;
#X connect 7 2 6 2;
#X connect 7 3 1 3;
#X connect 7 3 6 3;
#X connect 7 4 1 4;
#X connect 7 4 6 4;
#X connect 7 5 1 5;
#X connect 7 5 6 5;
#X connect 7 6 1 6;
#X connect 7 6 6 6;
#X connect 7 7 1 7;
#X connect 7 7 6 7;
#X connect 7 8 1 8;
#X connect 7 8 6 8;
#X connect 7 9 1 9;
#X connect 7 9 6 9;
#X connect 7 10 1 10;
#X connect 7 10 6 10;
#X connect 7 11 1 11;
#X connect 7 11 6 11;
#X connect 7 12 1 12;
#X connect 7 12 6 12;
#X connect 7 13 1 13;
#X connect 7 13 6 13;
#X connect 7 14 1 14;
#X connect 7 14 6 14;
#X connect 7 15 1 15;
#X connect 7 15 6 15;
#X connect 7 16 1 16;
#X connect 7 16 6 16;
#X connect 7 17 1 17;
#X connect 7 17 6 17;
#X connect 7 18 1 18;
#X connect 7 18 6 18;
#X connect 7 19 1 19;
#X connect 7 19 6 19;
#X connect 7 20 1 20;
#X connect 7 20 6 20;
#X connect 7 21 1 21;
#X connect 7 21 6 21;
#X connect 7 22 1 22;
#X connect 7 22 6 22;
#X connect 7 23 1 23;
#X connect 7 23 6 23;
#X connect 7 24 1 24;
#X connect 7 24 6 24;
#X connect 11 0 7 25;
#X connect 12 0 24 0;
#X connect 13 0 33 0;
#X connect 14 0 13 0;
#X connect 15 0 16 0;
#X connect 16 0 34 0;
#X connect 17 0 18 0;
#X connect 18 0 36 0;
#X connect 19 0 35 0;
#X connect 25 0 26 1;
#X connect 26 0 28 0;
#X connect 27 0 30 0;
#X connect 28 0 5 0;
#X connect 29 0 26 0;
#X connect 30 0 28 1;
#X connect 31 0 25 0;
#X connect 31 0 25 1;
#X connect 38 0 39 0;
#X connect 40 0 7 0;
#X connect 40 1 7 1;
#X connect 40 2 7 2;
#X connect 40 3 7 3;
#X connect 40 4 7 4;
#X connect 40 5 7 5;
#X connect 40 6 7 6;
#X connect 40 7 7 7;
#X connect 40 8 7 8;
#X connect 40 9 7 9;
#X connect 40 10 7 10;
#X connect 40 11 7 11;
#X connect 40 12 7 12;
#X connect 40 13 7 13;
#X connect 40 14 7 14;
#X connect 40 15 7 15;
#X connect 40 16 7 16;
#X connect 40 17 7 17;
#X connect 40 18 7 18;
#X connect 40 19 7 19;
#X connect 40 20 7 20;
#X connect 40 21 7 21;
#X connect 40 22 7 22;
#X connect 40 23 7 23;
#X connect 40 24 7 24;
#X connect 41 0 7 0;
#X connect 41 1 7 1;
#X connect 41 2 7 2;
#X connect 41 3 7 3;
#X connect 41 4 7 4;
#X connect 41 5 7 5;
#X connect 41 6 7 6;
#X connect 41 7 7 7;
#X connect 41 8 7 8;
#X connect 41 9 7 9;
#X connect 41 10 7 10;
#X connect 41 11 7 11;
#X connect 41 12 7 12;
#X connect 41 13 7 13;
#X connect 41 14 7 14;
#X connect 41 15 7 15;
#X connect 41 16 7 16;
#X connect 41 17 7 17;
#X connect 41 18 7 18;
#X connect 41 19 7 19;
#X connect 41 20 7 20;
#X connect 41 21 7 21;
#X connect 41 22 7 22;
#X connect 41 23 7 23;
#X connect 41 24 7 24;
#X connect 42 0 40 1;
#X connect 43 0 41 1;
#X connect 44 0 5 1;
#X connect 45 0 46 1;
#X connect 46 0 48 0;
#X connect 47 0 49 0;
#X connect 48 0 40 0;
#X connect 49 0 48 1;
#X connect 50 0 45 0;
#X connect 50 0 45 1;
#X connect 51 0 52 1;
#X connect 52 0 54 0;
#X connect 53 0 55 0;
#X connect 54 0 41 0;
#X connect 55 0 54 1;
#X connect 56 0 51 0;
#X connect 56 0 51 1;
#X connect 57 0 19 0;
#X connect 58 0 19 0;
#X connect 59 0 19 0;
#X connect 60 0 46 0;
#X connect 61 0 52 0;
