#N canvas 747 165 626 558 10;
#X obj 19 367 mat.2d.dbap, f 46;
#N canvas 443 106 450 300 header 0;
#X obj 3 3 cnv 18 18 18 empty empty mat.2d.dbap 2 8 0 14 -262144 -66577
0;
#X text 215 4 by Pierre Guillot - 2016;
#X coords 0 -1 1 1 365 20 2 2 2;
#X restore 6 6 pd header;
#X obj 19 295 mat.gnbx2;
#X obj 19 389 list prepend set;
#X msg 155 292 -3.5 -3.5 3.5 -3.5 3.5 3.5 -3.5 3.5, f 11;
#X obj 19 411 list trim;
#X msg 19 433 0.5 0.5 0.5 0.5;
#X obj 19 227 loadbang;
#X obj 19 249 t b b b, f 46;
#X msg 19 271 0 0;
#X msg 292 292 blur 1;
#X msg 312 321 rolloff 4;
#X connect 0 0 3 0;
#X connect 2 0 0 0;
#X connect 3 0 5 0;
#X connect 4 0 0 1;
#X connect 5 0 6 0;
#X connect 7 0 8 0;
#X connect 8 0 9 0;
#X connect 8 1 4 0;
#X connect 8 2 10 0;
#X connect 8 2 11 0;
#X connect 9 0 2 0;
#X connect 10 0 0 2;
#X connect 11 0 0 2;
