#N canvas 116 197 368 611 10;
#X obj 12 524 *~;
#X obj 12 16 spam.in~ 0;
#X obj 12 556 spam.out~;
#X obj 27 163 spam.in 0;
#X obj 27 480 pack f 20;
#X obj 27 502 line~;
#X obj 123 16 loadbang;
#N canvas 0 23 217 290 dist 0;
#X obj 11 256 outlet;
#X obj 11 16 inlet;
#X obj 56 16 inlet;
#X obj 11 38 unpack;
#X obj 56 38 unpack;
#X obj 11 164 t f f;
#X obj 11 186 *, f 5;
#X obj 11 208 +, f 10;
#X obj 11 233 sqrt;
#X obj 68 164 t f f;
#X obj 68 186 *, f 5;
#X obj 11 60 -;
#X obj 68 60 -;
#X obj 149 111 / 2;
#X obj 116 111 / 2;
#X obj 11 142 * 1;
#X obj 68 142 * 1;
#X obj 116 91 - 1;
#X obj 149 91 - 1;
#X obj 116 16 inlet;
#X obj 116 38 unpack;
#X connect 1 0 3 0;
#X connect 2 0 4 0;
#X connect 3 0 11 0;
#X connect 3 1 12 0;
#X connect 4 0 11 1;
#X connect 4 1 12 1;
#X connect 5 0 6 0;
#X connect 5 1 6 1;
#X connect 6 0 7 0;
#X connect 7 0 8 0;
#X connect 8 0 0 0;
#X connect 9 0 10 0;
#X connect 9 1 10 1;
#X connect 10 0 7 1;
#X connect 11 0 15 0;
#X connect 12 0 16 0;
#X connect 13 0 16 1;
#X connect 14 0 15 1;
#X connect 15 0 5 0;
#X connect 16 0 9 0;
#X connect 17 0 14 0;
#X connect 18 0 13 0;
#X connect 19 0 20 0;
#X connect 20 0 17 0;
#X connect 20 1 18 0;
#X restore 27 252 pd dist;
#X obj 27 368 * 3.14129;
#X obj 27 412 + 1;
#X obj 27 346 min 1;
#X obj 27 434 * 0.5;
#X obj 27 390 cos;
#X obj 79 260 max 0.001;
#X obj 27 324 / 1, f 6;
#X obj 27 456 / 1, f 14;
#X msg 123 154 0 0;
#X obj 27 185 route list spread, f 18;
#X obj 79 292 t b f;
#X obj 174 86 text search \$2;
#X msg 174 65 symbol matrix_size;
#X obj 174 108 text get \$2;
#X obj 174 130 list split 1;
#X obj 208 152 unpack f f;
#X obj 123 37 t b b b, f 9;
#X obj 148 226 mat.2d.rctocar;
#X obj 148 203 mat.2d.itorc;
#X obj 148 88 f \$1;
#X connect 0 0 2 0;
#X connect 1 0 0 0;
#X connect 3 0 17 0;
#X connect 4 0 5 0;
#X connect 5 0 0 1;
#X connect 6 0 24 0;
#X connect 7 0 14 0;
#X connect 8 0 12 0;
#X connect 9 0 11 0;
#X connect 10 0 8 0;
#X connect 11 0 15 0;
#X connect 12 0 9 0;
#X connect 13 0 18 0;
#X connect 14 0 10 0;
#X connect 15 0 4 0;
#X connect 16 0 17 0;
#X connect 17 0 7 0;
#X connect 17 1 13 0;
#X connect 18 0 14 0;
#X connect 18 1 14 1;
#X connect 18 1 15 1;
#X connect 19 0 21 0;
#X connect 20 0 19 0;
#X connect 21 0 22 0;
#X connect 22 1 23 0;
#X connect 22 1 7 2;
#X connect 23 0 25 1;
#X connect 23 0 26 1;
#X connect 23 1 25 2;
#X connect 23 1 26 2;
#X connect 24 0 16 0;
#X connect 24 1 27 0;
#X connect 24 2 20 0;
#X connect 25 0 7 1;
#X connect 26 0 25 0;
#X connect 27 0 26 0;
