#N canvas 807 128 251 326 10;
#X obj 13 263 outlet;
#X obj 76 173 -, f 6;
#X obj 109 151 / 2;
#X obj 13 173 -, f 6;
#X obj 46 151 / 2;
#X obj 13 239 pack f f, f 11;
#X obj 13 9 inlet;
#X obj 13 31 unpack f f, f 11;
#X obj 76 52 t f b, f 6;
#X obj 46 129 - 1;
#X obj 109 129 - 1;
#X obj 13 195 /, f 6;
#X obj 76 195 /, f 6;
#X obj 76 217 * -1;
#X obj 95 9 inlet;
#X obj 155 9 inlet;
#X obj 109 107 f;
#X obj 46 107 f;
#X connect 1 0 12 0;
#X connect 2 0 1 1;
#X connect 2 0 12 1;
#X connect 3 0 11 0;
#X connect 4 0 3 1;
#X connect 4 0 11 1;
#X connect 5 0 0 0;
#X connect 6 0 7 0;
#X connect 7 0 3 0;
#X connect 7 1 8 0;
#X connect 8 0 1 0;
#X connect 8 1 16 0;
#X connect 8 1 17 0;
#X connect 9 0 4 0;
#X connect 10 0 2 0;
#X connect 11 0 5 0;
#X connect 12 0 13 0;
#X connect 13 0 5 1;
#X connect 14 0 16 1;
#X connect 15 0 17 1;
#X connect 16 0 10 0;
#X connect 17 0 9 0;
