#N canvas 129 32 499 816 10;
#X obj 12 16 spam.in~ 0;
#X obj 12 767 spam.out~;
#X obj 93 104 spam.in 0;
#X obj 132 61 mat.2d.itorc \$1 \$2 \$3;
#X obj 132 84 mat.2d.rctocar \$2 \$3;
#X obj 93 16 loadbang;
#N canvas 0 22 217 290 dist 0;
#X obj 11 256 outlet;
#X obj 11 16 inlet;
#X obj 56 16 inlet;
#X obj 11 38 unpack;
#X obj 56 38 unpack;
#X obj 11 164 t f f;
#X obj 11 186 *, f 5;
#X obj 11 208 +, f 10;
#X obj 11 233 sqrt;
#X obj 68 164 t f f;
#X obj 68 186 *, f 5;
#X obj 11 60 -;
#X obj 68 60 -;
#X obj 116 47 loadbang;
#X obj 116 69 f \$2;
#X obj 147 69 f \$3;
#X obj 147 111 / 2;
#X obj 116 111 / 2;
#X obj 11 142 * 1;
#X obj 68 142 * 1;
#X obj 116 91 - 1;
#X obj 147 91 - 1;
#X connect 1 0 3 0;
#X connect 2 0 4 0;
#X connect 3 0 11 0;
#X connect 3 1 12 0;
#X connect 4 0 11 1;
#X connect 4 1 12 1;
#X connect 5 0 6 0;
#X connect 5 1 6 1;
#X connect 6 0 7 0;
#X connect 7 0 8 0;
#X connect 8 0 0 0;
#X connect 9 0 10 0;
#X connect 9 1 10 1;
#X connect 10 0 7 1;
#X connect 11 0 18 0;
#X connect 12 0 19 0;
#X connect 13 0 14 0;
#X connect 13 0 15 0;
#X connect 14 0 20 0;
#X connect 15 0 21 0;
#X connect 16 0 19 1;
#X connect 17 0 18 1;
#X connect 18 0 5 0;
#X connect 19 0 9 0;
#X connect 20 0 17 0;
#X connect 21 0 16 0;
#X restore 93 147 pd dist;
#X obj 93 239 * 3.14129;
#X obj 93 283 + 1;
#X obj 93 217 min 1;
#X obj 93 261 cos;
#X obj 142 147 max 0.001;
#X obj 93 195 / 1, f 7;
#X obj 93 38 t b b, f 7;
#X msg 93 60 0 0;
#X msg 46 458 50;
#X obj 285 686 loadbang;
#X obj 285 708 symbol \$4;
#X obj 66 709 *, f 5;
#X obj 66 481 max 0;
#X obj 46 436 loadbang;
#X obj 66 392 spam.in 0;
#X obj 121 709 *, f 5;
#X obj 113 436 loadbang;
#X obj 93 126 route list spread;
#X obj 76 680 t b f;
#X obj 131 525 t b f;
#X obj 93 327 s \$0-d;
#X obj 76 510 r \$0-d;
#X msg 113 458 100;
#X obj 131 504 r \$0-d;
#X obj 131 622 f 1;
#X obj 131 664 -, f 5;
#X obj 131 688 t b f;
#X obj 121 483 max 0;
#N canvas 409 45 386 456 quasi_sync_grain___________________________
0;
#X obj 47 312 line~;
#X obj 2 385 *~, f 17;
#X obj 101 357 *~, f 11;
#X obj 164 306 *~ 513;
#X obj 152 158 phasor~ 1;
#X msg 47 288 \$1 20;
#X obj 164 335 tabread4~;
#X obj 24 237 samphold~;
#X obj 24 123 noise~;
#X obj 24 146 *~ 1;
#X obj 24 167 +~;
#X obj 24 209 +~ 1;
#X obj 24 188 abs~;
#X obj 45 97 * 0.1;
#X obj 101 321 samphold~;
#X obj 101 244 +~ 1;
#X obj 101 270 *~ 0.5;
#X obj 101 222 noise~;
#N canvas 31 229 243 216 delme 0;
#X obj 110 41 +~ 2;
#X obj 7 14 inlet~;
#X obj 110 173 outlet~;
#X obj 159 14 inlet~;
#X obj 110 14 inlet~;
#X obj 144 111 *~;
#X obj 110 41 +~ 2;
#X obj 7 147 delwrite~ \$0-grainbuffer 10000, f 16;
#X obj 110 70 vd~ \$0-grainbuffer;
#X connect 1 0 7 0;
#X connect 3 0 5 1;
#X connect 4 0 6 0;
#X connect 5 0 7 0;
#X connect 6 0 8 0;
#X connect 8 0 5 0;
#X connect 8 0 2 0;
#X restore 2 339 pd delme;
#N canvas 0 50 450 300 >~ 0;
#X obj 67 114 max~ 0;
#X obj 67 175 -~ 0;
#X obj 130 188 /~;
#X obj 130 152 sig~ -1;
#X obj 145 114 -~;
#X obj 67 212 *~;
#X obj 67 17 inlet~;
#X obj 67 252 outlet~;
#X obj 132 15 inlet;
#X connect 0 0 1 0;
#X connect 1 0 5 0;
#X connect 2 0 5 1;
#X connect 3 0 2 0;
#X connect 4 0 2 1;
#X connect 5 0 7 0;
#X connect 6 0 0 0;
#X connect 6 0 4 1;
#X connect 8 0 4 0;
#X connect 8 0 1 1;
#X connect 8 0 0 1;
#X restore 101 299 pd >~ 1;
#X obj 2 13 inlet~;
#X obj 2 420 outlet~;
#X obj 326 70 inlet;
#X obj 293 42 inlet;
#X obj 254 24 inlet;
#X obj 152 18 inlet;
#X obj 209 18 inlet;
#X msg 216 305 set \$1;
#N canvas 0 22 230 332 frequ 0;
#X obj 19 114 random;
#X obj 19 190 +;
#X obj 19 92 metro;
#X obj 19 163 t b f;
#X obj 19 137 * 0.1;
#X obj 18 213 t b f;
#X obj 20 278 /;
#X msg 20 245 1000;
#X obj 112 13 inlet;
#X obj 19 48 loadbang;
#X obj 20 300 outlet;
#X msg 19 70 1;
#X obj 112 35 moses 1;
#X connect 0 0 4 0;
#X connect 1 0 5 0;
#X connect 1 0 6 1;
#X connect 2 0 0 0;
#X connect 3 0 1 0;
#X connect 3 1 1 1;
#X connect 4 0 3 0;
#X connect 5 0 7 0;
#X connect 5 1 6 1;
#X connect 6 0 10 0;
#X connect 7 0 6 0;
#X connect 8 0 1 0;
#X connect 8 0 0 1;
#X connect 8 0 12 0;
#X connect 9 0 11 0;
#X connect 11 0 2 0;
#X connect 12 1 2 1;
#X restore 153 133 pd frequ;
#X obj 47 265 clip 0 0.99;
#X connect 0 0 18 2;
#X connect 1 0 21 0;
#X connect 2 0 1 1;
#X connect 3 0 6 0;
#X connect 4 0 3 0;
#X connect 4 0 7 1;
#X connect 4 0 14 1;
#X connect 5 0 0 0;
#X connect 6 0 2 1;
#X connect 7 0 18 1;
#X connect 8 0 9 0;
#X connect 9 0 10 0;
#X connect 10 0 12 0;
#X connect 11 0 7 0;
#X connect 12 0 11 0;
#X connect 13 0 9 1;
#X connect 14 0 2 0;
#X connect 15 0 16 0;
#X connect 16 0 19 0;
#X connect 17 0 15 0;
#X connect 18 0 1 0;
#X connect 19 0 14 0;
#X connect 20 0 18 0;
#X connect 22 0 27 0;
#X connect 23 0 19 1;
#X connect 24 0 29 0;
#X connect 25 0 28 0;
#X connect 26 0 13 0;
#X connect 26 0 10 1;
#X connect 27 0 6 0;
#X connect 28 0 4 0;
#X connect 29 0 5 0;
#X restore 12 735 pd quasi_sync_grain___________________________;
#X obj 190 456 loadbang;
#X obj 230 706 clip 0 1;
#X obj 142 169 t b f, f 8;
#X obj 93 305 * 0.5;
#X obj 66 414 route size delay feedback;
#X obj 230 524 r \$0-d;
#X obj 230 621 t b f;
#X obj 230 663 f 1;
#X obj 230 685 -, f 5;
#X msg 190 488 0.5;
#X obj 76 660 min 1;
#X obj 76 639 + 0.1;
#X obj 284 26 loadbang;
#X obj 284 48 t b b;
#X obj 311 70 f \$3;
#X obj 284 70 f \$2;
#X obj 284 114 +, f 5;
#X obj 284 136 / 2;
#X obj 76 617 * 5.07;
#X obj 284 92 - 1;
#X obj 311 92 - 1;
#X obj 284 158 t b f;
#X obj 284 180 f 1;
#X obj 284 202 /, f 5;
#X obj 304 224 t b f;
#X obj 304 246 f 1;
#X obj 304 268 -, f 5;
#X obj 284 312 s \$0-add;
#X obj 304 290 s \$0-mul;
#X obj 76 552 *;
#X obj 91 531 r \$0-mul;
#X obj 76 594 +;
#X obj 91 574 r \$0-add;
#X text 288 578 checker ordre des loadbangs;
#X connect 0 0 35 0;
#X connect 2 0 24 0;
#X connect 3 0 4 0;
#X connect 4 0 6 1;
#X connect 5 0 13 0;
#X connect 6 0 12 0;
#X connect 7 0 10 0;
#X connect 8 0 39 0;
#X connect 9 0 7 0;
#X connect 10 0 8 0;
#X connect 11 0 38 0;
#X connect 12 0 9 0;
#X connect 13 0 14 0;
#X connect 13 1 3 0;
#X connect 14 0 24 0;
#X connect 15 0 19 0;
#X connect 16 0 17 0;
#X connect 17 0 35 5;
#X connect 18 0 35 1;
#X connect 19 0 18 0;
#X connect 20 0 15 0;
#X connect 21 0 40 0;
#X connect 22 0 35 2;
#X connect 23 0 29 0;
#X connect 24 0 6 0;
#X connect 24 1 11 0;
#X connect 25 0 18 0;
#X connect 25 1 18 1;
#X connect 26 0 31 0;
#X connect 26 1 32 1;
#X connect 28 0 65 0;
#X connect 29 0 34 0;
#X connect 30 0 26 0;
#X connect 31 0 32 0;
#X connect 32 0 33 0;
#X connect 33 0 22 0;
#X connect 33 1 22 1;
#X connect 34 0 22 0;
#X connect 35 0 1 0;
#X connect 36 0 45 0;
#X connect 37 0 35 4;
#X connect 38 0 12 0;
#X connect 38 1 12 1;
#X connect 39 0 27 0;
#X connect 40 0 19 0;
#X connect 40 1 34 0;
#X connect 40 2 35 3;
#X connect 41 0 42 0;
#X connect 42 0 43 0;
#X connect 42 1 44 1;
#X connect 43 0 44 0;
#X connect 44 0 37 0;
#X connect 45 0 35 3;
#X connect 46 0 25 0;
#X connect 47 0 46 0;
#X connect 48 0 49 0;
#X connect 49 0 51 0;
#X connect 49 1 50 0;
#X connect 50 0 56 0;
#X connect 51 0 55 0;
#X connect 52 0 53 0;
#X connect 53 0 57 0;
#X connect 54 0 47 0;
#X connect 55 0 52 0;
#X connect 56 0 52 1;
#X connect 57 0 58 0;
#X connect 57 1 59 1;
#X connect 58 0 59 0;
#X connect 59 0 60 0;
#X connect 59 0 63 0;
#X connect 60 0 61 0;
#X connect 60 1 62 1;
#X connect 61 0 62 0;
#X connect 62 0 64 0;
#X connect 65 0 67 0;
#X connect 66 0 65 1;
#X connect 67 0 54 0;
#X connect 68 0 67 1;
