#N canvas 376 485 383 173 10;
#N canvas 443 106 450 300 header 0;
#X obj 3 3 cnv 18 18 18 empty empty mat.2d.distance 2 8 0 14 -262144
-66577 0;
#X text 215 4 by Pierre Guillot - 2016;
#X coords 0 -1 1 1 365 20 2 2 2;
#X restore 6 6 pd header;
#X obj 190 100 mat.gnbx2;
#X obj 13 100 mat.gnbx2;
#X obj 101 100 mat.gnbx2;
#X obj 13 124 mat.2d.circumcenter, f 30;
#X obj 13 146 mat.gnbx2;
#X text 4 31 The abstraction computes the center of the circumscribed
circle of a triangle. Each inlet expects the cartesian coordinates
of a vertex of the triangle. The computation is triggered by the left
most inlet.;
#X connect 1 0 4 2;
#X connect 2 0 4 0;
#X connect 3 0 4 1;
#X connect 4 0 5 0;
