#N canvas 673 155 154 257 10;
#X obj 13 219 outlet;
#X obj 46 55 loadbang;
#X obj 76 173 -, f 6;
#X obj 109 129 - 1;
#X obj 109 151 / 2;
#X obj 109 107 f \$1;
#X obj 46 77 t b b, f 11;
#X obj 13 173 -, f 6;
#X obj 46 129 - 1;
#X obj 46 151 / 2;
#X obj 46 107 f \$2;
#X obj 13 195 pack f f, f 11;
#X obj 13 9 inlet;
#X obj 13 31 unpack f f, f 11;
#X connect 1 0 6 0;
#X connect 2 0 11 1;
#X connect 3 0 4 0;
#X connect 4 0 2 1;
#X connect 5 0 3 0;
#X connect 6 0 10 0;
#X connect 6 1 5 0;
#X connect 7 0 11 0;
#X connect 8 0 9 0;
#X connect 9 0 7 1;
#X connect 10 0 8 0;
#X connect 11 0 0 0;
#X connect 12 0 13 0;
#X connect 13 0 7 0;
#X connect 13 1 2 0;
