#N struct 13451-t-scope float x1 float y1 float x2 float y2 float c1
float c2;
#N struct 13447-t-scope float x1 float y1 float x2 float y2 float c1
float c2;
#N struct 13443-t-scope float x1 float y1 float x2 float y2 float c1
float c2;
#N struct 13439-t-scope float x1 float y1 float x2 float y2 float c1
float c2;
#N struct 13435-t-scope float x1 float y1 float x2 float y2 float c1
float c2;
#N struct 13431-t-scope float x1 float y1 float x2 float y2 float c1
float c2;
#N struct 13427-t-scope float x1 float y1 float x2 float y2 float c1
float c2;
#N struct 13423-t-scope float x1 float y1 float x2 float y2 float c1
float c2;
#N struct 13419-t-scope float x1 float y1 float x2 float y2 float c1
float c2;
#N struct 13415-t-scope float x1 float y1 float x2 float y2 float c1
float c2;
#N struct 13411-t-scope float x1 float y1 float x2 float y2 float c1
float c2;
#N struct 13407-t-scope float x1 float y1 float x2 float y2 float c1
float c2;
#N struct 13403-t-scope float x1 float y1 float x2 float y2 float c1
float c2;
#N struct 13399-t-scope float x1 float y1 float x2 float y2 float c1
float c2;
#N struct 13395-t-scope float x1 float y1 float x2 float y2 float c1
float c2;
#N struct 13391-t-scope float x1 float y1 float x2 float y2 float c1
float c2;
#N struct 13387-t-scope float x1 float y1 float x2 float y2 float c1
float c2;
#N struct 13383-t-scope float x1 float y1 float x2 float y2 float c1
float c2;
#N struct 13379-t-scope float x1 float y1 float x2 float y2 float c1
float c2;
#N struct 13375-t-scope float x1 float y1 float x2 float y2 float c1
float c2;
#N struct 13371-t-scope float x1 float y1 float x2 float y2 float c1
float c2;
#N struct 13367-t-scope float x1 float y1 float x2 float y2 float c1
float c2;
#N struct 13363-t-scope float x1 float y1 float x2 float y2 float c1
float c2;
#N struct 13359-t-scope float x1 float y1 float x2 float y2 float c1
float c2;
#N struct 13355-t-scope float x1 float y1 float x2 float y2 float c1
float c2;
#N struct 13351-t-scope float x1 float y1 float x2 float y2 float c1
float c2;
#N struct 13347-t-scope float x1 float y1 float x2 float y2 float c1
float c2;
#N struct 13343-t-scope float x1 float y1 float x2 float y2 float c1
float c2;
#N struct 13339-t-scope float x1 float y1 float x2 float y2 float c1
float c2;
#N struct 13335-t-scope float x1 float y1 float x2 float y2 float c1
float c2;
#N struct 13331-t-scope float x1 float y1 float x2 float y2 float c1
float c2;
#N struct 13327-t-scope float x1 float y1 float x2 float y2 float c1
float c2;
#N struct 13323-t-scope float x1 float y1 float x2 float y2 float c1
float c2;
#N struct 13319-t-scope float x1 float y1 float x2 float y2 float c1
float c2;
#N struct 13315-t-scope float x1 float y1 float x2 float y2 float c1
float c2;
#N struct 13311-t-scope float x1 float y1 float x2 float y2 float c1
float c2;
#N struct 13307-t-meter float x1 float y1 float s1 float s2 float s3
float s4 float c0 float c1 float c2 float c3 float c4;
#N struct 13303-t-meter float x1 float y1 float s1 float s2 float s3
float s4 float c0 float c1 float c2 float c3 float c4;
#N struct 13299-t-meter float x1 float y1 float s1 float s2 float s3
float s4 float c0 float c1 float c2 float c3 float c4;
#N struct 13295-t-meter float x1 float y1 float s1 float s2 float s3
float s4 float c0 float c1 float c2 float c3 float c4;
#N struct 13291-t-meter float x1 float y1 float s1 float s2 float s3
float s4 float c0 float c1 float c2 float c3 float c4;
#N struct 13287-t-meter float x1 float y1 float s1 float s2 float s3
float s4 float c0 float c1 float c2 float c3 float c4;
#N struct 13283-t-meter float x1 float y1 float s1 float s2 float s3
float s4 float c0 float c1 float c2 float c3 float c4;
#N struct 13279-t-meter float x1 float y1 float s1 float s2 float s3
float s4 float c0 float c1 float c2 float c3 float c4;
#N canvas 231 23 399 786 10;
#X obj 269 176 tgl 15 0 empty empty empty 17 7 0 10 -262144 -1 -1 0
1;
#N canvas 0 22 573 343 trajectory 0;
#X obj 54 191 t f f, f 15;
#X obj 54 279 pack f f, f 15;
#X obj 54 237 * 6.28319;
#X obj 141 237 * 6.28319;
#X obj 54 128 line 0;
#X obj 54 257 sin;
#X obj 141 257 sin;
#X obj 54 215 * 3;
#X obj 141 215 * 1;
#X obj 54 80 f 0;
#X obj 144 96 sel 1;
#X obj 54 301 outlet;
#X msg 17 104 stop;
#X obj 17 53 sel 0 1, f 13;
#X obj 144 118 f 0;
#X obj 17 25 inlet;
#X msg 54 104 \$1 \, 1 5000;
#X connect 0 0 7 0;
#X connect 0 1 8 0;
#X connect 1 0 11 0;
#X connect 2 0 5 0;
#X connect 3 0 6 0;
#X connect 4 0 0 0;
#X connect 4 0 10 0;
#X connect 5 0 1 0;
#X connect 6 0 1 1;
#X connect 7 0 2 0;
#X connect 8 0 3 0;
#X connect 9 0 16 0;
#X connect 10 0 14 0;
#X connect 10 1 9 1;
#X connect 12 0 4 0;
#X connect 13 0 12 0;
#X connect 13 1 9 0;
#X connect 14 0 9 0;
#X connect 15 0 13 0;
#X connect 16 0 4 0;
#X restore 269 200 pd trajectory;
#X obj 38 197 noise~;
#X obj 198 192 nbx 5 14 1 1e+37 0 0 empty empty empty 0 -8 0 10 -262144
-1 -1 1 256;
#N canvas 443 106 450 300 header 0;
#X obj 3 3 cnv 18 18 18 empty empty mat.2d.dec.dbap~ 2 8 0 14 -262144
-66577 0;
#X text 215 4 by Pierre Guillot - 2016;
#X coords 0 -1 1 1 365 20 2 2 2;
#X restore 6 6 pd header;
#X obj 291 148 tgl 15 0 empty empty empty 17 7 0 10 -262144 -1 -1 0
1;
#N canvas 0 22 573 343 trajectory 0;
#X obj 54 191 t f f, f 15;
#X obj 54 279 pack f f, f 15;
#X obj 54 237 * 6.28319;
#X obj 141 237 * 6.28319;
#X obj 54 128 line 0;
#X obj 141 257 sin;
#X obj 141 215 * 1;
#X obj 54 80 f 0;
#X obj 144 96 sel 1;
#X obj 54 301 outlet;
#X msg 17 104 stop;
#X obj 17 53 sel 0 1, f 13;
#X obj 144 118 f 0;
#X obj 17 25 inlet;
#X obj 54 215 * 1;
#X obj 54 257 cos;
#X msg 54 104 \$1 \, 1 5000;
#X connect 0 0 14 0;
#X connect 0 1 6 0;
#X connect 1 0 9 0;
#X connect 2 0 15 0;
#X connect 3 0 5 0;
#X connect 4 0 0 0;
#X connect 4 0 8 0;
#X connect 5 0 1 1;
#X connect 6 0 3 0;
#X connect 7 0 16 0;
#X connect 8 0 12 0;
#X connect 8 1 7 1;
#X connect 10 0 4 0;
#X connect 11 0 10 0;
#X connect 11 1 7 0;
#X connect 12 0 7 0;
#X connect 13 0 11 0;
#X connect 14 0 2 0;
#X connect 15 0 1 0;
#X connect 16 0 4 0;
#X restore 291 172 pd trajectory;
#X msg 198 211 spread \$1;
#X obj 39 163 text define -k \$0-config;
#A set mat.dim 6 6 \; mat.dec.nls 8 \; mat.dec.positions -0.530331
0.530329 -0.75 -1.67489e-06 -0.530329 -0.530332 2.51234e-06 -0.75 0.530332
-0.530328 0.75 3.34978e-06 0.530328 0.530333 -4.18723e-06 0.75 \; mat.dec.rolloff
10 \; mat.dec.blur 0.01 \; mat.meter.nls 8 \; mat.meter.positions -0.530331
0.530329 -0.75 -1.67489e-06 -0.530329 -0.530332 2.51234e-06 -0.75 0.530332
-0.530328 0.75 3.34978e-06 0.530328 0.530333 -4.18723e-06 0.75 \; mat.scope.colors
999 90 990 950 900 \;;
#X obj 38 731 dac~ 1 2 3 4 5 6 7 8, f 39;
#X obj 269 226 tools/mat.gnbx2;
#X obj 38 530 spam~ 8 mat.2d.meter~ \$0-config \$0-meter, f 39;
#X obj 38 239 *~ 1;
#X obj 38 292 spam~ 36 mat.2d.scope~ \$0-config \$0-scope, f 39;
#X obj 38 507 spam~ 36 mat.2d.dec.dbap~ \$0-config, f 39;
#N canvas 0 22 223 200 \$0-scope 0;
#X scalar 13451-t-scope 0.666667 -0.666667 1 -1 999 0 \;;
#X scalar 13447-t-scope 0.333333 -0.666667 0.666667 -1 999 0 \;;
#X scalar 13443-t-scope 0 -0.666667 0.333333 -1 999 0 \;;
#X scalar 13439-t-scope -0.333333 -0.666667 2.98023e-08 -1 999 0 \;
;
#X scalar 13435-t-scope -0.666667 -0.666667 -0.333333 -1 999 0 \;;
#X scalar 13431-t-scope -1 -0.666667 -0.666667 -1 999 0 \;;
#X scalar 13427-t-scope 0.666667 -0.333333 1 -0.666667 999 0 \;;
#X scalar 13423-t-scope 0.333333 -0.333333 0.666667 -0.666667 999 0
\;;
#X scalar 13419-t-scope 0 -0.333333 0.333333 -0.666667 999 0 \;;
#X scalar 13415-t-scope -0.333333 -0.333333 2.98023e-08 -0.666667 999
0 \;;
#X scalar 13411-t-scope -0.666667 -0.333333 -0.333333 -0.666667 999
0 \;;
#X scalar 13407-t-scope -1 -0.333333 -0.666667 -0.666667 999 0 \;;
#X scalar 13403-t-scope 0.666667 -0 1 -0.333333 999 0 \;;
#X scalar 13399-t-scope 0.333333 -0 0.666667 -0.333333 999 0 \;;
#X scalar 13395-t-scope 0 -0 0.333333 -0.333333 90 0 \;;
#X scalar 13391-t-scope -0.333333 -0 2.98023e-08 -0.333333 90 0 \;
;
#X scalar 13387-t-scope -0.666667 -0 -0.333333 -0.333333 999 0 \;;
#X scalar 13383-t-scope -1 -0 -0.666667 -0.333333 999 0 \;;
#X scalar 13379-t-scope 0.666667 0.333333 1 -2.98023e-08 999 0 \;;
#X scalar 13375-t-scope 0.333333 0.333333 0.666667 -2.98023e-08 999
0 \;;
#X scalar 13371-t-scope 0 0.333333 0.333333 -2.98023e-08 90 0 \;;
#X scalar 13367-t-scope -0.333333 0.333333 2.98023e-08 -2.98023e-08
90 0 \;;
#X scalar 13363-t-scope -0.666667 0.333333 -0.333333 -2.98023e-08 999
0 \;;
#X scalar 13359-t-scope -1 0.333333 -0.666667 -2.98023e-08 999 0 \;
;
#X scalar 13355-t-scope 0.666667 0.666667 1 0.333333 999 0 \;;
#X scalar 13351-t-scope 0.333333 0.666667 0.666667 0.333333 999 0 \;
;
#X scalar 13347-t-scope 0 0.666667 0.333333 0.333333 999 0 \;;
#X scalar 13343-t-scope -0.333333 0.666667 2.98023e-08 0.333333 999
0 \;;
#X scalar 13339-t-scope -0.666667 0.666667 -0.333333 0.333333 999 0
\;;
#X scalar 13335-t-scope -1 0.666667 -0.666667 0.333333 999 0 \;;
#X scalar 13331-t-scope 0.666667 1 1 0.666667 999 0 \;;
#X scalar 13327-t-scope 0.333333 1 0.666667 0.666667 999 0 \;;
#X scalar 13323-t-scope 0 1 0.333333 0.666667 999 0 \;;
#X scalar 13319-t-scope -0.333333 1 2.98023e-08 0.666667 999 0 \;;
#X scalar 13315-t-scope -0.666667 1 -0.333333 0.666667 999 0 \;;
#X scalar 13311-t-scope -1 1 -0.666667 0.666667 999 0 \;;
#X coords -1 1 1 -1 153 153 2 100 100;
#X restore 79 331 pd \$0-scope;
#N canvas 0 22 450 300 \$0-meter 0;
#X scalar 13307-t-meter -4.18723e-06 0.75 8 16 24 32 555 90 990 950
900 \;;
#X scalar 13303-t-meter 0.530328 0.530333 8 16 24 32 555 90 990 950
900 \;;
#X scalar 13299-t-meter 0.75 3.34978e-06 8 16 24 32 555 90 990 950
900 \;;
#X scalar 13295-t-meter 0.530332 -0.530328 8 16 24 32 555 90 990 950
900 \;;
#X scalar 13291-t-meter 2.51234e-06 -0.75 8 16 24 32 555 90 990 950
900 \;;
#X scalar 13287-t-meter -0.530329 -0.530332 8 16 24 32 555 90 990 950
900 \;;
#X scalar 13283-t-meter -0.75 -1.67489e-06 8 16 24 32 555 90 990 950
900 \;;
#X scalar 13279-t-meter -0.530331 0.530329 8 16 24 32 555 90 990 950
900 \;;
#X coords -1 1 1 -1 153 153 2 100 100;
#X restore 80 566 pd \$0-meter;
#X text 4 31 The abstraction decodes a matrix for a set of loudspeakers
using distance based amplitude panning (DBAP). The principles of DBAP
are explained in the paper by Trond Lossius \, Pascal Baltazar and
Theo de la Hogue at the International Computer Music Conference (ICMC)
- 2009 Montreal. The text object must define the dimensions of the
matrix \, the number of loudspeakers and their relative positions between
on and minus one. It also can be used to define the rolloff and the
blur parameters.;
#X obj 38 258 spam~ 36 mat.2d.brush~ \$0-config, f 39;
#X connect 0 0 1 0;
#X connect 1 0 10 0;
#X connect 2 0 12 0;
#X connect 3 0 7 0;
#X connect 5 0 6 0;
#X connect 6 0 10 0;
#X connect 7 0 18 1;
#X connect 10 0 18 1;
#X connect 12 0 18 0;
#X connect 14 0 11 0;
#X connect 14 0 9 0;
#X connect 14 1 11 1;
#X connect 14 1 9 1;
#X connect 14 2 11 2;
#X connect 14 2 9 2;
#X connect 14 3 11 3;
#X connect 14 3 9 3;
#X connect 14 4 11 4;
#X connect 14 4 9 4;
#X connect 14 5 11 5;
#X connect 14 5 9 5;
#X connect 14 6 11 6;
#X connect 14 6 9 6;
#X connect 14 7 11 7;
#X connect 14 7 9 7;
#X connect 18 0 13 0;
#X connect 18 0 14 0;
#X connect 18 1 13 1;
#X connect 18 1 14 1;
#X connect 18 2 13 2;
#X connect 18 2 14 2;
#X connect 18 3 13 3;
#X connect 18 3 14 3;
#X connect 18 4 13 4;
#X connect 18 4 14 4;
#X connect 18 5 13 5;
#X connect 18 5 14 5;
#X connect 18 6 13 6;
#X connect 18 6 14 6;
#X connect 18 7 13 7;
#X connect 18 7 14 7;
#X connect 18 8 13 8;
#X connect 18 8 14 8;
#X connect 18 9 13 9;
#X connect 18 9 14 9;
#X connect 18 10 13 10;
#X connect 18 10 14 10;
#X connect 18 11 13 11;
#X connect 18 11 14 11;
#X connect 18 12 13 12;
#X connect 18 12 14 12;
#X connect 18 13 13 13;
#X connect 18 13 14 13;
#X connect 18 14 13 14;
#X connect 18 14 14 14;
#X connect 18 15 13 15;
#X connect 18 15 14 15;
#X connect 18 16 13 16;
#X connect 18 16 14 16;
#X connect 18 17 13 17;
#X connect 18 17 14 17;
#X connect 18 18 13 18;
#X connect 18 18 14 18;
#X connect 18 19 13 19;
#X connect 18 19 14 19;
#X connect 18 20 13 20;
#X connect 18 20 14 20;
#X connect 18 21 13 21;
#X connect 18 21 14 21;
#X connect 18 22 13 22;
#X connect 18 22 14 22;
#X connect 18 23 13 23;
#X connect 18 23 14 23;
#X connect 18 24 13 24;
#X connect 18 24 14 24;
#X connect 18 25 13 25;
#X connect 18 25 14 25;
#X connect 18 26 13 26;
#X connect 18 26 14 26;
#X connect 18 27 13 27;
#X connect 18 27 14 27;
#X connect 18 28 13 28;
#X connect 18 28 14 28;
#X connect 18 29 13 29;
#X connect 18 29 14 29;
#X connect 18 30 13 30;
#X connect 18 30 14 30;
#X connect 18 31 13 31;
#X connect 18 31 14 31;
#X connect 18 32 13 32;
#X connect 18 32 14 32;
#X connect 18 33 13 33;
#X connect 18 33 14 33;
#X connect 18 34 13 34;
#X connect 18 34 14 34;
#X connect 18 35 13 35;
#X connect 18 35 14 35;
