#N canvas 399 150 115 294 10;
#X obj 21 27 loadbang;
#X obj 21 49 f \$1;
#X obj 48 115 int;
#X obj 21 71 t f f;
#X obj 48 137 * \$3;
#X obj 21 165 -, f 5;
#X obj 48 93 / \$3;
#X obj 21 217 pack f f;
#X obj 21 242 outlet;
#X obj 21 192 swap, f 8;
#X connect 0 0 1 0;
#X connect 1 0 3 0;
#X connect 2 0 4 0;
#X connect 2 0 9 1;
#X connect 3 0 5 0;
#X connect 3 1 6 0;
#X connect 4 0 5 1;
#X connect 5 0 9 0;
#X connect 6 0 2 0;
#X connect 7 0 8 0;
#X connect 9 0 7 0;
#X connect 9 1 7 1;
