#N canvas 23 168 509 467 10;
#X obj 217 26 inlet~ ordinate;
#X obj 22 343 *~;
#X obj 112 185 -~ 0;
#X obj 217 185 -~ 0;
#X obj 112 217 *~;
#X obj 217 217 *~;
#X obj 112 239 +~, f 18;
#X obj 112 261 sqrt~;
#X obj 37 316 -~, f 13;
#X obj 112 288 min~ 1;
#X obj 37 271 loadbang;
#X obj 37 293 f 1;
#X obj 133 47 loadbang;
#X obj 133 99 f \$4;
#X obj 166 99 f \$2;
#X obj 133 165 -, f 6;
#X obj 166 121 - 1;
#X obj 166 143 / 2;
#X obj 133 69 t b b, f 6;
#X obj 238 47 loadbang;
#X obj 238 165 -, f 6;
#X obj 271 121 - 1;
#X obj 271 143 / 2;
#X obj 238 69 t b b, f 6;
#X obj 238 99 f \$3;
#X obj 271 99 f \$1;
#X obj 22 26 spam.in~ 0;
#X obj 22 435 spam.out~;
#X obj 112 26 spam.in 0;
#X obj 351 21 mat.2d.itorc \$1 \$2 \$3;
#X obj 351 43 unpack f f;
#X obj 316 211 -;
#X obj 316 233 t f f;
#X obj 316 255 *, f 5;
#X connect 0 0 3 0;
#X connect 1 0 27 0;
#X connect 2 0 4 0;
#X connect 2 0 4 1;
#X connect 3 0 5 0;
#X connect 3 0 5 1;
#X connect 4 0 6 0;
#X connect 5 0 6 1;
#X connect 6 0 7 0;
#X connect 7 0 9 0;
#X connect 8 0 1 1;
#X connect 9 0 8 1;
#X connect 10 0 11 0;
#X connect 11 0 8 0;
#X connect 12 0 18 0;
#X connect 13 0 15 0;
#X connect 14 0 16 0;
#X connect 15 0 2 1;
#X connect 16 0 17 0;
#X connect 17 0 15 1;
#X connect 18 0 13 0;
#X connect 18 1 14 0;
#X connect 19 0 23 0;
#X connect 20 0 3 1;
#X connect 21 0 22 0;
#X connect 22 0 20 1;
#X connect 23 0 24 0;
#X connect 23 1 25 0;
#X connect 24 0 20 0;
#X connect 25 0 21 0;
#X connect 26 0 1 0;
#X connect 28 0 2 0;
#X connect 29 0 30 0;
#X connect 31 0 32 0;
#X connect 32 0 33 0;
#X connect 32 1 33 1;
