#N struct 13256-t-scope float x1 float y1 float x2 float y2 float c1
float c2;
#N struct 13255-t-scope float x1 float y1 float x2 float y2 float c1
float c2;
#N struct 13254-t-scope float x1 float y1 float x2 float y2 float c1
float c2;
#N struct 13253-t-scope float x1 float y1 float x2 float y2 float c1
float c2;
#N struct 13252-t-scope float x1 float y1 float x2 float y2 float c1
float c2;
#N struct 13251-t-scope float x1 float y1 float x2 float y2 float c1
float c2;
#N struct 13250-t-scope float x1 float y1 float x2 float y2 float c1
float c2;
#N struct 13249-t-scope float x1 float y1 float x2 float y2 float c1
float c2;
#N struct 13248-t-scope float x1 float y1 float x2 float y2 float c1
float c2;
#N struct 13247-t-scope float x1 float y1 float x2 float y2 float c1
float c2;
#N struct 13246-t-scope float x1 float y1 float x2 float y2 float c1
float c2;
#N struct 13245-t-scope float x1 float y1 float x2 float y2 float c1
float c2;
#N struct 13244-t-scope float x1 float y1 float x2 float y2 float c1
float c2;
#N struct 13243-t-scope float x1 float y1 float x2 float y2 float c1
float c2;
#N struct 13242-t-scope float x1 float y1 float x2 float y2 float c1
float c2;
#N struct 13241-t-scope float x1 float y1 float x2 float y2 float c1
float c2;
#N struct 13240-t-scope float x1 float y1 float x2 float y2 float c1
float c2;
#N struct 13239-t-scope float x1 float y1 float x2 float y2 float c1
float c2;
#N struct 13238-t-scope float x1 float y1 float x2 float y2 float c1
float c2;
#N struct 13237-t-scope float x1 float y1 float x2 float y2 float c1
float c2;
#N struct 13236-t-scope float x1 float y1 float x2 float y2 float c1
float c2;
#N struct 13235-t-scope float x1 float y1 float x2 float y2 float c1
float c2;
#N struct 13234-t-scope float x1 float y1 float x2 float y2 float c1
float c2;
#N struct 13233-t-scope float x1 float y1 float x2 float y2 float c1
float c2;
#N struct 13232-t-scope float x1 float y1 float x2 float y2 float c1
float c2;
#N canvas 256 42 1094 771 10;
#X declare -stdpath spam;
#N canvas 0 22 223 200 \$0-scope 0;
#X scalar 13256-t-scope 0.6 -0.6 1 -1 90 0 \;;
#X scalar 13255-t-scope 0.2 -0.6 0.6 -1 90 0 \;;
#X scalar 13254-t-scope -0.2 -0.6 0.2 -1 999 0 \;;
#X scalar 13253-t-scope -0.6 -0.6 -0.2 -1 90 0 \;;
#X scalar 13252-t-scope -1 -0.6 -0.6 -1 90 0 \;;
#X scalar 13251-t-scope 0.6 -0.2 1 -0.6 90 0 \;;
#X scalar 13250-t-scope 0.2 -0.2 0.6 -0.6 999 0 \;;
#X scalar 13249-t-scope -0.2 -0.2 0.2 -0.6 999 0 \;;
#X scalar 13248-t-scope -0.6 -0.2 -0.2 -0.6 90 0 \;;
#X scalar 13247-t-scope -1 -0.2 -0.6 -0.6 90 0 \;;
#X scalar 13246-t-scope 0.6 0.2 1 -0.2 90 0 \;;
#X scalar 13245-t-scope 0.2 0.2 0.6 -0.2 999 0 \;;
#X scalar 13244-t-scope -0.2 0.2 0.2 -0.2 999 0 \;;
#X scalar 13243-t-scope -0.6 0.2 -0.2 -0.2 999 0 \;;
#X scalar 13242-t-scope -1 0.2 -0.6 -0.2 90 0 \;;
#X scalar 13241-t-scope 0.6 0.6 1 0.2 90 0 \;;
#X scalar 13240-t-scope 0.2 0.6 0.6 0.2 999 0 \;;
#X scalar 13239-t-scope -0.2 0.6 0.2 0.2 999 0 \;;
#X scalar 13238-t-scope -0.6 0.6 -0.2 0.2 999 0 \;;
#X scalar 13237-t-scope -1 0.6 -0.6 0.2 90 0 \;;
#X scalar 13236-t-scope 0.6 1 1 0.6 999 0 \;;
#X scalar 13235-t-scope 0.2 1 0.6 0.6 90 0 \;;
#X scalar 13234-t-scope -0.2 1 0.2 0.6 90 0 \;;
#X scalar 13233-t-scope -0.6 1 -0.2 0.6 90 0 \;;
#X scalar 13232-t-scope -1 1 -0.6 0.6 999 0 \;;
#X coords -1 1 1 -1 200 200 2 100 100;
#X restore 373 478 pd \$0-scope;
#X obj 324 452 spam~ 25 mat.2d.scope~ 5 5 \$0-scope \$0-config, f 51;
#X obj 693 708 text define -k \$0-config;
#A set rolloff 8 \; blur 0.1 \; positions -0.530331 0.530329 -0.75
-1.67489e-06 -0.530329 -0.530332 2.51234e-06 -0.75 0.530332 -0.530328
0.75 3.34978e-06 0.530328 0.530333 -4.18723e-06 0.75 \; gain 150 \;
;
#N canvas 453 135 603 301 init 0;
#X obj 13 42 loadbang;
#X obj 13 86 s \$0-gain;
#X obj 89 42 loadbang;
#X obj 53 201 loadbang;
#X obj 89 87 s \$0-pos;
#X msg 89 64 list 0 0;
#X obj 269 42 loadbang;
#X msg 269 64 list 0 0;
#X obj 269 87 s \$0-coord;
#X obj 132 112 loadbang;
#X msg 132 134 0;
#X obj 132 156 s \$0-hardness;
#X obj 222 112 loadbang;
#X obj 222 156 s \$0-opacity;
#X msg 222 134 100;
#X obj 302 112 loadbang;
#X obj 302 156 s \$0-size;
#X msg 13 64 60;
#X msg 53 223 list 0 1;
#X obj 53 246 s \$0-brush1;
#X obj 184 201 loadbang;
#X obj 364 201 loadbang;
#X obj 364 246 s \$0-brush3;
#X obj 184 246 s \$0-brush2;
#X msg 184 223 list 0.9238 -0.3826;
#X msg 115 224 size 1.6;
#X msg 364 223 list -0.9238 -0.3826;
#X msg 306 224 size 1.7;
#X msg 506 224 size 1.7;
#X msg 302 134 1.7;
#X connect 0 0 17 0;
#X connect 2 0 5 0;
#X connect 3 0 18 0;
#X connect 3 0 25 0;
#X connect 5 0 4 0;
#X connect 6 0 7 0;
#X connect 7 0 8 0;
#X connect 9 0 10 0;
#X connect 10 0 11 0;
#X connect 12 0 14 0;
#X connect 14 0 13 0;
#X connect 15 0 29 0;
#X connect 17 0 1 0;
#X connect 18 0 19 0;
#X connect 20 0 24 0;
#X connect 20 0 27 0;
#X connect 21 0 26 0;
#X connect 21 0 28 0;
#X connect 24 0 23 0;
#X connect 25 0 19 0;
#X connect 26 0 22 0;
#X connect 27 0 23 0;
#X connect 28 0 22 0;
#X connect 29 0 16 0;
#X restore 693 686 pd init;
#X obj 324 685 spam~ 25 mat.2d.projector.dbap~ 5 5 8 \$0-config, f
51;
#X obj 693 729 declare -stdpath spam;
#X obj 5 7 mat.header mat.2d.fx.eraser~;
#X obj 4 730 mat.footer;
#X obj 658 458 r \$0-eraser;
#X obj 27 121 tgl 15 0 empty \$0-auto empty 17 7 0 10 -262144 -1 -1
1 1;
#X msg 436 178 opacity \$1;
#X obj 436 156 nbx 5 14 0 100 0 0 empty \$0-opacity empty 0 -8 0 10
-262144 -1 -1 100 256;
#X obj 303 158 nbx 5 14 0 100 0 0 empty \$0-hardness empty 0 -8 0 10
-262144 -1 -1 0 256;
#X msg 303 177 hardness \$1;
#X obj 185 158 nbx 5 14 1 10 0 0 empty \$0-size empty 0 -8 0 10 -262144
-1 -1 1.7 256;
#X msg 185 177 size \$1;
#X text 184 139 Size (min 1);
#X text 303 138 Hardness (0 to 100);
#X text 436 137 Opacity (0 to 100);
#X text 34 159 Coordinates (-1 to 1);
#N canvas 0 22 573 343 traj 0;
#X obj 54 191 t f f, f 15;
#X obj 54 279 pack f f, f 15;
#X obj 54 237 * 6.28319;
#X obj 141 237 * 6.28319;
#X obj 54 128 line 0;
#X obj 54 257 sin;
#X obj 141 257 sin;
#X obj 54 215 * 3;
#X obj 141 215 * 1;
#X msg 54 104 \$1 \, 1 10000;
#X obj 54 80 f 0;
#X obj 144 96 sel 1;
#X msg 17 104 stop;
#X obj 17 53 sel 0 1, f 13;
#X obj 144 118 f 0;
#X obj 17 25 inlet;
#X obj 54 301 outlet;
#X connect 0 0 7 0;
#X connect 0 1 8 0;
#X connect 1 0 16 0;
#X connect 2 0 5 0;
#X connect 3 0 6 0;
#X connect 4 0 0 0;
#X connect 4 0 11 0;
#X connect 5 0 1 0;
#X connect 6 0 1 1;
#X connect 7 0 2 0;
#X connect 8 0 3 0;
#X connect 9 0 4 0;
#X connect 10 0 9 0;
#X connect 11 0 14 0;
#X connect 11 1 10 1;
#X connect 12 0 4 0;
#X connect 13 0 12 0;
#X connect 13 1 10 0;
#X connect 14 0 10 0;
#X connect 15 0 13 0;
#X restore 27 142 pd traj;
#X obj 29 272 *~;
#X obj 14 305 *~;
#X obj 41 295 nbx 5 14 0 100 0 0 empty \$0-gain empty 0 -8 0 10 -262144
-1 -1 60 256;
#X obj 14 339 *~, f 5;
#X obj 14 227 noise~;
#N canvas 0 22 450 300 gain 0;
#X obj 10 45 dbtorms;
#X obj 10 67 pack f 20;
#X obj 10 89 line~;
#X obj 10 25 inlet;
#X obj 10 111 outlet~;
#X connect 0 0 1 0;
#X connect 1 0 2 0;
#X connect 2 0 4 0;
#X connect 3 0 0 0;
#X restore 41 315 pd gain;
#X obj 29 250 osc~ 5;
#X obj 436 200 s \$0-eraser;
#X obj 303 199 s \$0-eraser;
#X obj 27 199 s \$0-eraser;
#X obj 185 199 s \$0-eraser;
#X obj 324 707 dac~ 1 2 3 4 5 6 7 8, f 51;
#X obj 557 344 r \$0-brush2;
#X obj 867 344 r \$0-brush3;
#X obj 242 344 r \$0-brush1;
#X obj 339 272 *~;
#X obj 324 305 *~;
#X obj 351 295 nbx 5 14 0 100 0 0 empty \$0-gain empty 0 -8 0 10 -262144
-1 -1 60 256;
#X obj 324 339 *~, f 5;
#N canvas 0 22 450 300 gain 0;
#X obj 10 45 dbtorms;
#X obj 10 67 pack f 20;
#X obj 10 89 line~;
#X obj 10 25 inlet;
#X obj 10 111 outlet~;
#X connect 0 0 1 0;
#X connect 1 0 2 0;
#X connect 2 0 4 0;
#X connect 3 0 0 0;
#X restore 351 315 pd gain;
#X obj 339 250 osc~ 5;
#X obj 649 272 *~;
#X obj 634 305 *~;
#X obj 661 295 nbx 5 14 0 100 0 0 empty \$0-gain empty 0 -8 0 10 -262144
-1 -1 60 256;
#X obj 634 339 *~, f 5;
#N canvas 0 22 450 300 gain 0;
#X obj 10 45 dbtorms;
#X obj 10 67 pack f 20;
#X obj 10 89 line~;
#X obj 10 25 inlet;
#X obj 10 111 outlet~;
#X connect 0 0 1 0;
#X connect 1 0 2 0;
#X connect 2 0 4 0;
#X connect 3 0 0 0;
#X restore 661 315 pd gain;
#X obj 649 250 osc~ 5;
#X obj 324 227 phasor~ 220;
#X obj 634 227 phasor~ 356;
#X obj 14 368 spam~ 25 mat.2d.syn.brush~ 5 5, f 49;
#X obj 324 368 spam~ 25 mat.2d.syn.brush~ 5 5, f 49;
#X obj 634 368 spam~ 25 mat.2d.syn.brush~ 5 5, f 49;
#X obj 324 428 spam~ 25 mat.2d.fx.eraser~ 5 5, f 51;
#X text 4 31 The abstraction decreases the amplitude of the signals
of a set of the cells of a matrix. The idea is to erase local part
of the sound space. The behavior is similar to mat.2d.syn.brush~ except
that instead a synthesing signals \, the abstractions decreases and
mutes the signals., f 67;
#N canvas 217 367 450 300 pos 0;
#X obj 145 100 nbx 4 14 -1e+37 1e+37 0 0 empty empty empty 0 -8 0 10
-262144 -1 -1 0.0376881 256;
#X obj 100 100 nbx 4 14 -1e+37 1e+37 0 0 empty empty empty 0 -8 0 10 -262144
-1 -1 0.11285 256;
#X obj 119 77 t b f;
#X obj 101 150 pack 1 f;
#X obj 101 18 r \$0-pos;
#X obj 101 40 unpack f f;
#X obj 101 172 outlet;
#X obj 164 19 inlet;
#X connect 0 0 2 0;
#X connect 1 0 3 0;
#X connect 2 0 1 0;
#X connect 2 1 3 1;
#X connect 3 0 6 0;
#X connect 4 0 5 0;
#X connect 5 0 1 0;
#X connect 5 1 0 0;
#X connect 7 0 5 0;
#X coords 0 -1 1 1 90 14 2 100 100;
#X restore 27 176 pd pos;
#X connect 4 0 32 0;
#X connect 4 1 32 1;
#X connect 4 2 32 2;
#X connect 4 3 32 3;
#X connect 4 4 32 4;
#X connect 4 5 32 5;
#X connect 4 6 32 6;
#X connect 4 7 32 7;
#X connect 8 0 53 25;
#X connect 9 0 20 0;
#X connect 10 0 28 0;
#X connect 11 0 10 0;
#X connect 12 0 13 0;
#X connect 13 0 29 0;
#X connect 14 0 15 0;
#X connect 15 0 31 0;
#X connect 20 0 55 0;
#X connect 21 0 22 1;
#X connect 22 0 24 0;
#X connect 23 0 26 0;
#X connect 24 0 50 0;
#X connect 25 0 22 0;
#X connect 26 0 24 1;
#X connect 27 0 21 0;
#X connect 27 0 21 1;
#X connect 33 0 51 1;
#X connect 34 0 52 1;
#X connect 35 0 50 1;
#X connect 36 0 37 1;
#X connect 37 0 39 0;
#X connect 38 0 40 0;
#X connect 39 0 51 0;
#X connect 40 0 39 1;
#X connect 41 0 36 0;
#X connect 41 0 36 1;
#X connect 42 0 43 1;
#X connect 43 0 45 0;
#X connect 44 0 46 0;
#X connect 45 0 52 0;
#X connect 46 0 45 1;
#X connect 47 0 42 0;
#X connect 47 0 42 1;
#X connect 48 0 37 0;
#X connect 49 0 43 0;
#X connect 50 0 53 0;
#X connect 50 1 53 1;
#X connect 50 2 53 2;
#X connect 50 3 53 3;
#X connect 50 4 53 4;
#X connect 50 5 53 5;
#X connect 50 6 53 6;
#X connect 50 7 53 7;
#X connect 50 8 53 8;
#X connect 50 9 53 9;
#X connect 50 10 53 10;
#X connect 50 11 53 11;
#X connect 50 12 53 12;
#X connect 50 13 53 13;
#X connect 50 14 53 14;
#X connect 50 15 53 15;
#X connect 50 16 53 16;
#X connect 50 17 53 17;
#X connect 50 18 53 18;
#X connect 50 19 53 19;
#X connect 50 20 53 20;
#X connect 50 21 53 21;
#X connect 50 22 53 22;
#X connect 50 23 53 23;
#X connect 50 24 53 24;
#X connect 51 0 53 0;
#X connect 51 1 53 1;
#X connect 51 2 53 2;
#X connect 51 3 53 3;
#X connect 51 4 53 4;
#X connect 51 5 53 5;
#X connect 51 6 53 6;
#X connect 51 7 53 7;
#X connect 51 8 53 8;
#X connect 51 9 53 9;
#X connect 51 10 53 10;
#X connect 51 11 53 11;
#X connect 51 12 53 12;
#X connect 51 13 53 13;
#X connect 51 14 53 14;
#X connect 51 15 53 15;
#X connect 51 16 53 16;
#X connect 51 17 53 17;
#X connect 51 18 53 18;
#X connect 51 19 53 19;
#X connect 51 20 53 20;
#X connect 51 21 53 21;
#X connect 51 22 53 22;
#X connect 51 23 53 23;
#X connect 51 24 53 24;
#X connect 52 0 53 0;
#X connect 52 1 53 1;
#X connect 52 2 53 2;
#X connect 52 3 53 3;
#X connect 52 4 53 4;
#X connect 52 5 53 5;
#X connect 52 6 53 6;
#X connect 52 7 53 7;
#X connect 52 8 53 8;
#X connect 52 9 53 9;
#X connect 52 10 53 10;
#X connect 52 11 53 11;
#X connect 52 12 53 12;
#X connect 52 13 53 13;
#X connect 52 14 53 14;
#X connect 52 15 53 15;
#X connect 52 16 53 16;
#X connect 52 17 53 17;
#X connect 52 18 53 18;
#X connect 52 19 53 19;
#X connect 52 20 53 20;
#X connect 52 21 53 21;
#X connect 52 22 53 22;
#X connect 52 23 53 23;
#X connect 52 24 53 24;
#X connect 53 0 1 0;
#X connect 53 0 4 0;
#X connect 53 1 1 1;
#X connect 53 1 4 1;
#X connect 53 2 1 2;
#X connect 53 2 4 2;
#X connect 53 3 1 3;
#X connect 53 3 4 3;
#X connect 53 4 1 4;
#X connect 53 4 4 4;
#X connect 53 5 1 5;
#X connect 53 5 4 5;
#X connect 53 6 1 6;
#X connect 53 6 4 6;
#X connect 53 7 1 7;
#X connect 53 7 4 7;
#X connect 53 8 1 8;
#X connect 53 8 4 8;
#X connect 53 9 1 9;
#X connect 53 9 4 9;
#X connect 53 10 1 10;
#X connect 53 10 4 10;
#X connect 53 11 1 11;
#X connect 53 11 4 11;
#X connect 53 12 1 12;
#X connect 53 12 4 12;
#X connect 53 13 1 13;
#X connect 53 13 4 13;
#X connect 53 14 1 14;
#X connect 53 14 4 14;
#X connect 53 15 1 15;
#X connect 53 15 4 15;
#X connect 53 16 1 16;
#X connect 53 16 4 16;
#X connect 53 17 1 17;
#X connect 53 17 4 17;
#X connect 53 18 1 18;
#X connect 53 18 4 18;
#X connect 53 19 1 19;
#X connect 53 19 4 19;
#X connect 53 20 1 20;
#X connect 53 20 4 20;
#X connect 53 21 1 21;
#X connect 53 21 4 21;
#X connect 53 22 1 22;
#X connect 53 22 4 22;
#X connect 53 23 1 23;
#X connect 53 23 4 23;
#X connect 53 24 1 24;
#X connect 53 24 4 24;
#X connect 55 0 30 0;
