#N canvas 399 150 226 228 10;
#X obj 11 194 outlet;
#X obj 11 16 inlet;
#X obj 56 16 inlet;
#X obj 11 38 unpack;
#X obj 56 38 unpack;
#X obj 11 82 t f f;
#X obj 11 104 *, f 5;
#X obj 11 126 +, f 10;
#X obj 11 171 sqrt;
#X obj 11 60 - \$1;
#X obj 68 60 - \$2;
#X obj 68 82 t f f;
#X obj 68 104 *, f 5;
#X obj 110 16 inlet;
#X text 144 40 blur;
#X obj 110 83 t f f;
#X obj 110 105 *, f 5;
#X obj 110 38 f \$3;
#X obj 147 16 loadbang;
#X obj 110 60 min 0;
#X obj 11 148 + 0, f 17;
#X connect 1 0 3 0;
#X connect 2 0 4 0;
#X connect 3 0 9 0;
#X connect 3 1 10 0;
#X connect 4 0 9 1;
#X connect 4 1 10 1;
#X connect 5 0 6 0;
#X connect 5 1 6 1;
#X connect 6 0 7 0;
#X connect 7 0 20 0;
#X connect 8 0 0 0;
#X connect 9 0 5 0;
#X connect 10 0 11 0;
#X connect 11 0 12 0;
#X connect 11 1 12 1;
#X connect 12 0 7 1;
#X connect 13 0 17 0;
#X connect 15 0 16 0;
#X connect 15 1 16 1;
#X connect 16 0 20 1;
#X connect 17 0 19 0;
#X connect 18 0 17 0;
#X connect 19 0 15 0;
#X connect 20 0 8 0;
