#N canvas 278 386 271 275 10;
#X obj 12 216 *~;
#X obj 12 16 spam.in~ 0;
#X obj 12 238 spam.out~;
#X obj 27 39 spam.in 0;
#X obj 94 39 mat.2d.itorc \$1 \$2 \$3;
#X obj 94 62 mat.2d.rctocar \$2 \$3;
#X obj 27 84 mat.2d.distance, f 23;
#X obj 27 106 t b f;
#X obj 27 128 f 1;
#X obj 54 128 min 1;
#X obj 27 150 -, f 5;
#X obj 27 172 pack f 20;
#X obj 27 194 line~;
#X obj 94 16 loadbang;
#X connect 0 0 2 0;
#X connect 1 0 0 0;
#X connect 3 0 6 0;
#X connect 4 0 5 0;
#X connect 5 0 6 1;
#X connect 6 0 7 0;
#X connect 7 0 8 0;
#X connect 7 1 9 0;
#X connect 8 0 10 0;
#X connect 9 0 10 1;
#X connect 10 0 11 0;
#X connect 11 0 12 0;
#X connect 12 0 0 1;
#X connect 13 0 4 0;
