#N canvas 82 271 550 396 10;
#X obj 12 16 spam.in~;
#X obj 159 81 loadbang;
#X obj 292 264 pointer;
#X obj 426 217 f \$1;
#X obj 426 239 sel 0;
#X obj 160 54 filledpolygon c1 c2 lw x1 y1 x2 y1 x2 y2 x1 y2 x1 y1
;
#X obj 160 11 struct \$0-t-scope float x1 float y1 float x2 float y2
float c1 float c2 float lw;
#X obj 159 286 append \$0-t-scope c1 c2 lw x1 y1 x2 y2, f 23;
#X obj 12 365 set \$0-t-scope c1, f 25;
#X obj 159 193 t b b b, f 45;
#N canvas 0 22 476 430 compute_bounds 0;
#X obj 236 160 mat.2d.itorc \$1 \$2 \$3;
#X obj 267 112 f 1;
#X obj 300 112 f \$2;
#X obj 267 134 /, f 6;
#X obj 332 112 f 1;
#X obj 332 134 /, f 6;
#X obj 236 90 t b b b b b, f 22;
#X obj 236 69 inlet;
#X obj 236 275 pack f f f f;
#X obj 236 181 unpack f f;
#X obj 236 203 / \$2;
#X obj 293 203 / \$3;
#X obj 236 297 outlet;
#X obj 365 112 f \$3;
#X obj 307 228 +;
#X obj 283 250 +;
#X obj 236 225 t f f;
#X connect 0 0 9 0;
#X connect 1 0 3 0;
#X connect 2 0 3 1;
#X connect 3 0 15 1;
#X connect 4 0 5 0;
#X connect 5 0 14 1;
#X connect 6 0 0 0;
#X connect 6 1 1 0;
#X connect 6 2 2 0;
#X connect 6 3 4 0;
#X connect 6 4 13 0;
#X connect 7 0 6 0;
#X connect 8 0 12 0;
#X connect 9 0 10 0;
#X connect 9 1 11 0;
#X connect 10 0 16 0;
#X connect 11 0 8 1;
#X connect 11 0 14 0;
#X connect 13 0 5 1;
#X connect 14 0 8 3;
#X connect 15 0 8 2;
#X connect 16 0 8 0;
#X connect 16 1 15 0;
#X restore 159 213 pd compute_bounds;
#X obj 426 260 symbol \$4;
#X obj 292 215 symbol \$4;
#X msg 426 284 \; pd-\$1 clear;
#X msg 292 240 traverse pd-\$1 \, bang;
#X obj 12 233 t f b f, f 15;
#X obj 55 277 -, f 8;
#X obj 12 320 +, f 7;
#X obj 12 255 * 100;
#X obj 55 255 f 9;
#X obj 12 212 int;
#X msg 159 235 999 0 1 \$1 \$2 \$3 \$4;
#X obj 55 299 * 10;
#X obj 12 342 + 1;
#X obj 12 88 env~;
#X obj 12 190 * 0.09;
#X obj 12 170 clip 0 100;
#X obj 222 153 != 0;
#X obj 159 173 spigot, f 11;
#X obj 159 103 t b b;
#X obj 12 133 spigot, f 11;
#X obj 222 132 float \$2;
#X connect 0 0 24 0;
#X connect 1 0 29 0;
#X connect 2 0 7 7;
#X connect 3 0 4 0;
#X connect 4 0 11 0;
#X connect 7 0 8 1;
#X connect 9 0 10 0;
#X connect 9 1 12 0;
#X connect 9 2 3 0;
#X connect 10 0 21 0;
#X connect 11 0 13 0;
#X connect 12 0 14 0;
#X connect 14 0 2 0;
#X connect 15 0 18 0;
#X connect 15 1 19 0;
#X connect 15 2 16 1;
#X connect 16 0 22 0;
#X connect 17 0 23 0;
#X connect 18 0 17 0;
#X connect 19 0 16 0;
#X connect 20 0 15 0;
#X connect 21 0 7 0;
#X connect 22 0 17 1;
#X connect 23 0 8 0;
#X connect 24 0 30 0;
#X connect 25 0 20 0;
#X connect 26 0 25 0;
#X connect 27 0 28 1;
#X connect 27 0 30 1;
#X connect 28 0 9 0;
#X connect 29 0 28 0;
#X connect 29 1 31 0;
#X connect 30 0 26 0;
#X connect 31 0 27 0;
