#N struct 1652-t-scope float x1 float y1 float x2 float y2 float c1
float c2;
#N struct 1651-t-scope float x1 float y1 float x2 float y2 float c1
float c2;
#N struct 1650-t-scope float x1 float y1 float x2 float y2 float c1
float c2;
#N struct 1649-t-scope float x1 float y1 float x2 float y2 float c1
float c2;
#N struct 1648-t-scope float x1 float y1 float x2 float y2 float c1
float c2;
#N struct 1647-t-scope float x1 float y1 float x2 float y2 float c1
float c2;
#N struct 1646-t-scope float x1 float y1 float x2 float y2 float c1
float c2;
#N struct 1645-t-scope float x1 float y1 float x2 float y2 float c1
float c2;
#N struct 1644-t-scope float x1 float y1 float x2 float y2 float c1
float c2;
#N struct 1643-t-scope float x1 float y1 float x2 float y2 float c1
float c2;
#N struct 1642-t-scope float x1 float y1 float x2 float y2 float c1
float c2;
#N struct 1641-t-scope float x1 float y1 float x2 float y2 float c1
float c2;
#N struct 1640-t-scope float x1 float y1 float x2 float y2 float c1
float c2;
#N struct 1639-t-scope float x1 float y1 float x2 float y2 float c1
float c2;
#N struct 1638-t-scope float x1 float y1 float x2 float y2 float c1
float c2;
#N struct 1637-t-scope float x1 float y1 float x2 float y2 float c1
float c2;
#N struct 1636-t-scope float x1 float y1 float x2 float y2 float c1
float c2;
#N struct 1635-t-scope float x1 float y1 float x2 float y2 float c1
float c2;
#N struct 1634-t-scope float x1 float y1 float x2 float y2 float c1
float c2;
#N struct 1633-t-scope float x1 float y1 float x2 float y2 float c1
float c2;
#N struct 1632-t-scope float x1 float y1 float x2 float y2 float c1
float c2;
#N struct 1631-t-scope float x1 float y1 float x2 float y2 float c1
float c2;
#N struct 1630-t-scope float x1 float y1 float x2 float y2 float c1
float c2;
#N struct 1629-t-scope float x1 float y1 float x2 float y2 float c1
float c2;
#N struct 1628-t-scope float x1 float y1 float x2 float y2 float c1
float c2;
#N struct 1627-t-scope float x1 float y1 float x2 float y2 float c1
float c2;
#N struct 1626-t-scope float x1 float y1 float x2 float y2 float c1
float c2;
#N struct 1625-t-scope float x1 float y1 float x2 float y2 float c1
float c2;
#N struct 1624-t-scope float x1 float y1 float x2 float y2 float c1
float c2;
#N struct 1623-t-scope float x1 float y1 float x2 float y2 float c1
float c2;
#N struct 1622-t-scope float x1 float y1 float x2 float y2 float c1
float c2;
#N struct 1621-t-scope float x1 float y1 float x2 float y2 float c1
float c2;
#N struct 1620-t-scope float x1 float y1 float x2 float y2 float c1
float c2;
#N struct 1619-t-scope float x1 float y1 float x2 float y2 float c1
float c2;
#N struct 1618-t-scope float x1 float y1 float x2 float y2 float c1
float c2;
#N struct 1617-t-scope float x1 float y1 float x2 float y2 float c1
float c2;
#N struct 1688-t-meter float x1 float y1 float s1 float s2 float s3
float s4 float c0 float c1 float c2 float c3 float c4;
#N struct 1683-t-meter float x1 float y1 float s1 float s2 float s3
float s4 float c0 float c1 float c2 float c3 float c4;
#N struct 1678-t-meter float x1 float y1 float s1 float s2 float s3
float s4 float c0 float c1 float c2 float c3 float c4;
#N struct 1673-t-meter float x1 float y1 float s1 float s2 float s3
float s4 float c0 float c1 float c2 float c3 float c4;
#N struct 1668-t-meter float x1 float y1 float s1 float s2 float s3
float s4 float c0 float c1 float c2 float c3 float c4;
#N struct 1663-t-meter float x1 float y1 float s1 float s2 float s3
float s4 float c0 float c1 float c2 float c3 float c4;
#N struct 1658-t-meter float x1 float y1 float s1 float s2 float s3
float s4 float c0 float c1 float c2 float c3 float c4;
#N struct 1653-t-meter float x1 float y1 float s1 float s2 float s3
float s4 float c0 float c1 float c2 float c3 float c4;
#N canvas 436 23 583 821 10;
#X declare -stdpath spam;
#X obj 228 381 tgl 15 0 empty \$0-auto empty 17 7 0 10 -262144 -1 -1
1 1;
#N canvas 0 22 573 343 trajectory 0;
#X obj 54 191 t f f, f 15;
#X obj 54 279 pack f f, f 15;
#X obj 54 237 * 6.28319;
#X obj 141 237 * 6.28319;
#X obj 54 128 line 0;
#X obj 54 257 sin;
#X obj 141 257 sin;
#X obj 54 215 * 3;
#X obj 141 215 * 1;
#X msg 54 104 \$1 \, 1 10000;
#X obj 54 80 f 0;
#X obj 144 96 sel 1;
#X obj 54 301 outlet;
#X msg 17 104 stop;
#X obj 17 53 sel 0 1, f 13;
#X obj 144 118 f 0;
#X obj 17 25 inlet;
#X connect 0 0 7 0;
#X connect 0 1 8 0;
#X connect 1 0 12 0;
#X connect 2 0 5 0;
#X connect 3 0 6 0;
#X connect 4 0 0 0;
#X connect 4 0 11 0;
#X connect 5 0 1 0;
#X connect 6 0 1 1;
#X connect 7 0 2 0;
#X connect 8 0 3 0;
#X connect 9 0 4 0;
#X connect 10 0 9 0;
#X connect 11 0 15 0;
#X connect 11 1 10 1;
#X connect 13 0 4 0;
#X connect 14 0 13 0;
#X connect 14 1 10 0;
#X connect 15 0 10 0;
#X connect 16 0 14 0;
#X restore 228 402 pd trajectory;
#X obj 77 411 dbtorms;
#X obj 77 391 nbx 5 14 0 100 0 0 empty \$0-gain empty 0 -8 0 10 -262144
-1 -1 60 256;
#X obj 77 433 pack f 20;
#X obj 77 455 line~;
#X obj 14 478 *~, f 11;
#X obj 155 381 tgl 15 0 empty \$0-auto empty 17 7 0 10 -262144 -1 -1
1 1;
#N canvas 0 22 293 454 blurry 0;
#X obj 54 187 * 6.28319;
#X obj 54 128 line 0;
#X obj 54 207 sin;
#X obj 54 80 f 0;
#X obj 144 96 sel 1;
#X obj 54 351 outlet;
#X msg 17 104 stop;
#X obj 17 53 sel 0 1, f 13;
#X obj 144 118 f 0;
#X obj 17 25 inlet;
#X obj 54 229 t f f;
#X obj 54 251 *, f 5;
#X msg 54 104 \$1 \, 1 50000;
#X obj 54 295 - 1;
#X obj 54 273 * 13;
#X obj 54 325 clip 1 10;
#X connect 0 0 2 0;
#X connect 1 0 4 0;
#X connect 1 0 0 0;
#X connect 2 0 10 0;
#X connect 3 0 12 0;
#X connect 4 0 8 0;
#X connect 4 1 3 1;
#X connect 6 0 1 0;
#X connect 7 0 6 0;
#X connect 7 1 3 0;
#X connect 8 0 3 0;
#X connect 9 0 7 0;
#X connect 10 0 11 0;
#X connect 10 1 11 1;
#X connect 11 0 14 0;
#X connect 12 0 1 0;
#X connect 13 0 15 0;
#X connect 14 0 13 0;
#X connect 15 0 5 0;
#X restore 155 402 pd blurry;
#X obj 155 422 nbx 5 14 0.5 100 0 0 empty empty empty 0 -8 0 10 -262144
-1 -1 5.84294 256;
#X obj 9 342 table \$0-grain-env 512, f 14;
#X obj 232 309 nbx 5 14 -1e+37 1e+37 0 0 empty \$0-size empty 0 -8
0 10 -262144 -1 -1 100 256;
#X obj 315 310 nbx 5 14 -1e+37 1e+37 0 0 empty \$0-delay empty 0 -8
0 10 -262144 -1 -1 1000 256;
#X msg 315 328 delay \$1;
#X obj 153 308 nbx 5 14 0 1 0 0 empty \$0-feedback empty 0 -8 0 10
-262144 -1 -1 0.5 256;
#X msg 153 327 feedback \$1;
#N canvas 0 22 223 200 \$0-scope 0;
#X scalar 1652-t-scope 0.666667 -0.666667 1 -1 999 0 \;;
#X scalar 1651-t-scope 0.333333 -0.666667 0.666667 -1 999 0 \;;
#X scalar 1650-t-scope 0 -0.666667 0.333333 -1 999 0 \;;
#X scalar 1649-t-scope -0.333333 -0.666667 2.98023e-08 -1 999 0 \;
;
#X scalar 1648-t-scope -0.666667 -0.666667 -0.333333 -1 999 0 \;;
#X scalar 1647-t-scope -1 -0.666667 -0.666667 -1 999 0 \;;
#X scalar 1646-t-scope 0.666667 -0.333333 1 -0.666667 999 0 \;;
#X scalar 1645-t-scope 0.333333 -0.333333 0.666667 -0.666667 999 0
\;;
#X scalar 1644-t-scope 0 -0.333333 0.333333 -0.666667 999 0 \;;
#X scalar 1643-t-scope -0.333333 -0.333333 2.98023e-08 -0.666667 999
0 \;;
#X scalar 1642-t-scope -0.666667 -0.333333 -0.333333 -0.666667 999
0 \;;
#X scalar 1641-t-scope -1 -0.333333 -0.666667 -0.666667 999 0 \;;
#X scalar 1640-t-scope 0.666667 -0 1 -0.333333 999 0 \;;
#X scalar 1639-t-scope 0.333333 -0 0.666667 -0.333333 999 0 \;;
#X scalar 1638-t-scope 0 -0 0.333333 -0.333333 999 0 \;;
#X scalar 1637-t-scope -0.333333 -0 2.98023e-08 -0.333333 999 0 \;
;
#X scalar 1636-t-scope -0.666667 -0 -0.333333 -0.333333 999 0 \;;
#X scalar 1635-t-scope -1 -0 -0.666667 -0.333333 999 0 \;;
#X scalar 1634-t-scope 0.666667 0.333333 1 -2.98023e-08 999 0 \;;
#X scalar 1633-t-scope 0.333333 0.333333 0.666667 -2.98023e-08 999
0 \;;
#X scalar 1632-t-scope 0 0.333333 0.333333 -2.98023e-08 999 0 \;;
#X scalar 1631-t-scope -0.333333 0.333333 2.98023e-08 -2.98023e-08
999 0 \;;
#X scalar 1630-t-scope -0.666667 0.333333 -0.333333 -2.98023e-08 999
0 \;;
#X scalar 1629-t-scope -1 0.333333 -0.666667 -2.98023e-08 999 0 \;
;
#X scalar 1628-t-scope 0.666667 0.666667 1 0.333333 999 0 \;;
#X scalar 1627-t-scope 0.333333 0.666667 0.666667 0.333333 999 0 \;
;
#X scalar 1626-t-scope 0 0.666667 0.333333 0.333333 999 0 \;;
#X scalar 1625-t-scope -0.333333 0.666667 2.98023e-08 0.333333 999
0 \;;
#X scalar 1624-t-scope -0.666667 0.666667 -0.333333 0.333333 999 0
\;;
#X scalar 1623-t-scope -1 0.666667 -0.666667 0.333333 999 0 \;;
#X scalar 1622-t-scope 0.666667 1 1 0.666667 999 0 \;;
#X scalar 1621-t-scope 0.333333 1 0.666667 0.666667 999 0 \;;
#X scalar 1620-t-scope 0 1 0.333333 0.666667 999 0 \;;
#X scalar 1619-t-scope -0.333333 1 2.98023e-08 0.666667 999 0 \;;
#X scalar 1618-t-scope -0.666667 1 -0.333333 0.666667 999 0 \;;
#X scalar 1617-t-scope -1 1 -0.666667 0.666667 999 0 \;;
#X coords -1 1 1 -1 150 150 2 100 100;
#X restore 16 557 pd \$0-scope;
#X obj 228 422 tools/mat.gnbx2;
#X obj 10 307 text define -k \$0-config;
#A set mat.dim 6 6 \; mat.dec.nls 8 \; mat.dec.positions -0.530331
0.530329 -0.75 -1.67489e-06 -0.530329 -0.530332 2.51234e-06 -0.75 0.530332
-0.530328 0.75 3.34978e-06 0.530328 0.530333 -4.18723e-06 0.75 \; mat.dec.rolloff
40 \; mat.dec.blur 0.0001 \; mat.meter.nls 8 \; mat.meter.positions
-0.530331 0.530329 -0.75 -1.67489e-06 -0.530329 -0.530332 2.51234e-06
-0.75 0.530332 -0.530328 0.75 3.34978e-06 0.530328 0.530333 -4.18723e-06
0.75 \;;
#X f 14;
#X obj 14 756 dac~ 1 2 3 4 5 6 7 8, f 56;
#X obj 14 714 spam~ 36 mat.2d.dec.dbap~ \$0-config, f 56;
#X obj 14 532 spam~ 36 mat.2d.scope~ 6 6 \$0-scope, f 56;
#X obj 14 735 spam~ 8 mat.2d.meter~ \$0-config \$0-meter, f 56;
#N canvas 0 22 450 300 \$0-meter 0;
#X scalar 1688-t-meter -4.18723e-06 0.75 8 16 24 32 555 90 990 950
900 \;;
#X scalar 1683-t-meter 0.530328 0.530333 8 16 24 32 555 90 990 950
900 \;;
#X scalar 1678-t-meter 0.75 3.34978e-06 8 16 24 32 555 90 990 950 900
\;;
#X scalar 1673-t-meter 0.530332 -0.530328 8 16 24 32 555 90 990 950
900 \;;
#X scalar 1668-t-meter 2.51234e-06 -0.75 8 16 24 32 555 90 990 950
900 \;;
#X scalar 1663-t-meter -0.530329 -0.530332 8 16 24 32 555 90 990 950
900 \;;
#X scalar 1658-t-meter -0.75 -1.67489e-06 8 16 24 32 555 90 990 950
900 \;;
#X scalar 1653-t-meter -0.530331 0.530329 8 16 24 32 555 90 990 950
900 \;;
#X coords -1 1 1 -1 153 153 2 100 100;
#X restore 201 557 pd \$0-meter;
#X obj 228 463 s \$0-qsgs;
#X obj 155 463 s \$0-qsgs;
#X obj 296 487 r \$0-qsgs;
#N canvas 0 22 450 300 init 0;
#N canvas 237 132 503 391 grain_env 0;
#X obj 270 148 / 256;
#X obj 270 247 * 0.5;
#X obj 270 219 sin;
#X obj 270 271 + 0.5;
#X obj 270 120 t f f;
#X obj 270 299 pack;
#X obj 270 169 - 0.5;
#X obj 271 32 t b b;
#X obj 270 76 until;
#X obj 270 97 f;
#X obj 297 98 + 1;
#X msg 270 55 512;
#X obj 271 8 loadbang;
#X obj 270 193 * 3.14159;
#X obj 310 55 f 0;
#X obj 335 11 bng 15 250 50 0 empty empty empty 17 7 0 10 -262144 -1
-1;
#X obj 270 323 tabwrite \$0-grain-env;
#X connect 0 0 6 0;
#X connect 1 0 3 0;
#X connect 2 0 1 0;
#X connect 3 0 5 0;
#X connect 4 0 0 0;
#X connect 4 1 5 1;
#X connect 5 0 16 0;
#X connect 6 0 13 0;
#X connect 7 0 11 0;
#X connect 7 0 14 0;
#X connect 8 0 9 0;
#X connect 9 0 10 0;
#X connect 9 0 4 0;
#X connect 10 0 9 1;
#X connect 11 0 8 0;
#X connect 12 0 7 0;
#X connect 13 0 2 0;
#X connect 14 0 9 1;
#X connect 15 0 7 0;
#X restore 5 12 pd grain_env;
#X obj 13 42 loadbang;
#X obj 13 86 s \$0-gain;
#X obj 93 42 loadbang;
#X msg 93 64 100;
#X obj 93 87 s \$0-size;
#X obj 173 42 loadbang;
#X obj 173 87 s \$0-delay;
#X msg 173 64 1000;
#X obj 253 42 loadbang;
#X obj 253 87 s \$0-feedback;
#X msg 253 64 0.5;
#X obj 353 42 loadbang;
#X msg 353 64 1;
#X obj 353 87 s \$0-auto;
#X msg 13 64 60;
#X connect 1 0 15 0;
#X connect 3 0 4 0;
#X connect 4 0 5 0;
#X connect 6 0 8 0;
#X connect 8 0 7 0;
#X connect 9 0 11 0;
#X connect 11 0 10 0;
#X connect 12 0 13 0;
#X connect 13 0 14 0;
#X connect 15 0 2 0;
#X restore 9 394 pd init;
#X obj 153 349 s \$0-qsgs;
#X obj 315 350 s \$0-qsgs;
#X obj 232 349 s \$0-qsgs;
#X obj 6 781 mat.footer;
#X obj 364 754 declare -stdpath spam;
#X obj 5 5 mat.header mat.2d.syn.spray~;
#X msg 232 327 grainsize \$1;
#X msg 155 441 size \$1;
#X obj 14 450 noise~;
#X obj 14 509 spam~ 36 mat.2d.syn.spray~ 6 6 \$0-grain-env, f 56;
#X text 4 30 The abstraction synthesizes the signals of the cells of
a matrix for a sound source using a quasi-synchronous granular synthesizer
(QSGS). The idea is to create a spatial spray effect. In this implementation
\, the QSGS has four parameters \, the grain size \, the delay time
\, the feedback and the rarefaction. The scaling of this parameters
depends on the encoding coordinates and the size of the spray. With
the default size \, the grain are concentrated around the encoding
coordinates because the rarefaction of the cells that are distant from
these coordinate is maximum. While the size increases \, the rarefaction
of these cells decreases and the grains are spread over the space.
Furthermore \, the size of the grain decreases and the delay time increases
with the distance. Thus if the spray size is relatively important \,
the main grains appear first around the encoding coordinates and are
spread thereafter into smaller grains around the space. Only the feedback
value is global to all the cells.;
#X text 4 258 The arguments are the dimensions of the matrix \, the
number of rows and the number of columns. The third argument is the
name of the buffer that defines the enveloppe of the grains.;
#X connect 0 0 1 0;
#X connect 1 0 17 0;
#X connect 2 0 4 0;
#X connect 3 0 2 0;
#X connect 4 0 5 0;
#X connect 5 0 6 1;
#X connect 6 0 37 0;
#X connect 7 0 8 0;
#X connect 8 0 9 0;
#X connect 9 0 35 0;
#X connect 11 0 34 0;
#X connect 12 0 13 0;
#X connect 13 0 29 0;
#X connect 14 0 15 0;
#X connect 15 0 28 0;
#X connect 17 0 24 0;
#X connect 20 0 19 0;
#X connect 20 0 22 0;
#X connect 20 1 19 1;
#X connect 20 1 22 1;
#X connect 20 2 19 2;
#X connect 20 2 22 2;
#X connect 20 3 19 3;
#X connect 20 3 22 3;
#X connect 20 4 19 4;
#X connect 20 4 22 4;
#X connect 20 5 19 5;
#X connect 20 5 22 5;
#X connect 20 6 19 6;
#X connect 20 6 22 6;
#X connect 20 7 19 7;
#X connect 20 7 22 7;
#X connect 26 0 37 1;
#X connect 34 0 30 0;
#X connect 35 0 25 0;
#X connect 36 0 6 0;
#X connect 37 0 21 0;
#X connect 37 0 20 0;
#X connect 37 1 21 1;
#X connect 37 1 20 1;
#X connect 37 2 21 2;
#X connect 37 2 20 2;
#X connect 37 3 21 3;
#X connect 37 3 20 3;
#X connect 37 4 21 4;
#X connect 37 4 20 4;
#X connect 37 5 21 5;
#X connect 37 5 20 5;
#X connect 37 6 21 6;
#X connect 37 6 20 6;
#X connect 37 7 21 7;
#X connect 37 7 20 7;
#X connect 37 8 21 8;
#X connect 37 8 20 8;
#X connect 37 9 21 9;
#X connect 37 9 20 9;
#X connect 37 10 21 10;
#X connect 37 10 20 10;
#X connect 37 11 21 11;
#X connect 37 11 20 11;
#X connect 37 12 21 12;
#X connect 37 12 20 12;
#X connect 37 13 21 13;
#X connect 37 13 20 13;
#X connect 37 14 21 14;
#X connect 37 14 20 14;
#X connect 37 15 21 15;
#X connect 37 15 20 15;
#X connect 37 16 21 16;
#X connect 37 16 20 16;
#X connect 37 17 21 17;
#X connect 37 17 20 17;
#X connect 37 18 21 18;
#X connect 37 18 20 18;
#X connect 37 19 21 19;
#X connect 37 19 20 19;
#X connect 37 20 21 20;
#X connect 37 20 20 20;
#X connect 37 21 21 21;
#X connect 37 21 20 21;
#X connect 37 22 21 22;
#X connect 37 22 20 22;
#X connect 37 23 21 23;
#X connect 37 23 20 23;
#X connect 37 24 21 24;
#X connect 37 24 20 24;
#X connect 37 25 21 25;
#X connect 37 25 20 25;
#X connect 37 26 21 26;
#X connect 37 26 20 26;
#X connect 37 27 21 27;
#X connect 37 27 20 27;
#X connect 37 28 21 28;
#X connect 37 28 20 28;
#X connect 37 29 21 29;
#X connect 37 29 20 29;
#X connect 37 30 21 30;
#X connect 37 30 20 30;
#X connect 37 31 21 31;
#X connect 37 31 20 31;
#X connect 37 32 21 32;
#X connect 37 32 20 32;
#X connect 37 33 21 33;
#X connect 37 33 20 33;
#X connect 37 34 21 34;
#X connect 37 34 20 34;
#X connect 37 35 21 35;
#X connect 37 35 20 35;
#X coords 0 821 1 820 85 60 0;
