#N canvas 200 88 1028 649 10;
#X obj 379 94 spam.in~;
#X obj 379 146 s~ \$0-in;
#X obj 374 26 namecanvas \$0-dbap;
#X obj 550 1 loadbang;
#N canvas 0 22 450 300 create_speakers 0;
#X obj 65 113 until;
#X obj 65 176 f \$0;
#X obj 65 133 f 0;
#X obj 95 133 + 1;
#X obj 65 155 t b f f, f 16;
#X obj 65 218 pack f f f, f 16;
#X obj 158 176 * 20;
#X obj 158 198 + 10;
#X msg 65 241 \; \$1-dbap obj 10 \$3 tools/mat.2d.speaker~ \$2 \$1-in
\$1-gain-\$2;
#X obj 65 82 f \$4;
#X obj 65 60 inlet;
#X connect 0 0 2 0;
#X connect 1 0 5 0;
#X connect 2 0 3 0;
#X connect 2 0 4 0;
#X connect 3 0 2 1;
#X connect 4 0 1 0;
#X connect 4 1 5 1;
#X connect 4 2 6 0;
#X connect 5 0 8 0;
#X connect 6 0 7 0;
#X connect 7 0 5 2;
#X connect 9 0 0 0;
#X connect 10 0 9 0;
#X restore 679 49 pd create_speakers;
#X obj 550 389 until;
#X obj 550 411 f 0;
#X obj 580 411 + 1;
#X obj 550 483 list split;
#X obj 550 458 list, f 5;
#X obj 550 433 t b f, f 10;
#X obj 578 506 unpack f;
#X obj 578 550 send, f 11;
#X obj 641 480 f \$0;
#X obj 641 502 pack f f;
#X obj 607 455 t f b f, f 12;
#X msg 641 527 symbol \$1-gain-\$2;
#X obj 550 347 t b l b, f 9;
#X obj 601 387 f 0;
#X obj 550 45 f \$1;
#X obj 550 169 t l b b, f 32;
#X obj 550 325 tools/mat.2d.dbap, f 32;
#X msg 739 270 rolloff \$1;
#X msg 759 220 blur \$1;
#N canvas 0 22 462 343 itorc 0;
#X obj 48 115 int;
#X obj 21 51 t f f;
#X obj 21 165 -, f 5;
#X obj 21 247 pack f f;
#X obj 21 272 outlet;
#X obj 21 192 swap, f 8;
#X obj 21 27 inlet;
#X obj 72 27 inlet;
#X obj 48 93 /;
#X obj 48 137 *;
#X obj 72 49 unpack;
#X obj 96 216 >=;
#X obj 96 238 sel 1;
#X obj 96 283 print mat.2d.itorc;
#X msg 96 260 index out of bounds;
#X connect 0 0 5 1;
#X connect 0 0 9 0;
#X connect 1 0 2 0;
#X connect 1 1 8 0;
#X connect 2 0 5 0;
#X connect 3 0 4 0;
#X connect 5 0 3 0;
#X connect 5 0 11 0;
#X connect 5 1 3 1;
#X connect 6 0 1 0;
#X connect 7 0 10 0;
#X connect 8 0 0 0;
#X connect 9 0 2 1;
#X connect 10 0 11 1;
#X connect 10 1 8 1;
#X connect 10 1 9 1;
#X connect 11 0 12 0;
#X connect 12 0 14 0;
#X connect 14 0 13 0;
#X restore 550 118 pd itorc;
#X obj 614 47 t b b, f 8;
#X obj 659 69 f \$3;
#X obj 614 69 f \$2;
#X obj 614 91 pack f f;
#N canvas 0 22 450 300 rctocar 0;
#X obj 13 263 outlet;
#X obj 76 173 -, f 6;
#X obj 109 121 / 2;
#X obj 13 173 -, f 6;
#X obj 46 121 / 2;
#X obj 13 239 pack f f, f 11;
#X obj 13 9 inlet;
#X obj 13 31 unpack f f, f 11;
#X obj 46 99 - 1;
#X obj 109 99 - 1;
#X obj 13 195 /, f 6;
#X obj 76 195 /, f 6;
#X obj 76 217 * -1;
#X obj 109 9 inlet;
#X obj 109 31 unpack;
#X obj 13 53 swap, f 11;
#X connect 1 0 11 0;
#X connect 2 0 1 1;
#X connect 2 0 11 1;
#X connect 3 0 10 0;
#X connect 4 0 3 1;
#X connect 4 0 10 1;
#X connect 5 0 0 0;
#X connect 6 0 7 0;
#X connect 7 0 15 0;
#X connect 7 1 15 1;
#X connect 8 0 4 0;
#X connect 9 0 2 0;
#X connect 10 0 5 0;
#X connect 11 0 12 0;
#X connect 12 0 5 1;
#X connect 13 0 14 0;
#X connect 14 0 8 0;
#X connect 14 1 9 0;
#X connect 15 0 3 0;
#X connect 15 1 1 0;
#X restore 550 143 pd rctocar;
#X obj 550 368 f \$4;
#X obj 550 23 t b b b, f 22;
#X obj 644 295 tools/mat.2d.txt.get \$5 positions;
#X obj 739 248 tools/mat.2d.txt.get \$5 rolloff;
#X obj 759 198 tools/mat.2d.txt.get \$5 blur;
#X connect 0 0 1 0;
#X connect 3 0 31 0;
#X connect 5 0 6 0;
#X connect 6 0 7 0;
#X connect 6 0 10 0;
#X connect 7 0 6 1;
#X connect 8 1 11 0;
#X connect 9 0 8 0;
#X connect 10 0 9 0;
#X connect 10 1 15 0;
#X connect 11 0 12 0;
#X connect 13 0 14 0;
#X connect 14 0 16 0;
#X connect 15 0 8 1;
#X connect 15 1 13 0;
#X connect 15 2 14 1;
#X connect 16 0 12 1;
#X connect 17 0 30 0;
#X connect 17 1 9 1;
#X connect 17 2 18 0;
#X connect 18 0 6 1;
#X connect 19 0 24 0;
#X connect 20 0 21 0;
#X connect 20 1 32 0;
#X connect 20 2 33 0;
#X connect 20 2 34 0;
#X connect 21 0 17 0;
#X connect 22 0 21 2;
#X connect 23 0 21 2;
#X connect 24 0 29 0;
#X connect 25 0 27 0;
#X connect 25 1 26 0;
#X connect 26 0 28 1;
#X connect 27 0 28 0;
#X connect 28 0 24 1;
#X connect 28 0 29 1;
#X connect 29 0 20 0;
#X connect 30 0 5 0;
#X connect 31 0 19 0;
#X connect 31 1 25 0;
#X connect 31 2 4 0;
#X connect 32 0 21 1;
#X connect 33 0 22 0;
#X connect 34 0 23 0;
