#N canvas 232 222 687 558 10;
#X obj 12 16 spam.in~;
#X obj 159 91 loadbang;
#X obj 292 264 pointer;
#X obj 426 217 f \$1;
#X obj 426 239 sel 0;
#X obj 160 54 filledpolygon c1 c2 lw x1 y1 x2 y1 x2 y2 x1 y2 x1 y1
;
#X obj 160 11 struct \$0-t-scope float x1 float y1 float x2 float y2
float c1 float c2 float lw;
#X obj 159 286 append \$0-t-scope c1 c2 lw x1 y1 x2 y2, f 23;
#X obj 12 505 set \$0-t-scope c1, f 25;
#X obj 159 113 t b b b, f 45;
#N canvas 914 76 343 421 compute_bounds 0;
#X obj 162 163 /, f 6;
#X obj 219 163 /, f 6;
#X obj 18 12 inlet;
#X obj 18 358 pack f f f f, f 29;
#X obj 18 380 outlet;
#X obj 189 261 +;
#X obj 132 283 +;
#X obj 18 258 t f f, f 19;
#X obj 18 34 t b b, f 20;
#X obj 162 119 t b f, f 6;
#X obj 219 119 t b f, f 6;
#X obj 18 102 tools/mat.2d.itorc;
#X obj 135 77 t l l;
#X obj 162 97 unpack f f;
#X obj 135 55 tools/mat.2d.getdim \$2;
#X obj 18 56 f \$1;
#X obj 18 166 *;
#X obj 75 228 t f f, f 19;
#X obj 18 124 unpack, f 10;
#X obj 18 190 - 1;
#X obj 75 190 - 1;
#X obj 162 141 f 2;
#X obj 219 141 f 2;
#X obj 75 166 *;
#X obj 162 185 swap, f 10;
#X obj 18 146 swap, f 10;
#X obj 189 283 * -1;
#X obj 75 303 * -1;
#X connect 0 0 16 1;
#X connect 0 0 24 0;
#X connect 1 0 23 1;
#X connect 1 0 24 1;
#X connect 2 0 8 0;
#X connect 3 0 4 0;
#X connect 5 0 26 0;
#X connect 6 0 3 2;
#X connect 7 0 3 0;
#X connect 7 1 6 0;
#X connect 8 0 15 0;
#X connect 8 1 14 0;
#X connect 9 0 21 0;
#X connect 9 1 0 1;
#X connect 10 0 22 0;
#X connect 10 1 1 1;
#X connect 11 0 18 0;
#X connect 12 0 11 1;
#X connect 12 1 13 0;
#X connect 13 0 9 0;
#X connect 13 1 10 0;
#X connect 14 0 12 0;
#X connect 15 0 11 0;
#X connect 16 0 19 0;
#X connect 17 0 27 0;
#X connect 17 1 5 0;
#X connect 18 0 25 0;
#X connect 18 1 25 1;
#X connect 19 0 7 0;
#X connect 20 0 17 0;
#X connect 21 0 0 0;
#X connect 22 0 1 0;
#X connect 23 0 20 0;
#X connect 24 0 6 1;
#X connect 24 1 5 1;
#X connect 25 0 16 0;
#X connect 25 1 23 0;
#X connect 26 0 3 3;
#X connect 27 0 3 1;
#X restore 159 213 pd compute_bounds;
#X msg 426 284 \; pd-\$1 clear;
#X msg 292 240 traverse pd-\$1 \, bang;
#X obj 12 58 env~;
#X obj 292 215 symbol \$3;
#X obj 426 260 symbol \$3;
#X obj 12 82 t b f f f f;
#X obj 75 102 >= 1;
#X obj 59 163 >= 88;
#X obj 43 235 >= 94;
#X obj 27 298 >= 100;
#X obj 75 144 f 1;
#X obj 59 206 f 2;
#X obj 43 277 f 3;
#X obj 27 340 f 4;
#X obj 12 104 f 0;
#X obj 12 361 +;
#X obj 12 383 sel 0 1 2 3 4, f 19;
#N canvas 0 22 450 300 set_colors 1;
#X obj 29 95 list split 1;
#X obj 63 117 t l l;
#X obj 90 139 list length;
#N canvas 536 255 450 300 pass 0;
#X obj 51 9 inlet;
#X obj 51 54 spigot, f 7;
#X obj 90 29 > 0;
#X obj 90 9 inlet;
#X obj 51 76 outlet;
#X connect 0 0 1 0;
#X connect 1 0 4 0;
#X connect 2 0 1 1;
#X connect 3 0 2 0;
#X restore 90 238 pd pass;
#X obj 90 260 s \$0-c1;
#N canvas 536 255 450 300 pass 0;
#X obj 51 9 inlet;
#X obj 51 54 spigot, f 7;
#X obj 90 9 inlet;
#X obj 51 76 outlet;
#X obj 90 29 > 3;
#X connect 0 0 1 0;
#X connect 1 0 3 0;
#X connect 2 0 4 0;
#X connect 4 0 1 1;
#X restore 174 194 pd pass;
#N canvas 536 255 450 300 pass 0;
#X obj 51 9 inlet;
#X obj 51 54 spigot, f 7;
#X obj 90 9 inlet;
#X obj 51 76 outlet;
#X obj 90 29 > 2;
#X connect 0 0 1 0;
#X connect 1 0 3 0;
#X connect 2 0 4 0;
#X connect 4 0 1 1;
#X restore 146 238 pd pass;
#X obj 146 260 s \$0-c3;
#X obj 174 216 s \$0-c4;
#N canvas 536 255 450 300 pass 0;
#X obj 51 9 inlet;
#X obj 51 54 spigot, f 7;
#X obj 90 9 inlet;
#X obj 51 76 outlet;
#X obj 90 29 > 1;
#X connect 0 0 1 0;
#X connect 1 0 3 0;
#X connect 2 0 4 0;
#X connect 4 0 1 1;
#X restore 118 195 pd pass;
#X obj 118 217 s \$0-c2;
#X obj 63 169 unpack f f f f f, f 19;
#N canvas 536 255 450 300 pass 0;
#X obj 51 9 inlet;
#X obj 51 54 spigot, f 7;
#X obj 90 9 inlet;
#X obj 51 76 outlet;
#X obj 90 29 > 4;
#X connect 0 0 1 0;
#X connect 1 0 3 0;
#X connect 2 0 4 0;
#X connect 4 0 1 1;
#X restore 63 195 pd pass;
#X obj 63 217 s \$0-c0;
#X obj 29 6 inlet;
#X obj 248 184 > 5;
#X obj 248 206 sel 1;
#X obj 248 252 print mat.2d.meter~;
#X msg 248 228 warning extra colors arguments;
#X obj 29 51 text search \$3;
#X obj 29 73 text get \$3;
#X msg 29 29 symbol mat.scope.colors;
#X connect 0 1 1 0;
#X connect 1 0 11 0;
#X connect 1 1 2 0;
#X connect 2 0 12 1;
#X connect 2 0 3 1;
#X connect 2 0 9 1;
#X connect 2 0 6 1;
#X connect 2 0 5 1;
#X connect 2 0 15 0;
#X connect 3 0 4 0;
#X connect 5 0 8 0;
#X connect 6 0 7 0;
#X connect 9 0 10 0;
#X connect 11 0 12 0;
#X connect 11 1 3 0;
#X connect 11 2 9 0;
#X connect 11 3 6 0;
#X connect 11 4 5 0;
#X connect 12 0 13 0;
#X connect 14 0 21 0;
#X connect 15 0 16 0;
#X connect 16 0 18 0;
#X connect 18 0 17 0;
#X connect 19 0 20 0;
#X connect 20 0 0 0;
#X connect 21 0 19 0;
#X restore 486 99 pd set_colors;
#X obj 486 75 bng 15 250 50 0 empty empty empty 17 7 0 10 -262144 -1
-1;
#X obj 105 434 r \$0-c3;
#X obj 127 392 r \$0-c4;
#X obj 55 403 r \$0-c1;
#X obj 83 422 r \$0-c2;
#X obj 39 443 r \$0-c0;
#X obj 12 465 f 555;
#X msg 159 235 555 0 1 \$1 \$2 \$3 \$4;
#X obj 34 423 f 90;
#X obj 56 465 f 990;
#X obj 78 485 f 950;
#X obj 100 413 f 900;
#X obj 75 124 sel 1;
#X obj 59 185 sel 1;
#X obj 43 257 sel 1;
#X obj 27 320 sel 1;
#X connect 0 0 13 0;
#X connect 1 0 9 0;
#X connect 2 0 7 7;
#X connect 3 0 4 0;
#X connect 4 0 15 0;
#X connect 7 0 8 1;
#X connect 9 0 10 0;
#X connect 9 1 14 0;
#X connect 9 2 3 0;
#X connect 10 0 36 0;
#X connect 12 0 2 0;
#X connect 13 0 16 0;
#X connect 14 0 12 0;
#X connect 15 0 11 0;
#X connect 16 0 25 0;
#X connect 16 1 20 0;
#X connect 16 2 19 0;
#X connect 16 3 18 0;
#X connect 16 4 17 0;
#X connect 17 0 41 0;
#X connect 18 0 42 0;
#X connect 19 0 43 0;
#X connect 20 0 44 0;
#X connect 21 0 26 1;
#X connect 22 0 26 1;
#X connect 23 0 26 1;
#X connect 24 0 26 1;
#X connect 25 0 26 0;
#X connect 26 0 27 0;
#X connect 27 0 35 0;
#X connect 27 1 37 0;
#X connect 27 2 38 0;
#X connect 27 3 39 0;
#X connect 27 4 40 0;
#X connect 29 0 28 0;
#X connect 30 0 39 1;
#X connect 31 0 40 1;
#X connect 32 0 37 1;
#X connect 33 0 38 1;
#X connect 34 0 35 1;
#X connect 35 0 8 0;
#X connect 36 0 7 0;
#X connect 37 0 8 0;
#X connect 38 0 8 0;
#X connect 39 0 8 0;
#X connect 40 0 8 0;
#X connect 41 0 21 0;
#X connect 41 1 26 1;
#X connect 42 0 22 0;
#X connect 43 0 23 0;
#X connect 44 0 24 0;
