#N canvas 654 31 670 777 10;
#X declare -stdpath spam;
#X obj 12 16 spam.in~ 0;
#X obj 25 620 spam.out~;
#X obj 226 672 *, f 5;
#X obj 206 399 loadbang;
#X obj 226 355 spam.in 0;
#X obj 236 643 t b f;
#X obj 154 90 spam.in 0;
#X obj 154 14 loadbang;
#X obj 154 275 * 3.14129;
#X obj 154 319 + 1;
#X obj 154 253 min 1;
#X obj 154 341 * 0.5;
#X obj 154 297 cos;
#X obj 206 187 max 0.001;
#X obj 154 231 / 1, f 6;
#X msg 154 65 0 0;
#X obj 206 209 t b f;
#X obj 154 35 t b b b, f 44;
#X obj 284 65 f \$1;
#X obj 284 90 tools/mat.2d.itorc;
#X obj 284 113 tools/mat.2d.rctocar;
#X obj 415 57 tools/mat.2d.getdim \$2;
#X obj 154 166 tools/mat.2d.distance, f 44;
#X obj 415 101 / 2;
#X obj 472 101 / 2;
#X obj 415 123 - 1;
#X obj 472 123 - 1;
#X obj 415 145 pack f f, f 10;
#X obj 415 79 unpack f f;
#X obj 226 377 route delay;
#X msg 206 421 1000;
#X obj 58 404 pack f 20;
#X obj 58 426 line~;
#X obj 12 492 delwrite~ \$0-del 5000;
#X obj 12 462 *~;
#X obj 236 623 clip 0 1;
#X obj 226 444 clip 0 5000;
#X obj 154 385 clip 0 1;
#X obj 154 407 t b f;
#X obj 154 429 f 1;
#X obj 154 451 -, f 5;
#X obj 31 595 tools/mat.2d.delreads~ \$0-del;
#X obj 422 14 declare -stdpath spam;
#X obj 154 112 route list size, f 18;
#X connect 0 0 34 0;
#X connect 2 0 41 0;
#X connect 3 0 30 0;
#X connect 4 0 29 0;
#X connect 5 0 2 0;
#X connect 5 1 2 1;
#X connect 6 0 43 0;
#X connect 7 0 17 0;
#X connect 8 0 12 0;
#X connect 9 0 11 0;
#X connect 10 0 8 0;
#X connect 11 0 37 0;
#X connect 11 0 31 0;
#X connect 12 0 9 0;
#X connect 13 0 16 0;
#X connect 14 0 10 0;
#X connect 15 0 43 0;
#X connect 16 0 14 0;
#X connect 16 1 14 1;
#X connect 17 0 15 0;
#X connect 17 1 18 0;
#X connect 17 2 21 0;
#X connect 18 0 19 0;
#X connect 19 0 20 0;
#X connect 20 0 22 1;
#X connect 21 0 19 1;
#X connect 21 0 20 1;
#X connect 21 0 28 0;
#X connect 22 0 14 0;
#X connect 23 0 25 0;
#X connect 24 0 26 0;
#X connect 25 0 27 0;
#X connect 26 0 27 1;
#X connect 27 0 22 2;
#X connect 28 0 23 0;
#X connect 28 1 24 0;
#X connect 29 0 36 0;
#X connect 30 0 36 0;
#X connect 31 0 32 0;
#X connect 32 0 34 1;
#X connect 34 0 33 0;
#X connect 35 0 5 0;
#X connect 36 0 2 0;
#X connect 37 0 38 0;
#X connect 38 0 39 0;
#X connect 38 1 40 1;
#X connect 39 0 40 0;
#X connect 40 0 35 0;
#X connect 41 0 1 0;
#X connect 43 0 22 0;
#X connect 43 1 13 0;
