#N canvas 673 155 166 328 10;
#X obj 13 249 outlet;
#X obj 76 173 -, f 6;
#X obj 109 151 / 2;
#X obj 109 107 f \$1;
#X obj 13 173 -, f 6;
#X obj 46 151 / 2;
#X obj 46 107 f \$2;
#X obj 13 225 pack f f, f 11;
#X obj 13 9 inlet;
#X obj 13 31 unpack f f, f 11;
#X obj 76 52 t f b, f 6;
#X obj 46 129 - 1;
#X obj 109 129 - 1;
#X obj 13 195 /, f 6;
#X obj 76 195 /, f 6;
#X connect 1 0 14 0;
#X connect 2 0 1 1;
#X connect 2 0 14 1;
#X connect 3 0 12 0;
#X connect 4 0 13 0;
#X connect 5 0 4 1;
#X connect 5 0 13 1;
#X connect 6 0 11 0;
#X connect 7 0 0 0;
#X connect 8 0 9 0;
#X connect 9 0 4 0;
#X connect 9 1 10 0;
#X connect 10 0 1 0;
#X connect 10 1 6 0;
#X connect 10 1 3 0;
#X connect 11 0 5 0;
#X connect 12 0 2 0;
#X connect 13 0 7 0;
#X connect 14 0 7 1;
