#N struct 2524-t-scope float x1 float y1 float x2 float y2 float c1
float c2;
#N struct 2523-t-scope float x1 float y1 float x2 float y2 float c1
float c2;
#N struct 2522-t-scope float x1 float y1 float x2 float y2 float c1
float c2;
#N struct 2521-t-scope float x1 float y1 float x2 float y2 float c1
float c2;
#N struct 2520-t-scope float x1 float y1 float x2 float y2 float c1
float c2;
#N struct 2519-t-scope float x1 float y1 float x2 float y2 float c1
float c2;
#N struct 2518-t-scope float x1 float y1 float x2 float y2 float c1
float c2;
#N struct 2517-t-scope float x1 float y1 float x2 float y2 float c1
float c2;
#N struct 2516-t-scope float x1 float y1 float x2 float y2 float c1
float c2;
#N struct 2515-t-scope float x1 float y1 float x2 float y2 float c1
float c2;
#N struct 2514-t-scope float x1 float y1 float x2 float y2 float c1
float c2;
#N struct 2513-t-scope float x1 float y1 float x2 float y2 float c1
float c2;
#N struct 2512-t-scope float x1 float y1 float x2 float y2 float c1
float c2;
#N struct 2511-t-scope float x1 float y1 float x2 float y2 float c1
float c2;
#N struct 2510-t-scope float x1 float y1 float x2 float y2 float c1
float c2;
#N struct 2509-t-scope float x1 float y1 float x2 float y2 float c1
float c2;
#N struct 2508-t-scope float x1 float y1 float x2 float y2 float c1
float c2;
#N struct 2507-t-scope float x1 float y1 float x2 float y2 float c1
float c2;
#N struct 2506-t-scope float x1 float y1 float x2 float y2 float c1
float c2;
#N struct 2505-t-scope float x1 float y1 float x2 float y2 float c1
float c2;
#N struct 2504-t-scope float x1 float y1 float x2 float y2 float c1
float c2;
#N struct 2503-t-scope float x1 float y1 float x2 float y2 float c1
float c2;
#N struct 2502-t-scope float x1 float y1 float x2 float y2 float c1
float c2;
#N struct 2501-t-scope float x1 float y1 float x2 float y2 float c1
float c2;
#N struct 2500-t-scope float x1 float y1 float x2 float y2 float c1
float c2;
#N struct 2499-t-scope float x1 float y1 float x2 float y2 float c1
float c2;
#N struct 2498-t-scope float x1 float y1 float x2 float y2 float c1
float c2;
#N struct 2497-t-scope float x1 float y1 float x2 float y2 float c1
float c2;
#N struct 2496-t-scope float x1 float y1 float x2 float y2 float c1
float c2;
#N struct 2495-t-scope float x1 float y1 float x2 float y2 float c1
float c2;
#N struct 2494-t-scope float x1 float y1 float x2 float y2 float c1
float c2;
#N struct 2493-t-scope float x1 float y1 float x2 float y2 float c1
float c2;
#N struct 2492-t-scope float x1 float y1 float x2 float y2 float c1
float c2;
#N struct 2491-t-scope float x1 float y1 float x2 float y2 float c1
float c2;
#N struct 2490-t-scope float x1 float y1 float x2 float y2 float c1
float c2;
#N struct 2489-t-scope float x1 float y1 float x2 float y2 float c1
float c2;
#N struct 2488-t-scope float x1 float y1 float x2 float y2 float c1
float c2;
#N struct 2487-t-scope float x1 float y1 float x2 float y2 float c1
float c2;
#N struct 2486-t-scope float x1 float y1 float x2 float y2 float c1
float c2;
#N struct 2485-t-scope float x1 float y1 float x2 float y2 float c1
float c2;
#N struct 2484-t-scope float x1 float y1 float x2 float y2 float c1
float c2;
#N struct 2483-t-scope float x1 float y1 float x2 float y2 float c1
float c2;
#N struct 2482-t-scope float x1 float y1 float x2 float y2 float c1
float c2;
#N struct 2481-t-scope float x1 float y1 float x2 float y2 float c1
float c2;
#N struct 2480-t-scope float x1 float y1 float x2 float y2 float c1
float c2;
#N struct 2479-t-scope float x1 float y1 float x2 float y2 float c1
float c2;
#N struct 2478-t-scope float x1 float y1 float x2 float y2 float c1
float c2;
#N struct 2477-t-scope float x1 float y1 float x2 float y2 float c1
float c2;
#N struct 2476-t-scope float x1 float y1 float x2 float y2 float c1
float c2;
#N struct 2475-t-scope float x1 float y1 float x2 float y2 float c1
float c2;
#N struct 2474-t-scope float x1 float y1 float x2 float y2 float c1
float c2;
#N struct 2473-t-scope float x1 float y1 float x2 float y2 float c1
float c2;
#N struct 2472-t-scope float x1 float y1 float x2 float y2 float c1
float c2;
#N struct 2471-t-scope float x1 float y1 float x2 float y2 float c1
float c2;
#N struct 2470-t-scope float x1 float y1 float x2 float y2 float c1
float c2;
#N struct 2469-t-scope float x1 float y1 float x2 float y2 float c1
float c2;
#N struct 2468-t-scope float x1 float y1 float x2 float y2 float c1
float c2;
#N struct 2467-t-scope float x1 float y1 float x2 float y2 float c1
float c2;
#N struct 2466-t-scope float x1 float y1 float x2 float y2 float c1
float c2;
#N struct 2465-t-scope float x1 float y1 float x2 float y2 float c1
float c2;
#N struct 2464-t-scope float x1 float y1 float x2 float y2 float c1
float c2;
#N struct 2463-t-scope float x1 float y1 float x2 float y2 float c1
float c2;
#N struct 2462-t-scope float x1 float y1 float x2 float y2 float c1
float c2;
#N struct 2461-t-scope float x1 float y1 float x2 float y2 float c1
float c2;
#N struct 2560-t-meter float x1 float y1 float s1 float s2 float s3
float s4 float c0 float c1 float c2 float c3 float c4;
#N struct 2555-t-meter float x1 float y1 float s1 float s2 float s3
float s4 float c0 float c1 float c2 float c3 float c4;
#N struct 2550-t-meter float x1 float y1 float s1 float s2 float s3
float s4 float c0 float c1 float c2 float c3 float c4;
#N struct 2545-t-meter float x1 float y1 float s1 float s2 float s3
float s4 float c0 float c1 float c2 float c3 float c4;
#N struct 2540-t-meter float x1 float y1 float s1 float s2 float s3
float s4 float c0 float c1 float c2 float c3 float c4;
#N struct 2535-t-meter float x1 float y1 float s1 float s2 float s3
float s4 float c0 float c1 float c2 float c3 float c4;
#N struct 2530-t-meter float x1 float y1 float s1 float s2 float s3
float s4 float c0 float c1 float c2 float c3 float c4;
#N struct 2525-t-meter float x1 float y1 float s1 float s2 float s3
float s4 float c0 float c1 float c2 float c3 float c4;
#N canvas 589 109 592 662 10;
#X declare -stdpath spam;
#X obj 77 241 dbtorms;
#X obj 77 221 nbx 5 14 0 100 0 0 empty \$0-gain empty 0 -8 0 10 -262144
-1 -1 60 256;
#X obj 77 263 pack f 20;
#X obj 77 285 line~;
#X obj 14 318 *~, f 11;
#X obj 155 252 nbx 5 14 1 100 0 0 empty \$0-spread empty 0 -8 0 10
-262144 -1 -1 9 256;
#X obj 225 252 nbx 5 14 -1e+37 1e+37 0 0 empty \$0-delay empty 0 -8
0 10 -262144 -1 -1 250 256;
#X msg 225 271 delay \$1;
#N canvas 0 22 223 200 \$0-scope 0;
#X scalar 2524-t-scope 0.75 -0.75 1 -1 999 0 \;;
#X scalar 2523-t-scope 0.5 -0.75 0.75 -1 999 0 \;;
#X scalar 2522-t-scope 0.25 -0.75 0.5 -1 999 0 \;;
#X scalar 2521-t-scope 0 -0.75 0.25 -1 999 0 \;;
#X scalar 2520-t-scope -0.25 -0.75 0 -1 999 0 \;;
#X scalar 2519-t-scope -0.5 -0.75 -0.25 -1 999 0 \;;
#X scalar 2518-t-scope -0.75 -0.75 -0.5 -1 999 0 \;;
#X scalar 2517-t-scope -1 -0.75 -0.75 -1 999 0 \;;
#X scalar 2516-t-scope 0.75 -0.5 1 -0.75 999 0 \;;
#X scalar 2515-t-scope 0.5 -0.5 0.75 -0.75 999 0 \;;
#X scalar 2514-t-scope 0.25 -0.5 0.5 -0.75 999 0 \;;
#X scalar 2513-t-scope 0 -0.5 0.25 -0.75 999 0 \;;
#X scalar 2512-t-scope -0.25 -0.5 0 -0.75 999 0 \;;
#X scalar 2511-t-scope -0.5 -0.5 -0.25 -0.75 999 0 \;;
#X scalar 2510-t-scope -0.75 -0.5 -0.5 -0.75 999 0 \;;
#X scalar 2509-t-scope -1 -0.5 -0.75 -0.75 999 0 \;;
#X scalar 2508-t-scope 0.75 -0.25 1 -0.5 999 0 \;;
#X scalar 2507-t-scope 0.5 -0.25 0.75 -0.5 999 0 \;;
#X scalar 2506-t-scope 0.25 -0.25 0.5 -0.5 999 0 \;;
#X scalar 2505-t-scope 0 -0.25 0.25 -0.5 999 0 \;;
#X scalar 2504-t-scope -0.25 -0.25 0 -0.5 999 0 \;;
#X scalar 2503-t-scope -0.5 -0.25 -0.25 -0.5 999 0 \;;
#X scalar 2502-t-scope -0.75 -0.25 -0.5 -0.5 999 0 \;;
#X scalar 2501-t-scope -1 -0.25 -0.75 -0.5 999 0 \;;
#X scalar 2500-t-scope 0.75 -0 1 -0.25 999 0 \;;
#X scalar 2499-t-scope 0.5 -0 0.75 -0.25 999 0 \;;
#X scalar 2498-t-scope 0.25 -0 0.5 -0.25 999 0 \;;
#X scalar 2497-t-scope 0 -0 0.25 -0.25 999 0 \;;
#X scalar 2496-t-scope -0.25 -0 0 -0.25 999 0 \;;
#X scalar 2495-t-scope -0.5 -0 -0.25 -0.25 999 0 \;;
#X scalar 2494-t-scope -0.75 -0 -0.5 -0.25 999 0 \;;
#X scalar 2493-t-scope -1 -0 -0.75 -0.25 999 0 \;;
#X scalar 2492-t-scope 0.75 0.25 1 -0 999 0 \;;
#X scalar 2491-t-scope 0.5 0.25 0.75 -0 999 0 \;;
#X scalar 2490-t-scope 0.25 0.25 0.5 -0 999 0 \;;
#X scalar 2489-t-scope 0 0.25 0.25 -0 999 0 \;;
#X scalar 2488-t-scope -0.25 0.25 0 -0 999 0 \;;
#X scalar 2487-t-scope -0.5 0.25 -0.25 -0 999 0 \;;
#X scalar 2486-t-scope -0.75 0.25 -0.5 -0 999 0 \;;
#X scalar 2485-t-scope -1 0.25 -0.75 -0 999 0 \;;
#X scalar 2484-t-scope 0.75 0.5 1 0.25 999 0 \;;
#X scalar 2483-t-scope 0.5 0.5 0.75 0.25 999 0 \;;
#X scalar 2482-t-scope 0.25 0.5 0.5 0.25 999 0 \;;
#X scalar 2481-t-scope 0 0.5 0.25 0.25 999 0 \;;
#X scalar 2480-t-scope -0.25 0.5 0 0.25 999 0 \;;
#X scalar 2479-t-scope -0.5 0.5 -0.25 0.25 999 0 \;;
#X scalar 2478-t-scope -0.75 0.5 -0.5 0.25 999 0 \;;
#X scalar 2477-t-scope -1 0.5 -0.75 0.25 999 0 \;;
#X scalar 2476-t-scope 0.75 0.75 1 0.5 999 0 \;;
#X scalar 2475-t-scope 0.5 0.75 0.75 0.5 999 0 \;;
#X scalar 2474-t-scope 0.25 0.75 0.5 0.5 999 0 \;;
#X scalar 2473-t-scope 0 0.75 0.25 0.5 999 0 \;;
#X scalar 2472-t-scope -0.25 0.75 0 0.5 999 0 \;;
#X scalar 2471-t-scope -0.5 0.75 -0.25 0.5 999 0 \;;
#X scalar 2470-t-scope -0.75 0.75 -0.5 0.5 999 0 \;;
#X scalar 2469-t-scope -1 0.75 -0.75 0.5 999 0 \;;
#X scalar 2468-t-scope 0.75 1 1 0.75 999 0 \;;
#X scalar 2467-t-scope 0.5 1 0.75 0.75 999 0 \;;
#X scalar 2466-t-scope 0.25 1 0.5 0.75 999 0 \;;
#X scalar 2465-t-scope 0 1 0.25 0.75 999 0 \;;
#X scalar 2464-t-scope -0.25 1 0 0.75 999 0 \;;
#X scalar 2463-t-scope -0.5 1 -0.25 0.75 999 0 \;;
#X scalar 2462-t-scope -0.75 1 -0.5 0.75 999 0 \;;
#X scalar 2461-t-scope -1 1 -0.75 0.75 999 0 \;;
#X coords -1 1 1 -1 150 150 2 100 100;
#X restore 16 387 pd \$0-scope;
#X obj 399 235 tools/mat.gnbx2;
#X obj 10 157 text define -k \$0-config;
#A set mat.dim 8 8 \; positions -0.530331
0.530329 -0.75 -1.67489e-06 -0.530329 -0.530332 2.51234e-06 -0.75 0.530332
-0.530328 0.75 3.34978e-06 0.530328 0.530333 -4.18723e-06 0.75 \; rolloff
40 \; blur 0.001 \; mat.meter.positions
-0.530331 0.530329 -0.75 -1.67489e-06 -0.530329 -0.530332 2.51234e-06
-0.75 0.530332 -0.530328 0.75 3.34978e-06 0.530328 0.530333 -4.18723e-06
0.75 \;;
#X f 25;
#X obj 14 586 dac~ 1 2 3 4 5 6 7 8, f 56;
#X obj 14 362 spam~ 64 mat.2d.scope~ 8 8 \$0-scope, f 56;
#X obj 14 565 spam~ 8 mat.2d.meter~ \$0-config \$0-meter, f 56;
#N canvas 0 22 450 300 \$0-meter 0;
#X scalar 2560-t-meter -4.18723e-06 0.75 8 16 24 32 555 90 990 950
900 \;;
#X scalar 2555-t-meter 0.530328 0.530333 8 16 24 32 555 90 990 950
900 \;;
#X scalar 2550-t-meter 0.75 3.34978e-06 8 16 24 32 555 90 990 950 900
\;;
#X scalar 2545-t-meter 0.530332 -0.530328 8 16 24 32 555 90 990 950
900 \;;
#X scalar 2540-t-meter 2.51234e-06 -0.75 8 16 24 32 555 90 990 950
900 \;;
#X scalar 2535-t-meter -0.530329 -0.530332 8 16 24 32 555 90 990 950
900 \;;
#X scalar 2530-t-meter -0.75 -1.67489e-06 8 16 24 32 555 90 990 950
900 \;;
#X scalar 2525-t-meter -0.530331 0.530329 8 16 24 32 555 90 990 950
900 \;;
#X coords -1 1 1 -1 153 153 2 100 100;
#X restore 201 387 pd \$0-meter;
#N canvas 0 22 450 300 init 0;
#X obj 13 42 loadbang;
#X obj 13 86 s \$0-gain;
#X obj 173 42 loadbang;
#X obj 173 87 s \$0-delay;
#X obj 106 41 loadbang;
#X obj 106 86 s \$0-auto;
#X msg 173 64 250;
#X msg 106 63 0;
#X obj 106 122 loadbang;
#X obj 106 167 s \$0-spread;
#X obj 196 122 loadbang;
#X obj 196 167 s \$0-pos;
#X msg 196 144 1 1;
#X msg 13 64 60;
#X msg 106 144 9;
#X connect 0 0 13 0;
#X connect 2 0 6 0;
#X connect 4 0 7 0;
#X connect 6 0 3 0;
#X connect 7 0 5 0;
#X connect 8 0 14 0;
#X connect 10 0 12 0;
#X connect 12 0 11 0;
#X connect 13 0 1 0;
#X connect 14 0 9 0;
#X restore 14 181 pd init;
#X obj 14 292 *~;
#N canvas 334 63 191 239 e 0;
#X obj 50 195 outlet~;
#X obj 50 167 line~;
#X obj 50 66 tgl 15 0 empty empty empty 17 7 0 10 -262144 -1 -1 1 1
;
#X obj 48 23 loadbang;
#X msg 48 45 1;
#X obj 91 106 delay 20;
#X msg 91 128 0 30;
#X msg 50 128 1 20;
#X obj 50 84 metro 750;
#X connect 1 0 0 0;
#X connect 2 0 8 0;
#X connect 3 0 4 0;
#X connect 4 0 2 0;
#X connect 5 0 6 0;
#X connect 6 0 1 0;
#X connect 7 0 1 0;
#X connect 8 0 7 0;
#X connect 8 0 5 0;
#X restore 29 266 pd e;
#X obj 307 318 r \$0-vd;
#X obj 225 293 s \$0-vd;
#X obj 399 276 s \$0-vd;
#X obj 155 293 s \$0-vd;
#X obj 399 214 r \$0-pos;
#X obj 363 582 declare -stdpath spam;
#X obj 5 7 mat.header mat.2d.syn.bucket~;
#X obj 6 614 mat.footer;
#X msg 155 271 size \$1;
#X obj 14 223 noise~;
#X obj 14 544 spam~ 64 mat.2d.dec.dbap~ \$0-config, f 56;
#X obj 362 163 tgl 15 0 empty empty empty 17 7 0 10 -262144 -1 -1 0
1;
#N canvas 0 22 573 343 trajectory 0;
#X obj 54 191 t f f, f 15;
#X obj 54 249 pack f f, f 15;
#X obj 141 227 sin;
#X obj 54 271 outlet;
#X obj 17 25 inlet;
#X obj 54 227 cos;
#X obj 79 71 sel 5;
#X obj 116 131 / 5;
#X obj 119 71 + 1;
#X obj 79 103 f 0;
#X obj 79 49 f 0;
#X obj 107 103 f 1;
#X obj 116 151 * 6.28319;
#X obj 79 27 metro 750;
#X connect 0 0 5 0;
#X connect 0 1 2 0;
#X connect 1 0 3 0;
#X connect 2 0 1 1;
#X connect 4 0 13 0;
#X connect 5 0 1 0;
#X connect 6 0 9 0;
#X connect 6 0 11 0;
#X connect 6 1 7 0;
#X connect 6 1 8 0;
#X connect 7 0 12 0;
#X connect 8 0 10 1;
#X connect 9 0 7 0;
#X connect 10 0 6 0;
#X connect 11 0 10 1;
#X connect 12 0 0 0;
#X connect 13 0 10 0;
#X restore 362 187 pd trajectory;
#X obj 14 339 spam~ 64 mat.2d.syn.bucket~ 8 8, f 56;
#X text 4 30 The abstraction synthesizes the signals of the cells of
a matrix for a sound source using variable delay lines without flanging
effect. The goal is to create a spatial smudge effect. When a cell
is distant from the encoding position the delay increases resulting
in a sound that is spread progressively from the encoding position
toward the rest of the space while the sound decreases. The arguments
are the dimension of the matrix \, the number of rows and the number
of columns.;
#X connect 0 0 2 0;
#X connect 1 0 0 0;
#X connect 2 0 3 0;
#X connect 3 0 4 1;
#X connect 4 0 31 0;
#X connect 5 0 26 0;
#X connect 6 0 7 0;
#X connect 7 0 19 0;
#X connect 9 0 20 0;
#X connect 16 0 4 0;
#X connect 17 0 16 1;
#X connect 18 0 31 1;
#X connect 22 0 9 0;
#X connect 26 0 21 0;
#X connect 27 0 16 0;
#X connect 28 0 13 0;
#X connect 28 0 11 0;
#X connect 28 1 13 1;
#X connect 28 1 11 1;
#X connect 28 2 13 2;
#X connect 28 2 11 2;
#X connect 28 3 13 3;
#X connect 28 3 11 3;
#X connect 28 4 13 4;
#X connect 28 4 11 4;
#X connect 28 5 13 5;
#X connect 28 5 11 5;
#X connect 28 6 13 6;
#X connect 28 6 11 6;
#X connect 28 7 13 7;
#X connect 28 7 11 7;
#X connect 29 0 30 0;
#X connect 30 0 9 0;
#X connect 31 0 12 0;
#X connect 31 0 28 0;
#X connect 31 1 12 1;
#X connect 31 1 28 1;
#X connect 31 2 12 2;
#X connect 31 2 28 2;
#X connect 31 3 12 3;
#X connect 31 3 28 3;
#X connect 31 4 12 4;
#X connect 31 4 28 4;
#X connect 31 5 12 5;
#X connect 31 5 28 5;
#X connect 31 6 12 6;
#X connect 31 6 28 6;
#X connect 31 7 12 7;
#X connect 31 7 28 7;
#X connect 31 8 12 8;
#X connect 31 8 28 8;
#X connect 31 9 12 9;
#X connect 31 9 28 9;
#X connect 31 10 12 10;
#X connect 31 10 28 10;
#X connect 31 11 12 11;
#X connect 31 11 28 11;
#X connect 31 12 12 12;
#X connect 31 12 28 12;
#X connect 31 13 12 13;
#X connect 31 13 28 13;
#X connect 31 14 12 14;
#X connect 31 14 28 14;
#X connect 31 15 12 15;
#X connect 31 15 28 15;
#X connect 31 16 12 16;
#X connect 31 16 28 16;
#X connect 31 17 12 17;
#X connect 31 17 28 17;
#X connect 31 18 12 18;
#X connect 31 18 28 18;
#X connect 31 19 12 19;
#X connect 31 19 28 19;
#X connect 31 20 12 20;
#X connect 31 20 28 20;
#X connect 31 21 12 21;
#X connect 31 21 28 21;
#X connect 31 22 12 22;
#X connect 31 22 28 22;
#X connect 31 23 12 23;
#X connect 31 23 28 23;
#X connect 31 24 12 24;
#X connect 31 24 28 24;
#X connect 31 25 12 25;
#X connect 31 25 28 25;
#X connect 31 26 12 26;
#X connect 31 26 28 26;
#X connect 31 27 12 27;
#X connect 31 27 28 27;
#X connect 31 28 12 28;
#X connect 31 28 28 28;
#X connect 31 29 12 29;
#X connect 31 29 28 29;
#X connect 31 30 12 30;
#X connect 31 30 28 30;
#X connect 31 31 12 31;
#X connect 31 31 28 31;
#X connect 31 32 12 32;
#X connect 31 32 28 32;
#X connect 31 33 12 33;
#X connect 31 33 28 33;
#X connect 31 34 12 34;
#X connect 31 34 28 34;
#X connect 31 35 12 35;
#X connect 31 35 28 35;
#X connect 31 36 12 36;
#X connect 31 36 28 36;
#X connect 31 37 12 37;
#X connect 31 37 28 37;
#X connect 31 38 12 38;
#X connect 31 38 28 38;
#X connect 31 39 12 39;
#X connect 31 39 28 39;
#X connect 31 40 12 40;
#X connect 31 40 28 40;
#X connect 31 41 12 41;
#X connect 31 41 28 41;
#X connect 31 42 12 42;
#X connect 31 42 28 42;
#X connect 31 43 12 43;
#X connect 31 43 28 43;
#X connect 31 44 12 44;
#X connect 31 44 28 44;
#X connect 31 45 12 45;
#X connect 31 45 28 45;
#X connect 31 46 12 46;
#X connect 31 46 28 46;
#X connect 31 47 12 47;
#X connect 31 47 28 47;
#X connect 31 48 12 48;
#X connect 31 48 28 48;
#X connect 31 49 12 49;
#X connect 31 49 28 49;
#X connect 31 50 12 50;
#X connect 31 50 28 50;
#X connect 31 51 12 51;
#X connect 31 51 28 51;
#X connect 31 52 12 52;
#X connect 31 52 28 52;
#X connect 31 53 12 53;
#X connect 31 53 28 53;
#X connect 31 54 12 54;
#X connect 31 54 28 54;
#X connect 31 55 12 55;
#X connect 31 55 28 55;
#X connect 31 56 12 56;
#X connect 31 56 28 56;
#X connect 31 57 12 57;
#X connect 31 57 28 57;
#X connect 31 58 12 58;
#X connect 31 58 28 58;
#X connect 31 59 12 59;
#X connect 31 59 28 59;
#X connect 31 60 12 60;
#X connect 31 60 28 60;
#X connect 31 61 12 61;
#X connect 31 61 28 61;
#X connect 31 62 12 62;
#X connect 31 62 28 62;
#X connect 31 63 12 63;
#X connect 31 63 28 63;
#X coords 0 662 1 661 85 60 0;
