#N canvas 120 284 838 494 10;
#X obj 251 54 spam.in~;
#X obj 251 106 s~ \$0-in;
#X obj 550 195 mat.2d.dbap, f 32;
#X obj 389 26 namecanvas \$0-dbap;
#X obj 617 95 spam.in 0;
#X obj 617 117 route positions, f 20;
#X obj 550 44 mat.2d.itorc \$1 \$2 \$3;
#X obj 550 67 mat.2d.rctocar \$2 \$3;
#X obj 550 21 loadbang;
#N canvas 0 22 450 300 create_speakers 0;
#X obj 26 47 f \$4;
#X obj 26 24 loadbang;
#X obj 65 113 until;
#N canvas 0 23 413 79 error 0;
#X obj 9 30 print mat.2d.decoder.dbap~ error: needs a positive number
of loudspeakers;
#X obj 9 7 inlet;
#X connect 1 0 0 0;
#X restore 26 91 pd error;
#X obj 26 69 moses 1;
#X obj 65 176 f \$0;
#X obj 65 133 f 0;
#X obj 95 133 + 1;
#X obj 65 155 t b f f, f 16;
#X obj 65 218 pack f f f, f 16;
#X obj 158 176 * 20;
#X obj 158 198 + 10;
#X msg 65 241 \; \$1-dbap obj 10 \$3 mat.2d.speaker~ \$2 \$1-in \$1-gain-\$2
;
#X connect 0 0 4 0;
#X connect 1 0 0 0;
#X connect 2 0 6 0;
#X connect 4 0 3 0;
#X connect 4 1 2 0;
#X connect 5 0 9 0;
#X connect 6 0 7 0;
#X connect 6 0 8 0;
#X connect 7 0 6 1;
#X connect 8 0 5 0;
#X connect 8 1 9 1;
#X connect 8 2 10 0;
#X connect 9 0 12 0;
#X connect 10 0 11 0;
#X connect 11 0 9 2;
#X restore 266 26 pd create_speakers;
#X obj 617 139 t b l;
#X obj 712 139 t b a;
#X obj 550 240 f \$4;
#X obj 550 261 until;
#X obj 550 301 f 0;
#X obj 580 301 + 1;
#X obj 550 373 list split;
#X obj 550 348 list, f 5;
#X obj 550 323 t b f, f 10;
#X obj 578 396 unpack f;
#X obj 550 172 list, f 5;
#X obj 550 89 t b l;
#X obj 578 440 send, f 11;
#X obj 641 370 f \$0;
#X obj 641 392 pack f f;
#X obj 607 345 t f b f, f 12;
#X msg 641 417 symbol \$1-gain-\$2;
#X obj 550 217 t b l b, f 9;
#X obj 601 259 f 0;
#X connect 0 0 1 0;
#X connect 2 0 27 0;
#X connect 4 0 5 0;
#X connect 5 0 10 0;
#X connect 5 1 11 0;
#X connect 6 0 7 0;
#X connect 7 0 21 0;
#X connect 8 0 6 0;
#X connect 10 0 20 0;
#X connect 10 1 2 1;
#X connect 11 0 20 0;
#X connect 11 1 2 2;
#X connect 12 0 13 0;
#X connect 13 0 14 0;
#X connect 14 0 15 0;
#X connect 14 0 18 0;
#X connect 15 0 14 1;
#X connect 16 1 19 0;
#X connect 17 0 16 0;
#X connect 18 0 17 0;
#X connect 18 1 25 0;
#X connect 19 0 22 0;
#X connect 20 0 2 0;
#X connect 21 0 20 0;
#X connect 21 1 20 1;
#X connect 23 0 24 0;
#X connect 24 0 26 0;
#X connect 25 0 16 1;
#X connect 25 1 23 0;
#X connect 25 2 24 1;
#X connect 26 0 22 1;
#X connect 27 0 12 0;
#X connect 27 1 17 1;
#X connect 27 2 28 0;
#X connect 28 0 14 1;
