#N canvas 116 368 333 444 10;
#X obj 12 298 *~;
#X obj 12 16 spam.in~ 0;
#X obj 12 320 spam.out~;
#X obj 27 39 spam.in 0;
#X obj 150 39 mat.2d.itorc \$1 \$2 \$3;
#X obj 150 62 mat.2d.rctocar \$2 \$3;
#X obj 27 111 t b f;
#X obj 27 153 f 1;
#X obj 54 153 min 1;
#X obj 27 175 -, f 5;
#X obj 27 254 pack f 20;
#X obj 27 276 line~;
#X obj 150 16 loadbang;
#X obj 81 116 max 0;
#X obj 27 61 route list spread, f 19;
#X obj 27 197 / 1;
#N canvas 0 22 217 290 dist 0;
#X obj 11 256 outlet;
#X obj 11 16 inlet;
#X obj 56 16 inlet;
#X obj 11 38 unpack;
#X obj 56 38 unpack;
#X obj 11 164 t f f;
#X obj 11 186 *, f 5;
#X obj 11 208 +, f 10;
#X obj 11 233 sqrt;
#X obj 68 164 t f f;
#X obj 68 186 *, f 5;
#X obj 11 60 -;
#X obj 68 60 -;
#X obj 116 47 loadbang;
#X obj 116 69 f \$2;
#X obj 147 69 f \$3;
#X obj 147 111 / 2;
#X obj 116 111 / 2;
#X obj 11 142 * 1;
#X obj 68 142 * 1;
#X obj 116 91 - 1;
#X obj 147 91 - 1;
#X connect 1 0 3 0;
#X connect 2 0 4 0;
#X connect 3 0 11 0;
#X connect 3 1 12 0;
#X connect 4 0 11 1;
#X connect 4 1 12 1;
#X connect 5 0 6 0;
#X connect 5 1 6 1;
#X connect 6 0 7 0;
#X connect 7 0 8 0;
#X connect 8 0 0 0;
#X connect 9 0 10 0;
#X connect 9 1 10 1;
#X connect 10 0 7 1;
#X connect 11 0 18 0;
#X connect 12 0 19 0;
#X connect 13 0 14 0;
#X connect 13 0 15 0;
#X connect 14 0 20 0;
#X connect 15 0 21 0;
#X connect 16 0 19 1;
#X connect 17 0 18 1;
#X connect 18 0 5 0;
#X connect 19 0 9 0;
#X connect 20 0 17 0;
#X connect 21 0 16 0;
#X restore 27 88 pd dist;
#X connect 0 0 2 0;
#X connect 1 0 0 0;
#X connect 3 0 14 0;
#X connect 4 0 5 0;
#X connect 5 0 16 1;
#X connect 6 0 7 0;
#X connect 6 1 8 0;
#X connect 7 0 9 0;
#X connect 8 0 9 1;
#X connect 9 0 15 0;
#X connect 10 0 11 0;
#X connect 11 0 0 1;
#X connect 12 0 4 0;
#X connect 13 0 7 1;
#X connect 13 0 8 1;
#X connect 13 0 15 1;
#X connect 14 0 16 0;
#X connect 14 1 13 0;
#X connect 15 0 10 0;
#X connect 16 0 6 0;
