#N canvas 87 126 842 454 10;
#X obj 12 16 spam.in~;
#X obj 12 133 env~;
#X obj 426 15 loadbang;
#X obj 426 197 t b b b, f 43;
#X obj 426 249 list;
#N canvas 0 22 450 300 clearer 0;
#X obj 23 54 f \$1;
#X obj 23 76 sel 0;
#X msg 23 121 \; pd-\$1 clear;
#X obj 23 35 inlet;
#X obj 23 97 symbol \$3;
#X connect 0 0 1 0;
#X connect 1 0 4 0;
#X connect 3 0 0 0;
#X connect 4 0 2 0;
#X restore 623 221 pd clearer;
#N canvas 0 22 450 300 get_ptr 0;
#X obj 4 72 pointer;
#X msg 4 48 traverse pd-\$1 \, bang;
#X obj 4 3 inlet;
#X obj 4 94 outlet;
#X obj 4 23 symbol \$3;
#X connect 0 0 3 0;
#X connect 1 0 0 0;
#X connect 2 0 4 0;
#X connect 4 0 1 0;
#X restore 555 222 pd get_ptr;
#X obj 639 251 r \$0-c3;
#X obj 663 272 r \$0-c4;
#X obj 591 251 r \$0-c1;
#X obj 615 272 r \$0-c2;
#X obj 12 225 t f f f f;
#X obj 12 397 filledpolygon c4 c4 s4 x1 y1 x1 y1;
#X obj 12 376 >= 100;
#X obj 29 355 filledpolygon c3 c3 s3 x1 y1 x1 y1;
#X obj 29 336 >= 94;
#X obj 46 315 filledpolygon c2 c2 s2 x1 y1 x1 y1;
#X obj 46 296 >= 88;
#X obj 73 230 filledpolygon c0 c0 s1 x1 y1 x1 y1;
#X obj 426 296 pack f f 8 16 24 32 555 90 990 950 900, f 40;
#X obj 195 14 struct \$0-t-meter float x1 float y1 float s1 float s2
float s3 float s4 float c0 float c1 float c2 float c3 float c4, f
35;
#X obj 426 320 append \$0-t-meter x1 y1 s1 s2 s3 s4 c0 c1 c2 c3 c4
, f 22;
#X obj 568 272 r \$0-c0;
#X obj 63 254 >= 1;
#X obj 473 272 r \$0-s1;
#X obj 497 251 r \$0-s2;
#X obj 520 272 r \$0-s3;
#X obj 544 251 r \$0-s4;
#X obj 426 37 delay 10;
#X obj 63 274 filledpolygon c1 c1 s1 x1 y1 x1 y1;
#X obj 12 202 spigot 0;
#X obj 31 178 f 0;
#X obj 31 156 t b b;
#X obj 57 178 f 1;
#X obj 33 63 dbtorms;
#X obj 33 85 + 1;
#X obj 12 105 *~ 1;
#X obj 33 39 r \$0-gain;
#X obj 426 145 t b b b b, f 52;
#N canvas 0 22 443 256 get.gain 0;
#X obj 48 137 s \$0-gain;
#X obj 14 12 inlet;
#X obj 14 108 list split 1;
#X obj 14 64 text search \$4;
#X obj 14 86 text get \$4;
#X obj 14 40 symbol gain;
#X connect 1 0 5 0;
#X connect 2 1 0 0;
#X connect 3 0 4 0;
#X connect 4 0 2 0;
#X connect 5 0 3 0;
#X restore 735 170 pd get.gain;
#N canvas 0 22 512 362 get.colors 0;
#X obj 97 137 t l l;
#X obj 124 159 list length;
#N canvas 536 255 450 300 pass 0;
#X obj 51 9 inlet;
#X obj 51 54 spigot, f 7;
#X obj 90 29 > 0;
#X obj 90 9 inlet;
#X obj 51 76 outlet;
#X connect 0 0 1 0;
#X connect 1 0 4 0;
#X connect 2 0 1 1;
#X connect 3 0 2 0;
#X restore 124 258 pd pass;
#X obj 124 280 s \$0-c1;
#N canvas 536 255 450 300 pass 0;
#X obj 51 9 inlet;
#X obj 51 54 spigot, f 7;
#X obj 90 9 inlet;
#X obj 51 76 outlet;
#X obj 90 29 > 3;
#X connect 0 0 1 0;
#X connect 1 0 3 0;
#X connect 2 0 4 0;
#X connect 4 0 1 1;
#X restore 208 214 pd pass;
#N canvas 536 255 450 300 pass 0;
#X obj 51 9 inlet;
#X obj 51 54 spigot, f 7;
#X obj 90 9 inlet;
#X obj 51 76 outlet;
#X obj 90 29 > 2;
#X connect 0 0 1 0;
#X connect 1 0 3 0;
#X connect 2 0 4 0;
#X connect 4 0 1 1;
#X restore 180 258 pd pass;
#X obj 180 280 s \$0-c3;
#X obj 208 236 s \$0-c4;
#N canvas 536 255 450 300 pass 0;
#X obj 51 9 inlet;
#X obj 51 54 spigot, f 7;
#X obj 90 9 inlet;
#X obj 51 76 outlet;
#X obj 90 29 > 1;
#X connect 0 0 1 0;
#X connect 1 0 3 0;
#X connect 2 0 4 0;
#X connect 4 0 1 1;
#X restore 152 215 pd pass;
#X obj 152 237 s \$0-c2;
#X obj 97 189 unpack f f f f f, f 19;
#N canvas 536 255 450 300 pass 0;
#X obj 51 9 inlet;
#X obj 51 54 spigot, f 7;
#X obj 90 9 inlet;
#X obj 51 76 outlet;
#X obj 90 29 > 4;
#X connect 0 0 1 0;
#X connect 1 0 3 0;
#X connect 2 0 4 0;
#X connect 4 0 1 1;
#X restore 97 215 pd pass;
#X obj 97 237 s \$0-c0;
#X obj 63 16 inlet;
#X obj 282 204 > 5;
#X obj 282 226 sel 1;
#X obj 282 272 print mat.2d.meter~;
#X msg 282 248 warning extra colors arguments;
#X obj 63 105 list split 1;
#X obj 63 37 symbol colors;
#X obj 63 61 text search \$4;
#X obj 63 83 text get \$4;
#X connect 0 0 10 0;
#X connect 0 1 1 0;
#X connect 1 0 11 1;
#X connect 1 0 2 1;
#X connect 1 0 8 1;
#X connect 1 0 5 1;
#X connect 1 0 4 1;
#X connect 1 0 14 0;
#X connect 2 0 3 0;
#X connect 4 0 7 0;
#X connect 5 0 6 0;
#X connect 8 0 9 0;
#X connect 10 0 11 0;
#X connect 10 1 2 0;
#X connect 10 2 8 0;
#X connect 10 3 5 0;
#X connect 10 4 4 0;
#X connect 11 0 12 0;
#X connect 13 0 19 0;
#X connect 14 0 15 0;
#X connect 15 0 17 0;
#X connect 17 0 16 0;
#X connect 18 1 0 0;
#X connect 19 0 20 0;
#X connect 20 0 21 0;
#X connect 21 0 18 0;
#X restore 632 172 pd get.colors;
#N canvas 0 22 590 300 get.sizes 0;
#X obj 194 198 sel 1;
#X obj 194 244 print mat.2d.meter~;
#X obj 59 126 unpack;
#X obj 59 148 swap, f 6;
#X obj 59 170 -, f 6;
#X obj 59 235 +;
#X obj 105 169 s \$0-s1;
#X obj 59 257 s \$0-s2;
#X obj 109 235 +;
#X obj 109 212 * 2;
#X obj 59 193 / 3;
#X obj 5 169 s \$0-s4;
#X obj 25 14 inlet;
#X obj 194 153 list length;
#X obj 194 176 != 2;
#X msg 194 220 warning size needs a minimum and a maximum;
#X obj 109 257 s \$0-s3;
#X obj 25 101 list split 1;
#X obj 25 57 text search \$4;
#X obj 25 79 text get \$4;
#X obj 25 33 symbol size;
#X connect 0 0 15 0;
#X connect 2 0 3 0;
#X connect 2 1 3 1;
#X connect 3 0 4 0;
#X connect 3 0 11 0;
#X connect 3 1 4 1;
#X connect 3 1 6 0;
#X connect 3 1 5 1;
#X connect 3 1 8 1;
#X connect 4 0 10 0;
#X connect 5 0 7 0;
#X connect 8 0 16 0;
#X connect 9 0 8 0;
#X connect 10 0 5 0;
#X connect 10 0 9 0;
#X connect 12 0 20 0;
#X connect 13 0 14 0;
#X connect 14 0 0 0;
#X connect 15 0 1 0;
#X connect 17 1 13 0;
#X connect 17 1 2 0;
#X connect 18 0 19 0;
#X connect 19 0 17 0;
#X connect 20 0 18 0;
#X restore 529 172 pd get.sizes;
#N canvas 0 22 584 342 get.positions 0;
#N canvas 368 171 450 300 l_it2 0;
#X obj 43 180 until;
#X obj 43 201 list append;
#X obj 43 223 list split 2;
#X obj 43 138 / 2;
#X obj 43 160 + 1;
#X obj 43 93 list length;
#N canvas 0 22 256 116 error 0;
#X obj 8 27 % 2;
#X obj 8 49 sel 1;
#X obj 8 6 inlet;
#X msg 8 71 list has an odd number of coordinates;
#X obj 8 93 print mat.2d.meter~ warning;
#X connect 0 0 1 0;
#X connect 1 0 3 0;
#X connect 2 0 0 0;
#X connect 3 0 4 0;
#X restore 53 116 pd error;
#X obj 43 59 t l l;
#X obj 43 35 inlet list;
#X obj 43 245 outlet end;
#X obj 113 245 outlet elements;
#X connect 0 0 1 0;
#X connect 1 0 2 0;
#X connect 2 0 10 0;
#X connect 2 1 1 1;
#X connect 2 2 9 0;
#X connect 3 0 4 0;
#X connect 4 0 0 0;
#X connect 5 0 6 0;
#X connect 5 0 3 0;
#X connect 7 0 5 0;
#X connect 7 1 1 1;
#X connect 8 0 7 0;
#X restore 46 153 pd l_it2;
#X obj 139 44 f 0;
#X obj 91 176 t l b, f 6;
#X obj 91 248 spigot;
#X obj 124 222 == \$1;
#X obj 124 200 f 0;
#X obj 154 200 + 1;
#X obj 12 22 t b b, f 22;
#X obj 12 3 inlet;
#X obj 12 116 list split 1;
#X obj 12 72 text search \$4;
#X obj 12 94 text get \$4;
#X obj 12 48 symbol positions;
#X obj 46 295 outlet;
#X obj 91 295 outlet;
#X connect 0 0 13 0;
#X connect 0 1 2 0;
#X connect 1 0 5 1;
#X connect 2 0 3 0;
#X connect 2 1 5 0;
#X connect 3 0 14 0;
#X connect 4 0 3 1;
#X connect 5 0 6 0;
#X connect 5 0 4 0;
#X connect 6 0 5 1;
#X connect 7 0 12 0;
#X connect 7 1 1 0;
#X connect 8 0 7 0;
#X connect 9 1 0 0;
#X connect 10 0 11 0;
#X connect 11 0 9 0;
#X connect 12 0 10 0;
#X restore 426 172 pd get.positions;
#X obj 426 59 t b b, f 8;
#X obj 426 121 spigot 0;
#X obj 471 79 f \$2;
#X obj 471 101 != 0;
#X connect 0 0 36 0;
#X connect 1 0 30 0;
#X connect 2 0 28 0;
#X connect 3 0 4 0;
#X connect 3 1 6 0;
#X connect 3 2 5 0;
#X connect 4 0 19 0;
#X connect 6 0 21 11;
#X connect 7 0 19 9;
#X connect 8 0 19 10;
#X connect 9 0 19 7;
#X connect 10 0 19 8;
#X connect 11 0 13 0;
#X connect 11 1 15 0;
#X connect 11 2 17 0;
#X connect 11 3 23 0;
#X connect 13 0 12 0;
#X connect 15 0 14 0;
#X connect 17 0 16 0;
#X connect 19 0 21 0;
#X connect 21 0 32 0;
#X connect 22 0 19 6;
#X connect 23 0 29 0;
#X connect 24 0 19 2;
#X connect 25 0 19 3;
#X connect 26 0 19 4;
#X connect 27 0 19 5;
#X connect 28 0 43 0;
#X connect 30 0 11 0;
#X connect 31 0 30 0;
#X connect 32 0 31 0;
#X connect 32 1 33 0;
#X connect 33 0 30 1;
#X connect 34 0 35 0;
#X connect 35 0 36 1;
#X connect 36 0 1 0;
#X connect 37 0 34 0;
#X connect 38 0 42 0;
#X connect 38 1 41 0;
#X connect 38 2 40 0;
#X connect 38 3 39 0;
#X connect 42 0 3 0;
#X connect 42 1 4 1;
#X connect 43 0 44 0;
#X connect 43 1 45 0;
#X connect 44 0 38 0;
#X connect 45 0 46 0;
#X connect 46 0 44 1;
