#N canvas 214 137 687 558 10;
#X declare -stdpath spam;
#X obj 12 16 spam.in~;
#X obj 132 85 loadbang;
#X obj 12 485 set \$0-t-scope c1, f 25;
#X obj 132 263 t b b b, f 45;
#N canvas 914 76 343 421 compute_bounds 0;
#X obj 162 163 /, f 6;
#X obj 219 163 /, f 6;
#X obj 18 12 inlet;
#X obj 18 358 pack f f f f, f 29;
#X obj 18 380 outlet;
#X obj 189 261 +;
#X obj 132 283 +;
#X obj 18 258 t f f, f 19;
#X obj 18 34 t b b, f 20;
#X obj 162 119 t b f, f 6;
#X obj 219 119 t b f, f 6;
#X obj 18 102 tools/mat.2d.itorc;
#X obj 135 77 t l l;
#X obj 162 97 unpack f f;
#X obj 135 55 tools/mat.2d.getdim \$2;
#X obj 18 56 f \$1;
#X obj 18 166 *;
#X obj 75 228 t f f, f 19;
#X obj 18 124 unpack, f 10;
#X obj 18 190 - 1;
#X obj 75 190 - 1;
#X obj 162 141 f 2;
#X obj 219 141 f 2;
#X obj 75 166 *;
#X obj 162 185 swap, f 10;
#X obj 18 146 swap, f 10;
#X obj 189 283 * -1;
#X obj 75 303 * -1;
#X connect 0 0 16 1;
#X connect 0 0 24 0;
#X connect 1 0 23 1;
#X connect 1 0 24 1;
#X connect 2 0 8 0;
#X connect 3 0 4 0;
#X connect 5 0 26 0;
#X connect 6 0 3 2;
#X connect 7 0 3 0;
#X connect 7 1 6 0;
#X connect 8 0 15 0;
#X connect 8 1 14 0;
#X connect 9 0 21 0;
#X connect 9 1 0 1;
#X connect 10 0 22 0;
#X connect 10 1 1 1;
#X connect 11 0 18 0;
#X connect 12 0 11 1;
#X connect 12 1 13 0;
#X connect 13 0 9 0;
#X connect 13 1 10 0;
#X connect 14 0 12 0;
#X connect 15 0 11 0;
#X connect 16 0 19 0;
#X connect 17 0 27 0;
#X connect 17 1 5 0;
#X connect 18 0 25 0;
#X connect 18 1 25 1;
#X connect 19 0 7 0;
#X connect 20 0 17 0;
#X connect 21 0 0 0;
#X connect 22 0 1 0;
#X connect 23 0 20 0;
#X connect 24 0 6 1;
#X connect 24 1 5 1;
#X connect 25 0 16 0;
#X connect 25 1 23 0;
#X connect 26 0 3 3;
#X connect 27 0 3 1;
#X restore 132 303 pd compute_bounds;
#X obj 12 128 env~;
#N canvas 627 102 450 300 set_colors 0;
#X obj 63 117 t l l;
#X obj 90 139 list length;
#N canvas 536 255 450 300 pass 0;
#X obj 51 9 inlet;
#X obj 51 54 spigot, f 7;
#X obj 90 29 > 0;
#X obj 90 9 inlet;
#X obj 51 76 outlet;
#X connect 0 0 1 0;
#X connect 1 0 4 0;
#X connect 2 0 1 1;
#X connect 3 0 2 0;
#X restore 90 258 pd pass;
#X obj 90 280 s \$0-c1;
#N canvas 536 255 450 300 pass 0;
#X obj 51 9 inlet;
#X obj 51 54 spigot, f 7;
#X obj 90 9 inlet;
#X obj 51 76 outlet;
#X obj 90 29 > 3;
#X connect 0 0 1 0;
#X connect 1 0 3 0;
#X connect 2 0 4 0;
#X connect 4 0 1 1;
#X restore 174 214 pd pass;
#N canvas 536 255 450 300 pass 0;
#X obj 51 9 inlet;
#X obj 51 54 spigot, f 7;
#X obj 90 9 inlet;
#X obj 51 76 outlet;
#X obj 90 29 > 2;
#X connect 0 0 1 0;
#X connect 1 0 3 0;
#X connect 2 0 4 0;
#X connect 4 0 1 1;
#X restore 146 258 pd pass;
#X obj 146 280 s \$0-c3;
#X obj 174 236 s \$0-c4;
#N canvas 536 255 450 300 pass 0;
#X obj 51 9 inlet;
#X obj 51 54 spigot, f 7;
#X obj 90 9 inlet;
#X obj 51 76 outlet;
#X obj 90 29 > 1;
#X connect 0 0 1 0;
#X connect 1 0 3 0;
#X connect 2 0 4 0;
#X connect 4 0 1 1;
#X restore 118 215 pd pass;
#X obj 118 237 s \$0-c2;
#X obj 63 189 unpack f f f f f, f 19;
#N canvas 536 255 450 300 pass 0;
#X obj 51 9 inlet;
#X obj 51 54 spigot, f 7;
#X obj 90 9 inlet;
#X obj 51 76 outlet;
#X obj 90 29 > 4;
#X connect 0 0 1 0;
#X connect 1 0 3 0;
#X connect 2 0 4 0;
#X connect 4 0 1 1;
#X restore 63 215 pd pass;
#X obj 63 237 s \$0-c0;
#X obj 29 6 inlet;
#X obj 248 204 > 5;
#X obj 248 226 sel 1;
#X obj 248 272 print mat.2d.meter~;
#X msg 248 248 warning extra colors arguments;
#X obj 63 78 tools/mat.2d.txt.get \$2 mat.scope.colors;
#X connect 0 0 10 0;
#X connect 0 1 1 0;
#X connect 1 0 11 1;
#X connect 1 0 2 1;
#X connect 1 0 8 1;
#X connect 1 0 5 1;
#X connect 1 0 4 1;
#X connect 1 0 14 0;
#X connect 2 0 3 0;
#X connect 4 0 7 0;
#X connect 5 0 6 0;
#X connect 8 0 9 0;
#X connect 10 0 11 0;
#X connect 10 1 2 0;
#X connect 10 2 8 0;
#X connect 10 3 5 0;
#X connect 10 4 4 0;
#X connect 11 0 12 0;
#X connect 13 0 18 0;
#X connect 14 0 15 0;
#X connect 15 0 17 0;
#X connect 17 0 16 0;
#X connect 18 0 0 0;
#X restore 151 190 pd set_colors;
#X obj 160 11 struct \$0-t-scope float x1 float y1 float x2 float y2
float c1 float c2;
#X obj 160 54 filledpolygon c1 c2 1 x1 y1 x2 y1 x2 y2 x1 y2 x1 y1;
#X obj 132 386 append \$0-t-scope c1 c2 x1 y1 x2 y2, f 23;
#X obj 132 107 delay 10;
#N canvas 0 22 442 559 map_colors 0;
#X obj 12 42 t b f f f f;
#X obj 75 62 >= 1;
#X obj 59 123 >= 88;
#X obj 43 195 >= 94;
#X obj 27 258 >= 100;
#X obj 75 104 f 1;
#X obj 59 166 f 2;
#X obj 43 237 f 3;
#X obj 27 300 f 4;
#X obj 12 64 f 0;
#X obj 12 321 +;
#X obj 12 343 sel 0 1 2 3 4, f 19;
#X obj 105 444 r \$0-c3;
#X obj 127 362 r \$0-c4;
#X obj 55 383 r \$0-c1;
#X obj 83 402 r \$0-c2;
#X obj 39 423 r \$0-c0;
#X obj 34 403 f 90;
#X obj 56 445 f 990;
#X obj 78 465 f 950;
#X obj 100 383 f 900;
#X obj 75 84 sel 1;
#X obj 59 145 sel 1;
#X obj 43 217 sel 1;
#X obj 27 280 sel 1;
#X obj 12 16 inlet;
#X obj 12 485 outlet;
#X obj 12 445 f 999;
#X connect 0 0 9 0;
#X connect 0 1 4 0;
#X connect 0 2 3 0;
#X connect 0 3 2 0;
#X connect 0 4 1 0;
#X connect 1 0 21 0;
#X connect 2 0 22 0;
#X connect 3 0 23 0;
#X connect 4 0 24 0;
#X connect 5 0 10 1;
#X connect 6 0 10 1;
#X connect 7 0 10 1;
#X connect 8 0 10 1;
#X connect 9 0 10 0;
#X connect 10 0 11 0;
#X connect 11 0 27 0;
#X connect 11 1 17 0;
#X connect 11 2 18 0;
#X connect 11 3 19 0;
#X connect 11 4 20 0;
#X connect 12 0 19 1;
#X connect 13 0 20 1;
#X connect 14 0 17 1;
#X connect 15 0 18 1;
#X connect 16 0 27 1;
#X connect 17 0 26 0;
#X connect 18 0 26 0;
#X connect 19 0 26 0;
#X connect 20 0 26 0;
#X connect 21 0 5 0;
#X connect 21 1 10 1;
#X connect 22 0 6 0;
#X connect 23 0 7 0;
#X connect 24 0 8 0;
#X connect 25 0 0 0;
#X connect 27 0 26 0;
#X restore 12 454 pd map_colors;
#X obj 12 432 spigot 0;
#X obj 132 421 t b p;
#X obj 132 443 f 1;
#X obj 237 306 r \$0-c0;
#X obj 132 329 pack f f f f 999, f 18;
#X msg 132 355 \$5 0 \$1 \$2 \$3 \$4;
#X obj 33 63 dbtorms;
#X obj 33 85 + 1;
#X obj 12 105 *~ 1;
#X obj 132 169 t b b b, f 18;
#N canvas 0 22 450 300 activate 0;
#X obj 29 70 text get \$2;
#X obj 29 49 f 0;
#X obj 29 92 bang;
#X obj 29 114 f 1;
#X obj 29 26 inlet;
#X obj 29 136 s \$0-active;
#X connect 0 0 2 0;
#X connect 1 0 0 0;
#X connect 2 0 3 0;
#X connect 3 0 5 0;
#X connect 4 0 1 0;
#X restore 159 150 pd activate;
#N canvas 0 22 450 300 clearer 0;
#X obj 23 54 f \$1;
#X obj 23 76 sel 0;
#X msg 23 121 \; pd-\$1 clear;
#X obj 23 35 inlet;
#X obj 23 97 symbol \$3;
#X connect 0 0 1 0;
#X connect 1 0 4 0;
#X connect 3 0 0 0;
#X connect 4 0 2 0;
#X restore 342 289 pd clearer;
#N canvas 0 22 450 300 get_ptr 0;
#X obj 4 72 pointer;
#X msg 4 48 traverse pd-\$1 \, bang;
#X obj 4 3 inlet;
#X obj 4 94 outlet;
#X obj 4 23 symbol \$3;
#X connect 0 0 3 0;
#X connect 1 0 0 0;
#X connect 2 0 4 0;
#X connect 4 0 1 0;
#X restore 265 290 pd get_ptr;
#X obj 33 39 r \$0-gain;
#X obj 132 129 t b b;
#X obj 132 236 spigot 0;
#N canvas 0 22 187 147 set_gain 0;
#X obj 14 38 tools/mat.2d.txt.get \$2 mat.scope.gain, f 20;
#X obj 14 77 s \$0-gain;
#X obj 14 12 inlet;
#X connect 0 0 1 0;
#X connect 2 0 0 0;
#X restore 237 191 pd set_gain;
#X obj 177 216 r \$0-active;
#X obj 534 14 declare -stdpath spam;
#X connect 0 0 20 0;
#X connect 1 0 10 0;
#X connect 3 0 4 0;
#X connect 3 1 24 0;
#X connect 3 2 23 0;
#X connect 4 0 16 0;
#X connect 5 0 12 0;
#X connect 9 0 13 0;
#X connect 10 0 26 0;
#X connect 11 0 2 0;
#X connect 12 0 11 0;
#X connect 13 0 14 0;
#X connect 13 1 2 1;
#X connect 14 0 12 1;
#X connect 15 0 16 4;
#X connect 16 0 17 0;
#X connect 17 0 9 0;
#X connect 18 0 19 0;
#X connect 19 0 20 1;
#X connect 20 0 5 0;
#X connect 21 0 27 0;
#X connect 21 1 6 0;
#X connect 21 2 28 0;
#X connect 24 0 9 6;
#X connect 25 0 18 0;
#X connect 26 0 21 0;
#X connect 26 1 22 0;
#X connect 27 0 3 0;
#X connect 29 0 27 1;
