#N struct 3092-t-scope float x1 float y1 float x2 float y2 float c1
float c2;
#N struct 3087-t-scope float x1 float y1 float x2 float y2 float c1
float c2;
#N struct 3082-t-scope float x1 float y1 float x2 float y2 float c1
float c2;
#N struct 3077-t-scope float x1 float y1 float x2 float y2 float c1
float c2;
#N struct 3072-t-scope float x1 float y1 float x2 float y2 float c1
float c2;
#N struct 3067-t-scope float x1 float y1 float x2 float y2 float c1
float c2;
#N struct 3062-t-scope float x1 float y1 float x2 float y2 float c1
float c2;
#N struct 3057-t-scope float x1 float y1 float x2 float y2 float c1
float c2;
#N struct 3052-t-scope float x1 float y1 float x2 float y2 float c1
float c2;
#N struct 3047-t-scope float x1 float y1 float x2 float y2 float c1
float c2;
#N struct 3042-t-scope float x1 float y1 float x2 float y2 float c1
float c2;
#N struct 3037-t-scope float x1 float y1 float x2 float y2 float c1
float c2;
#N struct 3032-t-scope float x1 float y1 float x2 float y2 float c1
float c2;
#N struct 3027-t-scope float x1 float y1 float x2 float y2 float c1
float c2;
#N struct 3022-t-scope float x1 float y1 float x2 float y2 float c1
float c2;
#N struct 3017-t-scope float x1 float y1 float x2 float y2 float c1
float c2;
#N struct 3012-t-scope float x1 float y1 float x2 float y2 float c1
float c2;
#N struct 3007-t-scope float x1 float y1 float x2 float y2 float c1
float c2;
#N struct 3002-t-scope float x1 float y1 float x2 float y2 float c1
float c2;
#N struct 2997-t-scope float x1 float y1 float x2 float y2 float c1
float c2;
#N struct 2992-t-scope float x1 float y1 float x2 float y2 float c1
float c2;
#N struct 2987-t-scope float x1 float y1 float x2 float y2 float c1
float c2;
#N struct 2982-t-scope float x1 float y1 float x2 float y2 float c1
float c2;
#N struct 2977-t-scope float x1 float y1 float x2 float y2 float c1
float c2;
#N struct 2972-t-scope float x1 float y1 float x2 float y2 float c1
float c2;
#N struct 2967-t-scope float x1 float y1 float x2 float y2 float c1
float c2;
#N struct 2962-t-scope float x1 float y1 float x2 float y2 float c1
float c2;
#N struct 2957-t-scope float x1 float y1 float x2 float y2 float c1
float c2;
#N struct 2952-t-scope float x1 float y1 float x2 float y2 float c1
float c2;
#N struct 2947-t-scope float x1 float y1 float x2 float y2 float c1
float c2;
#N struct 2942-t-scope float x1 float y1 float x2 float y2 float c1
float c2;
#N struct 2937-t-scope float x1 float y1 float x2 float y2 float c1
float c2;
#N struct 2932-t-scope float x1 float y1 float x2 float y2 float c1
float c2;
#N struct 2927-t-scope float x1 float y1 float x2 float y2 float c1
float c2;
#N struct 2922-t-scope float x1 float y1 float x2 float y2 float c1
float c2;
#N struct 2917-t-scope float x1 float y1 float x2 float y2 float c1
float c2;
#N struct 2912-t-scope float x1 float y1 float x2 float y2 float c1
float c2;
#N struct 2907-t-scope float x1 float y1 float x2 float y2 float c1
float c2;
#N struct 2902-t-scope float x1 float y1 float x2 float y2 float c1
float c2;
#N struct 2897-t-scope float x1 float y1 float x2 float y2 float c1
float c2;
#N struct 2892-t-scope float x1 float y1 float x2 float y2 float c1
float c2;
#N struct 2887-t-scope float x1 float y1 float x2 float y2 float c1
float c2;
#N struct 2882-t-scope float x1 float y1 float x2 float y2 float c1
float c2;
#N struct 2877-t-scope float x1 float y1 float x2 float y2 float c1
float c2;
#N struct 2872-t-scope float x1 float y1 float x2 float y2 float c1
float c2;
#N struct 2867-t-scope float x1 float y1 float x2 float y2 float c1
float c2;
#N struct 2862-t-scope float x1 float y1 float x2 float y2 float c1
float c2;
#N struct 2857-t-scope float x1 float y1 float x2 float y2 float c1
float c2;
#N struct 2852-t-scope float x1 float y1 float x2 float y2 float c1
float c2;
#N struct 2847-t-scope float x1 float y1 float x2 float y2 float c1
float c2;
#N struct 2842-t-scope float x1 float y1 float x2 float y2 float c1
float c2;
#N struct 2837-t-scope float x1 float y1 float x2 float y2 float c1
float c2;
#N struct 2832-t-scope float x1 float y1 float x2 float y2 float c1
float c2;
#N struct 2827-t-scope float x1 float y1 float x2 float y2 float c1
float c2;
#N struct 2822-t-scope float x1 float y1 float x2 float y2 float c1
float c2;
#N struct 2817-t-scope float x1 float y1 float x2 float y2 float c1
float c2;
#N struct 2812-t-scope float x1 float y1 float x2 float y2 float c1
float c2;
#N struct 2807-t-scope float x1 float y1 float x2 float y2 float c1
float c2;
#N struct 2802-t-scope float x1 float y1 float x2 float y2 float c1
float c2;
#N struct 2797-t-scope float x1 float y1 float x2 float y2 float c1
float c2;
#N struct 2792-t-scope float x1 float y1 float x2 float y2 float c1
float c2;
#N struct 2787-t-scope float x1 float y1 float x2 float y2 float c1
float c2;
#N struct 2782-t-scope float x1 float y1 float x2 float y2 float c1
float c2;
#N struct 2777-t-scope float x1 float y1 float x2 float y2 float c1
float c2;
#N struct 3132-t-meter float x1 float y1 float s1 float s2 float s3
float s4 float c0 float c1 float c2 float c3 float c4;
#N struct 3127-t-meter float x1 float y1 float s1 float s2 float s3
float s4 float c0 float c1 float c2 float c3 float c4;
#N struct 3122-t-meter float x1 float y1 float s1 float s2 float s3
float s4 float c0 float c1 float c2 float c3 float c4;
#N struct 3117-t-meter float x1 float y1 float s1 float s2 float s3
float s4 float c0 float c1 float c2 float c3 float c4;
#N struct 3112-t-meter float x1 float y1 float s1 float s2 float s3
float s4 float c0 float c1 float c2 float c3 float c4;
#N struct 3107-t-meter float x1 float y1 float s1 float s2 float s3
float s4 float c0 float c1 float c2 float c3 float c4;
#N struct 3102-t-meter float x1 float y1 float s1 float s2 float s3
float s4 float c0 float c1 float c2 float c3 float c4;
#N struct 3097-t-meter float x1 float y1 float s1 float s2 float s3
float s4 float c0 float c1 float c2 float c3 float c4;
#N canvas 589 109 427 660 10;
#X declare -stdpath spam;
#X obj 77 239 dbtorms;
#X obj 77 219 nbx 5 14 0 100 0 0 empty \$0-gain empty 0 -8 0 10 -262144
-1 -1 77 256;
#X obj 77 261 pack f 20;
#X obj 77 283 line~;
#X obj 14 316 *~, f 11;
#X obj 155 250 nbx 5 14 0.5 100 0 0 empty \$0-spread empty 0 -8 0 10
-262144 -1 -1 9 256;
#X obj 303 251 nbx 5 14 -1e+37 1e+37 0 0 empty \$0-delay empty 0 -8
0 10 -262144 -1 -1 1544 256;
#X msg 303 269 delay \$1;
#N canvas 0 22 223 200 \$0-scope 0;
#X scalar 3092-t-scope 0.75 -0.75 1 -1 999 0 \;;
#X scalar 3087-t-scope 0.5 -0.75 0.75 -1 999 0 \;;
#X scalar 3082-t-scope 0.25 -0.75 0.5 -1 999 0 \;;
#X scalar 3077-t-scope 0 -0.75 0.25 -1 999 0 \;;
#X scalar 3072-t-scope -0.25 -0.75 0 -1 999 0 \;;
#X scalar 3067-t-scope -0.5 -0.75 -0.25 -1 999 0 \;;
#X scalar 3062-t-scope -0.75 -0.75 -0.5 -1 999 0 \;;
#X scalar 3057-t-scope -1 -0.75 -0.75 -1 999 0 \;;
#X scalar 3052-t-scope 0.75 -0.5 1 -0.75 999 0 \;;
#X scalar 3047-t-scope 0.5 -0.5 0.75 -0.75 999 0 \;;
#X scalar 3042-t-scope 0.25 -0.5 0.5 -0.75 999 0 \;;
#X scalar 3037-t-scope 0 -0.5 0.25 -0.75 999 0 \;;
#X scalar 3032-t-scope -0.25 -0.5 0 -0.75 999 0 \;;
#X scalar 3027-t-scope -0.5 -0.5 -0.25 -0.75 999 0 \;;
#X scalar 3022-t-scope -0.75 -0.5 -0.5 -0.75 999 0 \;;
#X scalar 3017-t-scope -1 -0.5 -0.75 -0.75 999 0 \;;
#X scalar 3012-t-scope 0.75 -0.25 1 -0.5 999 0 \;;
#X scalar 3007-t-scope 0.5 -0.25 0.75 -0.5 999 0 \;;
#X scalar 3002-t-scope 0.25 -0.25 0.5 -0.5 90 0 \;;
#X scalar 2997-t-scope 0 -0.25 0.25 -0.5 90 0 \;;
#X scalar 2992-t-scope -0.25 -0.25 0 -0.5 999 0 \;;
#X scalar 2987-t-scope -0.5 -0.25 -0.25 -0.5 999 0 \;;
#X scalar 2982-t-scope -0.75 -0.25 -0.5 -0.5 999 0 \;;
#X scalar 2977-t-scope -1 -0.25 -0.75 -0.5 90 0 \;;
#X scalar 2972-t-scope 0.75 -0 1 -0.25 999 0 \;;
#X scalar 2967-t-scope 0.5 -0 0.75 -0.25 999 0 \;;
#X scalar 2962-t-scope 0.25 -0 0.5 -0.25 999 0 \;;
#X scalar 2957-t-scope 0 -0 0.25 -0.25 999 0 \;;
#X scalar 2952-t-scope -0.25 -0 0 -0.25 999 0 \;;
#X scalar 2947-t-scope -0.5 -0 -0.25 -0.25 999 0 \;;
#X scalar 2942-t-scope -0.75 -0 -0.5 -0.25 999 0 \;;
#X scalar 2937-t-scope -1 -0 -0.75 -0.25 999 0 \;;
#X scalar 2932-t-scope 0.75 0.25 1 -0 999 0 \;;
#X scalar 2927-t-scope 0.5 0.25 0.75 -0 999 0 \;;
#X scalar 2922-t-scope 0.25 0.25 0.5 -0 999 0 \;;
#X scalar 2917-t-scope 0 0.25 0.25 -0 999 0 \;;
#X scalar 2912-t-scope -0.25 0.25 0 -0 999 0 \;;
#X scalar 2907-t-scope -0.5 0.25 -0.25 -0 999 0 \;;
#X scalar 2902-t-scope -0.75 0.25 -0.5 -0 999 0 \;;
#X scalar 2897-t-scope -1 0.25 -0.75 -0 999 0 \;;
#X scalar 2892-t-scope 0.75 0.5 1 0.25 999 0 \;;
#X scalar 2887-t-scope 0.5 0.5 0.75 0.25 999 0 \;;
#X scalar 2882-t-scope 0.25 0.5 0.5 0.25 90 0 \;;
#X scalar 2877-t-scope 0 0.5 0.25 0.25 90 0 \;;
#X scalar 2872-t-scope -0.25 0.5 0 0.25 999 0 \;;
#X scalar 2867-t-scope -0.5 0.5 -0.25 0.25 999 0 \;;
#X scalar 2862-t-scope -0.75 0.5 -0.5 0.25 999 0 \;;
#X scalar 2857-t-scope -1 0.5 -0.75 0.25 90 0 \;;
#X scalar 2852-t-scope 0.75 0.75 1 0.5 999 0 \;;
#X scalar 2847-t-scope 0.5 0.75 0.75 0.5 999 0 \;;
#X scalar 2842-t-scope 0.25 0.75 0.5 0.5 999 0 \;;
#X scalar 2837-t-scope 0 0.75 0.25 0.5 999 0 \;;
#X scalar 2832-t-scope -0.25 0.75 0 0.5 999 0 \;;
#X scalar 2827-t-scope -0.5 0.75 -0.25 0.5 999 0 \;;
#X scalar 2822-t-scope -0.75 0.75 -0.5 0.5 999 0 \;;
#X scalar 2817-t-scope -1 0.75 -0.75 0.5 999 0 \;;
#X scalar 2812-t-scope 0.75 1 1 0.75 999 0 \;;
#X scalar 2807-t-scope 0.5 1 0.75 0.75 999 0 \;;
#X scalar 2802-t-scope 0.25 1 0.5 0.75 999 0 \;;
#X scalar 2797-t-scope 0 1 0.25 0.75 999 0 \;;
#X scalar 2792-t-scope -0.25 1 0 0.75 999 0 \;;
#X scalar 2787-t-scope -0.5 1 -0.25 0.75 999 0 \;;
#X scalar 2782-t-scope -0.75 1 -0.5 0.75 999 0 \;;
#X scalar 2777-t-scope -1 1 -0.75 0.75 999 0 \;;
#X coords -1 1 1 -1 150 150 2 100 100;
#X restore 16 385 pd \$0-scope;
#X obj 228 250 tools/mat.gnbx2;
#X obj 10 155 text define -k \$0-config;
#A set mat.dim 8 8 \; mat.dec.nls 8 \; mat.dec.positions -0.530331
0.530329 -0.75 -1.67489e-06 -0.530329 -0.530332 2.51234e-06 -0.75 0.530332
-0.530328 0.75 3.34978e-06 0.530328 0.530333 -4.18723e-06 0.75 \; mat.dec.rolloff
40 \; mat.dec.blur 0.001 \; mat.meter.nls 8 \; mat.meter.positions
-0.530331 0.530329 -0.75 -1.67489e-06 -0.530329 -0.530332 2.51234e-06
-0.75 0.530332 -0.530328 0.75 3.34978e-06 0.530328 0.530333 -4.18723e-06
0.75 \;;
#X f 25;
#X obj 14 584 dac~ 1 2 3 4 5 6 7 8, f 56;
#X obj 14 360 spam~ 64 mat.2d.scope~ \$0-config \$0-scope, f 56;
#X obj 14 563 spam~ 8 mat.2d.meter~ \$0-config \$0-meter, f 56;
#N canvas 0 22 450 300 \$0-meter 0;
#X scalar 3132-t-meter -4.18723e-06 0.75 8 16 24 32 555 90 990 950
900 \;;
#X scalar 3127-t-meter 0.530328 0.530333 8 16 24 32 555 90 990 950
900 \;;
#X scalar 3122-t-meter 0.75 3.34978e-06 8 16 24 32 555 90 990 950 900
\;;
#X scalar 3117-t-meter 0.530332 -0.530328 8 16 24 32 555 90 990 950
900 \;;
#X scalar 3112-t-meter 2.51234e-06 -0.75 8 16 24 32 555 90 990 950
900 \;;
#X scalar 3107-t-meter -0.530329 -0.530332 8 16 24 32 555 90 990 950
900 \;;
#X scalar 3102-t-meter -0.75 -1.67489e-06 8 16 24 32 555 90 990 950
900 \;;
#X scalar 3097-t-meter -0.530331 0.530329 8 16 24 32 555 90 990 950
900 \;;
#X coords -1 1 1 -1 153 153 2 100 100;
#X restore 201 385 pd \$0-meter;
#N canvas 0 22 450 300 init 0;
#X obj 13 42 loadbang;
#X obj 13 86 s \$0-gain;
#X obj 173 42 loadbang;
#X obj 173 87 s \$0-delay;
#X obj 106 41 loadbang;
#X obj 106 86 s \$0-auto;
#X msg 173 64 250;
#X msg 106 63 0;
#X obj 106 122 loadbang;
#X obj 106 167 s \$0-spread;
#X obj 196 122 loadbang;
#X obj 196 167 s \$0-pos;
#X msg 196 144 1 1;
#X msg 13 64 60;
#X msg 106 144 9;
#X connect 0 0 13 0;
#X connect 2 0 6 0;
#X connect 4 0 7 0;
#X connect 6 0 3 0;
#X connect 7 0 5 0;
#X connect 8 0 14 0;
#X connect 10 0 12 0;
#X connect 12 0 11 0;
#X connect 13 0 1 0;
#X connect 14 0 9 0;
#X restore 14 179 pd init;
#X obj 14 290 *~;
#N canvas 334 63 191 239 e 0;
#X obj 50 195 outlet~;
#X obj 50 167 line~;
#X obj 50 66 tgl 15 0 empty empty empty 17 7 0 10 -262144 -1 -1 1 1
;
#X obj 48 23 loadbang;
#X msg 48 45 1;
#X obj 91 106 delay 20;
#X msg 91 128 0 30;
#X msg 50 128 1 20;
#X obj 50 84 metro 750;
#X connect 1 0 0 0;
#X connect 2 0 8 0;
#X connect 3 0 4 0;
#X connect 4 0 2 0;
#X connect 5 0 6 0;
#X connect 6 0 1 0;
#X connect 7 0 1 0;
#X connect 8 0 7 0;
#X connect 8 0 5 0;
#X restore 29 264 pd e;
#X text 4 138 The text object must define the dimensions of the matrix.
;
#X obj 296 315 r \$0-vd;
#X obj 303 291 s \$0-vd;
#X obj 228 291 s \$0-vd;
#X obj 155 291 s \$0-vd;
#X obj 228 229 r \$0-pos;
#X text 4 28 The abstraction synthesizes the signals of matrix using
variable delay lines without flanging effect. The goal is to create
a spatial smudge effect. When a cell is distant from the encoding position
the delay increases resulting in a sound that is spread progressively
from the encoding position toward the rest of the space while the sound
decreases.;
#X obj 6 7 declare -stdpath spam;
#X obj 5 5 mat.header mat.2d.meter~;
#X obj 6 612 mat.footer;
#X msg 155 269 size \$1;
#X obj 14 221 noise~;
#X obj 342 179 bng 15 250 50 0 empty empty empty 17 7 0 10 -262144
-1 -1;
#X obj 342 199 spam.connect;
#X obj 14 542 spam~ 64 mat.2d.dec.dbap~ \$0-config, f 56;
#X obj 14 337 spam~ 64 mat.2d.bucket~ \$0-config, f 56;
#X obj 191 178 tgl 15 0 empty empty empty 17 7 0 10 -262144 -1 -1 1
1;
#N canvas 0 22 573 343 trajectory 0;
#X obj 54 191 t f f, f 15;
#X obj 54 249 pack f f, f 15;
#X obj 141 227 sin;
#X obj 54 271 outlet;
#X obj 17 25 inlet;
#X obj 54 227 cos;
#X obj 79 71 sel 5;
#X obj 116 131 / 5;
#X obj 119 71 + 1;
#X obj 79 103 f 0;
#X obj 79 49 f 0;
#X obj 107 103 f 1;
#X obj 116 151 * 6.28319;
#X obj 79 27 metro 750;
#X connect 0 0 5 0;
#X connect 0 1 2 0;
#X connect 1 0 3 0;
#X connect 2 0 1 1;
#X connect 4 0 13 0;
#X connect 5 0 1 0;
#X connect 6 0 9 0;
#X connect 6 0 11 0;
#X connect 6 1 7 0;
#X connect 6 1 8 0;
#X connect 7 0 12 0;
#X connect 8 0 10 1;
#X connect 9 0 7 0;
#X connect 10 0 6 0;
#X connect 11 0 10 1;
#X connect 12 0 0 0;
#X connect 13 0 10 0;
#X restore 191 202 pd trajectory;
#X connect 0 0 2 0;
#X connect 1 0 0 0;
#X connect 2 0 3 0;
#X connect 3 0 4 1;
#X connect 4 0 33 0;
#X connect 5 0 28 0;
#X connect 6 0 7 0;
#X connect 7 0 20 0;
#X connect 9 0 21 0;
#X connect 16 0 4 0;
#X connect 17 0 16 1;
#X connect 19 0 33 1;
#X connect 23 0 9 0;
#X connect 28 0 22 0;
#X connect 29 0 16 0;
#X connect 30 0 31 0;
#X connect 32 0 13 0;
#X connect 32 0 11 0;
#X connect 32 1 13 1;
#X connect 32 1 11 1;
#X connect 32 2 13 2;
#X connect 32 2 11 2;
#X connect 32 3 13 3;
#X connect 32 3 11 3;
#X connect 32 4 13 4;
#X connect 32 4 11 4;
#X connect 32 5 13 5;
#X connect 32 5 11 5;
#X connect 32 6 13 6;
#X connect 32 6 11 6;
#X connect 32 7 13 7;
#X connect 32 7 11 7;
#X connect 33 0 12 0;
#X connect 33 0 32 0;
#X connect 33 1 12 1;
#X connect 33 1 32 1;
#X connect 33 2 12 2;
#X connect 33 2 32 2;
#X connect 33 3 12 3;
#X connect 33 3 32 3;
#X connect 33 4 12 4;
#X connect 33 4 32 4;
#X connect 33 5 12 5;
#X connect 33 5 32 5;
#X connect 33 6 12 6;
#X connect 33 6 32 6;
#X connect 33 7 12 7;
#X connect 33 7 32 7;
#X connect 33 8 12 8;
#X connect 33 8 32 8;
#X connect 33 9 12 9;
#X connect 33 9 32 9;
#X connect 33 10 12 10;
#X connect 33 10 32 10;
#X connect 33 11 12 11;
#X connect 33 11 32 11;
#X connect 33 12 12 12;
#X connect 33 12 32 12;
#X connect 33 13 12 13;
#X connect 33 13 32 13;
#X connect 33 14 12 14;
#X connect 33 14 32 14;
#X connect 33 15 12 15;
#X connect 33 15 32 15;
#X connect 33 16 12 16;
#X connect 33 16 32 16;
#X connect 33 17 12 17;
#X connect 33 17 32 17;
#X connect 33 18 12 18;
#X connect 33 18 32 18;
#X connect 33 19 12 19;
#X connect 33 19 32 19;
#X connect 33 20 12 20;
#X connect 33 20 32 20;
#X connect 33 21 12 21;
#X connect 33 21 32 21;
#X connect 33 22 12 22;
#X connect 33 22 32 22;
#X connect 33 23 12 23;
#X connect 33 23 32 23;
#X connect 33 24 12 24;
#X connect 33 24 32 24;
#X connect 33 25 12 25;
#X connect 33 25 32 25;
#X connect 33 26 12 26;
#X connect 33 26 32 26;
#X connect 33 27 12 27;
#X connect 33 27 32 27;
#X connect 33 28 12 28;
#X connect 33 28 32 28;
#X connect 33 29 12 29;
#X connect 33 29 32 29;
#X connect 33 30 12 30;
#X connect 33 30 32 30;
#X connect 33 31 12 31;
#X connect 33 31 32 31;
#X connect 33 32 12 32;
#X connect 33 32 32 32;
#X connect 33 33 12 33;
#X connect 33 33 32 33;
#X connect 33 34 12 34;
#X connect 33 34 32 34;
#X connect 33 35 12 35;
#X connect 33 35 32 35;
#X connect 33 36 12 36;
#X connect 33 36 32 36;
#X connect 33 37 12 37;
#X connect 33 37 32 37;
#X connect 33 38 12 38;
#X connect 33 38 32 38;
#X connect 33 39 12 39;
#X connect 33 39 32 39;
#X connect 33 40 12 40;
#X connect 33 40 32 40;
#X connect 33 41 12 41;
#X connect 33 41 32 41;
#X connect 33 42 12 42;
#X connect 33 42 32 42;
#X connect 33 43 12 43;
#X connect 33 43 32 43;
#X connect 33 44 12 44;
#X connect 33 44 32 44;
#X connect 33 45 12 45;
#X connect 33 45 32 45;
#X connect 33 46 12 46;
#X connect 33 46 32 46;
#X connect 33 47 12 47;
#X connect 33 47 32 47;
#X connect 33 48 12 48;
#X connect 33 48 32 48;
#X connect 33 49 12 49;
#X connect 33 49 32 49;
#X connect 33 50 12 50;
#X connect 33 50 32 50;
#X connect 33 51 12 51;
#X connect 33 51 32 51;
#X connect 33 52 12 52;
#X connect 33 52 32 52;
#X connect 33 53 12 53;
#X connect 33 53 32 53;
#X connect 33 54 12 54;
#X connect 33 54 32 54;
#X connect 33 55 12 55;
#X connect 33 55 32 55;
#X connect 33 56 12 56;
#X connect 33 56 32 56;
#X connect 33 57 12 57;
#X connect 33 57 32 57;
#X connect 33 58 12 58;
#X connect 33 58 32 58;
#X connect 33 59 12 59;
#X connect 33 59 32 59;
#X connect 33 60 12 60;
#X connect 33 60 32 60;
#X connect 33 61 12 61;
#X connect 33 61 32 61;
#X connect 33 62 12 62;
#X connect 33 62 32 62;
#X connect 33 63 12 63;
#X connect 33 63 32 63;
#X connect 34 0 35 0;
#X connect 35 0 9 0;
#X coords 0 660 1 659 85 60 0;
