#N canvas 55 97 898 672 10;
#X obj 251 54 spam.in~;
#X obj 251 106 s~ \$0-in;
#X obj 389 26 namecanvas \$0-dbap;
#X obj 550 1 loadbang;
#N canvas 0 22 450 300 create_speakers 0;
#X obj 65 113 until;
#N canvas 0 23 413 79 error 0;
#X obj 9 30 print mat.2d.decoder.dbap~ error: needs a positive number
of loudspeakers;
#X obj 9 7 inlet;
#X connect 1 0 0 0;
#X restore 26 91 pd error;
#X obj 26 69 moses 1;
#X obj 65 176 f \$0;
#X obj 65 133 f 0;
#X obj 95 133 + 1;
#X obj 65 155 t b f f, f 16;
#X obj 65 218 pack f f f, f 16;
#X obj 158 176 * 20;
#X obj 158 198 + 10;
#X obj 26 40 r \$0-nspeakers;
#X msg 65 241 \; \$1-dbap obj 10 \$3 tools/mat.2d.speaker~ \$2 \$1-in
\$1-gain-\$2;
#X connect 0 0 4 0;
#X connect 2 0 1 0;
#X connect 2 1 0 0;
#X connect 3 0 7 0;
#X connect 4 0 5 0;
#X connect 4 0 6 0;
#X connect 5 0 4 1;
#X connect 6 0 3 0;
#X connect 6 1 7 1;
#X connect 6 2 8 0;
#X connect 7 0 11 0;
#X connect 8 0 9 0;
#X connect 9 0 7 2;
#X connect 10 0 2 0;
#X restore 266 26 pd create_speakers;
#X obj 550 489 until;
#X obj 550 511 f 0;
#X obj 580 511 + 1;
#X obj 550 583 list split;
#X obj 550 558 list, f 5;
#X obj 550 533 t b f, f 10;
#X obj 578 606 unpack f;
#X obj 578 650 send, f 11;
#X obj 641 580 f \$0;
#X obj 641 602 pack f f;
#X obj 607 555 t f b f, f 12;
#X msg 641 627 symbol \$1-gain-\$2;
#X obj 550 427 t b l b, f 9;
#X obj 601 487 f 0;
#X obj 550 23 t b b, f 15;
#X obj 550 65 f \$1;
#X obj 637 64 text search \$2;
#X msg 637 43 symbol matrix_size;
#X obj 637 86 text get \$2;
#X obj 637 108 list split 1;
#X obj 671 130 unpack f f;
#X obj 610 251 text search \$2;
#X obj 610 273 text get \$2;
#X obj 610 295 list split 1;
#X obj 550 199 t l b b, f 32;
#X msg 610 230 symbol ls_positions;
#X obj 739 281 text search \$2;
#X obj 739 303 text get \$2;
#X msg 739 260 symbol blur;
#X msg 749 239 symbol rolloff;
#X obj 660 326 list length;
#X obj 660 346 / 2;
#X obj 660 368 s \$0-nspeakers;
#X obj 565 448 r \$0-nspeakers;
#X obj 550 468 f;
#X obj 550 405 tools/mat.2d.dbap, f 32;
#X obj 550 154 tools/mat.2d.itorc, f 30;
#X obj 550 177 tools/mat.2d.rctocar, f 30;
#X connect 0 0 1 0;
#X connect 3 0 19 0;
#X connect 5 0 6 0;
#X connect 6 0 7 0;
#X connect 6 0 10 0;
#X connect 7 0 6 1;
#X connect 8 1 11 0;
#X connect 9 0 8 0;
#X connect 10 0 9 0;
#X connect 10 1 15 0;
#X connect 11 0 12 0;
#X connect 13 0 14 0;
#X connect 14 0 16 0;
#X connect 15 0 8 1;
#X connect 15 1 13 0;
#X connect 15 2 14 1;
#X connect 16 0 12 1;
#X connect 17 0 39 0;
#X connect 17 1 9 1;
#X connect 17 2 18 0;
#X connect 18 0 6 1;
#X connect 19 0 20 0;
#X connect 19 1 22 0;
#X connect 20 0 41 0;
#X connect 21 0 23 0;
#X connect 22 0 21 0;
#X connect 23 0 24 0;
#X connect 24 1 25 0;
#X connect 25 0 41 1;
#X connect 25 0 42 1;
#X connect 26 0 27 0;
#X connect 27 0 28 0;
#X connect 28 1 35 0;
#X connect 28 1 40 1;
#X connect 29 0 40 0;
#X connect 29 1 30 0;
#X connect 29 2 33 0;
#X connect 29 2 34 0;
#X connect 30 0 26 0;
#X connect 31 0 32 0;
#X connect 32 0 40 2;
#X connect 33 0 31 0;
#X connect 34 0 31 0;
#X connect 35 0 36 0;
#X connect 36 0 37 0;
#X connect 38 0 39 1;
#X connect 39 0 5 0;
#X connect 40 0 17 0;
#X connect 41 0 42 0;
#X connect 42 0 29 0;
