#N canvas 99 23 742 809 10;
#X obj 99 52 inlet;
#X text 92 21 Point;
#X obj 99 166 mat.2d.circumcircle;
#X obj 580 40 text define \$0-indices;
#X obj 580 60 text define \$0-points;
#X text 498 91 remoev if r = 0 || 1 pt inside circle;
#X obj 99 210 spigot, f 19;
#N canvas 0 23 426 343 gen_triangles_and_indices 0;
#X obj 10 89 text size \$1;
#X obj 133 203 text get \$1;
#X obj 55 203 text get \$1;
#X obj 10 67 t b l;
#X obj 10 202 list, f 5;
#N canvas 465 271 245 388 loop_is 0;
#X obj 18 103 until;
#X obj 57 103 f 0;
#X obj 18 125 f, f 7;
#X obj 68 125 + 1, f 4;
#X obj 18 80 t f b f, f 14;
#X obj 18 193 f, f 10;
#X obj 18 215 -, f 4;
#X obj 18 258 until;
#X obj 18 280 f, f 7;
#X obj 68 280 + 1, f 4;
#X obj 18 36 - 1;
#X obj 18 326 f;
#X obj 18 237 t f b, f 7;
#X obj 57 258 f 1;
#X obj 18 302 t b f, f 8;
#X obj 18 348 pack f f;
#X obj 72 235 + 1;
#X obj 18 15 inlet;
#X obj 18 370 outlet;
#X obj 126 194 ==;
#X obj 139 172 - 1;
#X obj 18 58 t f f;
#X obj 18 167 t b f f f, f 18;
#X obj 18 147 t f f;
#X obj 126 216 sel 1;
#X obj 126 238 outlet;
#X connect 0 0 2 0;
#X connect 1 0 2 1;
#X connect 2 0 3 0;
#X connect 2 0 23 0;
#X connect 3 0 2 1;
#X connect 4 0 0 0;
#X connect 4 1 1 0;
#X connect 4 2 5 1;
#X connect 5 0 6 0;
#X connect 6 0 12 0;
#X connect 7 0 8 0;
#X connect 8 0 9 0;
#X connect 8 0 14 0;
#X connect 9 0 8 1;
#X connect 10 0 21 0;
#X connect 11 0 15 0;
#X connect 12 0 7 0;
#X connect 12 1 13 0;
#X connect 13 0 8 1;
#X connect 14 0 11 0;
#X connect 14 1 15 1;
#X connect 15 0 18 0;
#X connect 16 0 13 1;
#X connect 17 0 10 0;
#X connect 19 0 24 0;
#X connect 20 0 19 1;
#X connect 21 0 4 0;
#X connect 21 1 20 0;
#X connect 22 0 5 0;
#X connect 22 1 6 1;
#X connect 22 2 16 0;
#X connect 22 3 11 1;
#X connect 23 0 19 0;
#X connect 23 1 22 0;
#X connect 24 0 25 0;
#X restore 10 112 pd loop_is;
#X obj 10 157 unpack f f, f 21;
#X obj 10 179 t b f, f 8;
#X obj 10 224 outlet;
#X obj 55 224 outlet;
#X obj 133 224 outlet;
#X obj 10 134 t l l, f 34;
#X obj 211 224 outlet;
#X obj 10 46 list;
#X obj 10 2 inlet;
#X obj 31 22 r \$0-pref;
#X obj 262 224 outlet, f 38;
#X connect 0 0 5 0;
#X connect 1 0 10 0;
#X connect 2 0 9 0;
#X connect 3 0 0 0;
#X connect 3 1 4 1;
#X connect 4 0 8 0;
#X connect 5 0 11 0;
#X connect 5 1 16 0;
#X connect 6 0 7 0;
#X connect 6 1 1 0;
#X connect 7 0 4 0;
#X connect 7 1 2 0;
#X connect 11 0 6 0;
#X connect 11 1 12 0;
#X connect 13 0 3 0;
#X connect 14 0 13 0;
#X connect 15 0 13 1;
#X restore 99 140 pd gen_triangles_and_indices;
#N canvas 707 27 621 606 validate_radius 0;
#X obj 14 288 sel;
#X obj 29 310 sel, f 10;
#X obj 29 265 unpack f f;
#X obj 101 397 text get \$1;
#X obj 14 196 until;
#X obj 53 196 f 0;
#X obj 14 218 f, f 7;
#X obj 64 218 + 1, f 4;
#X obj 14 173 t f b, f 7;
#X obj 14 332 t b f, f 15;
#X obj 14 397 list;
#X obj 14 419 mat.2d.distance;
#X obj 14 441 <, f 22;
#X obj 14 109 spigot, f 10;
#X obj 71 59 != 0;
#X obj 14 151 text size \$1;
#X obj 14 485 f 0;
#X obj 14 547 outlet;
#X obj 211 485 f 1;
#X obj 14 38 t b f, f 10;
#X obj 15 16 inlet;
#X text 102 61 remove if r = 0;
#X text 128 540 remove of 1 pt inside circle;
#X obj 29 243 inlet;
#X obj 14 131 t b b, f 33;
#X obj 14 463 sel 1;
#X obj 71 81 t f f, f 22;
#X obj 35 369 r \$0-pref, f 10;
#X connect 0 1 1 0;
#X connect 1 1 9 0;
#X connect 2 0 0 1;
#X connect 2 1 1 1;
#X connect 3 0 11 1;
#X connect 4 0 6 0;
#X connect 5 0 6 1;
#X connect 6 0 7 0;
#X connect 6 0 0 0;
#X connect 7 0 6 1;
#X connect 8 0 4 0;
#X connect 8 1 5 0;
#X connect 9 0 10 0;
#X connect 9 1 3 0;
#X connect 10 0 11 0;
#X connect 11 0 12 0;
#X connect 12 0 25 0;
#X connect 13 0 24 0;
#X connect 14 0 26 0;
#X connect 15 0 8 0;
#X connect 16 0 17 0;
#X connect 18 0 17 0;
#X connect 19 0 13 0;
#X connect 19 1 14 0;
#X connect 19 1 12 1;
#X connect 20 0 19 0;
#X connect 23 0 2 0;
#X connect 24 0 15 0;
#X connect 24 1 18 0;
#X connect 25 0 16 0;
#X connect 26 0 13 1;
#X connect 26 1 17 0;
#X connect 27 0 10 1;
#X restore 210 188 pd validate_radius;
#X obj 118 120 s \$0-pref;
#X obj 99 262 t l l, f 12;
#X obj 181 119 s \$2;
#X msg 182 100 clear;
#X obj 99 74 t b l b;
#N canvas 0 22 450 300 get_angles 0;
#X obj 36 184 atan2, f 10;
#X obj 36 161 swap, f 10;
#X obj 36 73 unpack f f;
#X obj 51 98 r \$0-pref;
#X obj 51 120 unpack f f;
#X obj 36 140 -;
#X obj 93 140 -;
#X obj 36 43 inlet;
#X obj 36 206 outlet;
#X connect 0 0 8 0;
#X connect 1 0 0 0;
#X connect 1 1 0 1;
#X connect 2 0 5 0;
#X connect 2 1 6 0;
#X connect 3 0 4 0;
#X connect 4 0 5 1;
#X connect 4 1 6 1;
#X connect 5 0 1 0;
#X connect 6 0 1 1;
#X connect 7 0 2 0;
#X restore 168 285 pd get_angles;
#X obj 271 313 text size \$2;
#X obj 271 335 sel 0;
#X obj 298 462 text get \$2;
#X obj 60 751 text set \$2;
#N canvas 0 22 450 300 get_angles 0;
#X obj 36 184 atan2, f 10;
#X obj 36 161 swap, f 10;
#X obj 36 73 unpack f f;
#X obj 51 98 r \$0-pref;
#X obj 51 120 unpack f f;
#X obj 36 140 -;
#X obj 93 140 -;
#X obj 36 43 inlet;
#X obj 36 206 outlet;
#X connect 0 0 8 0;
#X connect 1 0 0 0;
#X connect 1 1 0 1;
#X connect 2 0 5 0;
#X connect 2 1 6 0;
#X connect 3 0 4 0;
#X connect 4 0 5 1;
#X connect 4 1 6 1;
#X connect 5 0 1 0;
#X connect 6 0 1 1;
#X connect 7 0 2 0;
#X restore 298 484 pd get_angles;
#X obj 298 506 <, f 15;
#X obj 271 288 t b f, f 19;
#X obj 298 528 sel 0, f 9;
#X obj 317 680 text get \$2;
#X obj 317 659 t f f;
#X obj 317 722 text set \$2, f 12;
#X obj 271 357 f 0;
#X obj 344 702 + 1;
#X obj 298 440 t f f f;
#X obj 195 428 print first;
#X obj 212 266 print pt;
#X obj 99 232 t l l;
#N canvas 0 22 450 300 looper 1;
#X obj 38 132 until;
#X obj 38 154 f;
#X obj 68 154 + 1;
#X obj 38 112 t f b, f 7;
#X obj 77 132 f 0;
#X obj 38 7 inlet;
#X obj 38 226 outlet;
#X obj 38 29 unpack;
#X obj 38 91 swap, f 6;
#X obj 71 50 t f f;
#X obj 88 226 outlet;
#X obj 98 7 inlet;
#X obj 38 190 sel;
#X obj 71 72 + 1;
#X connect 0 0 1 0;
#X connect 1 0 2 0;
#X connect 1 0 12 0;
#X connect 2 0 1 1;
#X connect 3 0 0 0;
#X connect 3 1 4 0;
#X connect 4 0 1 1;
#X connect 5 0 7 0;
#X connect 7 0 8 0;
#X connect 7 1 9 0;
#X connect 8 0 3 0;
#X connect 8 1 4 1;
#X connect 9 0 13 0;
#X connect 9 1 12 1;
#X connect 11 0 0 1;
#X connect 12 0 10 0;
#X connect 12 1 6 0;
#X connect 13 0 8 1;
#X restore 298 396 pd looper;
#X msg 298 377 0 \$1;
#X obj 298 357 t f f;
#X obj 317 604 pack f f;
#X obj 298 560 f;
#X obj 210 630 f;
#X obj 182 731 print insert;
#X obj 194 678 print pushbakc;
#X obj 248 584 + 1;
#X obj 298 582 t f f b;
#X obj 319 762 print move;
#N canvas 0 22 450 300 looper 0;
#X obj 38 112 until;
#X obj 38 134 f;
#X obj 68 134 + 1;
#X obj 38 92 t f b, f 7;
#X obj 77 112 f 0;
#X obj 38 7 inlet;
#X obj 38 206 outlet;
#X obj 38 29 unpack;
#X obj 38 71 swap, f 6;
#X obj 71 50 t f f;
#X obj 88 206 outlet;
#X obj 98 73 - 1;
#X obj 98 7 inlet;
#X obj 88 185 sel;
#X obj 38 156 t f f;
#X connect 0 0 1 0;
#X connect 1 0 2 0;
#X connect 1 0 14 0;
#X connect 2 0 1 1;
#X connect 3 0 0 0;
#X connect 3 1 4 0;
#X connect 4 0 1 1;
#X connect 5 0 7 0;
#X connect 7 0 8 0;
#X connect 7 1 9 0;
#X connect 8 0 3 0;
#X connect 8 1 4 1;
#X connect 9 0 8 1;
#X connect 9 1 11 0;
#X connect 11 0 13 1;
#X connect 12 0 0 1;
#X connect 13 0 10 0;
#X connect 14 0 6 0;
#X connect 14 1 13 0;
#X restore 317 631 pd looper;
#X connect 0 0 13 0;
#X connect 2 0 6 0;
#X connect 2 1 8 0;
#X connect 6 0 31 0;
#X connect 7 0 2 0;
#X connect 7 1 2 1;
#X connect 7 2 2 2;
#X connect 7 3 8 1;
#X connect 8 0 6 1;
#X connect 10 0 18 0;
#X connect 10 1 14 0;
#X connect 12 0 11 0;
#X connect 13 0 7 0;
#X connect 13 1 9 0;
#X connect 13 2 12 0;
#X connect 14 0 21 0;
#X connect 15 0 16 0;
#X connect 16 0 26 0;
#X connect 16 1 34 0;
#X connect 17 0 19 0;
#X connect 19 0 20 0;
#X connect 20 0 22 0;
#X connect 21 0 15 0;
#X connect 21 1 20 1;
#X connect 22 0 36 0;
#X connect 23 0 25 0;
#X connect 23 0 42 0;
#X connect 24 0 23 0;
#X connect 24 1 27 0;
#X connect 26 0 18 1;
#X connect 26 0 29 0;
#X connect 27 0 25 1;
#X connect 28 0 17 0;
#X connect 28 1 36 1;
#X connect 28 2 40 0;
#X connect 31 0 10 0;
#X connect 31 1 30 0;
#X connect 32 0 28 0;
#X connect 32 1 37 0;
#X connect 33 0 32 0;
#X connect 34 0 33 0;
#X connect 34 1 35 1;
#X connect 35 0 43 0;
#X connect 36 0 41 0;
#X connect 37 0 18 1;
#X connect 37 0 39 0;
#X connect 40 0 37 1;
#X connect 41 0 38 0;
#X connect 41 0 18 1;
#X connect 41 1 35 0;
#X connect 41 2 32 1;
#X connect 43 0 24 0;
