#N canvas 82 271 675 461 10;
#X obj 12 16 spam.in~;
#X obj 159 161 loadbang;
#X obj 292 264 pointer;
#X obj 426 217 f \$1;
#X obj 426 239 sel 0;
#X obj 160 54 filledpolygon c1 c2 lw x1 y1 x2 y1 x2 y2 x1 y2 x1 y1
;
#X obj 160 11 struct \$0-t-scope float x1 float y1 float x2 float y2
float c1 float c2 float lw;
#X obj 159 286 append \$0-t-scope c1 c2 lw x1 y1 x2 y2, f 23;
#X obj 12 365 set \$0-t-scope c1, f 25;
#X obj 159 183 t b b b, f 45;
#N canvas 375 45 340 365 compute_bounds 1;
#X obj 149 163 /, f 6;
#X obj 206 163 /, f 6;
#X obj 18 12 inlet;
#X obj 18 308 pack f f f f;
#X obj 18 184 unpack f f;
#X obj 18 330 outlet;
#X obj 87 231 +;
#X obj 64 283 +;
#X obj 18 258 t f f, f 8;
#X obj 18 34 t b b, f 18;
#X obj 149 119 t b f, f 6;
#X obj 206 119 t b f, f 6;
#X obj 18 163 tools/mat.2d.itorc;
#X obj 149 141 f 1;
#X obj 206 141 f 1;
#X obj 123 77 t l l;
#X obj 149 97 unpack f f;
#X obj 18 56 f \$0;
#X obj 18 206 /;
#X obj 75 206 /;
#X obj 123 55 tools/mat.2d.getdim \$2;
#X obj 169 251 print \$1;
#X connect 0 0 7 1;
#X connect 1 0 6 1;
#X connect 2 0 9 0;
#X connect 3 0 5 0;
#X connect 4 0 18 0;
#X connect 4 1 19 0;
#X connect 6 0 3 3;
#X connect 7 0 3 2;
#X connect 8 0 3 0;
#X connect 8 1 7 0;
#X connect 9 0 17 0;
#X connect 9 1 20 0;
#X connect 10 0 13 0;
#X connect 10 1 0 1;
#X connect 11 0 14 0;
#X connect 11 1 1 1;
#X connect 12 0 4 0;
#X connect 12 0 21 0;
#X connect 13 0 0 0;
#X connect 14 0 1 0;
#X connect 15 0 12 1;
#X connect 15 1 16 0;
#X connect 16 0 10 0;
#X connect 16 0 18 1;
#X connect 16 1 11 0;
#X connect 16 1 19 1;
#X connect 17 0 12 0;
#X connect 18 0 8 0;
#X connect 19 0 3 1;
#X connect 19 0 6 0;
#X connect 20 0 15 0;
#X restore 159 213 pd compute_bounds;
#X msg 426 284 \; pd-\$1 clear;
#X msg 292 240 traverse pd-\$1 \, bang;
#X obj 12 233 t f b f, f 15;
#X obj 55 277 -, f 8;
#X obj 12 320 +, f 7;
#X obj 12 255 * 100;
#X obj 55 255 f 9;
#X obj 12 212 int;
#X msg 159 235 999 0 1 \$1 \$2 \$3 \$4;
#X obj 55 299 * 10;
#X obj 12 342 + 1;
#X obj 12 88 env~;
#X obj 12 190 * 0.09;
#X obj 12 170 clip 0 100;
#X obj 292 215 symbol \$3;
#X obj 426 260 symbol \$3;
#X obj 190 264 print;
#X connect 0 0 22 0;
#X connect 1 0 9 0;
#X connect 2 0 7 7;
#X connect 3 0 4 0;
#X connect 4 0 26 0;
#X connect 7 0 8 1;
#X connect 9 0 10 0;
#X connect 9 1 25 0;
#X connect 9 2 3 0;
#X connect 10 0 19 0;
#X connect 10 0 27 0;
#X connect 12 0 2 0;
#X connect 13 0 16 0;
#X connect 13 1 17 0;
#X connect 13 2 14 1;
#X connect 14 0 20 0;
#X connect 15 0 21 0;
#X connect 16 0 15 0;
#X connect 17 0 14 0;
#X connect 18 0 13 0;
#X connect 19 0 7 0;
#X connect 20 0 15 1;
#X connect 21 0 8 0;
#X connect 22 0 24 0;
#X connect 23 0 18 0;
#X connect 24 0 23 0;
#X connect 25 0 12 0;
#X connect 26 0 11 0;
