#N struct 1034-t-scope float x1 float y1 float x2 float y2 float c1
float c2 float lw;
#N struct 1032-t-scope float x1 float y1 float x2 float y2 float c1
float c2 float lw;
#N struct 1030-t-scope float x1 float y1 float x2 float y2 float c1
float c2 float lw;
#N struct 1028-t-scope float x1 float y1 float x2 float y2 float c1
float c2 float lw;
#N struct 1026-t-scope float x1 float y1 float x2 float y2 float c1
float c2 float lw;
#N struct 1024-t-scope float x1 float y1 float x2 float y2 float c1
float c2 float lw;
#N struct 1022-t-scope float x1 float y1 float x2 float y2 float c1
float c2 float lw;
#N struct 1020-t-scope float x1 float y1 float x2 float y2 float c1
float c2 float lw;
#N struct 1018-t-scope float x1 float y1 float x2 float y2 float c1
float c2 float lw;
#N struct 1016-t-scope float x1 float y1 float x2 float y2 float c1
float c2 float lw;
#N struct 1014-t-scope float x1 float y1 float x2 float y2 float c1
float c2 float lw;
#N struct 1012-t-scope float x1 float y1 float x2 float y2 float c1
float c2 float lw;
#N struct 1010-t-scope float x1 float y1 float x2 float y2 float c1
float c2 float lw;
#N struct 1008-t-scope float x1 float y1 float x2 float y2 float c1
float c2 float lw;
#N struct 1006-t-scope float x1 float y1 float x2 float y2 float c1
float c2 float lw;
#N struct 1004-t-scope float x1 float y1 float x2 float y2 float c1
float c2 float lw;
#N canvas 565 23 611 783 10;
#N canvas 0 22 223 200 \$0-scope 0;
#X scalar 1034-t-scope 0.75 0.75 1 1 451 0 1 \;;
#X scalar 1032-t-scope 0.75 0.5 1 0.75 451 0 1 \;;
#X scalar 1030-t-scope 0.75 0.25 1 0.5 631 0 1 \;;
#X scalar 1028-t-scope 0.75 0 1 0.25 631 0 1 \;;
#X scalar 1026-t-scope 0.5 0.75 0.75 1 541 0 1 \;;
#X scalar 1024-t-scope 0.5 0.5 0.75 0.75 631 0 1 \;;
#X scalar 1022-t-scope 0.5 0.25 0.75 0.5 631 0 1 \;;
#X scalar 1020-t-scope 0.5 0 0.75 0.25 631 0 1 \;;
#X scalar 1018-t-scope 0.25 0.75 0.5 1 451 0 1 \;;
#X scalar 1016-t-scope 0.25 0.5 0.5 0.75 631 0 1 \;;
#X scalar 1014-t-scope 0.25 0.25 0.5 0.5 541 0 1 \;;
#X scalar 1012-t-scope 0.25 0 0.5 0.25 631 0 1 \;;
#X scalar 1010-t-scope 0 0.75 0.25 1 631 0 1 \;;
#X scalar 1008-t-scope 0 0.5 0.25 0.75 541 0 1 \;;
#X scalar 1006-t-scope 0 0.25 0.25 0.5 631 0 1 \;;
#X scalar 1004-t-scope 0 0 0.25 0.25 631 0 1 \;;
#X coords 0 0 1 1 116 112 2 100 100;
#X restore 74 432 pd \$0-scope;
#X obj 14 562 spam~ 16 mat.2d.scope~ 4 4 \$0-scope, f 38;
#X obj 148 365 mat.gnbx2;
#X obj 148 326 tgl 15 0 empty empty empty 17 7 0 10 -262144 -1 -1 1
1;
#N canvas 0 22 573 343 trajectory 0;
#X obj 54 191 t f f, f 15;
#X obj 54 279 pack f f, f 15;
#X obj 54 237 * 6.28319;
#X obj 141 237 * 6.28319;
#X obj 54 128 line 0;
#X obj 54 257 sin;
#X obj 141 257 sin;
#X obj 54 215 * 3;
#X obj 141 215 * 1;
#X msg 54 104 \$1 \, 1 10000;
#X obj 54 80 f 0;
#X obj 144 96 sel 1;
#X obj 54 301 outlet;
#X msg 17 104 stop;
#X obj 17 53 sel 0 1, f 13;
#X obj 144 118 f 0;
#X obj 17 25 inlet;
#X connect 0 0 7 0;
#X connect 0 1 8 0;
#X connect 1 0 12 0;
#X connect 2 0 5 0;
#X connect 3 0 6 0;
#X connect 4 0 0 0;
#X connect 4 0 11 0;
#X connect 5 0 1 0;
#X connect 6 0 1 1;
#X connect 7 0 2 0;
#X connect 8 0 3 0;
#X connect 9 0 4 0;
#X connect 10 0 9 0;
#X connect 11 0 15 0;
#X connect 11 1 10 1;
#X connect 13 0 4 0;
#X connect 14 0 13 0;
#X connect 14 1 10 0;
#X connect 15 0 10 0;
#X connect 16 0 14 0;
#X restore 148 344 pd trajectory;
#X obj 77 312 dbtorms;
#X obj 77 292 nbx 5 14 0 100 0 0 empty empty empty 0 -8 0 10 -262144
-1 -1 90 256;
#X obj 77 334 pack f 20;
#X obj 77 356 line~;
#X obj 14 379 *~, f 11;
#X obj 77 247 loadbang;
#N canvas 443 106 450 300 header 0;
#X obj 3 3 cnv 18 18 18 empty empty mat.2d.encoder~ 2 8 0 14 -262144
-66577 0;
#X text 215 4 by Pierre Guillot - 2016;
#X coords 0 -1 1 1 365 20 2 2 2;
#X restore 6 6 pd header;
#X text 4 209 The arguments expected by the abstraction are the number
of rows \, the number of columns., f 60;
#X text 142 245 Uses a list of two float to set the abscissa and the
ordinate position of encoding., f 37;
#X obj 239 323 tgl 15 0 empty empty empty 17 7 0 10 -262144 -1 -1 0
1;
#N canvas 0 22 240 385 blurry 0;
#X obj 54 187 * 6.28319;
#X obj 54 128 line 0;
#X obj 54 207 sin;
#X obj 54 80 f 0;
#X obj 144 96 sel 1;
#X obj 54 321 outlet;
#X msg 17 104 stop;
#X obj 17 53 sel 0 1, f 13;
#X obj 144 118 f 0;
#X obj 17 25 inlet;
#X obj 54 229 t f f;
#X obj 54 251 *, f 5;
#X obj 54 273 * 3;
#X obj 54 295 + 1;
#X msg 54 104 \$1 \, 1 50000;
#X connect 0 0 2 0;
#X connect 1 0 4 0;
#X connect 1 0 0 0;
#X connect 2 0 10 0;
#X connect 3 0 14 0;
#X connect 4 0 8 0;
#X connect 4 1 3 1;
#X connect 6 0 1 0;
#X connect 7 0 6 0;
#X connect 7 1 3 0;
#X connect 8 0 3 0;
#X connect 9 0 7 0;
#X connect 10 0 11 0;
#X connect 10 1 11 1;
#X connect 11 0 12 0;
#X connect 12 0 13 0;
#X connect 13 0 5 0;
#X connect 14 0 1 0;
#X restore 239 344 pd blurry;
#X obj 239 364 nbx 5 14 0.5 100 0 0 empty empty empty 0 -8 0 10 -262144
-1 -1 100 256;
#X msg 239 383 spread \$1;
#X text 4 31 The abstraction encodes a signal into a matrix depending
on cartesian coordinates. The weight of the signal in each cell is
computed using the distance between the encoding position and the cell
position. To allow an adaptation of the encoding to all the sizes of
matrices \, the coordinates are scaled between -1 and 1 The weight
of the signal decreases with the distance and when the distance reaches
its maximum the weight is null. To sound a bit more natural \, the
weight is transposed on a cosinus scaled. By default \, the distance
is limited in order to never exceed the distance between two cells.
Thus the signal can't be inside of more than five cells. Nevertheless
\, a spread factor allows to stretch the limit and to spread the signal
over a larger set of cells.;
#X text 142 290 Uses the spread message with a float value to spread
the signal., f 37;
#X obj 14 597 spam~ 16 mat.2d.decoder.dbap~ 4 4 8, f 41;
#X obj 14 687 dac~ 1 2 3 4 5 6 7 8, f 41;
#N canvas 211 88 486 547 gen_circle 0;
#X obj 126 240 cos;
#X obj 171 240 sin;
#X obj 126 171 / 360;
#X obj 126 196 * 6.28319;
#X obj 126 262 * 1;
#X obj 171 262 * 1;
#X obj 126 150 + 90;
#X obj 126 19 inlet;
#X msg 126 79 8;
#X obj 126 101 until;
#X obj 126 123 f 22.5;
#X obj 176 123 + 45;
#X obj 163 101 f 22.5;
#X obj 186 19 inlet;
#X obj 126 218 t f f, f 8;
#X obj 126 284 pack f f;
#X obj 126 306 list prepend;
#X obj 126 328 list;
#X obj 186 41 t b f b;
#X obj 126 41 t b f b;
#X obj 126 397 list trim;
#X msg 126 420 positions -0.282846 0.28284 -0.4 -4.46638e-06 -0.282839
-0.282846 5.10375e-06 -0.4 0.282846 -0.282839 0.4 5.35966e-06 0.282839
0.282847 -5.61556e-06 0.4;
#X obj 126 375 list prepend set positions;
#X obj 86 64 t b b;
#X obj 126 468 outlet;
#X connect 0 0 4 0;
#X connect 1 0 5 0;
#X connect 2 0 3 0;
#X connect 3 0 14 0;
#X connect 4 0 15 0;
#X connect 5 0 15 1;
#X connect 6 0 2 0;
#X connect 7 0 19 0;
#X connect 8 0 9 0;
#X connect 9 0 10 0;
#X connect 10 0 11 0;
#X connect 10 0 6 0;
#X connect 11 0 10 1;
#X connect 12 0 10 1;
#X connect 13 0 18 0;
#X connect 14 0 0 0;
#X connect 14 1 1 0;
#X connect 15 0 16 0;
#X connect 16 0 17 0;
#X connect 17 0 16 1;
#X connect 17 0 22 0;
#X connect 18 0 23 0;
#X connect 18 1 4 1;
#X connect 18 1 5 1;
#X connect 18 2 16 1;
#X connect 19 0 23 0;
#X connect 19 1 12 0;
#X connect 19 2 16 1;
#X connect 20 0 21 0;
#X connect 21 0 24 0;
#X connect 22 0 20 0;
#X connect 23 0 21 0;
#X connect 23 1 8 0;
#X restore 257 573 pd gen_circle;
#X msg 257 544 45;
#X obj 360 416 table \$0-grain-env 512;
#N canvas 237 132 503 391 grain_env 0;
#X obj 270 148 / 256;
#X obj 270 247 * 0.5;
#X obj 270 219 sin;
#X obj 270 271 + 0.5;
#X obj 270 120 t f f;
#X obj 270 299 pack;
#X obj 270 169 - 0.5;
#X obj 271 32 t b b;
#X obj 270 76 until;
#X obj 270 97 f;
#X obj 297 98 + 1;
#X msg 270 55 512;
#X obj 271 8 loadbang;
#X obj 270 193 * 3.14159;
#X obj 310 55 f 0;
#X obj 335 11 bng 15 250 50 0 empty empty empty 17 7 0 10 -262144 -1
-1;
#X obj 270 323 tabwrite \$0-grain-env;
#X connect 0 0 6 0;
#X connect 1 0 3 0;
#X connect 2 0 1 0;
#X connect 3 0 5 0;
#X connect 4 0 0 0;
#X connect 4 1 5 1;
#X connect 5 0 16 0;
#X connect 6 0 13 0;
#X connect 7 0 11 0;
#X connect 7 0 14 0;
#X connect 8 0 9 0;
#X connect 9 0 10 0;
#X connect 9 0 4 0;
#X connect 10 0 9 1;
#X connect 11 0 8 0;
#X connect 12 0 7 0;
#X connect 13 0 2 0;
#X connect 14 0 9 1;
#X connect 15 0 7 0;
#X restore 361 436 pd grain_env;
#X msg 314 376 size \$1;
#X obj 316 350 nbx 5 14 -1e+37 1e+37 0 0 empty empty empty 0 -8 0 10
-262144 -1 -1 80 256;
#X obj 376 350 nbx 5 14 -1e+37 1e+37 0 0 empty empty empty 0 -8 0 10
-262144 -1 -1 5000 256;
#X msg 374 376 delay \$1;
#N canvas 0 22 450 300 (subpatch) 0;
#N canvas 86 221 900 507 granular 0;
#X obj 463 201 random 1000;
#X obj 463 221 / 1000;
#X obj 463 181 c.loadmess;
#X obj 33 221 clip~ 0 1;
#X obj 33 184 line~;
#X obj 33 68 nbx 5 14 0 1 0 0 empty empty empty 0 -8 0 10 -262144 -1
-1 0.95 256;
#X obj 18 273 *~;
#X obj 83 361 *~;
#X obj 299 278 samphold~;
#X obj 400 244 phasor~;
#X obj 299 141 +~ 1;
#X obj 299 167 *~ 0.5;
#X obj 299 101 noise~;
#X obj 326 58 nbx 5 14 0 1 0 0 empty empty empty 0 -8 0 10 -262144
-1 -1 0.3 256;
#N canvas 0 50 450 300 >~ 0;
#X obj 67 114 max~ 0;
#X obj 67 175 -~ 0;
#X obj 130 188 /~;
#X obj 130 152 sig~ -1;
#X obj 145 114 -~;
#X obj 67 212 *~;
#X obj 67 17 inlet~;
#X obj 67 252 outlet~;
#X obj 132 15 inlet;
#X connect 0 0 1 0;
#X connect 1 0 5 0;
#X connect 2 0 5 1;
#X connect 3 0 2 0;
#X connect 4 0 2 1;
#X connect 5 0 7 0;
#X connect 6 0 0 0;
#X connect 6 0 4 1;
#X connect 8 0 4 0;
#X connect 8 0 1 1;
#X connect 8 0 0 1;
#X restore 299 196 pd >~;
#X text 317 37 Rarefaction;
#X text 427 9 Size;
#X obj 299 324 *~;
#X obj 400 278 *~ 513;
#X text 33 40 Feedback;
#X obj 400 109 sig~ 1000;
#X obj 400 183 /~ 80;
#X obj 149 243 samphold~;
#X obj 83 327 vd~ \$0-hoa_grain;
#X obj 83 271 delwrite~ \$0-hoa_grain 5500;
#X obj 164 68 nbx 5 14 1 5000 0 0 empty empty empty 0 -8 0 10 -262144
-1 -1 400 256;
#X obj 149 101 noise~;
#X obj 149 130 *~ 1;
#X obj 149 158 +~;
#X obj 149 215 +~ 1;
#X obj 149 184 abs~;
#X text 160 40 Delay;
#X obj 502 84 random;
#X obj 427 160 +;
#X obj 195 101 * 0.1;
#X obj 502 62 metro;
#X obj 427 133 t b f;
#X obj 83 432 outlet~;
#X obj 432 24 nbx 5 14 0 1e+06 0 0 empty empty empty 0 -8 0 10 -262144
-1 -1 85 256;
#X obj 71 3 inlet;
#X obj 21 20 inlet~;
#X obj 151 3 inlet;
#X obj 231 3 inlet;
#X obj 291 3 inlet;
#X obj 580 22 c.loadmess 1;
#X obj 400 307 tabread4~ \$0-hoa_hann2;
#X obj 502 137 * 0.3;
#X connect 0 0 1 0;
#X connect 1 0 9 1;
#X connect 2 0 0 0;
#X connect 3 0 6 1;
#X connect 4 0 3 0;
#X connect 5 0 4 0;
#X connect 6 0 24 0;
#X connect 7 0 6 0;
#X connect 7 0 37 0;
#X connect 8 0 17 0;
#X connect 9 0 8 1;
#X connect 9 0 18 0;
#X connect 9 0 22 1;
#X connect 10 0 11 0;
#X connect 11 0 14 0;
#X connect 12 0 10 0;
#X connect 13 0 14 1;
#X connect 14 0 8 0;
#X connect 17 0 7 1;
#X connect 18 0 45 0;
#X connect 20 0 21 0;
#X connect 21 0 9 0;
#X connect 22 0 23 0;
#X connect 23 0 7 0;
#X connect 25 0 28 1;
#X connect 25 0 34 0;
#X connect 26 0 27 0;
#X connect 27 0 28 0;
#X connect 28 0 30 0;
#X connect 29 0 22 0;
#X connect 30 0 29 0;
#X connect 32 0 46 0;
#X connect 33 0 21 1;
#X connect 34 0 27 1;
#X connect 35 0 32 0;
#X connect 36 0 33 0;
#X connect 36 1 33 1;
#X connect 38 0 33 0;
#X connect 38 0 35 1;
#X connect 38 0 32 1;
#X connect 39 0 38 0;
#X connect 40 0 24 0;
#X connect 41 0 25 0;
#X connect 42 0 5 0;
#X connect 43 0 13 0;
#X connect 44 0 35 0;
#X connect 45 0 17 1;
#X connect 46 0 36 0;
#X restore 42 368 pd granular;
#X msg 738 265 0;
#X obj 632 314 osc~;
#X obj 632 266 samplerate~;
#X obj 632 337 *~ -0.5;
#X obj 632 360 +~ 0.5;
#X obj 632 290 / 512;
#X obj 624 385 tabwrite~ \$0-hoa_hann2;
#X obj 628 448 table \$0-hoa_hann2 512;
#N canvas 86 221 900 507 granular 0;
#X obj 463 201 random 1000;
#X obj 463 221 / 1000;
#X obj 463 181 c.loadmess;
#X obj 33 221 clip~ 0 1;
#X obj 33 184 line~;
#X obj 33 68 nbx 5 14 0 1 0 0 empty empty empty 0 -8 0 10 -262144 -1
-1 0.95 256;
#X obj 18 273 *~;
#X obj 83 361 *~;
#X obj 299 278 samphold~;
#X obj 400 244 phasor~;
#X obj 299 141 +~ 1;
#X obj 299 167 *~ 0.5;
#X obj 299 101 noise~;
#X obj 326 58 nbx 5 14 0 1 0 0 empty empty empty 0 -8 0 10 -262144
-1 -1 0.3 256;
#N canvas 0 50 450 300 >~ 0;
#X obj 67 114 max~ 0;
#X obj 67 175 -~ 0;
#X obj 130 188 /~;
#X obj 130 152 sig~ -1;
#X obj 145 114 -~;
#X obj 67 212 *~;
#X obj 67 17 inlet~;
#X obj 67 252 outlet~;
#X obj 132 15 inlet;
#X connect 0 0 1 0;
#X connect 1 0 5 0;
#X connect 2 0 5 1;
#X connect 3 0 2 0;
#X connect 4 0 2 1;
#X connect 5 0 7 0;
#X connect 6 0 0 0;
#X connect 6 0 4 1;
#X connect 8 0 4 0;
#X connect 8 0 1 1;
#X connect 8 0 0 1;
#X restore 299 196 pd >~;
#X text 317 37 Rarefaction;
#X text 427 9 Size;
#X obj 299 324 *~;
#X obj 400 278 *~ 513;
#X text 33 40 Feedback;
#X obj 400 109 sig~ 1000;
#X obj 149 243 samphold~;
#X obj 164 68 nbx 5 14 1 5000 0 0 empty empty empty 0 -8 0 10 -262144
-1 -1 800 256;
#X obj 149 101 noise~;
#X obj 149 130 *~ 1;
#X obj 149 158 +~;
#X obj 149 215 +~ 1;
#X obj 149 184 abs~;
#X text 160 40 Delay;
#X obj 502 84 random;
#X obj 427 160 +;
#X obj 195 101 * 0.1;
#X obj 502 62 metro;
#X obj 427 133 t b f;
#X obj 83 432 outlet~;
#X obj 432 24 nbx 5 14 0 1e+06 0 0 empty empty empty 0 -8 0 10 -262144
-1 -1 128 256;
#X obj 71 3 inlet;
#X obj 21 20 inlet~;
#X obj 151 3 inlet;
#X obj 231 3 inlet;
#X obj 291 3 inlet;
#X obj 580 22 c.loadmess 1;
#X obj 83 271 delwrite~ \$1-hoa_grain 5500;
#X obj 83 327 vd~ \$1-hoa_grain;
#X obj 400 307 tabread4~ \$0-hoa_hann2;
#X obj 502 137 * 0.3;
#X obj 559 199 line~;
#X msg 565 161 \$1 20;
#X obj 400 202 /~;
#X connect 0 0 1 0;
#X connect 1 0 9 1;
#X connect 2 0 0 0;
#X connect 3 0 6 1;
#X connect 4 0 3 0;
#X connect 5 0 4 0;
#X connect 6 0 42 0;
#X connect 7 0 6 0;
#X connect 7 0 34 0;
#X connect 8 0 17 0;
#X connect 9 0 8 1;
#X connect 9 0 18 0;
#X connect 9 0 21 1;
#X connect 10 0 11 0;
#X connect 11 0 14 0;
#X connect 12 0 10 0;
#X connect 13 0 14 1;
#X connect 14 0 8 0;
#X connect 17 0 7 1;
#X connect 18 0 44 0;
#X connect 20 0 48 0;
#X connect 21 0 43 0;
#X connect 22 0 25 1;
#X connect 22 0 31 0;
#X connect 23 0 24 0;
#X connect 24 0 25 0;
#X connect 25 0 27 0;
#X connect 26 0 21 0;
#X connect 27 0 26 0;
#X connect 29 0 45 0;
#X connect 30 0 47 0;
#X connect 31 0 24 1;
#X connect 32 0 29 0;
#X connect 33 0 30 0;
#X connect 33 1 30 1;
#X connect 35 0 30 0;
#X connect 35 0 32 1;
#X connect 35 0 29 1;
#X connect 36 0 35 0;
#X connect 37 0 42 0;
#X connect 38 0 22 0;
#X connect 39 0 5 0;
#X connect 40 0 13 0;
#X connect 41 0 32 0;
#X connect 43 0 7 0;
#X connect 44 0 17 1;
#X connect 45 0 33 0;
#X connect 46 0 48 1;
#X connect 47 0 46 0;
#X connect 48 0 9 0;
#X restore 122 368 pd granular;
#N canvas 86 221 900 507 granular 0;
#X obj 463 201 random 1000;
#X obj 463 221 / 1000;
#X obj 463 181 c.loadmess;
#X obj 33 221 clip~ 0 1;
#X obj 33 184 line~;
#X obj 33 68 nbx 5 14 0 1 0 0 empty empty empty 0 -8 0 10 -262144 -1
-1 0.95 256;
#X obj 18 273 *~;
#X obj 83 361 *~;
#X obj 299 278 samphold~;
#X obj 400 244 phasor~;
#X obj 299 141 +~ 1;
#X obj 299 167 *~ 0.5;
#X obj 299 101 noise~;
#X obj 326 58 nbx 5 14 0 1 0 0 empty empty empty 0 -8 0 10 -262144
-1 -1 0.3 256;
#N canvas 0 50 450 300 >~ 0;
#X obj 67 114 max~ 0;
#X obj 67 175 -~ 0;
#X obj 130 188 /~;
#X obj 130 152 sig~ -1;
#X obj 145 114 -~;
#X obj 67 212 *~;
#X obj 67 17 inlet~;
#X obj 67 252 outlet~;
#X obj 132 15 inlet;
#X connect 0 0 1 0;
#X connect 1 0 5 0;
#X connect 2 0 5 1;
#X connect 3 0 2 0;
#X connect 4 0 2 1;
#X connect 5 0 7 0;
#X connect 6 0 0 0;
#X connect 6 0 4 1;
#X connect 8 0 4 0;
#X connect 8 0 1 1;
#X connect 8 0 0 1;
#X restore 299 196 pd >~;
#X text 317 37 Rarefaction;
#X text 427 9 Size;
#X obj 299 324 *~;
#X obj 400 278 *~ 513;
#X text 33 40 Feedback;
#X obj 400 109 sig~ 1000;
#X obj 149 243 samphold~;
#X obj 164 68 nbx 5 14 1 5000 0 0 empty empty empty 0 -8 0 10 -262144
-1 -1 2800 256;
#X obj 149 101 noise~;
#X obj 149 130 *~ 1;
#X obj 149 158 +~;
#X obj 149 215 +~ 1;
#X obj 149 184 abs~;
#X text 160 40 Delay;
#X obj 502 84 random;
#X obj 427 160 +;
#X obj 195 101 * 0.1;
#X obj 502 62 metro;
#X obj 427 133 t b f;
#X obj 83 432 outlet~;
#X obj 432 24 nbx 5 14 0 1e+06 0 0 empty empty empty 0 -8 0 10 -262144
-1 -1 60 256;
#X obj 71 3 inlet;
#X obj 21 20 inlet~;
#X obj 151 3 inlet;
#X obj 231 3 inlet;
#X obj 291 3 inlet;
#X obj 580 22 c.loadmess 1;
#X obj 83 271 delwrite~ \$2-hoa_grain 5500;
#X obj 83 327 vd~ \$2-hoa_grain;
#X obj 400 307 tabread4~ \$0-hoa_hann2;
#X obj 502 137 * 0.3;
#X obj 400 183 /~;
#X obj 559 199 line~;
#X msg 565 161 \$1 20;
#X connect 0 0 1 0;
#X connect 1 0 9 1;
#X connect 2 0 0 0;
#X connect 3 0 6 1;
#X connect 4 0 3 0;
#X connect 5 0 4 0;
#X connect 6 0 42 0;
#X connect 7 0 6 0;
#X connect 7 0 34 0;
#X connect 8 0 17 0;
#X connect 9 0 8 1;
#X connect 9 0 18 0;
#X connect 9 0 21 1;
#X connect 10 0 11 0;
#X connect 11 0 14 0;
#X connect 12 0 10 0;
#X connect 13 0 14 1;
#X connect 14 0 8 0;
#X connect 17 0 7 1;
#X connect 18 0 44 0;
#X connect 20 0 46 0;
#X connect 21 0 43 0;
#X connect 22 0 25 1;
#X connect 22 0 31 0;
#X connect 23 0 24 0;
#X connect 24 0 25 0;
#X connect 25 0 27 0;
#X connect 26 0 21 0;
#X connect 27 0 26 0;
#X connect 29 0 45 0;
#X connect 30 0 48 0;
#X connect 31 0 24 1;
#X connect 32 0 29 0;
#X connect 33 0 30 0;
#X connect 33 1 30 1;
#X connect 35 0 30 0;
#X connect 35 0 32 1;
#X connect 35 0 29 1;
#X connect 36 0 35 0;
#X connect 37 0 42 0;
#X connect 38 0 22 0;
#X connect 39 0 5 0;
#X connect 40 0 13 0;
#X connect 41 0 32 0;
#X connect 43 0 7 0;
#X connect 44 0 17 1;
#X connect 45 0 33 0;
#X connect 46 0 9 0;
#X connect 47 0 46 1;
#X connect 48 0 47 0;
#X restore 202 368 pd granular;
#N canvas 86 221 900 507 granular 0;
#X obj 463 201 random 1000;
#X obj 463 221 / 1000;
#X obj 463 181 c.loadmess;
#X obj 33 221 clip~ 0 1;
#X obj 33 184 line~;
#X obj 33 68 nbx 5 14 0 1 0 0 empty empty empty 0 -8 0 10 -262144 -1
-1 0.95 256;
#X obj 18 273 *~;
#X obj 83 361 *~;
#X obj 299 278 samphold~;
#X obj 400 244 phasor~;
#X obj 299 141 +~ 1;
#X obj 299 167 *~ 0.5;
#X obj 299 101 noise~;
#X obj 326 58 nbx 5 14 0 1 0 0 empty empty empty 0 -8 0 10 -262144
-1 -1 0.3 256;
#N canvas 0 50 450 300 >~ 0;
#X obj 67 114 max~ 0;
#X obj 67 175 -~ 0;
#X obj 130 188 /~;
#X obj 130 152 sig~ -1;
#X obj 145 114 -~;
#X obj 67 212 *~;
#X obj 67 17 inlet~;
#X obj 67 252 outlet~;
#X obj 132 15 inlet;
#X connect 0 0 1 0;
#X connect 1 0 5 0;
#X connect 2 0 5 1;
#X connect 3 0 2 0;
#X connect 4 0 2 1;
#X connect 5 0 7 0;
#X connect 6 0 0 0;
#X connect 6 0 4 1;
#X connect 8 0 4 0;
#X connect 8 0 1 1;
#X connect 8 0 0 1;
#X restore 299 196 pd >~;
#X text 317 37 Rarefaction;
#X text 427 9 Size;
#X obj 299 324 *~;
#X obj 400 278 *~ 513;
#X text 33 40 Feedback;
#X obj 400 109 sig~ 1000;
#X obj 149 243 samphold~;
#X obj 164 68 nbx 5 14 1 5000 0 0 empty empty empty 0 -8 0 10 -262144
-1 -1 4000 256;
#X obj 149 101 noise~;
#X obj 149 130 *~ 1;
#X obj 149 158 +~;
#X obj 149 215 +~ 1;
#X obj 149 184 abs~;
#X text 160 40 Delay;
#X obj 502 84 random;
#X obj 427 160 +;
#X obj 195 101 * 0.1;
#X obj 502 62 metro;
#X obj 427 133 t b f;
#X obj 83 432 outlet~;
#X obj 432 24 nbx 5 14 0 1e+06 0 0 empty empty empty 0 -8 0 10 -262144
-1 -1 53 256;
#X obj 71 3 inlet;
#X obj 21 20 inlet~;
#X obj 151 3 inlet;
#X obj 231 3 inlet;
#X obj 291 3 inlet;
#X obj 580 22 c.loadmess 1;
#X obj 83 271 delwrite~ \$3-hoa_grain 5500;
#X obj 83 327 vd~ \$3-hoa_grain;
#X obj 400 307 tabread4~ \$0-hoa_hann2;
#X obj 502 137 * 0.3;
#X obj 559 199 line~;
#X msg 565 161 \$1 20;
#X obj 400 208 /~;
#X connect 0 0 1 0;
#X connect 1 0 9 1;
#X connect 2 0 0 0;
#X connect 3 0 6 1;
#X connect 4 0 3 0;
#X connect 5 0 4 0;
#X connect 6 0 42 0;
#X connect 7 0 6 0;
#X connect 7 0 34 0;
#X connect 8 0 17 0;
#X connect 9 0 8 1;
#X connect 9 0 18 0;
#X connect 9 0 21 1;
#X connect 10 0 11 0;
#X connect 11 0 14 0;
#X connect 12 0 10 0;
#X connect 13 0 14 1;
#X connect 14 0 8 0;
#X connect 17 0 7 1;
#X connect 18 0 44 0;
#X connect 20 0 48 0;
#X connect 21 0 43 0;
#X connect 22 0 25 1;
#X connect 22 0 31 0;
#X connect 23 0 24 0;
#X connect 24 0 25 0;
#X connect 25 0 27 0;
#X connect 26 0 21 0;
#X connect 27 0 26 0;
#X connect 29 0 45 0;
#X connect 30 0 47 0;
#X connect 31 0 24 1;
#X connect 32 0 29 0;
#X connect 33 0 30 0;
#X connect 33 1 30 1;
#X connect 35 0 30 0;
#X connect 35 0 32 1;
#X connect 35 0 29 1;
#X connect 36 0 35 0;
#X connect 37 0 42 0;
#X connect 38 0 22 0;
#X connect 39 0 5 0;
#X connect 40 0 13 0;
#X connect 41 0 32 0;
#X connect 43 0 7 0;
#X connect 44 0 17 1;
#X connect 45 0 33 0;
#X connect 46 0 48 1;
#X connect 47 0 46 0;
#X connect 48 0 9 0;
#X restore 281 368 pd granular;
#X obj 299 130 nbx 5 14 -1e+37 1e+37 0 0 empty empty empty 0 -8 0 10
-262144 -1 -1 400 256;
#X obj 416 255 nbx 5 14 -1e+37 1e+37 0 0 empty empty empty 0 -8 0 10
-262144 -1 -1 0.95 256;
#X obj 486 255 nbx 5 14 -1e+37 1e+37 0 0 empty empty empty 0 -8 0 10
-262144 -1 -1 0.3 256;
#X obj 301 224 * 2;
#X obj 159 475 outlet~;
#X obj 400 159 c.loadmess 0.95;
#X obj 440 189 c.loadmess 0.3;
#X obj 401 224 * 10;
#X obj 351 224 * 7;
#N canvas 0 50 450 300 soundlost 0;
#X msg 675 149 0;
#X obj 569 198 osc~;
#X obj 569 150 samplerate~;
#X obj 569 221 *~ -0.5;
#X obj 569 244 +~ 0.5;
#X obj 561 82 c.loadmess;
#X obj 89 254 outlet~;
#X obj 89 178 noise~;
#X obj 355 475 / 1000;
#X obj 355 505 nbx 5 14 -1e+37 1e+37 0 0 empty empty empty 0 -8 0 10
-262144 -1 -1 0.647 256;
#X obj 473 487 t b f;
#X obj 473 539 list prepend;
#X obj 473 517 list prepend;
#X obj 510 650 pack 0 f;
#X obj 510 619 t b f;
#X obj 355 259 t b b;
#X obj 355 565 pack f f;
#X obj 355 226 metro 500;
#X msg 355 177 1;
#X obj 355 453 + 200;
#X obj 355 140 t b b;
#X obj 355 300 random 600;
#X obj 406 178 random 800;
#X obj 406 201 + 200;
#X obj 759 198 osc~;
#X obj 759 150 samplerate~;
#X obj 759 221 *~ -0.5;
#X obj 759 244 +~ 0.5;
#X obj 473 396 -;
#X obj 473 355 t b f;
#X msg 473 376 1;
#X obj 473 457 int;
#X obj 473 435 + 1;
#X obj 473 299 random 255;
#X obj 473 415 * 254;
#X msg 865 149 0.5;
#X obj 386 35 table \$0-hoa_filter 256;
#X obj 355 668 tabwrite \$0-hoa_filter;
#X obj 387 74 table \$0-hoa_hann 512;
#X obj 561 269 tabwrite~ \$0-hoa_hann;
#X obj 751 269 tabwrite~ \$0-hoa_prob;
#X msg 728 95 \; \$0-hoa_filter const 0;
#X obj 536 35 table \$0-hoa_prob 256;
#X obj 473 334 tabread \$0-hoa_prob;
#N canvas 0 50 427 426 spectralfilter 0;
#X obj 91 140 *~;
#X obj 91 174 rfft~;
#X obj 91 209 *~;
#X obj 124 209 *~;
#X obj 9 16 block~ 512 4;
#X obj 92 292 *~;
#X obj 91 245 rifft~;
#X obj 92 327 outlet~;
#X obj 207 163 *~;
#X obj 208 221 /~ 768;
#X obj 208 189 *~;
#X obj 206 134 tabreceive~ \$0-hoa_filter;
#X obj 113 267 tabreceive~ \$0-hoa_hann;
#X obj 141 96 tabreceive~ \$0-hoa_hann;
#X obj 91 80 inlet~;
#X connect 0 0 1 0;
#X connect 1 0 2 0;
#X connect 1 1 3 0;
#X connect 2 0 6 0;
#X connect 3 0 6 1;
#X connect 5 0 7 0;
#X connect 6 0 5 0;
#X connect 8 0 10 0;
#X connect 8 0 10 1;
#X connect 9 0 3 1;
#X connect 9 0 2 1;
#X connect 10 0 9 0;
#X connect 11 0 8 0;
#X connect 11 0 8 1;
#X connect 12 0 5 1;
#X connect 13 0 0 1;
#X connect 14 0 0 0;
#X restore 89 206 pd spectralfilter;
#X obj 569 174 / 512;
#X obj 759 174 / 700;
#X msg 522 487 0 0 0 0 0 0 0 0 0 0 0 0 0 0 0 0 0 0 0 0 0 0 0 0 0 0
0 0 0 0 0 0;
#X obj 473 571 list split 25;
#X obj 473 597 list split 24;
#X obj 89 233 *~ 8;
#X connect 0 0 1 1;
#X connect 1 0 3 0;
#X connect 2 0 45 0;
#X connect 3 0 4 0;
#X connect 4 0 39 0;
#X connect 5 0 0 0;
#X connect 5 0 20 0;
#X connect 5 0 2 0;
#X connect 5 0 35 0;
#X connect 5 0 25 0;
#X connect 5 0 39 0;
#X connect 5 0 40 0;
#X connect 7 0 44 0;
#X connect 8 0 9 0;
#X connect 9 0 16 0;
#X connect 10 0 12 0;
#X connect 10 1 11 1;
#X connect 11 0 48 0;
#X connect 12 0 11 0;
#X connect 13 0 37 0;
#X connect 14 0 13 0;
#X connect 14 1 13 1;
#X connect 15 0 21 0;
#X connect 15 1 33 0;
#X connect 16 0 37 0;
#X connect 17 0 15 0;
#X connect 17 0 22 0;
#X connect 18 0 17 0;
#X connect 19 0 8 0;
#X connect 20 0 18 0;
#X connect 20 1 47 0;
#X connect 21 0 19 0;
#X connect 22 0 23 0;
#X connect 23 0 17 1;
#X connect 24 0 26 0;
#X connect 25 0 46 0;
#X connect 26 0 27 0;
#X connect 27 0 40 0;
#X connect 28 0 34 0;
#X connect 29 0 30 0;
#X connect 29 1 28 1;
#X connect 30 0 28 0;
#X connect 31 0 10 0;
#X connect 31 0 16 1;
#X connect 32 0 31 0;
#X connect 33 0 43 0;
#X connect 34 0 32 0;
#X connect 35 0 24 1;
#X connect 43 0 29 0;
#X connect 44 0 50 0;
#X connect 45 0 1 0;
#X connect 46 0 24 0;
#X connect 47 0 12 0;
#X connect 48 0 12 1;
#X connect 48 0 49 0;
#X connect 49 1 14 0;
#X connect 50 0 6 0;
#X restore 108 278 pd soundlost;
#X obj 17 234 line;
#X obj 16 136 random 80;
#X msg 17 204 \$1 50;
#X obj 16 166 + 15;
#X obj 13 104 metro 2000;
#X obj 91 234 line;
#X msg 91 204 \$1 50;
#X obj 90 166 + 15;
#X obj 87 104 metro 2000;
#X obj 171 234 line;
#X msg 171 204 \$1 50;
#X obj 170 166 + 15;
#X obj 167 104 metro 2000;
#X obj 241 234 line;
#X msg 241 204 \$1 50;
#X obj 240 166 + 15;
#X obj 237 104 metro 2000;
#X obj 370 129 c.loadmess 400;
#X obj 90 136 random 120;
#X obj 170 136 random 160;
#X obj 240 136 random 40;
#X obj 113 62 f 1;
#X obj 108 33 loadbang;
#X obj 624 198 loadbang;
#X connect 0 0 16 0;
#X connect 1 0 2 1;
#X connect 2 0 4 0;
#X connect 3 0 6 0;
#X connect 4 0 5 0;
#X connect 5 0 7 0;
#X connect 6 0 2 0;
#X connect 9 0 16 0;
#X connect 10 0 16 0;
#X connect 11 0 16 0;
#X connect 12 0 0 2;
#X connect 12 0 15 0;
#X connect 12 0 19 0;
#X connect 12 0 20 0;
#X connect 13 0 11 3;
#X connect 13 0 10 3;
#X connect 13 0 9 3;
#X connect 13 0 0 3;
#X connect 14 0 11 4;
#X connect 14 0 10 4;
#X connect 14 0 9 4;
#X connect 14 0 0 4;
#X connect 15 0 9 2;
#X connect 17 0 13 0;
#X connect 18 0 14 0;
#X connect 19 0 11 2;
#X connect 20 0 10 2;
#X connect 21 0 0 0;
#X connect 21 0 9 0;
#X connect 21 0 10 0;
#X connect 21 0 11 0;
#X connect 22 0 0 1;
#X connect 23 0 25 0;
#X connect 24 0 22 0;
#X connect 25 0 24 0;
#X connect 26 0 23 0;
#X connect 27 0 9 1;
#X connect 28 0 27 0;
#X connect 29 0 28 0;
#X connect 30 0 40 0;
#X connect 31 0 10 1;
#X connect 32 0 31 0;
#X connect 33 0 32 0;
#X connect 34 0 41 0;
#X connect 35 0 11 1;
#X connect 36 0 35 0;
#X connect 37 0 36 0;
#X connect 38 0 42 0;
#X connect 39 0 12 0;
#X connect 40 0 29 0;
#X connect 41 0 33 0;
#X connect 42 0 37 0;
#X connect 43 0 26 0;
#X connect 43 0 30 0;
#X connect 43 0 34 0;
#X connect 43 0 38 0;
#X connect 44 0 43 0;
#X connect 45 0 1 0;
#X connect 45 0 3 0;
#X connect 45 0 7 0;
#X restore 14 291 pd;
#X obj 444 290 nbx 5 14 0 1 0 0 empty empty empty 0 -8 0 10 -262144
-1 -1 0.61 256;
#X msg 442 316 feedback \$1;
#X msg 77 269 30;
#X obj 283 475 loadbang;
#X msg 332 543 0.7;
#X msg 287 514 rolloff 50;
#X obj 14 407 spam~ 16 mat.2d.syn.grain~ 4 4 \$0-grain-env;
#X obj 375 524 nbx 5 14 -1e+37 1e+37 0 0 empty empty empty 0 -8 0 10
-262144 -1 -1 0.4 256;
#X connect 2 0 37 1;
#X connect 3 0 4 0;
#X connect 4 0 2 0;
#X connect 5 0 7 0;
#X connect 6 0 5 0;
#X connect 7 0 8 0;
#X connect 8 0 9 1;
#X connect 9 0 37 0;
#X connect 10 0 33 0;
#X connect 14 0 15 0;
#X connect 15 0 16 0;
#X connect 16 0 17 0;
#X connect 17 0 37 1;
#X connect 20 0 21 0;
#X connect 20 1 21 1;
#X connect 20 2 21 2;
#X connect 20 3 21 3;
#X connect 20 4 21 4;
#X connect 20 5 21 5;
#X connect 20 6 21 6;
#X connect 20 7 21 7;
#X connect 22 0 20 16;
#X connect 23 0 22 0;
#X connect 26 0 37 1;
#X connect 27 0 26 0;
#X connect 28 0 29 0;
#X connect 29 0 37 1;
#X connect 30 0 9 0;
#X connect 31 0 32 0;
#X connect 32 0 37 1;
#X connect 33 0 6 0;
#X connect 34 0 23 0;
#X connect 34 0 36 0;
#X connect 34 0 35 0;
#X connect 35 0 22 1;
#X connect 36 0 20 16;
#X connect 37 0 1 0;
#X connect 37 0 20 0;
#X connect 37 1 1 1;
#X connect 37 1 20 1;
#X connect 37 2 1 2;
#X connect 37 2 20 2;
#X connect 37 3 1 3;
#X connect 37 3 20 3;
#X connect 37 4 1 4;
#X connect 37 4 20 4;
#X connect 37 5 1 5;
#X connect 37 5 20 5;
#X connect 37 6 1 6;
#X connect 37 6 20 6;
#X connect 37 7 1 7;
#X connect 37 7 20 7;
#X connect 37 8 1 8;
#X connect 37 8 20 8;
#X connect 37 9 1 9;
#X connect 37 9 20 9;
#X connect 37 10 1 10;
#X connect 37 10 20 10;
#X connect 37 11 1 11;
#X connect 37 11 20 11;
#X connect 37 12 1 12;
#X connect 37 12 20 12;
#X connect 37 13 1 13;
#X connect 37 13 20 13;
#X connect 37 14 1 14;
#X connect 37 14 20 14;
#X connect 37 15 1 15;
#X connect 37 15 20 15;
#X connect 38 0 22 1;
