#N canvas 122 329 765 475 10;
#X obj 99 52 inlet;
#X text 92 21 Point;
#X obj 99 122 mat.2d.circumcircle;
#X obj 580 40 text define \$0-indices;
#X obj 580 60 text define \$0-points;
#X text 498 91 remoev if r = 0 || 1 pt inside circle;
#X obj 99 166 spigot, f 19;
#N canvas 0 22 339 259 gen_triangles_and_indices 0;
#X obj 10 49 text size \$1;
#X obj 133 163 text get \$1;
#X obj 55 163 text get \$1;
#X obj 10 27 t b l;
#X obj 10 162 list, f 5;
#N canvas 465 271 190 353 loop_is 0;
#X obj 45 69 until;
#X obj 84 69 f 0;
#X obj 45 91 f, f 7;
#X obj 95 91 + 1, f 4;
#X obj 45 46 t f b f, f 14;
#X obj 45 139 f, f 10;
#X obj 45 161 -, f 4;
#X obj 45 204 until;
#X obj 45 226 f, f 7;
#X obj 95 226 + 1, f 4;
#X obj 45 22 - 1;
#X obj 45 272 f;
#X obj 45 183 t f b, f 7;
#X obj 84 204 f 1;
#X obj 45 248 t b f, f 8;
#X obj 45 294 pack f f;
#X obj 99 181 + 1;
#X obj 45 113 t b f f f, f 11;
#X obj 45 1 inlet;
#X obj 45 316 outlet;
#X connect 0 0 2 0;
#X connect 1 0 2 1;
#X connect 2 0 3 0;
#X connect 2 0 17 0;
#X connect 3 0 2 1;
#X connect 4 0 0 0;
#X connect 4 1 1 0;
#X connect 4 2 5 1;
#X connect 5 0 6 0;
#X connect 6 0 12 0;
#X connect 7 0 8 0;
#X connect 8 0 9 0;
#X connect 8 0 14 0;
#X connect 9 0 8 1;
#X connect 10 0 4 0;
#X connect 11 0 15 0;
#X connect 12 0 7 0;
#X connect 12 1 13 0;
#X connect 13 0 8 1;
#X connect 14 0 11 0;
#X connect 14 1 15 1;
#X connect 15 0 19 0;
#X connect 16 0 13 1;
#X connect 17 0 5 0;
#X connect 17 1 6 1;
#X connect 17 2 16 0;
#X connect 17 3 11 1;
#X connect 18 0 10 0;
#X restore 10 72 pd loop_is;
#X obj 10 117 unpack f f, f 21;
#X obj 10 139 t b f, f 8;
#X text 59 7 Generates all the triangles, f 13;
#X obj 10 6 inlet;
#X obj 10 184 outlet;
#X obj 55 184 outlet;
#X obj 133 184 outlet;
#X obj 10 94 t l l, f 34;
#X obj 211 184 outlet;
#X connect 0 0 5 0;
#X connect 1 0 12 0;
#X connect 2 0 11 0;
#X connect 3 0 0 0;
#X connect 3 1 4 1;
#X connect 4 0 10 0;
#X connect 5 0 13 0;
#X connect 6 0 7 0;
#X connect 6 1 1 0;
#X connect 7 0 4 0;
#X connect 7 1 2 0;
#X connect 9 0 3 0;
#X connect 13 0 6 0;
#X connect 13 1 14 0;
#X restore 99 96 pd gen_triangles_and_indices;
#X obj 99 74 t l l, f 35;
#N canvas 935 200 621 558 validate_radius 1;
#X obj 14 261 sel;
#X obj 29 283 sel, f 10;
#X obj 29 238 unpack f f;
#X obj 101 327 text get \$1;
#X obj 14 166 until;
#X obj 53 166 f 0;
#X obj 14 188 f, f 7;
#X obj 64 188 + 1, f 4;
#X obj 14 143 t f b, f 7;
#X obj 14 305 t b f, f 15;
#X obj 14 327 list;
#X obj 14 349 mat.2d.distance;
#X obj 14 371 <;
#X obj 14 79 spigot, f 10;
#X obj 71 59 != 0;
#X obj 14 121 text size \$1;
#X obj 14 415 f 0;
#X obj 14 437 outlet;
#X obj 42 415 f 1;
#X obj 14 38 t b f, f 10;
#X obj 15 16 inlet;
#X text 102 61 remove if r = 0;
#X text 49 370 remove of 1 pt inside circle;
#X obj 247 18 inlet;
#X obj 307 18 inlet;
#X obj 14 101 t b b;
#X obj 14 393 sel 1;
#X connect 0 1 1 0;
#X connect 1 1 9 0;
#X connect 2 0 0 1;
#X connect 2 1 1 1;
#X connect 3 0 11 1;
#X connect 4 0 6 0;
#X connect 5 0 6 1;
#X connect 6 0 7 0;
#X connect 6 0 0 0;
#X connect 7 0 6 1;
#X connect 8 0 4 0;
#X connect 8 1 5 0;
#X connect 9 0 10 0;
#X connect 9 1 3 0;
#X connect 10 0 11 0;
#X connect 11 0 12 0;
#X connect 12 0 26 0;
#X connect 13 0 25 0;
#X connect 14 0 13 1;
#X connect 14 0 17 0;
#X connect 15 0 8 0;
#X connect 16 0 17 0;
#X connect 18 0 17 0;
#X connect 19 0 13 0;
#X connect 19 1 14 0;
#X connect 19 1 12 1;
#X connect 20 0 19 0;
#X connect 23 0 2 0;
#X connect 24 0 10 1;
#X connect 25 0 15 0;
#X connect 25 1 18 0;
#X connect 26 0 16 0;
#X restore 210 144 pd validate_radius;
#X obj 99 188 print;
#X connect 0 0 8 0;
#X connect 2 0 6 0;
#X connect 2 1 9 0;
#X connect 6 0 10 0;
#X connect 7 0 2 0;
#X connect 7 1 2 1;
#X connect 7 2 2 2;
#X connect 7 3 9 1;
#X connect 8 0 7 0;
#X connect 8 1 9 2;
#X connect 9 0 6 1;
