#N canvas 278 386 333 336 10;
#X obj 12 296 *~;
#X obj 12 16 spam.in~ 0;
#X obj 12 318 spam.out~;
#X obj 27 39 spam.in 0;
#X obj 154 39 mat.2d.itorc \$1 \$2 \$3;
#X obj 154 62 mat.2d.rctocar \$2 \$3;
#X obj 27 114 mat.2d.distance, f 43;
#X obj 27 136 t b f;
#X obj 27 178 f 1;
#X obj 54 178 min 1;
#X obj 27 200 -, f 5;
#X obj 27 252 pack f 20;
#X obj 27 274 line~;
#X obj 154 16 loadbang;
#X obj 81 141 max 0;
#X obj 27 61 route list spread, f 19;
#X obj 27 222 / 1;
#X connect 0 0 2 0;
#X connect 1 0 0 0;
#X connect 3 0 15 0;
#X connect 4 0 5 0;
#X connect 5 0 6 1;
#X connect 6 0 7 0;
#X connect 7 0 8 0;
#X connect 7 1 9 0;
#X connect 8 0 10 0;
#X connect 9 0 10 1;
#X connect 10 0 16 0;
#X connect 11 0 12 0;
#X connect 12 0 0 1;
#X connect 13 0 4 0;
#X connect 14 0 8 1;
#X connect 14 0 9 1;
#X connect 14 0 16 1;
#X connect 15 0 6 0;
#X connect 15 1 14 0;
#X connect 16 0 11 0;
