#N canvas 9 150 475 618 10;
#X obj 12 544 *~;
#X obj 12 576 spam.out~;
#X obj 27 133 spam.in 0;
#X obj 27 500 pack f 20;
#X obj 27 522 line~;
#X obj 27 57 loadbang;
#X obj 27 318 * 3.14129;
#X obj 27 362 + 1;
#X obj 27 296 min 1;
#X obj 27 340 cos;
#X obj 79 230 max 0.001;
#X obj 27 274 / 1, f 6;
#X msg 27 108 0 0;
#X obj 79 252 t b f;
#X obj 27 78 t b b b, f 44;
#X obj 157 108 f \$1;
#X obj 157 133 tools/mat.2d.itorc;
#X obj 157 156 tools/mat.2d.rctocar;
#X obj 288 100 tools/mat.2d.getdim \$2;
#X obj 27 209 tools/mat.2d.distance, f 44;
#X obj 288 144 / 2;
#X obj 345 144 / 2;
#X obj 288 166 - 1;
#X obj 345 166 - 1;
#X obj 288 188 pack f f, f 10;
#X obj 288 122 unpack f f;
#X obj 12 16 spam.in~;
#X obj 27 155 route list spread;
#X obj 27 428 t b f;
#X obj 27 450 f 1;
#X obj 27 472 -, f 5;
#X obj 27 384 * 2.535;
#X obj 27 406 clip 0 1;
#X connect 0 0 1 0;
#X connect 2 0 27 0;
#X connect 3 0 4 0;
#X connect 4 0 0 1;
#X connect 5 0 14 0;
#X connect 6 0 9 0;
#X connect 7 0 31 0;
#X connect 8 0 6 0;
#X connect 9 0 7 0;
#X connect 10 0 13 0;
#X connect 11 0 8 0;
#X connect 12 0 27 0;
#X connect 13 0 11 0;
#X connect 13 1 11 1;
#X connect 14 0 12 0;
#X connect 14 1 15 0;
#X connect 14 2 18 0;
#X connect 15 0 16 0;
#X connect 16 0 17 0;
#X connect 17 0 19 1;
#X connect 18 0 16 1;
#X connect 18 0 17 1;
#X connect 18 0 25 0;
#X connect 19 0 11 0;
#X connect 20 0 22 0;
#X connect 21 0 23 0;
#X connect 22 0 24 0;
#X connect 23 0 24 1;
#X connect 24 0 19 2;
#X connect 25 0 20 0;
#X connect 25 1 21 0;
#X connect 26 0 0 0;
#X connect 27 0 19 0;
#X connect 27 1 10 0;
#X connect 28 0 29 0;
#X connect 28 1 30 1;
#X connect 29 0 30 0;
#X connect 30 0 3 0;
#X connect 31 0 32 0;
#X connect 32 0 28 0;
