#N struct 2735-t-scope float x1 float y1 float x2 float y2 float c1
float c2;
#N struct 2731-t-scope float x1 float y1 float x2 float y2 float c1
float c2;
#N struct 2727-t-scope float x1 float y1 float x2 float y2 float c1
float c2;
#N struct 2723-t-scope float x1 float y1 float x2 float y2 float c1
float c2;
#N struct 2719-t-scope float x1 float y1 float x2 float y2 float c1
float c2;
#N struct 2715-t-scope float x1 float y1 float x2 float y2 float c1
float c2;
#N struct 2711-t-scope float x1 float y1 float x2 float y2 float c1
float c2;
#N struct 2707-t-scope float x1 float y1 float x2 float y2 float c1
float c2;
#N struct 2703-t-scope float x1 float y1 float x2 float y2 float c1
float c2;
#N struct 2699-t-scope float x1 float y1 float x2 float y2 float c1
float c2;
#N struct 2695-t-scope float x1 float y1 float x2 float y2 float c1
float c2;
#N struct 2691-t-scope float x1 float y1 float x2 float y2 float c1
float c2;
#N struct 2687-t-scope float x1 float y1 float x2 float y2 float c1
float c2;
#N struct 2683-t-scope float x1 float y1 float x2 float y2 float c1
float c2;
#N struct 2679-t-scope float x1 float y1 float x2 float y2 float c1
float c2;
#N struct 2675-t-scope float x1 float y1 float x2 float y2 float c1
float c2;
#N struct 2767-t-meter float x1 float y1 float s1 float s2 float s3
float s4 float c0 float c1 float c2 float c3 float c4;
#N struct 2763-t-meter float x1 float y1 float s1 float s2 float s3
float s4 float c0 float c1 float c2 float c3 float c4;
#N struct 2759-t-meter float x1 float y1 float s1 float s2 float s3
float s4 float c0 float c1 float c2 float c3 float c4;
#N struct 2755-t-meter float x1 float y1 float s1 float s2 float s3
float s4 float c0 float c1 float c2 float c3 float c4;
#N struct 2751-t-meter float x1 float y1 float s1 float s2 float s3
float s4 float c0 float c1 float c2 float c3 float c4;
#N struct 2747-t-meter float x1 float y1 float s1 float s2 float s3
float s4 float c0 float c1 float c2 float c3 float c4;
#N struct 2743-t-meter float x1 float y1 float s1 float s2 float s3
float s4 float c0 float c1 float c2 float c3 float c4;
#N struct 2739-t-meter float x1 float y1 float s1 float s2 float s3
float s4 float c0 float c1 float c2 float c3 float c4;
#N canvas 484 23 410 642 10;
#X obj 77 241 dbtorms;
#X obj 77 221 nbx 5 14 0 100 0 0 empty \$0-gain empty 0 -8 0 10 -262144
-1 -1 100 256;
#X obj 77 263 pack f 20;
#X obj 77 285 line~;
#X obj 14 318 *~, f 11;
#N canvas 443 106 450 300 header 0;
#X obj 3 3 cnv 18 18 18 empty empty mat.2d.smudge~ 2 8 0 14 -262144
-66577 0;
#X text 215 4 by Pierre Guillot - 2016;
#X coords 0 -1 1 1 365 20 2 2 2;
#X restore 6 5 pd header;
#X obj 155 252 nbx 5 14 0.5 100 0 0 empty \$0-spread empty 0 -8 0 10
-262144 -1 -1 3 256;
#X msg 155 271 spread \$1;
#X obj 303 253 nbx 5 14 -1e+37 1e+37 0 0 empty \$0-delay empty 0 -8
0 10 -262144 -1 -1 250 256;
#X msg 303 271 delay \$1;
#N canvas 0 22 223 200 \$0-scope 0;
#X scalar 2735-t-scope 0.5 -0.5 1 -1 999 0 \;;
#X scalar 2731-t-scope 0 -0.5 0.5 -1 999 0 \;;
#X scalar 2727-t-scope -0.5 -0.5 0 -1 999 0 \;;
#X scalar 2723-t-scope -1 -0.5 -0.5 -1 999 0 \;;
#X scalar 2719-t-scope 0.5 -0 1 -0.5 999 0 \;;
#X scalar 2715-t-scope 0 -0 0.5 -0.5 999 0 \;;
#X scalar 2711-t-scope -0.5 -0 0 -0.5 999 0 \;;
#X scalar 2707-t-scope -1 -0 -0.5 -0.5 999 0 \;;
#X scalar 2703-t-scope 0.5 0.5 1 -0 999 0 \;;
#X scalar 2699-t-scope 0 0.5 0.5 -0 999 0 \;;
#X scalar 2695-t-scope -0.5 0.5 0 -0 999 0 \;;
#X scalar 2691-t-scope -1 0.5 -0.5 -0 999 0 \;;
#X scalar 2687-t-scope 0.5 1 1 0.5 999 0 \;;
#X scalar 2683-t-scope 0 1 0.5 0.5 999 0 \;;
#X scalar 2679-t-scope -0.5 1 0 0.5 999 0 \;;
#X scalar 2675-t-scope -1 1 -0.5 0.5 999 0 \;;
#X coords -1 1 1 -1 150 150 2 100 100;
#X restore 16 387 pd \$0-scope;
#X obj 228 252 tools/mat.gnbx2;
#X obj 10 157 text define -k \$0-config;
#A set mat.dim 4 4 \; mat.dec.nls 8 \; mat.dec.positions -0.530331
0.530329 -0.75 -1.67489e-06 -0.530329 -0.530332 2.51234e-06 -0.75 0.530332
-0.530328 0.75 3.34978e-06 0.530328 0.530333 -4.18723e-06 0.75 \; mat.dec.rolloff
10 \; mat.dec.blur 0.01 \; mat.meter.nls 8 \; mat.meter.positions -0.530331
0.530329 -0.75 -1.67489e-06 -0.530329 -0.530332 2.51234e-06 -0.75 0.530332
-0.530328 0.75 3.34978e-06 0.530328 0.530333 -4.18723e-06 0.75 \;;
#X f 25;
#X obj 14 586 dac~ 1 2 3 4 5 6 7 8, f 56;
#X obj 14 362 spam~ 16 mat.2d.scope~ \$0-config \$0-scope, f 56;
#X obj 14 565 spam~ 8 mat.2d.meter~ \$0-config \$0-meter, f 56;
#N canvas 0 22 450 300 \$0-meter 0;
#X scalar 2767-t-meter -4.18723e-06 0.75 8 16 24 32 555 90 990 950
900 \;;
#X scalar 2763-t-meter 0.530328 0.530333 8 16 24 32 555 90 990 950
900 \;;
#X scalar 2759-t-meter 0.75 3.34978e-06 8 16 24 32 555 90 990 950 900
\;;
#X scalar 2755-t-meter 0.530332 -0.530328 8 16 24 32 555 90 990 950
900 \;;
#X scalar 2751-t-meter 2.51234e-06 -0.75 8 16 24 32 555 90 990 950
900 \;;
#X scalar 2747-t-meter -0.530329 -0.530332 8 16 24 32 555 90 990 950
900 \;;
#X scalar 2743-t-meter -0.75 -1.67489e-06 8 16 24 32 555 90 990 950
900 \;;
#X scalar 2739-t-meter -0.530331 0.530329 8 16 24 32 555 90 990 950
900 \;;
#X coords -1 1 1 -1 153 153 2 100 100;
#X restore 201 387 pd \$0-meter;
#N canvas 0 22 450 300 init 0;
#X obj 13 42 loadbang;
#X msg 13 64 100;
#X obj 13 86 s \$0-gain;
#X obj 173 42 loadbang;
#X obj 173 87 s \$0-delay;
#X obj 106 41 loadbang;
#X obj 106 86 s \$0-auto;
#X msg 173 64 250;
#X msg 106 63 0;
#X obj 106 122 loadbang;
#X msg 106 144 3;
#X obj 106 167 s \$0-spread;
#X obj 196 122 loadbang;
#X obj 196 167 s \$0-pos;
#X msg 196 144 1 1;
#X connect 0 0 1 0;
#X connect 1 0 2 0;
#X connect 3 0 7 0;
#X connect 5 0 8 0;
#X connect 7 0 4 0;
#X connect 8 0 6 0;
#X connect 9 0 10 0;
#X connect 10 0 11 0;
#X connect 12 0 14 0;
#X connect 14 0 13 0;
#X restore 14 181 pd init;
#X obj 14 292 *~;
#N canvas 334 63 191 239 e 0;
#X obj 50 195 outlet~;
#X obj 50 167 line~;
#X obj 50 84 metro 2000;
#X obj 50 66 tgl 15 0 empty empty empty 17 7 0 10 -262144 -1 -1 1 1
;
#X msg 91 128 0 40;
#X msg 50 128 1 20;
#X obj 91 106 delay 50;
#X obj 48 23 loadbang;
#X msg 48 45 1;
#X connect 1 0 0 0;
#X connect 2 0 5 0;
#X connect 2 0 6 0;
#X connect 3 0 2 0;
#X connect 4 0 1 0;
#X connect 5 0 1 0;
#X connect 6 0 4 0;
#X connect 7 0 8 0;
#X connect 8 0 3 0;
#X restore 29 266 pd e;
#X obj 14 544 spam~ 16 mat.2d.dec.dbap~ \$0-config, f 56;
#X obj 14 339 spam~ 16 mat.2d.smudge~ \$0-config, f 56;
#X obj 14 223 noise~;
#X text 4 140 The text object must define the dimensions of the matrix.
;
#X obj 296 317 r \$0-vd;
#X obj 303 293 s \$0-vd;
#X obj 228 293 s \$0-vd;
#X obj 155 293 s \$0-vd;
#X obj 228 231 r \$0-pos;
#X text 4 30 The abstraction synthesizes the signals of matrix using
variable delay lines without flanging effect. The goal is to create
a spatial smudge effect. When a cell is distant from the encoding position
the delay increases resulting in a sound that is spread progressively
from the encoding position toward the rest of the space while the sound
decreases.;
#X connect 0 0 2 0;
#X connect 1 0 0 0;
#X connect 2 0 3 0;
#X connect 3 0 4 1;
#X connect 4 0 21 0;
#X connect 6 0 7 0;
#X connect 7 0 27 0;
#X connect 8 0 9 0;
#X connect 9 0 25 0;
#X connect 11 0 26 0;
#X connect 18 0 4 0;
#X connect 19 0 18 1;
#X connect 20 0 13 0;
#X connect 20 0 15 0;
#X connect 20 1 13 1;
#X connect 20 1 15 1;
#X connect 20 2 13 2;
#X connect 20 2 15 2;
#X connect 20 3 13 3;
#X connect 20 3 15 3;
#X connect 20 4 13 4;
#X connect 20 4 15 4;
#X connect 20 5 13 5;
#X connect 20 5 15 5;
#X connect 20 6 13 6;
#X connect 20 6 15 6;
#X connect 20 7 13 7;
#X connect 20 7 15 7;
#X connect 21 0 14 0;
#X connect 21 0 20 0;
#X connect 21 1 14 1;
#X connect 21 1 20 1;
#X connect 21 2 14 2;
#X connect 21 2 20 2;
#X connect 21 3 14 3;
#X connect 21 3 20 3;
#X connect 21 4 14 4;
#X connect 21 4 20 4;
#X connect 21 5 14 5;
#X connect 21 5 20 5;
#X connect 21 6 14 6;
#X connect 21 6 20 6;
#X connect 21 7 14 7;
#X connect 21 7 20 7;
#X connect 21 8 14 8;
#X connect 21 8 20 8;
#X connect 21 9 14 9;
#X connect 21 9 20 9;
#X connect 21 10 14 10;
#X connect 21 10 20 10;
#X connect 21 11 14 11;
#X connect 21 11 20 11;
#X connect 21 12 14 12;
#X connect 21 12 20 12;
#X connect 21 13 14 13;
#X connect 21 13 20 13;
#X connect 21 14 14 14;
#X connect 21 14 20 14;
#X connect 21 15 14 15;
#X connect 21 15 20 15;
#X connect 22 0 18 0;
#X connect 24 0 21 1;
#X connect 28 0 11 0;
#X coords 0 642 1 641 85 60 0;
