#N canvas 9 150 475 618 10;
#X declare -stdpath spam;
#X obj 12 372 *~;
#X obj 12 16 spam.in~ 0;
#X obj 12 404 spam.out~;
#X obj 27 133 spam.in 0;
#X obj 27 350 line~;
#X obj 27 57 loadbang;
#X msg 27 108 0 0;
#X obj 27 78 t b b b, f 44;
#X obj 157 108 f \$1;
#X obj 157 133 tools/mat.2d.itorc;
#X obj 157 156 tools/mat.2d.rctocar;
#X obj 288 100 tools/mat.2d.getdim \$2;
#X obj 27 209 tools/mat.2d.distance, f 44;
#X obj 288 144 / 2;
#X obj 345 144 / 2;
#X obj 288 166 - 1;
#X obj 345 166 - 1;
#X obj 288 188 pack f f, f 10;
#X obj 288 122 unpack f f;
#N canvas 0 22 237 255 size 0;
#X obj 53 59 spam.in 0;
#X obj 53 81 route size;
#X obj 53 103 max 1;
#X obj 33 27 inlet;
#X obj 33 159 / 1, f 5;
#X obj 33 181 outlet;
#X obj 53 129 t b f;
#X connect 0 0 1 0;
#X connect 1 0 2 0;
#X connect 2 0 6 0;
#X connect 3 0 4 0;
#X connect 4 0 5 0;
#X connect 6 0 4 0;
#X connect 6 1 4 1;
#X restore 27 233 pd size;
#N canvas 0 22 450 300 scale 0;
#X obj 26 62 * 3.14129;
#X obj 26 106 + 1;
#X obj 26 40 min 1;
#X obj 26 84 cos;
#X obj 26 128 * 2.535;
#X obj 26 150 clip 0 1;
#X obj 26 17 inlet;
#X obj 26 238 outlet;
#X connect 0 0 3 0;
#X connect 1 0 4 0;
#X connect 2 0 0 0;
#X connect 3 0 1 0;
#X connect 4 0 5 0;
#X connect 5 0 7 0;
#X connect 6 0 2 0;
#X restore 27 255 pd scale;
#X obj 180 16 declare -stdpath spam;
#X obj 27 155 route list, f 11;
#N canvas 0 22 450 300 opacity 0;
#X obj 60 25 spam.in 0;
#X obj 60 47 route opacity;
#X obj 60 69 clip 0 100;
#X obj 60 92 / 100;
#X obj 24 25 inlet;
#X obj 24 232 outlet;
#X obj 24 157 * 1, f 5;
#X obj 60 115 t b f, f 6;
#X connect 0 0 1 0;
#X connect 1 0 2 0;
#X connect 2 0 3 0;
#X connect 3 0 7 0;
#X connect 4 0 6 0;
#X connect 6 0 5 0;
#X connect 7 0 6 0;
#X connect 7 1 6 1;
#X restore 27 301 pd opacity;
#N canvas 175 156 450 367 hardness 0;
#X obj 46 39 spam.in 0;
#X obj 46 61 route hardness;
#X obj 46 83 clip 0 100;
#X obj 46 105 / 100;
#X obj 34 181 moses 1;
#X obj 34 158 f;
#X obj 34 253 outlet;
#X obj 34 16 inlet;
#X obj 46 126 t b f;
#X obj 34 205 bang;
#X obj 34 227 f 0;
#X obj 73 159 - 1e-06;
#X connect 0 0 1 0;
#X connect 1 0 2 0;
#X connect 2 0 3 0;
#X connect 3 0 8 0;
#X connect 4 0 9 0;
#X connect 4 1 6 0;
#X connect 5 0 4 0;
#X connect 7 0 5 0;
#X connect 8 0 5 0;
#X connect 8 1 11 0;
#X connect 9 0 10 0;
#X connect 10 0 6 0;
#X connect 11 0 4 1;
#X restore 27 278 pd hardness;
#X obj 27 328 pack f 10;
#X connect 0 0 2 0;
#X connect 1 0 0 0;
#X connect 3 0 22 0;
#X connect 4 0 0 1;
#X connect 5 0 7 0;
#X connect 6 0 22 0;
#X connect 7 0 6 0;
#X connect 7 1 8 0;
#X connect 7 2 11 0;
#X connect 8 0 9 0;
#X connect 9 0 10 0;
#X connect 10 0 12 1;
#X connect 11 0 9 1;
#X connect 11 0 10 1;
#X connect 11 0 18 0;
#X connect 12 0 19 0;
#X connect 13 0 15 0;
#X connect 14 0 16 0;
#X connect 15 0 17 0;
#X connect 16 0 17 1;
#X connect 17 0 12 2;
#X connect 18 0 13 0;
#X connect 18 1 14 0;
#X connect 19 0 20 0;
#X connect 20 0 24 0;
#X connect 22 0 12 0;
#X connect 23 0 25 0;
#X connect 24 0 23 0;
#X connect 25 0 4 0;
