#N struct 1823-t-scope float x1 float y1 float x2 float y2 float c1
float c2 float lw;
#N struct 1821-t-scope float x1 float y1 float x2 float y2 float c1
float c2 float lw;
#N struct 1819-t-scope float x1 float y1 float x2 float y2 float c1
float c2 float lw;
#N struct 1817-t-scope float x1 float y1 float x2 float y2 float c1
float c2 float lw;
#N struct 1815-t-scope float x1 float y1 float x2 float y2 float c1
float c2 float lw;
#N struct 1813-t-scope float x1 float y1 float x2 float y2 float c1
float c2 float lw;
#N struct 1811-t-scope float x1 float y1 float x2 float y2 float c1
float c2 float lw;
#N struct 1809-t-scope float x1 float y1 float x2 float y2 float c1
float c2 float lw;
#N struct 1807-t-scope float x1 float y1 float x2 float y2 float c1
float c2 float lw;
#N struct 1805-t-scope float x1 float y1 float x2 float y2 float c1
float c2 float lw;
#N struct 1803-t-scope float x1 float y1 float x2 float y2 float c1
float c2 float lw;
#N struct 1801-t-scope float x1 float y1 float x2 float y2 float c1
float c2 float lw;
#N struct 1799-t-scope float x1 float y1 float x2 float y2 float c1
float c2 float lw;
#N struct 1797-t-scope float x1 float y1 float x2 float y2 float c1
float c2 float lw;
#N struct 1795-t-scope float x1 float y1 float x2 float y2 float c1
float c2 float lw;
#N struct 1793-t-scope float x1 float y1 float x2 float y2 float c1
float c2 float lw;
#N canvas 403 23 699 790 10;
#N canvas 0 22 223 200 \$0-scope 0;
#X scalar 1823-t-scope 0.75 0.75 1 1 91 0 1 \;;
#X scalar 1821-t-scope 0.75 0.5 1 0.75 91 0 1 \;;
#X scalar 1819-t-scope 0.75 0.25 1 0.5 91 0 1 \;;
#X scalar 1817-t-scope 0.75 0 1 0.25 91 0 1 \;;
#X scalar 1815-t-scope 0.5 0.75 0.75 1 91 0 1 \;;
#X scalar 1813-t-scope 0.5 0.5 0.75 0.75 91 0 1 \;;
#X scalar 1811-t-scope 0.5 0.25 0.75 0.5 91 0 1 \;;
#X scalar 1809-t-scope 0.5 0 0.75 0.25 91 0 1 \;;
#X scalar 1807-t-scope 0.25 0.75 0.5 1 91 0 1 \;;
#X scalar 1805-t-scope 0.25 0.5 0.5 0.75 91 0 1 \;;
#X scalar 1803-t-scope 0.25 0.25 0.5 0.5 91 0 1 \;;
#X scalar 1801-t-scope 0.25 0 0.5 0.25 91 0 1 \;;
#X scalar 1799-t-scope 0 0.75 0.25 1 91 0 1 \;;
#X scalar 1797-t-scope 0 0.5 0.25 0.75 91 0 1 \;;
#X scalar 1795-t-scope 0 0.25 0.25 0.5 91 0 1 \;;
#X scalar 1793-t-scope 0 0 0.25 0.25 91 0 1 \;;
#X coords 0 0 1 1 116 112 2 100 100;
#X restore 526 414 pd \$0-scope;
#X obj 39 216 nbx 5 14 -1e+37 1e+37 0 0 empty empty empty 0 -8 0 10
-262144 -1 -1 0 256;
#X obj 281 297 tgl 15 0 empty empty empty 17 7 0 10 -262144 -1 -1 0
1;
#X obj 38 362 spam~ 16 mat.2d.scope~ 4 4 \$0-scope, f 38;
#X obj 263 266 mat.gnbx2;
#X obj 263 216 tgl 15 0 empty empty empty 17 7 0 10 -262144 -1 -1 0
1;
#X obj 281 320 metro 100;
#N canvas 0 22 573 343 trajectory 0;
#X obj 54 191 t f f, f 15;
#X obj 54 279 pack f f, f 15;
#X obj 54 237 * 6.28319;
#X obj 141 237 * 6.28319;
#X obj 54 128 line 0;
#X obj 54 257 sin;
#X obj 141 257 sin;
#X obj 54 215 * 3;
#X obj 141 215 * 1;
#X obj 54 80 f 0;
#X obj 144 96 sel 1;
#X obj 54 301 outlet;
#X msg 17 104 stop;
#X obj 17 53 sel 0 1, f 13;
#X obj 144 118 f 0;
#X obj 17 25 inlet;
#X msg 54 104 \$1 \, 1 5000;
#X connect 0 0 7 0;
#X connect 0 1 8 0;
#X connect 1 0 11 0;
#X connect 2 0 5 0;
#X connect 3 0 6 0;
#X connect 4 0 0 0;
#X connect 4 0 10 0;
#X connect 5 0 1 0;
#X connect 6 0 1 1;
#X connect 7 0 2 0;
#X connect 8 0 3 0;
#X connect 9 0 16 0;
#X connect 10 0 14 0;
#X connect 10 1 9 1;
#X connect 12 0 4 0;
#X connect 13 0 12 0;
#X connect 13 1 9 0;
#X connect 14 0 9 0;
#X connect 15 0 13 0;
#X connect 16 0 4 0;
#X restore 263 240 pd trajectory;
#X obj 50 512 vu 12 80 empty empty -1 -8 0 10 -66577 -1 1 0;
#X obj 100 482 vu 12 80 empty empty -1 -8 0 10 -66577 -1 1 0;
#X obj 150 482 vu 12 80 empty empty -1 -8 0 10 -66577 -1 1 0;
#X obj 200 512 vu 12 80 empty empty -1 -8 0 10 -66577 -1 1 0;
#X obj 50 612 vu 12 80 empty empty -1 -8 0 10 -66577 -1 1 0;
#X obj 100 652 vu 12 80 empty empty -1 -8 0 10 -66577 -1 1 0;
#X obj 150 652 vu 12 80 empty empty -1 -8 0 10 -66577 -1 1 0;
#X obj 200 612 vu 12 80 empty empty -1 -8 0 10 -66577 -1 1 0;
#X obj 38 419 env~;
#X obj 38 441 - 100;
#X obj 73 419 env~;
#X obj 73 441 - 100;
#X obj 38 397 spam~ 16 mat.2d.decoder.dbap~ 4 4 8, f 41;
#N canvas 161 390 439 403 gen_circle 0;
#X obj 126 240 cos;
#X obj 171 240 sin;
#X obj 126 171 / 360;
#X obj 126 196 * 6.28319;
#X obj 126 262 * 1;
#X obj 171 262 * 1;
#X obj 126 150 + 90;
#X obj 166 29 inlet;
#X msg 126 79 8;
#X obj 126 101 until;
#X obj 126 123 f 22.5;
#X obj 176 123 + 45;
#X obj 163 101 f 22.5;
#X obj 226 29 inlet;
#X obj 126 218 t f f, f 8;
#X obj 126 284 pack f f;
#X obj 126 306 list prepend;
#X obj 126 328 list;
#X obj 130 361 outlet;
#X obj 226 51 t b f b;
#X obj 166 51 t b f b;
#X connect 0 0 4 0;
#X connect 1 0 5 0;
#X connect 2 0 3 0;
#X connect 3 0 14 0;
#X connect 4 0 15 0;
#X connect 5 0 15 1;
#X connect 6 0 2 0;
#X connect 7 0 20 0;
#X connect 8 0 9 0;
#X connect 9 0 10 0;
#X connect 10 0 11 0;
#X connect 10 0 6 0;
#X connect 11 0 10 1;
#X connect 12 0 10 1;
#X connect 13 0 19 0;
#X connect 14 0 0 0;
#X connect 14 1 1 0;
#X connect 15 0 16 0;
#X connect 16 0 17 0;
#X connect 16 0 18 0;
#X connect 17 0 16 1;
#X connect 19 0 8 0;
#X connect 19 1 4 1;
#X connect 19 1 5 1;
#X connect 19 2 16 1;
#X connect 20 0 8 0;
#X connect 20 1 12 0;
#X connect 20 2 16 1;
#X restore 336 493 pd gen_circle;
#X obj 336 537 list trim;
#X msg 336 560 positions -0.212135 0.212129 -0.3 -4.9758e-06 -0.212128
-0.212136 5.16773e-06 -0.3 0.212136 -0.212128 0.3 5.35966e-06 0.212128
0.212136 -5.55158e-06 0.3;
#X obj 336 515 list prepend set positions;
#X obj 113 419 env~;
#X obj 113 441 - 100;
#X obj 153 419 env~;
#X obj 153 441 - 100;
#X obj 198 419 env~;
#X obj 198 441 - 100;
#X obj 233 419 env~;
#X obj 233 441 - 100;
#X obj 273 419 env~;
#X obj 273 441 - 100;
#X obj 313 419 env~;
#X obj 313 441 - 100;
#X obj 38 237 noise~;
#X obj 422 439 nbx 5 14 -1e+37 1e+37 0 0 empty empty empty 0 -8 0 10
-262144 -1 -1 0 256;
#X obj 382 284 nbx 5 14 1 1e+37 0 0 empty empty empty 0 -8 0 10 -262144
-1 -1 2.42 256;
#X obj 417 409 loadbang;
#X obj 105 249 nbx 5 14 0 0.8 0 0 empty empty empty 0 -8 0 10 -262144
-1 -1 0 256;
#N canvas 443 106 450 300 header 0;
#X obj 3 3 cnv 18 18 18 empty empty mat.2d.encoder~ 2 8 0 14 -262144
-66577 0;
#X text 215 4 by Pierre Guillot - 2016;
#X coords 0 -1 1 1 365 20 2 2 2;
#X restore 6 6 pd header;
#X text 4 31 The abstraction encodes a signal into a matrix depending
on cartesian coordinates. The weight of the signal in each cell is
computed using the distance between the encoding position and the cell
position. To allow an adaptation of the encoding to all the sizes of
matrices \, the coordinates are scaled between -1 and 1 The weight
of the signal decreases with the distance and when the distance reaches
its maximum the weight is null. To sound a bit more natural \, the
weight is transposed on a cosinus scaled. By default \, the distance
is limited in order to never exceed the distance between two cells.
Thus the signal can't be inside of more than five cells. Nevertheless
\, a blur factor allows to stretch the limit and to spread the signal
over a larger set of cells.;
#X obj 38 279 *~ 0.1;
#X obj 286 678 dac~ 1 2 3 4 5 6 7 8;
#X msg 336 464 45;
#X obj 383 216 tgl 15 0 empty empty empty 17 7 0 10 -262144 -1 -1 0
1;
#N canvas 0 22 573 343 trajectory 0;
#X obj 54 191 t f f, f 15;
#X obj 54 279 pack f f, f 15;
#X obj 54 237 * 6.28319;
#X obj 141 237 * 6.28319;
#X obj 54 128 line 0;
#X obj 141 257 sin;
#X obj 141 215 * 1;
#X obj 54 80 f 0;
#X obj 144 96 sel 1;
#X obj 54 301 outlet;
#X msg 17 104 stop;
#X obj 17 53 sel 0 1, f 13;
#X obj 144 118 f 0;
#X obj 17 25 inlet;
#X obj 54 215 * 1;
#X obj 54 257 cos;
#X msg 54 104 \$1 \, 1 5000;
#X connect 0 0 14 0;
#X connect 0 1 6 0;
#X connect 1 0 9 0;
#X connect 2 0 15 0;
#X connect 3 0 5 0;
#X connect 4 0 0 0;
#X connect 4 0 8 0;
#X connect 5 0 1 1;
#X connect 6 0 3 0;
#X connect 7 0 16 0;
#X connect 8 0 12 0;
#X connect 8 1 7 1;
#X connect 10 0 4 0;
#X connect 11 0 10 0;
#X connect 11 1 7 0;
#X connect 12 0 7 0;
#X connect 13 0 11 0;
#X connect 14 0 2 0;
#X connect 15 0 1 0;
#X connect 16 0 4 0;
#X restore 383 240 pd trajectory;
#X msg 370 376 rolloff \$1;
#X obj 383 346 nbx 5 14 -1e+37 1e+37 0 0 empty empty empty 0 -8 0 10
-262144 -1 -1 56 256;
#X msg 465 333 blur \$1;
#X obj 465 301 nbx 5 14 -1e+37 1e+37 0 0 empty empty empty 0 -8 0 10
-262144 -1 -1 -0.51 256;
#X obj 38 307 spam~ 16 mat.2d.encoder~ 4 4, f 38;
#X msg 382 303 spread \$1;
#X obj 537 264 loadbang;
#X msg 537 286 10;
#X msg 417 463 0.3;
#X connect 1 0 37 0;
#X connect 2 0 6 0;
#X connect 4 0 53 1;
#X connect 5 0 7 0;
#X connect 7 0 4 0;
#X connect 16 0 17 0;
#X connect 17 0 9 0;
#X connect 18 0 19 0;
#X connect 19 0 8 0;
#X connect 20 0 16 0;
#X connect 20 0 45 0;
#X connect 20 1 18 0;
#X connect 20 1 45 1;
#X connect 20 2 25 0;
#X connect 20 2 45 2;
#X connect 20 3 27 0;
#X connect 20 3 45 3;
#X connect 20 4 29 0;
#X connect 20 4 45 4;
#X connect 20 5 31 0;
#X connect 20 5 45 5;
#X connect 20 6 33 0;
#X connect 20 6 45 6;
#X connect 20 7 35 0;
#X connect 20 7 45 7;
#X connect 21 0 24 0;
#X connect 22 0 23 0;
#X connect 23 0 20 16;
#X connect 24 0 22 0;
#X connect 25 0 26 0;
#X connect 26 0 12 0;
#X connect 27 0 28 0;
#X connect 28 0 13 0;
#X connect 29 0 30 0;
#X connect 30 0 14 0;
#X connect 31 0 32 0;
#X connect 32 0 15 0;
#X connect 33 0 34 0;
#X connect 34 0 11 0;
#X connect 35 0 36 0;
#X connect 36 0 10 0;
#X connect 37 0 44 0;
#X connect 38 0 21 1;
#X connect 39 0 54 0;
#X connect 40 0 57 0;
#X connect 41 0 44 1;
#X connect 44 0 53 0;
#X connect 46 0 21 0;
#X connect 47 0 48 0;
#X connect 48 0 4 0;
#X connect 49 0 20 16;
#X connect 50 0 49 0;
#X connect 51 0 20 16;
#X connect 52 0 51 0;
#X connect 53 0 3 0;
#X connect 53 0 20 0;
#X connect 53 1 3 1;
#X connect 53 1 20 1;
#X connect 53 2 3 2;
#X connect 53 2 20 2;
#X connect 53 3 3 3;
#X connect 53 3 20 3;
#X connect 53 4 3 4;
#X connect 53 4 20 4;
#X connect 53 5 3 5;
#X connect 53 5 20 5;
#X connect 53 6 3 6;
#X connect 53 6 20 6;
#X connect 53 7 3 7;
#X connect 53 7 20 7;
#X connect 53 8 3 8;
#X connect 53 8 20 8;
#X connect 53 9 3 9;
#X connect 53 9 20 9;
#X connect 53 10 3 10;
#X connect 53 10 20 10;
#X connect 53 11 3 11;
#X connect 53 11 20 11;
#X connect 53 12 3 12;
#X connect 53 12 20 12;
#X connect 53 13 3 13;
#X connect 53 13 20 13;
#X connect 53 14 3 14;
#X connect 53 14 20 14;
#X connect 53 15 3 15;
#X connect 53 15 20 15;
#X connect 54 0 53 1;
#X connect 55 0 56 0;
#X connect 55 0 23 0;
#X connect 56 0 50 0;
#X connect 57 0 21 1;
