#N canvas 129 32 569 811 10;
#X declare -stdpath spam;
#X obj 12 16 spam.in~ 0;
#X obj 12 767 spam.out~;
#X msg 46 458 50;
#X obj 285 686 loadbang;
#X obj 66 709 *, f 5;
#X obj 66 481 max 0;
#X obj 46 436 loadbang;
#X obj 66 392 spam.in 0;
#X obj 121 709 *, f 5;
#X obj 113 436 loadbang;
#X obj 76 680 t b f;
#X obj 131 525 t b f;
#X obj 76 510 r \$0-d;
#X obj 131 504 r \$0-d;
#X obj 131 622 f 1;
#X obj 131 664 -, f 5;
#X obj 131 688 t b f;
#X obj 121 483 max 0;
#X obj 190 456 loadbang;
#X obj 230 706 clip 0 1;
#X obj 230 524 r \$0-d;
#X obj 230 621 t b f;
#X obj 230 663 f 1;
#X obj 230 685 -, f 5;
#X msg 190 488 0.5;
#X obj 76 660 min 1;
#X obj 76 639 + 0.1;
#X obj 76 617 * 5.07;
#X obj 76 552 *;
#X obj 91 531 r \$0-mul;
#X obj 76 594 +;
#X obj 91 574 r \$0-add;
#X obj 12 735 tools/mat.2d.qsgs~, f 46;
#X obj 94 90 spam.in 0;
#X obj 94 14 loadbang;
#X obj 94 275 * 3.14129;
#X obj 94 319 + 1;
#X obj 94 253 min 1;
#X obj 94 341 * 0.5;
#X obj 94 297 cos;
#X obj 146 187 max 0.001;
#X obj 94 231 / 1, f 6;
#X msg 94 65 0 0;
#X obj 146 209 t b f;
#X obj 94 35 t b b b, f 44;
#X obj 224 65 f \$1;
#X obj 224 90 tools/mat.2d.itorc;
#X obj 224 113 tools/mat.2d.rctocar;
#X obj 355 57 tools/mat.2d.getdim \$2;
#X obj 94 166 tools/mat.2d.distance, f 44;
#X obj 355 101 / 2;
#X obj 412 101 / 2;
#X obj 355 123 - 1;
#X obj 412 123 - 1;
#X obj 355 145 pack f f, f 10;
#X obj 355 79 unpack f f;
#X obj 94 363 s \$0-d;
#X obj 445 102 - 1;
#X obj 502 102 - 1;
#X obj 445 79 unpack f f;
#X obj 445 124 +, f 10;
#X obj 445 146 / 2;
#X obj 445 169 t b f;
#X obj 445 191 f 1;
#X obj 445 213 /, f 5;
#X obj 465 235 t b f;
#X obj 465 257 f 1;
#X obj 465 279 -, f 5;
#X obj 445 323 s \$0-add;
#X obj 465 301 s \$0-mul;
#X obj 285 708 symbol \$3;
#X msg 113 458 1000;
#X obj 224 11 declare -stdpath spam;
#X obj 66 414 route grainsize delay feedback;
#X obj 94 112 route list size, f 18;
#X connect 0 0 32 0;
#X connect 2 0 5 0;
#X connect 3 0 70 0;
#X connect 4 0 32 1;
#X connect 5 0 4 0;
#X connect 6 0 2 0;
#X connect 7 0 73 0;
#X connect 8 0 32 2;
#X connect 9 0 71 0;
#X connect 10 0 4 0;
#X connect 10 1 4 1;
#X connect 11 0 14 0;
#X connect 11 1 15 1;
#X connect 12 0 28 0;
#X connect 13 0 11 0;
#X connect 14 0 15 0;
#X connect 15 0 16 0;
#X connect 16 0 8 0;
#X connect 16 1 8 1;
#X connect 17 0 8 0;
#X connect 18 0 24 0;
#X connect 19 0 32 4;
#X connect 20 0 21 0;
#X connect 21 0 22 0;
#X connect 21 1 23 1;
#X connect 22 0 23 0;
#X connect 23 0 19 0;
#X connect 24 0 32 3;
#X connect 25 0 10 0;
#X connect 26 0 25 0;
#X connect 27 0 26 0;
#X connect 28 0 30 0;
#X connect 29 0 28 1;
#X connect 30 0 27 0;
#X connect 31 0 30 1;
#X connect 32 0 1 0;
#X connect 33 0 74 0;
#X connect 34 0 44 0;
#X connect 35 0 39 0;
#X connect 36 0 38 0;
#X connect 37 0 35 0;
#X connect 38 0 56 0;
#X connect 39 0 36 0;
#X connect 40 0 43 0;
#X connect 41 0 37 0;
#X connect 42 0 74 0;
#X connect 43 0 41 0;
#X connect 43 1 41 1;
#X connect 44 0 42 0;
#X connect 44 1 45 0;
#X connect 44 2 48 0;
#X connect 45 0 46 0;
#X connect 46 0 47 0;
#X connect 47 0 49 1;
#X connect 48 0 46 1;
#X connect 48 0 47 1;
#X connect 48 0 55 0;
#X connect 48 0 59 0;
#X connect 49 0 41 0;
#X connect 50 0 52 0;
#X connect 51 0 53 0;
#X connect 52 0 54 0;
#X connect 53 0 54 1;
#X connect 54 0 49 2;
#X connect 55 0 50 0;
#X connect 55 1 51 0;
#X connect 57 0 60 0;
#X connect 58 0 60 1;
#X connect 59 0 57 0;
#X connect 59 1 58 0;
#X connect 60 0 61 0;
#X connect 61 0 62 0;
#X connect 62 0 63 0;
#X connect 62 1 64 1;
#X connect 63 0 64 0;
#X connect 64 0 65 0;
#X connect 64 0 68 0;
#X connect 65 0 66 0;
#X connect 65 1 67 1;
#X connect 66 0 67 0;
#X connect 67 0 69 0;
#X connect 70 0 32 5;
#X connect 71 0 17 0;
#X connect 73 0 5 0;
#X connect 73 1 17 0;
#X connect 73 2 32 3;
#X connect 74 0 49 0;
#X connect 74 1 40 0;
