#N struct 1006-t-meter float x array ls 1006-t-meter-value;
#N struct 1006-t-meter-value float x1 float y1 float s1 float s2 float
s3 float s4 float c0 float c1 float c2 float c3 float c4 float v1 float
v2 float v3 float v4;
#N struct 1003-t-vector float x1 float y1 float x2 float y2;
#N canvas 596 23 687 820 10;
#X declare -stdpath spam;
#X obj 338 727 declare -stdpath spam;
#X obj 28 781 tutos.footer;
#X obj 5 7 tutos.header Linear_Panning;
#X obj 338 750 text define -k \$0-attrs;
#A set positions -0.707106 0.707106 0.707106 0.707106 \; colors 555
90 990 950 900 \; sizes 12 48 \; interval 20 \;;
#X obj 25 480 spam~ 2 ../zpt/zpt.2d.meter~ 2 \$0-meter \$0-attrs,
f 34;
#X obj 25 413 *~;
#X obj 226 413 *~;
#X obj 25 520 spam~ 2 ../zpt/zpt.2d.vector~ 2 \$0-attrs, f 34;
#X text 4 31 ..., f 67;
#N canvas 0 22 730 563 \$0-meter 0;
#X scalar 1006-t-meter 0 \; -0.707106 0.707106 12 24 36 48 555 90 990
950 900 1 1 1 0 \; 0.707106 0.707106 12 24 36 48 555 90 990 950 900
1 0 0 0 \; \;;
#X coords -1 1 1 0 200 100 2 100 100;
#X restore 341 63 pd \$0-meter;
#N canvas 0 22 450 300 \$0-vector 0;
#X scalar 1003-t-vector -0.575666 0.707106 -0.364183 0.707106 \;;
#X coords -1 1 1 0 200 100 2 100 100;
#X restore 341 63 pd \$0-vector;
#X obj 25 351 noise~;
#N canvas 0 22 450 278 (subpatch) 0;
#X array \$0-energy-r 360 float 2;
#X coords 0 1 360 0 200 100 1 0 0;
#X restore 341 423 graph;
#N canvas 0 22 450 278 (subpatch) 0;
#X array \$0-energy-a 360 float 2;
#X coords 0 20 360 -20 200 100 1 0 0;
#X restore 341 543 graph;
#N canvas 0 22 450 278 (subpatch) 0;
#X array \$0-velocity-r 360 float 2;
#X coords 0 1 360 0 200 100 1 0 0;
#X restore 341 183 graph;
#N canvas 0 22 450 278 (subpatch) 0;
#X array \$0-velocity-a 360 float 2;
#X coords 0 20 360 -20 200 100 1 0 0;
#X restore 341 303 graph;
#N canvas 0 22 458 363 _________analyzer______________ 0;
#X obj 223 11 inlet;
#X obj 223 57 unpack;
#X obj 223 283 array set \$0-velocity-r;
#X obj 256 216 -, f 6;
#X obj 256 154 pack;
#X obj 256 196 swap, f 6;
#X obj 256 176 unpack;
#X obj 256 262 array set \$0-velocity-a;
#X obj 323 109 r \$0-index;
#X obj 256 84 / 3.14159;
#X obj 256 128 + 135;
#N canvas 0 22 207 282 cartopol 0;
#X obj 90 147 atan2, f 6;
#X obj 90 125 swap, f 6;
#X obj 9 122 *, f 5;
#X obj 48 100 t f f;
#X obj 48 122 *, f 5;
#X obj 9 144 +, f 7;
#X obj 9 166 sqrt;
#X obj 9 66 t f f, f 14;
#X obj 9 18 inlet;
#X obj 9 43 unpack f f;
#X obj 9 188 pack f f, f 14;
#X obj 9 210 outlet;
#X connect 0 0 10 1;
#X connect 1 0 0 0;
#X connect 1 1 0 1;
#X connect 2 0 5 0;
#X connect 3 0 4 0;
#X connect 3 1 4 1;
#X connect 4 0 5 1;
#X connect 5 0 6 0;
#X connect 6 0 10 0;
#X connect 7 0 2 0;
#X connect 7 1 1 0;
#X connect 7 1 2 1;
#X connect 8 0 9 0;
#X connect 9 0 7 0;
#X connect 9 1 1 1;
#X connect 9 1 3 0;
#X connect 10 0 11 0;
#X restore 223 34 pd cartopol;
#X obj 43 11 inlet;
#X obj 43 57 unpack;
#X obj 76 216 -, f 6;
#X obj 76 154 pack;
#X obj 76 196 swap, f 6;
#X obj 76 176 unpack;
#X obj 137 109 r \$0-index;
#X obj 76 84 / 3.14159;
#X obj 76 128 + 135;
#N canvas 0 22 207 282 cartopol 0;
#X obj 90 147 atan2, f 6;
#X obj 90 125 swap, f 6;
#X obj 9 122 *, f 5;
#X obj 48 100 t f f;
#X obj 48 122 *, f 5;
#X obj 9 144 +, f 7;
#X obj 9 166 sqrt;
#X obj 9 66 t f f, f 14;
#X obj 9 18 inlet;
#X obj 9 43 unpack f f;
#X obj 9 188 pack f f, f 14;
#X obj 9 210 outlet;
#X connect 0 0 10 1;
#X connect 1 0 0 0;
#X connect 1 1 0 1;
#X connect 2 0 5 0;
#X connect 3 0 4 0;
#X connect 3 1 4 1;
#X connect 4 0 5 1;
#X connect 5 0 6 0;
#X connect 6 0 10 0;
#X connect 7 0 2 0;
#X connect 7 1 1 0;
#X connect 7 1 2 1;
#X connect 8 0 9 0;
#X connect 9 0 7 0;
#X connect 9 1 1 1;
#X connect 9 1 3 0;
#X connect 10 0 11 0;
#X restore 43 34 pd cartopol;
#X obj 76 262 array set \$0-energy-a;
#X obj 43 283 array set \$0-energy-r;
#X obj 323 131 / 4;
#X obj 137 131 / 4;
#X obj 256 106 * -180;
#X obj 76 106 * -180;
#X obj 203 234 nbx 5 14 -1e+37 1e+37 0 0 empty empty empty 0 -8 0 10
-262144 -1 -1 0.795379 256;
#X connect 0 0 11 0;
#X connect 1 0 2 0;
#X connect 1 0 28 0;
#X connect 1 1 9 0;
#X connect 3 0 7 0;
#X connect 4 0 6 0;
#X connect 5 0 3 0;
#X connect 5 1 3 1;
#X connect 6 0 5 0;
#X connect 6 1 5 1;
#X connect 8 0 7 1;
#X connect 8 0 2 1;
#X connect 8 0 24 0;
#X connect 9 0 26 0;
#X connect 10 0 4 0;
#X connect 11 0 1 0;
#X connect 12 0 21 0;
#X connect 13 0 23 0;
#X connect 13 1 19 0;
#X connect 14 0 22 0;
#X connect 15 0 17 0;
#X connect 16 0 14 0;
#X connect 16 1 14 1;
#X connect 17 0 16 0;
#X connect 17 1 16 1;
#X connect 18 0 22 1;
#X connect 18 0 23 1;
#X connect 18 0 25 0;
#X connect 19 0 27 0;
#X connect 20 0 15 0;
#X connect 21 0 13 0;
#X connect 24 0 4 1;
#X connect 25 0 15 1;
#X connect 26 0 10 0;
#X connect 27 0 20 0;
#X restore 25 593 pd _________analyzer______________;
#X obj 88 168 + 1;
#X obj 58 212 f -1;
#X obj 89 212 f 1;
#X obj 58 168 f 0;
#X obj 141 242 s \$0-index;
#X obj 56 106 tgl 15 0 empty empty empty 17 7 0 10 -262144 -1 -1 1
1;
#N canvas 291 190 599 447 __________drawer_______________ 0;
#X obj 372 160 pointer;
#X obj 317 33 loadbang;
#X obj 317 55 t b b b, f 19;
#X obj 428 77 f \$0;
#X msg 428 100 \; pd-\$1-vector clear;
#X obj 372 77 f \$0;
#X msg 372 136 traverse pd-\$1-vector \, bang;
#X obj 176 213 unpack, f 12;
#X obj 25 214 unpack, f 12;
#X obj 25 92 inlet;
#X obj 176 92 inlet;
#N canvas 736 262 450 380 \$0-t-vector 0;
#X obj 27 18 struct \$0-t-vector float x1 float y1 float x2 float y2
;
#X obj 26 49 filledpolygon 900 900 7 x1 y1 x1 y1;
#X obj 27 74 filledpolygon 9 9 7 x2 y2 x2 y2;
#X obj 26 107 drawpolygon 900 1 0 0.05 x1 y1;
#X obj 26 127 drawpolygon 9 1 0 0.05 x2 y2;
#X obj 27 164 filledpolygon 333 333 8 0 0.05 0 0.05;
#X restore 317 8 pd \$0-t-vector;
#X obj 176 257 clip -1 1;
#X obj 246 257 clip -1 1;
#X obj 176 302 set \$0-t-vector x2 y2;
#X obj 317 184 append \$0-t-vector x1 y1 x2 y2;
#X obj 25 302 set \$0-t-vector x1 y1;
#X msg 317 77 0 0 0 0;
#X connect 0 0 15 4;
#X connect 1 0 2 0;
#X connect 2 0 17 0;
#X connect 2 1 5 0;
#X connect 2 2 3 0;
#X connect 3 0 4 0;
#X connect 5 0 6 0;
#X connect 6 0 0 0;
#X connect 7 0 12 0;
#X connect 7 1 13 0;
#X connect 8 0 16 0;
#X connect 8 1 16 1;
#X connect 9 0 8 0;
#X connect 10 0 7 0;
#X connect 12 0 14 0;
#X connect 13 0 14 1;
#X connect 15 0 14 2;
#X connect 15 0 16 2;
#X connect 17 0 15 0;
#X restore 25 560 pd __________drawer_______________;
#X obj 58 190 sel 361 -1, f 11;
#X obj 58 134 metro 25;
#X text 76 670 Définir minima et maxima des vecteurs \, à quelles
angles;
#X obj 241 387 * 0.707107;
#X obj 134 339 cos;
#X obj 167 339 sin;
#X obj 164 361 -, f 6;
#X obj 114 361 +, f 6;
#X obj 114 387 * 0.707107;
#X obj 100 258 / 720;
#X obj 100 280 - 0.25;
#X obj 174 287 * 3.14159;
#X obj 53 322 nbx 5 14 -1e+37 1e+37 0 0 empty empty empty 0 -8 0 10
-262144 -1 -1 0.479965 256;
#X obj 174 309 t f f;
#X obj 217 212 nbx 5 14 -1e+37 1e+37 0 0 empty empty empty 0 -8 0 10
-262144 -1 -1 290 256;
#X obj 254 444 nbx 5 14 -1e+37 1e+37 0 0 empty empty empty 0 -8 0 10
-262144 -1 -1 0.300706 256;
#X obj 54 444 nbx 5 14 -1e+37 1e+37 0 0 empty empty empty 0 -8 0 10
-262144 -1 -1 0.953717 256;
#X connect 5 0 4 0;
#X connect 5 0 7 0;
#X connect 6 0 4 1;
#X connect 6 0 7 1;
#X connect 7 0 23 0;
#X connect 7 0 16 0;
#X connect 7 1 23 1;
#X connect 7 1 16 1;
#X connect 11 0 5 0;
#X connect 11 0 6 0;
#X connect 17 0 20 1;
#X connect 18 0 17 1;
#X connect 19 0 17 1;
#X connect 20 0 17 0;
#X connect 20 0 24 0;
#X connect 22 0 25 0;
#X connect 24 0 18 0;
#X connect 24 1 19 0;
#X connect 24 2 21 0;
#X connect 24 2 33 0;
#X connect 24 2 38 0;
#X connect 25 0 20 0;
#X connect 27 0 6 1;
#X connect 27 0 39 0;
#X connect 28 0 30 0;
#X connect 28 0 31 0;
#X connect 29 0 30 1;
#X connect 29 0 31 1;
#X connect 30 0 27 0;
#X connect 31 0 32 0;
#X connect 32 0 5 1;
#X connect 32 0 40 0;
#X connect 33 0 34 0;
#X connect 34 0 35 0;
#X connect 35 0 36 0;
#X connect 35 0 37 0;
#X connect 37 0 28 0;
#X connect 37 1 29 0;
