#N struct 1051-t-vector float x1 float y1 float x2 float y2 float x3
float y3;
#N struct 1054-t-meter float x array ls 1054-t-meter-value;
#N struct 1054-t-meter-value float x1 float y1 float s1 float s2 float
s3 float s4 float c0 float c1 float c2 float c3 float c4 float v1 float
v2 float v3 float v4;
#N canvas 170 213 593 507 10;
#X declare -stdpath spam;
#X obj 430 7 declare -stdpath spam;
#X obj 6 447 tutos.footer;
#X obj 5 7 tutos.header Linear_Panning;
#X obj 430 30 text define -k \$0-attrs;
#A set positions -0.707106 0.707106 0.707106 0.707106 \; colors 555
90 990 950 900 \; sizes 12 48 \; interval 20 \;;
#X obj 25 190 spam~ 2 ../zpt/zpt.2d.meter~ 2 \$0-meter \$0-attrs;
#X obj 25 230 spam~ 2 ../zpt/zpt.2d.vector~ 2 \$0-attrs, f 48;
#X text 4 31 ..., f 67;
#N canvas 0 22 730 563 \$0-meter 0;
#X scalar 1051-t-vector -0.0677261 0.707106 -0.033941 0.707106 -0.0314107
0.999507 \;;
#X scalar 1054-t-meter 0 \; -0.707106 0.707106 12 24 36 48 555 90 990
950 900 1 1 0 0 \; 0.707106 0.707106 12 24 36 48 555 90 990 950 900
1 1 0 0 \; \;;
#X coords -1 1.1 1 0 292 90 2 100 100;
#X restore 24 331 pd \$0-meter;
#X obj 25 121 noise~;
#N canvas 732 307 450 300 trajectory 0;
#X obj 50 143 * 90;
#X obj 50 165 - 45;
#X msg 50 207 \$1 5000;
#X obj 50 123 tgl 15 0 empty empty empty 17 7 0 10 -262144 -1 -1 1
1;
#X obj 49 229 line 0 20;
#X obj 49 261 outlet;
#X obj 121 187 loadbang;
#X obj 121 209 f 0;
#X obj 50 28 r pd;
#X obj 50 50 route dsp;
#X obj 50 98 metro 5000;
#X msg 131 120 stop;
#X obj 131 78 sel 0 1;
#X obj 50 187 f;
#X connect 0 0 1 0;
#X connect 1 0 13 0;
#X connect 2 0 4 0;
#X connect 3 0 0 0;
#X connect 4 0 5 0;
#X connect 6 0 7 0;
#X connect 7 0 4 0;
#X connect 8 0 9 0;
#X connect 9 0 10 0;
#X connect 9 0 12 0;
#X connect 10 0 3 0;
#X connect 11 0 4 0;
#X connect 12 0 11 0;
#X connect 12 1 13 0;
#X connect 13 0 2 0;
#X restore 310 109 pd trajectory;
#X obj 25 155 tut.linear.panner~, f 48;
#X msg 435 109 \; pd dsp 1;
#X msg 435 69 \; pd dsp 0;
#X obj 310 134 nbx 5 14 -1e+37 1e+37 0 0 \$0-pos empty empty 0 -8 0
10 -262144 -1 -1 -1.8 256;
#X obj 25 303 dac~ 1 2, f 48;
#N canvas 250 390 1084 400 draw_analyse_vectors_________________________
0;
#X obj 586 160 pointer;
#X obj 507 33 loadbang;
#X obj 507 85 t b b b, f 27;
#X obj 586 117 f \$0;
#X obj 366 213 unpack, f 12;
#X obj 225 214 unpack, f 11;
#X obj 165 12 inlet;
#X obj 366 22 inlet;
#N canvas 736 262 450 380 \$0-t-vector 0;
#X obj 46 163 filledpolygon 900 900 7 x1 y1 x1 y1;
#X obj 37 184 filledpolygon 9 9 7 x2 y2 x2 y2;
#X obj 26 237 drawpolygon 900 1 0 0.05 x1 y1;
#X obj 26 257 drawpolygon 9 1 0 0.05 x2 y2;
#X obj 27 18 struct \$0-t-vector float x1 float y1 float x2 float y2
float x3 float y3;
#X obj 27 205 filledpolygon 555 555 7 x3 y3 x3 y3;
#X obj 26 277 drawpolygon 555 1 0 0.05 x3 y3;
#X obj 27 304 filledpolygon 333 333 8 0 0.05 0 0.05;
#X restore 507 8 pd \$0-t-vector;
#X obj 366 257 clip -1 1;
#X obj 435 257 clip -1 1;
#X obj 366 302 set \$0-t-vector x2 y2, f 23;
#X obj 225 302 set \$0-t-vector x1 y1;
#X obj 507 184 append \$0-t-vector x1 y1 x2 y2 x3 y3, f 13;
#X msg 507 107 0 0 0 0 0 0;
#X obj 65 302 set \$0-t-vector x3 y3;
#X obj 65 158 * 3.14159;
#X obj 65 180 t f f;
#X obj 65 213 sin;
#X obj 92 213 cos;
#X obj 65 136 / 180;
#X obj 328 100 nbx 6 14 -1e+37 1e+37 0 0 \$0-zzdu1 \$0-zzdu2 empty
0 -8 0 10 -262144 -258113 -1 -2.74816 256;
#X obj 265 100 nbx 6 14 -1e+37 1e+37 0 0 \$0-zzdu1 \$0-zzdu2 empty
0 -8 0 10 -262144 -258113 -1 0.70792 256;
#X text 315 99 r;
#X text 378 99 a;
#N canvas 0 22 450 300 cartopoll 0;
#X obj 267 77 t f f;
#X obj 267 99 *, f 5;
#X obj 306 77 t f f;
#X obj 306 99 *, f 5;
#X obj 267 121 +, f 7;
#X obj 267 143 sqrt;
#X obj 315 143 atan2, f 7;
#X obj 315 121 swap, f 7;
#X obj 267 55 unpack f f, f 15;
#X obj 315 188 * -180;
#X obj 315 165 / 3.14159;
#X obj 315 210 + 90;
#X obj 267 255 outlet;
#X obj 327 255 outlet;
#X obj 267 30 inlet;
#X connect 0 0 1 0;
#X connect 0 1 1 1;
#X connect 0 1 7 0;
#X connect 1 0 4 0;
#X connect 2 0 3 0;
#X connect 2 1 3 1;
#X connect 3 0 4 1;
#X connect 4 0 5 0;
#X connect 5 0 12 0;
#X connect 6 0 10 0;
#X connect 7 0 6 0;
#X connect 7 1 6 1;
#X connect 8 0 0 0;
#X connect 8 1 2 0;
#X connect 8 1 7 1;
#X connect 9 0 11 0;
#X connect 10 0 9 0;
#X connect 11 0 13 0;
#X connect 14 0 8 0;
#X restore 330 58 pd cartopoll;
#X obj 163 100 nbx 6 14 -1e+37 1e+37 0 0 \$0-zzdu1 \$0-zzdu2 empty
0 -8 0 10 -262144 -4160 -1 -5.47114 256;
#X obj 100 100 nbx 6 14 -1e+37 1e+37 0 0 \$0-zzdu1 \$0-zzdu2 empty
0 -8 0 10 -262144 -4160 -1 0.710342 256;
#X text 150 99 r;
#X text 213 99 a;
#N canvas 0 22 450 300 cartopoll 0;
#X obj 267 77 t f f;
#X obj 267 99 *, f 5;
#X obj 306 77 t f f;
#X obj 306 99 *, f 5;
#X obj 267 121 +, f 7;
#X obj 267 143 sqrt;
#X obj 315 143 atan2, f 7;
#X obj 315 121 swap, f 7;
#X obj 267 55 unpack f f, f 15;
#X obj 315 188 * -180;
#X obj 315 165 / 3.14159;
#X obj 315 210 + 90;
#X obj 267 255 outlet;
#X obj 327 255 outlet;
#X obj 267 30 inlet;
#X connect 0 0 1 0;
#X connect 0 1 1 1;
#X connect 0 1 7 0;
#X connect 1 0 4 0;
#X connect 2 0 3 0;
#X connect 2 1 3 1;
#X connect 3 0 4 1;
#X connect 4 0 5 0;
#X connect 5 0 12 0;
#X connect 6 0 10 0;
#X connect 7 0 6 0;
#X connect 7 1 6 1;
#X connect 8 0 0 0;
#X connect 8 1 2 0;
#X connect 8 1 7 1;
#X connect 9 0 11 0;
#X connect 10 0 9 0;
#X connect 11 0 13 0;
#X connect 14 0 8 0;
#X restore 165 58 pd cartopoll;
#X msg 586 137 traverse pd-\$1-meter \, bang;
#X obj 603 31 bng 15 250 50 0 empty empty empty 17 7 0 10 -262144 -1
-1;
#X obj 507 55 delay 20;
#X obj 65 73 value \$0-pos;
#X obj 65 52 bang;
#X connect 0 0 13 6;
#X connect 1 0 33 0;
#X connect 2 0 14 0;
#X connect 2 1 3 0;
#X connect 3 0 31 0;
#X connect 4 0 9 0;
#X connect 4 1 10 0;
#X connect 5 0 12 0;
#X connect 5 1 12 1;
#X connect 6 0 5 0;
#X connect 6 0 30 0;
#X connect 6 0 35 0;
#X connect 7 0 4 0;
#X connect 7 0 25 0;
#X connect 9 0 11 0;
#X connect 10 0 11 1;
#X connect 13 0 11 2;
#X connect 13 0 12 2;
#X connect 13 0 15 2;
#X connect 14 0 13 0;
#X connect 16 0 17 0;
#X connect 17 0 18 0;
#X connect 17 1 19 0;
#X connect 18 0 15 0;
#X connect 19 0 15 1;
#X connect 20 0 16 0;
#X connect 25 0 22 0;
#X connect 25 1 21 0;
#X connect 30 0 27 0;
#X connect 30 1 26 0;
#X connect 31 0 0 0;
#X connect 32 0 2 0;
#X connect 33 0 2 0;
#X connect 34 0 20 0;
#X connect 35 0 34 0;
#X coords 0 -1 1 1 290 14 2 100 100;
#X restore 25 270 pd draw_analyse_vectors_________________________
;
#X connect 5 0 15 0;
#X connect 5 1 15 1;
#X connect 8 0 10 0;
#X connect 9 0 10 1;
#X connect 9 0 13 0;
#X connect 10 0 4 0;
#X connect 10 0 5 0;
#X connect 10 0 14 0;
#X connect 10 1 4 1;
#X connect 10 1 5 1;
#X connect 10 1 14 1;
