#N struct 1006-t-meter float x array ls 1006-t-meter-value;
#N struct 1006-t-meter-value float x1 float y1 float s1 float s2 float
s3 float s4 float c0 float c1 float c2 float c3 float c4 float v1 float
v2 float v3 float v4;
#N struct 1003-t-vector float x1 float y1 float x2 float y2 float x3
float y3;
#N canvas 313 23 844 795 10;
#X declare -stdpath spam;
#X obj 430 7 declare -stdpath spam;
#X obj 10 759 tutos.footer;
#X obj 5 7 tutos.header Linear_Panning;
#X obj 430 30 text define -k \$0-attrs;
#A set positions -0.707106 0.707106 0.707106 0.707106 \; colors 555
90 990 950 900 \; sizes 12 48 \; interval 20 \;;
#X obj 25 190 spam~ 2 ../zpt/zpt.2d.meter~ 2 \$0-meter \$0-attrs;
#X obj 676 413 nbx 5 14 -1e+37 1e+37 0 0 empty \$0-pos empty 0 -8 0
10 -262144 -1 -1 33.48 256;
#X obj 25 230 spam~ 2 ../zpt/zpt.2d.vector~ 2 \$0-attrs, f 48;
#X text 4 31 ..., f 67;
#N canvas 0 22 730 563 \$0-meter 0;
#X scalar 1006-t-meter 0 \; -0.707106 0.707106 12 24 36 48 555 90 990
950 900 1 0 0 0 \; 0.707106 0.707106 12 24 36 48 555 90 990 950 900
1 1 1 0 \; \;;
#X coords -1 1.1 1 0 170 90 2 100 100;
#X restore 298 153 pd \$0-meter;
#N canvas 0 22 450 300 \$0-vector 0;
#X scalar 1003-t-vector 0.680244 0.707106 0.53436 0.707106 0.551646
0.834079 \;;
#X coords -1 1.1 1 0 170 90 2 100 100;
#X restore 298 153 pd \$0-vector;
#X obj 25 121 noise~;
#X obj 310 90 tgl 15 0 empty empty empty 17 7 0 10 -262144 -1 -1 1
1;
#X obj 284 402 atan2, f 6;
#X obj 284 338 unpack;
#X obj 284 380 swap, f 6;
#X obj 284 424 nbx 5 14 -1e+37 1e+37 0 0 empty empty empty 0 -8 0 10
-262144 -1 -1 0.804758 256;
#X obj 284 443 / 3.14159;
#X obj 284 507 nbx 5 14 -1e+37 1e+37 0 0 empty empty empty 0 -8 0 10
-262144 -1 -1 88.8907 256;
#X obj 399 410 t f f;
#X obj 399 432 *, f 5;
#X obj 438 410 t f f;
#X obj 438 432 *, f 5;
#X obj 399 454 +, f 7;
#X obj 399 476 sqrt;
#X obj 399 498 nbx 5 14 -1e+37 1e+37 0 0 empty empty empty 0 -8 0 10
-262144 -1 -1 0.981189 256;
#X obj 537 542 int;
#X obj 284 360 t f f;
#N canvas 0 22 450 278 (subpatch) 0;
#X array \$0-energy-r 90 float 4;
#X coords 0 1 89 0 202 53 1 0 0;
#X restore 482 260 graph;
#X obj 284 632 atan2, f 6;
#X obj 284 568 unpack;
#X obj 284 610 swap, f 6;
#X obj 284 654 nbx 5 14 -1e+37 1e+37 0 0 empty empty empty 0 -8 0 10
-262144 -1 -1 0.923657 256;
#X obj 284 673 / 3.14159;
#X obj 284 737 nbx 5 14 -1e+37 1e+37 0 0 empty empty empty 0 -8 0 10
-262144 -1 -1 82.0783 256;
#X obj 399 640 t f f;
#X obj 399 662 *, f 5;
#X obj 438 640 t f f;
#X obj 438 662 *, f 5;
#X obj 399 684 +, f 7;
#X obj 399 706 sqrt;
#X obj 399 728 nbx 5 14 -1e+37 1e+37 0 0 empty empty empty 0 -8 0 10
-262144 -1 -1 0.886307 256;
#X obj 474 797 array set \$0-velocity-r;
#X obj 537 772 int;
#X obj 284 590 t f f;
#X obj 474 567 array set \$0-energy-r;
#N canvas 0 22 450 278 (subpatch) 0;
#X array \$0-energy-a 90 float 5;
#A 0 0.00797696 0.0197911 0.031399 0.0427684 0.0502495 0.0612054 0.0719546
0.0823878 0.0891741 0.0990819 0.108575 0.117829 0.126613 0.132136 0.140276
0.147832 0.154726 0.159235 0.165136 0.170717 0.175451 0.179231 0.181672
0.184065 0.18607 0.186875 0.186854 0.185938 0.183532 0.180699 0.176256
0.172584 0.165974 0.157484 0.148684 0.1417 0.12947 0.117162 0.102977
0.0869224 0.076833 0.0591256 0.0421936 0.0239899 0.0116798 0.00687239
0.0260766 0.0433688 0.0608509 0.0720779 0.0881429 0.103818 0.11695
0.126073 0.137093 0.147375 0.156802 0.163827 0.168108 0.173863 0.177494
0.180334 0.181581 0.182525 0.182706 0.181311 0.179278 0.177436 0.173984
0.169946 0.164806 0.16129 0.155085 0.148444 0.141365 0.133539 0.128227
0.119644 0.111675 0.10864 0.0990219 0.0925118 0.082342 0.0719527 0.0612333
0.050225 0.0427856 0.0313844 0.0197895 0.00797763;
#X coords 0 0.25 89 0 202 53 1 0 0;
#X restore 482 330 graph;
#X obj 553 653 int;
#X obj 492 721 array set \$0-energy-a;
#X obj 492 655 -;
#X obj 492 593 pack;
#X obj 492 635 swap;
#X obj 492 677 / 90;
#X obj 492 615 unpack;
#X obj 707 653 int;
#X obj 642 655 -;
#X obj 642 593 pack;
#X obj 642 635 swap;
#X obj 642 677 / 90;
#X obj 642 615 unpack;
#N canvas 0 22 450 278 (subpatch) 0;
#X array \$0-velocity-r 90 float 4;
#X coords 0 1 89 0 202 53 1 0 0;
#X restore 482 100 graph;
#N canvas 0 22 450 278 (subpatch) 0;
#X array \$0-velocity-a 90 float 4;
#X coords 0 0.25 89 0 202 53 1 0 0;
#X restore 482 170 graph;
#X obj 642 738 array set \$0-velocity-a;
#X obj 284 695 * -180;
#X obj 284 717 + 135;
#X obj 284 465 * -180;
#X obj 284 487 + 135;
#N canvas 94 249 450 300 trajectory 0;
#X obj 50 19 inlet;
#X obj 50 83 * 90;
#X obj 50 105 - 45;
#X msg 50 127 \$1 5000;
#X obj 50 41 metro 5000;
#X obj 50 63 tgl 15 0 empty empty empty 17 7 0 10 -262144 -1 -1 0 1
;
#X obj 49 149 line 0 20;
#X obj 49 181 outlet;
#X obj 121 127 loadbang;
#X obj 121 149 f 0;
#X connect 0 0 4 0;
#X connect 1 0 2 0;
#X connect 2 0 3 0;
#X connect 3 0 6 0;
#X connect 4 0 5 0;
#X connect 5 0 1 0;
#X connect 6 0 7 0;
#X connect 8 0 9 0;
#X connect 9 0 7 0;
#X restore 310 109 pd trajectory;
#X obj 25 155 tut.linear.panner~, f 48;
#X msg 692 93 \; pd dsp 1;
#X msg 692 53 \; pd dsp 0;
#X obj 310 134 nbx 5 14 -1e+37 1e+37 0 0 \$0-pos empty empty 0 -8 0
10 -262144 -1 -1 33.48 256;
#X obj 554 477 + 45;
#N canvas 217 367 450 300 pos 0;
#X obj 145 100 nbx 4 14 -1e+37 1e+37 0 0 empty empty empty 0 -8 0 10
-262144 -1 -1 0 256;
#X obj 100 100 nbx 4 14 -1e+37 1e+37 0 0 empty empty empty 0 -8 0 10
-262144 -1 -1 16.56 256;
#X obj 101 40 unpack f f;
#X obj 164 19 inlet;
#X connect 2 0 1 0;
#X connect 2 1 0 0;
#X connect 3 0 2 0;
#X coords 0 -1 1 1 90 14 2 100 100;
#X restore 495 416 pd pos;
#X obj 492 699 abs;
#X obj 642 699 abs;
#X obj 25 303 dac~ 1 2, f 48;
#N canvas 145 335 840 365 draw_analyse_vectors_________________________
0;
#X obj 586 160 pointer;
#X obj 507 33 loadbang;
#X obj 507 55 t b b b, f 27;
#X obj 666 77 f \$0;
#X msg 666 100 \; pd-\$1-vector clear;
#X obj 586 87 f \$0;
#X msg 586 136 traverse pd-\$1-vector \, bang;
#X obj 366 213 unpack, f 12;
#X obj 225 214 unpack, f 11;
#X obj 225 92 inlet;
#X obj 366 92 inlet;
#N canvas 736 262 450 380 \$0-t-vector 0;
#X obj 46 163 filledpolygon 900 900 7 x1 y1 x1 y1;
#X obj 37 184 filledpolygon 9 9 7 x2 y2 x2 y2;
#X obj 26 237 drawpolygon 900 1 0 0.05 x1 y1;
#X obj 26 257 drawpolygon 9 1 0 0.05 x2 y2;
#X obj 27 304 filledpolygon 333 333 8 0 0.05 0 0.05;
#X obj 27 18 struct \$0-t-vector float x1 float y1 float x2 float y2
float x3 float y3;
#X obj 27 205 filledpolygon 555 555 7 x3 y3 x3 y3;
#X obj 26 277 drawpolygon 555 1 0 0.05 x3 y3;
#X restore 507 8 pd \$0-t-vector;
#X obj 366 257 clip -1 1;
#X obj 435 257 clip -1 1;
#X obj 366 302 set \$0-t-vector x2 y2, f 23;
#X obj 225 302 set \$0-t-vector x1 y1;
#X obj 507 184 append \$0-t-vector x1 y1 x2 y2 x3 y3, f 13;
#X msg 507 77 0 0 0 0 0 0;
#X obj 65 92 r \$0-pos;
#X obj 65 302 set \$0-t-vector x3 y3;
#X obj 65 158 * 3.14159;
#X obj 65 180 t f f;
#X obj 65 213 sin;
#X obj 92 213 cos;
#X obj 65 136 / 180;
#X obj 65 114 + 0;
#X connect 0 0 16 6;
#X connect 1 0 2 0;
#X connect 2 0 17 0;
#X connect 2 1 5 0;
#X connect 2 2 3 0;
#X connect 3 0 4 0;
#X connect 5 0 6 0;
#X connect 6 0 0 0;
#X connect 7 0 12 0;
#X connect 7 1 13 0;
#X connect 8 0 15 0;
#X connect 8 1 15 1;
#X connect 9 0 8 0;
#X connect 10 0 7 0;
#X connect 12 0 14 0;
#X connect 13 0 14 1;
#X connect 16 0 14 2;
#X connect 16 0 15 2;
#X connect 16 0 19 2;
#X connect 17 0 16 0;
#X connect 18 0 25 0;
#X connect 20 0 21 0;
#X connect 21 0 22 0;
#X connect 21 1 23 0;
#X connect 22 0 19 0;
#X connect 23 0 19 1;
#X connect 24 0 20 0;
#X connect 25 0 24 0;
#X restore 25 270 pd draw_analyse_vectors_________________________
;
#X connect 5 0 71 0;
#X connect 6 0 76 0;
#X connect 6 0 13 0;
#X connect 6 1 76 1;
#X connect 6 1 29 0;
#X connect 10 0 67 0;
#X connect 11 0 66 0;
#X connect 12 0 15 0;
#X connect 13 0 26 0;
#X connect 13 1 14 1;
#X connect 13 1 20 0;
#X connect 14 0 12 0;
#X connect 14 1 12 1;
#X connect 15 0 16 0;
#X connect 16 0 64 0;
#X connect 18 0 19 0;
#X connect 18 1 19 1;
#X connect 19 0 22 0;
#X connect 20 0 21 0;
#X connect 20 1 21 1;
#X connect 21 0 22 1;
#X connect 22 0 23 0;
#X connect 23 0 24 0;
#X connect 24 0 44 0;
#X connect 25 0 44 1;
#X connect 26 0 14 0;
#X connect 26 1 18 0;
#X connect 28 0 31 0;
#X connect 29 0 43 0;
#X connect 29 1 30 1;
#X connect 29 1 36 0;
#X connect 30 0 28 0;
#X connect 30 1 28 1;
#X connect 31 0 32 0;
#X connect 32 0 62 0;
#X connect 34 0 35 0;
#X connect 34 1 35 1;
#X connect 35 0 38 0;
#X connect 36 0 37 0;
#X connect 36 1 37 1;
#X connect 37 0 38 1;
#X connect 38 0 39 0;
#X connect 39 0 40 0;
#X connect 40 0 41 0;
#X connect 42 0 41 1;
#X connect 43 0 30 0;
#X connect 43 1 34 0;
#X connect 46 0 47 1;
#X connect 48 0 51 0;
#X connect 49 0 52 0;
#X connect 50 0 48 0;
#X connect 50 1 48 1;
#X connect 51 0 73 0;
#X connect 52 0 50 0;
#X connect 52 1 50 1;
#X connect 53 0 61 1;
#X connect 54 0 57 0;
#X connect 55 0 58 0;
#X connect 56 0 54 0;
#X connect 56 1 54 1;
#X connect 57 0 74 0;
#X connect 58 0 56 0;
#X connect 58 1 56 1;
#X connect 62 0 63 0;
#X connect 63 0 33 0;
#X connect 63 0 55 0;
#X connect 64 0 65 0;
#X connect 65 0 17 0;
#X connect 65 0 49 0;
#X connect 66 0 67 1;
#X connect 66 0 70 0;
#X connect 67 0 4 0;
#X connect 67 0 6 0;
#X connect 67 0 75 0;
#X connect 67 1 4 1;
#X connect 67 1 6 1;
#X connect 67 1 75 1;
#X connect 71 0 25 0;
#X connect 71 0 46 0;
#X connect 71 0 42 0;
#X connect 71 0 55 1;
#X connect 71 0 53 0;
#X connect 71 0 49 1;
#X connect 73 0 47 0;
#X connect 74 0 61 0;
