#N canvas 208 49 277 261 10;
#X obj 118 62 / 90;
#X obj 118 40 + 45;
#X obj 118 17 inlet;
#X msg 118 84 \$1 20;
#X obj 118 106 line~;
#X obj 103 130 sig~ 1;
#X obj 103 152 -~;
#X obj 35 17 inlet~;
#X obj 161 198 outlet~;
#X obj 88 198 outlet~;
#X obj 88 174 *~;
#X obj 161 174 *~;
#X connect 0 0 3 0;
#X connect 1 0 0 0;
#X connect 2 0 1 0;
#X connect 3 0 4 0;
#X connect 4 0 6 1;
#X connect 4 0 11 1;
#X connect 5 0 6 0;
#X connect 6 0 10 1;
#X connect 7 0 11 0;
#X connect 7 0 10 0;
#X connect 10 0 9 0;
#X connect 11 0 8 0;
