#N canvas 162 195 355 431 10;
#X obj 118 17 inlet;
#X msg 158 232 \$1 20;
#X obj 158 254 line~;
#X obj 35 17 inlet~;
#X obj 143 348 outlet~;
#X obj 103 297 outlet~;
#X obj 103 276 *~;
#X obj 143 326 *~;
#X obj 118 84 * 3.14159;
#X obj 118 106 t f f;
#X obj 118 128 cos;
#X obj 145 128 sin;
#X obj 118 150 +, f 5;
#X obj 158 150 -, f 5;
#X msg 118 232 \$1 20;
#X obj 118 254 line~;
#X obj 158 172 * 0.707106;
#X obj 118 192 * 0.707106;
#X obj 118 62 / -180;
#X connect 0 0 18 0;
#X connect 1 0 2 0;
#X connect 2 0 7 1;
#X connect 3 0 7 0;
#X connect 3 0 6 0;
#X connect 6 0 5 0;
#X connect 7 0 4 0;
#X connect 8 0 9 0;
#X connect 9 0 10 0;
#X connect 9 1 11 0;
#X connect 10 0 12 0;
#X connect 10 0 13 0;
#X connect 11 0 12 1;
#X connect 11 0 13 1;
#X connect 12 0 17 0;
#X connect 13 0 16 0;
#X connect 14 0 15 0;
#X connect 15 0 6 1;
#X connect 16 0 1 0;
#X connect 17 0 14 0;
#X connect 18 0 8 0;
