#N canvas 496 347 521 389 10;
#X obj 12 16 spam.in~ 0;
#X obj 12 348 spam.out~;
#X obj 272 80 mat.2d.itorc \$1 \$2 \$3;
#X obj 272 103 mat.2d.rctocar \$2 \$3;
#X obj 182 17 loadbang;
#X obj 182 125 mat.2d.distance, f 30;
#N canvas 89 251 117 209 a_coeff 0;
#X obj 11 51 f 6;
#X obj 11 143 /, f 5;
#X obj 11 29 t b b b, f 10;
#X obj 38 73 log;
#X obj 38 95 /, f 5;
#X obj 68 73 log;
#X obj 38 51 f 2;
#X obj 68 51 f 10;
#X obj 38 117 * 20;
#X obj 11 165 outlet;
#X obj 11 7 inlet;
#X connect 0 0 1 0;
#X connect 1 0 9 0;
#X connect 2 0 0 0;
#X connect 2 1 6 0;
#X connect 2 2 7 0;
#X connect 3 0 4 0;
#X connect 4 0 8 0;
#X connect 5 0 4 1;
#X connect 6 0 3 0;
#X connect 7 0 5 0;
#X connect 8 0 1 1;
#X connect 10 0 2 0;
#X restore 317 148 pd a_coeff;
#X obj 182 39 t b b b b, f 23;
#X obj 182 61 f \$4;
#X obj 227 61 f \$5;
#X obj 182 83 pack f f;
#X obj 182 192 pow, f 23;
#X obj 317 170 * 2;
#X text 290 10 add rolloff and blur;
#X obj 12 326 *~ 1;
#X obj 182 214 t f b;
#X obj 209 237 f \$1;
#X obj 209 259 sel 0;
#X obj 209 281 f 0;
#X obj 184 305 f;
#X connect 0 0 14 0;
#X connect 2 0 3 0;
#X connect 3 0 5 1;
#X connect 4 0 7 0;
#X connect 5 0 11 0;
#X connect 6 0 12 0;
#X connect 7 0 8 0;
#X connect 7 1 9 0;
#X connect 7 2 2 0;
#X connect 7 3 6 0;
#X connect 8 0 10 0;
#X connect 9 0 10 1;
#X connect 10 0 5 0;
#X connect 11 0 15 0;
#X connect 12 0 11 1;
#X connect 14 0 1 0;
#X connect 15 1 16 0;
#X connect 16 0 17 0;
#X connect 17 0 18 0;
