#N canvas 840 419 354 275 10;
#X obj 12 216 *~;
#X obj 12 16 spam.in~ 0;
#X obj 12 238 spam.out~;
#X obj 171 39 mat.2d.itorc \$1 \$2 \$3;
#X obj 171 62 mat.2d.rctocar \$2 \$3;
#X obj 107 106 t b f;
#X obj 107 128 f 1;
#X obj 134 128 min 1;
#X obj 107 150 -, f 5;
#X obj 171 16 loadbang;
#X obj 107 84 mat.2d.distance, f 22;
#N canvas 89 251 117 209 a_coeff 1;
#X obj 11 51 f 6;
#X obj 11 143 /, f 5;
#X obj 11 29 t b b b, f 10;
#X obj 38 73 log;
#X obj 38 95 /, f 5;
#X obj 68 73 log;
#X obj 38 51 f 2;
#X obj 68 51 f 10;
#X obj 38 117 * 20;
#X obj 11 165 outlet;
#X obj 11 7 inlet;
#X connect 0 0 1 0;
#X connect 1 0 9 0;
#X connect 2 0 0 0;
#X connect 2 1 6 0;
#X connect 2 2 7 0;
#X connect 3 0 4 0;
#X connect 4 0 8 0;
#X connect 5 0 4 1;
#X connect 6 0 3 0;
#X connect 7 0 5 0;
#X connect 8 0 1 1;
#X connect 10 0 2 0;
#X restore 226 157 pd a_coeff;
#X connect 0 0 2 0;
#X connect 1 0 0 0;
#X connect 3 0 4 0;
#X connect 4 0 10 1;
#X connect 5 0 6 0;
#X connect 5 1 7 0;
#X connect 6 0 8 0;
#X connect 7 0 8 1;
#X connect 9 0 3 0;
#X connect 10 0 5 0;
