#N canvas 400 30 327 697 10;
#X obj 12 16 spam.in~ 0;
#X obj 72 620 spam.out~;
#X obj 72 574 *, f 5;
#X obj 126 479 loadbang;
#X obj 146 435 spam.in 0;
#X obj 72 545 t b f;
#X obj 146 457 route delay;
#X msg 126 501 1000;
#X obj 27 314 pack f 20;
#X obj 27 336 line~;
#X obj 12 402 delwrite~ \$0-del 5000;
#X obj 12 372 *~;
#X obj 72 525 clip 0 1;
#X obj 146 524 clip 0 5000;
#X obj 72 425 clip 0 1;
#X obj 72 447 t b f;
#X obj 72 469 f 1;
#X obj 72 491 -, f 5;
#X obj 27 132 spam.in 0;
#X obj 27 36 loadbang;
#X msg 27 107 0 0;
#X obj 27 57 t b b b, f 27;
#X obj 106 139 f \$1;
#X obj 186 163 / 2;
#X obj 243 163 / 2;
#X obj 186 185 - 1;
#X obj 243 185 - 1;
#X obj 186 207 pack f f, f 10;
#X obj 27 154 route list, f 11;
#X obj 186 87 t b b, f 10;
#X obj 186 109 f \$2;
#X obj 243 109 f \$3;
#N canvas 561 48 264 360 itorc 0;
#X obj 48 95 int;
#X obj 21 51 t f f;
#X obj 21 145 -, f 5;
#X obj 21 197 pack f f;
#X obj 21 222 outlet;
#X obj 21 172 swap, f 8;
#X obj 21 27 inlet;
#X obj 48 73 /;
#X obj 48 117 *;
#X obj 111 17 inlet;
#X obj 111 39 unpack;
#X connect 0 0 5 1;
#X connect 0 0 8 0;
#X connect 1 0 2 0;
#X connect 1 1 7 0;
#X connect 2 0 5 0;
#X connect 3 0 4 0;
#X connect 5 0 3 0;
#X connect 5 1 3 1;
#X connect 6 0 1 0;
#X connect 7 0 0 0;
#X connect 8 0 2 1;
#X connect 9 0 10 0;
#X connect 10 1 7 1;
#X connect 10 1 8 1;
#X restore 106 162 pd itorc;
#N canvas 0 22 450 300 rctocar 0;
#X obj 13 263 outlet;
#X obj 76 173 -, f 6;
#X obj 109 121 / 2;
#X obj 13 173 -, f 6;
#X obj 46 121 / 2;
#X obj 13 239 pack f f, f 11;
#X obj 13 9 inlet;
#X obj 13 31 unpack f f, f 11;
#X obj 46 99 - 1;
#X obj 109 99 - 1;
#X obj 13 195 /, f 6;
#X obj 76 195 /, f 6;
#X obj 76 217 * -1;
#X obj 109 9 inlet;
#X obj 109 31 unpack;
#X obj 13 53 swap, f 11;
#X connect 1 0 11 0;
#X connect 2 0 1 1;
#X connect 2 0 11 1;
#X connect 3 0 10 0;
#X connect 4 0 3 1;
#X connect 4 0 10 1;
#X connect 5 0 0 0;
#X connect 6 0 7 0;
#X connect 7 0 15 0;
#X connect 7 1 15 1;
#X connect 8 0 4 0;
#X connect 9 0 2 0;
#X connect 10 0 5 0;
#X connect 11 0 12 0;
#X connect 12 0 5 1;
#X connect 13 0 14 0;
#X connect 14 0 8 0;
#X connect 14 1 9 0;
#X connect 15 0 3 0;
#X connect 15 1 1 0;
#X restore 106 184 pd rctocar;
#X obj 163 140 pack f f;
#N canvas 0 22 450 300 distance 0;
#X obj 11 214 outlet;
#X obj 11 16 inlet;
#X obj 56 16 inlet;
#X obj 11 38 unpack;
#X obj 56 38 unpack;
#X obj 11 122 t f f;
#X obj 11 144 *, f 5;
#X obj 11 166 +, f 10;
#X obj 11 191 sqrt;
#X obj 68 122 t f f;
#X obj 68 144 *, f 5;
#X obj 11 102 * 1;
#X obj 68 102 * 1;
#X obj 116 16 inlet;
#X obj 116 38 unpack;
#X obj 11 60 -;
#X obj 68 60 -;
#X connect 1 0 3 0;
#X connect 2 0 4 0;
#X connect 3 0 15 0;
#X connect 3 1 16 0;
#X connect 4 0 15 1;
#X connect 4 1 16 1;
#X connect 5 0 6 0;
#X connect 5 1 6 1;
#X connect 6 0 7 0;
#X connect 7 0 8 0;
#X connect 8 0 0 0;
#X connect 9 0 10 0;
#X connect 9 1 10 1;
#X connect 10 0 7 1;
#X connect 11 0 5 0;
#X connect 12 0 9 0;
#X connect 13 0 14 0;
#X connect 14 0 11 1;
#X connect 14 1 12 1;
#X connect 15 0 11 0;
#X connect 16 0 12 0;
#X restore 27 235 pd distance _______________;
#N canvas 0 22 237 255 size 0;
#X obj 53 59 spam.in 0;
#X obj 53 81 route size;
#X obj 53 103 max 1;
#X obj 33 27 inlet;
#X obj 33 159 / 1, f 5;
#X obj 33 181 outlet;
#X obj 53 129 t b f;
#X connect 0 0 1 0;
#X connect 1 0 2 0;
#X connect 2 0 6 0;
#X connect 3 0 4 0;
#X connect 4 0 5 0;
#X connect 6 0 4 0;
#X connect 6 1 4 1;
#X restore 27 261 pd size;
#N canvas 0 22 450 300 scale 0;
#X obj 26 62 * 3.14129;
#X obj 26 106 + 1;
#X obj 26 40 min 1;
#X obj 26 84 cos;
#X obj 76 160 clip 0 1;
#X obj 26 17 inlet;
#X obj 76 188 outlet;
#X obj 26 128 * 0.5;
#X obj 26 188 outlet;
#X connect 0 0 3 0;
#X connect 1 0 7 0;
#X connect 2 0 0 0;
#X connect 3 0 1 0;
#X connect 4 0 6 0;
#X connect 5 0 2 0;
#X connect 7 0 4 0;
#X connect 7 0 8 0;
#X restore 27 285 pd scale;
#N canvas 571 23 696 606 delread~ 0;
#X obj 176 359 f;
#X obj 53 403 *~;
#X obj 175 405 *~;
#X obj 53 359 f;
#X obj 53 118 phasor~ 0.5;
#X obj 190 238 *~ -1;
#X obj 190 260 +~ 1;
#X obj 53 465 outlet~;
#X obj 448 48 array define \$0-env 515;
#N canvas 0 22 450 300 gen_array 0;
#N canvas 0 22 450 300 counter 0;
#X obj 66 121 until;
#X obj 66 96 f 512;
#X obj 66 146 f 0, f 8;
#X obj 146 146 + 1;
#X obj 66 46 inlet;
#X obj 66 71 t b b, f 8;
#X obj 127 96 f 0;
#X obj 66 171 outlet;
#X connect 0 0 2 0;
#X connect 1 0 0 0;
#X connect 2 0 3 0;
#X connect 2 0 7 0;
#X connect 3 0 2 1;
#X connect 4 0 5 0;
#X connect 5 0 1 0;
#X connect 5 1 6 0;
#X connect 6 0 2 1;
#X restore 48 86 pd counter;
#X obj 48 190 array set \$0-env, f 28;
#X obj 48 111 t f f, f 14;
#X obj 130 158 + 1;
#N canvas 0 22 450 300 mapcos 0;
#X obj 79 81 * 6.28319;
#X obj 79 106 - 3.14159;
#X obj 79 159 + 1;
#X obj 79 182 * 0.5;
#X obj 79 134 cos;
#X obj 79 27 inlet;
#X obj 79 207 outlet;
#X connect 0 0 1 0;
#X connect 1 0 4 0;
#X connect 2 0 3 0;
#X connect 3 0 6 0;
#X connect 4 0 2 0;
#X connect 5 0 0 0;
#X restore 48 158 pd mapcos;
#X obj 48 133 / 512;
#X msg 48 62 512;
#X obj 48 36 loadbang;
#X connect 0 0 2 0;
#X connect 2 0 5 0;
#X connect 2 1 3 0;
#X connect 3 0 1 1;
#X connect 4 0 1 0;
#X connect 5 0 4 0;
#X connect 6 0 0 0;
#X connect 7 0 6 0;
#X restore 448 24 pd gen_array;
#X obj 68 148 *~ 512;
#X obj 68 176 tabread4~ \$0-env;
#X obj 170 70 inlet;
#X obj 53 383 delread~ \$0-del 1;
#X obj 176 385 delread~ \$0-del 1;
#N canvas 0 22 505 496 switcher 0;
#X obj 95 209 samphold~;
#X obj 95 253 snapshot~;
#X obj 160 209 bang~;
#X obj 146 160 *~ 2;
#X obj 146 181 wrap~;
#X obj 95 275 change;
#X obj 95 298 bang;
#X obj 95 342 sel 0 1;
#X obj 95 320 tgl 15 0 empty empty empty 17 7 0 10 -262144 -1 -1 1
1;
#X obj 95 98 inlet~;
#X obj 145 384 outlet;
#X obj 95 384 outlet;
#X connect 0 0 1 0;
#X connect 1 0 5 0;
#X connect 2 0 1 0;
#X connect 3 0 4 0;
#X connect 4 0 0 1;
#X connect 5 0 6 0;
#X connect 6 0 8 0;
#X connect 7 0 10 0;
#X connect 7 1 11 0;
#X connect 8 0 7 0;
#X connect 9 0 0 0;
#X connect 9 0 3 0;
#X restore 53 288 pd switcher;
#X connect 0 0 14 0;
#X connect 1 0 7 0;
#X connect 2 0 7 0;
#X connect 3 0 13 0;
#X connect 4 0 10 0;
#X connect 4 0 15 0;
#X connect 5 0 6 0;
#X connect 6 0 2 1;
#X connect 10 0 11 0;
#X connect 11 0 1 1;
#X connect 11 0 5 0;
#X connect 12 0 3 1;
#X connect 12 0 0 1;
#X connect 13 0 1 0;
#X connect 14 0 2 0;
#X connect 15 0 3 0;
#X connect 15 1 0 0;
#X restore 72 596 pd delread~;
#X connect 0 0 11 0;
#X connect 2 0 38 0;
#X connect 3 0 7 0;
#X connect 4 0 6 0;
#X connect 5 0 2 0;
#X connect 5 1 2 1;
#X connect 6 0 13 0;
#X connect 7 0 13 0;
#X connect 8 0 9 0;
#X connect 9 0 11 1;
#X connect 11 0 10 0;
#X connect 12 0 5 0;
#X connect 13 0 2 0;
#X connect 14 0 15 0;
#X connect 15 0 16 0;
#X connect 15 1 17 1;
#X connect 16 0 17 0;
#X connect 17 0 12 0;
#X connect 18 0 28 0;
#X connect 19 0 21 0;
#X connect 20 0 28 0;
#X connect 21 0 20 0;
#X connect 21 1 22 0;
#X connect 21 2 29 0;
#X connect 22 0 32 0;
#X connect 23 0 25 0;
#X connect 24 0 26 0;
#X connect 25 0 27 0;
#X connect 26 0 27 1;
#X connect 27 0 35 2;
#X connect 28 0 35 0;
#X connect 29 0 30 0;
#X connect 29 1 31 0;
#X connect 30 0 23 0;
#X connect 30 0 34 0;
#X connect 31 0 24 0;
#X connect 31 0 34 1;
#X connect 32 0 33 0;
#X connect 33 0 35 1;
#X connect 34 0 32 1;
#X connect 34 0 33 1;
#X connect 35 0 36 0;
#X connect 36 0 37 0;
#X connect 37 0 8 0;
#X connect 37 1 14 0;
#X connect 38 0 1 0;
