#N canvas 146 23 295 475 10;
#X obj 12 402 *~;
#X obj 12 434 spam.out~;
#X obj 27 358 pack f 20;
#X obj 27 380 line~;
#X obj 12 16 spam.in~;
#N canvas 0 22 450 300 opacity 0;
#X obj 60 25 spam.in 0;
#X obj 60 47 route opacity;
#X obj 60 69 clip 0 100;
#X obj 60 92 / 100;
#X obj 118 159 -, f 5;
#X obj 118 137 f 1;
#X obj 24 25 inlet;
#X obj 24 232 outlet;
#X obj 60 115 t b f b f, f 15;
#X obj 24 157 * 1, f 5;
#X obj 24 209 + 0;
#X connect 0 0 1 0;
#X connect 1 0 2 0;
#X connect 2 0 3 0;
#X connect 3 0 8 0;
#X connect 4 0 10 1;
#X connect 5 0 4 0;
#X connect 6 0 9 0;
#X connect 8 0 9 0;
#X connect 8 1 9 1;
#X connect 8 2 5 0;
#X connect 8 3 4 1;
#X connect 9 0 10 0;
#X connect 10 0 7 0;
#X restore 27 336 pd opacity;
#N canvas 0 22 237 255 size 0;
#X obj 53 59 spam.in 0;
#X obj 53 81 route size;
#X obj 53 103 max 1;
#X obj 33 27 inlet;
#X obj 33 159 / 1, f 5;
#X obj 33 181 outlet;
#X obj 53 129 t b f;
#X connect 0 0 1 0;
#X connect 1 0 2 0;
#X connect 2 0 6 0;
#X connect 3 0 4 0;
#X connect 4 0 5 0;
#X connect 6 0 4 0;
#X connect 6 1 4 1;
#X restore 27 265 pd size;
#N canvas 0 22 450 300 scale 0;
#X obj 26 62 * 3.14129;
#X obj 26 106 + 1;
#X obj 26 40 min 1;
#X obj 26 84 cos;
#X obj 26 172 t b f;
#X obj 26 194 f 1;
#X obj 26 216 -, f 5;
#X obj 26 128 * 2.535;
#X obj 26 150 clip 0 1;
#X obj 26 17 inlet;
#X obj 26 238 outlet;
#X connect 0 0 3 0;
#X connect 1 0 7 0;
#X connect 2 0 0 0;
#X connect 3 0 1 0;
#X connect 4 0 5 0;
#X connect 4 1 6 1;
#X connect 5 0 6 0;
#X connect 6 0 10 0;
#X connect 7 0 8 0;
#X connect 8 0 4 0;
#X connect 9 0 2 0;
#X restore 27 288 pd scale;
#N canvas 0 22 450 367 hardness 0;
#X obj 46 39 spam.in 0;
#X obj 46 61 route hardness;
#X obj 46 83 clip 0 100;
#X obj 46 105 / 100;
#X obj 34 248 moses 1;
#X obj 34 225 f;
#X obj 46 127 t b f, f 7;
#X obj 34 320 outlet;
#X obj 73 272 bang;
#X obj 73 294 f 1;
#X obj 34 16 inlet;
#X obj 46 149 f 1;
#X obj 46 171 -, f 7;
#X obj 46 193 t b f;
#X obj 73 226 + 1e-06;
#X connect 0 0 1 0;
#X connect 1 0 2 0;
#X connect 2 0 3 0;
#X connect 3 0 6 0;
#X connect 4 0 7 0;
#X connect 4 1 8 0;
#X connect 5 0 4 0;
#X connect 6 0 11 0;
#X connect 6 1 12 1;
#X connect 8 0 9 0;
#X connect 9 0 7 0;
#X connect 10 0 5 0;
#X connect 11 0 12 0;
#X connect 12 0 13 0;
#X connect 13 0 5 0;
#X connect 13 1 14 0;
#X connect 14 0 4 1;
#X restore 27 312 pd hardness;
#X obj 27 134 spam.in 0;
#X obj 27 38 loadbang;
#X msg 27 109 0 0;
#X obj 27 59 t b b b, f 27;
#X obj 106 141 f \$1;
#X obj 186 165 / 2;
#X obj 243 165 / 2;
#X obj 186 187 - 1;
#X obj 243 187 - 1;
#X obj 186 209 pack f f, f 10;
#X obj 27 156 route list, f 11;
#X obj 186 89 t b b, f 10;
#X obj 186 111 f \$2;
#X obj 243 111 f \$3;
#N canvas 561 48 264 360 itorc 0;
#X obj 48 95 int;
#X obj 21 51 t f f;
#X obj 21 145 -, f 5;
#X obj 21 197 pack f f;
#X obj 21 222 outlet;
#X obj 21 172 swap, f 8;
#X obj 21 27 inlet;
#X obj 48 73 /;
#X obj 48 117 *;
#X obj 111 17 inlet;
#X obj 111 39 unpack;
#X connect 0 0 5 1;
#X connect 0 0 8 0;
#X connect 1 0 2 0;
#X connect 1 1 7 0;
#X connect 2 0 5 0;
#X connect 3 0 4 0;
#X connect 5 0 3 0;
#X connect 5 1 3 1;
#X connect 6 0 1 0;
#X connect 7 0 0 0;
#X connect 8 0 2 1;
#X connect 9 0 10 0;
#X connect 10 1 7 1;
#X connect 10 1 8 1;
#X restore 106 164 pd itorc;
#N canvas 0 22 450 300 rctocar 0;
#X obj 13 263 outlet;
#X obj 76 173 -, f 6;
#X obj 109 121 / 2;
#X obj 13 173 -, f 6;
#X obj 46 121 / 2;
#X obj 13 239 pack f f, f 11;
#X obj 13 9 inlet;
#X obj 13 31 unpack f f, f 11;
#X obj 46 99 - 1;
#X obj 109 99 - 1;
#X obj 13 195 /, f 6;
#X obj 76 195 /, f 6;
#X obj 76 217 * -1;
#X obj 109 9 inlet;
#X obj 109 31 unpack;
#X obj 13 53 swap, f 11;
#X connect 1 0 11 0;
#X connect 2 0 1 1;
#X connect 2 0 11 1;
#X connect 3 0 10 0;
#X connect 4 0 3 1;
#X connect 4 0 10 1;
#X connect 5 0 0 0;
#X connect 6 0 7 0;
#X connect 7 0 15 0;
#X connect 7 1 15 1;
#X connect 8 0 4 0;
#X connect 9 0 2 0;
#X connect 10 0 5 0;
#X connect 11 0 12 0;
#X connect 12 0 5 1;
#X connect 13 0 14 0;
#X connect 14 0 8 0;
#X connect 14 1 9 0;
#X connect 15 0 3 0;
#X connect 15 1 1 0;
#X restore 106 186 pd rctocar;
#X obj 163 142 pack f f;
#N canvas 0 22 450 300 distance 0;
#X obj 11 214 outlet;
#X obj 11 16 inlet;
#X obj 56 16 inlet;
#X obj 11 38 unpack;
#X obj 56 38 unpack;
#X obj 11 122 t f f;
#X obj 11 144 *, f 5;
#X obj 11 166 +, f 10;
#X obj 11 191 sqrt;
#X obj 68 122 t f f;
#X obj 68 144 *, f 5;
#X obj 11 102 * 1;
#X obj 68 102 * 1;
#X obj 116 16 inlet;
#X obj 116 38 unpack;
#X obj 11 60 -;
#X obj 68 60 -;
#X connect 1 0 3 0;
#X connect 2 0 4 0;
#X connect 3 0 15 0;
#X connect 3 1 16 0;
#X connect 4 0 15 1;
#X connect 4 1 16 1;
#X connect 5 0 6 0;
#X connect 5 1 6 1;
#X connect 6 0 7 0;
#X connect 7 0 8 0;
#X connect 8 0 0 0;
#X connect 9 0 10 0;
#X connect 9 1 10 1;
#X connect 10 0 7 1;
#X connect 11 0 5 0;
#X connect 12 0 9 0;
#X connect 13 0 14 0;
#X connect 14 0 11 1;
#X connect 14 1 12 1;
#X connect 15 0 11 0;
#X connect 16 0 12 0;
#X restore 27 237 pd distance _______________;
#X connect 0 0 1 0;
#X connect 2 0 3 0;
#X connect 3 0 0 1;
#X connect 4 0 0 0;
#X connect 5 0 2 0;
#X connect 6 0 7 0;
#X connect 7 0 8 0;
#X connect 8 0 5 0;
#X connect 9 0 19 0;
#X connect 10 0 12 0;
#X connect 11 0 19 0;
#X connect 12 0 11 0;
#X connect 12 1 13 0;
#X connect 12 2 20 0;
#X connect 13 0 23 0;
#X connect 14 0 16 0;
#X connect 15 0 17 0;
#X connect 16 0 18 0;
#X connect 17 0 18 1;
#X connect 18 0 26 2;
#X connect 19 0 26 0;
#X connect 20 0 21 0;
#X connect 20 1 22 0;
#X connect 21 0 14 0;
#X connect 21 0 25 0;
#X connect 22 0 15 0;
#X connect 22 0 25 1;
#X connect 23 0 24 0;
#X connect 24 0 26 1;
#X connect 25 0 23 1;
#X connect 25 0 24 1;
#X connect 26 0 6 0;
