#N canvas 63 35 465 580 10;
#X obj 12 16 spam.in~ 0;
#X obj 12 507 spam.out~;
#X obj 303 426 loadbang;
#X obj 70 312 spam.in 0;
#X obj 186 427 loadbang;
#X obj 244 446 clip 0 1;
#X obj 244 354 r \$0-d;
#X obj 244 381 t b f;
#X obj 244 403 f 1;
#X obj 244 425 -, f 5;
#X msg 186 452 0.5;
#X obj 70 334 route grainsize delay feedback;
#X obj 36 140 spam.in 0;
#X obj 36 44 loadbang;
#X msg 36 115 0 0;
#X obj 36 65 t b b b, f 27;
#X obj 115 147 f \$1;
#X obj 195 171 / 2;
#X obj 252 171 / 2;
#X obj 195 193 - 1;
#X obj 252 193 - 1;
#X obj 195 215 pack f f, f 10;
#N canvas 0 22 237 255 size 0;
#X obj 53 59 spam.in 0;
#X obj 53 81 route size;
#X obj 53 103 max 1;
#X obj 33 27 inlet;
#X obj 33 159 / 1, f 5;
#X obj 33 181 outlet;
#X obj 53 129 t b f;
#X connect 0 0 1 0;
#X connect 1 0 2 0;
#X connect 2 0 6 0;
#X connect 3 0 4 0;
#X connect 4 0 5 0;
#X connect 6 0 4 0;
#X connect 6 1 4 1;
#X restore 36 270 pd size;
#N canvas 683 261 450 300 scale 0;
#X obj 26 62 * 3.14129;
#X obj 26 106 + 1;
#X obj 26 40 min 1;
#X obj 26 84 cos;
#X obj 26 17 inlet;
#X obj 26 128 * 0.5;
#X obj 26 158 s \$0-d;
#X connect 0 0 3 0;
#X connect 1 0 5 0;
#X connect 2 0 0 0;
#X connect 3 0 1 0;
#X connect 4 0 2 0;
#X connect 5 0 6 0;
#X restore 36 292 pd scale;
#X obj 36 162 route list, f 11;
#X obj 195 95 t b b, f 10;
#X obj 195 117 f \$2;
#X obj 252 117 f \$3;
#N canvas 561 48 264 360 itorc 0;
#X obj 48 95 int;
#X obj 21 51 t f f;
#X obj 21 145 -, f 5;
#X obj 21 197 pack f f;
#X obj 21 222 outlet;
#X obj 21 172 swap, f 8;
#X obj 21 27 inlet;
#X obj 48 73 /;
#X obj 48 117 *;
#X obj 111 17 inlet;
#X obj 111 39 unpack;
#X connect 0 0 5 1;
#X connect 0 0 8 0;
#X connect 1 0 2 0;
#X connect 1 1 7 0;
#X connect 2 0 5 0;
#X connect 3 0 4 0;
#X connect 5 0 3 0;
#X connect 5 1 3 1;
#X connect 6 0 1 0;
#X connect 7 0 0 0;
#X connect 8 0 2 1;
#X connect 9 0 10 0;
#X connect 10 1 7 1;
#X connect 10 1 8 1;
#X restore 115 170 pd itorc;
#N canvas 0 22 450 300 rctocar 0;
#X obj 13 263 outlet;
#X obj 76 173 -, f 6;
#X obj 109 121 / 2;
#X obj 13 173 -, f 6;
#X obj 46 121 / 2;
#X obj 13 239 pack f f, f 11;
#X obj 13 9 inlet;
#X obj 13 31 unpack f f, f 11;
#X obj 46 99 - 1;
#X obj 109 99 - 1;
#X obj 13 195 /, f 6;
#X obj 76 195 /, f 6;
#X obj 76 217 * -1;
#X obj 109 9 inlet;
#X obj 109 31 unpack;
#X obj 13 53 swap, f 11;
#X connect 1 0 11 0;
#X connect 2 0 1 1;
#X connect 2 0 11 1;
#X connect 3 0 10 0;
#X connect 4 0 3 1;
#X connect 4 0 10 1;
#X connect 5 0 0 0;
#X connect 6 0 7 0;
#X connect 7 0 15 0;
#X connect 7 1 15 1;
#X connect 8 0 4 0;
#X connect 9 0 2 0;
#X connect 10 0 5 0;
#X connect 11 0 12 0;
#X connect 12 0 5 1;
#X connect 13 0 14 0;
#X connect 14 0 8 0;
#X connect 14 1 9 0;
#X connect 15 0 3 0;
#X connect 15 1 1 0;
#X restore 115 192 pd rctocar;
#X obj 172 148 pack f f;
#N canvas 0 22 450 300 distance 0;
#X obj 11 214 outlet;
#X obj 11 16 inlet;
#X obj 56 16 inlet;
#X obj 11 38 unpack;
#X obj 56 38 unpack;
#X obj 11 122 t f f;
#X obj 11 144 *, f 5;
#X obj 11 166 +, f 10;
#X obj 11 191 sqrt;
#X obj 68 122 t f f;
#X obj 68 144 *, f 5;
#X obj 11 102 * 1;
#X obj 68 102 * 1;
#X obj 116 16 inlet;
#X obj 116 38 unpack;
#X obj 11 60 -;
#X obj 68 60 -;
#X connect 1 0 3 0;
#X connect 2 0 4 0;
#X connect 3 0 15 0;
#X connect 3 1 16 0;
#X connect 4 0 15 1;
#X connect 4 1 16 1;
#X connect 5 0 6 0;
#X connect 5 1 6 1;
#X connect 6 0 7 0;
#X connect 7 0 8 0;
#X connect 8 0 0 0;
#X connect 9 0 10 0;
#X connect 9 1 10 1;
#X connect 10 0 7 1;
#X connect 11 0 5 0;
#X connect 12 0 9 0;
#X connect 13 0 14 0;
#X connect 14 0 11 1;
#X connect 14 1 12 1;
#X connect 15 0 11 0;
#X connect 16 0 12 0;
#X restore 36 243 pd distance _______________;
#X obj 303 149 - 1;
#X obj 360 149 - 1;
#X obj 303 171 +, f 10;
#X obj 303 193 / 2;
#X obj 303 216 t b f;
#X obj 303 238 f 1;
#X obj 303 260 /, f 5;
#X obj 323 282 t b f;
#X obj 323 304 f 1;
#X obj 323 326 -, f 5;
#X obj 303 370 s \$0-add;
#X obj 323 348 s \$0-mul;
#N canvas 0 23 493 399 delays 0;
#X obj 23 294 *, f 5;
#X obj 15 21 loadbang;
#X obj 33 110 t b f;
#X obj 33 89 r \$0-d;
#X obj 33 207 f 1;
#X obj 33 249 -, f 5;
#X obj 33 273 t b f;
#X obj 23 68 max 0;
#X msg 15 43 1000;
#X obj 77 21 inlet;
#X obj 23 316 outlet;
#X connect 0 0 10 0;
#X connect 1 0 8 0;
#X connect 2 0 4 0;
#X connect 2 1 5 1;
#X connect 3 0 2 0;
#X connect 4 0 5 0;
#X connect 5 0 6 0;
#X connect 6 0 0 0;
#X connect 6 1 0 1;
#X connect 7 0 0 0;
#X connect 8 0 7 0;
#X connect 9 0 7 0;
#X restore 128 441 pd delays;
#N canvas 0 22 448 352 sizes 0;
#X msg 19 43 50;
#X obj 39 294 *, f 5;
#X obj 39 66 max 0;
#X obj 19 21 loadbang;
#X obj 49 265 t b f;
#X obj 49 95 r \$0-d;
#X obj 49 224 + 0.1;
#X obj 49 137 *;
#X obj 64 116 r \$0-mul;
#X obj 49 179 +;
#X obj 64 159 r \$0-add;
#X obj 49 245 clip 0 1;
#X obj 77 21 inlet;
#X obj 39 316 outlet;
#X connect 0 0 2 0;
#X connect 1 0 13 0;
#X connect 2 0 1 0;
#X connect 3 0 0 0;
#X connect 4 0 1 0;
#X connect 4 1 1 1;
#X connect 5 0 7 0;
#X connect 6 0 11 0;
#X connect 7 0 9 0;
#X connect 8 0 7 1;
#X connect 9 0 6 0;
#X connect 10 0 9 1;
#X connect 11 0 4 0;
#X connect 12 0 2 0;
#X restore 70 403 pd sizes;
#N canvas 0 23 667 552 qsgs~ 0;
#X obj 87 312 line~;
#X obj 64 475 *~, f 17;
#X obj 163 447 *~, f 11;
#X obj 226 346 *~ 513;
#X obj 192 158 phasor~ 1;
#X msg 87 288 \$1 20;
#X obj 226 375 tabread4~;
#X obj 64 211 samphold~;
#X obj 64 123 noise~;
#X obj 64 146 *~ 1;
#X obj 64 167 +~;
#X obj 64 188 abs~;
#X obj 85 97 * 0.1;
#X obj 163 361 samphold~;
#X obj 163 284 +~ 1;
#X obj 163 310 *~ 0.5;
#X obj 163 262 noise~;
#N canvas 0 50 450 300 >~ 0;
#X obj 67 114 max~ 0;
#X obj 67 175 -~ 0;
#X obj 130 188 /~;
#X obj 130 152 sig~ -1;
#X obj 145 114 -~;
#X obj 67 212 *~;
#X obj 67 17 inlet~;
#X obj 67 252 outlet~;
#X obj 132 15 inlet;
#X connect 0 0 1 0;
#X connect 1 0 5 0;
#X connect 2 0 5 1;
#X connect 3 0 2 0;
#X connect 4 0 2 1;
#X connect 5 0 7 0;
#X connect 6 0 0 0;
#X connect 6 0 4 1;
#X connect 8 0 4 0;
#X connect 8 0 1 1;
#X connect 8 0 0 1;
#X restore 163 339 pd >~ 1;
#X obj 42 13 inlet~;
#X obj 64 510 outlet~;
#X obj 549 18 inlet;
#X obj 434 18 inlet;
#X obj 344 18 inlet;
#X obj 193 18 inlet;
#X obj 249 18 inlet;
#X msg 286 345 set \$1;
#N canvas 0 22 230 332 frequ 0;
#X obj 19 114 random;
#X obj 19 190 +;
#X obj 19 92 metro;
#X obj 19 163 t b f;
#X obj 19 137 * 0.1;
#X obj 18 213 t b f;
#X obj 20 278 /;
#X msg 20 245 1000;
#X obj 112 13 inlet;
#X obj 19 48 loadbang;
#X obj 20 300 outlet;
#X msg 19 70 1;
#X obj 112 35 moses 1;
#X connect 0 0 4 0;
#X connect 1 0 5 0;
#X connect 1 0 6 1;
#X connect 2 0 0 0;
#X connect 3 0 1 0;
#X connect 3 1 1 1;
#X connect 4 0 3 0;
#X connect 5 0 7 0;
#X connect 5 1 6 1;
#X connect 6 0 10 0;
#X connect 7 0 6 0;
#X connect 8 0 1 0;
#X connect 8 0 0 1;
#X connect 8 0 12 0;
#X connect 9 0 11 0;
#X connect 11 0 2 0;
#X connect 12 1 2 1;
#X restore 193 133 pd frequ;
#X obj 87 265 clip 0 0.99;
#X obj 4 438 *~;
#X obj 64 407 +~ 2;
#X obj 42 352 delwrite~ \$0-grainbuffer 10000, f 16;
#X obj 64 427 vd~ \$0-grainbuffer;
#X obj 249 40 s \$0-delaytime;
#X obj 79 52 r \$0-delaytime;
#X obj 344 40 s \$0-feedback;
#X obj 87 234 r \$0-feedback;
#X obj 434 40 s \$0-rarefaction;
#X obj 202 285 r \$0-rarefaction;
#X obj 549 40 s \$0-waveform;
#X obj 286 320 r \$0-waveform;
#X connect 0 0 28 1;
#X connect 1 0 19 0;
#X connect 1 0 28 0;
#X connect 2 0 1 1;
#X connect 3 0 6 0;
#X connect 4 0 3 0;
#X connect 4 0 7 1;
#X connect 4 0 13 1;
#X connect 5 0 0 0;
#X connect 6 0 2 1;
#X connect 7 0 29 0;
#X connect 8 0 9 0;
#X connect 9 0 10 0;
#X connect 10 0 11 0;
#X connect 11 0 7 0;
#X connect 12 0 9 1;
#X connect 13 0 2 0;
#X connect 14 0 15 0;
#X connect 15 0 17 0;
#X connect 16 0 14 0;
#X connect 17 0 13 0;
#X connect 18 0 30 0;
#X connect 20 0 38 0;
#X connect 21 0 36 0;
#X connect 22 0 34 0;
#X connect 23 0 26 0;
#X connect 24 0 32 0;
#X connect 25 0 6 0;
#X connect 26 0 4 0;
#X connect 27 0 5 0;
#X connect 28 0 30 0;
#X connect 29 0 31 0;
#X connect 31 0 1 0;
#X connect 33 0 12 0;
#X connect 33 0 10 1;
#X connect 35 0 27 0;
#X connect 37 0 17 1;
#X connect 39 0 25 0;
#X restore 12 477 pd qsgs~ ________________________________________
;
#X obj 303 448 symbol \$4;
#X connect 0 0 46 0;
#X connect 2 0 47 0;
#X connect 3 0 11 0;
#X connect 4 0 10 0;
#X connect 5 0 46 4;
#X connect 6 0 7 0;
#X connect 7 0 8 0;
#X connect 7 1 9 1;
#X connect 8 0 9 0;
#X connect 9 0 5 0;
#X connect 10 0 46 3;
#X connect 11 0 45 0;
#X connect 11 1 44 0;
#X connect 11 2 46 3;
#X connect 12 0 24 0;
#X connect 13 0 15 0;
#X connect 14 0 24 0;
#X connect 15 0 14 0;
#X connect 15 1 16 0;
#X connect 15 2 25 0;
#X connect 16 0 28 0;
#X connect 17 0 19 0;
#X connect 18 0 20 0;
#X connect 19 0 21 0;
#X connect 20 0 21 1;
#X connect 21 0 31 2;
#X connect 22 0 23 0;
#X connect 24 0 31 0;
#X connect 25 0 26 0;
#X connect 25 1 27 0;
#X connect 26 0 17 0;
#X connect 26 0 30 0;
#X connect 26 0 32 0;
#X connect 27 0 18 0;
#X connect 27 0 30 1;
#X connect 27 0 33 0;
#X connect 28 0 29 0;
#X connect 29 0 31 1;
#X connect 30 0 28 1;
#X connect 30 0 29 1;
#X connect 31 0 22 0;
#X connect 32 0 34 0;
#X connect 33 0 34 1;
#X connect 34 0 35 0;
#X connect 35 0 36 0;
#X connect 36 0 37 0;
#X connect 36 1 38 1;
#X connect 37 0 38 0;
#X connect 38 0 39 0;
#X connect 38 0 42 0;
#X connect 39 0 40 0;
#X connect 39 1 41 1;
#X connect 40 0 41 0;
#X connect 41 0 43 0;
#X connect 44 0 46 2;
#X connect 45 0 46 1;
#X connect 46 0 1 0;
#X connect 47 0 46 5;
