#N struct 1705-t-scope float x1 float y1 float x2 float y2 float c1
float c2;
#N struct 1704-t-scope float x1 float y1 float x2 float y2 float c1
float c2;
#N struct 1703-t-scope float x1 float y1 float x2 float y2 float c1
float c2;
#N struct 1702-t-scope float x1 float y1 float x2 float y2 float c1
float c2;
#N struct 1701-t-scope float x1 float y1 float x2 float y2 float c1
float c2;
#N struct 1700-t-scope float x1 float y1 float x2 float y2 float c1
float c2;
#N struct 1699-t-scope float x1 float y1 float x2 float y2 float c1
float c2;
#N struct 1698-t-scope float x1 float y1 float x2 float y2 float c1
float c2;
#N struct 1697-t-scope float x1 float y1 float x2 float y2 float c1
float c2;
#N struct 1696-t-scope float x1 float y1 float x2 float y2 float c1
float c2;
#N struct 1695-t-scope float x1 float y1 float x2 float y2 float c1
float c2;
#N struct 1694-t-scope float x1 float y1 float x2 float y2 float c1
float c2;
#N struct 1693-t-scope float x1 float y1 float x2 float y2 float c1
float c2;
#N struct 1692-t-scope float x1 float y1 float x2 float y2 float c1
float c2;
#N struct 1691-t-scope float x1 float y1 float x2 float y2 float c1
float c2;
#N struct 1690-t-scope float x1 float y1 float x2 float y2 float c1
float c2;
#N struct 1689-t-scope float x1 float y1 float x2 float y2 float c1
float c2;
#N struct 1688-t-scope float x1 float y1 float x2 float y2 float c1
float c2;
#N struct 1687-t-scope float x1 float y1 float x2 float y2 float c1
float c2;
#N struct 1686-t-scope float x1 float y1 float x2 float y2 float c1
float c2;
#N struct 1685-t-scope float x1 float y1 float x2 float y2 float c1
float c2;
#N struct 1684-t-scope float x1 float y1 float x2 float y2 float c1
float c2;
#N struct 1683-t-scope float x1 float y1 float x2 float y2 float c1
float c2;
#N struct 1682-t-scope float x1 float y1 float x2 float y2 float c1
float c2;
#N struct 1681-t-scope float x1 float y1 float x2 float y2 float c1
float c2;
#N struct 1680-t-scope float x1 float y1 float x2 float y2 float c1
float c2;
#N struct 1679-t-scope float x1 float y1 float x2 float y2 float c1
float c2;
#N struct 1678-t-scope float x1 float y1 float x2 float y2 float c1
float c2;
#N struct 1677-t-scope float x1 float y1 float x2 float y2 float c1
float c2;
#N struct 1676-t-scope float x1 float y1 float x2 float y2 float c1
float c2;
#N struct 1675-t-scope float x1 float y1 float x2 float y2 float c1
float c2;
#N struct 1674-t-scope float x1 float y1 float x2 float y2 float c1
float c2;
#N struct 1673-t-scope float x1 float y1 float x2 float y2 float c1
float c2;
#N struct 1672-t-scope float x1 float y1 float x2 float y2 float c1
float c2;
#N struct 1671-t-scope float x1 float y1 float x2 float y2 float c1
float c2;
#N struct 1670-t-scope float x1 float y1 float x2 float y2 float c1
float c2;
#N struct 1669-t-scope float x1 float y1 float x2 float y2 float c1
float c2;
#N struct 1668-t-scope float x1 float y1 float x2 float y2 float c1
float c2;
#N struct 1667-t-scope float x1 float y1 float x2 float y2 float c1
float c2;
#N struct 1666-t-scope float x1 float y1 float x2 float y2 float c1
float c2;
#N struct 1665-t-scope float x1 float y1 float x2 float y2 float c1
float c2;
#N struct 1664-t-scope float x1 float y1 float x2 float y2 float c1
float c2;
#N struct 1663-t-scope float x1 float y1 float x2 float y2 float c1
float c2;
#N struct 1662-t-scope float x1 float y1 float x2 float y2 float c1
float c2;
#N struct 1661-t-scope float x1 float y1 float x2 float y2 float c1
float c2;
#N struct 1660-t-scope float x1 float y1 float x2 float y2 float c1
float c2;
#N struct 1659-t-scope float x1 float y1 float x2 float y2 float c1
float c2;
#N struct 1658-t-scope float x1 float y1 float x2 float y2 float c1
float c2;
#N struct 1657-t-scope float x1 float y1 float x2 float y2 float c1
float c2;
#N struct 1656-t-scope float x1 float y1 float x2 float y2 float c1
float c2;
#N struct 1655-t-scope float x1 float y1 float x2 float y2 float c1
float c2;
#N struct 1654-t-scope float x1 float y1 float x2 float y2 float c1
float c2;
#N struct 1653-t-scope float x1 float y1 float x2 float y2 float c1
float c2;
#N struct 1652-t-scope float x1 float y1 float x2 float y2 float c1
float c2;
#N struct 1651-t-scope float x1 float y1 float x2 float y2 float c1
float c2;
#N struct 1650-t-scope float x1 float y1 float x2 float y2 float c1
float c2;
#N struct 1649-t-scope float x1 float y1 float x2 float y2 float c1
float c2;
#N struct 1648-t-scope float x1 float y1 float x2 float y2 float c1
float c2;
#N struct 1647-t-scope float x1 float y1 float x2 float y2 float c1
float c2;
#N struct 1646-t-scope float x1 float y1 float x2 float y2 float c1
float c2;
#N struct 1645-t-scope float x1 float y1 float x2 float y2 float c1
float c2;
#N struct 1644-t-scope float x1 float y1 float x2 float y2 float c1
float c2;
#N struct 1643-t-scope float x1 float y1 float x2 float y2 float c1
float c2;
#N struct 1642-t-scope float x1 float y1 float x2 float y2 float c1
float c2;
#N canvas 602 204 444 491 10;
#X declare -stdpath spam;
#N canvas 0 22 450 300 \$0-scope 0;
#X scalar 1705-t-scope 0.75 -0.75 1 -1 900 0 \;;
#X scalar 1704-t-scope 0.5 -0.75 0.75 -1 900 0 \;;
#X scalar 1703-t-scope 0.25 -0.75 0.5 -1 900 0 \;;
#X scalar 1702-t-scope 0 -0.75 0.25 -1 990 0 \;;
#X scalar 1701-t-scope -0.25 -0.75 0 -1 999 0 \;;
#X scalar 1700-t-scope -0.5 -0.75 -0.25 -1 999 0 \;;
#X scalar 1699-t-scope -0.75 -0.75 -0.5 -1 999 0 \;;
#X scalar 1698-t-scope -1 -0.75 -0.75 -1 999 0 \;;
#X scalar 1697-t-scope 0.75 -0.5 1 -0.75 900 0 \;;
#X scalar 1696-t-scope 0.5 -0.5 0.75 -0.75 900 0 \;;
#X scalar 1695-t-scope 0.25 -0.5 0.5 -0.75 900 0 \;;
#X scalar 1694-t-scope 0 -0.5 0.25 -0.75 90 0 \;;
#X scalar 1693-t-scope -0.25 -0.5 0 -0.75 999 0 \;;
#X scalar 1692-t-scope -0.5 -0.5 -0.25 -0.75 999 0 \;;
#X scalar 1691-t-scope -0.75 -0.5 -0.5 -0.75 999 0 \;;
#X scalar 1690-t-scope -1 -0.5 -0.75 -0.75 999 0 \;;
#X scalar 1689-t-scope 0.75 -0.25 1 -0.5 900 0 \;;
#X scalar 1688-t-scope 0.5 -0.25 0.75 -0.5 900 0 \;;
#X scalar 1687-t-scope 0.25 -0.25 0.5 -0.5 950 0 \;;
#X scalar 1686-t-scope 0 -0.25 0.25 -0.5 90 0 \;;
#X scalar 1685-t-scope -0.25 -0.25 0 -0.5 999 0 \;;
#X scalar 1684-t-scope -0.5 -0.25 -0.25 -0.5 999 0 \;;
#X scalar 1683-t-scope -0.75 -0.25 -0.5 -0.5 999 0 \;;
#X scalar 1682-t-scope -1 -0.25 -0.75 -0.5 999 0 \;;
#X scalar 1681-t-scope 0.75 -0 1 -0.25 990 0 \;;
#X scalar 1680-t-scope 0.5 -0 0.75 -0.25 90 0 \;;
#X scalar 1679-t-scope 0.25 -0 0.5 -0.25 90 0 \;;
#X scalar 1678-t-scope 0 -0 0.25 -0.25 999 0 \;;
#X scalar 1677-t-scope -0.25 -0 0 -0.25 999 0 \;;
#X scalar 1676-t-scope -0.5 -0 -0.25 -0.25 999 0 \;;
#X scalar 1675-t-scope -0.75 -0 -0.5 -0.25 999 0 \;;
#X scalar 1674-t-scope -1 -0 -0.75 -0.25 999 0 \;;
#X scalar 1673-t-scope 0.75 0.25 1 -0 999 0 \;;
#X scalar 1672-t-scope 0.5 0.25 0.75 -0 999 0 \;;
#X scalar 1671-t-scope 0.25 0.25 0.5 -0 999 0 \;;
#X scalar 1670-t-scope 0 0.25 0.25 -0 999 0 \;;
#X scalar 1669-t-scope -0.25 0.25 0 -0 999 0 \;;
#X scalar 1668-t-scope -0.5 0.25 -0.25 -0 999 0 \;;
#X scalar 1667-t-scope -0.75 0.25 -0.5 -0 999 0 \;;
#X scalar 1666-t-scope -1 0.25 -0.75 -0 999 0 \;;
#X scalar 1665-t-scope 0.75 0.5 1 0.25 999 0 \;;
#X scalar 1664-t-scope 0.5 0.5 0.75 0.25 999 0 \;;
#X scalar 1663-t-scope 0.25 0.5 0.5 0.25 999 0 \;;
#X scalar 1662-t-scope 0 0.5 0.25 0.25 999 0 \;;
#X scalar 1661-t-scope -0.25 0.5 0 0.25 999 0 \;;
#X scalar 1660-t-scope -0.5 0.5 -0.25 0.25 999 0 \;;
#X scalar 1659-t-scope -0.75 0.5 -0.5 0.25 999 0 \;;
#X scalar 1658-t-scope -1 0.5 -0.75 0.25 999 0 \;;
#X scalar 1657-t-scope 0.75 0.75 1 0.5 999 0 \;;
#X scalar 1656-t-scope 0.5 0.75 0.75 0.5 999 0 \;;
#X scalar 1655-t-scope 0.25 0.75 0.5 0.5 999 0 \;;
#X scalar 1654-t-scope 0 0.75 0.25 0.5 999 0 \;;
#X scalar 1653-t-scope -0.25 0.75 0 0.5 999 0 \;;
#X scalar 1652-t-scope -0.5 0.75 -0.25 0.5 999 0 \;;
#X scalar 1651-t-scope -0.75 0.75 -0.5 0.5 999 0 \;;
#X scalar 1650-t-scope -1 0.75 -0.75 0.5 999 0 \;;
#X scalar 1649-t-scope 0.75 1 1 0.75 999 0 \;;
#X scalar 1648-t-scope 0.5 1 0.75 0.75 999 0 \;;
#X scalar 1647-t-scope 0.25 1 0.5 0.75 999 0 \;;
#X scalar 1646-t-scope 0 1 0.25 0.75 999 0 \;;
#X scalar 1645-t-scope -0.25 1 0 0.75 999 0 \;;
#X scalar 1644-t-scope -0.5 1 -0.25 0.75 999 0 \;;
#X scalar 1643-t-scope -0.75 1 -0.5 0.75 999 0 \;;
#X scalar 1642-t-scope -1 1 -0.75 0.75 999 0 \;;
#X coords -1 1 1 -1 200 200 2 100 100;
#X restore 17 126 pd \$0-scope;
#X obj 245 175 tgl 15 0 empty empty empty 17 7 0 10 -262144 -1 -1 1
1;
#N canvas 0 22 573 343 trajectory 0;
#X obj 54 191 t f f, f 15;
#X obj 54 279 pack f f, f 15;
#X obj 54 237 * 6.28319;
#X obj 141 237 * 6.28319;
#X obj 54 128 line 0;
#X obj 54 257 sin;
#X obj 141 257 sin;
#X obj 54 215 * 3;
#X obj 141 215 * 1;
#X msg 54 104 \$1 \, 1 10000;
#X obj 54 80 f 0;
#X obj 144 96 sel 1;
#X obj 54 301 outlet;
#X msg 17 104 stop;
#X obj 17 53 sel 0 1, f 13;
#X obj 144 118 f 0;
#X obj 17 25 inlet;
#X connect 0 0 7 0;
#X connect 0 1 8 0;
#X connect 1 0 12 0;
#X connect 2 0 5 0;
#X connect 3 0 6 0;
#X connect 4 0 0 0;
#X connect 4 0 11 0;
#X connect 5 0 1 0;
#X connect 6 0 1 1;
#X connect 7 0 2 0;
#X connect 8 0 3 0;
#X connect 9 0 4 0;
#X connect 10 0 9 0;
#X connect 11 0 15 0;
#X connect 11 1 10 1;
#X connect 13 0 4 0;
#X connect 14 0 13 0;
#X connect 14 1 10 0;
#X connect 15 0 10 0;
#X connect 16 0 14 0;
#X restore 245 194 pd trajectory;
#X obj 245 154 loadbang;
#X obj 267 309 nbx 5 14 -1e+37 1e+37 0 0 empty empty empty 0 -8 0 10
-262144 -1 -1 3.02757 256;
#X obj 267 267 tgl 15 0 empty empty empty 17 7 0 10 -262144 -1 -1 1
1;
#X obj 267 244 loadbang;
#N canvas 0 22 240 385 blurry 0;
#X obj 54 187 * 6.28319;
#X obj 54 128 line 0;
#X obj 54 207 sin;
#X obj 54 80 f 0;
#X obj 144 96 sel 1;
#X obj 54 321 outlet;
#X msg 17 104 stop;
#X obj 17 53 sel 0 1, f 13;
#X obj 144 118 f 0;
#X obj 17 25 inlet;
#X obj 54 229 t f f;
#X obj 54 251 *, f 5;
#X obj 54 273 * 3;
#X obj 54 295 + 1;
#X msg 54 104 \$1 \, 1 50000;
#X connect 0 0 2 0;
#X connect 1 0 4 0;
#X connect 1 0 0 0;
#X connect 2 0 10 0;
#X connect 3 0 14 0;
#X connect 4 0 8 0;
#X connect 4 1 3 1;
#X connect 6 0 1 0;
#X connect 7 0 6 0;
#X connect 7 1 3 0;
#X connect 8 0 3 0;
#X connect 9 0 7 0;
#X connect 10 0 11 0;
#X connect 10 1 11 1;
#X connect 11 0 12 0;
#X connect 12 0 13 0;
#X connect 13 0 5 0;
#X connect 14 0 1 0;
#X restore 267 287 pd blurry;
#X obj 261 396 declare -stdpath spam;
#X obj 5 7 xel.header xel.2d.scope~;
#X obj 6 444 xel.footer;
#X msg 267 328 size \$1;
#X obj 261 419 text define -k \$0-scope-attr;
#A set colors 999 90 990 950 900 \; gain 0 \;;
#X obj 20 407 spam~ 64 xel.2d.scope~ 8 8 \$0-scope \$0-scope-attr,
f 38;
#X text 4 31 The abstraction displays the rms amplitude of the signals
of the cells of a matrix inside a canvas. The two first arguments are
the dimension of the matrix \, the number of rows and the number of
columns. The third argument is the canvas to paint. The last argument
can be the name of a text object to define the colors or the gain.
;
#X obj 20 371 spam~ 64 xel.2d.syn.brush~ 8 8, f 38;
#N canvas 217 367 450 300 pos 0;
#X obj 145 100 nbx 4 14 -1e+37 1e+37 0 0 empty empty empty 0 -8 0 10
-262144 -1 -1 -0.993611 256;
#X obj 100 100 nbx 4 14 -1e+37 1e+37 0 0 empty empty empty 0 -8 0 10
-262144 -1 -1 0.942987 256;
#X obj 119 77 t b f;
#X obj 101 150 pack 1 f;
#X obj 101 18 r \$0-pos;
#X obj 101 40 unpack f f;
#X obj 101 172 outlet;
#X obj 164 19 inlet;
#X connect 0 0 2 0;
#X connect 1 0 3 0;
#X connect 2 0 1 0;
#X connect 2 1 3 1;
#X connect 3 0 6 0;
#X connect 4 0 5 0;
#X connect 5 0 1 0;
#X connect 5 1 0 0;
#X connect 7 0 5 0;
#X coords 0 -1 1 1 90 14 2 100 100;
#X restore 245 218 pd pos;
#X obj 20 341 sig~ 1;
#X connect 1 0 2 0;
#X connect 2 0 16 0;
#X connect 3 0 1 0;
#X connect 4 0 11 0;
#X connect 5 0 7 0;
#X connect 6 0 5 0;
#X connect 7 0 4 0;
#X connect 11 0 15 1;
#X connect 15 0 13 0;
#X connect 15 1 13 1;
#X connect 15 2 13 2;
#X connect 15 3 13 3;
#X connect 15 4 13 4;
#X connect 15 5 13 5;
#X connect 15 6 13 6;
#X connect 15 7 13 7;
#X connect 15 8 13 8;
#X connect 15 9 13 9;
#X connect 15 10 13 10;
#X connect 15 11 13 11;
#X connect 15 12 13 12;
#X connect 15 13 13 13;
#X connect 15 14 13 14;
#X connect 15 15 13 15;
#X connect 15 16 13 16;
#X connect 15 17 13 17;
#X connect 15 18 13 18;
#X connect 15 19 13 19;
#X connect 15 20 13 20;
#X connect 15 21 13 21;
#X connect 15 22 13 22;
#X connect 15 23 13 23;
#X connect 15 24 13 24;
#X connect 15 25 13 25;
#X connect 15 26 13 26;
#X connect 15 27 13 27;
#X connect 15 28 13 28;
#X connect 15 29 13 29;
#X connect 15 30 13 30;
#X connect 15 31 13 31;
#X connect 15 32 13 32;
#X connect 15 33 13 33;
#X connect 15 34 13 34;
#X connect 15 35 13 35;
#X connect 15 36 13 36;
#X connect 15 37 13 37;
#X connect 15 38 13 38;
#X connect 15 39 13 39;
#X connect 15 40 13 40;
#X connect 15 41 13 41;
#X connect 15 42 13 42;
#X connect 15 43 13 43;
#X connect 15 44 13 44;
#X connect 15 45 13 45;
#X connect 15 46 13 46;
#X connect 15 47 13 47;
#X connect 15 48 13 48;
#X connect 15 49 13 49;
#X connect 15 50 13 50;
#X connect 15 51 13 51;
#X connect 15 52 13 52;
#X connect 15 53 13 53;
#X connect 15 54 13 54;
#X connect 15 55 13 55;
#X connect 15 56 13 56;
#X connect 15 57 13 57;
#X connect 15 58 13 58;
#X connect 15 59 13 59;
#X connect 15 60 13 60;
#X connect 15 61 13 61;
#X connect 15 62 13 62;
#X connect 15 63 13 63;
#X connect 16 0 15 1;
#X connect 17 0 15 0;
