#N canvas 962 49 494 474 10;
#X obj 12 16 spam.in~;
#X obj 12 80 env~;
#X obj 69 196 f 1;
#X obj 12 57 *~ 1;
#N canvas 248 34 470 339 clearer 0;
#X msg 23 125 \; pd-\$1 clear;
#X obj 23 35 inlet;
#X obj 23 101 symbol \$4;
#X obj 23 59 f \$1;
#X obj 23 80 sel 0;
#X connect 1 0 3 0;
#X connect 2 0 0 0;
#X connect 3 0 4 0;
#X connect 4 0 2 0;
#X restore 253 124 pd clearer;
#N canvas 0 22 450 300 get.ptr 0;
#X obj 4 72 pointer;
#X msg 4 48 traverse pd-\$1 \, bang;
#X obj 4 3 inlet;
#X obj 4 94 outlet;
#X obj 4 23 symbol \$4;
#X connect 0 0 3 0;
#X connect 1 0 0 0;
#X connect 2 0 4 0;
#X connect 4 0 1 0;
#X restore 186 125 pd get.ptr;
#N canvas 88 457 450 300 \$0-t-scope 0;
#X obj 27 18 struct \$0-t-scope float x array cells \$0-t-scope-value
;
#X obj 27 46 plot cells 0 1 0 0 0;
#X restore 332 19 pd \$0-t-scope;
#N canvas 65 248 568 128 \$0-t-scope-value 0;
#X obj 15 51 filledpolygon c1 c2 1 x1 y1 x2 y1 x2 y2 x1 y2 x1 y1;
#X obj 15 8 struct \$0-t-scope-value float x1 float y1 float x2 float
y2 float c1 float c2;
#X restore 332 42 pd \$0-t-scope-value;
#N canvas 0 22 450 300 filter.cell 0;
#X obj 38 193 spigot 0;
#X obj 83 120 != 0;
#X obj 83 98 f \$2;
#X obj 128 98 f \$1;
#X obj 128 120 == 0;
#X obj 83 142 +, f 8;
#X obj 83 164 == 2;
#X obj 38 215 outlet;
#X obj 37 2 loadbang;
#X obj 38 47 delay 10;
#X obj 37 24 t b b, f 37;
#N canvas 0 22 450 300 resize.buffer 0;
#X obj 19 71 f \$2;
#X obj 19 45 t b b, f 6;
#X obj 19 93 *, f 6;
#X msg 19 115 resize \$1;
#X obj 19 138 array define \$4-buffer-\$1;
#X obj 19 25 inlet;
#X obj 52 71 f \$3;
#X connect 0 0 2 0;
#X connect 1 0 0 0;
#X connect 1 1 6 0;
#X connect 2 0 3 0;
#X connect 3 0 4 0;
#X connect 5 0 1 0;
#X connect 6 0 2 1;
#X restore 256 135 pd resize.buffer;
#X obj 256 46 t b b, f 8;
#X obj 256 110 spigot 0;
#X obj 301 67 f \$1;
#X obj 301 89 == 0;
#X obj 38 76 t b b b b, f 23;
#N canvas 627 102 555 431 get.colors 0;
#X obj 63 117 t l l;
#X obj 90 139 list length;
#N canvas 536 255 450 300 pass 0;
#X obj 51 9 inlet;
#X obj 51 54 spigot, f 7;
#X obj 90 29 > 0;
#X obj 90 9 inlet;
#X obj 51 76 outlet;
#X connect 0 0 1 0;
#X connect 1 0 4 0;
#X connect 2 0 1 1;
#X connect 3 0 2 0;
#X restore 90 258 pd pass;
#X obj 90 280 s \$0-c1;
#N canvas 536 255 450 300 pass 0;
#X obj 51 9 inlet;
#X obj 51 54 spigot, f 7;
#X obj 90 9 inlet;
#X obj 51 76 outlet;
#X obj 90 29 > 3;
#X connect 0 0 1 0;
#X connect 1 0 3 0;
#X connect 2 0 4 0;
#X connect 4 0 1 1;
#X restore 174 214 pd pass;
#N canvas 536 255 450 300 pass 0;
#X obj 51 9 inlet;
#X obj 51 54 spigot, f 7;
#X obj 90 9 inlet;
#X obj 51 76 outlet;
#X obj 90 29 > 2;
#X connect 0 0 1 0;
#X connect 1 0 3 0;
#X connect 2 0 4 0;
#X connect 4 0 1 1;
#X restore 146 258 pd pass;
#X obj 146 280 s \$0-c3;
#X obj 174 236 s \$0-c4;
#N canvas 536 255 450 300 pass 0;
#X obj 51 9 inlet;
#X obj 51 54 spigot, f 7;
#X obj 90 9 inlet;
#X obj 51 76 outlet;
#X obj 90 29 > 1;
#X connect 0 0 1 0;
#X connect 1 0 3 0;
#X connect 2 0 4 0;
#X connect 4 0 1 1;
#X restore 118 215 pd pass;
#X obj 118 237 s \$0-c2;
#X obj 63 189 unpack f f f f f, f 19;
#N canvas 536 255 450 300 pass 0;
#X obj 51 9 inlet;
#X obj 51 54 spigot, f 7;
#X obj 90 9 inlet;
#X obj 51 76 outlet;
#X obj 90 29 > 4;
#X connect 0 0 1 0;
#X connect 1 0 3 0;
#X connect 2 0 4 0;
#X connect 4 0 1 1;
#X restore 63 215 pd pass;
#X obj 63 237 s \$0-c0;
#X obj 29 6 inlet;
#X obj 248 204 > 5;
#X obj 248 226 sel 1;
#X obj 248 272 print ../zpt/zpt.2d.meter~;
#X msg 248 248 warning extra colors arguments;
#X obj 29 95 list split 1;
#X obj 29 27 symbol colors;
#X obj 29 51 text search \$5;
#X obj 29 73 text get \$5;
#X connect 0 0 10 0;
#X connect 0 1 1 0;
#X connect 1 0 11 1;
#X connect 1 0 2 1;
#X connect 1 0 8 1;
#X connect 1 0 5 1;
#X connect 1 0 4 1;
#X connect 1 0 14 0;
#X connect 2 0 3 0;
#X connect 4 0 7 0;
#X connect 5 0 6 0;
#X connect 8 0 9 0;
#X connect 10 0 11 0;
#X connect 10 1 2 0;
#X connect 10 2 8 0;
#X connect 10 3 5 0;
#X connect 10 4 4 0;
#X connect 11 0 12 0;
#X connect 13 0 19 0;
#X connect 14 0 15 0;
#X connect 15 0 17 0;
#X connect 17 0 16 0;
#X connect 18 1 0 0;
#X connect 19 0 20 0;
#X connect 20 0 21 0;
#X connect 21 0 18 0;
#X restore 173 183 pd get.colors;
#X obj 173 96 t b b, f 8;
#X obj 173 160 spigot 0;
#X obj 218 117 f \$2;
#X obj 218 139 != 0;
#X connect 0 0 7 0;
#X connect 1 0 5 0;
#X connect 2 0 1 0;
#X connect 3 0 4 0;
#X connect 4 0 5 1;
#X connect 5 0 6 0;
#X connect 6 0 0 1;
#X connect 8 0 10 0;
#X connect 9 0 16 0;
#X connect 10 0 9 0;
#X connect 10 1 12 0;
#X connect 12 0 13 0;
#X connect 12 1 14 0;
#X connect 13 0 11 0;
#X connect 14 0 15 0;
#X connect 15 0 13 1;
#X connect 16 0 0 0;
#X connect 16 1 2 0;
#X connect 16 2 3 0;
#X connect 16 3 18 0;
#X connect 18 0 19 0;
#X connect 18 1 20 0;
#X connect 19 0 17 0;
#X connect 20 0 21 0;
#X connect 21 0 19 1;
#X restore 69 73 pd filter.cell;
#N canvas 0 22 435 240 get.gain 0;
#X obj 14 136 list split 1;
#X obj 14 92 text search \$5;
#X obj 14 114 text get \$5;
#X obj 14 68 symbol gain;
#X obj 47 207 outlet;
#X obj 48 163 dbtorms;
#X obj 48 185 + 1;
#X obj 14 23 loadbang;
#X obj 14 45 delay 10;
#X connect 0 1 5 0;
#X connect 1 0 2 0;
#X connect 2 0 0 0;
#X connect 3 0 1 0;
#X connect 5 0 6 0;
#X connect 6 0 4 0;
#X connect 7 0 8 0;
#X connect 8 0 3 0;
#X restore 33 36 pd get.gain;
#X obj 69 154 append \$0-t-scope x, f 20;
#X obj 69 124 f 0;
#X obj 69 174 t b p, f 7;
#N canvas 825 172 605 450 resize.cells 0;
#X obj 73 71 f \$2;
#X obj 73 93 *, f 7;
#X obj 73 25 inlet;
#X obj 100 138 setsize \$0-t-scope cells, f 10;
#X obj 73 45 t b b p p, f 21;
#X obj 73 115 t f f;
#X obj 298 238 element \$0-t-scope cells, f 21;
#N canvas 0 22 450 300 counter 0;
#X obj 35 17 inlet;
#X obj 35 39 t f b, f 7;
#X obj 35 61 until;
#X obj 74 61 f 0;
#X obj 35 83 f, f 7;
#X obj 85 83 + 1;
#X obj 35 105 outlet;
#X connect 0 0 1 0;
#X connect 1 0 2 0;
#X connect 1 1 3 0;
#X connect 2 0 4 0;
#X connect 3 0 4 1;
#X connect 4 0 5 0;
#X connect 4 0 6 0;
#X connect 5 0 4 1;
#X restore 73 188 pd counter;
#X obj 190 237 r \$0-c0;
#X obj 73 263 pack f f f f 999, f 20;
#X msg 73 289 \$5 0 \$1 \$2 \$3 \$4;
#N canvas 914 76 348 542 compute_bounds 0;
#X obj 162 213 /, f 6;
#X obj 219 213 /, f 6;
#X obj 18 12 inlet;
#X obj 18 458 pack f f f f, f 29;
#X obj 18 480 outlet;
#X obj 189 361 +;
#X obj 132 383 +;
#X obj 18 358 t f f, f 19;
#X obj 162 169 t b f, f 6;
#X obj 219 169 t b f, f 6;
#X obj 18 266 *;
#X obj 75 328 t f f, f 19;
#X obj 18 174 unpack, f 10;
#X obj 18 290 - 1;
#X obj 75 290 - 1;
#X obj 162 191 f 2;
#X obj 219 191 f 2;
#X obj 75 266 *;
#X obj 162 285 swap, f 10;
#X obj 18 196 swap, f 10;
#X obj 189 383 * -1;
#X obj 75 403 * -1;
#X obj 135 57 t b b, f 8;
#X obj 135 101 pack f f;
#N canvas 0 22 456 338 itorc 0;
#X obj 48 115 int;
#X obj 21 51 t f f;
#X obj 21 165 -, f 5;
#X obj 21 247 pack f f;
#X obj 21 272 outlet;
#X obj 21 192 swap, f 8;
#X obj 21 27 inlet;
#X obj 72 27 inlet;
#X obj 48 93 /;
#X obj 48 137 *;
#X obj 72 49 unpack;
#X connect 0 0 5 1;
#X connect 0 0 9 0;
#X connect 1 0 2 0;
#X connect 1 1 8 0;
#X connect 2 0 5 0;
#X connect 3 0 4 0;
#X connect 5 0 3 0;
#X connect 5 1 3 1;
#X connect 6 0 1 0;
#X connect 7 0 10 0;
#X connect 8 0 0 0;
#X connect 9 0 2 1;
#X connect 10 1 8 1;
#X connect 10 1 9 1;
#X restore 18 153 pd itorc;
#X obj 135 79 f \$2;
#X obj 180 79 f \$3;
#X obj 18 34 t f b, f 20;
#X connect 0 0 10 1;
#X connect 0 0 18 0;
#X connect 1 0 17 1;
#X connect 1 0 18 1;
#X connect 2 0 27 0;
#X connect 3 0 4 0;
#X connect 5 0 20 0;
#X connect 6 0 3 2;
#X connect 7 0 3 0;
#X connect 7 1 6 0;
#X connect 8 0 15 0;
#X connect 8 1 0 1;
#X connect 9 0 16 0;
#X connect 9 1 1 1;
#X connect 10 0 13 0;
#X connect 11 0 21 0;
#X connect 11 1 5 0;
#X connect 12 0 19 0;
#X connect 12 1 19 1;
#X connect 13 0 7 0;
#X connect 14 0 11 0;
#X connect 15 0 0 0;
#X connect 16 0 1 0;
#X connect 17 0 14 0;
#X connect 18 0 6 1;
#X connect 18 1 5 1;
#X connect 19 0 10 0;
#X connect 19 1 17 0;
#X connect 20 0 3 3;
#X connect 21 0 3 1;
#X connect 22 0 25 0;
#X connect 22 1 26 0;
#X connect 23 0 24 1;
#X connect 24 0 12 0;
#X connect 25 0 23 0;
#X connect 25 0 8 0;
#X connect 26 0 23 1;
#X connect 26 0 9 0;
#X connect 27 0 24 0;
#X connect 27 1 22 0;
#X restore 73 236 pd compute_bounds;
#X obj 73 210 t f f, f 38;
#X obj 73 317 set \$0-t-scope-value c1 c2 x1 y1 x2 y2;
#X obj 235 368 outlet;
#X obj 39 362 outlet;
#X obj 114 71 f \$3;
#X connect 0 0 1 0;
#X connect 1 0 5 0;
#X connect 1 0 15 0;
#X connect 2 0 4 0;
#X connect 4 0 0 0;
#X connect 4 1 16 0;
#X connect 4 2 3 1;
#X connect 4 3 6 1;
#X connect 4 3 14 0;
#X connect 5 0 7 0;
#X connect 5 1 3 0;
#X connect 6 0 13 6;
#X connect 7 0 12 0;
#X connect 8 0 9 4;
#X connect 9 0 10 0;
#X connect 10 0 13 0;
#X connect 11 0 9 0;
#X connect 12 0 11 0;
#X connect 12 1 6 0;
#X connect 16 0 1 1;
#X restore 108 196 pd resize.cells;
#N canvas 0 22 389 338 split_y 0;
#X obj 13 180 spigot, f 8;
#X obj 70 180 spigot;
#X obj 13 13 inlet;
#X obj 13 202 outlet;
#X obj 70 202 outlet;
#X obj 103 103 loadbang;
#X obj 103 125 f \$2;
#X obj 103 147 != 0;
#X obj 113 13 inlet;
#X obj 13 35 t b f, f 10;
#X connect 0 0 3 0;
#X connect 1 0 4 0;
#X connect 2 0 9 0;
#X connect 5 0 6 0;
#X connect 6 0 7 0;
#X connect 7 0 1 1;
#X connect 8 0 0 1;
#X connect 9 0 0 0;
#X connect 9 1 1 0;
#X restore 12 223 pd split_y;
#N canvas 0 22 450 573 others 0;
#X obj 35 28 inlet;
#X obj 35 52 t b f f f f;
#X obj 98 72 >= 1;
#X obj 82 133 >= 88;
#X obj 66 205 >= 94;
#X obj 50 268 >= 100;
#X obj 98 114 f 1;
#X obj 82 176 f 2;
#X obj 66 247 f 3;
#X obj 50 310 f 4;
#X obj 35 74 f 0;
#X obj 35 331 +;
#X obj 35 353 sel 0 1 2 3 4, f 19;
#X obj 128 454 r \$0-c3;
#X obj 150 372 r \$0-c4;
#X obj 78 393 r \$0-c1;
#X obj 106 412 r \$0-c2;
#X obj 62 433 r \$0-c0;
#X obj 57 413 f 90;
#X obj 79 455 f 990;
#X obj 101 475 f 950;
#X obj 123 393 f 900;
#X obj 98 94 sel 1;
#X obj 82 155 sel 1;
#X obj 66 227 sel 1;
#X obj 50 290 sel 1;
#X obj 35 455 f 999;
#X obj 35 551 array set \$4-buffer-0, f 22;
#X obj 35 505 t f b, f 11;
#X obj 98 529 f \$1;
#X connect 0 0 1 0;
#X connect 1 0 10 0;
#X connect 1 1 5 0;
#X connect 1 2 4 0;
#X connect 1 3 3 0;
#X connect 1 4 2 0;
#X connect 2 0 22 0;
#X connect 3 0 23 0;
#X connect 4 0 24 0;
#X connect 5 0 25 0;
#X connect 6 0 11 1;
#X connect 7 0 11 1;
#X connect 8 0 11 1;
#X connect 9 0 11 1;
#X connect 10 0 11 0;
#X connect 11 0 12 0;
#X connect 12 0 26 0;
#X connect 12 1 18 0;
#X connect 12 2 19 0;
#X connect 12 3 20 0;
#X connect 12 4 21 0;
#X connect 13 0 20 1;
#X connect 14 0 21 1;
#X connect 15 0 18 1;
#X connect 16 0 19 1;
#X connect 17 0 26 1;
#X connect 18 0 28 0;
#X connect 19 0 28 0;
#X connect 20 0 28 0;
#X connect 21 0 28 0;
#X connect 22 0 6 0;
#X connect 22 1 11 1;
#X connect 23 0 7 0;
#X connect 24 0 8 0;
#X connect 25 0 9 0;
#X connect 26 0 28 0;
#X connect 28 0 27 0;
#X connect 28 1 29 0;
#X connect 29 0 27 1;
#X restore 69 247 pd others;
#X obj 153 391 element \$0-t-scope cells, f 21;
#N canvas 0 22 450 300 counter 0;
#X obj 35 17 inlet;
#X obj 35 39 t f b, f 7;
#X obj 35 61 until;
#X obj 74 61 f 0;
#X obj 35 83 f, f 7;
#X obj 85 83 + 1;
#X obj 35 105 outlet;
#X connect 0 0 1 0;
#X connect 1 0 2 0;
#X connect 1 1 3 0;
#X connect 2 0 4 0;
#X connect 3 0 4 1;
#X connect 4 0 5 0;
#X connect 4 0 6 0;
#X connect 5 0 4 1;
#X restore 12 301 pd counter;
#X obj 12 323 t f f, f 24;
#X obj 12 430 set \$0-t-scope-value c1, f 24;
#X obj 12 275 f, f 17;
#X obj 12 403 array get \$4-buffer-0, f 22;
#X obj 76 351 loadbang;
#X obj 76 373 f 1;
#X obj 69 102 t b b b, f 39;
#X connect 0 0 3 0;
#X connect 1 0 14 0;
#X connect 2 0 14 1;
#X connect 3 0 1 0;
#X connect 5 0 10 1;
#X connect 8 0 24 0;
#X connect 9 0 3 1;
#X connect 10 0 12 0;
#X connect 11 0 10 0;
#X connect 12 0 2 0;
#X connect 12 1 13 0;
#X connect 13 0 20 1;
#X connect 13 1 16 1;
#X connect 14 0 20 0;
#X connect 14 1 15 0;
#X connect 16 0 19 1;
#X connect 17 0 18 0;
#X connect 18 0 21 0;
#X connect 18 1 16 0;
#X connect 20 0 17 0;
#X connect 21 0 19 0;
#X connect 22 0 23 0;
#X connect 23 0 21 1;
#X connect 24 0 11 0;
#X connect 24 1 5 0;
#X connect 24 2 4 0;
