#N canvas 87 126 842 454 10;
#X obj 12 16 spam.in~;
#X obj 12 133 env~;
#X obj 426 15 loadbang;
#X obj 486 15 bng 15 250 50 0 empty empty empty 17 7 0 10 -262144 -1
-1;
#X obj 333 207 bng 15 250 50 0 empty empty empty 17 7 0 10 -262144
-1 -1;
#X obj 353 209 r \$0-draw;
#X obj 333 267 t b b b, f 43;
#X obj 333 319 list;
#X obj 354 297 r \$0-pt;
#N canvas 0 22 450 300 clearer 0;
#X obj 23 54 f \$1;
#X obj 23 76 sel 0;
#X msg 23 121 \; pd-\$1 clear;
#X obj 23 35 inlet;
#X obj 23 97 symbol \$3;
#X connect 0 0 1 0;
#X connect 1 0 4 0;
#X connect 3 0 0 0;
#X connect 4 0 2 0;
#X restore 530 291 pd clearer;
#N canvas 0 22 450 300 get_ptr 0;
#X obj 4 72 pointer;
#X msg 4 48 traverse pd-\$1 \, bang;
#X obj 4 3 inlet;
#X obj 4 94 outlet;
#X obj 4 23 symbol \$3;
#X connect 0 0 3 0;
#X connect 1 0 0 0;
#X connect 2 0 4 0;
#X connect 4 0 1 0;
#X restore 462 292 pd get_ptr;
#X obj 546 321 r \$0-c3;
#X obj 570 342 r \$0-c4;
#X obj 498 321 r \$0-c1;
#X obj 522 342 r \$0-c2;
#X obj 12 225 t f f f f;
#X obj 12 397 filledpolygon c4 c4 s4 x1 y1 x1 y1;
#X obj 12 376 >= 100;
#X obj 29 355 filledpolygon c3 c3 s3 x1 y1 x1 y1;
#X obj 29 336 >= 94;
#X obj 46 315 filledpolygon c2 c2 s2 x1 y1 x1 y1;
#X obj 46 296 >= 88;
#X obj 73 230 filledpolygon c0 c0 s1 x1 y1 x1 y1;
#X obj 333 366 pack f f 8 16 24 32 555 90 990 950 900, f 40;
#X obj 195 14 struct \$0-t-meter float x1 float y1 float s1 float s2
float s3 float s4 float c0 float c1 float c2 float c3 float c4, f
35;
#X obj 333 390 append \$0-t-meter x1 y1 s1 s2 s3 s4 c0 c1 c2 c3 c4
, f 22;
#X obj 475 342 r \$0-c0;
#X obj 63 254 >= 1;
#N canvas 0 22 781 389 set_colors 0;
#X obj 63 117 t l l;
#X obj 90 139 list length;
#N canvas 536 255 450 300 pass 0;
#X obj 51 9 inlet;
#X obj 51 54 spigot, f 7;
#X obj 90 29 > 0;
#X obj 90 9 inlet;
#X obj 51 76 outlet;
#X connect 0 0 1 0;
#X connect 1 0 4 0;
#X connect 2 0 1 1;
#X connect 3 0 2 0;
#X restore 90 238 pd pass;
#X obj 90 260 s \$0-c1;
#N canvas 536 255 450 300 pass 0;
#X obj 51 9 inlet;
#X obj 51 54 spigot, f 7;
#X obj 90 9 inlet;
#X obj 51 76 outlet;
#X obj 90 29 > 3;
#X connect 0 0 1 0;
#X connect 1 0 3 0;
#X connect 2 0 4 0;
#X connect 4 0 1 1;
#X restore 174 194 pd pass;
#N canvas 536 255 450 300 pass 0;
#X obj 51 9 inlet;
#X obj 51 54 spigot, f 7;
#X obj 90 9 inlet;
#X obj 51 76 outlet;
#X obj 90 29 > 2;
#X connect 0 0 1 0;
#X connect 1 0 3 0;
#X connect 2 0 4 0;
#X connect 4 0 1 1;
#X restore 146 238 pd pass;
#X obj 146 260 s \$0-c3;
#X obj 174 216 s \$0-c4;
#N canvas 536 255 450 300 pass 0;
#X obj 51 9 inlet;
#X obj 51 54 spigot, f 7;
#X obj 90 9 inlet;
#X obj 51 76 outlet;
#X obj 90 29 > 1;
#X connect 0 0 1 0;
#X connect 1 0 3 0;
#X connect 2 0 4 0;
#X connect 4 0 1 1;
#X restore 118 195 pd pass;
#X obj 118 217 s \$0-c2;
#X obj 63 169 unpack f f f f f, f 19;
#N canvas 536 255 450 300 pass 0;
#X obj 51 9 inlet;
#X obj 51 54 spigot, f 7;
#X obj 90 9 inlet;
#X obj 51 76 outlet;
#X obj 90 29 > 4;
#X connect 0 0 1 0;
#X connect 1 0 3 0;
#X connect 2 0 4 0;
#X connect 4 0 1 1;
#X restore 63 195 pd pass;
#X obj 63 217 s \$0-c0;
#X obj 248 184 > 5;
#X obj 248 206 sel 1;
#X msg 248 228 warning extra colors arguments;
#X obj 29 96 list split 1;
#X obj 29 6 inlet;
#X obj 29 52 text search \$2;
#X obj 29 74 text get \$2;
#X obj 29 28 symbol xel.meter.colors;
#X obj 248 252 print xel.2d.meter~;
#X connect 0 0 10 0;
#X connect 0 1 1 0;
#X connect 1 0 11 1;
#X connect 1 0 2 1;
#X connect 1 0 8 1;
#X connect 1 0 5 1;
#X connect 1 0 4 1;
#X connect 1 0 13 0;
#X connect 2 0 3 0;
#X connect 4 0 7 0;
#X connect 5 0 6 0;
#X connect 8 0 9 0;
#X connect 10 0 11 0;
#X connect 10 1 2 0;
#X connect 10 2 8 0;
#X connect 10 3 5 0;
#X connect 10 4 4 0;
#X connect 11 0 12 0;
#X connect 13 0 14 0;
#X connect 14 0 15 0;
#X connect 15 0 21 0;
#X connect 16 1 0 0;
#X connect 17 0 20 0;
#X connect 18 0 19 0;
#X connect 19 0 16 0;
#X connect 20 0 18 0;
#X restore 612 173 pd set_colors;
#N canvas 0 22 584 342 set_channel 0;
#N canvas 368 171 450 300 l_it2 0;
#X obj 43 180 until;
#X obj 43 201 list append;
#X obj 43 223 list split 2;
#X obj 43 138 / 2;
#X obj 43 160 + 1;
#X obj 43 93 list length;
#N canvas 0 22 256 116 error 0;
#X obj 8 27 % 2;
#X obj 8 49 sel 1;
#X obj 8 6 inlet;
#X msg 8 71 list has an odd number of coordinates;
#X obj 8 93 print mat.2d.dbap warning;
#X connect 0 0 1 0;
#X connect 1 0 3 0;
#X connect 2 0 0 0;
#X connect 3 0 4 0;
#X restore 53 116 pd error;
#X obj 43 59 t l l;
#X obj 43 35 inlet list;
#X obj 43 245 outlet end;
#X obj 113 245 outlet elements;
#X connect 0 0 1 0;
#X connect 1 0 2 0;
#X connect 2 0 10 0;
#X connect 2 1 1 1;
#X connect 2 2 9 0;
#X connect 3 0 4 0;
#X connect 4 0 0 0;
#X connect 5 0 6 0;
#X connect 5 0 3 0;
#X connect 7 0 5 0;
#X connect 7 1 1 1;
#X connect 8 0 7 0;
#X restore 46 133 pd l_it2;
#X obj 141 73 f 0;
#X obj 91 156 t l b, f 6;
#X obj 91 228 spigot;
#X obj 124 202 == \$1;
#X obj 91 249 s \$0-pt;
#X obj 46 275 s \$0-draw;
#X obj 124 180 f 0;
#X obj 154 180 + 1;
#X obj 12 22 t b b, f 22;
#X obj 12 3 inlet;
#X obj 204 113 == -1;
#X obj 204 135 sel 1;
#X obj 12 111 list split 1;
#X obj 12 67 text search \$2;
#X obj 12 89 text get \$2;
#X obj 12 43 symbol xel.meter.positions;
#X obj 204 194 print xel.2d.meter~;
#X msg 204 170 warning no positions in the configuration;
#X connect 0 0 6 0;
#X connect 0 1 2 0;
#X connect 1 0 7 1;
#X connect 2 0 3 0;
#X connect 2 1 7 0;
#X connect 3 0 5 0;
#X connect 4 0 3 1;
#X connect 7 0 8 0;
#X connect 7 0 4 0;
#X connect 8 0 7 1;
#X connect 9 0 16 0;
#X connect 9 1 1 0;
#X connect 10 0 9 0;
#X connect 11 0 12 0;
#X connect 12 0 18 0;
#X connect 13 1 0 0;
#X connect 13 1 11 0;
#X connect 14 0 15 0;
#X connect 15 0 13 0;
#X connect 16 0 14 0;
#X connect 18 0 17 0;
#X restore 426 172 pd set_channel;
#X obj 380 342 r \$0-s1;
#X obj 404 321 r \$0-s2;
#X obj 427 342 r \$0-s3;
#X obj 451 321 r \$0-s4;
#N canvas 454 125 590 300 set_sizes 1;
#X obj 194 198 sel 1;
#X obj 59 126 unpack;
#X obj 59 148 swap, f 6;
#X obj 59 170 -, f 6;
#X obj 59 235 +;
#X obj 105 169 s \$0-s1;
#X obj 59 257 s \$0-s2;
#X obj 109 235 +;
#X obj 109 212 * 2;
#X obj 59 193 / 3;
#X obj 5 169 s \$0-s4;
#X obj 25 14 inlet;
#X obj 194 153 list length;
#X obj 194 176 != 2;
#X msg 194 220 warning size needs a minimum and a maximum;
#X obj 109 257 s \$0-s3;
#X obj 25 102 list split 1;
#X obj 25 58 text search \$2;
#X obj 25 80 text get \$2;
#X obj 25 34 symbol xel.meter.sizes;
#X obj 194 244 print xel.2d.meter~;
#X connect 0 0 14 0;
#X connect 1 0 2 0;
#X connect 1 1 2 1;
#X connect 2 0 3 0;
#X connect 2 0 10 0;
#X connect 2 1 3 1;
#X connect 2 1 5 0;
#X connect 2 1 4 1;
#X connect 2 1 7 1;
#X connect 3 0 9 0;
#X connect 4 0 6 0;
#X connect 7 0 15 0;
#X connect 8 0 7 0;
#X connect 9 0 4 0;
#X connect 9 0 8 0;
#X connect 11 0 19 0;
#X connect 12 0 13 0;
#X connect 13 0 0 0;
#X connect 14 0 20 0;
#X connect 16 1 1 0;
#X connect 16 1 12 0;
#X connect 17 0 18 0;
#X connect 18 0 16 0;
#X connect 19 0 17 0;
#X restore 519 173 pd set_sizes;
#X obj 426 37 delay 10;
#X obj 63 274 filledpolygon c1 c1 s1 x1 y1 x1 y1;
#N canvas 0 22 450 300 activate 0;
#X obj 29 70 text get \$2;
#X obj 29 49 f 0;
#X obj 29 92 bang;
#X obj 29 114 f 1;
#X obj 29 26 inlet;
#X obj 29 136 s \$0-active;
#X connect 0 0 2 0;
#X connect 1 0 0 0;
#X connect 2 0 3 0;
#X connect 3 0 5 0;
#X connect 4 0 1 0;
#X restore 453 78 pd activate;
#X obj 426 57 t b b;
#X obj 426 125 spigot 0;
#X obj 471 103 r \$0-active;
#X obj 12 202 spigot 0;
#X obj 31 178 f 0;
#X obj 31 156 t b b;
#X obj 57 178 f 1;
#X obj 33 63 dbtorms;
#X obj 33 85 + 1;
#X obj 12 105 *~ 1;
#X obj 33 39 r \$0-gain;
#N canvas 0 22 218 173 set_gain 0;
#X obj 18 102 list split 1;
#X obj 18 12 inlet;
#X obj 18 58 text search \$2;
#X obj 18 80 text get \$2;
#X obj 18 34 symbol xel.meter.gain;
#X obj 52 127 s \$0-gain;
#X connect 0 1 5 0;
#X connect 1 0 4 0;
#X connect 2 0 3 0;
#X connect 3 0 0 0;
#X connect 4 0 2 0;
#X restore 705 171 pd set_gain;
#X obj 426 145 t b b b b, f 47;
#X connect 0 0 47 0;
#X connect 1 0 41 0;
#X connect 2 0 35 0;
#X connect 3 0 50 0;
#X connect 4 0 6 0;
#X connect 5 0 6 0;
#X connect 6 0 7 0;
#X connect 6 1 10 0;
#X connect 6 2 9 0;
#X connect 7 0 23 0;
#X connect 8 0 7 1;
#X connect 10 0 25 11;
#X connect 11 0 23 9;
#X connect 12 0 23 10;
#X connect 13 0 23 7;
#X connect 14 0 23 8;
#X connect 15 0 17 0;
#X connect 15 1 19 0;
#X connect 15 2 21 0;
#X connect 15 3 27 0;
#X connect 17 0 16 0;
#X connect 19 0 18 0;
#X connect 21 0 20 0;
#X connect 23 0 25 0;
#X connect 25 0 43 0;
#X connect 26 0 23 6;
#X connect 27 0 36 0;
#X connect 30 0 23 2;
#X connect 31 0 23 3;
#X connect 32 0 23 4;
#X connect 33 0 23 5;
#X connect 35 0 38 0;
#X connect 38 0 39 0;
#X connect 38 1 37 0;
#X connect 39 0 50 0;
#X connect 40 0 39 1;
#X connect 41 0 15 0;
#X connect 42 0 41 0;
#X connect 43 0 42 0;
#X connect 43 1 44 0;
#X connect 44 0 41 1;
#X connect 45 0 46 0;
#X connect 46 0 47 1;
#X connect 47 0 1 0;
#X connect 48 0 45 0;
#X connect 50 0 29 0;
#X connect 50 1 34 0;
#X connect 50 2 28 0;
#X connect 50 3 49 0;
