#N canvas 448 23 687 582 10;
#X obj 12 16 spam.in~;
#X obj 57 125 loadbang;
#X obj 12 528 set \$0-t-scope c1, f 25;
#N canvas 914 76 348 542 compute_bounds 0;
#X obj 162 213 /, f 6;
#X obj 219 213 /, f 6;
#X obj 18 12 inlet;
#X obj 18 458 pack f f f f, f 29;
#X obj 18 480 outlet;
#X obj 189 361 +;
#X obj 132 383 +;
#X obj 18 358 t f f, f 19;
#X obj 18 34 t b b, f 20;
#X obj 162 169 t b f, f 6;
#X obj 219 169 t b f, f 6;
#X obj 18 56 f \$1;
#X obj 18 266 *;
#X obj 75 328 t f f, f 19;
#X obj 18 174 unpack, f 10;
#X obj 18 290 - 1;
#X obj 75 290 - 1;
#X obj 162 191 f 2;
#X obj 219 191 f 2;
#X obj 75 266 *;
#X obj 162 285 swap, f 10;
#X obj 18 196 swap, f 10;
#X obj 189 383 * -1;
#X obj 75 403 * -1;
#X obj 135 57 t b b, f 8;
#X obj 135 101 pack f f;
#N canvas 0 22 456 338 itorc 0;
#X obj 48 115 int;
#X obj 21 51 t f f;
#X obj 21 165 -, f 5;
#X obj 21 247 pack f f;
#X obj 21 272 outlet;
#X obj 21 192 swap, f 8;
#X obj 21 27 inlet;
#X obj 72 27 inlet;
#X obj 48 93 /;
#X obj 48 137 *;
#X obj 72 49 unpack;
#X connect 0 0 5 1;
#X connect 0 0 9 0;
#X connect 1 0 2 0;
#X connect 1 1 8 0;
#X connect 2 0 5 0;
#X connect 3 0 4 0;
#X connect 5 0 3 0;
#X connect 5 1 3 1;
#X connect 6 0 1 0;
#X connect 7 0 10 0;
#X connect 8 0 0 0;
#X connect 9 0 2 1;
#X connect 10 1 8 1;
#X connect 10 1 9 1;
#X restore 18 153 pd itorc;
#X obj 135 79 f \$2;
#X obj 180 79 f \$3;
#X connect 0 0 12 1;
#X connect 0 0 20 0;
#X connect 1 0 19 1;
#X connect 1 0 20 1;
#X connect 2 0 8 0;
#X connect 3 0 4 0;
#X connect 5 0 22 0;
#X connect 6 0 3 2;
#X connect 7 0 3 0;
#X connect 7 1 6 0;
#X connect 8 0 11 0;
#X connect 8 1 24 0;
#X connect 9 0 17 0;
#X connect 9 1 0 1;
#X connect 10 0 18 0;
#X connect 10 1 1 1;
#X connect 11 0 26 0;
#X connect 12 0 15 0;
#X connect 13 0 23 0;
#X connect 13 1 5 0;
#X connect 14 0 21 0;
#X connect 14 1 21 1;
#X connect 15 0 7 0;
#X connect 16 0 13 0;
#X connect 17 0 0 0;
#X connect 18 0 1 0;
#X connect 19 0 16 0;
#X connect 20 0 6 1;
#X connect 20 1 5 1;
#X connect 21 0 12 0;
#X connect 21 1 19 0;
#X connect 22 0 3 3;
#X connect 23 0 3 1;
#X connect 24 0 27 0;
#X connect 24 1 28 0;
#X connect 25 0 26 1;
#X connect 26 0 14 0;
#X connect 27 0 25 0;
#X connect 27 0 9 0;
#X connect 28 0 25 1;
#X connect 28 0 10 0;
#X restore 57 303 pd compute_bounds;
#X obj 12 128 env~;
#X obj 160 11 struct \$0-t-scope float x1 float y1 float x2 float y2
float c1 float c2;
#X obj 160 54 filledpolygon c1 c2 1 x1 y1 x2 y1 x2 y2 x1 y2 x1 y1;
#X obj 57 381 append \$0-t-scope c1 c2 x1 y1 x2 y2, f 51;
#X obj 57 147 delay 10;
#N canvas 0 22 442 559 map_colors 0;
#X obj 12 42 t b f f f f;
#X obj 75 62 >= 1;
#X obj 59 123 >= 88;
#X obj 43 195 >= 94;
#X obj 27 258 >= 100;
#X obj 75 104 f 1;
#X obj 59 166 f 2;
#X obj 43 237 f 3;
#X obj 27 300 f 4;
#X obj 12 64 f 0;
#X obj 12 321 +;
#X obj 12 343 sel 0 1 2 3 4, f 19;
#X obj 105 444 r \$0-c3;
#X obj 127 362 r \$0-c4;
#X obj 55 383 r \$0-c1;
#X obj 83 402 r \$0-c2;
#X obj 39 423 r \$0-c0;
#X obj 34 403 f 90;
#X obj 56 445 f 990;
#X obj 78 465 f 950;
#X obj 100 383 f 900;
#X obj 75 84 sel 1;
#X obj 59 145 sel 1;
#X obj 43 217 sel 1;
#X obj 27 280 sel 1;
#X obj 12 16 inlet;
#X obj 12 485 outlet;
#X obj 12 445 f 999;
#X connect 0 0 9 0;
#X connect 0 1 4 0;
#X connect 0 2 3 0;
#X connect 0 3 2 0;
#X connect 0 4 1 0;
#X connect 1 0 21 0;
#X connect 2 0 22 0;
#X connect 3 0 23 0;
#X connect 4 0 24 0;
#X connect 5 0 10 1;
#X connect 6 0 10 1;
#X connect 7 0 10 1;
#X connect 8 0 10 1;
#X connect 9 0 10 0;
#X connect 10 0 11 0;
#X connect 11 0 27 0;
#X connect 11 1 17 0;
#X connect 11 2 18 0;
#X connect 11 3 19 0;
#X connect 11 4 20 0;
#X connect 12 0 19 1;
#X connect 13 0 20 1;
#X connect 14 0 17 1;
#X connect 15 0 18 1;
#X connect 16 0 27 1;
#X connect 17 0 26 0;
#X connect 18 0 26 0;
#X connect 19 0 26 0;
#X connect 20 0 26 0;
#X connect 21 0 5 0;
#X connect 21 1 10 1;
#X connect 22 0 6 0;
#X connect 23 0 7 0;
#X connect 24 0 8 0;
#X connect 25 0 0 0;
#X connect 27 0 26 0;
#X restore 12 497 pd map_colors;
#X obj 12 475 spigot 0;
#X obj 57 421 t b p, f 17;
#X obj 57 443 f 1;
#X obj 174 303 r \$0-c0;
#X obj 57 329 pack f f f f 999, f 20;
#X msg 57 355 \$5 0 \$1 \$2 \$3 \$4;
#X obj 33 63 dbtorms;
#X obj 33 85 + 1;
#X obj 12 105 *~ 1;
#X obj 33 39 r \$0-gain;
#X obj 57 236 spigot 0;
#X obj 57 169 t b b, f 8;
#X obj 102 213 != 0;
#X obj 57 259 t b b b b b, f 68;
#N canvas 0 22 470 339 clearer 0;
#X msg 23 125 \; pd-\$1 clear;
#X obj 23 35 inlet;
#X obj 23 101 symbol \$4;
#X obj 23 59 f \$1;
#X obj 23 80 sel 0;
#X connect 1 0 3 0;
#X connect 2 0 0 0;
#X connect 3 0 4 0;
#X connect 4 0 2 0;
#X restore 462 281 pd clearer;
#N canvas 627 102 555 431 get.colors 0;
#X obj 63 117 t l l;
#X obj 90 139 list length;
#N canvas 536 255 450 300 pass 0;
#X obj 51 9 inlet;
#X obj 51 54 spigot, f 7;
#X obj 90 29 > 0;
#X obj 90 9 inlet;
#X obj 51 76 outlet;
#X connect 0 0 1 0;
#X connect 1 0 4 0;
#X connect 2 0 1 1;
#X connect 3 0 2 0;
#X restore 90 258 pd pass;
#X obj 90 280 s \$0-c1;
#N canvas 536 255 450 300 pass 0;
#X obj 51 9 inlet;
#X obj 51 54 spigot, f 7;
#X obj 90 9 inlet;
#X obj 51 76 outlet;
#X obj 90 29 > 3;
#X connect 0 0 1 0;
#X connect 1 0 3 0;
#X connect 2 0 4 0;
#X connect 4 0 1 1;
#X restore 174 214 pd pass;
#N canvas 536 255 450 300 pass 0;
#X obj 51 9 inlet;
#X obj 51 54 spigot, f 7;
#X obj 90 9 inlet;
#X obj 51 76 outlet;
#X obj 90 29 > 2;
#X connect 0 0 1 0;
#X connect 1 0 3 0;
#X connect 2 0 4 0;
#X connect 4 0 1 1;
#X restore 146 258 pd pass;
#X obj 146 280 s \$0-c3;
#X obj 174 236 s \$0-c4;
#N canvas 536 255 450 300 pass 0;
#X obj 51 9 inlet;
#X obj 51 54 spigot, f 7;
#X obj 90 9 inlet;
#X obj 51 76 outlet;
#X obj 90 29 > 1;
#X connect 0 0 1 0;
#X connect 1 0 3 0;
#X connect 2 0 4 0;
#X connect 4 0 1 1;
#X restore 118 215 pd pass;
#X obj 118 237 s \$0-c2;
#X obj 63 189 unpack f f f f f, f 19;
#N canvas 536 255 450 300 pass 0;
#X obj 51 9 inlet;
#X obj 51 54 spigot, f 7;
#X obj 90 9 inlet;
#X obj 51 76 outlet;
#X obj 90 29 > 4;
#X connect 0 0 1 0;
#X connect 1 0 3 0;
#X connect 2 0 4 0;
#X connect 4 0 1 1;
#X restore 63 215 pd pass;
#X obj 63 237 s \$0-c0;
#X obj 29 6 inlet;
#X obj 248 204 > 5;
#X obj 248 226 sel 1;
#X obj 248 272 print xel.2d.meter~;
#X msg 248 248 warning extra colors arguments;
#X obj 29 95 list split 1;
#X obj 29 27 symbol colors;
#X obj 29 51 text search 5;
#X obj 29 73 text get 5;
#X connect 0 0 10 0;
#X connect 0 1 1 0;
#X connect 1 0 11 1;
#X connect 1 0 2 1;
#X connect 1 0 8 1;
#X connect 1 0 5 1;
#X connect 1 0 4 1;
#X connect 1 0 14 0;
#X connect 2 0 3 0;
#X connect 4 0 7 0;
#X connect 5 0 6 0;
#X connect 8 0 9 0;
#X connect 10 0 11 0;
#X connect 10 1 2 0;
#X connect 10 2 8 0;
#X connect 10 3 5 0;
#X connect 10 4 4 0;
#X connect 11 0 12 0;
#X connect 13 0 19 0;
#X connect 14 0 15 0;
#X connect 15 0 17 0;
#X connect 17 0 16 0;
#X connect 18 1 0 0;
#X connect 19 0 20 0;
#X connect 20 0 21 0;
#X connect 21 0 18 0;
#X restore 158 280 pd get.colors;
#N canvas 0 22 435 240 get.gain 0;
#X obj 48 127 s \$0-gain;
#X obj 14 12 inlet;
#X obj 14 106 list split 1;
#X obj 14 62 text search \$5;
#X obj 14 84 text get \$5;
#X obj 14 38 symbol gain;
#X connect 1 0 5 0;
#X connect 2 1 0 0;
#X connect 3 0 4 0;
#X connect 4 0 2 0;
#X connect 5 0 3 0;
#X restore 259 281 pd get.gain;
#N canvas 0 22 450 300 get.ptr 0;
#X obj 4 72 pointer;
#X msg 4 48 traverse pd-\$1 \, bang;
#X obj 4 3 inlet;
#X obj 4 94 outlet;
#X obj 4 23 symbol \$4;
#X connect 0 0 3 0;
#X connect 1 0 0 0;
#X connect 2 0 4 0;
#X connect 4 0 1 0;
#X restore 360 282 pd get.ptr;
#X obj 102 191 f \$2;
#X connect 0 0 18 0;
#X connect 1 0 8 0;
#X connect 3 0 14 0;
#X connect 4 0 10 0;
#X connect 7 0 11 0;
#X connect 8 0 21 0;
#X connect 9 0 2 0;
#X connect 10 0 9 0;
#X connect 11 0 12 0;
#X connect 11 1 2 1;
#X connect 12 0 10 1;
#X connect 13 0 14 4;
#X connect 14 0 15 0;
#X connect 15 0 7 0;
#X connect 16 0 17 0;
#X connect 17 0 18 1;
#X connect 18 0 4 0;
#X connect 19 0 16 0;
#X connect 20 0 23 0;
#X connect 21 0 20 0;
#X connect 21 1 28 0;
#X connect 22 0 20 1;
#X connect 23 0 3 0;
#X connect 23 1 25 0;
#X connect 23 2 26 0;
#X connect 23 3 27 0;
#X connect 23 4 24 0;
#X connect 27 0 7 6;
#X connect 28 0 22 0;
