#N canvas 443 194 867 749 10;
#X obj 12 16 spam.in~;
#X obj 12 233 t f b f, f 15;
#X obj 55 277 -, f 8;
#X obj 12 320 +, f 7;
#X obj 12 255 * 100;
#X obj 55 255 f 9;
#X obj 12 212 int;
#X obj 55 299 * 10;
#X obj 12 342 + 1;
#X obj 12 88 env~;
#X obj 12 190 * 0.09;
#X obj 12 170 clip 0 100;
#X obj 191 179 != 0;
#X obj 164 199 spigot, f 5;
#X obj 164 129 t b b;
#X obj 12 133 spigot, f 11;
#X obj 550 25 loadbang;
#X msg 550 77 symbol channels;
#X obj 550 99 text search \$4;
#X obj 550 121 text get \$4;
#X obj 610 25 bng 15 250 50 0 empty empty empty 17 7 0 10 -262144 -1
-1;
#X obj 550 143 list split 1;
#N canvas 368 171 450 300 l_it2 0;
#X obj 43 180 until;
#X obj 43 201 list append;
#X obj 43 223 list split 2;
#X obj 43 138 / 2;
#X obj 43 160 + 1;
#X obj 43 93 list length;
#N canvas 0 22 256 116 error 0;
#X obj 8 27 % 2;
#X obj 8 49 sel 1;
#X obj 8 6 inlet;
#X msg 8 71 list has an odd number of coordinates;
#X obj 8 93 print mat.2d.dbap warning;
#X connect 0 0 1 0;
#X connect 1 0 3 0;
#X connect 2 0 0 0;
#X connect 3 0 4 0;
#X restore 53 116 pd error;
#X obj 43 59 t l l;
#X obj 43 35 inlet list;
#X obj 43 245 outlet end;
#X obj 113 245 outlet elements;
#X connect 0 0 1 0;
#X connect 1 0 2 0;
#X connect 2 0 10 0;
#X connect 2 1 1 1;
#X connect 2 2 9 0;
#X connect 3 0 4 0;
#X connect 4 0 0 0;
#X connect 5 0 6 0;
#X connect 5 0 3 0;
#X connect 7 0 5 0;
#X connect 7 1 1 1;
#X connect 8 0 7 0;
#X restore 584 166 pd l_it2;
#X obj 684 9 text define \$0-channels;
#X obj 684 29 text define \$0-results;
#X obj 605 189 t l b, f 6;
#X obj 654 325 text set \$0-channels;
#X obj 638 213 f 0;
#X obj 668 213 + 1;
#X obj 654 261 spigot;
#X obj 550 55 t b b b, f 35;
#X obj 653 77 f 0;
#X msg 685 77 clear;
#X obj 685 99 s \$0-channels;
#X obj 687 235 != \$1;
#X obj 584 347 mat.2d.voronoi \$0-channels \$0-results;
#X obj 605 261 spigot;
#X obj 638 235 == \$1;
#X obj 584 323 list;
#X obj 693 303 f 1e+06;
#X obj 654 283 t l b, f 7;
#X obj 164 105 bng 15 250 50 0 empty empty empty 17 7 0 10 -262144
-1 -1;
#X obj 191 159 f \$2;
#X obj 12 365 set \$0-t-meter c1, f 25;
#X obj 611 302 s \$0-pt;
#X obj 584 369 s \$0-draw;
#X obj 184 107 r \$0-draw;
#N canvas 498 34 450 300 \$0-t-meter 1;
#X obj 7 11 struct \$0-t-meter float x1 float y1 array path \$0-t-pt
;
#X obj 7 57 plot path 0 1 0 0;
#X obj 7 34 filledpolygon 0 0 10 x1 y1 x1 y1;
#X restore 161 31 pd \$0-t-meter;
#N canvas 0 22 450 300 \$0-t-pt 0;
#X obj 22 25 struct \$0-t-pt float x float y;
#X restore 161 53 pd \$0-t-pt;
#X obj 319 376 pointer;
#X obj 453 329 f \$1;
#X obj 453 351 sel 0;
#X obj 186 295 t b b b, f 45;
#X msg 453 396 \; pd-\$1 clear;
#X msg 319 352 traverse pd-\$1 \, bang;
#X obj 186 347 list;
#X obj 319 327 symbol \$3;
#X obj 453 372 symbol \$3;
#X obj 186 398 append \$0-t-meter x1 y1;
#X obj 207 325 r \$0-pt;
#X obj 186 449 text size \$0-results;
#X obj 186 511 t f f;
#X obj 213 534 setsize \$0-t-meter path, f 15;
#X obj 186 575 until;
#X obj 186 597 f 0;
#X obj 217 597 + 1;
#X obj 186 426 t b p p, f 33;
#X obj 186 710 set \$0-t-pt x y, f 16;
#X obj 213 643 element \$0-t-meter path;
#X obj 186 683 text get \$0-results;
#X obj 186 619 t f f;
#X obj 186 490 + 1;
#X obj 186 657 %, f 5;
#X obj 186 471 t f f;
#X connect 0 0 9 0;
#X connect 1 0 4 0;
#X connect 1 1 5 0;
#X connect 1 2 2 1;
#X connect 2 0 7 0;
#X connect 3 0 8 0;
#X connect 4 0 3 0;
#X connect 5 0 2 0;
#X connect 6 0 1 0;
#X connect 7 0 3 1;
#X connect 8 0 43 0;
#X connect 9 0 15 0;
#X connect 10 0 6 0;
#X connect 11 0 10 0;
#X connect 12 0 13 1;
#X connect 12 0 15 1;
#X connect 13 0 52 0;
#X connect 14 0 13 0;
#X connect 14 1 42 0;
#X connect 16 0 30 0;
#X connect 17 0 18 0;
#X connect 18 0 19 0;
#X connect 19 0 21 0;
#X connect 20 0 30 0;
#X connect 21 1 22 0;
#X connect 22 0 38 0;
#X connect 22 1 25 0;
#X connect 25 0 29 0;
#X connect 25 0 36 0;
#X connect 25 1 27 0;
#X connect 27 0 28 0;
#X connect 27 0 34 0;
#X connect 27 0 37 0;
#X connect 28 0 27 1;
#X connect 29 0 40 0;
#X connect 30 0 17 0;
#X connect 30 1 31 0;
#X connect 30 2 32 0;
#X connect 31 0 27 1;
#X connect 32 0 33 0;
#X connect 34 0 29 1;
#X connect 35 0 45 0;
#X connect 36 0 38 1;
#X connect 36 0 44 0;
#X connect 37 0 36 1;
#X connect 38 0 35 0;
#X connect 39 0 26 1;
#X connect 40 0 26 0;
#X connect 40 1 39 0;
#X connect 41 0 14 0;
#X connect 42 0 12 0;
#X connect 46 0 14 0;
#X connect 49 0 58 2;
#X connect 50 0 51 0;
#X connect 51 0 57 0;
#X connect 52 0 55 0;
#X connect 52 1 56 0;
#X connect 52 2 50 0;
#X connect 54 0 49 0;
#X connect 55 0 58 0;
#X connect 56 0 54 0;
#X connect 57 0 53 0;
#X connect 58 0 66 0;
#X connect 59 0 55 1;
#X connect 60 0 73 0;
#X connect 61 0 63 0;
#X connect 61 1 62 0;
#X connect 63 0 64 0;
#X connect 64 0 65 0;
#X connect 64 0 70 0;
#X connect 65 0 64 1;
#X connect 66 0 60 0;
#X connect 66 1 62 1;
#X connect 66 2 68 1;
#X connect 68 0 67 2;
#X connect 69 0 67 0;
#X connect 70 0 72 0;
#X connect 70 1 68 0;
#X connect 71 0 61 0;
#X connect 72 0 69 0;
#X connect 73 0 71 0;
#X connect 73 1 72 1;
