#N canvas 807 128 251 326 10;
#X obj 13 263 outlet;
#X obj 76 173 -, f 6;
#X obj 109 121 / 2;
#X obj 13 173 -, f 6;
#X obj 46 121 / 2;
#X obj 13 239 pack f f, f 11;
#X obj 13 9 inlet;
#X obj 13 31 unpack f f, f 11;
#X obj 46 99 - 1;
#X obj 109 99 - 1;
#X obj 13 195 /, f 6;
#X obj 76 195 /, f 6;
#X obj 76 217 * -1;
#X obj 109 9 inlet;
#X obj 109 31 unpack;
#X obj 13 53 swap, f 11;
#X connect 1 0 11 0;
#X connect 2 0 1 1;
#X connect 2 0 11 1;
#X connect 3 0 10 0;
#X connect 4 0 3 1;
#X connect 4 0 10 1;
#X connect 5 0 0 0;
#X connect 6 0 7 0;
#X connect 7 0 15 0;
#X connect 7 1 15 1;
#X connect 8 0 4 0;
#X connect 9 0 2 0;
#X connect 10 0 5 0;
#X connect 11 0 12 0;
#X connect 12 0 5 1;
#X connect 13 0 14 0;
#X connect 14 0 8 0;
#X connect 14 1 9 0;
#X connect 15 0 3 0;
#X connect 15 1 1 0;
