#N canvas 399 150 226 252 10;
#X obj 11 214 outlet;
#X obj 11 16 inlet;
#X obj 56 16 inlet;
#X obj 11 38 unpack;
#X obj 56 38 unpack;
#X obj 11 122 t f f;
#X obj 11 144 *, f 5;
#X obj 11 166 +, f 10;
#X obj 11 191 sqrt;
#X obj 68 122 t f f;
#X obj 68 144 *, f 5;
#X obj 11 102 * 1;
#X obj 68 102 * 1;
#X obj 116 16 inlet;
#X obj 116 38 unpack;
#X obj 11 60 -;
#X obj 68 60 -;
#X connect 1 0 3 0;
#X connect 2 0 4 0;
#X connect 3 0 15 0;
#X connect 3 1 16 0;
#X connect 4 0 15 1;
#X connect 4 1 16 1;
#X connect 5 0 6 0;
#X connect 5 1 6 1;
#X connect 6 0 7 0;
#X connect 7 0 8 0;
#X connect 8 0 0 0;
#X connect 9 0 10 0;
#X connect 9 1 10 1;
#X connect 10 0 7 1;
#X connect 11 0 5 0;
#X connect 12 0 9 0;
#X connect 13 0 14 0;
#X connect 14 0 11 1;
#X connect 14 1 12 1;
#X connect 15 0 11 0;
#X connect 16 0 12 0;
