#N canvas 673 155 306 257 10;
#X obj 39 129 pack 0 0, f 15;
#X obj 39 83 t b f, f 15;
#X obj 39 110 f 0, f 4;
#X obj 39 151 outlet;
#X floatatom 10 10 5 0 0 0 - #0-xi #0-x, f 5;
#X floatatom 42 10 5 0 0 0 - #0-yi #0-y, f 5;
#X obj 9 36 r \$0-x;
#X obj 39 56 r \$0-y;
#X obj 187 42 inlet;
#X obj 187 64 unpack f f;
#X obj 187 86 s \$0-xi;
#X obj 244 87 s \$0-yi;
#X connect 0 0 3 0;
#X connect 1 0 2 0;
#X connect 1 1 0 1;
#X connect 2 0 0 0;
#X connect 6 0 2 0;
#X connect 7 0 1 0;
#X connect 8 0 9 0;
#X connect 9 0 10 0;
#X connect 9 1 11 0;
#X coords 0 -1 1 1 64 14 2 10 10;
