#N canvas 662 188 705 591 10;
#X obj 86 359 f;
#X obj 53 353 *~;
#X obj 85 405 *~;
#X obj 53 309 f;
#X obj 68 118 phasor~ 0.5;
#X obj 100 238 *~ -1;
#X obj 100 260 +~ 1;
#X obj 53 465 outlet~;
#X obj 448 48 array define \$0-env 515;
#N canvas 0 22 450 300 gen_array 0;
#N canvas 0 22 450 300 counter 0;
#X obj 66 121 until;
#X obj 66 96 f 512;
#X obj 66 146 f 0, f 8;
#X obj 146 146 + 1;
#X obj 66 46 inlet;
#X obj 66 71 t b b, f 8;
#X obj 127 96 f 0;
#X obj 66 171 outlet;
#X connect 0 0 2 0;
#X connect 1 0 0 0;
#X connect 2 0 3 0;
#X connect 2 0 7 0;
#X connect 3 0 2 1;
#X connect 4 0 5 0;
#X connect 5 0 1 0;
#X connect 5 1 6 0;
#X connect 6 0 2 1;
#X restore 48 86 pd counter;
#X obj 48 190 array set \$0-env, f 28;
#X obj 48 111 t f f, f 14;
#X obj 130 158 + 1;
#N canvas 0 22 450 300 mapcos 0;
#X obj 79 81 * 6.28319;
#X obj 79 106 - 3.14159;
#X obj 79 159 + 1;
#X obj 79 182 * 0.5;
#X obj 79 134 cos;
#X obj 79 27 inlet;
#X obj 79 207 outlet;
#X connect 0 0 1 0;
#X connect 1 0 4 0;
#X connect 2 0 3 0;
#X connect 3 0 6 0;
#X connect 4 0 2 0;
#X connect 5 0 0 0;
#X restore 48 158 pd mapcos;
#X obj 48 133 / 512;
#X msg 48 62 512;
#X obj 48 36 loadbang;
#X connect 0 0 2 0;
#X connect 2 0 5 0;
#X connect 2 1 3 0;
#X connect 3 0 1 1;
#X connect 4 0 1 0;
#X connect 5 0 4 0;
#X connect 6 0 0 0;
#X connect 7 0 6 0;
#X restore 448 24 pd gen_array;
#X obj 68 148 *~ 512;
#X obj 68 176 tabread4~ \$0-env;
#X obj 53 333 delread~ \$1 1;
#X obj 86 385 delread~ \$1 1;
#X obj 215 209 samphold~;
#X obj 215 233 snapshot~;
#X obj 280 208 bang~;
#X obj 266 160 *~ 2;
#X obj 266 181 wrap~;
#X obj 215 255 change;
#X obj 170 70 inlet;
#X obj 215 278 bang;
#X obj 215 322 sel 0 1;
#X obj 215 300 tgl 15 0 empty empty empty 17 7 0 10 -262144 -1 -1 1
1;
#X obj 201 118 nbx 5 14 -1e+37 1e+37 0 0 empty empty empty 0 -8 0 10
-262144 -1 -1 0 256;
#X obj 107 459 nbx 5 14 -1e+37 1e+37 0 0 empty empty empty 0 -8 0 10
-262144 -1 -1 190.367 256;
#X obj 127 429 nbx 5 14 -1e+37 1e+37 0 0 empty empty empty 0 -8 0 10
-262144 -1 -1 400.178 256;
#X connect 0 0 13 0;
#X connect 0 0 26 0;
#X connect 1 0 7 0;
#X connect 2 0 7 0;
#X connect 3 0 12 0;
#X connect 3 0 25 0;
#X connect 4 0 10 0;
#X connect 4 0 17 0;
#X connect 4 0 14 0;
#X connect 5 0 6 0;
#X connect 6 0 2 1;
#X connect 10 0 11 0;
#X connect 11 0 1 1;
#X connect 11 0 5 0;
#X connect 12 0 1 0;
#X connect 13 0 2 0;
#X connect 14 0 15 0;
#X connect 15 0 19 0;
#X connect 16 0 15 0;
#X connect 17 0 18 0;
#X connect 18 0 14 1;
#X connect 19 0 21 0;
#X connect 20 0 3 1;
#X connect 20 0 0 1;
#X connect 21 0 23 0;
#X connect 22 0 0 0;
#X connect 22 1 3 0;
#X connect 23 0 22 0;
#X connect 24 0 3 1;
#X connect 24 0 0 1;
