#N canvas 340 207 682 364 10;
#X obj 375 6 inlet;
#X obj 249 6 inlet;
#N canvas 0 22 350 461 k_coeff 0;
#X obj 112 9 inlet;
#X obj 247 131 * 2;
#X obj 88 153 pow, f 27;
#X obj 88 245 + 0, f 7;
#X obj 88 267 t f f, f 9;
#X obj 88 175 t b f;
#X obj 88 197 f 1;
#X obj 88 219 /, f 5;
#X obj 43 316 sqrt;
#X obj 43 294 f, f 8;
#X obj 43 382 /, f 5;
#X obj 130 218 f 0;
#X obj 43 338 t b f;
#X obj 43 360 f 1;
#X obj 43 404 outlet;
#N canvas 368 171 450 300 l_it2 0;
#X obj 43 180 until;
#X obj 43 201 list append;
#X obj 43 223 list split 2;
#X obj 43 138 / 2;
#X obj 43 160 + 1;
#X obj 43 93 list length;
#N canvas 0 22 256 116 error 0;
#X obj 8 27 % 2;
#X obj 8 49 sel 1;
#X obj 8 6 inlet;
#X msg 8 71 list has an odd number of coordinates;
#X obj 8 93 print mat.2d.dbap warning;
#X connect 0 0 1 0;
#X connect 1 0 3 0;
#X connect 2 0 0 0;
#X connect 3 0 4 0;
#X restore 53 116 pd error;
#X obj 43 59 t l l;
#X obj 43 35 inlet list;
#X obj 43 245 outlet end;
#X obj 113 245 outlet elements;
#X connect 0 0 1 0;
#X connect 1 0 2 0;
#X connect 2 0 10 0;
#X connect 2 1 1 1;
#X connect 2 2 9 0;
#X connect 3 0 4 0;
#X connect 4 0 0 0;
#X connect 5 0 6 0;
#X connect 5 0 3 0;
#X connect 7 0 5 0;
#X connect 7 1 1 1;
#X connect 8 0 7 0;
#X restore 43 100 pd l_it2;
#X obj 42 8 inlet;
#X obj 247 109 r \$0-acoeff;
#X obj 217 78 r \$0-blur;
#X obj 43 41 t l b, f 15;
#N canvas 393 63 450 300 dist_blur 0;
#X obj 11 194 outlet;
#X obj 11 16 inlet;
#X obj 56 16 inlet;
#X obj 11 38 unpack;
#X obj 56 38 unpack;
#X obj 11 82 t f f;
#X obj 11 104 *, f 5;
#X obj 11 126 +, f 10;
#X obj 11 171 sqrt;
#X obj 11 60 - \$1;
#X obj 68 60 - \$2;
#X obj 68 82 t f f;
#X obj 68 104 *, f 5;
#X obj 110 16 inlet;
#X text 144 40 blur;
#X obj 110 83 t f f;
#X obj 110 105 *, f 5;
#X obj 147 16 loadbang;
#X obj 11 148 + 0, f 17;
#X obj 110 60 max 0;
#X obj 110 38 f 0;
#X connect 1 0 3 0;
#X connect 2 0 4 0;
#X connect 3 0 9 0;
#X connect 3 1 10 0;
#X connect 4 0 9 1;
#X connect 4 1 10 1;
#X connect 5 0 6 0;
#X connect 5 1 6 1;
#X connect 6 0 7 0;
#X connect 7 0 18 0;
#X connect 8 0 0 0;
#X connect 9 0 5 0;
#X connect 10 0 11 0;
#X connect 11 0 12 0;
#X connect 11 1 12 1;
#X connect 12 0 7 1;
#X connect 13 0 20 0;
#X connect 15 0 16 0;
#X connect 15 1 16 1;
#X connect 16 0 18 1;
#X connect 17 0 20 0;
#X connect 18 0 8 0;
#X connect 19 0 15 0;
#X connect 20 0 19 0;
#X restore 88 124 pd dist_blur;
#X connect 0 0 19 0;
#X connect 1 0 2 1;
#X connect 2 0 5 0;
#X connect 3 0 4 0;
#X connect 4 0 9 1;
#X connect 4 1 3 1;
#X connect 5 0 6 0;
#X connect 5 1 7 1;
#X connect 6 0 7 0;
#X connect 7 0 3 0;
#X connect 8 0 12 0;
#X connect 9 0 8 0;
#X connect 10 0 14 0;
#X connect 11 0 3 1;
#X connect 12 0 13 0;
#X connect 12 1 10 1;
#X connect 13 0 10 0;
#X connect 15 0 9 0;
#X connect 15 1 20 0;
#X connect 16 0 20 1;
#X connect 17 0 1 0;
#X connect 18 0 20 2;
#X connect 19 0 15 0;
#X connect 19 1 11 0;
#X connect 20 0 2 0;
#X restore 280 228 pd k_coeff;
#X obj 312 184 list append;
#X text 5 6 Compute the amplitude of the speakers for a virtual source
, f 19;
#X text 5 66 g(i) = k / d(i)^a, f 19;
#X text 5 86 a = R/(20*log10(2)) with R around 6dB, f 19;
#X text 5 136 k = 1/√(∑1->N(1/d(i)^2a));
#N canvas 35 74 350 461 g_coeffs 0;
#X obj 288 8 inlet;
#X obj 88 153 pow, f 27;
#X obj 88 175 t b f;
#X obj 88 197 f 1;
#X obj 88 219 /, f 5;
#X obj 43 345 outlet;
#N canvas 368 171 450 300 l_it2 0;
#X obj 43 180 until;
#X obj 43 201 list append;
#X obj 43 223 list split 2;
#X obj 43 138 / 2;
#X obj 43 160 + 1;
#X obj 43 93 list length;
#N canvas 0 22 256 116 error 0;
#X obj 8 27 % 2;
#X obj 8 49 sel 1;
#X obj 8 6 inlet;
#X msg 8 71 list has an odd number of coordinates;
#X obj 8 93 print mat.2d.dbap warning;
#X connect 0 0 1 0;
#X connect 1 0 3 0;
#X connect 2 0 0 0;
#X connect 3 0 4 0;
#X restore 53 116 pd error;
#X obj 43 59 t l l;
#X obj 43 35 inlet list;
#X obj 43 245 outlet end;
#X obj 113 245 outlet elements;
#X connect 0 0 1 0;
#X connect 1 0 2 0;
#X connect 2 0 10 0;
#X connect 2 1 1 1;
#X connect 2 2 9 0;
#X connect 3 0 4 0;
#X connect 4 0 0 0;
#X connect 5 0 6 0;
#X connect 5 0 3 0;
#X connect 7 0 5 0;
#X connect 7 1 1 1;
#X connect 8 0 7 0;
#X restore 43 100 pd l_it2;
#X obj 152 9 inlet;
#X obj 247 109 r \$0-acoeff;
#X obj 217 78 r \$0-blur;
#X obj 223 9 inlet;
#X obj 88 252 list prepend;
#X obj 43 51 t l b;
#X obj 88 274 list;
#X obj 43 304 list, f 8;
#N canvas 393 63 450 300 dist_blur 0;
#X obj 11 194 outlet;
#X obj 11 16 inlet;
#X obj 56 16 inlet;
#X obj 11 38 unpack;
#X obj 56 38 unpack;
#X obj 11 82 t f f;
#X obj 11 104 *, f 5;
#X obj 11 126 +, f 10;
#X obj 11 171 sqrt;
#X obj 11 60 - \$1;
#X obj 68 60 - \$2;
#X obj 68 82 t f f;
#X obj 68 104 *, f 5;
#X obj 110 16 inlet;
#X text 144 40 blur;
#X obj 110 83 t f f;
#X obj 110 105 *, f 5;
#X obj 147 16 loadbang;
#X obj 11 148 + 0, f 17;
#X obj 110 60 max 0;
#X obj 110 38 f 0;
#X connect 1 0 3 0;
#X connect 2 0 4 0;
#X connect 3 0 9 0;
#X connect 3 1 10 0;
#X connect 4 0 9 1;
#X connect 4 1 10 1;
#X connect 5 0 6 0;
#X connect 5 1 6 1;
#X connect 6 0 7 0;
#X connect 7 0 18 0;
#X connect 8 0 0 0;
#X connect 9 0 5 0;
#X connect 10 0 11 0;
#X connect 11 0 12 0;
#X connect 11 1 12 1;
#X connect 12 0 7 1;
#X connect 13 0 20 0;
#X connect 15 0 16 0;
#X connect 15 1 16 1;
#X connect 16 0 18 1;
#X connect 17 0 20 0;
#X connect 18 0 8 0;
#X connect 19 0 15 0;
#X connect 20 0 19 0;
#X restore 88 125 pd dist_blur;
#X connect 0 0 12 0;
#X connect 1 0 2 0;
#X connect 2 0 3 0;
#X connect 2 1 4 1;
#X connect 3 0 4 0;
#X connect 4 0 11 0;
#X connect 6 0 14 0;
#X connect 6 1 15 0;
#X connect 7 0 15 1;
#X connect 8 0 1 1;
#X connect 9 0 15 2;
#X connect 10 0 3 1;
#X connect 11 0 13 0;
#X connect 12 0 6 0;
#X connect 12 1 11 1;
#X connect 13 0 11 1;
#X connect 13 0 14 1;
#X connect 14 0 5 0;
#X connect 15 0 1 0;
#X restore 249 257 pd g_coeffs;
#X obj 312 206 t l l;
#X obj 249 279 outlet;
#X obj 429 6 inlet;
#N canvas 501 270 147 236 a_coeff 0;
#X obj 11 183 /, f 5;
#X obj 38 113 log;
#X obj 38 135 /, f 5;
#X obj 68 113 log;
#X obj 38 91 f 2;
#X obj 68 91 f 10;
#X obj 38 157 * 20;
#X obj 11 205 outlet;
#X obj 11 7 inlet;
#X obj 11 69 t f b b, f 10;
#X obj 11 41 f 6;
#X connect 0 0 7 0;
#X connect 1 0 2 0;
#X connect 2 0 6 0;
#X connect 3 0 2 1;
#X connect 4 0 1 0;
#X connect 5 0 3 0;
#X connect 6 0 0 1;
#X connect 8 0 10 0;
#X connect 9 0 0 0;
#X connect 9 1 4 0;
#X connect 9 2 5 0;
#X connect 10 0 9 0;
#X restore 481 73 pd a_coeff;
#X obj 481 95 s \$0-acoeff;
#X obj 429 119 s \$0-blur;
#X obj 429 48 route blur rolloff;
#X obj 249 28 t b l;
#X obj 570 31 loadbang;
#X obj 570 53 f 1;
#X text 5 116 di -> dist + blur;
#X connect 0 0 3 1;
#X connect 1 0 16 0;
#X connect 2 0 8 1;
#X connect 3 0 9 0;
#X connect 8 0 10 0;
#X connect 9 0 8 2;
#X connect 9 1 2 1;
#X connect 11 0 15 0;
#X connect 12 0 13 0;
#X connect 15 0 14 0;
#X connect 15 1 12 0;
#X connect 16 0 3 0;
#X connect 16 1 8 0;
#X connect 16 1 2 0;
#X connect 17 0 12 0;
#X connect 17 0 18 0;
#X connect 18 0 14 0;
