#N canvas 658 275 387 277 10;
#N canvas 443 106 450 300 header 0;
#X obj 3 3 cnv 18 18 18 empty empty mat.2d.getdim 2 8 0 14 -262144
-66577 0;
#X text 215 4 by Pierre Guillot - 2016;
#X coords 0 -1 1 1 365 20 2 2 2;
#X restore 6 6 pd header;
#X msg 69 177 4;
#X obj 69 200 mat.2d.itorc;
#X obj 69 225 mat.gnbx2;
#X text 67 246 row;
#X text 103 246 col;
#X text 4 31 The abstraction retrieves the dimensions of matrix from
a text. It uses in case the generic name of the dimension line changes.
;
#X obj 165 73 text define -k \$0-config;
#A set mat.dim 5 3 \;;
#X obj 69 71 loadbang;
#X obj 69 100 mat.2d.getdim \$0-config;
#X obj 69 155 t b l, f 12;
#X obj 69 125 mat.gnbx2;
#X connect 1 0 2 0;
#X connect 2 0 3 0;
#X connect 8 0 9 0;
#X connect 9 0 11 0;
#X connect 10 0 1 0;
#X connect 10 1 2 1;
#X connect 11 0 10 0;
