#N canvas 375 144 451 220 10;
#X obj 2 76 f \$2;
#X obj 47 77 f \$3;
#X obj 5 2 hsl 26 17 0 127 0 0 \$0-dum \$0-dumr empty -2 -8 0 10 -262144
-262144 -1 0 1;
#X text 4 3 help;
#X obj 2 24 t b;
#X msg 2 128 \; pd-mat.overview.pd done-popup 2 \$1 \$2;
#X obj 2 53 t b b, f 8;
#X obj 2 103 pack f f;
#X connect 0 0 7 0;
#X connect 1 0 7 1;
#X connect 2 0 4 0;
#X connect 4 0 6 0;
#X connect 6 0 0 0;
#X connect 6 1 1 0;
#X connect 7 0 5 0;
#X coords 0 -1 1 1 31 17 2 2 2;
