#N canvas 399 150 221 365 10;
#X obj 48 115 int;
#X obj 21 51 t f f;
#X obj 21 165 -, f 5;
#X obj 21 247 pack f f;
#X obj 21 272 outlet;
#X obj 21 192 swap, f 8;
#X obj 21 27 inlet;
#X obj 72 27 inlet;
#X obj 48 93 /;
#X obj 48 137 *;
#X obj 72 49 unpack;
#X obj 96 216 >=;
#X obj 96 238 sel 1;
#X obj 96 283 print mat.2d.itorc;
#X msg 96 260 index out of bounds;
#X connect 0 0 5 1;
#X connect 0 0 9 0;
#X connect 1 0 2 0;
#X connect 1 1 8 0;
#X connect 2 0 5 0;
#X connect 3 0 4 0;
#X connect 5 0 3 0;
#X connect 5 0 11 0;
#X connect 5 1 3 1;
#X connect 6 0 1 0;
#X connect 7 0 10 0;
#X connect 8 0 0 0;
#X connect 9 0 2 1;
#X connect 10 0 11 1;
#X connect 10 1 8 1;
#X connect 10 1 9 1;
#X connect 11 0 12 0;
#X connect 12 0 14 0;
#X connect 14 0 13 0;
