#N canvas 747 165 388 496 10;
#X obj 19 367 mat.2d.dbap, f 46;
#N canvas 443 106 450 300 header 0;
#X obj 3 3 cnv 18 18 18 empty empty mat.2d.dbap 2 8 0 14 -262144 -66577
0;
#X text 215 4 by Pierre Guillot - 2016;
#X coords 0 -1 1 1 365 20 2 2 2;
#X restore 6 6 pd header;
#X text 4 31 The abstraction the amplitude coefficients of a set of
loudspeakers for a virtual sound source using distance based amplitude
panning (DBAP). The principles of DBAP are explained in the paper by
Trond Lossius \, Pascal Baltazar and Theo de la Hogue at the International
Computer Music Conference (ICMC). Montreal \, 2009;
#X text 4 121 The first inlet is used for the position of source in
cartesian coordinates. The second inlet is used for the positions of
the loudspeakers in cartesian coordinates. The third inlet is used
for the blur value (superior or equal to zero) and the rolloff value
in dB (generally 6dB or between 3dB and 5dB for close or semi-close
environment).;
#X text 4 201 Only the first inlet triggers the computation.;
#X obj 19 389 list prepend set;
#X msg 155 292 -3.5 -3.5 3.5 -3.5 3.5 3.5 -3.5 3.5, f 11;
#X obj 19 411 list trim;
#X msg 19 433 0.479266 0.479266 0.519908 0.519908;
#X obj 19 227 loadbang;
#X obj 19 249 t b b b, f 46;
#X msg 19 271 0 0;
#X msg 292 292 blur 1;
#X msg 312 321 rolloff 4;
#X obj 19 295 tools/mat.gnbx2;
#X connect 0 0 5 0;
#X connect 5 0 7 0;
#X connect 6 0 0 1;
#X connect 7 0 8 0;
#X connect 9 0 10 0;
#X connect 10 0 11 0;
#X connect 10 1 6 0;
#X connect 10 2 12 0;
#X connect 10 2 13 0;
#X connect 11 0 14 0;
#X connect 12 0 0 2;
#X connect 13 0 0 2;
#X connect 14 0 0 0;
