#N canvas 576 106 692 712 10;
#X obj 87 312 line~;
#X obj 64 475 *~, f 17;
#X obj 163 447 *~, f 11;
#X obj 226 346 *~ 513;
#X obj 192 158 phasor~ 1;
#X msg 87 288 \$1 20;
#X obj 226 375 tabread4~;
#X obj 64 211 samphold~;
#X obj 64 123 noise~;
#X obj 64 146 *~ 1;
#X obj 64 167 +~;
#X obj 64 188 abs~;
#X obj 85 97 * 0.1;
#X obj 163 361 samphold~;
#X obj 163 284 +~ 1;
#X obj 163 310 *~ 0.5;
#X obj 163 262 noise~;
#N canvas 0 50 450 300 >~ 0;
#X obj 67 114 max~ 0;
#X obj 67 175 -~ 0;
#X obj 130 188 /~;
#X obj 130 152 sig~ -1;
#X obj 145 114 -~;
#X obj 67 212 *~;
#X obj 67 17 inlet~;
#X obj 67 252 outlet~;
#X obj 132 15 inlet;
#X connect 0 0 1 0;
#X connect 1 0 5 0;
#X connect 2 0 5 1;
#X connect 3 0 2 0;
#X connect 4 0 2 1;
#X connect 5 0 7 0;
#X connect 6 0 0 0;
#X connect 6 0 4 1;
#X connect 8 0 4 0;
#X connect 8 0 1 1;
#X connect 8 0 0 1;
#X restore 163 339 pd >~ 1;
#X obj 42 13 inlet~;
#X obj 64 510 outlet~;
#X obj 549 18 inlet;
#X obj 434 18 inlet;
#X obj 344 18 inlet;
#X obj 193 18 inlet;
#X obj 249 18 inlet;
#X msg 286 345 set \$1;
#N canvas 0 22 230 332 frequ 0;
#X obj 19 114 random;
#X obj 19 190 +;
#X obj 19 92 metro;
#X obj 19 163 t b f;
#X obj 19 137 * 0.1;
#X obj 18 213 t b f;
#X obj 20 278 /;
#X msg 20 245 1000;
#X obj 112 13 inlet;
#X obj 19 48 loadbang;
#X obj 20 300 outlet;
#X msg 19 70 1;
#X obj 112 35 moses 1;
#X connect 0 0 4 0;
#X connect 1 0 5 0;
#X connect 1 0 6 1;
#X connect 2 0 0 0;
#X connect 3 0 1 0;
#X connect 3 1 1 1;
#X connect 4 0 3 0;
#X connect 5 0 7 0;
#X connect 5 1 6 1;
#X connect 6 0 10 0;
#X connect 7 0 6 0;
#X connect 8 0 1 0;
#X connect 8 0 0 1;
#X connect 8 0 12 0;
#X connect 9 0 11 0;
#X connect 11 0 2 0;
#X connect 12 1 2 1;
#X restore 193 133 pd frequ;
#X obj 87 265 clip 0 0.99;
#X obj 4 438 *~;
#X obj 64 407 +~ 2;
#X obj 42 352 delwrite~ \$0-grainbuffer 10000, f 16;
#X obj 64 427 vd~ \$0-grainbuffer;
#X obj 249 40 s \$0-delaytime;
#X obj 79 52 r \$0-delaytime;
#X obj 344 40 s \$0-feedback;
#X obj 87 234 r \$0-feedback;
#X obj 434 40 s \$0-rarefaction;
#X obj 202 285 r \$0-rarefaction;
#X obj 549 40 s \$0-waveform;
#X obj 286 320 r \$0-waveform;
#X connect 0 0 28 1;
#X connect 1 0 19 0;
#X connect 1 0 28 0;
#X connect 2 0 1 1;
#X connect 3 0 6 0;
#X connect 4 0 3 0;
#X connect 4 0 7 1;
#X connect 4 0 13 1;
#X connect 5 0 0 0;
#X connect 6 0 2 1;
#X connect 7 0 29 0;
#X connect 8 0 9 0;
#X connect 9 0 10 0;
#X connect 10 0 11 0;
#X connect 11 0 7 0;
#X connect 12 0 9 1;
#X connect 13 0 2 0;
#X connect 14 0 15 0;
#X connect 15 0 17 0;
#X connect 16 0 14 0;
#X connect 17 0 13 0;
#X connect 18 0 30 0;
#X connect 20 0 38 0;
#X connect 21 0 36 0;
#X connect 22 0 34 0;
#X connect 23 0 26 0;
#X connect 24 0 32 0;
#X connect 25 0 6 0;
#X connect 26 0 4 0;
#X connect 27 0 5 0;
#X connect 28 0 30 0;
#X connect 29 0 31 0;
#X connect 31 0 1 0;
#X connect 33 0 12 0;
#X connect 33 0 10 1;
#X connect 35 0 27 0;
#X connect 37 0 17 1;
#X connect 39 0 25 0;
