#N canvas 589 167 399 236 10;
#X obj 158 10 loadbang;
#N canvas 0 22 450 300 loop.until 0;
#X obj 22 19 inlet;
#X obj 22 41 t f b, f 7;
#X obj 22 63 until;
#X obj 61 63 f 0;
#X obj 22 85 f, f 7;
#X obj 82 85 + 1, f 4;
#X obj 22 107 outlet;
#X connect 0 0 1 0;
#X connect 1 0 2 0;
#X connect 1 1 3 0;
#X connect 2 0 4 0;
#X connect 3 0 4 1;
#X connect 4 0 5 0;
#X connect 4 0 6 0;
#X connect 5 0 4 1;
#X restore 158 66 pd loop.until;
#X obj 158 36 f \$3;
#N canvas 136 136 302 232 planewave.coeff 0;
#X obj 34 60 symbol angles;
#X obj 34 84 text search \$4;
#X obj 34 11 inlet;
#X obj 34 129 text get \$4 0 1;
#X obj 63 107 + 1;
#X obj 34 33 t b f;
#X obj 34 177 / \$3;
#X obj 34 199 outlet;
#X obj 34 153 ylm.2d.planewave.coeff~ \$1;
#X connect 0 0 1 0;
#X connect 1 0 3 0;
#X connect 2 0 5 0;
#X connect 3 0 8 0;
#X connect 4 0 3 1;
#X connect 5 0 0 0;
#X connect 5 1 4 0;
#X connect 6 0 7 0;
#X connect 8 0 6 0;
#X restore 209 110 pd planewave.coeff;
#X obj 218 9 namecanvas \$0-this;
#N canvas 0 22 450 300 script 0;
#X obj 24 20 inlet;
#X obj 207 21 inlet;
#X obj 24 75 f \$0;
#X obj 146 75 * 20;
#X obj 146 97 + 10;
#X obj 24 122 pack f f f f, f 31;
#X obj 24 52 t b f f, f 21;
#X msg 24 152 \; \$1-this obj 10 \$3 pd \$1-planewave-\$2 \; pd-\$1-planewave-\$2
vis 0 \; pd-\$1-planewave-\$2 obj 10 10 spam.in~ \; pd-\$1-planewave-\$2
obj 10 30 *~ \$4 \; pd-\$1-planewave-\$2 obj 10 50 spam.out~ \$2 \;
pd-\$1-planewave-\$2 connect 0 0 1 0 \; pd-\$1-planewave-\$2 connect
1 0 2 0 \;;
#X connect 0 0 6 0;
#X connect 1 0 5 3;
#X connect 2 0 5 0;
#X connect 3 0 4 0;
#X connect 4 0 5 2;
#X connect 5 0 7 0;
#X connect 6 0 2 0;
#X connect 6 1 5 1;
#X connect 6 2 3 0;
#X restore 158 134 pd script;
#X obj 158 88 t f f, f 9;
#X connect 0 0 2 0;
#X connect 1 0 6 0;
#X connect 2 0 1 0;
#X connect 3 0 5 1;
#X connect 6 0 5 0;
#X connect 6 1 3 0;
