#N canvas 729 56 493 508 10;
#X obj 17 16 spam.in~;
#N canvas 386 27 567 623 omni 0;
#X obj 93 6 inlet;
#X obj 93 295 +, f 11;
#X obj 166 264 array get \$3-buffer-0;
#X obj 227 220 loadbang;
#X obj 227 242 f 1;
#X obj 93 378 pack f f, f 11;
#X obj 93 274 f;
#X obj 93 401 outlet, f 8;
#X obj 93 233 t b f, f 11;
#N canvas 0 22 450 300 loop.until 0;
#X obj 21 11 inlet;
#X obj 21 118 outlet;
#X obj 21 76 until;
#X obj 21 53 t f b, f 7;
#X obj 21 98 f 0, f 7;
#X obj 60 76 f 0;
#X obj 71 98 + 1, f 4;
#X obj 21 33 f 180;
#X connect 0 0 7 0;
#X connect 2 0 4 0;
#X connect 3 0 2 0;
#X connect 3 1 5 0;
#X connect 4 0 6 0;
#X connect 4 0 1 0;
#X connect 5 0 4 1;
#X connect 6 0 4 1;
#X connect 7 0 3 0;
#X restore 93 207 pd loop.until;
#X obj 93 356 *;
#X obj 93 28 t b b f, f 12;
#N canvas 0 22 449 458 nor 0;
#X obj 37 126 array max \$3-buffer-0;
#X obj 177 126 array min \$3-buffer-0;
#X obj 37 47 t f f;
#X obj 37 178 abs;
#X obj 177 178 abs;
#X obj 37 148 +;
#X obj 177 148 +;
#X obj 192 42 inlet;
#X obj 37 21 inlet;
#X obj 37 200 max, f 24;
#X obj 37 332 outlet;
#X obj 37 250 t b f;
#X obj 37 272 f 1;
#X obj 37 294 /, f 5;
#X obj 37 227 max 1;
#X connect 0 0 5 0;
#X connect 1 0 6 0;
#X connect 2 0 0 0;
#X connect 2 1 1 0;
#X connect 3 0 9 0;
#X connect 4 0 9 1;
#X connect 5 0 3 0;
#X connect 6 0 4 0;
#X connect 7 0 6 1;
#X connect 7 0 5 1;
#X connect 8 0 2 0;
#X connect 9 0 14 0;
#X connect 11 0 12 0;
#X connect 11 1 13 1;
#X connect 12 0 13 0;
#X connect 13 0 10 0;
#X connect 14 0 11 0;
#X restore 107 331 pd nor;
#X obj 93 50 t b b;
#N canvas 0 22 450 300 clear.buffer 0;
#X obj 42 68 s \$3-buffer-0;
#X msg 42 46 const 0;
#X obj 42 16 inlet;
#X connect 1 0 0 0;
#X connect 2 0 1 0;
#X restore 93 86 pd clear.buffer;
#X obj 162 150 / 8;
#X connect 0 0 11 0;
#X connect 1 0 10 0;
#X connect 2 0 1 1;
#X connect 3 0 4 0;
#X connect 4 0 2 1;
#X connect 5 0 7 0;
#X connect 6 0 1 0;
#X connect 8 0 6 0;
#X connect 8 1 2 0;
#X connect 8 1 5 1;
#X connect 9 0 8 0;
#X connect 10 0 5 0;
#X connect 11 0 13 0;
#X connect 11 1 12 0;
#X connect 11 2 15 0;
#X connect 12 0 10 1;
#X connect 13 0 14 0;
#X connect 13 1 9 0;
#X connect 15 0 6 1;
#X connect 15 0 12 1;
#X restore 17 100 pd omni;
#N canvas 428 64 370 490 directional 0;
#X obj 59 198 * 6.28319;
#N canvas 188 232 259 512 e^imθ 0;
#X obj 21 7 inlet;
#X obj 21 401 outlet;
#X obj 48 74 t f f;
#X obj 48 139 +, f 5;
#X obj 48 161 / 2;
#X obj 75 97 % 2;
#X obj 21 30 t f b;
#X obj 48 51 f \$1;
#X obj 21 184 *, f 5;
#X obj 21 207 -, f 14;
#X obj 102 139 * 1.57079;
#X obj 21 255 t f b;
#X obj 48 277 f \$1;
#X obj 48 299 == 0;
#X obj 48 321 + 1;
#X obj 21 343 /, f 5;
#X obj 21 231 cos;
#X obj 75 119 t f f;
#X obj 21 365 / 4;
#X connect 0 0 6 0;
#X connect 2 0 3 0;
#X connect 2 1 5 0;
#X connect 3 0 4 0;
#X connect 4 0 8 1;
#X connect 5 0 17 0;
#X connect 6 0 8 0;
#X connect 6 1 7 0;
#X connect 7 0 2 0;
#X connect 8 0 9 0;
#X connect 9 0 16 0;
#X connect 10 0 9 1;
#X connect 11 0 15 0;
#X connect 11 1 12 0;
#X connect 12 0 13 0;
#X connect 13 0 14 0;
#X connect 14 0 15 1;
#X connect 15 0 18 0;
#X connect 16 0 11 0;
#X connect 17 0 3 1;
#X connect 17 1 10 0;
#X connect 18 0 1 0;
#X restore 59 220 pd e^imθ;
#X obj 59 147 t f f, f 16;
#X obj 59 265 +, f 16;
#X obj 32 23 inlet;
#X obj 59 242 *, f 10;
#X obj 59 297 array set \$3-buffer-0, f 41;
#X obj 59 176 / 179;
#N canvas 0 22 450 300 loop.until 0;
#X obj 21 11 inlet;
#X obj 21 118 outlet;
#X obj 21 76 until;
#X obj 21 53 t f b, f 7;
#X obj 21 98 f 0, f 7;
#X obj 60 76 f 0;
#X obj 71 98 + 1, f 4;
#X obj 21 33 f 180;
#X connect 0 0 7 0;
#X connect 2 0 4 0;
#X connect 3 0 2 0;
#X connect 3 1 5 0;
#X connect 4 0 6 0;
#X connect 4 0 1 0;
#X connect 5 0 4 1;
#X connect 6 0 4 1;
#X connect 7 0 3 0;
#X restore 59 126 pd loop.until;
#X obj 152 168 t f f;
#X obj 59 69 t b f, f 10;
#X obj 152 242 array get \$3-buffer-0 0 1;
#X obj 32 45 t b f;
#X obj 32 368 outlet;
#N canvas 690 103 429 523 normalize 0;
#X obj 64 156 array max \$3-buffer-0;
#X obj 205 156 array min \$3-buffer-0;
#X obj 64 178 abs;
#X obj 205 178 abs;
#X obj 37 31 inlet;
#X obj 64 200 max, f 24;
#X obj 37 462 outlet;
#X obj 64 248 t b f;
#X obj 64 270 f 1;
#X obj 64 292 /, f 5;
#X obj 64 225 max 1;
#X obj 64 127 t b b, f 24;
#X obj 64 358 t f f, f 21;
#X obj 64 408 *, f 10;
#X obj 64 433 array set \$3-buffer-0, f 41;
#N canvas 0 22 450 300 loop.until 0;
#X obj 21 11 inlet;
#X obj 21 118 outlet;
#X obj 21 76 until;
#X obj 21 53 t f b, f 7;
#X obj 21 98 f 0, f 7;
#X obj 60 76 f 0;
#X obj 71 98 + 1, f 4;
#X obj 21 33 f 180;
#X connect 0 0 7 0;
#X connect 2 0 4 0;
#X connect 3 0 2 0;
#X connect 3 1 5 0;
#X connect 4 0 6 0;
#X connect 4 0 1 0;
#X connect 5 0 4 1;
#X connect 6 0 4 1;
#X connect 7 0 3 0;
#X restore 64 337 pd loop.until;
#X obj 64 384 array get \$3-buffer-0 0 1;
#X obj 64 314 t b f, f 10;
#X obj 37 103 t b b;
#X obj 82 12 loadbang;
#X obj 82 34 f \$1;
#X obj 82 56 == 0;
#X obj 37 79 spigot 0;
#X connect 0 0 2 0;
#X connect 1 0 3 0;
#X connect 2 0 5 0;
#X connect 3 0 5 1;
#X connect 4 0 22 0;
#X connect 5 0 10 0;
#X connect 7 0 8 0;
#X connect 7 1 9 1;
#X connect 8 0 9 0;
#X connect 9 0 17 0;
#X connect 10 0 7 0;
#X connect 11 0 0 0;
#X connect 11 1 1 0;
#X connect 12 0 16 0;
#X connect 12 1 14 1;
#X connect 13 0 14 0;
#X connect 15 0 12 0;
#X connect 16 0 13 0;
#X connect 17 0 15 0;
#X connect 17 1 13 1;
#X connect 18 0 6 0;
#X connect 18 1 11 0;
#X connect 19 0 20 0;
#X connect 20 0 21 0;
#X connect 21 0 22 1;
#X connect 22 0 18 0;
#X restore 32 331 pd normalize;
#X connect 0 0 1 0;
#X connect 1 0 5 0;
#X connect 2 0 7 0;
#X connect 2 1 9 0;
#X connect 3 0 6 0;
#X connect 4 0 12 0;
#X connect 5 0 3 0;
#X connect 7 0 0 0;
#X connect 8 0 2 0;
#X connect 9 0 11 0;
#X connect 9 1 6 1;
#X connect 10 0 8 0;
#X connect 10 1 5 1;
#X connect 11 0 3 1;
#X connect 12 0 14 0;
#X connect 12 1 10 0;
#X connect 14 0 13 0;
#X restore 110 100 pd directional;
#X obj 211 68 array define \$3-buffer-\$1 180;
#N canvas 677 84 665 431 \$0-t-scope 0;
#X obj 6 8 struct \$0-t-scope float x array bufr \$0-t-scope-value-r
array bufg \$0-t-scope-value-g;
#X obj 8 242 drawcurve -x 0 1 0.81 0 0.5751 0.5751 0 0.81 -0.5751 0.5751
-0.81 0 -0.5751 -0.5751 0 -0.81 0.5751 -0.5751 0.81 0;
#X obj 8 282 drawcurve -x 0 1 0.54 0 0.3834 0.3834 0 0.54 -0.3834 0.3834
-0.54 0 -0.3834 -0.3834 0 -0.54 0.3834 -0.3834 0.54 0;
#X obj 8 322 drawcurve -x 0 1 0.27 0 0.1917 0.1917 0 0.27 -0.1917 0.1917
-0.27 0 -0.1917 -0.1917 0 -0.27 0.1917 -0.1917 0.27 0;
#X obj 7 100 drawpolygon -x 0 1 1 0 0.24 0;
#X obj 7 120 drawpolygon -x 0 1 -1 0 -0.24 0;
#X obj 7 150 drawpolygon -x 0 1 0 1 0 0.24;
#X obj 7 170 drawpolygon -x 0 1 0 -1 0 -0.24;
#X obj 7 53 plot bufr 900 1 0 0 0;
#X obj 7 73 plot bufg 9 1 0 0 0;
#X obj 8 202 drawcurve -x 0 1 1.08 0 0.7668 0.7668 0 1.079 -0.7668
0.7668 -1.079 0 -0.7668 -0.7668 0 -1.08 0.7668 -0.7668 1.08 0;
#X restore 211 8 pd \$0-t-scope;
#X obj 17 164 spigot, f 7;
#X obj 17 186 unpack f f;
#N canvas 65 248 568 128 \$0-t-scope-value-r 0;
#X obj 35 11 struct \$0-t-scope-value-r float x float y;
#X restore 211 28 pd \$0-t-scope-value-r;
#N canvas 65 248 568 128 \$0-t-scope-value-g 0;
#X obj 35 11 struct \$0-t-scope-value-g float x float y;
#X restore 211 48 pd \$0-t-scope-value-g;
#N canvas 290 189 450 434 clear_and_add_t 0;
#X obj 145 290 pointer;
#X obj 34 314 append \$0-t-scope x;
#X obj 145 221 symbol \$3;
#X msg 274 267 \; pd-\$1 clear;
#X msg 145 267 traverse pd-\$1 \, bang;
#X obj 34 219 f 0;
#X obj 34 197 t b b, f 19;
#X obj 145 243 t s s, f 22;
#X obj 34 342 t b b p, f 45;
#X obj 34 364 f 1;
#X obj 167 383 setsize \$0-t-scope bufr;
#X obj 167 404 setsize \$0-t-scope bufg;
#X obj 167 363 f 180;
#X obj 34 386 outlet;
#X obj 301 444 outlet;
#X obj 34 173 spigot 0, f 10;
#X obj 86 67 f \$1;
#X obj 86 89 == 0;
#X obj 34 4 loadbang;
#X obj 34 26 delay 10;
#X obj 143 66 symbol \$3;
#X obj 143 88 sel \$3;
#X obj 143 110 f 1;
#X obj 34 47 t b b b, f 18;
#X obj 86 131 +;
#X obj 86 153 == 2;
#X connect 0 0 1 1;
#X connect 1 0 8 0;
#X connect 2 0 7 0;
#X connect 4 0 0 0;
#X connect 5 0 1 0;
#X connect 6 0 5 0;
#X connect 6 1 2 0;
#X connect 7 0 4 0;
#X connect 7 1 3 0;
#X connect 8 0 9 0;
#X connect 8 1 12 0;
#X connect 8 2 10 1;
#X connect 8 2 11 1;
#X connect 8 2 14 0;
#X connect 9 0 13 0;
#X connect 12 0 10 0;
#X connect 12 0 11 0;
#X connect 15 0 6 0;
#X connect 16 0 17 0;
#X connect 17 0 24 0;
#X connect 18 0 19 0;
#X connect 19 0 23 0;
#X connect 20 0 21 0;
#X connect 21 0 22 0;
#X connect 22 0 24 1;
#X connect 23 0 15 0;
#X connect 23 1 16 0;
#X connect 23 2 20 0;
#X connect 24 0 25 0;
#X connect 25 0 15 1;
#X restore 56 129 pd clear_and_add_t;
#N canvas 0 23 450 300 set_positive 0;
#X obj 28 122 pack f f;
#X obj 205 85 element \$0-t-scope bufr;
#X obj 28 99 max 0;
#X obj 28 168 set \$0-t-scope-value-r x y, f 30;
#N canvas 0 23 189 224 poltocar 0;
#X obj 26 11 inlet;
#X obj 26 172 outlet;
#X obj 26 135 pack f f, f 14;
#X obj 26 33 unpack f f, f 17;
#X obj 107 103 *;
#X obj 26 55 t f f, f 14;
#X obj 125 81 sin;
#X obj 26 103 *;
#X obj 44 81 cos;
#X connect 0 0 3 0;
#X connect 2 0 1 0;
#X connect 3 0 5 0;
#X connect 3 1 6 0;
#X connect 3 1 8 0;
#X connect 4 0 2 1;
#X connect 5 0 7 0;
#X connect 5 1 4 0;
#X connect 6 0 4 1;
#X connect 7 0 2 0;
#X connect 8 0 7 1;
#X restore 28 145 pd poltocar;
#X obj 28 48 inlet;
#X obj 73 48 inlet;
#X obj 205 48 inlet;
#X obj 340 48 inlet;
#X connect 0 0 4 0;
#X connect 1 0 3 2;
#X connect 2 0 0 0;
#X connect 4 0 3 0;
#X connect 5 0 2 0;
#X connect 6 0 0 1;
#X connect 7 0 1 0;
#X connect 8 0 1 1;
#X restore 17 264 pd set_positive;
#X obj 46 214 / 179;
#X obj 46 236 * 6.28319;
#N canvas 0 22 450 300 set_negative 0;
#X obj 28 142 pack f f;
#N canvas 0 23 189 224 poltocar 0;
#X obj 26 11 inlet;
#X obj 26 172 outlet;
#X obj 26 135 pack f f, f 14;
#X obj 26 33 unpack f f, f 17;
#X obj 107 103 *;
#X obj 26 55 t f f, f 14;
#X obj 125 81 sin;
#X obj 26 103 *;
#X obj 44 81 cos;
#X connect 0 0 3 0;
#X connect 2 0 1 0;
#X connect 3 0 5 0;
#X connect 3 1 6 0;
#X connect 3 1 8 0;
#X connect 4 0 2 1;
#X connect 5 0 7 0;
#X connect 5 1 4 0;
#X connect 6 0 4 1;
#X connect 7 0 2 0;
#X connect 8 0 7 1;
#X restore 28 165 pd poltocar;
#X obj 28 48 inlet;
#X obj 73 48 inlet;
#X obj 205 48 inlet;
#X obj 340 48 inlet, f 45;
#X obj 28 188 set \$0-t-scope-value-g x y, f 30;
#X obj 205 85 element \$0-t-scope bufg;
#X obj 28 99 min 0;
#X obj 28 121 * -1;
#X connect 0 0 1 0;
#X connect 1 0 6 0;
#X connect 2 0 8 0;
#X connect 3 0 0 1;
#X connect 4 0 7 0;
#X connect 5 0 7 1;
#X connect 7 0 6 2;
#X connect 8 0 9 0;
#X connect 9 0 0 0;
#X restore 17 294 pd set_negative;
#N canvas 0 23 168 206 split_plarity 0;
#X obj 13 130 spigot;
#X obj 64 130 spigot;
#X obj 46 39 loadbang;
#X obj 46 103 == 0;
#X obj 97 103 != 0;
#X obj 46 61 f \$1;
#X obj 13 13 inlet;
#X obj 13 152 outlet;
#X obj 64 152 outlet;
#X connect 0 0 7 0;
#X connect 1 0 8 0;
#X connect 2 0 5 0;
#X connect 3 0 0 1;
#X connect 4 0 1 1;
#X connect 5 0 3 0;
#X connect 5 0 4 0;
#X connect 6 0 0 0;
#X connect 6 0 1 0;
#X restore 17 74 pd split_plarity;
#N canvas 0 22 240 510 sample.picker 0;
#X obj 123 139 bang~;
#X obj 56 184 r pd;
#X obj 56 206 route dsp;
#X obj 56 318 metro 100;
#X obj 123 161 spigot 1;
#X obj 150 206 f 0;
#X obj 56 298 change;
#X obj 123 183 t b b;
#X obj 123 205 f 1;
#N canvas 0 23 450 300 get.interval 0;
#X obj 20 94 list split 1;
#X obj 54 119 outlet;
#X obj 20 4 inlet;
#X obj 20 50 text search \$4;
#X obj 20 72 text get \$4;
#X obj 20 26 symbol interval;
#X connect 0 1 1 0;
#X connect 2 0 5 0;
#X connect 3 0 4 0;
#X connect 4 0 0 0;
#X connect 5 0 3 0;
#X restore 107 297 pd get.interval;
#X obj 107 248 loadbang;
#X obj 107 270 delay 10;
#X obj 17 352 snapshot~;
#X obj 17 441 spigot 0;
#X obj 62 396 \$2;
#X obj 62 375 loadbang;
#X obj 62 418 != 0;
#X obj 17 463 outlet;
#X obj 17 20 inlet~;
#X obj 17 157 *~ 1;
#X obj 38 44 loadbang;
#X obj 38 66 delay 10;
#N canvas 0 22 450 300 get.gain 0;
#X obj 20 94 list split 1;
#X obj 54 119 outlet;
#X obj 20 4 inlet;
#X obj 20 50 text search \$4;
#X obj 20 72 text get \$4;
#X obj 20 26 symbol gain;
#X connect 0 1 1 0;
#X connect 2 0 5 0;
#X connect 3 0 4 0;
#X connect 4 0 0 0;
#X connect 5 0 3 0;
#X restore 38 89 pd get.gain;
#X obj 38 112 dbtorms;
#X obj 38 134 + 1;
#X connect 0 0 4 0;
#X connect 1 0 2 0;
#X connect 2 0 6 0;
#X connect 3 0 12 0;
#X connect 4 0 7 0;
#X connect 5 0 4 1;
#X connect 6 0 3 0;
#X connect 7 0 8 0;
#X connect 7 1 5 0;
#X connect 8 0 6 0;
#X connect 9 0 3 1;
#X connect 10 0 11 0;
#X connect 11 0 9 0;
#X connect 12 0 13 0;
#X connect 13 0 17 0;
#X connect 14 0 16 0;
#X connect 15 0 14 0;
#X connect 16 0 13 1;
#X connect 18 0 19 0;
#X connect 19 0 12 0;
#X connect 20 0 21 0;
#X connect 21 0 22 0;
#X connect 22 0 23 0;
#X connect 23 0 24 0;
#X connect 24 0 19 1;
#X restore 17 46 pd sample.picker;
#X connect 0 0 15 0;
#X connect 1 0 5 0;
#X connect 5 0 6 0;
#X connect 6 0 10 0;
#X connect 6 0 13 0;
#X connect 6 1 10 2;
#X connect 6 1 11 0;
#X connect 6 1 13 2;
#X connect 9 0 5 1;
#X connect 9 1 10 3;
#X connect 9 1 13 3;
#X connect 11 0 12 0;
#X connect 12 0 10 1;
#X connect 12 0 13 1;
#X connect 14 0 1 0;
#X connect 14 1 2 0;
#X connect 15 0 14 0;
