#N struct 1212-t-scope float x array bufr 1212-t-scope-value-r array
bufg 1212-t-scope-value-g;
#N struct 1212-t-scope-value-r float x float y;
#N struct 1212-t-scope-value-g float x float y;
#N canvas 686 23 519 821 10;
#X declare -stdpath spam;
#X obj 320 703 declare -stdpath spam;
#N canvas 0 22 450 300 \$0-scope 0;
#X scalar 1212-t-scope 0 \; 0.157078 0 \; 0.158806 0.00557663 \; 0.158004
0.0111106 \; 0.154653 0.0163462 \; 0.148783 0.0210285 \; 0.140474 0.0249106
\; 0.129851 0.0277595 \; 0.117085 0.0293625 \; 0.102393 0.0295336 \;
0.0860248 0.0281182 \; 0.0682692 0.0249988 \; 0.0494407 0.0200988 \;
0.029877 0.013386 \; 0.00993099 0.00487487 \; 0 0 \; 0 0 \; 0 0 \;
0 0 \; 0 0 \; 0 0 \; 0 0 \; 0 0 \; 0 0 \; 0 0 \; 0 0 \; 0 0 \; 0 0
\; 0 0 \; 0 0 \; 0 0 \; 0 0 \; 0 0 \; 0 0 \; 0 0 \; 0 0 \; 0 0 \; 0
0 \; 0 0 \; 0 0 \; 0 0 \; 0.0064694 0.0384411 \; 0.0109442 0.0826629
\; 0.0125475 0.129584 \; 0.0109931 0.178738 \; 0.00604598 0.229613
\; -0.00247206 0.281658 \; -0.0146776 0.334294 \; -0.0306224 0.386917
\; -0.0502905 0.438916 \; -0.0735978 0.489674 \; -0.100391 0.538582
\; -0.130452 0.58505 \; -0.163493 0.628511 \; -0.199171 0.668437 \;
-0.237084 0.704341 \; -0.276779 0.73579 \; -0.317763 0.762409 \; -0.359504
0.783889 \; -0.401446 0.79999 \; -0.443012 0.810545 \; -0.48362 0.815466
\; -0.522686 0.81474 \; -0.559637 0.808435 \; -0.593923 0.796693 \;
-0.625021 0.77973 \; -0.652447 0.757834 \; -0.675764 0.731357 \; -0.694589
0.700709 \; -0.708601 0.666355 \; -0.717543 0.628802 \; -0.721231 0.588595
\; -0.719554 0.546302 \; -0.712477 0.502512 \; -0.700043 0.45782 \;
-0.682369 0.412819 \; -0.659649 0.36809 \; -0.632146 0.324192 \; -0.600192
0.281656 \; -0.564179 0.240973 \; -0.524554 0.20259 \; -0.481813 0.1669
\; -0.436491 0.134239 \; -0.389154 0.104883 \; -0.340388 0.0790387
\; -0.290795 0.056848 \; -0.240976 0.0383831 \; -0.191526 0.0236487
\; -0.143025 0.012583 \; -0.0960262 0.00506047 \; -0.0510498 0.000895938
\; -0.00857433 -0.000150522 \; -0 -0 \; -0 -0 \; -0 -0 \; -0 -0 \;
-0 -0 \; -0 -0 \; -0 -0 \; -0 -0 \; -0 -0 \; -0 -0 \; -0 -0 \; -0 -0
\; -0 -0 \; -0 -0 \; -0 -0 \; -0 -0 \; -0 -0 \; -0 -0 \; -0 -0 \; -0
-0 \; -0 -0 \; -0 -0 \; -0 -0 \; -0 -0 \; -0 -0 \; -0.00291915 -0.0039158
\; -0.015255 -0.0220372 \; -0.0257838 -0.0401911 \; -0.0344154 -0.0580307
\; -0.0411098 -0.0752162 \; -0.0458746 -0.0914186 \; -0.0487636 -0.106329
\; -0.0498735 -0.119663 \; -0.0493405 -0.131168 \; -0.0473351 -0.140628
\; -0.0440578 -0.147864 \; -0.0397327 -0.152746 \; -0.0346016 -0.155185
\; -0.0289177 -0.155142 \; -0.022939 -0.152627 \; -0.0169219 -0.147694
\; -0.0111149 -0.140447 \; -0.00575249 -0.13103 \; -0.00104941 -0.119631
\; 0.00280395 -0.10647 \; 0.00564655 -0.0918014 \; 0.00735011 -0.0759043
\; 0.00782198 -0.0590785 \; 0.00700746 -0.0416371 \; 0.00489058 -0.0239003
\; 0.00149468 -0.0061898 \; 0 -0 \; 0 -0 \; 0 -0 \; 0 -0 \; 0 -0 \;
0 -0 \; 0 -0 \; 0 -0 \; 0 -0 \; 0 -0 \; 0 -0 \; 0 -0 \; 0 -0 \; 0 -0
\; 0 -0 \; 0 -0 \; 0 -0 \; 0 -0 \; 0 -0 \; 0 -0 \; 0 -0 \; 0 -0 \;
0 -0 \; 0 -0 \; 0 -0 \; 0.00124001 -0.000555563 \; 0.017969 -0.00730475
\; 0.035031 -0.0128275 \; 0.0521159 -0.0170344 \; 0.0689066 -0.0198747
\; 0.0850843 -0.0213369 \; 0.100336 -0.0214493 \; 0.114359 -0.020279
\; 0.126869 -0.0179306 \; 0.137608 -0.014544 \; 0.146346 -0.0102902
\; 0.152888 -0.00536811 \; 0.157079 7.01573e-07 \; \; -0 -0 \; -0 -0
\; -0 -0 \; -0 -0 \; -0 -0 \; -0 -0 \; -0 -0 \; -0 -0 \; -0 -0 \; -0
-0 \; -0 -0 \; -0 -0 \; -0 -0 \; -0 -0 \; 0.0100357 0.00537127 \; 0.0296603
0.0172403 \; 0.0485863 0.0305713 \; 0.0664708 0.0451565 \; 0.0829918
0.0607433 \; 0.097855 0.0770383 \; 0.1108 0.0937115 \; 0.121608 0.110401
\; 0.130102 0.126722 \; 0.136159 0.142268 \; 0.139703 0.156624 \; 0.140718
0.169371 \; 0.139241 0.180096 \; 0.135368 0.188396 \; 0.129247 0.193892
\; 0.121082 0.196233 \; 0.111126 0.195104 \; 0.0996782 0.190233 \;
0.0870775 0.1814 \; 0.0736984 0.168439 \; 0.0599428 0.151243 \; 0.0462328
0.129773 \; 0.0330029 0.104053 \; 0.0206915 0.0741759 \; 0.00973228
0.0403042 \; 0.000545716 0.00266698 \; -0 -0 \; -0 -0 \; -0 -0 \; -0
-0 \; -0 -0 \; 0 -0 \; 0 -0 \; 0 -0 \; 0 -0 \; 0 -0 \; 0 -0 \; 0 -0
\; 0 -0 \; 0 -0 \; 0 -0 \; 0 -0 \; 0 -0 \; 0 -0 \; 0 -0 \; 0 -0 \;
0 -0 \; 0 -0 \; 0 -0 \; 0 -0 \; 0 -0 \; 0 -0 \; 0 -0 \; 0 -0 \; 0 -0
\; 0 -0 \; 0 -0 \; 0 -0 \; 0 -0 \; 0 -0 \; 0 -0 \; 0 -0 \; 0 -0 \;
0 -0 \; 0 -0 \; 0 -0 \; 0 -0 \; 0 -0 \; 0 -0 \; 0 -0 \; 0 -0 \; 0 -0
\; 0 -0 \; 0 -0 \; 0 -0 \; 0 -0 \; 0 0 \; -0.0309699 -0.00163222 \;
-0.0672082 -0.00591315 \; -0.0998235 -0.0123262 \; -0.128564 -0.0204785
\; -0.153241 -0.0299581 \; -0.173738 -0.0403431 \; -0.190002 -0.0512094
\; -0.202049 -0.0621396 \; -0.209961 -0.0727312 \; -0.213878 -0.0826036
\; -0.214002 -0.0914062 \; -0.210586 -0.0988239 \; -0.203926 -0.104583
\; -0.194363 -0.108458 \; -0.182268 -0.110269 \; -0.168035 -0.109894
\; -0.152078 -0.107262 \; -0.134817 -0.102357 \; -0.116675 -0.0952191
\; -0.0980655 -0.0859382 \; -0.0793877 -0.0746553 \; -0.0610193 -0.0615575
\; -0.0433094 -0.0468727 \; -0.026573 -0.0308655 \; -0.0110859 -0.0138301
\; 0 0 \; 0 0 \; 0 0 \; 0 0 \; 0 0 \; 0 0 \; 0 0 \; 0 0 \; 0 0 \; 0
0 \; 0 0 \; 0 0 \; 0 0 \; 0 0 \; 0 0 \; 0 0 \; 0 0 \; 0 0 \; 0 0 \;
-0 0 \; -0 0 \; -0 0 \; -0 0 \; -0 0 \; -0 0 \; -0 0 \; 0.00311842
-0.0111789 \; 0.00885013 -0.0279026 \; 0.0155673 -0.043696 \; 0.0231054
-0.0582971 \; 0.031273 -0.071474 \; 0.0398555 -0.0830262 \; 0.0486213
-0.0927914 \; 0.0573262 -0.100646 \; 0.0657203 -0.106509 \; 0.0735534
-0.110341 \; 0.0805812 -0.112147 \; 0.0865713 -0.111971 \; 0.0913089
-0.109901 \; 0.0946022 -0.10606 \; 0.096287 -0.100606 \; 0.0962315
-0.0937301 \; 0.0943396 -0.0856452 \; 0.0905541 -0.0765871 \; 0.0848581
-0.0668056 \; 0.077277 -0.05656 \; 0.0678779 -0.0461119 \; 0.0567696
-0.03572 \; 0.044101 -0.0256338 \; 0.0300581 -0.0160874 \; 0.0148609
-0.00729476 \; -0 0 \; -0 0 \; -0 0 \; -0 0 \; -0 0 \; -0 0 \; -0 0
\; -0 0 \; -0 0 \; -0 0 \; -0 0 \; -0 0 \; -0 -0 \; \;;
#X coords -1 1 1 -1 284 284 2 100 100;
#X restore 23 366 pd \$0-scope;
#X obj 22 766 dac~ 1 2 3 4 5 6 7 8, f 47;
#X obj 22 276 spam~ 7 ylm.2d.syn.directional~ 3, f 47;
#X obj 45 726 text define -k \$0-scope-attrs;
#A set gain 200 \; interval 100 \;;
#X obj 320 744 text define -k \$0-pro-attrs;
#A set angles 45 90 135 180 225 270 315 360 \;;
#X obj 9 790 ylm.footer;
#N canvas 0 22 450 300 init 0;
#X obj 23 32 loadbang;
#X msg 23 54 80;
#X obj 23 76 s \$0-gain;
#X obj 93 32 loadbang;
#X obj 93 76 s \$0-pos;
#X msg 93 54 1 0;
#X obj 163 32 loadbang;
#X msg 163 54 1;
#X obj 163 76 s \$0-traj;
#X connect 0 0 1 0;
#X connect 1 0 2 0;
#X connect 3 0 5 0;
#X connect 5 0 4 0;
#X connect 6 0 7 0;
#X connect 7 0 8 0;
#X restore 320 682 pd init;
#N canvas 217 367 450 300 pos 0;
#X obj 145 100 nbx 4 14 -1e+37 1e+37 0 0 empty empty empty 0 -8 0 10
-262144 -1 -1 4.01425 256;
#X obj 100 100 nbx 4 14 0 1e+37 0 0 empty empty empty 0 -8 0 10 -262144
-1 -1 1 256;
#X obj 119 77 t b f;
#X obj 101 150 pack 1 f;
#X obj 101 18 r \$0-pos;
#X obj 101 40 unpack f f;
#X obj 101 172 outlet;
#X obj 164 19 inlet;
#X connect 0 0 2 0;
#X connect 1 0 3 0;
#X connect 2 0 1 0;
#X connect 2 1 3 1;
#X connect 3 0 6 0;
#X connect 4 0 5 0;
#X connect 5 0 1 0;
#X connect 5 1 0 0;
#X connect 7 0 5 0;
#X coords 0 -1 1 1 90 14 2 100 100;
#X restore 218 252 pd pos;
#X obj 218 203 tgl 15 0 empty \$0-traj empty 17 7 0 10 -262144 -1 -1
0 1;
#N canvas 0 22 450 406 trajectory 0;
#X obj 158 109 + 1;
#X obj 128 173 / 180;
#X obj 128 195 * 6.28318;
#X obj 128 153 f -1;
#X obj 128 131 sel 179 0;
#X obj 128 109 f 0;
#X obj 83 106 + 1;
#X obj 53 150 f -1;
#X obj 93 150 f 1;
#X obj 53 106 f 0;
#X obj 53 128 sel 499 0;
#X obj 53 235 t b f;
#X obj 53 257 f 1;
#X obj 53 279 -, f 5;
#X obj 53 79 t b b, f 13;
#X obj 53 55 metro 20;
#X obj 53 301 pack f f, f 13;
#X obj 53 33 inlet;
#X obj 53 323 outlet;
#X obj 159 153 f 1;
#X obj 53 170 max 300;
#X obj 53 192 - 300;
#X obj 53 214 / 200;
#X connect 0 0 5 1;
#X connect 1 0 2 0;
#X connect 2 0 16 1;
#X connect 3 0 0 1;
#X connect 4 0 3 0;
#X connect 4 1 19 0;
#X connect 5 0 0 0;
#X connect 5 0 1 0;
#X connect 5 0 4 0;
#X connect 6 0 9 1;
#X connect 7 0 6 1;
#X connect 8 0 6 1;
#X connect 9 0 6 0;
#X connect 9 0 10 0;
#X connect 9 0 20 0;
#X connect 10 0 7 0;
#X connect 10 1 8 0;
#X connect 11 0 12 0;
#X connect 11 1 13 1;
#X connect 12 0 13 0;
#X connect 13 0 16 0;
#X connect 14 0 9 0;
#X connect 14 1 5 0;
#X connect 15 0 14 0;
#X connect 16 0 18 0;
#X connect 17 0 15 0;
#X connect 19 0 0 1;
#X connect 20 0 21 0;
#X connect 21 0 22 0;
#X connect 22 0 11 0;
#X restore 218 226 pd trajectory;
#X obj 320 764 text define -k \$0-meter-attrs;
#A set positions 0.494974 0.494974 0 0.7 -0.494974 0.494974 -0.7 0
-0.494974 -0.494974 0 -0.7 0.494974 -0.494974 0.7 0 \; gain 135 \;
sizes 12 48 \;;
#X obj 22 249 sig~ 0.5;
#X obj 46 228 nbx 5 14 -1e+37 1e+37 0 0 empty empty empty 0 -8 0 10
-262144 -1 -1 2 256;
#X obj 22 343 spam~ 7 ylm.2d.scope~ 3 \$0-scope, f 47;
#X connect 3 0 14 0;
#X connect 3 1 14 1;
#X connect 3 2 14 2;
#X connect 3 3 14 3;
#X connect 3 4 14 4;
#X connect 3 5 14 5;
#X connect 3 6 14 6;
#X connect 8 0 3 1;
#X connect 9 0 10 0;
#X connect 10 0 8 0;
#X connect 12 0 3 0;
#X connect 13 0 12 0;
