#N struct 1105-t-scope float x array bufr 1105-t-scope-value-r array
bufg 1105-t-scope-value-g;
#N struct 1105-t-scope-value-r float x float y;
#N struct 1105-t-scope-value-g float x float y;
#N struct 1067-t-meter float x array ls 1067-t-meter-value;
#N struct 1067-t-meter-value float x1 float y1 float s1 float s2 float
s3 float s4 float c0 float c1 float c2 float c3 float c4 float v1 float
v2 float v3 float v4;
#N canvas 686 23 519 821 10;
#X declare -stdpath spam;
#X obj 37 352 *~;
#X obj 49 375 nbx 5 14 0 100 0 0 empty \$0-gain empty 0 -8 0 10 -262144
-1 -1 80 256;
#X obj 22 419 *~, f 5;
#X obj 22 310 noise~;
#X obj 320 703 declare -stdpath spam;
#N canvas 0 22 450 300 gain 0;
#X obj 10 45 dbtorms;
#X obj 10 67 pack f 20;
#X obj 10 89 line~;
#X obj 10 25 inlet;
#X obj 10 111 outlet~;
#X connect 0 0 1 0;
#X connect 1 0 2 0;
#X connect 2 0 4 0;
#X connect 3 0 0 0;
#X restore 49 395 pd gain;
#X obj 37 330 osc~ 5;
#N canvas 0 22 450 300 \$0-scope 0;
#X scalar 1105-t-scope 0 \; 0 0 \; 0 0 \; 0 0 \; 0 0 \; 0 0 \; 0 0
\; 0 0 \; 0 0 \; 0 0 \; 0 0 \; 0 0 \; 0 0 \; 0 0 \; 0 0 \; 0 0 \; 0
0 \; 0 0 \; 0 0 \; 0 0 \; 0 0 \; 0 0 \; 0 0 \; 0 0 \; 0 0 \; 0 0 \;
0 0 \; 0 0 \; 0 0 \; 0 0 \; 0 0 \; 0 0 \; 0 0 \; 0 0 \; 0 0 \; 0 0
\; 0 0 \; 0 0 \; 0 0 \; 0 0 \; 0 0 \; 0 0 \; 0 0 \; 0 0 \; 0 0 \; 0
0 \; -0 0 \; -0 0 \; -0 0 \; -0 0 \; -0 0 \; -0 0 \; -0 0 \; -0 0 \;
-0 0 \; -0 0 \; -0 0 \; -0 0 \; -0 0 \; -0 0 \; -0 0 \; -0 0 \; -0
0 \; -0 0 \; -0 0 \; -0 0 \; -0 0 \; -0 0 \; -0 0 \; -0 0 \; -0 0 \;
-0 0 \; -0 0 \; -0 0 \; -0 0 \; -0 0 \; -0 0 \; -0 0 \; -0 0 \; -0
0 \; -0 0 \; -0 0 \; -0 0 \; -0 0 \; -0 0 \; -0 0 \; -0 0 \; -0 0 \;
-0 0 \; -0 0 \; -0 0 \; -0 -0 \; -0 -0 \; -0 -0 \; -0 -0 \; -0 -0 \;
-0 -0 \; -0 -0 \; -0 -0 \; -0 -0 \; -0 -0 \; -0 -0 \; -0 -0 \; -0 -0
\; -0 -0 \; -0 -0 \; -0 -0 \; -0 -0 \; -0 -0 \; -0 -0 \; -0 -0 \; -0
-0 \; -0 -0 \; -0 -0 \; -0 -0 \; -0 -0 \; -0 -0 \; -0 -0 \; -0 -0 \;
-0 -0 \; -0 -0 \; -0 -0 \; -0 -0 \; -0 -0 \; -0 -0 \; -0 -0 \; -0 -0
\; -0 -0 \; -0 -0 \; -0 -0 \; -0 -0 \; -0 -0 \; -0 -0 \; -0 -0 \; -0
-0 \; -0 -0 \; 0 -0 \; 0 -0 \; 0 -0 \; 0 -0 \; 0 -0 \; 0 -0 \; 0 -0
\; 0 -0 \; 0 -0 \; 0 -0 \; 0 -0 \; 0 -0 \; 0 -0 \; 0 -0 \; 0 -0 \;
0 -0 \; 0 -0 \; 0 -0 \; 0 -0 \; 0 -0 \; 0 -0 \; 0 -0 \; 0 -0 \; 0 -0
\; 0 -0 \; 0 -0 \; 0 -0 \; 0 -0 \; 0 -0 \; 0 -0 \; 0 -0 \; 0 -0 \;
0 -0 \; 0 -0 \; 0 -0 \; 0 -0 \; 0 -0 \; 0 -0 \; 0 -0 \; 0 -0 \; 0 -0
\; 0 -0 \; 0 -0 \; 0 -0 \; 0 0 \; \; 0.0269312 0 \; 0.0271266 0.00095258
\; 0.0272976 0.00191953 \; 0.0274434 0.00290065 \; 0.0275633 0.0038957
\; 0.0276567 0.00490443 \; 0.0277227 0.00592657 \; 0.0277608 0.00696181
\; 0.02777 0.00800983 \; 0.0277496 0.00907027 \; 0.0276987 0.0101427
\; 0.0276165 0.0112268 \; 0.0275021 0.0123219 \; 0.0273545 0.0134276
\; 0.0271728 0.0145433 \; 0.0269559 0.0156683 \; 0.0267028 0.0168019
\; 0.0264125 0.0179431 \; 0.0260838 0.0190912 \; 0.0257156 0.0202452
\; 0.0253069 0.0214037 \; 0.0248563 0.0225658 \; 0.0243629 0.0237299
\; 0.0238255 0.0248945 \; 0.0232428 0.026058 \; 0.022614 0.0272187
\; 0.0219378 0.0283745 \; 0.0212134 0.0295234 \; 0.0204398 0.0306631
\; 0.0196162 0.0317912 \; 0.0187419 0.0329051 \; 0.0178163 0.034002
\; 0.016839 0.0350791 \; 0.0158098 0.0361334 \; 0.0147284 0.0371617
\; 0.0135951 0.0381607 \; 0.0124101 0.039127 \; 0.011174 0.0400571
\; 0.00988762 0.0409475 \; 0.00855199 0.0417946 \; 0.00716844 0.0425947
\; 0.00573858 0.0433442 \; 0.00426431 0.0440395 \; 0.00274781 0.0446769
\; 0.00119156 0.0452529 \; -0.000401662 0.045764 \; -0.00202879 0.0462071
\; -0.00368647 0.0465789 \; -0.00537106 0.0468765 \; -0.00707869 0.0470972
\; -0.00880521 0.0472384 \; -0.0105462 0.0472979 \; -0.0122972 0.0472737
\; -0.0140533 0.0471643 \; -0.0158097 0.0469682 \; -0.0175612 0.0466846
\; -0.0193027 0.0463129 \; -0.0210289 0.0458529 \; -0.0227345 0.0453047
\; -0.0244143 0.044669 \; -0.026063 0.0439467 \; -0.0276754 0.0431393
\; -0.0292464 0.0422485 \; -0.030771 0.0412764 \; -0.0322444 0.0402257
\; -0.0336619 0.0390992 \; -0.0350194 0.0379003 \; -0.0363125 0.0366324
\; -0.0375375 0.0352996 \; -0.0386909 0.0339058 \; -0.0397694 0.0324557
\; -0.0407702 0.0309537 \; -0.0416909 0.0294047 \; -0.0425294 0.0278138
\; -0.043284 0.0261859 \; -0.0439533 0.0245263 \; -0.0445364 0.0228402
\; -0.0450329 0.0211329 \; -0.0454426 0.0194095 \; -0.0457657 0.0176753
\; -0.0460029 0.0159354 \; -0.0461552 0.0141946 \; -0.0462238 0.012458
\; -0.0462105 0.0107302 \; -0.0461172 0.00901551 \; -0.045946 0.00731837
\; -0.0456995 0.00564276 \; -0.0453804 0.00399247 \; -0.0449916 0.00237101
\; -0.0445361 0.000781621 \; -0.0440171 -0.00077272 \; -0.043438 -0.00228933
\; -0.0428022 -0.00376584 \; -0.0421131 -0.00520012 \; -0.0413742 -0.00659037
\; -0.0405891 -0.00793501 \; -0.0397612 -0.00923279 \; -0.0388939 -0.0104827
\; -0.0379907 -0.0116839 \; -0.0370549 -0.012836 \; -0.0360896 -0.0139385
\; -0.0350981 -0.0149913 \; -0.0340832 -0.0159946 \; -0.0330478 -0.0169486
\; -0.0319947 -0.0178535 \; -0.0309264 -0.0187101 \; -0.0298454 -0.0195188
\; -0.0287538 -0.0202804 \; -0.027654 -0.0209957 \; -0.0265477 -0.0216657
\; -0.0254368 -0.0222912 \; -0.0243231 -0.0228732 \; -0.0232081 -0.0234127
\; -0.0220931 -0.0239108 \; -0.0209795 -0.0243685 \; -0.0198685 -0.0247867
\; -0.0187612 -0.0251666 \; -0.0176584 -0.0255091 \; -0.0165612 -0.0258151
\; -0.0154702 -0.0260857 \; -0.0143863 -0.0263217 \; -0.01331 -0.0265241
\; -0.012242 -0.0266938 \; -0.0111829 -0.0268315 \; -0.0101331 -0.0269381
\; -0.00909302 -0.0270144 \; -0.00806316 -0.0270611 \; -0.00704387
-0.027079 \; -0.00603553 -0.0270688 \; -0.00503845 -0.0270311 \; -0.00405295
-0.0269666 \; -0.0030793 -0.0268761 \; -0.00211778 -0.02676 \; -0.00116863
-0.0266191 \; -0.000232057 -0.0264539 \; 0.000691706 -0.0262651 \;
0.00160248 -0.0260531 \; 0.00250011 -0.0258186 \; 0.00338442 -0.0255621
\; 0.00425529 -0.0252842 \; 0.00511259 -0.0249853 \; 0.00595622 -0.024666
\; 0.0067861 -0.0243267 \; 0.00760214 -0.023968 \; 0.00840431 -0.0235901
\; 0.00919252 -0.0231936 \; 0.00996676 -0.0227789 \; 0.010727 -0.0223462
\; 0.0114732 -0.021896 \; 0.0122053 -0.0214286 \; 0.0129234 -0.0209442
\; 0.0136273 -0.020443 \; 0.0143171 -0.0199254 \; 0.0149926 -0.0193914
\; 0.015654 -0.0188413 \; 0.016301 -0.0182752 \; 0.0169336 -0.0176932
\; 0.0175517 -0.0170954 \; 0.0181551 -0.0164819 \; 0.0187437 -0.0158527
\; 0.0193174 -0.0152079 \; 0.0198758 -0.0145474 \; 0.0204189 -0.0138713
\; 0.0209462 -0.0131796 \; 0.0214576 -0.0124722 \; 0.0219526 -0.0117493
\; 0.022431 -0.0110107 \; 0.0228923 -0.0102565 \; 0.0233363 -0.00948664
\; 0.0237623 -0.00870119 \; 0.0241701 -0.00790015 \; 0.0245591 -0.00708357
\; 0.0249287 -0.00625147 \; 0.0252786 -0.00540395 \; 0.0256082 -0.00454105
\; 0.0259168 -0.00366288 \; 0.0262041 -0.00276954 \; 0.0264693 -0.00186117
\; 0.0267119 -0.00093789 \; 0.0269312 1.20285e-07 \; \;;
#X coords -1 1 1 -1 201 201 2 100 100;
#X restore 64 496 pd \$0-scope;
#X obj 22 389 *~;
#X obj 22 766 dac~ 1 2 3 4 5 6 7 8, f 47;
#X obj 6 10 ylm.header ylm.2d.syn.directional;
#X obj 22 446 spam~ 7 ylm.2d.syn.directional~ 3, f 47;
#X obj 320 723 text define -k \$0-scope-attrs;
#A set gain 200 \; interval 100 \;;
#X obj 320 744 text define -k \$0-pro-attrs;
#A set angles 45 90 135 180 225 270 315 360 \;;
#X obj 22 705 spam~ 7 ylm.2d.projector~ 3 8 \$0-pro-attrs, f 47;
#X obj 9 790 ylm.footer;
#X text 46 159 e^imθ = cos(|m|θ) if m >= 0, f 60;
#X text 46 199 dc(r) = g = 1/r if r >= 1, f 60;
#X text 46 213 dc(r) = r^l(1+(1-r)*(N-l)) if r < 1, f 60;
#X text 46 170 e^imθ = sin(|m|θ) if m < 0, f 42;
#X text 4 131 Y[l \, m] = e^imθ * dc(r), f 67;
#X text 4 145 where e^imθ is the imaginrary exponential defined by
, f 67;
#X text 4 185 and dc(r) the distance compensation defined by, f 67
;
#X text 4 245 The abstraction expects the order of decomposition as
argument. For an order of decomposition N \, there are 2N+1 harmonics.
The left inlet expects the signal to synthesize and the right inlet
expects the coordinates as a list., f 67;
#N canvas 0 22 450 300 init 0;
#X obj 23 32 loadbang;
#X msg 23 54 80;
#X obj 23 76 s \$0-gain;
#X obj 93 32 loadbang;
#X obj 93 76 s \$0-pos;
#X msg 93 54 1 0;
#X obj 163 32 loadbang;
#X msg 163 54 1;
#X obj 163 76 s \$0-traj;
#X connect 0 0 1 0;
#X connect 1 0 2 0;
#X connect 3 0 5 0;
#X connect 5 0 4 0;
#X connect 6 0 7 0;
#X connect 7 0 8 0;
#X restore 320 682 pd init;
#N canvas 217 367 450 300 pos 0;
#X obj 145 100 nbx 4 14 -1e+37 1e+37 0 0 empty empty empty 0 -8 0 10
-262144 -1 -1 3.97935 256;
#X obj 100 100 nbx 4 14 0 1e+37 0 0 empty empty empty 0 -8 0 10 -262144
-1 -1 0.24 256;
#X obj 119 77 t b f;
#X obj 101 150 pack 1 f;
#X obj 101 18 r \$0-pos;
#X obj 101 40 unpack f f;
#X obj 101 172 outlet;
#X obj 164 19 inlet;
#X connect 0 0 2 0;
#X connect 1 0 3 0;
#X connect 2 0 1 0;
#X connect 2 1 3 1;
#X connect 3 0 6 0;
#X connect 4 0 5 0;
#X connect 5 0 1 0;
#X connect 5 1 0 0;
#X connect 7 0 5 0;
#X coords 0 -1 1 1 90 14 2 100 100;
#X restore 218 422 pd pos;
#X obj 218 373 tgl 15 0 empty \$0-traj empty 17 7 0 10 -262144 -1 -1
1 1;
#N canvas 0 22 450 406 trajectory 0;
#X obj 158 109 + 1;
#X obj 128 173 / 180;
#X obj 128 195 * 6.28318;
#X obj 128 153 f -1;
#X obj 128 131 sel 179 0;
#X obj 128 109 f 0;
#X obj 83 106 + 1;
#X obj 53 150 f -1;
#X obj 93 150 f 1;
#X obj 53 106 f 0;
#X obj 53 128 sel 499 0;
#X obj 53 235 t b f;
#X obj 53 257 f 1;
#X obj 53 279 -, f 5;
#X obj 53 79 t b b, f 13;
#X obj 53 55 metro 20;
#X obj 53 301 pack f f, f 13;
#X obj 53 33 inlet;
#X obj 53 323 outlet;
#X obj 159 153 f 1;
#X obj 53 170 max 300;
#X obj 53 192 - 300;
#X obj 53 214 / 200;
#X connect 0 0 5 1;
#X connect 1 0 2 0;
#X connect 2 0 16 1;
#X connect 3 0 0 1;
#X connect 4 0 3 0;
#X connect 4 1 19 0;
#X connect 5 0 0 0;
#X connect 5 0 1 0;
#X connect 5 0 4 0;
#X connect 6 0 9 1;
#X connect 7 0 6 1;
#X connect 8 0 6 1;
#X connect 9 0 6 0;
#X connect 9 0 10 0;
#X connect 9 0 20 0;
#X connect 10 0 7 0;
#X connect 10 1 8 0;
#X connect 11 0 12 0;
#X connect 11 1 13 1;
#X connect 12 0 13 0;
#X connect 13 0 16 0;
#X connect 14 0 9 0;
#X connect 14 1 5 0;
#X connect 15 0 14 0;
#X connect 16 0 18 0;
#X connect 17 0 15 0;
#X connect 19 0 0 1;
#X connect 20 0 21 0;
#X connect 21 0 22 0;
#X connect 22 0 11 0;
#X restore 218 396 pd trajectory;
#X text 4 225 with l the degree and m the azimuthal order of the harmonics.
, f 67;
#X text 4 31 The abstraction synthesizes the signals of the circular
harmonics for a source sound depending on coordinates. By default the
coordinates are polar (radius r and azimuth θ). Using the car message
\, the coordinates can be given in cartesian (abscissa and ordinate).
The abstraction follows the mathematical representation of the space
and uses this equation to calculate the gain of the signals of the
harmonics Y., f 67;
#N canvas 0 22 450 300 \$0-meter 0;
#X scalar 1067-t-meter 0 \; 0.494974 0.494974 12 24 36 48 555 90 990
950 900 1 1 1 0 \; 0 0.7 12 24 36 48 555 90 990 950 900 1 1 1 0 \;
-0.494974 0.494974 12 24 36 48 555 90 990 950 900 1 1 1 0 \; -0.7 0
12 24 36 48 555 90 990 950 900 1 1 1 0 \; -0.494974 -0.494974 12 24
36 48 555 90 990 950 900 1 1 1 0 \; 0 -0.7 12 24 36 48 555 90 990 950
900 1 1 0 0 \; 0.494974 -0.494974 12 24 36 48 555 90 990 950 900 1
1 0 0 \; 0.7 0 12 24 36 48 555 90 990 950 900 1 1 0 0 \; \;;
#X coords -1 1 1 -1 180 180 2 100 100;
#X restore 321 484 pd \$0-meter;
#X obj 320 764 text define -k \$0-meter-attrs;
#A set positions 0.494974 0.494974 0 0.7 -0.494974 0.494974 -0.7 0
-0.494974 -0.494974 0 -0.7 0.494974 -0.494974 0.7 0 \; gain 135 \;
sizes 12 48 \;;
#X obj 22 727 spam~ 8 ../zpt/zpt.2d.meter~ 8 \$0-meter \$0-meter-attrs
, f 47;
#X obj 22 473 spam~ 7 ylm.2d.scope~ 3 \$0-scope \$0-scope-attrs;
#X connect 0 0 8 1;
#X connect 1 0 5 0;
#X connect 2 0 11 0;
#X connect 3 0 8 0;
#X connect 5 0 2 1;
#X connect 6 0 0 0;
#X connect 6 0 0 1;
#X connect 8 0 2 0;
#X connect 11 0 14 0;
#X connect 11 0 33 0;
#X connect 11 1 14 1;
#X connect 11 1 33 1;
#X connect 11 2 14 2;
#X connect 11 2 33 2;
#X connect 11 3 14 3;
#X connect 11 3 33 3;
#X connect 11 4 14 4;
#X connect 11 4 33 4;
#X connect 11 5 14 5;
#X connect 11 5 33 5;
#X connect 11 6 14 6;
#X connect 11 6 33 6;
#X connect 14 0 9 0;
#X connect 14 0 32 0;
#X connect 14 1 9 1;
#X connect 14 1 32 1;
#X connect 14 2 9 2;
#X connect 14 2 32 2;
#X connect 14 3 9 3;
#X connect 14 3 32 3;
#X connect 14 4 9 4;
#X connect 14 4 32 4;
#X connect 14 5 9 5;
#X connect 14 5 32 5;
#X connect 14 6 9 6;
#X connect 14 6 32 6;
#X connect 14 7 9 7;
#X connect 14 7 32 7;
#X connect 25 0 11 1;
#X connect 26 0 27 0;
#X connect 27 0 25 0;
