#N canvas 208 49 410 672 10;
#X obj 140 470 spam.in~ 0;
#X obj 72 635 spam.out~;
#X obj 117 27 spam.in 0;
#X obj 319 46 spam.in 0;
#X obj 319 68 route diffusion;
#X obj 319 90 clip 0 100;
#X obj 334 135 loadbang;
#X obj 334 157 t b b, f 6;
#X obj 334 246 -, f 6;
#X obj 334 179 f \$2;
#X obj 334 268 + 1;
#X obj 367 179 f \$1;
#X obj 367 222 unpack;
#N canvas 0 22 450 300 itolm 0;
#X obj 26 57 + 1;
#X obj 26 79 / 2;
#X obj 26 101 int;
#X obj 26 35 t f f, f 10;
#X obj 86 57 mod 2;
#X obj 26 123 t f f, f 8;
#X obj 86 79 sel 0 1, f 9;
#X obj 86 101 f 1;
#X obj 111 101 f -1;
#X obj 71 147 *;
#X obj 26 11 inlet;
#X obj 26 222 outlet;
#X obj 26 177 pack f f;
#X connect 0 0 1 0;
#X connect 1 0 2 0;
#X connect 2 0 5 0;
#X connect 3 0 0 0;
#X connect 3 1 4 0;
#X connect 4 0 6 0;
#X connect 5 0 12 0;
#X connect 5 1 9 0;
#X connect 6 0 7 0;
#X connect 6 1 8 0;
#X connect 7 0 9 1;
#X connect 8 0 9 1;
#X connect 9 0 12 1;
#X connect 10 0 3 0;
#X connect 12 0 11 0;
#X restore 367 201 pd itolm;
#X obj 319 294 pow;
#X obj 319 342 s \$0-diff;
#X obj 319 112 / 100;
#X obj 72 7 spam.in~ 0;
#X obj 140 603 *~, f 14;
#X obj 230 409 spam.in 0;
#X obj 221 367 loadbang;
#N canvas 571 248 310 376 e^imθ 0;
#X obj 42 92 f \$1;
#X obj 42 69 loadbang;
#X obj 21 219 cos~;
#X obj 21 198 +~ 0, f 9;
#X obj 21 241 outlet~;
#X obj 21 163 *~ 1;
#X obj 42 135 unpack;
#X obj 74 155 < 0;
#X obj 74 177 * 0.25;
#X obj 21 49 line~;
#X obj 21 27 pack f 20;
#X obj 21 7 inlet;
#N canvas 0 22 450 300 itolm 0;
#X obj 26 57 + 1;
#X obj 26 79 / 2;
#X obj 26 101 int;
#X obj 26 35 t f f, f 10;
#X obj 86 57 mod 2;
#X obj 26 123 t f f, f 8;
#X obj 86 79 sel 0 1, f 9;
#X obj 86 101 f 1;
#X obj 111 101 f -1;
#X obj 71 147 *;
#X obj 26 11 inlet;
#X obj 26 222 outlet;
#X obj 26 177 pack f f;
#X connect 0 0 1 0;
#X connect 1 0 2 0;
#X connect 2 0 5 0;
#X connect 3 0 0 0;
#X connect 3 1 4 0;
#X connect 4 0 6 0;
#X connect 5 0 12 0;
#X connect 5 1 9 0;
#X connect 6 0 7 0;
#X connect 6 1 8 0;
#X connect 7 0 9 1;
#X connect 8 0 9 1;
#X connect 9 0 12 1;
#X connect 10 0 3 0;
#X connect 12 0 11 0;
#X restore 42 113 pd itolm;
#X connect 0 0 12 0;
#X connect 1 0 0 0;
#X connect 2 0 4 0;
#X connect 3 0 2 0;
#X connect 5 0 3 0;
#X connect 6 0 5 1;
#X connect 6 1 7 0;
#X connect 7 0 8 0;
#X connect 8 0 3 1;
#X connect 9 0 5 0;
#X connect 10 0 9 0;
#X connect 11 0 10 0;
#X connect 12 0 6 0;
#X restore 278 559 pd e^imθ;
#X obj 221 435 route list pol car;
#X obj 221 507 unpack f f;
#N canvas 0 23 175 333 pi_wrap 0;
#X obj 92 164 > 0;
#X obj 26 32 / 6.28319;
#X obj 26 54 wrap;
#X obj 26 76 nbx 5 14 -1e+37 1e+37 0 0 empty empty empty 0 -8 0 10
-262144 -1 -1 0.783332 256;
#X obj 53 164 abs;
#X obj 26 253 +, f 5;
#X obj 53 231 *, f 7;
#X obj 26 98 t f f;
#X obj 26 275 t f f;
#X obj 53 122 - 0;
#X obj 92 186 * -2;
#X obj 92 208 + 1;
#X obj 53 144 t f f, f 7;
#X obj 53 206 int;
#X obj 53 186 + 0.5;
#X obj 26 10 inlet;
#X obj 26 297 outlet;
#X connect 0 0 10 0;
#X connect 1 0 2 0;
#X connect 2 0 3 0;
#X connect 3 0 7 0;
#X connect 4 0 14 0;
#X connect 5 0 8 0;
#X connect 6 0 5 1;
#X connect 7 0 5 0;
#X connect 7 1 9 0;
#X connect 8 0 16 0;
#X connect 8 1 9 1;
#X connect 9 0 12 0;
#X connect 10 0 11 0;
#X connect 11 0 6 1;
#X connect 12 0 4 0;
#X connect 12 1 0 0;
#X connect 13 0 6 0;
#X connect 14 0 13 0;
#X connect 15 0 1 0;
#X restore 278 533 pd pi_wrap;
#X msg 221 388 list 1 0;
#N canvas 988 94 344 422 dc 0;
#X obj 120 115 f \$1;
#X obj 93 52 loadbang;
#X obj 120 158 unpack;
#X obj 93 74 t b b;
#X obj 93 186 -, f 5;
#X obj 23 220 pow;
#X obj 23 187 t f b f, f 9;
#X obj 48 220 f 1;
#X obj 48 242 -, f 5;
#X obj 48 264 *, f 8;
#X obj 48 286 + 1;
#X obj 23 312 *, f 4;
#X obj 23 61 moses 1;
#X obj 52 86 t b f;
#X obj 52 108 f 1;
#X obj 52 130 /, f 5;
#X obj 23 12 inlet;
#X obj 23 346 pack f 20;
#X obj 23 368 line~;
#X obj 23 390 outlet~;
#X text 103 300 if r > 1 -> g = 1/r;
#X text 103 320 if r <= 1 -> r^l(1+(1-x)*(N-l));
#X obj 23 39 max 1e-06;
#N canvas 0 22 450 300 itolm 0;
#X obj 26 57 + 1;
#X obj 26 79 / 2;
#X obj 26 101 int;
#X obj 26 35 t f f, f 10;
#X obj 86 57 mod 2;
#X obj 26 123 t f f, f 8;
#X obj 86 79 sel 0 1, f 9;
#X obj 86 101 f 1;
#X obj 111 101 f -1;
#X obj 71 147 *;
#X obj 26 11 inlet;
#X obj 26 222 outlet;
#X obj 26 177 pack f f;
#X connect 0 0 1 0;
#X connect 1 0 2 0;
#X connect 2 0 5 0;
#X connect 3 0 0 0;
#X connect 3 1 4 0;
#X connect 4 0 6 0;
#X connect 5 0 12 0;
#X connect 5 1 9 0;
#X connect 6 0 7 0;
#X connect 6 1 8 0;
#X connect 7 0 9 1;
#X connect 8 0 9 1;
#X connect 9 0 12 1;
#X connect 10 0 3 0;
#X connect 12 0 11 0;
#X restore 120 137 pd itolm;
#X obj 93 96 f \$2;
#X connect 0 0 23 0;
#X connect 1 0 3 0;
#X connect 2 0 4 1;
#X connect 2 0 5 1;
#X connect 3 0 24 0;
#X connect 3 1 0 0;
#X connect 4 0 9 1;
#X connect 5 0 11 0;
#X connect 6 0 5 0;
#X connect 6 1 7 0;
#X connect 6 2 8 1;
#X connect 7 0 8 0;
#X connect 8 0 9 0;
#X connect 9 0 10 0;
#X connect 10 0 11 1;
#X connect 11 0 17 0;
#X connect 12 0 6 0;
#X connect 12 1 13 0;
#X connect 13 0 14 0;
#X connect 13 1 15 1;
#X connect 14 0 15 0;
#X connect 15 0 17 0;
#X connect 16 0 22 0;
#X connect 17 0 18 0;
#X connect 18 0 19 0;
#X connect 22 0 12 0;
#X connect 23 0 2 0;
#X connect 24 0 4 0;
#X restore 221 559 pd dc;
#N canvas 0 22 450 300 cartopol 0;
#X obj 26 11 inlet;
#X obj 26 202 outlet;
#X obj 26 77 t f f;
#X obj 83 77 t f f;
#X obj 26 99 *, f 5;
#X obj 83 99 *, f 5;
#X obj 26 121 +, f 10;
#X obj 26 143 sqrt;
#X obj 125 97 atan2, f 10;
#X obj 26 33 t l l, f 17;
#X obj 125 55 unpack f f;
#X obj 26 55 unpack f f;
#X obj 125 77 swap, f 10;
#X obj 26 165 pack f f, f 17;
#X connect 0 0 9 0;
#X connect 2 0 4 0;
#X connect 2 1 4 1;
#X connect 3 0 5 0;
#X connect 3 1 5 1;
#X connect 4 0 6 0;
#X connect 5 0 6 1;
#X connect 6 0 7 0;
#X connect 7 0 13 0;
#X connect 8 0 13 1;
#X connect 9 0 11 0;
#X connect 9 1 10 0;
#X connect 10 0 12 0;
#X connect 10 1 12 1;
#X connect 11 0 2 0;
#X connect 11 1 3 0;
#X connect 12 0 8 0;
#X connect 12 1 8 1;
#X connect 13 0 1 0;
#X restore 261 461 pd cartopol;
#X obj 221 581 *~, f 10;
#X obj 72 573 *~;
#X obj 87 474 line~;
#X obj 155 498 sig~ 1;
#X obj 155 520 -~;
#X obj 140 573 *~;
#X obj 87 429 r \$0-diff;
#X obj 87 451 pack f 20;
#X obj 117 231 phasor~ 0.05;
#X obj 117 253 *~ 2;
#X obj 117 275 -~ 1;
#X obj 173 124 t b f;
#X obj 173 104 r \$0-diff;
#X obj 162 150 *, f 5;
#X obj 117 296 +~ 0, f 6;
#N canvas 0 22 450 300 dephaser 0;
#X obj 297 81 loadbang;
#X obj 297 123 f \$1;
#X obj 297 103 t b b, f 6;
#X obj 330 123 f \$2;
#X obj 330 145 * 2;
#X obj 330 167 + 1;
#X obj 297 187 /, f 6;
#X obj 297 209 outlet;
#X connect 0 0 2 0;
#X connect 1 0 6 0;
#X connect 2 0 1 0;
#X connect 2 1 3 0;
#X connect 3 0 4 0;
#X connect 4 0 5 0;
#X connect 5 0 6 1;
#X connect 6 0 7 0;
#X restore 150 274 pd dephaser;
#X obj 162 78 clip 0 1;
#N canvas 766 97 562 559 phaser~ 0;
#N canvas 0 22 622 635 apset~ 0;
#N canvas 0 22 450 300 ap~ 0;
#X obj 127 160 rpole~;
#X obj 127 135 rzero_rev~;
#X obj 127 92 inlet~;
#X obj 127 185 outlet~;
#X obj 204 92 inlet~;
#X connect 0 0 3 0;
#X connect 1 0 0 0;
#X connect 2 0 1 0;
#X connect 4 0 1 1;
#X connect 4 0 0 1;
#X restore 155 36 pd ap~;
#N canvas 0 22 450 300 ap~ 0;
#X obj 127 160 rpole~;
#X obj 127 135 rzero_rev~;
#X obj 127 92 inlet~;
#X obj 127 185 outlet~;
#X obj 204 92 inlet~;
#X connect 0 0 3 0;
#X connect 1 0 0 0;
#X connect 2 0 1 0;
#X connect 4 0 1 1;
#X connect 4 0 0 1;
#X restore 155 66 pd ap~;
#N canvas 0 22 450 300 ap~ 0;
#X obj 127 160 rpole~;
#X obj 127 135 rzero_rev~;
#X obj 127 92 inlet~;
#X obj 127 185 outlet~;
#X obj 204 92 inlet~;
#X connect 0 0 3 0;
#X connect 1 0 0 0;
#X connect 2 0 1 0;
#X connect 4 0 1 1;
#X connect 4 0 0 1;
#X restore 155 96 pd ap~;
#N canvas 0 22 450 300 ap~ 0;
#X obj 127 160 rpole~;
#X obj 127 135 rzero_rev~;
#X obj 127 92 inlet~;
#X obj 127 185 outlet~;
#X obj 204 92 inlet~;
#X connect 0 0 3 0;
#X connect 1 0 0 0;
#X connect 2 0 1 0;
#X connect 4 0 1 1;
#X connect 4 0 0 1;
#X restore 155 126 pd ap~;
#N canvas 0 22 450 300 ap~ 0;
#X obj 127 160 rpole~;
#X obj 127 135 rzero_rev~;
#X obj 127 92 inlet~;
#X obj 127 185 outlet~;
#X obj 204 92 inlet~;
#X connect 0 0 3 0;
#X connect 1 0 0 0;
#X connect 2 0 1 0;
#X connect 4 0 1 1;
#X connect 4 0 0 1;
#X restore 155 156 pd ap~;
#N canvas 0 22 450 300 ap~ 0;
#X obj 127 160 rpole~;
#X obj 127 135 rzero_rev~;
#X obj 127 92 inlet~;
#X obj 127 185 outlet~;
#X obj 204 92 inlet~;
#X connect 0 0 3 0;
#X connect 1 0 0 0;
#X connect 2 0 1 0;
#X connect 4 0 1 1;
#X connect 4 0 0 1;
#X restore 155 186 pd ap~;
#N canvas 0 22 450 300 ap~ 0;
#X obj 127 160 rpole~;
#X obj 127 135 rzero_rev~;
#X obj 127 92 inlet~;
#X obj 127 185 outlet~;
#X obj 204 92 inlet~;
#X connect 0 0 3 0;
#X connect 1 0 0 0;
#X connect 2 0 1 0;
#X connect 4 0 1 1;
#X connect 4 0 0 1;
#X restore 155 216 pd ap~;
#N canvas 0 22 450 300 ap~ 0;
#X obj 127 160 rpole~;
#X obj 127 135 rzero_rev~;
#X obj 127 92 inlet~;
#X obj 127 185 outlet~;
#X obj 204 92 inlet~;
#X connect 0 0 3 0;
#X connect 1 0 0 0;
#X connect 2 0 1 0;
#X connect 4 0 1 1;
#X connect 4 0 0 1;
#X restore 155 246 pd ap~;
#N canvas 0 22 450 300 ap~ 0;
#X obj 127 160 rpole~;
#X obj 127 135 rzero_rev~;
#X obj 127 92 inlet~;
#X obj 127 185 outlet~;
#X obj 204 92 inlet~;
#X connect 0 0 3 0;
#X connect 1 0 0 0;
#X connect 2 0 1 0;
#X connect 4 0 1 1;
#X connect 4 0 0 1;
#X restore 155 276 pd ap~;
#N canvas 0 22 450 300 ap~ 0;
#X obj 127 160 rpole~;
#X obj 127 135 rzero_rev~;
#X obj 127 92 inlet~;
#X obj 127 185 outlet~;
#X obj 204 92 inlet~;
#X connect 0 0 3 0;
#X connect 1 0 0 0;
#X connect 2 0 1 0;
#X connect 4 0 1 1;
#X connect 4 0 0 1;
#X restore 155 306 pd ap~;
#N canvas 0 22 450 300 ap~ 0;
#X obj 127 160 rpole~;
#X obj 127 135 rzero_rev~;
#X obj 127 92 inlet~;
#X obj 127 185 outlet~;
#X obj 204 92 inlet~;
#X connect 0 0 3 0;
#X connect 1 0 0 0;
#X connect 2 0 1 0;
#X connect 4 0 1 1;
#X connect 4 0 0 1;
#X restore 155 336 pd ap~;
#N canvas 0 22 450 300 ap~ 0;
#X obj 127 160 rpole~;
#X obj 127 135 rzero_rev~;
#X obj 127 92 inlet~;
#X obj 127 185 outlet~;
#X obj 204 92 inlet~;
#X connect 0 0 3 0;
#X connect 1 0 0 0;
#X connect 2 0 1 0;
#X connect 4 0 1 1;
#X connect 4 0 0 1;
#X restore 155 366 pd ap~;
#N canvas 0 22 450 300 ap~ 0;
#X obj 127 160 rpole~;
#X obj 127 135 rzero_rev~;
#X obj 127 92 inlet~;
#X obj 127 185 outlet~;
#X obj 204 92 inlet~;
#X connect 0 0 3 0;
#X connect 1 0 0 0;
#X connect 2 0 1 0;
#X connect 4 0 1 1;
#X connect 4 0 0 1;
#X restore 155 396 pd ap~;
#N canvas 0 22 450 300 ap~ 0;
#X obj 127 160 rpole~;
#X obj 127 135 rzero_rev~;
#X obj 127 92 inlet~;
#X obj 127 185 outlet~;
#X obj 204 92 inlet~;
#X connect 0 0 3 0;
#X connect 1 0 0 0;
#X connect 2 0 1 0;
#X connect 4 0 1 1;
#X connect 4 0 0 1;
#X restore 155 426 pd ap~;
#N canvas 0 22 450 300 ap~ 0;
#X obj 127 160 rpole~;
#X obj 127 135 rzero_rev~;
#X obj 127 92 inlet~;
#X obj 127 185 outlet~;
#X obj 204 92 inlet~;
#X connect 0 0 3 0;
#X connect 1 0 0 0;
#X connect 2 0 1 0;
#X connect 4 0 1 1;
#X connect 4 0 0 1;
#X restore 155 456 pd ap~;
#N canvas 0 22 450 300 ap~ 0;
#X obj 127 160 rpole~;
#X obj 127 135 rzero_rev~;
#X obj 127 92 inlet~;
#X obj 127 185 outlet~;
#X obj 204 92 inlet~;
#X connect 0 0 3 0;
#X connect 1 0 0 0;
#X connect 2 0 1 0;
#X connect 4 0 1 1;
#X connect 4 0 0 1;
#X restore 155 486 pd ap~;
#X obj 155 6 inlet~;
#X obj 225 6 inlet~;
#X obj 155 511 outlet~;
#X connect 0 0 1 0;
#X connect 1 0 2 0;
#X connect 2 0 3 0;
#X connect 3 0 4 0;
#X connect 4 0 5 0;
#X connect 5 0 6 0;
#X connect 6 0 7 0;
#X connect 7 0 8 0;
#X connect 8 0 9 0;
#X connect 9 0 10 0;
#X connect 10 0 11 0;
#X connect 11 0 12 0;
#X connect 12 0 13 0;
#X connect 13 0 14 0;
#X connect 14 0 15 0;
#X connect 15 0 18 0;
#X connect 16 0 0 0;
#X connect 17 0 0 1;
#X connect 17 0 1 1;
#X connect 17 0 2 1;
#X connect 17 0 3 1;
#X connect 17 0 4 1;
#X connect 17 0 5 1;
#X connect 17 0 6 1;
#X connect 17 0 7 1;
#X connect 17 0 8 1;
#X connect 17 0 9 1;
#X connect 17 0 10 1;
#X connect 17 0 11 1;
#X connect 17 0 12 1;
#X connect 17 0 13 1;
#X connect 17 0 14 1;
#X connect 17 0 15 1;
#X restore 42 157 pd apset~;
#X obj 93 96 +~ 0.6;
#X obj 93 66 *~ 0.3;
#X obj 93 131 clip~ 0 1;
#X obj 42 179 outlet~;
#X obj 42 21 inlet~;
#X obj 93 21 inlet~;
#X obj 143 21 inlet;
#X obj 193 21 inlet;
#X connect 0 0 4 0;
#X connect 1 0 3 0;
#X connect 2 0 1 0;
#X connect 3 0 0 1;
#X connect 5 0 0 0;
#X connect 6 0 2 0;
#X connect 7 0 2 1;
#X connect 8 0 1 1;
#X restore 72 333 pd phaser~ -----------;
#X obj 207 231 clip 0 1;
#X obj 117 49 route rate depth shift;
#X obj 18 189 loadbang;
#X obj 18 211 f \$0;
#X obj 18 233 != 0;
#X obj 72 296 *~ 1;
#X obj 32 296 *~ 0;
#X obj 18 263 == 0;
#X connect 0 0 33 0;
#X connect 2 0 47 0;
#X connect 3 0 4 0;
#X connect 4 0 5 0;
#X connect 5 0 16 0;
#X connect 6 0 7 0;
#X connect 7 0 9 0;
#X connect 7 1 11 0;
#X connect 8 0 10 0;
#X connect 9 0 8 0;
#X connect 10 0 14 1;
#X connect 11 0 13 0;
#X connect 12 0 8 1;
#X connect 13 0 12 0;
#X connect 14 0 15 0;
#X connect 16 0 14 0;
#X connect 17 0 51 0;
#X connect 17 0 52 0;
#X connect 18 0 1 0;
#X connect 19 0 22 0;
#X connect 20 0 25 0;
#X connect 21 0 28 1;
#X connect 22 0 23 0;
#X connect 22 1 23 0;
#X connect 22 2 27 0;
#X connect 23 0 26 0;
#X connect 23 1 24 0;
#X connect 24 0 21 0;
#X connect 25 0 22 0;
#X connect 26 0 28 0;
#X connect 27 0 23 0;
#X connect 28 0 18 1;
#X connect 29 0 1 0;
#X connect 30 0 32 1;
#X connect 30 0 29 1;
#X connect 31 0 32 0;
#X connect 32 0 33 1;
#X connect 33 0 18 0;
#X connect 34 0 35 0;
#X connect 35 0 30 0;
#X connect 36 0 37 0;
#X connect 37 0 38 0;
#X connect 38 0 42 0;
#X connect 39 0 41 0;
#X connect 39 1 41 1;
#X connect 40 0 39 0;
#X connect 41 0 45 2;
#X connect 42 0 45 1;
#X connect 43 0 42 1;
#X connect 44 0 41 0;
#X connect 45 0 29 0;
#X connect 46 0 45 3;
#X connect 47 0 36 0;
#X connect 47 1 44 0;
#X connect 47 2 46 0;
#X connect 48 0 49 0;
#X connect 49 0 50 0;
#X connect 49 0 53 0;
#X connect 50 0 51 1;
#X connect 51 0 45 0;
#X connect 52 0 29 0;
#X connect 53 0 52 1;
