#N struct 1337-t-scope float x array bufr 1337-t-scope-value-r array
bufg 1337-t-scope-value-g;
#N struct 1337-t-scope-value-r float x float y;
#N struct 1337-t-scope-value-g float x float y;
#N struct 1351-t-meter float x array ls 1351-t-meter-value;
#N struct 1351-t-meter-value float x1 float y1 float s1 float s2 float
s3 float s4 float c0 float c1 float c2 float c3 float c4 float v1 float
v2 float v3 float v4;
#N canvas 64 23 528 825 10;
#X declare -stdpath spam;
#X obj 37 382 *~;
#X obj 49 405 nbx 5 14 0 100 0 0 empty \$0-gain empty 0 -8 0 10 -262144
-1 -1 80 256;
#X obj 22 449 *~, f 5;
#X obj 22 340 noise~;
#X obj 320 709 declare -stdpath spam;
#N canvas 0 22 450 300 gain 0;
#X obj 10 45 dbtorms;
#X obj 10 67 pack f 20;
#X obj 10 89 line~;
#X obj 10 25 inlet;
#X obj 10 111 outlet~;
#X connect 0 0 1 0;
#X connect 1 0 2 0;
#X connect 2 0 4 0;
#X connect 3 0 0 0;
#X restore 49 425 pd gain;
#X obj 37 360 osc~ 5;
#N canvas 0 22 450 300 \$0-scope 0;
#X scalar 1337-t-scope 0 \; 0 0 \; 0 0 \; 0 0 \; 0 0 \; 0 0 \; 0 0
\; 0 0 \; 0 0 \; 0 0 \; 0 0 \; 0 0 \; 0 0 \; 0 0 \; 0 0 \; 0 0 \; 0
0 \; 0 0 \; 0 0 \; 0 0 \; 0 0 \; 0 0 \; 0 0 \; 0 0 \; 0 0 \; 0 0 \;
0 0 \; 0 0 \; 0 0 \; 0 0 \; 0 0 \; 0 0 \; 0 0 \; 0 0 \; 0 0 \; 0 0
\; 0 0 \; 0 0 \; 0 0 \; 0 0 \; 0 0 \; 0 0 \; 0 0 \; 0 0 \; 0 0 \; 0
0 \; -0 0 \; -0 0 \; -0 0 \; -0 0 \; -0 0 \; -0 0 \; -0 0 \; -0 0 \;
-0 0 \; -0 0 \; -0 0 \; -0 0 \; -0 0 \; -0 0 \; -0 0 \; -0 0 \; -0
0 \; -0 0 \; -0 0 \; -0 0 \; -0 0 \; -0 0 \; -0 0 \; -0 0 \; -0 0 \;
-0 0 \; -0 0 \; -0 0 \; -0 0 \; -0 0 \; -0 0 \; -0 0 \; -0 0 \; -0
0 \; -0 0 \; -0 0 \; -0 0 \; -0 0 \; -0 0 \; -0 0 \; -0 0 \; -0 0 \;
-0 0 \; -0 0 \; -0 0 \; -0 -0 \; -0 -0 \; -0 -0 \; -0 -0 \; -0 -0 \;
-0 -0 \; -0 -0 \; -0 -0 \; -0 -0 \; -0 -0 \; -0 -0 \; -0 -0 \; -0 -0
\; -0 -0 \; -0 -0 \; -0 -0 \; -0 -0 \; -0 -0 \; -0 -0 \; -0 -0 \; -0
-0 \; -0 -0 \; -0 -0 \; -0 -0 \; -0 -0 \; -0 -0 \; -0 -0 \; -0 -0 \;
-0 -0 \; -0 -0 \; -0 -0 \; -0 -0 \; -0 -0 \; -0 -0 \; -0 -0 \; -0 -0
\; -0 -0 \; -0 -0 \; -0 -0 \; -0 -0 \; -0 -0 \; -0 -0 \; -0 -0 \; -0
-0 \; -0 -0 \; 0 -0 \; 0 -0 \; 0 -0 \; 0 -0 \; 0 -0 \; 0 -0 \; 0 -0
\; 0 -0 \; 0 -0 \; 0 -0 \; 0 -0 \; 0 -0 \; 0 -0 \; 0 -0 \; 0 -0 \;
0 -0 \; 0 -0 \; 0 -0 \; 0 -0 \; 0 -0 \; 0 -0 \; 0 -0 \; 0 -0 \; 0 -0
\; 0 -0 \; 0 -0 \; 0 -0 \; 0 -0 \; 0 -0 \; 0 -0 \; 0 -0 \; 0 -0 \;
0 -0 \; 0 -0 \; 0 -0 \; 0 -0 \; 0 -0 \; 0 -0 \; 0 -0 \; 0 -0 \; 0 -0
\; 0 -0 \; 0 -0 \; 0 -0 \; 0 0 \; \; 0.415265 0 \; 0.427053 0.0149964
\; 0.438733 0.0308512 \; 0.45018 0.0475821 \; 0.461264 0.0651934 \;
0.471856 0.0836755 \; 0.481829 0.103005 \; 0.491059 0.123147 \; 0.499427
0.144052 \; 0.506823 0.165661 \; 0.513143 0.187903 \; 0.518296 0.2107
\; 0.5222 0.233964 \; 0.524787 0.257605 \; 0.526 0.281524 \; 0.525798
0.305624 \; 0.52415 0.329804 \; 0.52104 0.353965 \; 0.516466 0.378012
\; 0.510437 0.401852 \; 0.502973 0.425399 \; 0.494105 0.448572 \; 0.483873
0.4713 \; 0.472326 0.493519 \; 0.459517 0.515175 \; 0.445507 0.536223
\; 0.430359 0.556629 \; 0.414136 0.576367 \; 0.396904 0.595422 \; 0.378726
0.613786 \; 0.359663 0.631459 \; 0.339774 0.64845 \; 0.31911 0.664771
\; 0.297719 0.680441 \; 0.275641 0.695479 \; 0.252911 0.709908 \; 0.229555
0.723751 \; 0.205595 0.737026 \; 0.181043 0.749753 \; 0.155908 0.761943
\; 0.130193 0.773604 \; 0.103895 0.784736 \; 0.0770112 0.795329 \;
0.0495334 0.805368 \; 0.0214553 0.814824 \; -0.00722913 0.823663 \;
-0.0365229 0.831836 \; -0.066425 0.839287 \; -0.0969282 0.845951 \;
-0.128018 0.851753 \; -0.159672 0.856611 \; -0.191856 0.860435 \; -0.224525
0.863132 \; -0.257622 0.864604 \; -0.291079 0.864752 \; -0.32481 0.863476
\; -0.358721 0.860679 \; -0.392699 0.85627 \; -0.426622 0.85016 \;
-0.460354 0.842274 \; -0.493748 0.832543 \; -0.526646 0.820914 \; -0.558882
0.807344 \; -0.590283 0.79181 \; -0.620671 0.774303 \; -0.649865 0.754835
\; -0.677685 0.733435 \; -0.703951 0.710153 \; -0.728489 0.685058 \;
-0.751132 0.658237 \; -0.771722 0.6298 \; -0.790115 0.599873 \; -0.806178
0.568599 \; -0.819798 0.536139 \; -0.830879 0.502665 \; -0.839346 0.468363
\; -0.845147 0.433428 \; -0.848251 0.398064 \; -0.848653 0.362478 \;
-0.846371 0.326879 \; -0.841449 0.291477 \; -0.833954 0.256476 \; -0.823979
0.222075 \; -0.811637 0.188463 \; -0.797066 0.15582 \; -0.780421 0.124307
\; -0.761876 0.0940728 \; -0.741621 0.0652461 \; -0.719859 0.0379357
\; -0.696803 0.0122291 \; -0.672674 -0.0118088 \; -0.647698 -0.0341358
\; -0.6221 -0.0547339 \; -0.596107 -0.0736072 \; -0.569939 -0.0907837
\; -0.543808 -0.106312 \; -0.517919 -0.120264 \; -0.492459 -0.132727
\; -0.467602 -0.14381 \; -0.443507 -0.153632 \; -0.420308 -0.16233
\; -0.398122 -0.170049 \; -0.377043 -0.17694 \; -0.357142 -0.18316
\; -0.338467 -0.188869 \; -0.32104 -0.194225 \; -0.304865 -0.199381
\; -0.289921 -0.204484 \; -0.276164 -0.209672 \; -0.263535 -0.215072
\; -0.251954 -0.220796 \; -0.241326 -0.22694 \; -0.231542 -0.233584
\; -0.222483 -0.240788 \; -0.214022 -0.248594 \; -0.206024 -0.257022
\; -0.198353 -0.266074 \; -0.190872 -0.27573 \; -0.183447 -0.285952
\; -0.175948 -0.296681 \; -0.168254 -0.307845 \; -0.160253 -0.319352
\; -0.151845 -0.331098 \; -0.142943 -0.342967 \; -0.133475 -0.354833
\; -0.123385 -0.366564 \; -0.112636 -0.378023 \; -0.101206 -0.389069
\; -0.0890912 -0.399565 \; -0.0763053 -0.409375 \; -0.0628788 -0.418369
\; -0.0488573 -0.426426 \; -0.0343019 -0.433434 \; -0.0192859 -0.439294
\; -0.00389413 -0.443922 \; 0.0117785 -0.447248 \; 0.0276307 -0.449218
\; 0.0435557 -0.449798 \; 0.0594436 -0.44897 \; 0.0751846 -0.446735
\; 0.0906709 -0.44311 \; 0.105798 -0.438133 \; 0.120469 -0.431855 \;
0.134593 -0.424345 \; 0.148093 -0.415683 \; 0.160899 -0.405965 \; 0.172959
-0.395295 \; 0.184231 -0.383786 \; 0.19469 -0.371556 \; 0.204325 -0.358729
\; 0.213143 -0.345429 \; 0.221165 -0.331781 \; 0.228424 -0.317903 \;
0.234973 -0.303913 \; 0.240873 -0.289917 \; 0.246198 -0.276015 \; 0.251033
-0.262295 \; 0.255471 -0.248831 \; 0.259611 -0.235685 \; 0.263557 -0.222906
\; 0.267413 -0.210524 \; 0.271286 -0.198558 \; 0.275278 -0.187007 \;
0.27949 -0.175858 \; 0.284012 -0.165082 \; 0.28893 -0.154638 \; 0.294316
-0.144471 \; 0.300233 -0.134514 \; 0.306729 -0.124691 \; 0.31384 -0.114921
\; 0.321584 -0.105112 \; 0.329965 -0.0951718 \; 0.338971 -0.085005
\; 0.348573 -0.0745163 \; 0.358728 -0.0636125 \; 0.369376 -0.0522047
\; 0.380446 -0.0402098 \; 0.391851 -0.0275528 \; 0.403494 -0.0141672
\; 0.415267 1.85474e-06 \; \;;
#X coords -1 1 1 -1 181 181 2 100 100;
#X restore 73 526 pd \$0-scope;
#X obj 22 419 *~;
#X obj 22 772 dac~ 1 2 3 4 5 6 7 8, f 47;
#X obj 6 10 ylm.header ylm.2d.syn.delay~;
#X obj 320 729 text define -k \$0-scope-attrs;
#A set gain 150 \; interval 100 \;;
#X obj 320 750 text define -k \$0-pro-attrs;
#A set angles 45 90 135 180 225 270 315 360 \;;
#X obj 22 713 spam~ 7 ylm.2d.projector~ 3 8 \$0-pro-attrs, f 47;
#X obj 9 790 ylm.footer;
#N canvas 0 22 450 300 init 0;
#X obj 23 32 loadbang;
#X msg 23 54 80;
#X obj 23 76 s \$0-gain;
#X obj 93 32 loadbang;
#X obj 93 76 s \$0-pos;
#X msg 93 54 1 0;
#X obj 163 32 loadbang;
#X msg 163 54 1;
#X obj 163 76 s \$0-traj;
#X obj 23 102 loadbang;
#X obj 23 146 s \$0-delay;
#X msg 23 124 3000;
#X obj 163 102 loadbang;
#X msg 163 124 1;
#X obj 163 146 s \$0-diff;
#X connect 0 0 1 0;
#X connect 1 0 2 0;
#X connect 3 0 5 0;
#X connect 5 0 4 0;
#X connect 6 0 7 0;
#X connect 7 0 8 0;
#X connect 9 0 11 0;
#X connect 11 0 10 0;
#X connect 12 0 13 0;
#X connect 13 0 14 0;
#X restore 320 688 pd init;
#X obj 22 503 spam~ 7 ylm.2d.scope~ 3 \$0-scope \$0-scope-attrs;
#N canvas 217 367 450 300 pos 0;
#X obj 145 100 nbx 4 14 -1e+37 1e+37 0 0 empty empty empty 0 -8 0 10
-262144 -1 -1 4.43313 256;
#X obj 100 100 nbx 4 14 0 1e+37 0 0 empty empty empty 0 -8 0 10 -262144
-1 -1 0.315 256;
#X obj 119 77 t b f;
#X obj 101 150 pack 1 f;
#X obj 101 18 r \$0-pos;
#X obj 101 40 unpack f f;
#X obj 101 172 outlet;
#X obj 164 19 inlet;
#X connect 0 0 2 0;
#X connect 1 0 3 0;
#X connect 2 0 1 0;
#X connect 2 1 3 1;
#X connect 3 0 6 0;
#X connect 4 0 5 0;
#X connect 5 0 1 0;
#X connect 5 1 0 0;
#X connect 7 0 5 0;
#X coords 0 -1 1 1 90 14 2 100 100;
#X restore 301 429 pd pos;
#X obj 301 383 tgl 15 0 empty \$0-traj empty 17 7 0 10 -262144 -1 -1
1 1;
#N canvas 0 22 450 406 trajectory 0;
#X obj 158 109 + 1;
#X obj 128 173 / 180;
#X obj 128 195 * 6.28318;
#X obj 128 153 f -1;
#X obj 128 131 sel 179 0;
#X obj 128 109 f 0;
#X obj 83 106 + 1;
#X obj 53 150 f -1;
#X obj 93 150 f 1;
#X obj 53 106 f 0;
#X obj 53 128 sel 499 0;
#X obj 53 235 t b f;
#X obj 53 257 f 1;
#X obj 53 279 -, f 5;
#X obj 53 79 t b b, f 13;
#X obj 53 55 metro 20;
#X obj 53 341 pack f f, f 13;
#X obj 53 33 inlet;
#X obj 53 363 outlet;
#X obj 159 153 f 1;
#X obj 53 170 max 300;
#X obj 53 192 - 300;
#X obj 53 214 / 200;
#X connect 0 0 5 1;
#X connect 1 0 2 0;
#X connect 2 0 16 1;
#X connect 3 0 0 1;
#X connect 4 0 3 0;
#X connect 4 1 19 0;
#X connect 5 0 0 0;
#X connect 5 0 1 0;
#X connect 5 0 4 0;
#X connect 6 0 9 1;
#X connect 7 0 6 1;
#X connect 8 0 6 1;
#X connect 9 0 6 0;
#X connect 9 0 10 0;
#X connect 9 0 20 0;
#X connect 10 0 7 0;
#X connect 10 1 8 0;
#X connect 11 0 12 0;
#X connect 11 1 13 1;
#X connect 12 0 13 0;
#X connect 13 0 16 0;
#X connect 14 0 9 0;
#X connect 14 1 5 0;
#X connect 15 0 14 0;
#X connect 16 0 18 0;
#X connect 17 0 15 0;
#X connect 19 0 0 1;
#X connect 20 0 21 0;
#X connect 21 0 22 0;
#X connect 22 0 11 0;
#X restore 301 406 pd trajectory;
#X obj 132 428 nbx 5 14 0 5000 0 0 empty \$0-delay empty 0 -8 0 10
-262144 -1 -1 3000 256;
#X obj 199 429 nbx 5 14 -1e+37 1e+37 0 0 empty empty empty 0 -8 0 10
-262144 -1 -1 42.1429 256;
#X msg 199 447 diffusion \$1;
#X msg 132 447 delay \$1;
#X obj 22 476 spam~ 7 ylm.2d.syn.delay~ 3 5000, f 47;
#X text 4 271 The abstraction expects the order of decomposition as
the first argument and the maximum delay time as the second argument.
For an order of decomposition N \, there are 2N+1 harmonics. The left
inlet expects the signal to synthesize and the right inlet expects
the coordinates as a list \, the delay value and the diffusion value.
, f 67;
#X text 4 161 delay[l \, m] = delay * 2m / (2N+1) if m >= 0, f 67
;
#X text 4 174 delay[l \, m] = delay * (2m-1) / (2N+1) if m < 0, f
67;
#X text 4 187 with l the degree \, m the azimuthal order of the harmonics
and N the order of decomposition., f 67;
#X text 4 214 To arise linearly \, the factor of diffusion is also
scaled depending on the degree and the order of harmonics following
this equation:, f 67;
#X text 4 241 factor[l \, m] = factor^(N-l+1), f 67;
#X text 4 255 with the factor between 0 and 1, f 67;
#X obj 199 383 tgl 15 0 empty \$0-diff empty 17 7 0 10 -262144 -1 -1
1 1;
#N canvas 0 22 450 406 diffuse 0;
#X obj 53 150 f -1;
#X obj 93 150 f 1;
#X obj 53 55 metro 20;
#X obj 53 33 inlet;
#X obj 33 263 outlet;
#X obj 53 106 f 0;
#X obj 83 106 + 1;
#X obj 32 198 - 150;
#X obj 53 128 sel 999 0;
#X obj 32 176 clip 150 850;
#X obj 32 224 / 7;
#X connect 0 0 6 1;
#X connect 1 0 6 1;
#X connect 2 0 5 0;
#X connect 3 0 2 0;
#X connect 5 0 6 0;
#X connect 5 0 8 0;
#X connect 5 0 9 0;
#X connect 6 0 5 1;
#X connect 7 0 10 0;
#X connect 8 0 0 0;
#X connect 8 1 1 0;
#X connect 9 0 7 0;
#X connect 10 0 4 0;
#X restore 199 406 pd diffuse;
#X text 4 31 The abstraction synthesizes the signals of the circular
harmonics for a sound source using delay lines. The idea behind this
implementation is to decorrelate the signal depending a factor of diffusion.
When the diffussion is 100% \, all the signal are decorrelated. Decreasing
the factor of diffusion toward zero brings back linearly to a directional
synthesis. Like for the directional synthesis \, a list of coordinates
controls the position but in this implementation \, the delay value
controls a global delay time that is scaled depending on the degree
and the order of harmonics following this equation:, f 67;
#N canvas 0 22 450 300 \$0-meter 0;
#X scalar 1351-t-meter 0 \; 0.424264 0.424264 8 16 24 32 555 90 990
950 900 1 0 0 0 \; 0 0.6 8 16 24 32 555 90 990 950 900 1 1 0 0 \; -0.424264
0.424264 8 16 24 32 555 90 990 950 900 1 0 0 0 \; -0.6 0 8 16 24 32
555 90 990 950 900 1 1 0 0 \; -0.424264 -0.424264 8 16 24 32 555 90
990 950 900 1 0 0 0 \; 0 -0.6 8 16 24 32 555 90 990 950 900 1 0 0 0
\; 0.424264 -0.424264 8 16 24 32 555 90 990 950 900 1 0 0 0 \; 0.6
0 8 16 24 32 555 90 990 950 900 1 0 0 0 \; \;;
#X coords -1 1 1 -1 180 180 2 100 100;
#X restore 321 504 pd \$0-meter;
#X obj 320 770 text define -k \$0-meter-attrs;
#A set positions 0.424264 0.424264 0 0.6 -0.424264 0.424264 -0.6 0
-0.424264 -0.424264 0 -0.6 0.424264 -0.424264 0.6 0 \; gain 135 \;
;
#X obj 22 735 spam~ 8 ../zpt/zpt.2d.meter~ 8 \$0-meter \$0-meter-attrs
, f 47;
#X connect 0 0 8 1;
#X connect 1 0 5 0;
#X connect 2 0 24 0;
#X connect 3 0 8 0;
#X connect 5 0 2 1;
#X connect 6 0 0 0;
#X connect 6 0 0 1;
#X connect 8 0 2 0;
#X connect 13 0 9 0;
#X connect 13 0 37 0;
#X connect 13 1 9 1;
#X connect 13 1 37 1;
#X connect 13 2 9 2;
#X connect 13 2 37 2;
#X connect 13 3 9 3;
#X connect 13 3 37 3;
#X connect 13 4 9 4;
#X connect 13 4 37 4;
#X connect 13 5 9 5;
#X connect 13 5 37 5;
#X connect 13 6 9 6;
#X connect 13 6 37 6;
#X connect 13 7 9 7;
#X connect 13 7 37 7;
#X connect 17 0 24 1;
#X connect 18 0 19 0;
#X connect 19 0 17 0;
#X connect 20 0 23 0;
#X connect 21 0 22 0;
#X connect 22 0 24 1;
#X connect 23 0 24 1;
#X connect 24 0 13 0;
#X connect 24 0 16 0;
#X connect 24 1 13 1;
#X connect 24 1 16 1;
#X connect 24 2 13 2;
#X connect 24 2 16 2;
#X connect 24 3 13 3;
#X connect 24 3 16 3;
#X connect 24 4 13 4;
#X connect 24 4 16 4;
#X connect 24 5 13 5;
#X connect 24 5 16 5;
#X connect 24 6 13 6;
#X connect 24 6 16 6;
#X connect 32 0 33 0;
#X connect 33 0 21 0;
