#N struct 1004-t-scope float x array bufr 1004-t-scope-value-r array
bufg 1004-t-scope-value-g;
#N struct 1004-t-scope-value-r float x float y;
#N struct 1004-t-scope-value-g float x float y;
#N canvas 481 158 524 522 10;
#X declare -stdpath spam;
#X obj 22 119 declare -stdpath spam;
#N canvas 0 22 450 300 \$0-scope 0;
#X scalar 1004-t-scope 0 \; 0.000403554 0 \; 0.019931 0.000699897 \;
0.0393597 0.00276773 \; 0.058594 0.00619314 \; 0.0775392 0.0109591
\; 0.0961019 0.017042 \; 0.114191 0.0244117 \; 0.131717 0.0330318 \;
0.148594 0.0428597 \; 0.164739 0.0538468 \; 0.180072 0.0659389 \; 0.194519
0.0790765 \; 0.208007 0.0931947 \; 0.220471 0.108224 \; 0.23185 0.12409
\; 0.242087 0.140715 \; 0.251133 0.158017 \; 0.258942 0.175911 \; 0.265477
0.194308 \; 0.270706 0.213119 \; 0.274602 0.23225 \; 0.277147 0.251607
\; 0.278328 0.271096 \; 0.27814 0.29062 \; 0.276583 0.310083 \; 0.273665
0.329389 \; 0.269401 0.348445 \; 0.263811 0.367155 \; 0.256923 0.385428
\; 0.248771 0.403173 \; 0.239395 0.420305 \; 0.228841 0.436737 \; 0.217161
0.45239 \; 0.204412 0.467187 \; 0.190658 0.481054 \; 0.175965 0.493924
\; 0.160406 0.505732 \; 0.144057 0.516422 \; 0.126999 0.52594 \; 0.109316
0.534239 \; 0.0910938 0.541278 \; 0.0724233 0.547023 \; 0.053396 0.551445
\; 0.0341054 0.554523 \; 0.0146464 0.55624 \; -0.00488509 0.55659 \;
-0.024393 0.555569 \; -0.0437814 0.553183 \; -0.0629546 0.549443 \;
-0.0818182 0.544367 \; -0.100279 0.537982 \; -0.118247 0.530316 \;
-0.135633 0.52141 \; -0.152351 0.511305 \; -0.16832 0.500053 \; -0.183459
0.487708 \; -0.197695 0.47433 \; -0.210957 0.459987 \; -0.223181 0.444748
\; -0.234305 0.428689 \; -0.244274 0.411888 \; -0.25304 0.394429 \;
-0.26056 0.376397 \; -0.266795 0.357881 \; -0.271716 0.338973 \; -0.275298
0.319766 \; -0.277523 0.300353 \; -0.27838 0.280833 \; -0.277865 0.261299
\; -0.275981 0.24185 \; -0.272737 0.22258 \; -0.268148 0.203584 \;
-0.262238 0.184957 \; -0.255035 0.16679 \; -0.246576 0.149173 \; -0.236901
0.132193 \; -0.226058 0.115933 \; -0.214102 0.100473 \; -0.201091 0.0858903
\; -0.187089 0.0722561 \; -0.172165 0.0596377 \; -0.156393 0.0480973
\; -0.13985 0.0376918 \; -0.122619 0.0284724 \; -0.104784 0.0204845
\; -0.0864336 0.0137673 \; -0.0676575 0.00835403 \; -0.0485485 0.00427119
\; -0.029201 0.00153886 \; -0.00971017 0.000170416 \; -0 -0 \; -0 -0
\; -0 -0 \; -0 -0 \; -0 -0 \; -0 -0 \; -0 -0 \; -0 -0 \; -0 -0 \; -0
-0 \; -0 -0 \; -0 -0 \; -0 -0 \; -0 -0 \; -0 -0 \; -0 -0 \; -0 -0 \;
-0 -0 \; -0 -0 \; -0 -0 \; -0 -0 \; -0 -0 \; -0 -0 \; -0 -0 \; -0 -0
\; -0 -0 \; -0 -0 \; -0 -0 \; -0 -0 \; -0 -0 \; -0 -0 \; -0 -0 \; -0
-0 \; -0 -0 \; -0 -0 \; -0 -0 \; -0 -0 \; -0 -0 \; -0 -0 \; -0 -0 \;
-0 -0 \; -0 -0 \; -0 -0 \; -0 -0 \; -0 -0 \; 0 -0 \; 0 -0 \; 0 -0 \;
0 -0 \; 0 -0 \; 0 -0 \; 0 -0 \; 0 -0 \; 0 -0 \; 0 -0 \; 0 -0 \; 0 -0
\; 0 -0 \; 0 -0 \; 0 -0 \; 0 -0 \; 0 -0 \; 0 -0 \; 0 -0 \; 0 -0 \;
0 -0 \; 0 -0 \; 0 -0 \; 0 -0 \; 0 -0 \; 0 -0 \; 0 -0 \; 0 -0 \; 0 -0
\; 0 -0 \; 0 -0 \; 0 -0 \; 0 -0 \; 0 -0 \; 0 -0 \; 0 -0 \; 0 -0 \;
0 -0 \; 0 -0 \; 0 -0 \; 0 -0 \; 0 -0 \; 0 -0 \; 0 -0 \; 0.000406041
1.81353e-09 \; \; -0 -0 \; -0 -0 \; -0 -0 \; -0 -0 \; -0 -0 \; -0 -0
\; -0 -0 \; -0 -0 \; -0 -0 \; -0 -0 \; -0 -0 \; -0 -0 \; -0 -0 \; -0
-0 \; -0 -0 \; -0 -0 \; -0 -0 \; -0 -0 \; -0 -0 \; -0 -0 \; -0 -0 \;
-0 -0 \; -0 -0 \; -0 -0 \; -0 -0 \; -0 -0 \; -0 -0 \; -0 -0 \; -0 -0
\; -0 -0 \; -0 -0 \; -0 -0 \; -0 -0 \; -0 -0 \; -0 -0 \; -0 -0 \; -0
-0 \; -0 -0 \; -0 -0 \; -0 -0 \; -0 -0 \; -0 -0 \; -0 -0 \; -0 -0 \;
-0 -0 \; 0 -0 \; 0 -0 \; 0 -0 \; 0 -0 \; 0 -0 \; 0 -0 \; 0 -0 \; 0
-0 \; 0 -0 \; 0 -0 \; 0 -0 \; 0 -0 \; 0 -0 \; 0 -0 \; 0 -0 \; 0 -0
\; 0 -0 \; 0 -0 \; 0 -0 \; 0 -0 \; 0 -0 \; 0 -0 \; 0 -0 \; 0 -0 \;
0 -0 \; 0 -0 \; 0 -0 \; 0 -0 \; 0 -0 \; 0 -0 \; 0 -0 \; 0 -0 \; 0 -0
\; 0 -0 \; 0 -0 \; 0 -0 \; 0 -0 \; 0 -0 \; 0 -0 \; 0 -0 \; 0 -0 \;
0 -0 \; 0 -0 \; 0 -0 \; 0 -0 \; -0.00982786 -0.000172528 \; -0.0293167
-0.00154509 \; -0.0486607 -0.00428129 \; -0.0677641 -0.0083675 \; -0.0865333
-0.0137836 \; -0.104875 -0.0205027 \; -0.1227 -0.0284918 \; -0.13992
-0.0377113 \; -0.156451 -0.0481159 \; -0.17221 -0.0596543 \; -0.187121
-0.0722694 \; -0.20111 -0.0858993 \; -0.214107 -0.100477 \; -0.226051
-0.11593 \; -0.23688 -0.132183 \; -0.246543 -0.149155 \; -0.254992
-0.166764 \; -0.262185 -0.184921 \; -0.268086 -0.203539 \; -0.272668
-0.222525 \; -0.275906 -0.241786 \; -0.277786 -0.261227 \; -0.278298
-0.280753 \; -0.27744 -0.300267 \; -0.275215 -0.319673 \; -0.271635
-0.338875 \; -0.266718 -0.357781 \; -0.260487 -0.376295 \; -0.252973
-0.394328 \; -0.244213 -0.411789 \; -0.23425 -0.428594 \; -0.223134
-0.44466 \; -0.210918 -0.459907 \; -0.197663 -0.47426 \; -0.183435
-0.487649 \; -0.168302 -0.500008 \; -0.15234 -0.511276 \; -0.135627
-0.521396 \; -0.118246 -0.53032 \; -0.100281 -0.538003 \; -0.0818217
-0.544407 \; -0.0629586 -0.549501 \; -0.0437848 -0.553259 \; -0.0243947
-0.555663 \; -0.00488344 -0.556701 \; 0.0146523 -0.556367 \; 0.0341164
-0.554664 \; 0.0534134 -0.551599 \; 0.0724474 -0.547187 \; 0.091125
-0.54145 \; 0.109354 -0.534416 \; 0.127045 -0.52612 \; 0.144109 -0.516602
\; 0.160464 -0.50591 \; 0.176028 -0.494095 \; 0.190725 -0.481217 \;
0.204481 -0.467338 \; 0.217229 -0.452527 \; 0.228907 -0.436857 \; 0.239455
-0.420406 \; 0.248823 -0.403253 \; 0.256964 -0.385485 \; 0.263837 -0.367188
\; 0.26941 -0.348453 \; 0.273653 -0.329372 \; 0.276547 -0.31004 \;
0.278077 -0.290551 \; 0.278235 -0.271002 \; 0.27702 -0.25149 \; 0.27444
-0.23211 \; 0.270505 -0.212959 \; 0.265236 -0.19413 \; 0.258659 -0.175717
\; 0.250807 -0.15781 \; 0.241717 -0.140498 \; 0.231435 -0.123867 \;
0.220012 -0.107997 \; 0.207505 -0.0929685 \; 0.193974 -0.0788539 \;
0.179486 -0.0657236 \; 0.164114 -0.0536418 \; 0.147933 -0.0426684 \;
0.131023 -0.0328572 \; 0.113468 -0.0242566 \; 0.0953529 -0.0169087
\; 0.0767689 -0.0108499 \; 0.0578066 -0.00610964 \; 0.0385601 -0.00271133
\; 0.0191238 -0.000671461 \; -0 -0 \; \;;
#X coords -1 1 1 -1 201 201 2 100 100;
#X restore 75 236 pd \$0-scope;
#X obj 22 139 text define -k \$0-scope-attrs;
#A set gain 118 \; interval 100 \;;
#X obj 22 213 spam~ 7 ylm.2d.scope~ 3 \$0-scope \$0-scope-attrs, f
51;
#X obj 9 450 ylm.footer;
#X obj 6 7 ylm.header ylm.2d.scope~;
#N canvas 0 22 1203 672 circular_harmonics_generator____________________
0;
#X obj 22 205 cos~;
#X obj 72 247 cos~;
#X obj 123 268 cos~;
#X obj 173 288 cos~;
#X obj 224 308 cos~;
#X obj 274 328 cos~;
#X obj 325 348 cos~;
#X obj 22 139 clip~ 0 0.05;
#X obj 22 161 *~ 20;
#X obj 72 183 -~ 0.05;
#X obj 72 161 clip~ 0.05 0.1;
#X obj 72 203 *~ 20;
#X obj 123 182 clip~ 0.1 0.15;
#X obj 123 204 -~ 0.1;
#X obj 123 224 *~ 20;
#X obj 173 244 *~ 20;
#X obj 224 264 *~ 20;
#X obj 274 284 *~ 20;
#X obj 325 304 *~ 20;
#X obj 173 202 clip~ 0.15 0.2;
#X obj 173 224 -~ 0.15;
#X obj 224 244 -~ 0.2;
#X obj 224 222 clip~ 0.2 0.25;
#X obj 274 265 -~ 0.25;
#X obj 274 242 clip~ 0.25 0.3;
#X obj 325 284 -~ 0.3;
#X obj 325 262 clip~ 0.3 0.35;
#X obj 22 19 phasor~ 0.01;
#X obj 432 576 outlet~;
#X obj 482 576 outlet~;
#X obj 533 576 outlet~;
#X obj 583 576 outlet~;
#X obj 634 576 outlet~;
#X obj 684 576 outlet~;
#X obj 735 576 outlet~;
#X obj 708 479 cos~;
#X obj 779 485 cos~;
#X obj 848 479 cos~;
#X obj 919 485 cos~;
#X obj 851 435 *~ 2;
#X obj 988 479 cos~;
#X obj 1059 485 cos~;
#X obj 988 425 *~ 3;
#X obj 462 305 clip~ 0 1;
#X obj 636 468 *~ 0;
#X obj 636 490 cos~;
#X obj 636 512 *~;
#X obj 708 511 *~;
#X obj 778 511 *~;
#X obj 848 511 *~;
#X obj 918 511 *~;
#X obj 988 511 *~;
#X obj 1059 507 *~;
#X obj 582 225 cos~;
#X obj 572 295 clip~ 0 1;
#X obj 682 305 clip~ 0 1;
#X obj 752 305 clip~ 0 1;
#X obj 582 195 -~ 0.25;
#X obj 779 463 -~ 0.25;
#X obj 919 463 -~ 0.25;
#X obj 1059 463 -~ 0.25;
#X obj 672 225 cos~;
#X obj 672 195 -~ 0.25;
#X obj 772 225 cos~;
#X obj 772 195 -~ 0.25;
#X obj 431 129 clip~ 0.35 1;
#X obj 431 151 -~ 0.35;
#X obj 431 225 cos~;
#X obj 431 173 *~ 0.76923;
#X obj 431 195 -~ 0.25;
#X obj 582 267 *~ 5;
#X obj 662 267 *~ 5;
#X obj 772 267 *~ 5;
#X obj 325 326 -~ 0.25;
#X obj 274 306 -~ 0.25;
#X obj 224 286 -~ 0.25;
#X obj 173 266 -~ 0.25;
#X obj 123 246 -~ 0.25;
#X obj 72 225 -~ 0.25;
#X obj 22 183 -~ 0.25;
#X obj 772 129 clip~ 0.5 0.85;
#X obj 772 151 -~ 0.5;
#X obj 582 173 *~ 0.909091;
#X obj 672 173 *~ 1.11111;
#X obj 772 173 *~ 1.42857;
#X obj 582 129 clip~ 0.4 0.95;
#X obj 672 129 clip~ 0.45 0.9;
#X obj 672 151 -~ 0.45;
#X obj 582 151 -~ 0.4;
#X obj 431 267 *~ 5;
#X obj 796 331 clip~ 0.55 0.8;
#X obj 796 353 -~ 0.55;
#X obj 796 375 *~ 4;
#X obj 796 397 /~ 0.6666;
#X connect 0 0 28 0;
#X connect 1 0 29 0;
#X connect 2 0 30 0;
#X connect 3 0 31 0;
#X connect 4 0 32 0;
#X connect 5 0 33 0;
#X connect 6 0 34 0;
#X connect 7 0 8 0;
#X connect 8 0 79 0;
#X connect 9 0 11 0;
#X connect 10 0 9 0;
#X connect 11 0 78 0;
#X connect 12 0 13 0;
#X connect 13 0 14 0;
#X connect 14 0 77 0;
#X connect 15 0 76 0;
#X connect 16 0 75 0;
#X connect 17 0 74 0;
#X connect 18 0 73 0;
#X connect 19 0 20 0;
#X connect 20 0 15 0;
#X connect 21 0 16 0;
#X connect 22 0 21 0;
#X connect 23 0 17 0;
#X connect 24 0 23 0;
#X connect 25 0 18 0;
#X connect 26 0 25 0;
#X connect 27 0 7 0;
#X connect 27 0 10 0;
#X connect 27 0 12 0;
#X connect 27 0 19 0;
#X connect 27 0 22 0;
#X connect 27 0 24 0;
#X connect 27 0 26 0;
#X connect 27 0 65 0;
#X connect 27 0 80 0;
#X connect 27 0 85 0;
#X connect 27 0 86 0;
#X connect 27 0 90 0;
#X connect 35 0 47 0;
#X connect 36 0 48 0;
#X connect 37 0 49 0;
#X connect 38 0 50 0;
#X connect 39 0 37 0;
#X connect 39 0 59 0;
#X connect 40 0 51 0;
#X connect 41 0 52 0;
#X connect 42 0 40 0;
#X connect 42 0 60 0;
#X connect 43 0 46 1;
#X connect 44 0 45 0;
#X connect 45 0 46 0;
#X connect 46 0 28 0;
#X connect 47 0 30 0;
#X connect 48 0 29 0;
#X connect 49 0 32 0;
#X connect 50 0 31 0;
#X connect 51 0 34 0;
#X connect 52 0 33 0;
#X connect 53 0 70 0;
#X connect 54 0 47 1;
#X connect 54 0 48 1;
#X connect 55 0 49 1;
#X connect 55 0 50 1;
#X connect 56 0 51 1;
#X connect 56 0 52 1;
#X connect 57 0 53 0;
#X connect 58 0 36 0;
#X connect 59 0 38 0;
#X connect 60 0 41 0;
#X connect 61 0 71 0;
#X connect 62 0 61 0;
#X connect 63 0 72 0;
#X connect 64 0 63 0;
#X connect 65 0 66 0;
#X connect 66 0 68 0;
#X connect 67 0 89 0;
#X connect 68 0 69 0;
#X connect 69 0 67 0;
#X connect 70 0 54 0;
#X connect 71 0 55 0;
#X connect 72 0 56 0;
#X connect 73 0 6 0;
#X connect 74 0 5 0;
#X connect 75 0 4 0;
#X connect 76 0 3 0;
#X connect 77 0 2 0;
#X connect 78 0 1 0;
#X connect 79 0 0 0;
#X connect 80 0 81 0;
#X connect 81 0 84 0;
#X connect 82 0 57 0;
#X connect 83 0 62 0;
#X connect 84 0 64 0;
#X connect 85 0 88 0;
#X connect 86 0 87 0;
#X connect 87 0 83 0;
#X connect 88 0 82 0;
#X connect 89 0 43 0;
#X connect 90 0 91 0;
#X connect 91 0 92 0;
#X connect 92 0 93 0;
#X connect 93 0 35 0;
#X connect 93 0 39 0;
#X connect 93 0 42 0;
#X connect 93 0 44 0;
#X connect 93 0 58 0;
#X restore 22 159 pd circular_harmonics_generator____________________
;
#N canvas 0 22 450 300 dis 0;
#X obj 100 100 nbx 4 14 -1e+37 1e+37 0 0 empty empty empty 0 -8 0 10
-262144 -1 -1 5.157e-05 256;
#X obj 100 76 snapshot~;
#X obj 100 55 metro 20;
#X obj 109 35 loadbang;
#X obj 100 12 inlet~;
#X connect 1 0 0 0;
#X connect 2 0 1 0;
#X connect 3 0 2 0;
#X connect 4 0 1 0;
#X coords 0 -1 1 1 45 14 2 100 100;
#X restore 22 187 pd dis;
#N canvas 0 22 450 300 dis 0;
#X obj 100 100 nbx 4 14 -1e+37 1e+37 0 0 empty empty empty 0 -8 0 10
-262144 -1 -1 0.31374 256;
#X obj 100 76 snapshot~;
#X obj 100 55 metro 20;
#X obj 109 35 loadbang;
#X obj 100 12 inlet~;
#X connect 1 0 0 0;
#X connect 2 0 1 0;
#X connect 3 0 2 0;
#X connect 4 0 1 0;
#X coords 0 -1 1 1 45 14 2 100 100;
#X restore 72 187 pd dis;
#N canvas 0 22 450 300 dis 0;
#X obj 100 100 nbx 4 14 -1e+37 1e+37 0 0 empty empty empty 0 -8 0 10
-262144 -1 -1 5.157e-05 256;
#X obj 100 76 snapshot~;
#X obj 100 55 metro 20;
#X obj 109 35 loadbang;
#X obj 100 12 inlet~;
#X connect 1 0 0 0;
#X connect 2 0 1 0;
#X connect 3 0 2 0;
#X connect 4 0 1 0;
#X coords 0 -1 1 1 45 14 2 100 100;
#X restore 123 187 pd dis;
#N canvas 0 22 450 300 dis 0;
#X obj 100 100 nbx 4 14 -1e+37 1e+37 0 0 empty empty empty 0 -8 0 10
-262144 -1 -1 8.59536e-06 256;
#X obj 100 76 snapshot~;
#X obj 100 55 metro 20;
#X obj 109 35 loadbang;
#X obj 100 12 inlet~;
#X connect 1 0 0 0;
#X connect 2 0 1 0;
#X connect 3 0 2 0;
#X connect 4 0 1 0;
#X coords 0 -1 1 1 45 14 2 100 100;
#X restore 173 187 pd dis;
#N canvas 0 22 450 300 dis 0;
#X obj 100 100 nbx 4 14 -1e+37 1e+37 0 0 empty empty empty 0 -8 0 10
-262144 -1 -1 5.157e-05 256;
#X obj 100 76 snapshot~;
#X obj 100 55 metro 20;
#X obj 109 35 loadbang;
#X obj 100 12 inlet~;
#X connect 1 0 0 0;
#X connect 2 0 1 0;
#X connect 3 0 2 0;
#X connect 4 0 1 0;
#X coords 0 -1 1 1 45 14 2 100 100;
#X restore 224 187 pd dis;
#N canvas 0 22 450 300 dis 0;
#X obj 100 100 nbx 4 14 -1e+37 1e+37 0 0 empty empty empty 0 -8 0 10
-262144 -1 -1 8.59536e-06 256;
#X obj 100 76 snapshot~;
#X obj 100 55 metro 20;
#X obj 109 35 loadbang;
#X obj 100 12 inlet~;
#X connect 1 0 0 0;
#X connect 2 0 1 0;
#X connect 3 0 2 0;
#X connect 4 0 1 0;
#X coords 0 -1 1 1 45 14 2 100 100;
#X restore 274 187 pd dis;
#N canvas 0 22 450 300 dis 0;
#X obj 100 100 nbx 4 14 -1e+37 1e+37 0 0 empty empty empty 0 -8 0 10
-262144 -1 -1 5.157e-05 256;
#X obj 100 76 snapshot~;
#X obj 100 55 metro 20;
#X obj 109 35 loadbang;
#X obj 100 12 inlet~;
#X connect 1 0 0 0;
#X connect 2 0 1 0;
#X connect 3 0 2 0;
#X connect 4 0 1 0;
#X coords 0 -1 1 1 45 14 2 100 100;
#X restore 325 187 pd dis;
#X text 4 31 The abstraction displays the weighted sum of the circular
harmonics in a canvas. The abstraction expects the order of decomposition
as the first argument and the canvas to paint as the second argument.
You can also use a text object to define a gain en dB and the time
interval between each drawing in ms., f 67;
#X connect 6 0 3 0;
#X connect 6 0 7 0;
#X connect 6 1 3 1;
#X connect 6 1 8 0;
#X connect 6 2 3 2;
#X connect 6 2 9 0;
#X connect 6 3 3 3;
#X connect 6 3 10 0;
#X connect 6 4 3 4;
#X connect 6 4 11 0;
#X connect 6 5 3 5;
#X connect 6 5 12 0;
#X connect 6 6 3 6;
#X connect 6 6 13 0;
