#N canvas 370 125 313 445 10;
#X obj 14 31 / 360;
#X obj 14 53 * 6.28319;
#X obj 41 119 t f f;
#X obj 41 184 +, f 5;
#X obj 41 206 / 2;
#X obj 68 142 % 2;
#X obj 14 75 t f b;
#X obj 41 96 f \$1;
#X obj 14 229 *, f 5;
#X obj 14 252 -, f 14;
#X obj 95 184 * 1.57079;
#X obj 14 300 t f b;
#X obj 41 322 f \$1;
#X obj 41 344 == 0;
#X obj 41 366 + 1;
#X obj 14 388 /, f 5;
#X obj 14 410 outlet;
#X obj 14 276 cos;
#X obj 14 9 inlet;
#X obj 68 164 t f f;
#X connect 0 0 1 0;
#X connect 1 0 6 0;
#X connect 2 0 3 0;
#X connect 2 1 5 0;
#X connect 3 0 4 0;
#X connect 4 0 8 1;
#X connect 5 0 19 0;
#X connect 6 0 8 0;
#X connect 6 1 7 0;
#X connect 7 0 2 0;
#X connect 8 0 9 0;
#X connect 9 0 17 0;
#X connect 10 0 9 1;
#X connect 11 0 15 0;
#X connect 11 1 12 0;
#X connect 12 0 13 0;
#X connect 13 0 14 0;
#X connect 14 0 15 1;
#X connect 15 0 16 0;
#X connect 17 0 11 0;
#X connect 18 0 0 0;
#X connect 19 0 3 1;
#X connect 19 1 10 0;
