#N canvas 599 25 451 564 10;
#X declare -stdpath spam;
#X obj 4 490 xel.footer;
#X obj 5 363 xel.2d.gui.scope~;
#X obj 276 468 declare -stdpath spam;
#X obj 5 103 xel.2d.syn.brush~;
#X obj 5 163 xel.2d.fx.eraser~;
#X obj 5 233 xel.2d.syn.bucket~;
#X obj 5 306 xel.2d.syn.spray~;
#X obj 5 435 xel.2d.projector.dbap~;
#X text 4 391 The abstraction projects the signals of the cells of
a matrix onto a set of loudspeakers using distance based amplitude
panning (DBAP)., f 67;
#X text 4 263 The abstraction synthesizes the signals of the cells
of a matrix for a sound source using a quasi-synchronous granular synthesizer
(QSGS)., f 67;
#X text 4 193 The abstraction synthesizes the signals of the cells
of a matrix for a sound source using variable delay lines without flanging
effect., f 67;
#X text 4 73 The abstraction synthesizes the signals of the cells of
a matrix for a sound source depending on coordinates., f 67;
#X text 4 333 The abstraction displays the rms amplitude of the signals
of the cells of a matrix inside a canvas., f 67;
#X text 4 133 The abstraction decreases the amplitude of the signals
of a set of the cells of a matrix., f 67;
#X text 4 31 The xel library is a set of abtractions for sound spatialization
based on a representation of the space in the form of a matrix., f
67;
#X obj 5 8 xel.header xel;
