#N canvas 368 119 593 374 10;
#X obj 340 11 loadbang;
#X obj 193 11 namecanvas \$0-dbap-dec;
#X obj 340 33 t b b, f 8;
#X obj 385 74 != 0;
#X obj 385 52 f \$4;
#X obj 340 100 spigot 0;
#X obj 340 126 xel.2d.get.itorc \$2 \$3 \$1;
#X obj 340 147 xel.2d.get.rctocar \$2 \$3;
#N canvas 0 22 322 370 script 0;
#X obj 16 21 inlet;
#N canvas 243 57 450 300 counter 0;
#X obj 84 123 + 1;
#X obj 73 101 f 0;
#X obj 34 30 inlet;
#X obj 34 123 f, f 7;
#X obj 34 145 outlet;
#X obj 34 50 f \$4;
#X obj 34 101 until;
#X obj 34 72 t f b, f 7;
#X connect 0 0 3 1;
#X connect 1 0 3 1;
#X connect 2 0 5 0;
#X connect 3 0 0 0;
#X connect 3 0 4 0;
#X connect 5 0 7 0;
#X connect 6 0 3 0;
#X connect 7 0 6 0;
#X connect 7 1 1 0;
#X restore 16 64 pd counter;
#X obj 16 43 t b l, f 33;
#X obj 184 133 list split;
#X obj 184 112 list, f 5;
#X obj 16 109 f \$0;
#X obj 128 116 * 20;
#X obj 128 138 + 10;
#X obj 16 87 t b f f b f, f 38;
#X obj 16 186 pack f f f f, f 29;
#X msg 16 215 \; \$1-dbap-dec obj 10 \$3 pd speaker-\$1-\$2 \; pd-speaker-\$1-\$2
vis 0 \; pd-speaker-\$1-\$2 obj 10 10 spam.in~ \; pd-speaker-\$1-\$2
obj 10 30 *~ \$4 \; pd-speaker-\$1-\$2 obj 10 50 spam.out~ \$2 \; pd-speaker-\$1-\$2
connect 0 0 1 0 \; pd-speaker-\$1-\$2 connect 1 0 2 0 \;;
#X obj 212 156 t f;
#X connect 0 0 2 0;
#X connect 1 0 8 0;
#X connect 2 0 1 0;
#X connect 2 1 4 1;
#X connect 3 1 11 0;
#X connect 4 0 3 0;
#X connect 5 0 9 0;
#X connect 6 0 7 0;
#X connect 7 0 9 2;
#X connect 8 0 5 0;
#X connect 8 1 9 1;
#X connect 8 2 6 0;
#X connect 8 3 4 0;
#X connect 8 4 3 1;
#X connect 9 0 10 0;
#X connect 11 0 9 3;
#X restore 340 192 pd script;
#X obj 340 169 xel.2d.proj.dbap \$5;
#X connect 0 0 2 0;
#X connect 2 0 5 0;
#X connect 2 1 4 0;
#X connect 3 0 5 1;
#X connect 4 0 3 0;
#X connect 5 0 6 0;
#X connect 6 0 7 0;
#X connect 7 0 9 0;
#X connect 9 0 8 0;
