#N struct 1009-stuct-matrix float x1 float y1 float x2 float y2 float
xv float yv float c1 float c2 float val;
#N canvas 106 87 721 484 10;
#X declare -stdpath spam;
#X obj 261 396 declare -stdpath spam;
#X obj 5 7 xel.header xel.2d.gui.mat;
#X obj 6 444 xel.footer;
#X text 4 31 The abstraction displays coefficients of a matrix...;
#N canvas 0 22 1029 742 \$0-canvas 0;
#X scalar 1009-stuct-matrix -1 -1 -0.6 -0.6 -0.9 -0.76 999 0 0 \;;
#X scalar 1009-stuct-matrix -1 -0.6 -0.6 -0.2 -0.9 -0.36 999 0 0 \;
;
#X scalar 1009-stuct-matrix -1 -0.2 -0.6 0.2 -0.9 0.04 999 0 0 \;;
#X scalar 1009-stuct-matrix -1 0.2 -0.6 0.6 -0.9 0.44 999 0 0 \;;
#X scalar 1009-stuct-matrix -1 0.6 -0.6 1 -0.9 0.84 999 0 0 \;;
#X scalar 1009-stuct-matrix -0.6 -1 -0.2 -0.6 -0.5 -0.76 999 0 0 \;
;
#X scalar 1009-stuct-matrix -0.6 -0.6 -0.2 -0.2 -0.5 -0.36 999 0 0
\;;
#X scalar 1009-stuct-matrix -0.6 -0.2 -0.2 0.2 -0.5 0.04 999 0 0 \;
;
#X scalar 1009-stuct-matrix -0.6 0.2 -0.2 0.6 -0.5 0.44 999 0 0 \;
;
#X scalar 1009-stuct-matrix -0.6 0.6 -0.2 1 -0.5 0.84 999 0 0 \;;
#X scalar 1009-stuct-matrix -0.2 -1 0.2 -0.6 -0.1 -0.76 999 0 0 \;
;
#X scalar 1009-stuct-matrix -0.2 -0.6 0.2 -0.2 -0.1 -0.36 999 0 0 \;
;
#X scalar 1009-stuct-matrix -0.2 -0.2 0.2 0.2 -0.1 0.04 999 0 0 \;
;
#X scalar 1009-stuct-matrix -0.2 0.2 0.2 0.6 -0.1 0.44 999 0 0 \;;
#X scalar 1009-stuct-matrix -0.2 0.6 0.2 1 -0.1 0.84 999 0 0 \;;
#X scalar 1009-stuct-matrix 0.2 -1 0.6 -0.6 0.3 -0.76 999 0 0 \;;
#X scalar 1009-stuct-matrix 0.2 -0.6 0.6 -0.2 0.3 -0.36 999 0 0 \;
;
#X scalar 1009-stuct-matrix 0.2 -0.2 0.6 0.2 0.3 0.04 999 0 0 \;;
#X scalar 1009-stuct-matrix 0.2 0.2 0.6 0.6 0.3 0.44 999 0 0 \;;
#X scalar 1009-stuct-matrix 0.2 0.6 0.6 1 0.3 0.84 999 0 0 \;;
#X scalar 1009-stuct-matrix 0.6 -1 1 -0.6 0.7 -0.76 999 0 0 \;;
#X scalar 1009-stuct-matrix 0.6 -0.6 1 -0.2 0.7 -0.36 999 0 0 \;;
#X scalar 1009-stuct-matrix 0.6 -0.2 1 0.2 0.7 0.04 999 0 0 \;;
#X scalar 1009-stuct-matrix 0.6 0.2 1 0.6 0.7 0.44 999 0 0 \;;
#X scalar 1009-stuct-matrix 0.6 0.6 1 1 0.7 0.84 999 0 0 \;;
#X coords -1 1 1 -1 200 202 2 100 100;
#X restore 28 168 pd \$0-canvas;
#X msg 355 113 matrix 5 5;
#X msg 284 113 matrix 3 3;
#X msg 284 83 matrix 1 1;
#X obj 234 206 list prepend set;
#X obj 234 228 list trim;
#X msg 234 250 matrix 5 5 0 0 0 0 0 0.02 0 0 0 0 0 0 0 0 0 0 0 0 0
0 0 0 0 0 0, f 32;
#X obj 234 184 xel.2d.gui.mat2 \$0-canvas 5 5;
#X connect 5 0 11 0;
#X connect 6 0 11 0;
#X connect 7 0 11 0;
#X connect 8 0 9 0;
#X connect 9 0 10 0;
#X connect 11 0 8 0;
