#N struct 1602-t-scope float x1 float y1 float x2 float y2 float c1
float c2;
#N struct 1601-t-scope float x1 float y1 float x2 float y2 float c1
float c2;
#N struct 1600-t-scope float x1 float y1 float x2 float y2 float c1
float c2;
#N struct 1599-t-scope float x1 float y1 float x2 float y2 float c1
float c2;
#N struct 1598-t-scope float x1 float y1 float x2 float y2 float c1
float c2;
#N struct 1597-t-scope float x1 float y1 float x2 float y2 float c1
float c2;
#N struct 1596-t-scope float x1 float y1 float x2 float y2 float c1
float c2;
#N struct 1595-t-scope float x1 float y1 float x2 float y2 float c1
float c2;
#N struct 1594-t-scope float x1 float y1 float x2 float y2 float c1
float c2;
#N struct 1593-t-scope float x1 float y1 float x2 float y2 float c1
float c2;
#N struct 1592-t-scope float x1 float y1 float x2 float y2 float c1
float c2;
#N struct 1591-t-scope float x1 float y1 float x2 float y2 float c1
float c2;
#N struct 1590-t-scope float x1 float y1 float x2 float y2 float c1
float c2;
#N struct 1589-t-scope float x1 float y1 float x2 float y2 float c1
float c2;
#N struct 1588-t-scope float x1 float y1 float x2 float y2 float c1
float c2;
#N struct 1587-t-scope float x1 float y1 float x2 float y2 float c1
float c2;
#N struct 1586-t-scope float x1 float y1 float x2 float y2 float c1
float c2;
#N struct 1585-t-scope float x1 float y1 float x2 float y2 float c1
float c2;
#N struct 1584-t-scope float x1 float y1 float x2 float y2 float c1
float c2;
#N struct 1583-t-scope float x1 float y1 float x2 float y2 float c1
float c2;
#N struct 1582-t-scope float x1 float y1 float x2 float y2 float c1
float c2;
#N struct 1581-t-scope float x1 float y1 float x2 float y2 float c1
float c2;
#N struct 1580-t-scope float x1 float y1 float x2 float y2 float c1
float c2;
#N struct 1579-t-scope float x1 float y1 float x2 float y2 float c1
float c2;
#N struct 1578-t-scope float x1 float y1 float x2 float y2 float c1
float c2;
#N struct 1577-t-scope float x1 float y1 float x2 float y2 float c1
float c2;
#N struct 1576-t-scope float x1 float y1 float x2 float y2 float c1
float c2;
#N struct 1575-t-scope float x1 float y1 float x2 float y2 float c1
float c2;
#N struct 1574-t-scope float x1 float y1 float x2 float y2 float c1
float c2;
#N struct 1573-t-scope float x1 float y1 float x2 float y2 float c1
float c2;
#N struct 1572-t-scope float x1 float y1 float x2 float y2 float c1
float c2;
#N struct 1571-t-scope float x1 float y1 float x2 float y2 float c1
float c2;
#N struct 1570-t-scope float x1 float y1 float x2 float y2 float c1
float c2;
#N struct 1569-t-scope float x1 float y1 float x2 float y2 float c1
float c2;
#N struct 1568-t-scope float x1 float y1 float x2 float y2 float c1
float c2;
#N struct 1567-t-scope float x1 float y1 float x2 float y2 float c1
float c2;
#N struct 1566-t-scope float x1 float y1 float x2 float y2 float c1
float c2;
#N struct 1565-t-scope float x1 float y1 float x2 float y2 float c1
float c2;
#N struct 1564-t-scope float x1 float y1 float x2 float y2 float c1
float c2;
#N struct 1563-t-scope float x1 float y1 float x2 float y2 float c1
float c2;
#N struct 1562-t-scope float x1 float y1 float x2 float y2 float c1
float c2;
#N struct 1561-t-scope float x1 float y1 float x2 float y2 float c1
float c2;
#N struct 1560-t-scope float x1 float y1 float x2 float y2 float c1
float c2;
#N struct 1559-t-scope float x1 float y1 float x2 float y2 float c1
float c2;
#N struct 1558-t-scope float x1 float y1 float x2 float y2 float c1
float c2;
#N struct 1557-t-scope float x1 float y1 float x2 float y2 float c1
float c2;
#N struct 1556-t-scope float x1 float y1 float x2 float y2 float c1
float c2;
#N struct 1555-t-scope float x1 float y1 float x2 float y2 float c1
float c2;
#N struct 1554-t-scope float x1 float y1 float x2 float y2 float c1
float c2;
#N struct 1553-t-scope float x1 float y1 float x2 float y2 float c1
float c2;
#N struct 1552-t-scope float x1 float y1 float x2 float y2 float c1
float c2;
#N struct 1551-t-scope float x1 float y1 float x2 float y2 float c1
float c2;
#N struct 1550-t-scope float x1 float y1 float x2 float y2 float c1
float c2;
#N struct 1549-t-scope float x1 float y1 float x2 float y2 float c1
float c2;
#N struct 1548-t-scope float x1 float y1 float x2 float y2 float c1
float c2;
#N struct 1547-t-scope float x1 float y1 float x2 float y2 float c1
float c2;
#N struct 1546-t-scope float x1 float y1 float x2 float y2 float c1
float c2;
#N struct 1545-t-scope float x1 float y1 float x2 float y2 float c1
float c2;
#N struct 1544-t-scope float x1 float y1 float x2 float y2 float c1
float c2;
#N struct 1543-t-scope float x1 float y1 float x2 float y2 float c1
float c2;
#N struct 1542-t-scope float x1 float y1 float x2 float y2 float c1
float c2;
#N struct 1541-t-scope float x1 float y1 float x2 float y2 float c1
float c2;
#N struct 1540-t-scope float x1 float y1 float x2 float y2 float c1
float c2;
#N struct 1539-t-scope float x1 float y1 float x2 float y2 float c1
float c2;
#N struct 1538-t-meter float x1 float y1 float s1 float s2 float s3
float s4 float c0 float c1 float c2 float c3 float c4;
#N struct 1537-t-meter float x1 float y1 float s1 float s2 float s3
float s4 float c0 float c1 float c2 float c3 float c4;
#N struct 1536-t-meter float x1 float y1 float s1 float s2 float s3
float s4 float c0 float c1 float c2 float c3 float c4;
#N struct 1535-t-meter float x1 float y1 float s1 float s2 float s3
float s4 float c0 float c1 float c2 float c3 float c4;
#N struct 1534-t-meter float x1 float y1 float s1 float s2 float s3
float s4 float c0 float c1 float c2 float c3 float c4;
#N struct 1533-t-meter float x1 float y1 float s1 float s2 float s3
float s4 float c0 float c1 float c2 float c3 float c4;
#N struct 1532-t-meter float x1 float y1 float s1 float s2 float s3
float s4 float c0 float c1 float c2 float c3 float c4;
#N struct 1531-t-meter float x1 float y1 float s1 float s2 float s3
float s4 float c0 float c1 float c2 float c3 float c4;
#N canvas 596 23 626 792 10;
#X declare -stdpath spam;
#N canvas 0 22 223 200 \$0-scope 0;
#X scalar 1602-t-scope 0.75 -0.75 1 -1 999 0 \;;
#X scalar 1601-t-scope 0.5 -0.75 0.75 -1 999 0 \;;
#X scalar 1600-t-scope 0.25 -0.75 0.5 -1 999 0 \;;
#X scalar 1599-t-scope 0 -0.75 0.25 -1 999 0 \;;
#X scalar 1598-t-scope -0.25 -0.75 0 -1 999 0 \;;
#X scalar 1597-t-scope -0.5 -0.75 -0.25 -1 999 0 \;;
#X scalar 1596-t-scope -0.75 -0.75 -0.5 -1 999 0 \;;
#X scalar 1595-t-scope -1 -0.75 -0.75 -1 999 0 \;;
#X scalar 1594-t-scope 0.75 -0.5 1 -0.75 999 0 \;;
#X scalar 1593-t-scope 0.5 -0.5 0.75 -0.75 999 0 \;;
#X scalar 1592-t-scope 0.25 -0.5 0.5 -0.75 999 0 \;;
#X scalar 1591-t-scope 0 -0.5 0.25 -0.75 999 0 \;;
#X scalar 1590-t-scope -0.25 -0.5 0 -0.75 999 0 \;;
#X scalar 1589-t-scope -0.5 -0.5 -0.25 -0.75 999 0 \;;
#X scalar 1588-t-scope -0.75 -0.5 -0.5 -0.75 999 0 \;;
#X scalar 1587-t-scope -1 -0.5 -0.75 -0.75 999 0 \;;
#X scalar 1586-t-scope 0.75 -0.25 1 -0.5 999 0 \;;
#X scalar 1585-t-scope 0.5 -0.25 0.75 -0.5 999 0 \;;
#X scalar 1584-t-scope 0.25 -0.25 0.5 -0.5 999 0 \;;
#X scalar 1583-t-scope 0 -0.25 0.25 -0.5 999 0 \;;
#X scalar 1582-t-scope -0.25 -0.25 0 -0.5 999 0 \;;
#X scalar 1581-t-scope -0.5 -0.25 -0.25 -0.5 999 0 \;;
#X scalar 1580-t-scope -0.75 -0.25 -0.5 -0.5 999 0 \;;
#X scalar 1579-t-scope -1 -0.25 -0.75 -0.5 999 0 \;;
#X scalar 1578-t-scope 0.75 -0 1 -0.25 999 0 \;;
#X scalar 1577-t-scope 0.5 -0 0.75 -0.25 999 0 \;;
#X scalar 1576-t-scope 0.25 -0 0.5 -0.25 999 0 \;;
#X scalar 1575-t-scope 0 -0 0.25 -0.25 950 0 \;;
#X scalar 1574-t-scope -0.25 -0 0 -0.25 950 0 \;;
#X scalar 1573-t-scope -0.5 -0 -0.25 -0.25 999 0 \;;
#X scalar 1572-t-scope -0.75 -0 -0.5 -0.25 999 0 \;;
#X scalar 1571-t-scope -1 -0 -0.75 -0.25 999 0 \;;
#X scalar 1570-t-scope 0.75 0.25 1 -0 999 0 \;;
#X scalar 1569-t-scope 0.5 0.25 0.75 -0 999 0 \;;
#X scalar 1568-t-scope 0.25 0.25 0.5 -0 999 0 \;;
#X scalar 1567-t-scope 0 0.25 0.25 -0 950 0 \;;
#X scalar 1566-t-scope -0.25 0.25 0 -0 950 0 \;;
#X scalar 1565-t-scope -0.5 0.25 -0.25 -0 999 0 \;;
#X scalar 1564-t-scope -0.75 0.25 -0.5 -0 999 0 \;;
#X scalar 1563-t-scope -1 0.25 -0.75 -0 999 0 \;;
#X scalar 1562-t-scope 0.75 0.5 1 0.25 999 0 \;;
#X scalar 1561-t-scope 0.5 0.5 0.75 0.25 999 0 \;;
#X scalar 1560-t-scope 0.25 0.5 0.5 0.25 999 0 \;;
#X scalar 1559-t-scope 0 0.5 0.25 0.25 999 0 \;;
#X scalar 1558-t-scope -0.25 0.5 0 0.25 999 0 \;;
#X scalar 1557-t-scope -0.5 0.5 -0.25 0.25 999 0 \;;
#X scalar 1556-t-scope -0.75 0.5 -0.5 0.25 999 0 \;;
#X scalar 1555-t-scope -1 0.5 -0.75 0.25 999 0 \;;
#X scalar 1554-t-scope 0.75 0.75 1 0.5 999 0 \;;
#X scalar 1553-t-scope 0.5 0.75 0.75 0.5 999 0 \;;
#X scalar 1552-t-scope 0.25 0.75 0.5 0.5 999 0 \;;
#X scalar 1551-t-scope 0 0.75 0.25 0.5 999 0 \;;
#X scalar 1550-t-scope -0.25 0.75 0 0.5 999 0 \;;
#X scalar 1549-t-scope -0.5 0.75 -0.25 0.5 999 0 \;;
#X scalar 1548-t-scope -0.75 0.75 -0.5 0.5 999 0 \;;
#X scalar 1547-t-scope -1 0.75 -0.75 0.5 999 0 \;;
#X scalar 1546-t-scope 0.75 1 1 0.75 999 0 \;;
#X scalar 1545-t-scope 0.5 1 0.75 0.75 999 0 \;;
#X scalar 1544-t-scope 0.25 1 0.5 0.75 999 0 \;;
#X scalar 1543-t-scope 0 1 0.25 0.75 999 0 \;;
#X scalar 1542-t-scope -0.25 1 0 0.75 999 0 \;;
#X scalar 1541-t-scope -0.5 1 -0.25 0.75 999 0 \;;
#X scalar 1540-t-scope -0.75 1 -0.5 0.75 999 0 \;;
#X scalar 1539-t-scope -1 1 -0.75 0.75 999 0 \;;
#X coords -1 1 1 -1 200 200 2 100 100;
#X restore 63 473 pd \$0-scope;
#X obj 340 730 text define -k \$0-config;
#A set rolloff 8 \; blur 0.1 \; positions -0.530331 0.530329 -0.75
-1.67489e-06 -0.530329 -0.530332 2.51234e-06 -0.75 0.530332 -0.530328
0.75 3.34978e-06 0.530328 0.530333 -4.18723e-06 0.75 \; gain 140 \;
;
#X obj 107 254 tgl 15 0 empty \$0-auto empty 17 7 0 10 -262144 -1 -1
0 1;
#X obj 29 302 *~;
#X obj 14 325 *~;
#X obj 41 325 nbx 5 14 0 100 0 0 empty \$0-gain empty 0 -8 0 10 -262144
-1 -1 60 256;
#X obj 14 369 *~, f 5;
#X obj 14 257 noise~;
#N canvas 0 22 450 300 init 0;
#X obj 13 42 loadbang;
#X obj 13 86 s \$0-gain;
#X obj 82 42 loadbang;
#X msg 82 64 0 0;
#X obj 152 42 loadbang;
#X msg 152 64 0;
#X obj 152 86 s \$0-hardness;
#X obj 242 42 loadbang;
#X obj 242 86 s \$0-opacity;
#X msg 242 64 100;
#X obj 322 42 loadbang;
#X obj 322 86 s \$0-size;
#X msg 322 64 1;
#X msg 13 64 60;
#X obj 82 86 s \$0-pos;
#X connect 0 0 13 0;
#X connect 2 0 3 0;
#X connect 3 0 14 0;
#X connect 4 0 5 0;
#X connect 5 0 6 0;
#X connect 7 0 9 0;
#X connect 9 0 8 0;
#X connect 10 0 12 0;
#X connect 12 0 11 0;
#X connect 13 0 1 0;
#X restore 341 708 pd init;
#X obj 4 755 xel.footer;
#X obj 5 9 xel.header xel.2d.syn.brush~;
#X msg 285 356 opacity \$1;
#X obj 285 334 nbx 5 14 0 100 0 0 empty \$0-opacity empty 0 -8 0 10
-262144 -1 -1 100 256;
#X obj 360 334 nbx 5 14 0 100 0 0 empty \$0-hardness empty 0 -8 0 10
-262144 -1 -1 0 256;
#X msg 360 356 hardness \$1;
#X obj 260 402 r \$0-brush;
#X obj 360 378 s \$0-brush;
#X obj 207 336 nbx 5 14 1 10 0 0 empty \$0-size empty 0 -8 0 10 -262144
-1 -1 1 256;
#X msg 207 355 size \$1;
#X obj 107 377 s \$0-brush;
#X text 206 297 Size (min 1), f 8;
#X text 360 295 Hardness (0 to 100), f 10;
#X text 114 298 Coordinates (-1 to 1), f 12;
#X obj 285 378 s \$0-brush;
#X obj 207 377 s \$0-brush;
#N canvas 0 22 450 300 gain 0;
#X obj 10 45 dbtorms;
#X obj 10 67 pack f 20;
#X obj 10 89 line~;
#X obj 10 25 inlet;
#X obj 10 111 outlet~;
#X connect 0 0 1 0;
#X connect 1 0 2 0;
#X connect 2 0 4 0;
#X connect 3 0 0 0;
#X restore 41 345 pd gain;
#N canvas 0 22 573 343 traj 0;
#X obj 54 191 t f f, f 15;
#X obj 54 279 pack f f, f 15;
#X obj 54 237 * 6.28319;
#X obj 141 237 * 6.28319;
#X obj 54 128 line 0;
#X obj 54 257 sin;
#X obj 141 257 sin;
#X obj 54 215 * 3;
#X obj 141 215 * 1;
#X msg 54 104 \$1 \, 1 10000;
#X obj 54 80 f 0;
#X obj 144 96 sel 1;
#X msg 17 104 stop;
#X obj 17 53 sel 0 1, f 13;
#X obj 144 118 f 0;
#X obj 17 25 inlet;
#X obj 54 301 outlet;
#X connect 0 0 7 0;
#X connect 0 1 8 0;
#X connect 1 0 16 0;
#X connect 2 0 5 0;
#X connect 3 0 6 0;
#X connect 4 0 0 0;
#X connect 4 0 11 0;
#X connect 5 0 1 0;
#X connect 6 0 1 1;
#X connect 7 0 2 0;
#X connect 8 0 3 0;
#X connect 9 0 4 0;
#X connect 10 0 9 0;
#X connect 11 0 14 0;
#X connect 11 1 10 1;
#X connect 12 0 4 0;
#X connect 13 0 12 0;
#X connect 13 1 10 0;
#X connect 14 0 10 0;
#X connect 15 0 13 0;
#X restore 107 275 pd traj;
#X obj 29 280 osc~ 5;
#X obj 14 708 spam~ 8 ../zpt/zpt.2d.meter~ 8 \$0-meter \$0-config, f 51;
#X obj 14 732 dac~ 1 2 3 4 5 6 7 8, f 51;
#N canvas 0 22 450 300 \$0-meter 0;
#X scalar 1538-t-meter -4.18723e-06 0.75 8 16 24 32 555 90 990 950
900 \;;
#X scalar 1537-t-meter 0.530328 0.530333 8 16 24 32 555 90 990 950
900 \;;
#X scalar 1536-t-meter 0.75 3.34978e-06 8 16 24 32 555 90 990 950 900
\;;
#X scalar 1535-t-meter 0.530332 -0.530328 8 16 24 32 555 90 990 950
900 \;;
#X scalar 1534-t-meter 2.51234e-06 -0.75 8 16 24 32 555 90 990 950
900 \;;
#X scalar 1533-t-meter -0.530329 -0.530332 8 16 24 32 555 90 990 950
900 \;;
#X scalar 1532-t-meter -0.75 -1.67489e-06 8 16 24 32 555 90 990 950
900 \;;
#X scalar 1531-t-meter -0.530331 0.530329 8 16 24 32 555 90 990 950
900 \;;
#X coords -1 1 1 -1 200 200 2 100 100;
#X restore 342 472 pd \$0-meter;
#X text 4 216 The arguments are the dimensions of the matrix \, the
number of rows and the number of columns., f 67;
#X obj 391 708 declare -stdpath spam;
#X obj 14 447 spam~ 64 xel.2d.gui.scope~ 8 8 \$0-scope \$0-config,
f 51;
#X obj 14 423 spam~ 64 xel.2d.syn.brush~ 8 8, f 51;
#X text 4 31 The abstraction synthesizes the signals of the cells of
a matrix for a sound source depending on coordinates. The weight of
the signal in each cell is computed using the distance between the
encoding position and the cell position. To allow an adaptation of
the synthesis to all the sizes of matrices \, the coordinates are scaled
between minus one and one. The weight of the signal decreases with
the distance and when the distance reaches its maximum the weight is
null. To sound a bit more natural \, the weight is transposed on a
cosinus scaled. By default \, the distance is limited in order to never
exceed the minimum distance between two cells. Thus the signal can't
be inside of more than five cells. Nevertheless \, the size parameter
allows to enlarge the diffusion of the sound and the hardness parameter
smooth more or less the limits of the sound source. The opacity an
be seen as a global gain., f 67;
#N canvas 217 367 450 300 pos 0;
#X obj 145 100 nbx 4 14 -1e+37 1e+37 0 0 empty empty empty 0 -8 0 10
-262144 -1 -1 0 256;
#X obj 100 100 nbx 4 14 -1e+37 1e+37 0 0 empty empty empty 0 -8 0 10
-262144 -1 -1 0 256;
#X obj 119 77 t b f;
#X obj 101 150 pack 1 f;
#X obj 101 18 r \$0-pos;
#X obj 101 40 unpack f f;
#X obj 101 172 outlet;
#X obj 164 19 inlet;
#X connect 0 0 2 0;
#X connect 1 0 3 0;
#X connect 2 0 1 0;
#X connect 2 1 3 1;
#X connect 3 0 6 0;
#X connect 4 0 5 0;
#X connect 5 0 1 0;
#X connect 5 1 0 0;
#X connect 7 0 5 0;
#X coords 0 -1 1 1 90 14 2 100 100;
#X restore 107 336 pd pos;
#X text 285 295 Opacity (0 to 100), f 10;
#X obj 14 680 spam~ 64 xel.2d.proj.dbap~ 8 8 8 \$0-config, f
51;
#X connect 2 0 26 0;
#X connect 3 0 4 1;
#X connect 4 0 6 0;
#X connect 5 0 25 0;
#X connect 6 0 34 0;
#X connect 7 0 4 0;
#X connect 11 0 23 0;
#X connect 12 0 11 0;
#X connect 13 0 14 0;
#X connect 14 0 16 0;
#X connect 15 0 34 1;
#X connect 17 0 18 0;
#X connect 18 0 24 0;
#X connect 25 0 6 1;
#X connect 26 0 36 0;
#X connect 27 0 3 0;
#X connect 27 0 3 1;
#X connect 34 0 33 0;
#X connect 34 0 38 0;
#X connect 34 1 33 1;
#X connect 34 1 38 1;
#X connect 34 2 33 2;
#X connect 34 2 38 2;
#X connect 34 3 33 3;
#X connect 34 3 38 3;
#X connect 34 4 33 4;
#X connect 34 4 38 4;
#X connect 34 5 33 5;
#X connect 34 5 38 5;
#X connect 34 6 33 6;
#X connect 34 6 38 6;
#X connect 34 7 33 7;
#X connect 34 7 38 7;
#X connect 34 8 33 8;
#X connect 34 8 38 8;
#X connect 34 9 33 9;
#X connect 34 9 38 9;
#X connect 34 10 33 10;
#X connect 34 10 38 10;
#X connect 34 11 33 11;
#X connect 34 11 38 11;
#X connect 34 12 33 12;
#X connect 34 12 38 12;
#X connect 34 13 33 13;
#X connect 34 13 38 13;
#X connect 34 14 33 14;
#X connect 34 14 38 14;
#X connect 34 15 33 15;
#X connect 34 15 38 15;
#X connect 34 16 33 16;
#X connect 34 16 38 16;
#X connect 34 17 33 17;
#X connect 34 17 38 17;
#X connect 34 18 33 18;
#X connect 34 18 38 18;
#X connect 34 19 33 19;
#X connect 34 19 38 19;
#X connect 34 20 33 20;
#X connect 34 20 38 20;
#X connect 34 21 33 21;
#X connect 34 21 38 21;
#X connect 34 22 33 22;
#X connect 34 22 38 22;
#X connect 34 23 33 23;
#X connect 34 23 38 23;
#X connect 34 24 33 24;
#X connect 34 24 38 24;
#X connect 34 25 33 25;
#X connect 34 25 38 25;
#X connect 34 26 33 26;
#X connect 34 26 38 26;
#X connect 34 27 33 27;
#X connect 34 27 38 27;
#X connect 34 28 33 28;
#X connect 34 28 38 28;
#X connect 34 29 33 29;
#X connect 34 29 38 29;
#X connect 34 30 33 30;
#X connect 34 30 38 30;
#X connect 34 31 33 31;
#X connect 34 31 38 31;
#X connect 34 32 33 32;
#X connect 34 32 38 32;
#X connect 34 33 33 33;
#X connect 34 33 38 33;
#X connect 34 34 33 34;
#X connect 34 34 38 34;
#X connect 34 35 33 35;
#X connect 34 35 38 35;
#X connect 34 36 33 36;
#X connect 34 36 38 36;
#X connect 34 37 33 37;
#X connect 34 37 38 37;
#X connect 34 38 33 38;
#X connect 34 38 38 38;
#X connect 34 39 33 39;
#X connect 34 39 38 39;
#X connect 34 40 33 40;
#X connect 34 40 38 40;
#X connect 34 41 33 41;
#X connect 34 41 38 41;
#X connect 34 42 33 42;
#X connect 34 42 38 42;
#X connect 34 43 33 43;
#X connect 34 43 38 43;
#X connect 34 44 33 44;
#X connect 34 44 38 44;
#X connect 34 45 33 45;
#X connect 34 45 38 45;
#X connect 34 46 33 46;
#X connect 34 46 38 46;
#X connect 34 47 33 47;
#X connect 34 47 38 47;
#X connect 34 48 33 48;
#X connect 34 48 38 48;
#X connect 34 49 33 49;
#X connect 34 49 38 49;
#X connect 34 50 33 50;
#X connect 34 50 38 50;
#X connect 34 51 33 51;
#X connect 34 51 38 51;
#X connect 34 52 33 52;
#X connect 34 52 38 52;
#X connect 34 53 33 53;
#X connect 34 53 38 53;
#X connect 34 54 33 54;
#X connect 34 54 38 54;
#X connect 34 55 33 55;
#X connect 34 55 38 55;
#X connect 34 56 33 56;
#X connect 34 56 38 56;
#X connect 34 57 33 57;
#X connect 34 57 38 57;
#X connect 34 58 33 58;
#X connect 34 58 38 58;
#X connect 34 59 33 59;
#X connect 34 59 38 59;
#X connect 34 60 33 60;
#X connect 34 60 38 60;
#X connect 34 61 33 61;
#X connect 34 61 38 61;
#X connect 34 62 33 62;
#X connect 34 62 38 62;
#X connect 34 63 33 63;
#X connect 34 63 38 63;
#X connect 36 0 19 0;
#X connect 38 0 28 0;
#X connect 38 0 29 0;
#X connect 38 1 28 1;
#X connect 38 1 29 1;
#X connect 38 2 28 2;
#X connect 38 2 29 2;
#X connect 38 3 28 3;
#X connect 38 3 29 3;
#X connect 38 4 28 4;
#X connect 38 4 29 4;
#X connect 38 5 28 5;
#X connect 38 5 29 5;
#X connect 38 6 28 6;
#X connect 38 6 29 6;
#X connect 38 7 28 7;
#X connect 38 7 29 7;
