#N struct 2742-t-scope float x array cells 2742-t-scope-value;
#N struct 2742-t-scope-value float x1 float y1 float x2 float y2 float
c1 float c2;
#N struct 2806-t-meter float x array ls 2806-t-meter-value;
#N struct 2806-t-meter-value float x1 float y1 float s1 float s2 float
s3 float s4 float c0 float c1 float c2 float c3 float c4 float v1 float
v2 float v3 float v4;
#N canvas 740 54 592 662 10;
#X declare -stdpath spam;
#X declare -stdpath spam/zpt;
#X obj 77 201 dbtorms;
#X obj 77 181 nbx 5 14 0 100 0 0 empty \$0-gain empty 0 -8 0 10 -262144
-1 -1 60 256;
#X obj 77 223 pack f 20;
#X obj 77 245 line~;
#X obj 14 278 *~, f 11;
#X obj 155 182 nbx 5 14 1 100 0 0 empty \$0-spread empty 0 -8 0 10
-262144 -1 -1 9 256;
#X obj 225 182 nbx 5 14 -1e+37 1e+37 0 0 empty \$0-delay empty 0 -8
0 10 -262144 -1 -1 250 256;
#X msg 225 201 delay \$1;
#N canvas 0 22 223 200 \$0-scope 0;
#X scalar 2742-t-scope 0 \; -1 1 -0.75 0.75 999 0 \; -0.75 1 -0.5 0.75
999 0 \; -0.5 1 -0.25 0.75 999 0 \; -0.25 1 0 0.75 999 0 \; 0 1 0.25
0.75 999 0 \; 0.25 1 0.5 0.75 999 0 \; 0.5 1 0.75 0.75 999 0 \; 0.75
1 1 0.75 999 0 \; -1 0.75 -0.75 0.5 999 0 \; -0.75 0.75 -0.5 0.5 999
0 \; -0.5 0.75 -0.25 0.5 999 0 \; -0.25 0.75 0 0.5 999 0 \; 0 0.75
0.25 0.5 999 0 \; 0.25 0.75 0.5 0.5 999 0 \; 0.5 0.75 0.75 0.5 999
0 \; 0.75 0.75 1 0.5 999 0 \; -1 0.5 -0.75 0.25 999 0 \; -0.75 0.5
-0.5 0.25 999 0 \; -0.5 0.5 -0.25 0.25 999 0 \; -0.25 0.5 0 0.25 999
0 \; 0 0.5 0.25 0.25 999 0 \; 0.25 0.5 0.5 0.25 999 0 \; 0.5 0.5 0.75
0.25 999 0 \; 0.75 0.5 1 0.25 999 0 \; -1 0.25 -0.75 -0 999 0 \; -0.75
0.25 -0.5 -0 999 0 \; -0.5 0.25 -0.25 -0 999 0 \; -0.25 0.25 0 -0 999
0 \; 0 0.25 0.25 -0 999 0 \; 0.25 0.25 0.5 -0 999 0 \; 0.5 0.25 0.75
-0 999 0 \; 0.75 0.25 1 -0 999 0 \; -1 -0 -0.75 -0.25 999 0 \; -0.75
-0 -0.5 -0.25 999 0 \; -0.5 -0 -0.25 -0.25 999 0 \; -0.25 -0 0 -0.25
999 0 \; 0 -0 0.25 -0.25 999 0 \; 0.25 -0 0.5 -0.25 999 0 \; 0.5 -0
0.75 -0.25 999 0 \; 0.75 -0 1 -0.25 999 0 \; -1 -0.25 -0.75 -0.5 999
0 \; -0.75 -0.25 -0.5 -0.5 999 0 \; -0.5 -0.25 -0.25 -0.5 999 0 \;
-0.25 -0.25 0 -0.5 999 0 \; 0 -0.25 0.25 -0.5 999 0 \; 0.25 -0.25 0.5
-0.5 999 0 \; 0.5 -0.25 0.75 -0.5 999 0 \; 0.75 -0.25 1 -0.5 999 0
\; -1 -0.5 -0.75 -0.75 999 0 \; -0.75 -0.5 -0.5 -0.75 999 0 \; -0.5
-0.5 -0.25 -0.75 999 0 \; -0.25 -0.5 0 -0.75 999 0 \; 0 -0.5 0.25 -0.75
999 0 \; 0.25 -0.5 0.5 -0.75 999 0 \; 0.5 -0.5 0.75 -0.75 999 0 \;
0.75 -0.5 1 -0.75 999 0 \; -1 -0.75 -0.75 -1 999 0 \; -0.75 -0.75 -0.5
-1 999 0 \; -0.5 -0.75 -0.25 -1 999 0 \; -0.25 -0.75 0 -1 999 0 \;
0 -0.75 0.25 -1 999 0 \; 0.25 -0.75 0.5 -1 999 0 \; 0.5 -0.75 0.75
-1 999 0 \; 0.75 -0.75 1 -1 999 0 \; \;;
#X coords -1 1 1 -1 150 150 2 100 100;
#X restore 16 357 pd \$0-scope;
#X obj 370 584 text define -k \$0-config;
#A set positions -0.530331 0.530329 -0.75 -1.67489e-06 -0.530329 -0.530332
2.51234e-06 -0.75 0.530332 -0.530328 0.75 3.34978e-06 0.530328 0.530333
-4.18723e-06 0.75 \; rolloff 40 \; blur 0.001 \; gain 140 \;;
#X f 25;
#X obj 14 586 dac~ 1 2 3 4 5 6 7 8, f 56;
#X obj 14 322 spam~ 64 xel.2d.gui.scope~ 8 8 \$0-scope \$0-config,
f 56;
#X obj 14 565 spam~ 8 ../zpt/zpt.2d.meter~ 8 \$0-meter \$0-config,
f 56;
#N canvas 0 22 450 300 \$0-meter 0;
#X scalar 2806-t-meter 0 \; -0.530331 0.530329 8 16 24 32 555 90 990
950 900 0 0 0 0 \; -0.75 -1.67489e-06 8 16 24 32 555 90 990 950 900
0 0 0 0 \; -0.530329 -0.530332 8 16 24 32 555 90 990 950 900 0 0 0
0 \; 2.51234e-06 -0.75 8 16 24 32 555 90 990 950 900 0 0 0 0 \; 0.530332
-0.530328 8 16 24 32 555 90 990 950 900 0 0 0 0 \; 0.75 3.34978e-06
8 16 24 32 555 90 990 950 900 0 0 0 0 \; 0.530328 0.530333 8 16 24
32 555 90 990 950 900 0 0 0 0 \; -4.18723e-06 0.75 8 16 24 32 555 90
990 950 900 0 0 0 0 \; \;;
#X coords -1 1 1 -1 153 153 2 100 100;
#X restore 201 357 pd \$0-meter;
#N canvas 0 22 450 300 init 0;
#X obj 13 42 loadbang;
#X obj 13 86 s \$0-gain;
#X obj 173 42 loadbang;
#X obj 173 87 s \$0-delay;
#X obj 106 41 loadbang;
#X obj 106 86 s \$0-auto;
#X msg 173 64 250;
#X msg 106 63 0;
#X obj 106 122 loadbang;
#X obj 106 167 s \$0-spread;
#X obj 196 122 loadbang;
#X obj 196 167 s \$0-pos;
#X msg 196 144 1 1;
#X msg 13 64 60;
#X msg 106 144 9;
#X connect 0 0 13 0;
#X connect 2 0 6 0;
#X connect 4 0 7 0;
#X connect 6 0 3 0;
#X connect 7 0 5 0;
#X connect 8 0 14 0;
#X connect 10 0 12 0;
#X connect 12 0 11 0;
#X connect 13 0 1 0;
#X connect 14 0 9 0;
#X restore 370 521 pd init;
#X obj 14 252 *~;
#N canvas 334 63 191 239 e 0;
#X obj 50 195 outlet~;
#X obj 50 167 line~;
#X obj 50 66 tgl 15 0 empty empty empty 17 7 0 10 -262144 -1 -1 1 1
;
#X obj 48 23 loadbang;
#X msg 48 45 1;
#X obj 91 106 delay 20;
#X msg 91 128 0 30;
#X msg 50 128 1 20;
#X obj 50 84 metro 750;
#X obj 110 62 inlet;
#X connect 1 0 0 0;
#X connect 2 0 8 0;
#X connect 3 0 4 0;
#X connect 4 0 2 0;
#X connect 5 0 6 0;
#X connect 6 0 1 0;
#X connect 7 0 1 0;
#X connect 8 0 7 0;
#X connect 8 0 5 0;
#X connect 9 0 8 1;
#X restore 29 226 pd e;
#X obj 307 278 r \$0-vd;
#X obj 225 223 s \$0-vd;
#X obj 293 223 s \$0-vd;
#X obj 155 223 s \$0-vd;
#X obj 370 563 declare -stdpath spam;
#X obj 5 7 xel.header xel.2d.syn.bucket~;
#X obj 6 614 xel.footer;
#X msg 155 201 size \$1;
#X obj 14 183 noise~;
#X obj 14 544 spam~ 64 xel.2d.proj.dbap~ 8 8 8 \$0-config, f 56;
#X obj 293 156 tgl 15 0 empty empty empty 17 7 0 10 -262144 -1 -1 0
1;
#N canvas 0 22 573 343 trajectory 0;
#X obj 54 191 t f f, f 15;
#X obj 54 249 pack f f, f 15;
#X obj 141 227 sin;
#X obj 54 271 outlet;
#X obj 17 25 inlet;
#X obj 54 227 cos;
#X obj 79 71 sel 5;
#X obj 116 131 / 5;
#X obj 119 71 + 1;
#X obj 79 103 f 0;
#X obj 79 49 f 0;
#X obj 107 103 f 1;
#X obj 116 151 * 6.28319;
#X obj 79 27 metro 750;
#X connect 0 0 5 0;
#X connect 0 1 2 0;
#X connect 1 0 3 0;
#X connect 2 0 1 1;
#X connect 4 0 13 0;
#X connect 5 0 1 0;
#X connect 6 0 9 0;
#X connect 6 0 11 0;
#X connect 6 1 7 0;
#X connect 6 1 8 0;
#X connect 7 0 12 0;
#X connect 8 0 10 1;
#X connect 9 0 7 0;
#X connect 10 0 6 0;
#X connect 11 0 10 1;
#X connect 12 0 0 0;
#X connect 13 0 10 0;
#X restore 293 180 pd trajectory;
#X obj 14 299 spam~ 64 xel.2d.syn.bucket~ 8 8, f 56;
#X text 4 30 The abstraction synthesizes the signals of the cells of
a matrix for a sound source using variable delay lines without flanging
effect. The goal is to create a spatial smudge effect. When a cell
is distant from the encoding position the delay increases resulting
in a sound that is spread progressively from the encoding position
toward the rest of the space while the sound decreases. The arguments
are the dimension of the matrix \, the number of rows and the number
of columns.;
#N canvas 217 367 450 300 pos 0;
#X obj 145 100 nbx 4 14 -1e+37 1e+37 0 0 empty empty empty 0 -8 0 10
-262144 -1 -1 1 256;
#X obj 100 100 nbx 4 14 -1e+37 1e+37 0 0 empty empty empty 0 -8 0 10
-262144 -1 -1 1 256;
#X obj 119 77 t b f;
#X obj 101 150 pack 1 f;
#X obj 101 18 r \$0-pos;
#X obj 101 40 unpack f f;
#X obj 101 172 outlet;
#X obj 164 19 inlet;
#X connect 0 0 2 0;
#X connect 1 0 3 0;
#X connect 2 0 1 0;
#X connect 2 1 3 1;
#X connect 3 0 6 0;
#X connect 4 0 5 0;
#X connect 5 0 1 0;
#X connect 5 1 0 0;
#X connect 7 0 5 0;
#X coords 0 -1 1 1 90 14 2 100 100;
#X restore 293 205 pd pos;
#X obj 370 543 declare -stdpath spam/zpt;
#X connect 0 0 2 0;
#X connect 1 0 0 0;
#X connect 2 0 3 0;
#X connect 3 0 4 1;
#X connect 4 0 29 0;
#X connect 5 0 24 0;
#X connect 6 0 7 0;
#X connect 7 0 18 0;
#X connect 15 0 4 0;
#X connect 16 0 15 1;
#X connect 17 0 29 1;
#X connect 24 0 20 0;
#X connect 25 0 15 0;
#X connect 26 0 12 0;
#X connect 26 0 10 0;
#X connect 26 1 12 1;
#X connect 26 1 10 1;
#X connect 26 2 12 2;
#X connect 26 2 10 2;
#X connect 26 3 12 3;
#X connect 26 3 10 3;
#X connect 26 4 12 4;
#X connect 26 4 10 4;
#X connect 26 5 12 5;
#X connect 26 5 10 5;
#X connect 26 6 12 6;
#X connect 26 6 10 6;
#X connect 26 7 12 7;
#X connect 26 7 10 7;
#X connect 27 0 28 0;
#X connect 28 0 31 0;
#X connect 29 0 11 0;
#X connect 29 0 26 0;
#X connect 29 1 11 1;
#X connect 29 1 26 1;
#X connect 29 2 11 2;
#X connect 29 2 26 2;
#X connect 29 3 11 3;
#X connect 29 3 26 3;
#X connect 29 4 11 4;
#X connect 29 4 26 4;
#X connect 29 5 11 5;
#X connect 29 5 26 5;
#X connect 29 6 11 6;
#X connect 29 6 26 6;
#X connect 29 7 11 7;
#X connect 29 7 26 7;
#X connect 29 8 11 8;
#X connect 29 8 26 8;
#X connect 29 9 11 9;
#X connect 29 9 26 9;
#X connect 29 10 11 10;
#X connect 29 10 26 10;
#X connect 29 11 11 11;
#X connect 29 11 26 11;
#X connect 29 12 11 12;
#X connect 29 12 26 12;
#X connect 29 13 11 13;
#X connect 29 13 26 13;
#X connect 29 14 11 14;
#X connect 29 14 26 14;
#X connect 29 15 11 15;
#X connect 29 15 26 15;
#X connect 29 16 11 16;
#X connect 29 16 26 16;
#X connect 29 17 11 17;
#X connect 29 17 26 17;
#X connect 29 18 11 18;
#X connect 29 18 26 18;
#X connect 29 19 11 19;
#X connect 29 19 26 19;
#X connect 29 20 11 20;
#X connect 29 20 26 20;
#X connect 29 21 11 21;
#X connect 29 21 26 21;
#X connect 29 22 11 22;
#X connect 29 22 26 22;
#X connect 29 23 11 23;
#X connect 29 23 26 23;
#X connect 29 24 11 24;
#X connect 29 24 26 24;
#X connect 29 25 11 25;
#X connect 29 25 26 25;
#X connect 29 26 11 26;
#X connect 29 26 26 26;
#X connect 29 27 11 27;
#X connect 29 27 26 27;
#X connect 29 28 11 28;
#X connect 29 28 26 28;
#X connect 29 29 11 29;
#X connect 29 29 26 29;
#X connect 29 30 11 30;
#X connect 29 30 26 30;
#X connect 29 31 11 31;
#X connect 29 31 26 31;
#X connect 29 32 11 32;
#X connect 29 32 26 32;
#X connect 29 33 11 33;
#X connect 29 33 26 33;
#X connect 29 34 11 34;
#X connect 29 34 26 34;
#X connect 29 35 11 35;
#X connect 29 35 26 35;
#X connect 29 36 11 36;
#X connect 29 36 26 36;
#X connect 29 37 11 37;
#X connect 29 37 26 37;
#X connect 29 38 11 38;
#X connect 29 38 26 38;
#X connect 29 39 11 39;
#X connect 29 39 26 39;
#X connect 29 40 11 40;
#X connect 29 40 26 40;
#X connect 29 41 11 41;
#X connect 29 41 26 41;
#X connect 29 42 11 42;
#X connect 29 42 26 42;
#X connect 29 43 11 43;
#X connect 29 43 26 43;
#X connect 29 44 11 44;
#X connect 29 44 26 44;
#X connect 29 45 11 45;
#X connect 29 45 26 45;
#X connect 29 46 11 46;
#X connect 29 46 26 46;
#X connect 29 47 11 47;
#X connect 29 47 26 47;
#X connect 29 48 11 48;
#X connect 29 48 26 48;
#X connect 29 49 11 49;
#X connect 29 49 26 49;
#X connect 29 50 11 50;
#X connect 29 50 26 50;
#X connect 29 51 11 51;
#X connect 29 51 26 51;
#X connect 29 52 11 52;
#X connect 29 52 26 52;
#X connect 29 53 11 53;
#X connect 29 53 26 53;
#X connect 29 54 11 54;
#X connect 29 54 26 54;
#X connect 29 55 11 55;
#X connect 29 55 26 55;
#X connect 29 56 11 56;
#X connect 29 56 26 56;
#X connect 29 57 11 57;
#X connect 29 57 26 57;
#X connect 29 58 11 58;
#X connect 29 58 26 58;
#X connect 29 59 11 59;
#X connect 29 59 26 59;
#X connect 29 60 11 60;
#X connect 29 60 26 60;
#X connect 29 61 11 61;
#X connect 29 61 26 61;
#X connect 29 62 11 62;
#X connect 29 62 26 62;
#X connect 29 63 11 63;
#X connect 29 63 26 63;
#X connect 31 0 19 0;
#X coords 0 662 1 661 85 60 0;
