#N canvas 400 30 311 569 10;
#X obj 12 16 spam.in~ 0;
#X obj 72 528 spam.out~;
#X obj 72 482 *, f 5;
#X obj 126 387 loadbang;
#X obj 146 343 spam.in 0;
#X obj 72 453 t b f;
#X obj 146 365 route delay;
#X msg 126 409 1000;
#X obj 27 239 pack f 20;
#X obj 27 261 line~;
#X obj 12 310 delwrite~ \$0-del 5000;
#X obj 12 285 *~;
#X obj 72 433 clip 0 1;
#X obj 146 432 clip 0 5000;
#X obj 72 333 clip 0 1;
#X obj 72 355 t b f;
#X obj 72 377 f 1;
#X obj 72 399 -, f 5;
#X obj 27 36 loadbang;
#X obj 27 57 t b b b, f 27;
#N canvas 0 22 237 255 size 0;
#X obj 53 59 spam.in 0;
#X obj 53 81 route size;
#X obj 53 103 max 1;
#X obj 33 27 inlet;
#X obj 33 159 / 1, f 5;
#X obj 33 181 outlet;
#X obj 53 129 t b f;
#X connect 0 0 1 0;
#X connect 1 0 2 0;
#X connect 2 0 6 0;
#X connect 3 0 4 0;
#X connect 4 0 5 0;
#X connect 6 0 4 0;
#X connect 6 1 4 1;
#X restore 27 190 pd size;
#N canvas 0 22 450 300 scale 0;
#X obj 26 62 * 3.14129;
#X obj 26 106 + 1;
#X obj 26 40 min 1;
#X obj 26 84 cos;
#X obj 76 160 clip 0 1;
#X obj 26 17 inlet;
#X obj 76 188 outlet;
#X obj 26 128 * 0.5;
#X obj 26 188 outlet;
#X connect 0 0 3 0;
#X connect 1 0 7 0;
#X connect 2 0 0 0;
#X connect 3 0 1 0;
#X connect 4 0 6 0;
#X connect 5 0 2 0;
#X connect 7 0 4 0;
#X connect 7 0 8 0;
#X restore 27 214 pd scale;
#N canvas 571 23 696 606 delread~ 0;
#X obj 176 359 f;
#X obj 53 403 *~;
#X obj 175 405 *~;
#X obj 53 359 f;
#X obj 53 118 phasor~ 0.5;
#X obj 190 238 *~ -1;
#X obj 190 260 +~ 1;
#X obj 53 465 outlet~;
#X obj 448 48 array define \$0-env 515;
#N canvas 0 22 450 300 gen_array 0;
#N canvas 0 22 450 300 counter 0;
#X obj 66 121 until;
#X obj 66 96 f 512;
#X obj 66 146 f 0, f 8;
#X obj 146 146 + 1;
#X obj 66 46 inlet;
#X obj 66 71 t b b, f 8;
#X obj 127 96 f 0;
#X obj 66 171 outlet;
#X connect 0 0 2 0;
#X connect 1 0 0 0;
#X connect 2 0 3 0;
#X connect 2 0 7 0;
#X connect 3 0 2 1;
#X connect 4 0 5 0;
#X connect 5 0 1 0;
#X connect 5 1 6 0;
#X connect 6 0 2 1;
#X restore 48 86 pd counter;
#X obj 48 190 array set \$0-env, f 28;
#X obj 48 111 t f f, f 14;
#X obj 130 158 + 1;
#N canvas 0 22 450 300 mapcos 0;
#X obj 79 81 * 6.28319;
#X obj 79 106 - 3.14159;
#X obj 79 159 + 1;
#X obj 79 182 * 0.5;
#X obj 79 134 cos;
#X obj 79 27 inlet;
#X obj 79 207 outlet;
#X connect 0 0 1 0;
#X connect 1 0 4 0;
#X connect 2 0 3 0;
#X connect 3 0 6 0;
#X connect 4 0 2 0;
#X connect 5 0 0 0;
#X restore 48 158 pd mapcos;
#X obj 48 133 / 512;
#X msg 48 62 512;
#X obj 48 36 loadbang;
#X connect 0 0 2 0;
#X connect 2 0 5 0;
#X connect 2 1 3 0;
#X connect 3 0 1 1;
#X connect 4 0 1 0;
#X connect 5 0 4 0;
#X connect 6 0 0 0;
#X connect 7 0 6 0;
#X restore 448 24 pd gen_array;
#X obj 68 148 *~ 512;
#X obj 68 176 tabread4~ \$0-env;
#X obj 170 70 inlet;
#X obj 53 383 delread~ \$0-del 1;
#X obj 176 385 delread~ \$0-del 1;
#N canvas 0 22 505 496 switcher 0;
#X obj 95 209 samphold~;
#X obj 95 253 snapshot~;
#X obj 160 209 bang~;
#X obj 146 160 *~ 2;
#X obj 146 181 wrap~;
#X obj 95 275 change;
#X obj 95 298 bang;
#X obj 95 342 sel 0 1;
#X obj 95 320 tgl 15 0 empty empty empty 17 7 0 10 -262144 -1 -1 0
1;
#X obj 95 98 inlet~;
#X obj 145 384 outlet;
#X obj 95 384 outlet;
#X connect 0 0 1 0;
#X connect 1 0 5 0;
#X connect 2 0 1 0;
#X connect 3 0 4 0;
#X connect 4 0 0 1;
#X connect 5 0 6 0;
#X connect 6 0 8 0;
#X connect 7 0 10 0;
#X connect 7 1 11 0;
#X connect 8 0 7 0;
#X connect 9 0 0 0;
#X connect 9 0 3 0;
#X restore 53 288 pd switcher;
#X connect 0 0 14 0;
#X connect 1 0 7 0;
#X connect 2 0 7 0;
#X connect 3 0 13 0;
#X connect 4 0 10 0;
#X connect 4 0 15 0;
#X connect 5 0 6 0;
#X connect 6 0 2 1;
#X connect 10 0 11 0;
#X connect 11 0 1 1;
#X connect 11 0 5 0;
#X connect 12 0 3 1;
#X connect 12 0 0 1;
#X connect 13 0 1 0;
#X connect 14 0 2 0;
#X connect 15 0 3 0;
#X connect 15 1 0 0;
#X restore 72 504 pd delread~;
#X obj 37 112 spam.in 0;
#X msg 27 88 0 0;
#X obj 27 135 route list, f 11;
#X obj 106 86 xel.2d.get.itorc \$2 \$3 \$1;
#X obj 106 112 xel.2d.get.rctocar \$2 \$3;
#X obj 27 165 xel.2d.get.distance, f 27;
#N canvas 0 22 184 205 weight 0;
#X obj 19 14 inlet;
#X obj 19 80 / 2;
#X obj 76 80 / 2;
#X obj 19 102 - 1;
#X obj 76 102 - 1;
#X obj 19 124 pack f f, f 10;
#X obj 19 36 t b b, f 10;
#X obj 19 58 f \$2;
#X obj 76 58 f \$3;
#X obj 19 146 outlet;
#X connect 0 0 6 0;
#X connect 1 0 3 0;
#X connect 2 0 4 0;
#X connect 3 0 5 0;
#X connect 4 0 5 1;
#X connect 5 0 9 0;
#X connect 6 0 7 0;
#X connect 6 1 8 0;
#X connect 7 0 1 0;
#X connect 8 0 2 0;
#X restore 186 139 pd weight;
#X connect 0 0 11 0;
#X connect 2 0 22 0;
#X connect 3 0 7 0;
#X connect 4 0 6 0;
#X connect 5 0 2 0;
#X connect 5 1 2 1;
#X connect 6 0 13 0;
#X connect 7 0 13 0;
#X connect 8 0 9 0;
#X connect 9 0 11 1;
#X connect 11 0 10 0;
#X connect 12 0 5 0;
#X connect 13 0 2 0;
#X connect 14 0 15 0;
#X connect 15 0 16 0;
#X connect 15 1 17 1;
#X connect 16 0 17 0;
#X connect 17 0 12 0;
#X connect 18 0 19 0;
#X connect 19 0 24 0;
#X connect 19 1 26 0;
#X connect 19 2 29 0;
#X connect 20 0 21 0;
#X connect 21 0 8 0;
#X connect 21 1 14 0;
#X connect 22 0 1 0;
#X connect 23 0 25 0;
#X connect 24 0 25 0;
#X connect 25 0 28 0;
#X connect 26 0 27 0;
#X connect 27 0 28 1;
#X connect 28 0 20 0;
#X connect 29 0 28 2;
