#N canvas 684 183 235 235 10;
#X obj 21 7 inlet;
#X obj 75 7 inlet;
#X obj 54 53 unpack f f, f 17;
#X obj 153 75 t f f, f 6;
#X obj 186 97 >= 0;
#X obj 153 119 &&, f 6;
#X obj 153 97 < \$2;
#X obj 21 29 t l l, f 6;
#X obj 75 29 unpack f f, f 17;
#X obj 54 75 t f f, f 6;
#X obj 87 97 >= 0;
#X obj 54 119 &&, f 6;
#X obj 54 97 < \$1;
#X obj 54 140 &&, f 17;
#X obj 21 182 spigot;
#X obj 21 204 outlet;
#X obj 54 162 t f f;
#X obj 81 204 outlet;
#X connect 0 0 7 0;
#X connect 1 0 8 0;
#X connect 2 0 9 0;
#X connect 2 1 3 0;
#X connect 3 0 6 0;
#X connect 3 1 4 0;
#X connect 4 0 5 1;
#X connect 5 0 13 1;
#X connect 6 0 5 0;
#X connect 7 0 14 0;
#X connect 7 1 2 0;
#X connect 8 0 12 1;
#X connect 8 1 6 1;
#X connect 9 0 12 0;
#X connect 9 1 10 0;
#X connect 10 0 11 1;
#X connect 11 0 13 0;
#X connect 12 0 11 0;
#X connect 13 0 16 0;
#X connect 14 0 15 0;
#X connect 16 0 14 1;
#X connect 16 1 17 0;
