#N canvas 391 23 654 812 10;
#X obj 172 16 spam.in~;
#X obj 227 16 namecanvas \$0-xel.kernel;
#X obj 172 38 s~ \$0-in;
#X obj 172 57 loadbang;
#N canvas 1085 199 268 338 script 0;
#X obj 7 9 inlet;
#X obj 7 74 f \$0;
#X obj 70 51 * 20;
#X obj 70 73 + 10;
#X obj 7 94 pack f f f, f 11;
#X obj 7 30 t b f f, f 11;
#X msg 7 116 \; \$1-xel.kernel obj 10 \$3 pd out-\$1-\$2 \; pd-out-\$1-\$2
vis 0 \; pd-out-\$1-\$2 obj 10 10 r~ \$1-in \; pd-out-\$1-\$2 obj 25
30 r \$1-g-\$2 \; pd-out-\$1-\$2 obj 75 50 r \$1-ramp \; pd-out-\$1-\$2
obj 25 70 pack f 20 \; pd-out-\$1-\$2 obj 25 90 line~ \; pd-out-\$1-\$2
obj 10 110 *~ \; pd-out-\$1-\$2 obj 10 130 spam.out~ \$2 \; pd-out-\$1-\$2
connect 0 0 5 0 \; pd-out-\$1-\$2 connect 5 0 6 0 \; pd-out-\$1-\$2
connect 1 0 3 0 \; pd-out-\$1-\$2 connect 2 0 3 1 \; pd-out-\$1-\$2
connect 3 0 4 0 \; pd-out-\$1-\$2 connect 4 0 5 1 \;;
#X connect 0 0 5 0;
#X connect 1 0 4 0;
#X connect 2 0 3 0;
#X connect 3 0 4 2;
#X connect 4 0 6 0;
#X connect 5 0 1 0;
#X connect 5 1 4 1;
#X connect 5 2 2 0;
#X restore 172 121 pd script;
#N canvas 0 22 132 132 counter 0;
#X obj 13 29 t f b, f 7;
#X obj 13 51 until;
#X obj 52 51 f 0;
#X obj 13 73 f, f 7;
#X obj 63 73 + 1;
#X obj 13 8 inlet;
#X obj 13 95 outlet;
#X connect 0 0 1 0;
#X connect 0 1 2 0;
#X connect 1 0 3 0;
#X connect 2 0 3 1;
#X connect 3 0 4 0;
#X connect 3 0 6 0;
#X connect 4 0 3 1;
#X connect 5 0 0 0;
#X restore 172 100 pd counter;
#X obj 378 743 makefilename \$0-g-%d;
#X obj 333 765 s, f 8;
#X obj 386 236 list split 2;
#X obj 378 401 f;
#X obj 333 380 t f b, f 8;
#X obj 404 401 - 1;
#X obj 393 381 - 1;
#X obj 378 445 unpack f f, f 16;
#X obj 378 517 -;
#X obj 378 609 +;
#X obj 378 423 xel.2d.get.itorc;
#N canvas 0 22 158 113 list.elems 0;
#X obj 9 32 list split 1, f 15;
#X obj 52 54 t l;
#X obj 9 10 inlet;
#X obj 9 54 outlet;
#X connect 0 0 3 0;
#X connect 0 1 1 0;
#X connect 1 0 0 0;
#X connect 2 0 0 0;
#X restore 333 358 pd list.elems;
#X obj 413 290 unpack f f, f 16;
#X obj 471 517 -;
#X obj 471 609 +;
#X obj 393 337 *, f 16;
#X obj 393 564 xel.2d.get.itorc \$2 \$3 \$1;
#X obj 393 586 unpack f f, f 16;
#X obj 393 541 loadbang;
#X obj 393 473 / 2;
#X obj 393 495 int;
#X obj 486 473 / 2;
#X obj 486 495 int;
#X obj 386 258 t b l;
#X obj 333 335 list;
#X obj 172 78 xel.2d.get.nelems \$2 \$3;
#X obj 386 16 spam.in 0;
#N canvas 142 421 509 237 check.length 0;
#X obj 15 12 inlet;
#X obj 15 104 !=, f 8;
#X obj 15 126 sel 1;
#X msg 15 166 The kernel size is not coherent with the number of arguments!
, f 35;
#X obj 15 203 print xel.2d.syn.kernel~;
#X obj 15 54 unpack;
#X obj 15 76 *, f 6;
#X obj 118 84 % 2;
#X obj 118 106 sel 0;
#X msg 118 128 The number of lignes and the number of column in the
kernel must be odd., f 37;
#X obj 60 54 list length;
#X obj 60 76 - 2;
#X obj 15 34 t l l, f 8;
#X connect 0 0 12 0;
#X connect 1 0 2 0;
#X connect 2 0 3 0;
#X connect 3 0 4 0;
#X connect 5 0 6 0;
#X connect 5 0 7 0;
#X connect 5 1 6 1;
#X connect 5 1 7 0;
#X connect 6 0 1 0;
#X connect 7 0 8 0;
#X connect 8 0 9 0;
#X connect 9 0 4 0;
#X connect 10 0 11 0;
#X connect 11 0 1 1;
#X connect 12 0 5 0;
#X connect 12 1 10 0;
#X restore 405 214 pd check.length;
#X obj 378 631 pack f f, f 16;
#X obj 378 721 xel.2d.get.rctoi \$2 \$3;
#X obj 333 721 spigot;
#N canvas 0 22 193 198 filter.rc 0;
#X obj 34 18 inlet;
#X obj 34 40 unpack f f, f 12;
#X obj 34 62 t f f, f 6;
#X obj 34 84 >= 0;
#X obj 34 106 &&, f 6;
#X obj 67 84 < \$2;
#X obj 103 62 t f f, f 6;
#X obj 103 84 >= 0;
#X obj 103 106 &&, f 6;
#X obj 136 84 < \$3;
#X obj 34 128 &&, f 12;
#X obj 34 150 outlet;
#X connect 0 0 1 0;
#X connect 1 0 2 0;
#X connect 1 1 6 0;
#X connect 2 0 3 0;
#X connect 2 1 5 0;
#X connect 3 0 4 0;
#X connect 4 0 10 0;
#X connect 5 0 4 1;
#X connect 6 0 7 0;
#X connect 6 1 9 0;
#X connect 7 0 8 0;
#X connect 8 0 10 1;
#X connect 9 0 8 1;
#X connect 10 0 11 0;
#X restore 411 673 pd filter.rc;
#X obj 378 653 t l l, f 6;
#X obj 378 695 spigot;
#X obj 386 80 t l l b;
#N canvas 0 22 132 132 counter 0;
#X obj 13 29 t f b, f 7;
#X obj 13 51 until;
#X obj 52 51 f 0;
#X obj 13 73 f, f 7;
#X obj 63 73 + 1;
#X obj 13 8 inlet;
#X obj 13 95 outlet;
#X connect 0 0 1 0;
#X connect 0 1 2 0;
#X connect 1 0 3 0;
#X connect 2 0 3 1;
#X connect 3 0 4 0;
#X connect 3 0 6 0;
#X connect 4 0 3 1;
#X connect 5 0 0 0;
#X restore 425 126 pd counter;
#X obj 425 104 xel.2d.get.nelems \$2 \$3;
#X obj 425 192 float 0;
#X obj 425 148 makefilename \$0-g-%d;
#X msg 425 170 send \$1;
#X obj 386 38 route list ramp;
#X obj 429 59 s \$0-ramp;
#X connect 0 0 2 0;
#X connect 3 0 31 0;
#X connect 5 0 4 0;
#X connect 6 0 7 1;
#X connect 8 0 29 0;
#X connect 8 1 30 1;
#X connect 9 0 11 0;
#X connect 9 0 16 0;
#X connect 10 0 36 0;
#X connect 10 1 9 0;
#X connect 11 0 9 1;
#X connect 12 0 9 1;
#X connect 13 0 14 0;
#X connect 13 1 19 0;
#X connect 14 0 15 0;
#X connect 15 0 34 0;
#X connect 16 0 13 0;
#X connect 17 0 10 0;
#X connect 18 0 21 0;
#X connect 18 0 25 0;
#X connect 18 1 21 1;
#X connect 18 1 27 0;
#X connect 19 0 20 0;
#X connect 20 0 34 1;
#X connect 21 0 12 0;
#X connect 22 0 23 0;
#X connect 23 0 15 1;
#X connect 23 1 20 1;
#X connect 24 0 22 0;
#X connect 25 0 26 0;
#X connect 26 0 14 1;
#X connect 27 0 28 0;
#X connect 28 0 19 1;
#X connect 29 0 30 0;
#X connect 29 1 18 0;
#X connect 29 1 16 1;
#X connect 30 0 17 0;
#X connect 31 0 5 0;
#X connect 32 0 46 0;
#X connect 34 0 38 0;
#X connect 35 0 6 0;
#X connect 36 0 7 0;
#X connect 37 0 39 1;
#X connect 37 0 36 1;
#X connect 38 0 39 0;
#X connect 38 1 37 0;
#X connect 39 0 35 0;
#X connect 40 0 8 0;
#X connect 40 1 33 0;
#X connect 40 2 42 0;
#X connect 41 0 44 0;
#X connect 42 0 41 0;
#X connect 44 0 45 0;
#X connect 45 0 43 0;
#X connect 46 0 40 0;
#X connect 46 1 47 0;
