#N canvas 277 240 460 459 10;
#X obj 21 7 inlet;
#X obj 277 65 r \$0-nelems;
#X obj 276 17 r \$0-array;
#X obj 276 41 array define \$0-values;
#X obj 277 87 array size \$0-values;
#X obj 21 29 route matrix list;
#N canvas 0 22 159 127 do.iter 0;
#X obj 7 32 list split 1;
#X obj 87 32 list;
#X obj 7 54 t b f;
#X obj 7 9 inlet;
#X obj 34 76 outlet;
#X connect 0 0 2 0;
#X connect 0 1 1 1;
#X connect 1 0 0 0;
#X connect 2 0 1 0;
#X connect 2 1 4 0;
#X connect 3 0 0 0;
#X restore 48 247 pd do.iter;
#X obj 48 84 list split 2;
#X obj 48 131 list, f 5;
#X obj 48 106 t b l, f 21;
#X obj 48 153 t l l, f 6;
#X obj 48 199 spigot;
#N canvas 0 22 450 228 check.size 0;
#X obj 44 67 list length;
#X obj 44 109 ==;
#X obj 59 89 r \$0-nelems;
#X obj 17 14 inlet;
#X obj 44 131 outlet;
#X obj 90 131 sel 0;
#X msg 17 58 0;
#X obj 17 36 route bang;
#X obj 17 170 s \$0-out;
#X obj 31 202 s \$0-array;
#X msg 26 150 const 0;
#X msg 90 153 matrix sizes and the number of elements are not coherents
;
#X obj 90 175 print xel.2d.mat;
#X connect 0 0 1 0;
#X connect 1 0 4 0;
#X connect 1 0 5 0;
#X connect 2 0 1 1;
#X connect 3 0 7 0;
#X connect 5 0 11 0;
#X connect 6 0 4 0;
#X connect 6 0 10 0;
#X connect 7 0 6 0;
#X connect 7 0 8 0;
#X connect 7 1 0 0;
#X connect 10 0 9 0;
#X connect 11 0 12 0;
#X restore 81 176 pd check.size;
#N canvas 0 22 261 257 check.size 0;
#X obj 12 12 inlet;
#X obj 12 34 unpack f f;
#X obj 12 61 >= 0;
#X obj 69 61 >= 0;
#X obj 12 85 &&, f 10;
#X obj 12 177 outlet;
#X obj 32 107 sel 0;
#X msg 32 129 matrix sizes can't be negatives;
#X obj 32 151 print xel.2d.mat;
#X connect 0 0 1 0;
#X connect 1 0 2 0;
#X connect 1 1 3 0;
#X connect 2 0 4 0;
#X connect 3 0 4 1;
#X connect 4 0 5 0;
#X connect 4 0 6 0;
#X connect 6 0 7 0;
#X connect 7 0 8 0;
#X restore 204 165 pd check.size;
#X obj 171 142 t l l, f 6;
#X obj 171 187 spigot;
#X obj 171 229 unpack f f;
#X obj 171 251 *, f 10;
#X obj 171 274 s \$0-nelems;
#X obj 184 208 s \$0-size;
#N canvas 0 22 319 160 do.output 0;
#X obj 16 109 outlet;
#X obj 16 87 list trim;
#X obj 16 65 list prepend matrix \$1 \$2;
#X obj 163 22 r \$0-size;
#X msg 163 44 matrix \$1 \$2;
#X obj 16 45 array get \$0-values;
#X obj 16 24 inlet;
#X connect 1 0 0 0;
#X connect 2 0 1 0;
#X connect 3 0 4 0;
#X connect 4 0 2 1;
#X connect 5 0 2 0;
#X connect 6 0 5 0;
#X restore 21 393 pd do.output;
#X obj 21 415 outlet;
#X obj 75 295 f;
#X obj 103 295 + 1;
#X obj 90 269 f 0;
#X obj 48 221 t l b, f 7;
#X obj 48 269 t f b;
#X obj 48 345 clip \$1 \$2;
#X obj 48 369 array set \$0-values;
#X obj 76 321 unpack;
#X obj 21 51 t b l;
#X connect 0 0 5 0;
#X connect 1 0 4 0;
#X connect 2 0 3 0;
#X connect 5 0 30 0;
#X connect 5 1 29 0;
#X connect 6 0 26 0;
#X connect 7 0 9 0;
#X connect 7 1 8 1;
#X connect 8 0 10 0;
#X connect 9 0 8 0;
#X connect 9 1 14 0;
#X connect 10 0 11 0;
#X connect 10 1 12 0;
#X connect 11 0 25 0;
#X connect 12 0 11 1;
#X connect 13 0 15 1;
#X connect 14 0 15 0;
#X connect 14 1 13 0;
#X connect 15 0 16 0;
#X connect 15 0 19 0;
#X connect 16 0 17 0;
#X connect 16 1 17 1;
#X connect 17 0 18 0;
#X connect 20 0 21 0;
#X connect 22 0 23 0;
#X connect 22 0 28 1;
#X connect 23 0 22 1;
#X connect 24 0 22 1;
#X connect 25 0 6 0;
#X connect 25 1 24 0;
#X connect 26 0 27 0;
#X connect 26 1 22 0;
#X connect 27 0 28 0;
#X connect 29 0 27 1;
#X connect 29 1 27 2;
#X connect 30 0 20 0;
#X connect 30 1 7 0;
