#N canvas 216 416 811 292 10;
#X obj 25 235 outlet~;
#N canvas 0 22 181 233 gain~ 0;
#X obj 62 92 dbtorms;
#X msg 62 115 \$1 20;
#X obj 62 140 line~;
#X obj 47 161 *~;
#X obj 62 72 clip 0 120;
#X obj 62 50 r \$0-gain;
#X obj 47 25 inlet~;
#X obj 47 183 outlet~;
#X connect 0 0 1 0;
#X connect 1 0 2 0;
#X connect 2 0 3 1;
#X connect 3 0 7 0;
#X connect 4 0 0 0;
#X connect 5 0 4 0;
#X connect 6 0 3 0;
#X restore 25 143 pd gain~;
#N canvas 616 32 493 300 noise.gui 0;
#X obj 52 31 nbx 5 14 0 22050 0 0 \$0-noiselowpass \$0-noiselowpassi
empty 0 -8 0 10 -262144 -1 -1 22050 256;
#X obj 122 31 nbx 5 14 0 20 0 0 \$0-noisepulserate \$0-noisepulseratei
empty 0 -8 0 10 -262144 -1 -1 3 256;
#X obj 12 83 loadbang;
#X msg 12 105 3;
#X obj 12 127 s \$0-noisepulseratei;
#X obj 139 127 s \$0-noiselowpassi;
#X msg 139 105 22050;
#X obj 192 31 nbx 5 14 0 10 0 0 \$0-noisepulseratio \$0-noisepulseratioi
empty 0 -8 0 10 -262144 -1 -1 0 256;
#X obj 255 127 s \$0-noisepulseratioi;
#X obj 15 31 tgl 14 0 \$0-noisestate \$0-noisestatei empty 17 7 0 10
-262144 -1 -1 0 1;
#X text 13 12 Noise;
#X msg 388 104 1;
#X obj 388 127 s \$0-noisestatei;
#X obj 35 163 r \$0-noisestate;
#X obj 35 229 s \$0-globalstate;
#X obj 165 163 r \$0-globalstate;
#X obj 165 185 sel 0, f 8;
#X msg 210 207 set 0;
#X obj 210 229 s \$0-noisestatei;
#X text 191 12 Pulse ratio;
#X text 121 12 Pulse rate;
#X text 176 30 Hz;
#X text 106 30 Hz;
#X obj 35 185 sel 0 1;
#X obj 35 207 f -1;
#X obj 65 207 f 0;
#X text 51 12 Lowpass;
#X msg 255 104 0;
#X msg 165 207 set 1;
#X connect 2 0 3 0;
#X connect 2 0 6 0;
#X connect 2 0 27 0;
#X connect 2 0 11 0;
#X connect 3 0 4 0;
#X connect 6 0 5 0;
#X connect 11 0 12 0;
#X connect 13 0 23 0;
#X connect 15 0 16 0;
#X connect 16 0 28 0;
#X connect 16 1 17 0;
#X connect 17 0 18 0;
#X connect 23 0 24 0;
#X connect 23 1 25 0;
#X connect 24 0 14 0;
#X connect 25 0 14 0;
#X connect 27 0 8 0;
#X connect 28 0 18 0;
#X coords 0 -1 1 1 252 40 2 10 10;
#X restore 250 50 pd noise.gui;
#N canvas 363 27 450 405 noise.process~ 0;
#X obj 96 34 r \$0-globalstate;
#X obj 43 319 lop~ 2000;
#X obj 94 295 r \$0-noiselowpass;
#X obj 43 341 outlet~;
#X obj 43 33 noise~;
#X obj 96 77 switch~;
#X obj 96 56 == 0;
#X obj 43 268 *~, f 9;
#X obj 94 151 *~;
#X obj 94 237 clip~ 0 1;
#X obj 94 106 r \$0-noisepulserate;
#X obj 169 144 r \$0-noisepulseratio;
#X obj 94 129 osc~ 0;
#X obj 94 193 *~ 0, f 7;
#X obj 94 215 -~ 0, f 13;
#X obj 169 166 - 1;
#X connect 0 0 6 0;
#X connect 1 0 3 0;
#X connect 2 0 1 1;
#X connect 4 0 7 0;
#X connect 6 0 5 0;
#X connect 7 0 1 0;
#X connect 8 0 13 0;
#X connect 9 0 7 1;
#X connect 10 0 12 0;
#X connect 11 0 15 0;
#X connect 11 0 13 1;
#X connect 12 0 8 0;
#X connect 12 0 8 1;
#X connect 13 0 14 0;
#X connect 14 0 9 0;
#X connect 15 0 14 1;
#X restore 25 12 pd noise.process~;
#N canvas 616 32 493 271 sinus.gui 0;
#X obj 52 31 nbx 5 14 0 22050 0 0 \$0-sinusfreq \$0-sinusfreqi empty
0 -8 0 10 -262144 -1 -1 220 256;
#X obj 122 31 nbx 5 14 0 20 0 0 \$0-sinuspulserate \$0-sinuspulseratei
empty 0 -8 0 10 -262144 -1 -1 3 256;
#X obj 12 83 loadbang;
#X msg 12 105 3;
#X obj 192 31 nbx 5 14 0 10 0 0 \$0-sinuspulseratio \$0-sinuspulseratioi
empty 0 -8 0 10 -262144 -1 -1 0 256;
#X obj 15 31 tgl 14 0 \$0-sinusstate \$0-sinusstatei empty 17 7 0 10
-262144 -1 -1 0 1;
#X obj 35 229 s \$0-globalstate;
#X obj 165 163 r \$0-globalstate;
#X msg 204 206 set 0;
#X text 191 12 Pulse ratio;
#X text 121 12 Pulse rate;
#X text 176 30 Hz;
#X text 106 30 Hz;
#X obj 35 185 sel 0 1;
#X obj 35 207 f -1;
#X text 13 12 Sinus;
#X text 51 12 Frequency;
#X obj 388 127 s \$0-sinusstatei;
#X obj 139 127 s \$0-sinusfreqi;
#X msg 139 105 220;
#X obj 35 163 r \$0-sinusstate;
#X obj 65 207 f 1;
#X obj 165 185 sel 1, f 7;
#X obj 204 228 s \$0-sinusstatei;
#X obj 255 127 s \$0-sinuspulseratioi;
#X msg 388 104 0;
#X obj 12 127 s \$0-sinuspulseratei;
#X msg 255 104 0;
#X msg 165 206 set 1;
#X connect 2 0 3 0;
#X connect 2 0 19 0;
#X connect 2 0 27 0;
#X connect 2 0 25 0;
#X connect 3 0 26 0;
#X connect 7 0 22 0;
#X connect 8 0 23 0;
#X connect 13 0 14 0;
#X connect 13 1 21 0;
#X connect 14 0 6 0;
#X connect 19 0 18 0;
#X connect 20 0 13 0;
#X connect 21 0 6 0;
#X connect 22 0 28 0;
#X connect 22 1 8 0;
#X connect 25 0 17 0;
#X connect 27 0 24 0;
#X connect 28 0 23 0;
#X coords 0 -1 1 1 252 40 2 10 10;
#X restore 250 90 pd sinus.gui;
#N canvas 0 22 299 346 sinus.process~ 0;
#X obj 17 36 osc~ 0;
#X obj 116 14 r \$0-globalstate;
#X obj 116 57 switch~;
#X obj 116 36 == 1;
#X obj 17 268 *~, f 9;
#X obj 68 151 *~;
#X obj 68 237 clip~ 0 1;
#X obj 68 129 osc~ 0;
#X obj 68 193 *~ 0, f 7;
#X obj 68 215 -~ 0, f 13;
#X obj 143 166 - 1;
#X obj 17 290 outlet~;
#X obj 68 106 r \$0-sinuspulserate;
#X obj 143 144 r \$0-sinuspulseratio;
#X obj 17 14 r \$0-sinusfreq;
#X connect 0 0 4 0;
#X connect 1 0 3 0;
#X connect 3 0 2 0;
#X connect 4 0 11 0;
#X connect 5 0 8 0;
#X connect 6 0 4 1;
#X connect 7 0 5 0;
#X connect 7 0 5 1;
#X connect 8 0 9 0;
#X connect 9 0 6 0;
#X connect 10 0 9 1;
#X connect 12 0 7 0;
#X connect 13 0 10 0;
#X connect 13 0 8 1;
#X connect 14 0 0 0;
#X restore 35 35 pd sinus.process~;
#N canvas 616 32 493 257 saw.gui 0;
#X obj 52 31 nbx 5 14 0 22050 0 0 \$0-sawfreq \$0-sawfreqi empty 0
-8 0 10 -262144 -1 -1 220 256;
#X obj 122 31 nbx 5 14 0 20 0 0 \$0-sawpulserate \$0-sawpulseratei
empty 0 -8 0 10 -262144 -1 -1 3 256;
#X obj 12 83 loadbang;
#X msg 12 105 3;
#X obj 192 31 nbx 5 14 0 10 0 0 \$0-sawpulseratio \$0-sawpulseratioi
empty 0 -8 0 10 -262144 -1 -1 0 256;
#X obj 15 31 tgl 14 0 \$0-sawstate \$0-sawstatei empty 17 7 0 10 -262144
-1 -1 0 1;
#X obj 35 229 s \$0-globalstate;
#X obj 165 163 r \$0-globalstate;
#X msg 204 206 set 0;
#X text 191 12 Pulse ratio;
#X text 121 12 Pulse rate;
#X text 176 30 Hz;
#X text 106 30 Hz;
#X obj 35 207 f -1;
#X text 51 12 Frequency;
#X msg 139 105 220;
#X msg 388 104 0;
#X msg 255 104 0;
#X text 13 12 Saw;
#X obj 12 127 s \$0-sawpulseratei;
#X obj 35 163 r \$0-sawstate;
#X obj 35 185 sel 0 1;
#X obj 65 207 f 2;
#X obj 204 228 s \$0-sawstatei;
#X obj 139 127 s \$0-sawfreqi;
#X obj 255 127 s \$0-sawpulseratioi;
#X obj 388 127 s \$0-sawstatei;
#X obj 165 185 sel 2, f 7;
#X msg 165 206 set 1;
#X connect 2 0 3 0;
#X connect 2 0 15 0;
#X connect 2 0 17 0;
#X connect 2 0 16 0;
#X connect 3 0 19 0;
#X connect 7 0 27 0;
#X connect 8 0 23 0;
#X connect 13 0 6 0;
#X connect 15 0 24 0;
#X connect 16 0 26 0;
#X connect 17 0 25 0;
#X connect 20 0 21 0;
#X connect 21 0 13 0;
#X connect 21 1 22 0;
#X connect 22 0 6 0;
#X connect 27 0 28 0;
#X connect 27 1 8 0;
#X connect 28 0 23 0;
#X coords 0 -1 1 1 252 40 2 10 10;
#X restore 250 130 pd saw.gui;
#N canvas 0 22 299 346 saw.process~ 0;
#X obj 116 14 r \$0-globalstate;
#X obj 116 57 switch~;
#X obj 17 268 *~, f 9;
#X obj 68 151 *~;
#X obj 68 237 clip~ 0 1;
#X obj 68 129 osc~ 0;
#X obj 68 193 *~ 0, f 7;
#X obj 68 215 -~ 0, f 13;
#X obj 143 166 - 1;
#X obj 17 290 outlet~;
#X obj 17 14 r \$0-sawfreq;
#X obj 116 36 == 2;
#X obj 143 144 r \$0-sawpulseratio;
#X obj 68 106 r \$0-sawpulserate;
#X obj 17 36 phasor~ 0;
#X connect 0 0 11 0;
#X connect 2 0 9 0;
#X connect 3 0 6 0;
#X connect 4 0 2 1;
#X connect 5 0 3 0;
#X connect 5 0 3 1;
#X connect 6 0 7 0;
#X connect 7 0 4 0;
#X connect 8 0 7 1;
#X connect 10 0 14 0;
#X connect 11 0 1 0;
#X connect 12 0 8 0;
#X connect 12 0 6 1;
#X connect 13 0 5 0;
#X connect 14 0 2 0;
#X restore 49 59 pd saw.process~;
#N canvas 0 22 454 356 sf.process~ 0;
#X obj 116 14 r \$0-globalstate;
#X obj 116 57 switch~;
#X obj 6 290 outlet~;
#X obj 116 36 == 3;
#X obj 6 152 t f b;
#X obj 129 283 f 0;
#X obj 80 105 openpanel;
#X obj 80 155 list trim;
#X obj 80 130 list prepend set open;
#X obj 6 209 readsf~ 1, f 21;
#X obj 129 230 bang;
#X msg 33 178 open /Users/Pierre/GitHub/Cours/2016-2017/CES/Sounds/Sound3.wav
;
#X obj 80 80 r \$0-sfopen;
#X obj 6 130 r \$0-sfplay;
#X obj 144 250 r \$0-sfloop;
#X obj 129 307 s \$0-sfplayi;
#X connect 0 0 3 0;
#X connect 3 0 1 0;
#X connect 4 0 9 0;
#X connect 4 1 11 0;
#X connect 5 0 15 0;
#X connect 6 0 8 0;
#X connect 7 0 11 0;
#X connect 8 0 7 0;
#X connect 9 0 2 0;
#X connect 9 1 10 0;
#X connect 10 0 5 0;
#X connect 11 0 9 0;
#X connect 12 0 6 0;
#X connect 13 0 4 0;
#X connect 14 0 5 1;
#X restore 59 84 pd sf.process~;
#N canvas 822 38 493 257 sf.gui 0;
#X obj 15 31 tgl 14 0 \$0-sfstate \$0-sfstatei empty 17 7 0 10 -262144
-1 -1 0 1;
#X obj 35 229 s \$0-globalstate;
#X obj 165 163 r \$0-globalstate;
#X msg 204 206 set 0;
#X obj 35 207 f -1;
#X obj 35 185 sel 0 1;
#X obj 74 31 bng 14 250 50 0 \$0-sfopen \$0-dummmy empty 17 7 0 10
-262144 -1 -1;
#X obj 104 31 tgl 14 0 \$0-sfplay \$0-sfplayi empty 17 7 0 10 -262144
-1 -1 0 1;
#X obj 165 31 tgl 14 0 \$0-sfloop \$0-dummmy empty 17 7 0 10 -262144
-1 -1 0 1;
#X text 71 12 Open;
#X text 101 12 Play/Stop;
#X text 161 12 Loop;
#X text 13 12 SoundFile;
#X obj 65 207 f 3;
#X obj 165 185 sel 3, f 7;
#X obj 204 228 s \$0-sfstatei;
#X obj 35 163 r \$0-sfstate;
#X msg 165 206 set 1;
#X connect 2 0 14 0;
#X connect 3 0 15 0;
#X connect 4 0 1 0;
#X connect 5 0 4 0;
#X connect 5 1 13 0;
#X connect 13 0 1 0;
#X connect 14 0 17 0;
#X connect 14 1 3 0;
#X connect 16 0 5 0;
#X connect 17 0 15 0;
#X coords 0 -1 1 1 252 40 2 10 10;
#X restore 250 170 pd sf.gui;
#N canvas 0 23 260 299 volume.gui 0;
#X obj 19 -42 receive~ \$0-output;
#X obj 17 148 nbx 4 15 0 120 0 0 \$0-gain \$0-gaini empty 0 -8 0 10
-262144 -1 -1 0 256;
#X text 16 34 Gain dB;
#X obj 48 55 vsl 14 79 0 120 0 0 \$0-gaini \$0-gaini2 empty 0 -9 0
10 -262144 -1 -1 0 1;
#X msg 76 124 set \$1;
#X obj 76 146 s \$0-gaini2;
#X obj 20 55 vu 12 80 empty empty 0 0 0 4 -262144 -262144 1 0;
#X obj 19 2 - 100;
#X obj 19 -19 env~;
#X connect 0 0 8 0;
#X connect 1 0 4 0;
#X connect 4 0 5 0;
#X connect 7 0 6 0;
#X connect 8 0 7 0;
#X coords 0 -1 1 1 60 140 2 10 30;
#X restore 502 50 pd volume.gui;
#X obj 84 234 send~ \$0-output;
#X obj 583 19 inlet;
#X obj 583 41 route source gain;
#X obj 632 64 s \$0-gaini;
#X obj 583 88 s \$0-globalstate;
#N canvas 822 38 493 257 sf.gui 0;
#X obj 35 229 s \$0-globalstate;
#X obj 165 163 r \$0-globalstate;
#X msg 204 206 set 0;
#X obj 35 207 f -1;
#X obj 35 185 sel 0 1;
#X obj 15 31 tgl 14 0 \$0-usstate \$0-usstatei empty 17 7 0 10 -262144
-1 -1 0 1;
#X text 13 12 Unitary signal;
#X obj 122 31 nbx 5 14 -20 20 0 0 \$0-usvalue \$0-usvaluei empty 0
-8 0 10 -262144 -1 -1 0 256;
#X obj 65 207 f 4;
#X obj 165 185 sel 4, f 7;
#X obj 204 228 s \$0-usstatei;
#X obj 35 163 r \$0-usstate;
#X text 121 12 Value;
#X msg 165 206 set 1;
#X connect 1 0 9 0;
#X connect 2 0 10 0;
#X connect 3 0 0 0;
#X connect 4 0 3 0;
#X connect 4 1 8 0;
#X connect 8 0 0 0;
#X connect 9 0 13 0;
#X connect 9 1 2 0;
#X connect 11 0 4 0;
#X connect 13 0 10 0;
#X coords 0 -1 1 1 252 40 2 10 10;
#X restore 250 210 pd sf.gui;
#N canvas 0 22 454 356 us.process~ 0;
#X obj 116 14 r \$0-globalstate;
#X obj 116 57 switch~;
#X obj 6 290 outlet~;
#X obj 116 36 == 4;
#X obj 6 259 sig~ 0;
#X obj 6 219 r \$0-usvalue;
#X connect 0 0 3 0;
#X connect 3 0 1 0;
#X connect 4 0 2 0;
#X connect 5 0 4 0;
#X restore 69 114 pd us.process~;
#X obj 164 51 vradio 15 1 0 5 empty empty empty 0 -8 0 10 -262144 -1
-1 0;
#X text 181 50 Noise;
#X text 181 81 Saw;
#X text 181 95 Sound-File;
#X text 181 111 Unit-Signal;
#X text 181 65 Cosine;
#X connect 1 0 0 0;
#X connect 1 0 11 0;
#X connect 3 0 1 0;
#X connect 5 0 1 0;
#X connect 7 0 1 0;
#X connect 8 0 1 0;
#X connect 12 0 13 0;
#X connect 13 0 15 0;
#X connect 13 1 14 0;
#X connect 17 0 1 0;
#X coords 0 -1 1 1 312 200 2 250 50;
