#N canvas 363 61 774 718 10;
#X obj 48 13 inlet;
#X obj 279 6 inlet parameters;
#X obj 336 108 route positions blur rolloff, f 34;
#X obj 466 372 s \$0-blur;
#X obj 533 227 s \$0-a;
#X obj 363 453 list length;
#X obj 336 619 array set \$0-positions;
#X obj 363 595 array size \$0-positions;
#X text 587 210 a = R/(20*log10(2)) ~ 6.0206;
#X obj 533 204 / 6.0206;
#X obj 336 393 t l l;
#X obj 537 155 print xel.2d.proj.dbap;
#X msg 537 129 \$1 is a wrong message;
#X obj 403 423 print xel.2d.proj.dbap;
#X msg 403 397 blur must be positive;
#X obj 470 273 print xel.2d.proj.dbap;
#X msg 470 247 rolloff must be positive;
#X obj 466 326 t f f;
#X obj 466 348 *, f 5;
#X obj 373 551 / 2;
#X obj 429 477 % 2;
#X obj 429 543 print xel.2d.proj.dbap;
#X msg 429 521 number of coordinates must be even;
#X obj 373 574 array size \$0-coefficients;
#N canvas 0 22 234 516 compute.distances 0;
#X obj 51 61 t b l, f 6;
#X obj 51 153 until;
#X obj 51 175 f, f 7;
#X obj 90 153 f 0;
#X obj 51 247 array get \$0-positions;
#X obj 115 200 loadbang;
#X msg 115 222 2;
#X obj 51 293 -, f 6;
#X obj 51 315 t f f;
#X obj 51 337 *, f 5;
#X obj 108 293 -, f 6;
#X obj 108 315 t f f;
#X obj 108 337 *, f 5;
#X obj 51 359 +, f 10;
#X obj 90 381 r \$0-blur;
#X obj 84 82 unpack f f;
#X obj 51 269 unpack f f;
#X obj 51 426 sqrt;
#X obj 51 197 t f f;
#X obj 51 219 * 2;
#X obj 51 101 array size \$0-coefficients;
#X obj 51 450 array set \$0-coefficients;
#X obj 24 14 inlet;
#X obj 101 175 + 1;
#X obj 51 127 t f b, f 7;
#X obj 24 36 t b l;
#X obj 24 478 outlet;
#X obj 51 404 + 0.001;
#X connect 0 0 20 0;
#X connect 0 1 15 0;
#X connect 1 0 2 0;
#X connect 2 0 23 0;
#X connect 2 0 18 0;
#X connect 3 0 2 1;
#X connect 4 0 16 0;
#X connect 5 0 6 0;
#X connect 6 0 4 1;
#X connect 7 0 8 0;
#X connect 8 0 9 0;
#X connect 8 1 9 1;
#X connect 9 0 13 0;
#X connect 10 0 11 0;
#X connect 11 0 12 0;
#X connect 11 1 12 1;
#X connect 12 0 13 1;
#X connect 13 0 27 0;
#X connect 14 0 27 1;
#X connect 15 0 7 1;
#X connect 15 1 10 1;
#X connect 16 0 7 0;
#X connect 16 1 10 0;
#X connect 17 0 21 0;
#X connect 18 0 19 0;
#X connect 18 1 21 1;
#X connect 19 0 4 0;
#X connect 20 0 24 0;
#X connect 22 0 25 0;
#X connect 23 0 2 1;
#X connect 24 0 1 0;
#X connect 24 1 3 0;
#X connect 25 0 26 0;
#X connect 25 1 0 0;
#X connect 27 0 17 0;
#X restore 118 81 pd compute.distances;
#N canvas 0 22 216 540 compute.normalization 0;
#X obj 69 131 until;
#X obj 69 153 f, f 7;
#X obj 108 131 f 0;
#X obj 119 153 + 1;
#X obj 69 83 array size \$0-coefficients;
#X obj 69 247 array get \$0-coefficients;
#X obj 142 202 loadbang;
#X msg 142 224 1;
#X obj 108 269 r \$0-a;
#X obj 69 313 pow 2, f 7;
#X obj 108 291 * 2;
#X msg 69 335 1 \$1;
#X obj 69 357 /;
#X obj 69 379 +, f 5;
#X obj 118 379 f;
#X obj 96 358 f 0;
#X msg 42 442 1 \$1;
#X obj 42 464 /;
#X obj 42 422 sqrt;
#X obj 42 402 f, f 5;
#X obj 69 57 t b b;
#X obj 42 14 inlet;
#X obj 42 486 outlet;
#X obj 42 36 t b b;
#X obj 69 105 t f b, f 7;
#X connect 0 0 1 0;
#X connect 1 0 3 0;
#X connect 1 0 5 0;
#X connect 2 0 1 1;
#X connect 3 0 1 1;
#X connect 4 0 24 0;
#X connect 5 0 9 0;
#X connect 6 0 7 0;
#X connect 7 0 5 1;
#X connect 8 0 10 0;
#X connect 9 0 11 0;
#X connect 10 0 9 1;
#X connect 11 0 12 0;
#X connect 12 0 13 0;
#X connect 13 0 14 0;
#X connect 13 0 19 1;
#X connect 14 0 13 1;
#X connect 15 0 13 1;
#X connect 16 0 17 0;
#X connect 17 0 22 0;
#X connect 18 0 16 0;
#X connect 19 0 18 0;
#X connect 20 0 4 0;
#X connect 20 1 15 0;
#X connect 21 0 23 0;
#X connect 23 0 19 0;
#X connect 23 1 20 0;
#X connect 24 0 0 0;
#X connect 24 1 2 0;
#X restore 118 103 pd compute.normalization;
#N canvas 0 22 248 473 compute.gains 0;
#X obj 32 118 until;
#X obj 32 140 f, f 7;
#X obj 71 118 f 0;
#X obj 82 140 + 1;
#X obj 32 70 array size \$0-coefficients;
#X obj 32 214 array get \$0-coefficients;
#X obj 105 169 loadbang;
#X msg 105 191 1;
#X obj 32 44 t b f, f 8;
#X obj 32 255 pow 1;
#X obj 59 234 r \$0-a;
#X obj 32 320 /, f 5;
#X obj 32 162 t f f;
#X obj 32 92 t f b, f 7;
#X obj 32 344 array set \$0-coefficients;
#X obj 32 18 inlet;
#X obj 32 297 f, f 8;
#X obj 32 277 t b f;
#X connect 0 0 1 0;
#X connect 1 0 3 0;
#X connect 1 0 12 0;
#X connect 2 0 1 1;
#X connect 3 0 1 1;
#X connect 4 0 13 0;
#X connect 5 0 9 0;
#X connect 6 0 7 0;
#X connect 7 0 5 1;
#X connect 8 0 4 0;
#X connect 8 1 16 1;
#X connect 9 0 17 0;
#X connect 10 0 9 1;
#X connect 11 0 14 0;
#X connect 12 0 5 0;
#X connect 12 1 14 1;
#X connect 13 0 0 0;
#X connect 13 1 2 0;
#X connect 15 0 8 0;
#X connect 16 0 11 0;
#X connect 17 0 16 0;
#X connect 17 1 11 1;
#X restore 118 125 pd compute.gains;
#X obj 48 148 array get \$0-coefficients;
#X obj 48 170 outlet;
#X obj 429 499 sel 1;
#X obj 48 35 route bang list;
#X obj 91 57 t b l;
#X obj 442 17 array define \$0-positions 1;
#X obj 442 37 array define \$0-coefficients 1;
#X obj 470 182 moses 0.001;
#X obj 403 302 moses 1e-07;
#N canvas 0 22 223 221 get.args 0;
#X obj 14 8 loadbang;
#N canvas 0 22 450 300 has.sym.arg 0;
#X obj 21 17 inlet;
#X msg 21 61 \$1;
#X obj 21 126 outlet;
#X msg 21 104 1;
#X msg 66 104 0;
#X obj 21 39 symbol \$1;
#X obj 21 82 route \$1;
#X connect 0 0 5 0;
#X connect 1 0 6 0;
#X connect 3 0 2 0;
#X connect 4 0 2 0;
#X connect 5 0 1 0;
#X connect 6 0 3 0;
#X connect 6 1 4 0;
#X restore 95 50 pd has.sym.arg;
#X obj 14 74 spigot 0, f 14;
#X obj 14 96 outlet;
#X obj 14 50 symbol \$1;
#X obj 14 29 t b b, f 14;
#X connect 0 0 5 0;
#X connect 1 0 2 1;
#X connect 2 0 3 0;
#X connect 4 0 2 0;
#X connect 5 0 4 0;
#X connect 5 1 1 0;
#X restore 289 48 pd get.args;
#N canvas 96 153 336 179 to.list 0;
#X obj 108 8 inlet;
#X obj 108 128 outlet;
#N canvas 455 285 312 197 get.text 0;
#X obj 8 31 unpack s s;
#X obj 8 11 inlet;
#X obj 8 167 outlet;
#X obj 8 101 text search, f 15;
#X obj 8 123 text get, f 12;
#X obj 8 79 symbol, f 10;
#X obj 8 53 t b s;
#X obj 8 145 list trim, f 13;
#X connect 0 0 6 0;
#X connect 0 1 5 1;
#X connect 1 0 0 0;
#X connect 3 0 4 0;
#X connect 4 0 7 0;
#X connect 5 0 3 0;
#X connect 6 0 5 0;
#X connect 6 1 3 1;
#X connect 6 1 4 3;
#X connect 7 0 2 0;
#X restore 8 85 pd get.text;
#X msg 8 60 \$1 positions;
#N canvas 455 285 312 197 get.text 0;
#X obj 8 31 unpack s s;
#X obj 8 11 inlet;
#X obj 8 101 text search, f 15;
#X obj 8 123 text get, f 12;
#X obj 8 79 symbol, f 10;
#X obj 8 53 t b s;
#X obj 8 145 list trim, f 13;
#X obj 8 167 outlet;
#X connect 0 0 5 0;
#X connect 0 1 4 1;
#X connect 1 0 0 0;
#X connect 2 0 3 0;
#X connect 3 0 6 0;
#X connect 4 0 2 0;
#X connect 5 0 4 0;
#X connect 5 1 2 1;
#X connect 5 1 3 3;
#X connect 6 0 7 0;
#X restore 108 85 pd get.text;
#X msg 108 60 \$1 blur;
#N canvas 455 285 312 197 get.text 0;
#X obj 8 31 unpack s s;
#X obj 8 11 inlet;
#X obj 8 167 outlet;
#X obj 8 101 text search, f 15;
#X obj 8 123 text get, f 12;
#X obj 8 79 symbol, f 10;
#X obj 8 53 t b s;
#X obj 8 145 list trim, f 13;
#X connect 0 0 6 0;
#X connect 0 1 5 1;
#X connect 1 0 0 0;
#X connect 3 0 4 0;
#X connect 4 0 7 0;
#X connect 5 0 3 0;
#X connect 6 0 5 0;
#X connect 6 1 3 1;
#X connect 6 1 4 3;
#X connect 7 0 2 0;
#X restore 188 85 pd get.text;
#X msg 188 60 \$1 rolloff;
#X obj 108 31 symbol;
#X connect 0 0 8 0;
#X connect 2 0 1 0;
#X connect 3 0 2 0;
#X connect 4 0 1 0;
#X connect 5 0 4 0;
#X connect 6 0 1 0;
#X connect 7 0 6 0;
#X connect 8 0 7 0;
#X connect 8 0 5 0;
#X connect 8 0 3 0;
#X restore 279 72 pd to.list;
#X obj 279 28 route text;
#X connect 0 0 30 0;
#X connect 1 0 38 0;
#X connect 2 0 10 0;
#X connect 2 1 35 0;
#X connect 2 2 34 0;
#X connect 2 3 12 0;
#X connect 5 0 7 0;
#X connect 5 0 19 0;
#X connect 5 0 20 0;
#X connect 9 0 4 0;
#X connect 10 0 6 0;
#X connect 10 1 5 0;
#X connect 12 0 11 0;
#X connect 14 0 13 0;
#X connect 16 0 15 0;
#X connect 17 0 18 0;
#X connect 17 1 18 1;
#X connect 18 0 3 0;
#X connect 19 0 23 0;
#X connect 20 0 29 0;
#X connect 22 0 21 0;
#X connect 24 0 25 0;
#X connect 25 0 26 0;
#X connect 27 0 28 0;
#X connect 29 0 22 0;
#X connect 30 0 27 0;
#X connect 30 1 31 0;
#X connect 31 0 27 0;
#X connect 31 1 24 0;
#X connect 34 0 16 0;
#X connect 34 1 9 0;
#X connect 35 0 14 0;
#X connect 35 1 17 0;
#X connect 36 0 37 0;
#X connect 37 0 2 0;
#X connect 38 0 37 0;
#X connect 38 1 2 0;
