#N canvas 0 22 450 300 10;
#X text 11 13 DSP State;
#X obj 202 89 receive pd;
#X obj 73 13 tgl 15 0 \$0-dsps \$0-dspr empty 17 7 0 10 -262144 -1
-1 1 1;
#X obj 115 206 r \$0-dsps;
#X msg 115 228 \; pd dsp \$1;
#X obj 202 228 s \$0-dspr;
#X msg 202 208 set \$1;
#X obj 202 184 change;
#X obj 202 111 route dsp;
#N canvas 499 110 450 300 sub 0;
#X obj 65 81 bang~;
#X obj 66 60 switch~;
#X obj 65 103 f 1;
#X obj 65 125 outlet;
#X obj 66 38 f 1;
#X obj 95 103 f 0;
#X obj 66 16 loadbang;
#X connect 0 0 2 0;
#X connect 0 0 5 0;
#X connect 2 0 3 0;
#X connect 4 0 1 0;
#X connect 5 0 1 0;
#X connect 6 0 4 0;
#X restore 207 162 pd sub;
#X connect 1 0 8 0;
#X connect 3 0 4 0;
#X connect 6 0 5 0;
#X connect 7 0 6 0;
#X connect 8 0 7 0;
#X connect 9 0 7 0;
#X coords 0 -1 1 1 82 22 2 10 10;
