#N struct 1004-t-scope float x array cells 1004-t-scope-value;
#N struct 1004-t-scope-value float x1 float y1 float x2 float y2 float
c1 float c2;
#N struct 1112-t-meter float x array ls 1112-t-meter-value;
#N struct 1112-t-meter-value float x1 float y1 float s1 float s2 float
s3 float s4 float c0 float c1 float c2 float c3 float c4 float v1 float
v2 float v3 float v4;
#N struct 1256-t-scope float x array cells 1256-t-scope-value;
#N struct 1256-t-scope-value float x1 float y1 float x2 float y2 float
c1 float c2;
#N canvas 243 23 969 829 10;
#X declare -stdpath spam;
#X obj 995 65 table \$0-grain-env 512, f 14;
#X obj 916 206 nbx 5 14 -1e+37 1e+37 0 0 empty \$0-size empty 0 -8
0 10 -262144 -1 -1 100 256;
#X obj 999 207 nbx 5 14 -1e+37 1e+37 0 0 empty \$0-delay empty 0 -8
0 10 -262144 -1 -1 1000 256;
#X msg 999 225 delay \$1;
#X obj 837 205 nbx 5 14 0 1 0 0 empty \$0-feedback empty 0 -8 0 10
-262144 -1 -1 0.5 256;
#X msg 837 224 feedback \$1;
#N canvas 0 22 223 200 \$0-scope 0;
#X scalar 1004-t-scope 0 \; -1 1 -0.666667 0.666667 900 0 \; -0.666667
1 -0.333333 0.666667 90 0 \; -0.333333 1 2.98023e-08 0.666667 90 0
\; 0 1 0.333333 0.666667 950 0 \; 0.333333 1 0.666667 0.666667 999
0 \; 0.666667 1 1 0.666667 900 0 \; -1 0.666667 -0.666667 0.333333
900 0 \; -0.666667 0.666667 -0.333333 0.333333 90 0 \; -0.333333 0.666667
2.98023e-08 0.333333 900 0 \; 0 0.666667 0.333333 0.333333 90 0 \;
0.333333 0.666667 0.666667 0.333333 999 0 \; 0.666667 0.666667 1 0.333333
990 0 \; -1 0.333333 -0.666667 -2.98023e-08 999 0 \; -0.666667 0.333333
-0.333333 -2.98023e-08 900 0 \; -0.333333 0.333333 2.98023e-08 -2.98023e-08
900 0 \; 0 0.333333 0.333333 -2.98023e-08 90 0 \; 0.333333 0.333333
0.666667 -2.98023e-08 90 0 \; 0.666667 0.333333 1 -2.98023e-08 999
0 \; -1 -0 -0.666667 -0.333333 900 0 \; -0.666667 -0 -0.333333 -0.333333
999 0 \; -0.333333 -0 2.98023e-08 -0.333333 950 0 \; 0 -0 0.333333
-0.333333 900 0 \; 0.333333 -0 0.666667 -0.333333 900 0 \; 0.666667
-0 1 -0.333333 900 0 \; -1 -0.333333 -0.666667 -0.666667 999 0 \; -0.666667
-0.333333 -0.333333 -0.666667 990 0 \; -0.333333 -0.333333 2.98023e-08
-0.666667 900 0 \; 0 -0.333333 0.333333 -0.666667 999 0 \; 0.333333
-0.333333 0.666667 -0.666667 999 0 \; 0.666667 -0.333333 1 -0.666667
90 0 \; -1 -0.666667 -0.666667 -1 999 0 \; -0.666667 -0.666667 -0.333333
-1 990 0 \; -0.333333 -0.666667 2.98023e-08 -1 950 0 \; 0 -0.666667
0.333333 -1 90 0 \; 0.333333 -0.666667 0.666667 -1 90 0 \; 0.666667
-0.666667 1 -1 999 0 \; \;;
#X coords -1 1 1 -1 184 184 2 100 100;
#X restore 164 141 pd \$0-scope;
#X obj 692 741 text define -k \$0-config;
#A set positions -0.530331 0.530329 -0.75 -1.67489e-06 -0.530329 -0.530332
2.51234e-06 -0.75 0.530332 -0.530328 0.75 3.34978e-06 0.530328 0.530333
-4.18723e-06 0.75 \; rolloff 40 \; blur 0.0001 \; gain 140 \;;
#X f 25;
#X obj 164 280 spam~ 36 xel.2d.gui.scope~ 6 6 \$0-scope \$0-config
, f 30;
#X obj 912 360 s \$0-qsgs;
#X obj 839 360 s \$0-qsgs;
#X obj 341 41 r \$0-qsgs;
#N canvas 0 22 450 300 init 0;
#N canvas 237 132 503 391 grain_env 0;
#X obj 270 148 / 256;
#X obj 270 247 * 0.5;
#X obj 270 219 sin;
#X obj 270 271 + 0.5;
#X obj 270 120 t f f;
#X obj 270 299 pack;
#X obj 270 169 - 0.5;
#X obj 271 32 t b b;
#X obj 270 76 until;
#X obj 270 97 f;
#X obj 297 98 + 1;
#X msg 270 55 512;
#X obj 271 8 loadbang;
#X obj 270 193 * 3.14159;
#X obj 310 55 f 0;
#X obj 335 11 bng 15 250 50 0 empty empty empty 17 7 0 10 -262144 -1
-1;
#X obj 270 323 tabwrite \$0-grain-env;
#X connect 0 0 6 0;
#X connect 1 0 3 0;
#X connect 2 0 1 0;
#X connect 3 0 5 0;
#X connect 4 0 0 0;
#X connect 4 1 5 1;
#X connect 5 0 16 0;
#X connect 6 0 13 0;
#X connect 7 0 11 0;
#X connect 7 0 14 0;
#X connect 8 0 9 0;
#X connect 9 0 10 0;
#X connect 9 0 4 0;
#X connect 10 0 9 1;
#X connect 11 0 8 0;
#X connect 12 0 7 0;
#X connect 13 0 2 0;
#X connect 14 0 9 1;
#X connect 15 0 7 0;
#X restore 5 12 pd grain_env;
#X obj 13 42 loadbang;
#X obj 13 86 s \$0-gain;
#X obj 93 42 loadbang;
#X msg 93 64 100;
#X obj 93 87 s \$0-size;
#X obj 173 42 loadbang;
#X obj 173 87 s \$0-delay;
#X msg 173 64 1000;
#X obj 253 42 loadbang;
#X obj 253 87 s \$0-feedback;
#X msg 253 64 0.5;
#X obj 353 42 loadbang;
#X msg 353 64 1;
#X obj 353 87 s \$0-auto;
#X msg 13 64 60;
#X connect 1 0 15 0;
#X connect 3 0 4 0;
#X connect 4 0 5 0;
#X connect 6 0 8 0;
#X connect 8 0 7 0;
#X connect 9 0 11 0;
#X connect 11 0 10 0;
#X connect 12 0 13 0;
#X connect 13 0 14 0;
#X connect 15 0 2 0;
#X restore 693 720 pd init;
#X obj 837 246 s \$0-qsgs;
#X obj 999 247 s \$0-qsgs;
#X obj 916 246 s \$0-qsgs;
#X obj 692 761 declare -stdpath spam;
#X msg 916 224 grainsize \$1;
#X msg 839 338 size \$1;
#X obj 164 -22 noise~;
#X obj 164 107 spam~ 36 xel.2d.syn.spray~ 6 6 \$0-grain-env, f 30
;
#X msg 824 68 \; pd dsp 0;
#X msg 830 112 \; pd dsp 1;
#X obj 958 502 spam.connect;
#X obj 954 455 bng 15 250 50 0 empty empty empty 17 7 0 10 -262144
-1 -1;
#X text 355 204 Représentation de l’amplitude des signaux associés
aux soxels., f 25;
#N canvas 0 22 450 300 \$0-meter 0;
#X scalar 1112-t-meter 0 \; -0.530331 0.530329 8 16 24 32 555 90 990
950 900 1 1 1 1 \; -0.75 -1.67489e-06 8 16 24 32 555 90 990 950 900
1 1 1 0 \; -0.530329 -0.530332 8 16 24 32 555 90 990 950 900 1 1 1
1 \; 2.51234e-06 -0.75 8 16 24 32 555 90 990 950 900 1 1 1 1 \; 0.530332
-0.530328 8 16 24 32 555 90 990 950 900 1 1 1 1 \; 0.75 3.34978e-06
8 16 24 32 555 90 990 950 900 1 1 1 1 \; 0.530328 0.530333 8 16 24
32 555 90 990 950 900 1 1 1 1 \; -4.18723e-06 0.75 8 16 24 32 555 90
990 950 900 1 1 1 1 \; \;;
#X coords -1 1 1 -1 184 184 2 100 100;
#X restore 163 559 pd \$0-meter;
#X obj 164 778 hoa.dac~ 9:16, f 30;
#X obj 163 707 spam~ 8 ../zpt/zpt.2d.meter~ 8 \$0-meter \$0-config
, f 30;
#N canvas 0 22 450 300 \$0-scope2 0;
#X scalar 1256-t-scope 0 \; -1 1 -0.666667 0.666667 999 0 \; -0.666667
1 -0.333333 0.666667 999 0 \; -0.333333 1 2.98023e-08 0.666667 999
0 \; 0 1 0.333333 0.666667 950 0 \; 0.333333 1 0.666667 0.666667 999
0 \; 0.666667 1 1 0.666667 900 0 \; -1 0.666667 -0.666667 0.333333
999 0 \; -0.666667 0.666667 -0.333333 0.333333 999 0 \; -0.333333 0.666667
2.98023e-08 0.333333 999 0 \; 0 0.666667 0.333333 0.333333 90 0 \;
0.333333 0.666667 0.666667 0.333333 999 0 \; 0.666667 0.666667 1 0.333333
990 0 \; -1 0.333333 -0.666667 -2.98023e-08 999 0 \; -0.666667 0.333333
-0.333333 -2.98023e-08 999 0 \; -0.333333 0.333333 2.98023e-08 -2.98023e-08
900 0 \; 0 0.333333 0.333333 -2.98023e-08 90 0 \; 0.333333 0.333333
0.666667 -2.98023e-08 90 0 \; 0.666667 0.333333 1 -2.98023e-08 999
0 \; -1 -0 -0.666667 -0.333333 900 0 \; -0.666667 -0 -0.333333 -0.333333
999 0 \; -0.333333 -0 2.98023e-08 -0.333333 950 0 \; 0 -0 0.333333
-0.333333 900 0 \; 0.333333 -0 0.666667 -0.333333 900 0 \; 0.666667
-0 1 -0.333333 900 0 \; -1 -0.333333 -0.666667 -0.666667 999 0 \; -0.666667
-0.333333 -0.333333 -0.666667 990 0 \; -0.333333 -0.333333 2.98023e-08
-0.666667 900 0 \; 0 -0.333333 0.333333 -0.666667 999 0 \; 0.333333
-0.333333 0.666667 -0.666667 999 0 \; 0.666667 -0.333333 1 -0.666667
90 0 \; -1 -0.666667 -0.666667 -1 999 0 \; -0.666667 -0.666667 -0.333333
-1 990 0 \; -0.333333 -0.666667 2.98023e-08 -1 950 0 \; 0 -0.666667
0.333333 -1 90 0 \; 0.333333 -0.666667 0.666667 -1 90 0 \; 0.666667
-0.666667 1 -1 999 0 \; \;;
#X coords 0 -1 1 1 92 173 2 100 100;
#X restore 255 347 pd \$0-scope2;
#X obj 163 350 spam~ 36 xel.2d.gui.scope~ 6 6 \$0-scope2 \$0-config
, f 30;
#X msg 912 325 -0.75 0.75;
#X msg 836 316 8;
#X text 355 414 Représentation de l’amplitude des signaux associés
aux soxels., f 25;
#X msg 938 606 opacity \$1;
#X obj 938 584 nbx 5 14 0 100 0 0 empty \$0-opacity empty 0 -8 0 10
-262144 -1 -1 100 256;
#X obj 805 586 nbx 5 14 0 100 0 0 empty \$0-hardness empty 0 -8 0 10
-262144 -1 -1 100 256;
#X msg 805 605 hardness \$1;
#X obj 687 586 nbx 5 14 1 10 0 0 empty \$0-size empty 0 -8 0 10 -262144
-1 -1 3 256;
#X msg 687 605 size \$1;
#X text 686 567 Size (min 1);
#X text 805 566 Hardness (0 to 100);
#X text 938 565 Opacity (0 to 100);
#X obj 938 628 s \$0-eraser;
#X obj 805 627 s \$0-eraser;
#X obj 723 531 s \$0-eraser;
#X obj 687 627 s \$0-eraser;
#X obj 259 301 r \$0-eraser;
#X obj 164 0 *~ 0.03;
#X msg 724 499 -1 1;
#X obj 163 328 spam~ 36 xel.2d.fx.eraser~ 6 6;
#X obj 164 560 cnv 15 182 182 empty empty empty 20 12 0 14 -262144
-66577 0;
#X text 355 624 Représentation de l’amplitude des signaux associés
aux haut-parleurs., f 25;
#X text 172 49 Source sonore non spatialisée, f 16;
#X text 355 104 <- Synthétise des signaux;
#X text 375 117 audionumériques associés;
#X text 375 129 aux soxels.;
#X text 355 325 <- Transformation des signaux;
#X text 375 351 aux soxels.;
#X text 375 338 audionumériques associés;
#X text 355 522 <- Projection des signaux, f 26;
#X text 375 535 audionumériques associés;
#X text 375 548 aux soxels pour un ensemble;
#X text 375 561 de haut-parleurs;
#X obj 164 524 spam~ 36 xel.2d.proj.dbap~ 6 6 8 \$0-config, f 30;
#X connect 1 0 17 0;
#X connect 2 0 3 0;
#X connect 3 0 14 0;
#X connect 4 0 5 0;
#X connect 5 0 13 0;
#X connect 11 0 20 1;
#X connect 17 0 15 0;
#X connect 18 0 10 0;
#X connect 19 0 48 0;
#X connect 20 0 8 0;
#X connect 20 0 50 0;
#X connect 20 1 8 1;
#X connect 20 1 50 1;
#X connect 20 2 8 2;
#X connect 20 2 50 2;
#X connect 20 3 8 3;
#X connect 20 3 50 3;
#X connect 20 4 8 4;
#X connect 20 4 50 4;
#X connect 20 5 8 5;
#X connect 20 5 50 5;
#X connect 20 6 8 6;
#X connect 20 6 50 6;
#X connect 20 7 8 7;
#X connect 20 7 50 7;
#X connect 20 8 8 8;
#X connect 20 8 50 8;
#X connect 20 9 8 9;
#X connect 20 9 50 9;
#X connect 20 10 8 10;
#X connect 20 10 50 10;
#X connect 20 11 8 11;
#X connect 20 11 50 11;
#X connect 20 12 8 12;
#X connect 20 12 50 12;
#X connect 20 13 8 13;
#X connect 20 13 50 13;
#X connect 20 14 8 14;
#X connect 20 14 50 14;
#X connect 20 15 8 15;
#X connect 20 15 50 15;
#X connect 20 16 8 16;
#X connect 20 16 50 16;
#X connect 20 17 8 17;
#X connect 20 17 50 17;
#X connect 20 18 8 18;
#X connect 20 18 50 18;
#X connect 20 19 8 19;
#X connect 20 19 50 19;
#X connect 20 20 8 20;
#X connect 20 20 50 20;
#X connect 20 21 8 21;
#X connect 20 21 50 21;
#X connect 20 22 8 22;
#X connect 20 22 50 22;
#X connect 20 23 8 23;
#X connect 20 23 50 23;
#X connect 20 24 8 24;
#X connect 20 24 50 24;
#X connect 20 25 8 25;
#X connect 20 25 50 25;
#X connect 20 26 8 26;
#X connect 20 26 50 26;
#X connect 20 27 8 27;
#X connect 20 27 50 27;
#X connect 20 28 8 28;
#X connect 20 28 50 28;
#X connect 20 29 8 29;
#X connect 20 29 50 29;
#X connect 20 30 8 30;
#X connect 20 30 50 30;
#X connect 20 31 8 31;
#X connect 20 31 50 31;
#X connect 20 32 8 32;
#X connect 20 32 50 32;
#X connect 20 33 8 33;
#X connect 20 33 50 33;
#X connect 20 34 8 34;
#X connect 20 34 50 34;
#X connect 20 35 8 35;
#X connect 20 35 50 35;
#X connect 24 0 23 0;
#X connect 31 0 9 0;
#X connect 32 0 18 0;
#X connect 34 0 43 0;
#X connect 35 0 34 0;
#X connect 36 0 37 0;
#X connect 37 0 44 0;
#X connect 38 0 39 0;
#X connect 39 0 46 0;
#X connect 47 0 50 36;
#X connect 48 0 20 0;
#X connect 49 0 45 0;
#X connect 50 0 30 0;
#X connect 50 0 64 0;
#X connect 50 1 30 1;
#X connect 50 1 64 1;
#X connect 50 2 30 2;
#X connect 50 2 64 2;
#X connect 50 3 30 3;
#X connect 50 3 64 3;
#X connect 50 4 30 4;
#X connect 50 4 64 4;
#X connect 50 5 30 5;
#X connect 50 5 64 5;
#X connect 50 6 30 6;
#X connect 50 6 64 6;
#X connect 50 7 30 7;
#X connect 50 7 64 7;
#X connect 50 8 30 8;
#X connect 50 8 64 8;
#X connect 50 9 30 9;
#X connect 50 9 64 9;
#X connect 50 10 30 10;
#X connect 50 10 64 10;
#X connect 50 11 30 11;
#X connect 50 11 64 11;
#X connect 50 12 30 12;
#X connect 50 12 64 12;
#X connect 50 13 30 13;
#X connect 50 13 64 13;
#X connect 50 14 30 14;
#X connect 50 14 64 14;
#X connect 50 15 30 15;
#X connect 50 15 64 15;
#X connect 50 16 30 16;
#X connect 50 16 64 16;
#X connect 50 17 30 17;
#X connect 50 17 64 17;
#X connect 50 18 30 18;
#X connect 50 18 64 18;
#X connect 50 19 30 19;
#X connect 50 19 64 19;
#X connect 50 20 30 20;
#X connect 50 20 64 20;
#X connect 50 21 30 21;
#X connect 50 21 64 21;
#X connect 50 22 30 22;
#X connect 50 22 64 22;
#X connect 50 23 30 23;
#X connect 50 23 64 23;
#X connect 50 24 30 24;
#X connect 50 24 64 24;
#X connect 50 25 30 25;
#X connect 50 25 64 25;
#X connect 50 26 30 26;
#X connect 50 26 64 26;
#X connect 50 27 30 27;
#X connect 50 27 64 27;
#X connect 50 28 30 28;
#X connect 50 28 64 28;
#X connect 50 29 30 29;
#X connect 50 29 64 29;
#X connect 50 30 30 30;
#X connect 50 30 64 30;
#X connect 50 31 30 31;
#X connect 50 31 64 31;
#X connect 50 32 30 32;
#X connect 50 32 64 32;
#X connect 50 33 30 33;
#X connect 50 33 64 33;
#X connect 50 34 30 34;
#X connect 50 34 64 34;
#X connect 50 35 30 35;
#X connect 50 35 64 35;
#X connect 64 0 27 0;
#X connect 64 0 28 0;
#X connect 64 1 27 1;
#X connect 64 1 28 1;
#X connect 64 2 27 2;
#X connect 64 2 28 2;
#X connect 64 3 27 3;
#X connect 64 3 28 3;
#X connect 64 4 27 4;
#X connect 64 4 28 4;
#X connect 64 5 27 5;
#X connect 64 5 28 5;
#X connect 64 6 27 6;
#X connect 64 6 28 6;
#X connect 64 7 27 7;
#X connect 64 7 28 7;
#X coords 0 829 1 828 85 60 0;
