#N canvas 443 148 424 447 10;
#X obj 21 7 inlet;
#X obj 277 65 r \$0-nelems;
#X obj 276 17 r \$0-array;
#X obj 276 41 array define \$0-values;
#X obj 277 87 array size \$0-values;
#X obj 21 400 outlet;
#X obj 21 378 list trim;
#X obj 21 356 list prepend matrix \$1 \$2;
#X obj 168 313 r \$0-size;
#X msg 168 335 matrix \$1 \$2;
#X obj 21 336 array get \$0-values;
#N canvas 0 22 261 257 check.size 0;
#X obj 12 12 inlet;
#X obj 12 34 unpack f f;
#X obj 12 61 >= 0;
#X obj 69 61 >= 0;
#X obj 12 85 &&, f 10;
#X obj 12 177 outlet;
#X obj 32 107 sel 0;
#X msg 32 129 matrix sizes can't be negatives;
#X obj 32 151 print xel.2d.mat;
#X connect 0 0 1 0;
#X connect 1 0 2 0;
#X connect 1 1 3 0;
#X connect 2 0 4 0;
#X connect 3 0 4 1;
#X connect 4 0 5 0;
#X connect 4 0 6 0;
#X connect 6 0 7 0;
#X connect 7 0 8 0;
#X restore 177 96 pd check.size;
#X obj 144 73 t l l, f 6;
#X obj 144 118 spigot;
#X obj 144 160 unpack f f;
#X obj 144 182 *, f 10;
#X obj 183 226 s \$0-nelems;
#X obj 111 51 t b l, f 6;
#N canvas 0 22 137 149 init.size 0;
#X obj 6 33 t b b, f 8;
#X obj 6 78 pack f f;
#X obj 6 10 loadbang;
#X obj 6 100 outlet;
#X obj 6 56 f \$1;
#X obj 51 56 f \$2;
#X connect 0 0 4 0;
#X connect 0 1 5 0;
#X connect 1 0 3 0;
#X connect 2 0 0 0;
#X connect 4 0 1 0;
#X connect 5 0 1 1;
#X restore 155 51 pd init.size;
#X obj 157 139 s \$0-size;
#X msg 144 249 const \$1;
#X obj 144 271 s \$0-array;
#X obj 21 29 route bang float matrix;
#X obj 144 204 t b f, f 7;
#X obj 144 226 f \$3;
#X obj 66 51 t b f, f 6;
#X connect 0 0 22 0;
#X connect 1 0 4 0;
#X connect 2 0 3 0;
#X connect 6 0 5 0;
#X connect 7 0 6 0;
#X connect 8 0 9 0;
#X connect 9 0 7 1;
#X connect 10 0 7 0;
#X connect 11 0 13 1;
#X connect 12 0 13 0;
#X connect 12 1 11 0;
#X connect 13 0 14 0;
#X connect 13 0 19 0;
#X connect 14 0 15 0;
#X connect 14 1 15 1;
#X connect 15 0 23 0;
#X connect 17 0 10 0;
#X connect 17 1 12 0;
#X connect 18 0 12 0;
#X connect 20 0 21 0;
#X connect 22 0 10 0;
#X connect 22 1 25 0;
#X connect 22 2 17 0;
#X connect 23 0 24 0;
#X connect 23 1 16 0;
#X connect 24 0 20 0;
#X connect 25 0 10 0;
#X connect 25 1 24 0;
