#N canvas 639 130 752 560 10;
#X obj 13 13 inlet;
#X obj 40 107 list split 2;
#X obj 265 225 spigot;
#N canvas 0 22 137 149 init.size 0;
#X obj 6 33 t b b, f 8;
#X obj 6 56 f \$2;
#X obj 6 78 pack f f;
#X obj 51 56 f \$3;
#X obj 6 10 loadbang;
#X obj 6 100 outlet;
#X connect 0 0 1 0;
#X connect 0 1 3 0;
#X connect 1 0 2 0;
#X connect 2 0 5 0;
#X connect 3 0 2 1;
#X connect 4 0 0 0;
#X restore 272 158 pd init.size;
#N canvas 470 263 324 281 check.size 0;
#X obj 12 12 inlet;
#X obj 45 222 outlet;
#X obj 12 244 s \$0-size;
#X obj 12 34 t l l, f 6;
#X obj 12 191 spigot;
#X obj 45 54 unpack f f, f 13;
#X obj 45 100 >= 0;
#X obj 120 100 >= 0;
#X obj 45 124 &&, f 13;
#X obj 94 166 sel 0;
#X msg 94 188 matrix sizes can't be negatives;
#X obj 94 210 print xel.2d.gui.mat;
#X obj 45 76 t f f, f 6;
#X obj 120 76 t f f, f 6;
#X obj 78 100 != 0;
#X obj 153 100 != 0;
#X obj 99 34 unpack f f, f 13;
#X obj 45 166 &&, f 6;
#X obj 99 12 r \$0-size;
#X obj 78 144 ||, f 13;
#X connect 0 0 3 0;
#X connect 3 0 4 0;
#X connect 3 1 5 0;
#X connect 4 0 2 0;
#X connect 5 0 12 0;
#X connect 5 1 13 0;
#X connect 6 0 8 0;
#X connect 7 0 8 1;
#X connect 8 0 17 0;
#X connect 8 0 9 0;
#X connect 9 0 10 0;
#X connect 10 0 11 0;
#X connect 12 0 6 0;
#X connect 12 1 14 0;
#X connect 13 0 7 0;
#X connect 13 1 15 0;
#X connect 14 0 19 0;
#X connect 15 0 19 1;
#X connect 16 0 14 1;
#X connect 16 1 15 1;
#X connect 17 0 4 1;
#X connect 17 0 1 0;
#X connect 18 0 16 0;
#X connect 19 0 17 1;
#X restore 298 204 pd check.size;
#X obj 265 301 xel.2d.get.nelems;
#N canvas 0 22 153 164 counter 0;
#X obj 35 17 inlet;
#X obj 35 39 t f b, f 7;
#X obj 35 61 until;
#X obj 74 61 f 0;
#X obj 35 83 f, f 7;
#X obj 85 83 + 1;
#X obj 35 105 outlet;
#X connect 0 0 1 0;
#X connect 1 0 2 0;
#X connect 1 1 3 0;
#X connect 2 0 4 0;
#X connect 3 0 4 1;
#X connect 4 0 5 0;
#X connect 4 0 6 0;
#X connect 5 0 4 1;
#X restore 265 347 pd counter;
#N canvas 308 290 280 487 compute.positions 0;
#X obj 31 42 xel.2d.get.itorc;
#X obj 124 21 r \$0-size;
#X obj 31 64 unpack f f, f 14;
#X obj 73 116 r \$0-size;
#X obj 73 138 unpack f f, f 14;
#X msg 73 180 2 \$1;
#X obj 73 202 /;
#X obj 31 230 *;
#X obj 112 230 *;
#X obj 58 296 +;
#X obj 112 274 t f f;
#X obj 139 294 +;
#X obj 166 317 -;
#X obj 181 294 / 2.5;
#X obj 31 422 outlet;
#X obj 31 20 inlet;
#X msg 31 400 \$1 \$4 \$2 \$5 \$3 \$6;
#X obj 31 252 - 1;
#X obj 154 202 /;
#X obj 31 274 t f f f, f 10;
#X obj 88 317 +;
#X obj 100 294 * 0.25;
#X obj 31 378 pack f f f f f f, f 23;
#X obj 31 86 swap, f 14;
#X obj 73 160 swap, f 14;
#X msg 154 180 -2 \$1;
#X obj 112 252 + 1;
#X connect 0 0 2 0;
#X connect 1 0 0 1;
#X connect 2 0 23 0;
#X connect 2 1 23 1;
#X connect 3 0 4 0;
#X connect 4 0 24 0;
#X connect 4 1 24 1;
#X connect 5 0 6 0;
#X connect 6 0 7 1;
#X connect 6 0 9 1;
#X connect 6 0 21 0;
#X connect 7 0 17 0;
#X connect 8 0 26 0;
#X connect 9 0 22 1;
#X connect 10 0 22 3;
#X connect 10 1 11 0;
#X connect 11 0 12 0;
#X connect 11 0 22 4;
#X connect 12 0 22 5;
#X connect 13 0 12 1;
#X connect 15 0 0 0;
#X connect 16 0 14 0;
#X connect 17 0 19 0;
#X connect 18 0 8 1;
#X connect 18 0 11 1;
#X connect 18 0 13 0;
#X connect 19 0 22 0;
#X connect 19 1 9 0;
#X connect 19 2 20 0;
#X connect 20 0 22 2;
#X connect 21 0 20 1;
#X connect 22 0 16 0;
#X connect 23 0 7 0;
#X connect 23 1 8 0;
#X connect 24 0 5 0;
#X connect 24 1 25 0;
#X connect 25 0 18 0;
#X connect 26 0 10 0;
#X restore 265 391 pd compute.positions;
#X obj 265 181 t l l, f 6;
#N canvas 460 323 431 134 \$0-stuct-matrix 0;
#X obj 15 93 outlet;
#X obj 35 46 filledpolygon -x c1 c2 1 x1 y1 x2 y1 x2 y2 x1 y2 x1 y1
;
#X obj 35 68 drawnumber val xv yv 0;
#X obj 15 8 struct \$0-stuct-matrix float x1 float y1 float x2 float
y2 float xv float yv float c1 float c2 float val float index;
#X connect 3 0 0 0;
#X restore 506 128 pd \$0-stuct-matrix;
#N canvas 0 22 450 300 get.ptr 0;
#X obj 4 72 pointer;
#X msg 4 48 traverse pd-\$1 \, bang;
#X obj 4 3 inlet;
#X obj 4 94 outlet;
#X obj 4 23 symbol \$1;
#X connect 0 0 3 0;
#X connect 1 0 0 0;
#X connect 2 0 4 0;
#X connect 4 0 1 0;
#X restore 406 295 pd get.ptr;
#N canvas 248 34 137 159 do.clear 0;
#X msg 23 85 \; pd-\$1 clear;
#X obj 23 35 inlet;
#X obj 23 61 symbol \$1;
#X connect 1 0 2 0;
#X connect 2 0 0 0;
#X restore 418 270 pd do.clear;
#X obj 265 270 t l b, f 24;
#X obj 265 510 s \$0-ptr;
#X obj 285 324 s \$0-nelems;
#X obj 506 54 array define \$0-vals;
#X obj 507 78 r \$0-nelems;
#X obj 507 100 array size \$0-vals;
#X obj 487 422 outlet;
#X obj 265 248 t l b, f 26;
#X obj 506 150 route click change;
#X obj 506 172 t b p, f 14;
#X obj 587 249 / 100;
#N canvas 425 101 286 179 do.output 0;
#X obj 12 32 float 0;
#X obj 51 10 r \$0-nelems;
#N canvas 0 22 232 275 counter 0;
#X obj 35 17 inlet;
#X obj 35 59 t f b, f 7;
#X obj 35 81 until;
#X obj 74 81 f 0;
#X obj 35 103 f, f 7;
#X obj 85 103 + 1;
#X obj 62 155 outlet;
#X obj 35 125 t f f;
#X obj 35 155 ==;
#X obj 35 39 t f f, f 13;
#X obj 110 134 - 1;
#X obj 35 177 sel 1;
#X obj 35 199 outlet;
#X connect 0 0 9 0;
#X connect 1 0 2 0;
#X connect 1 1 3 0;
#X connect 2 0 4 0;
#X connect 3 0 4 1;
#X connect 4 0 5 0;
#X connect 4 0 7 0;
#X connect 5 0 4 1;
#X connect 7 0 8 0;
#X connect 7 1 6 0;
#X connect 8 0 11 0;
#X connect 9 0 1 0;
#X connect 9 1 10 0;
#X connect 10 0 8 1;
#X connect 11 0 12 0;
#X restore 12 54 pd counter;
#X obj 159 54 r \$0-size;
#X obj 12 75 array get \$0-vals;
#X obj 12 97 list prepend matrix \$2 \$3;
#X obj 12 119 list trim;
#X msg 159 76 matrix \$1 \$2;
#X obj 12 141 outlet;
#X obj 12 10 inlet;
#X connect 0 0 2 0;
#X connect 1 0 0 1;
#X connect 2 0 4 0;
#X connect 3 0 7 0;
#X connect 4 0 5 0;
#X connect 5 0 6 0;
#X connect 6 0 8 0;
#X connect 7 0 5 1;
#X connect 9 0 0 0;
#X restore 487 398 pd do.output;
#X obj 265 458 append \$0-stuct-matrix index x1 y1 x2 y2 xv yv val
c1 c2, f 24;
#X obj 265 435 list prepend;
#X obj 265 369 t f f, f 12;
#X msg 265 413 \$1 \$2 \$3 \$4 \$5 \$6 0 999 0;
#X obj 587 214 get \$0-stuct-matrix val index, f 19;
#X obj 40 154 list;
#X obj 40 129 t b l, f 38;
#X obj 40 176 t l l, f 6;
#X obj 40 222 spigot;
#N canvas 0 22 450 228 check.size 0;
#X obj 44 67 list length;
#X obj 44 109 ==;
#X obj 59 89 r \$0-nelems;
#X obj 17 14 inlet;
#X obj 44 131 outlet;
#X obj 90 131 sel 0;
#X obj 90 175 print xel.2d.gui.mat;
#X msg 17 58 0;
#X obj 17 36 route bang;
#X obj 17 170 s \$0-out;
#X obj 31 202 s \$0-array;
#X msg 26 150 const 0;
#X msg 90 153 matrix sizes and the number of elements are not coherents
;
#X connect 0 0 1 0;
#X connect 1 0 4 0;
#X connect 1 0 5 0;
#X connect 2 0 1 1;
#X connect 3 0 8 0;
#X connect 5 0 12 0;
#X connect 7 0 4 0;
#X connect 7 0 11 0;
#X connect 8 0 7 0;
#X connect 8 0 9 0;
#X connect 8 1 0 0;
#X connect 11 0 10 0;
#X connect 12 0 6 0;
#X restore 73 199 pd check.size;
#X obj 65 485 set \$0-stuct-matrix val, f 15;
#N canvas 0 22 159 127 do.iter 0;
#X obj 7 32 list split 1;
#X obj 87 32 list;
#X obj 7 54 t b f;
#X obj 7 9 inlet;
#X obj 34 76 outlet;
#X connect 0 0 2 0;
#X connect 0 1 1 1;
#X connect 1 0 0 0;
#X connect 2 0 1 0;
#X connect 2 1 4 0;
#X connect 3 0 0 0;
#X restore 40 267 pd do.iter;
#X obj 151 447 pointer;
#X obj 151 268 symbol \$1;
#X msg 40 311 next;
#X obj 65 456 int;
#X obj 65 434 * 100;
#X msg 151 293 traverse pd-\$1 \, bang \, next, f 15;
#X obj 487 375 r \$0-out;
#X obj 506 194 s \$0-out;
#X obj 65 535 array set \$0-vals;
#X obj 40 244 t l b b, f 19;
#X obj 91 316 f;
#X obj 119 316 + 1;
#X obj 40 289 t b f b, f 9;
#X obj 110 270 f 0;
#X obj 506 30 r \$0-array;
#X obj 155 57 s \$0-out;
#X obj 13 57 t b l;
#X obj 84 79 route matrix;
#X obj 13 79 s \$0-out;
#X obj 587 302 clip -1e+37 1e+37, f 19;
#X obj 587 324 array set \$0-vals;
#X obj 13 35 route matrix set bang range, f 48;
#X obj 226 57 s \$0-range;
#X obj 642 249 r \$0-range;
#X obj 642 271 unpack f f;
#X obj 65 407 clip -1e+37 1e+37, f 19;
#X obj 120 354 r \$0-range;
#X obj 120 376 unpack f f;
#X obj 587 372 set \$0-stuct-matrix val, f 15;
#X obj 587 192 t p p;
#X obj 587 346 * 100;
#X connect 0 0 57 0;
#X connect 1 0 30 0;
#X connect 1 1 29 1;
#X connect 2 0 19 0;
#X connect 3 0 8 0;
#X connect 4 0 2 1;
#X connect 5 0 14 0;
#X connect 5 0 6 0;
#X connect 6 0 26 0;
#X connect 7 0 27 0;
#X connect 8 0 2 0;
#X connect 8 1 4 0;
#X connect 9 0 20 0;
#X connect 10 0 24 10;
#X connect 12 0 5 0;
#X connect 12 1 10 0;
#X connect 16 0 17 0;
#X connect 19 0 12 0;
#X connect 19 1 11 0;
#X connect 20 0 21 0;
#X connect 20 1 21 0;
#X connect 21 0 43 0;
#X connect 21 1 65 0;
#X connect 22 0 55 0;
#X connect 23 0 18 0;
#X connect 24 0 13 0;
#X connect 25 0 24 0;
#X connect 26 0 7 0;
#X connect 26 1 25 1;
#X connect 27 0 25 0;
#X connect 28 0 22 0;
#X connect 28 1 56 1;
#X connect 29 0 31 0;
#X connect 30 0 29 0;
#X connect 30 1 8 0;
#X connect 31 0 32 0;
#X connect 31 1 33 0;
#X connect 32 0 45 0;
#X connect 33 0 32 1;
#X connect 35 0 48 0;
#X connect 36 0 34 1;
#X connect 37 0 41 0;
#X connect 38 0 36 0;
#X connect 39 0 34 0;
#X connect 40 0 39 0;
#X connect 41 0 36 0;
#X connect 42 0 23 0;
#X connect 45 0 35 0;
#X connect 45 1 49 0;
#X connect 45 2 37 0;
#X connect 46 0 47 0;
#X connect 46 0 44 1;
#X connect 47 0 46 1;
#X connect 48 0 38 0;
#X connect 48 1 61 0;
#X connect 48 2 46 0;
#X connect 49 0 46 1;
#X connect 50 0 15 0;
#X connect 52 0 54 0;
#X connect 52 1 1 0;
#X connect 53 0 1 0;
#X connect 55 0 56 0;
#X connect 55 0 66 0;
#X connect 57 0 52 0;
#X connect 57 1 53 0;
#X connect 57 2 51 0;
#X connect 57 3 58 0;
#X connect 59 0 60 0;
#X connect 60 0 55 1;
#X connect 60 1 55 2;
#X connect 61 0 40 0;
#X connect 61 0 44 0;
#X connect 62 0 63 0;
#X connect 63 0 61 1;
#X connect 63 1 61 2;
#X connect 65 0 28 0;
#X connect 65 1 64 1;
#X connect 66 0 64 0;
