#N canvas 269 234 322 331 10;
#X obj 68 274 outlet;
#X obj 11 14 inlet;
#X obj 89 14 inlet;
#X obj 68 184 t f f;
#X obj 68 206 *, f 5;
#X obj 68 228 +, f 10;
#X obj 68 253 sqrt;
#X obj 125 184 t f f;
#X obj 125 206 *, f 5;
#X obj 159 13 inlet;
#X obj 68 60 unpack f f;
#X obj 89 38 unpack f f;
#X obj 159 38 unpack f f;
#X obj 11 38 route bang;
#X obj 11 81 t b b, f 11;
#X obj 68 142 - \$1;
#X obj 125 142 - \$2;
#X obj 68 112 f 0;
#X obj 125 112 f 0;
#X obj 68 164 * \$3;
#X obj 125 164 * \$4;
#X connect 1 0 13 0;
#X connect 2 0 11 0;
#X connect 3 0 4 0;
#X connect 3 1 4 1;
#X connect 4 0 5 0;
#X connect 5 0 6 0;
#X connect 6 0 0 0;
#X connect 7 0 8 0;
#X connect 7 1 8 1;
#X connect 8 0 5 1;
#X connect 9 0 12 0;
#X connect 10 0 17 0;
#X connect 10 1 18 0;
#X connect 11 0 15 1;
#X connect 11 1 16 1;
#X connect 12 0 19 1;
#X connect 12 1 20 1;
#X connect 13 0 14 0;
#X connect 13 1 10 0;
#X connect 14 0 17 0;
#X connect 14 1 18 0;
#X connect 15 0 19 0;
#X connect 16 0 20 0;
#X connect 17 0 15 0;
#X connect 18 0 16 0;
#X connect 19 0 3 0;
#X connect 20 0 7 0;
