#N struct 2857-t-scope float x1 float y1 float x2 float y2 float c1
float c2;
#N struct 2856-t-scope float x1 float y1 float x2 float y2 float c1
float c2;
#N struct 2855-t-scope float x1 float y1 float x2 float y2 float c1
float c2;
#N struct 2854-t-scope float x1 float y1 float x2 float y2 float c1
float c2;
#N struct 2853-t-scope float x1 float y1 float x2 float y2 float c1
float c2;
#N struct 2852-t-scope float x1 float y1 float x2 float y2 float c1
float c2;
#N struct 2851-t-scope float x1 float y1 float x2 float y2 float c1
float c2;
#N struct 2850-t-scope float x1 float y1 float x2 float y2 float c1
float c2;
#N struct 2849-t-scope float x1 float y1 float x2 float y2 float c1
float c2;
#N struct 2848-t-scope float x1 float y1 float x2 float y2 float c1
float c2;
#N struct 2847-t-scope float x1 float y1 float x2 float y2 float c1
float c2;
#N struct 2846-t-scope float x1 float y1 float x2 float y2 float c1
float c2;
#N struct 2845-t-scope float x1 float y1 float x2 float y2 float c1
float c2;
#N struct 2844-t-scope float x1 float y1 float x2 float y2 float c1
float c2;
#N struct 2843-t-scope float x1 float y1 float x2 float y2 float c1
float c2;
#N struct 2842-t-scope float x1 float y1 float x2 float y2 float c1
float c2;
#N struct 2841-t-scope float x1 float y1 float x2 float y2 float c1
float c2;
#N struct 2840-t-scope float x1 float y1 float x2 float y2 float c1
float c2;
#N struct 2839-t-scope float x1 float y1 float x2 float y2 float c1
float c2;
#N struct 2838-t-scope float x1 float y1 float x2 float y2 float c1
float c2;
#N struct 2837-t-scope float x1 float y1 float x2 float y2 float c1
float c2;
#N struct 2836-t-scope float x1 float y1 float x2 float y2 float c1
float c2;
#N struct 2835-t-scope float x1 float y1 float x2 float y2 float c1
float c2;
#N struct 2834-t-scope float x1 float y1 float x2 float y2 float c1
float c2;
#N struct 2833-t-scope float x1 float y1 float x2 float y2 float c1
float c2;
#N struct 2832-t-scope float x1 float y1 float x2 float y2 float c1
float c2;
#N struct 2831-t-scope float x1 float y1 float x2 float y2 float c1
float c2;
#N struct 2830-t-scope float x1 float y1 float x2 float y2 float c1
float c2;
#N struct 2829-t-scope float x1 float y1 float x2 float y2 float c1
float c2;
#N struct 2828-t-scope float x1 float y1 float x2 float y2 float c1
float c2;
#N struct 2827-t-scope float x1 float y1 float x2 float y2 float c1
float c2;
#N struct 2826-t-scope float x1 float y1 float x2 float y2 float c1
float c2;
#N struct 2825-t-scope float x1 float y1 float x2 float y2 float c1
float c2;
#N struct 2824-t-scope float x1 float y1 float x2 float y2 float c1
float c2;
#N struct 2823-t-scope float x1 float y1 float x2 float y2 float c1
float c2;
#N struct 2822-t-scope float x1 float y1 float x2 float y2 float c1
float c2;
#N struct 2865-t-meter float x1 float y1 float s1 float s2 float s3
float s4 float c0 float c1 float c2 float c3 float c4;
#N struct 2864-t-meter float x1 float y1 float s1 float s2 float s3
float s4 float c0 float c1 float c2 float c3 float c4;
#N struct 2863-t-meter float x1 float y1 float s1 float s2 float s3
float s4 float c0 float c1 float c2 float c3 float c4;
#N struct 2862-t-meter float x1 float y1 float s1 float s2 float s3
float s4 float c0 float c1 float c2 float c3 float c4;
#N struct 2861-t-meter float x1 float y1 float s1 float s2 float s3
float s4 float c0 float c1 float c2 float c3 float c4;
#N struct 2860-t-meter float x1 float y1 float s1 float s2 float s3
float s4 float c0 float c1 float c2 float c3 float c4;
#N struct 2859-t-meter float x1 float y1 float s1 float s2 float s3
float s4 float c0 float c1 float c2 float c3 float c4;
#N struct 2858-t-meter float x1 float y1 float s1 float s2 float s3
float s4 float c0 float c1 float c2 float c3 float c4;
#N canvas 625 23 583 821 10;
#X declare -stdpath spam;
#X obj 228 381 tgl 15 0 empty \$0-auto empty 17 7 0 10 -262144 -1 -1
1 1;
#N canvas 0 22 573 343 trajectory 0;
#X obj 54 191 t f f, f 15;
#X obj 54 279 pack f f, f 15;
#X obj 54 237 * 6.28319;
#X obj 141 237 * 6.28319;
#X obj 54 128 line 0;
#X obj 54 257 sin;
#X obj 141 257 sin;
#X obj 54 215 * 3;
#X obj 141 215 * 1;
#X msg 54 104 \$1 \, 1 10000;
#X obj 54 80 f 0;
#X obj 144 96 sel 1;
#X obj 54 301 outlet;
#X msg 17 104 stop;
#X obj 17 53 sel 0 1, f 13;
#X obj 144 118 f 0;
#X obj 17 25 inlet;
#X connect 0 0 7 0;
#X connect 0 1 8 0;
#X connect 1 0 12 0;
#X connect 2 0 5 0;
#X connect 3 0 6 0;
#X connect 4 0 0 0;
#X connect 4 0 11 0;
#X connect 5 0 1 0;
#X connect 6 0 1 1;
#X connect 7 0 2 0;
#X connect 8 0 3 0;
#X connect 9 0 4 0;
#X connect 10 0 9 0;
#X connect 11 0 15 0;
#X connect 11 1 10 1;
#X connect 13 0 4 0;
#X connect 14 0 13 0;
#X connect 14 1 10 0;
#X connect 15 0 10 0;
#X connect 16 0 14 0;
#X restore 228 402 pd trajectory;
#X obj 77 411 dbtorms;
#X obj 77 391 nbx 5 14 0 100 0 0 empty \$0-gain empty 0 -8 0 10 -262144
-1 -1 60 256;
#X obj 77 433 pack f 20;
#X obj 77 455 line~;
#X obj 14 478 *~, f 11;
#X obj 155 381 tgl 15 0 empty \$0-auto empty 17 7 0 10 -262144 -1 -1
1 1;
#N canvas 0 22 293 454 blurry 0;
#X obj 54 187 * 6.28319;
#X obj 54 128 line 0;
#X obj 54 207 sin;
#X obj 54 80 f 0;
#X obj 144 96 sel 1;
#X obj 54 351 outlet;
#X msg 17 104 stop;
#X obj 17 53 sel 0 1, f 13;
#X obj 144 118 f 0;
#X obj 17 25 inlet;
#X obj 54 229 t f f;
#X obj 54 251 *, f 5;
#X msg 54 104 \$1 \, 1 50000;
#X obj 54 295 - 1;
#X obj 54 273 * 13;
#X obj 54 325 clip 1 10;
#X connect 0 0 2 0;
#X connect 1 0 4 0;
#X connect 1 0 0 0;
#X connect 2 0 10 0;
#X connect 3 0 12 0;
#X connect 4 0 8 0;
#X connect 4 1 3 1;
#X connect 6 0 1 0;
#X connect 7 0 6 0;
#X connect 7 1 3 0;
#X connect 8 0 3 0;
#X connect 9 0 7 0;
#X connect 10 0 11 0;
#X connect 10 1 11 1;
#X connect 11 0 14 0;
#X connect 12 0 1 0;
#X connect 13 0 15 0;
#X connect 14 0 13 0;
#X connect 15 0 5 0;
#X restore 155 402 pd blurry;
#X obj 155 422 nbx 5 14 0.5 100 0 0 empty empty empty 0 -8 0 10 -262144
-1 -1 4.53967 256;
#X obj 9 312 table \$0-grain-env 512, f 14;
#X obj 232 309 nbx 5 14 -1e+37 1e+37 0 0 empty \$0-size empty 0 -8
0 10 -262144 -1 -1 100 256;
#X obj 315 310 nbx 5 14 -1e+37 1e+37 0 0 empty \$0-delay empty 0 -8
0 10 -262144 -1 -1 1000 256;
#X msg 315 328 delay \$1;
#X obj 153 308 nbx 5 14 0 1 0 0 empty \$0-feedback empty 0 -8 0 10
-262144 -1 -1 0.5 256;
#X msg 153 327 feedback \$1;
#N canvas 0 22 223 200 \$0-scope 0;
#X scalar 2857-t-scope 0.666667 -0.666667 1 -1 999 0 \;;
#X scalar 2856-t-scope 0.333333 -0.666667 0.666667 -1 999 0 \;;
#X scalar 2855-t-scope 0 -0.666667 0.333333 -1 90 0 \;;
#X scalar 2854-t-scope -0.333333 -0.666667 2.98023e-08 -1 90 0 \;;
#X scalar 2853-t-scope -0.666667 -0.666667 -0.333333 -1 90 0 \;;
#X scalar 2852-t-scope -1 -0.666667 -0.666667 -1 999 0 \;;
#X scalar 2851-t-scope 0.666667 -0.333333 1 -0.666667 999 0 \;;
#X scalar 2850-t-scope 0.333333 -0.333333 0.666667 -0.666667 999 0
\;;
#X scalar 2849-t-scope 0 -0.333333 0.333333 -0.666667 999 0 \;;
#X scalar 2848-t-scope -0.333333 -0.333333 2.98023e-08 -0.666667 90
0 \;;
#X scalar 2847-t-scope -0.666667 -0.333333 -0.333333 -0.666667 90 0
\;;
#X scalar 2846-t-scope -1 -0.333333 -0.666667 -0.666667 90 0 \;;
#X scalar 2845-t-scope 0.666667 -0 1 -0.333333 999 0 \;;
#X scalar 2844-t-scope 0.333333 -0 0.666667 -0.333333 999 0 \;;
#X scalar 2843-t-scope 0 -0 0.333333 -0.333333 90 0 \;;
#X scalar 2842-t-scope -0.333333 -0 2.98023e-08 -0.333333 90 0 \;;
#X scalar 2841-t-scope -0.666667 -0 -0.333333 -0.333333 90 0 \;;
#X scalar 2840-t-scope -1 -0 -0.666667 -0.333333 90 0 \;;
#X scalar 2839-t-scope 0.666667 0.333333 1 -2.98023e-08 999 0 \;;
#X scalar 2838-t-scope 0.333333 0.333333 0.666667 -2.98023e-08 999
0 \;;
#X scalar 2837-t-scope 0 0.333333 0.333333 -2.98023e-08 999 0 \;;
#X scalar 2836-t-scope -0.333333 0.333333 2.98023e-08 -2.98023e-08
90 0 \;;
#X scalar 2835-t-scope -0.666667 0.333333 -0.333333 -2.98023e-08 90
0 \;;
#X scalar 2834-t-scope -1 0.333333 -0.666667 -2.98023e-08 90 0 \;;
#X scalar 2833-t-scope 0.666667 0.666667 1 0.333333 999 0 \;;
#X scalar 2832-t-scope 0.333333 0.666667 0.666667 0.333333 90 0 \;
;
#X scalar 2831-t-scope 0 0.666667 0.333333 0.333333 999 0 \;;
#X scalar 2830-t-scope -0.333333 0.666667 2.98023e-08 0.333333 90 0
\;;
#X scalar 2829-t-scope -0.666667 0.666667 -0.333333 0.333333 90 0 \;
;
#X scalar 2828-t-scope -1 0.666667 -0.666667 0.333333 999 0 \;;
#X scalar 2827-t-scope 0.666667 1 1 0.666667 999 0 \;;
#X scalar 2826-t-scope 0.333333 1 0.666667 0.666667 999 0 \;;
#X scalar 2825-t-scope 0 1 0.333333 0.666667 999 0 \;;
#X scalar 2824-t-scope -0.333333 1 2.98023e-08 0.666667 999 0 \;;
#X scalar 2823-t-scope -0.666667 1 -0.333333 0.666667 999 0 \;;
#X scalar 2822-t-scope -1 1 -0.666667 0.666667 90 0 \;;
#X coords -1 1 1 -1 150 150 2 100 100;
#X restore 16 557 pd \$0-scope;
#X obj 364 734 text define -k \$0-config;
#A set positions -0.530331 0.530329 -0.75 -1.67489e-06 -0.530329 -0.530332
2.51234e-06 -0.75 0.530332 -0.530328 0.75 3.34978e-06 0.530328 0.530333
-4.18723e-06 0.75 \; rolloff 40 \; blur 0.0001 \; gain 140 \;;
#X f 25;
#X obj 14 756 dac~ 1 2 3 4 5 6 7 8, f 56;
#X obj 14 714 spam~ 36 xel.2d.proj.dbap~ 6 6 8 \$0-config, f
56;
#X obj 14 532 spam~ 36 xel.2d.gui.scope~ 6 6 \$0-scope \$0-config, f 56;
#X obj 14 735 spam~ 8 ../zpt/zpt.2d.meter~ 8 \$0-meter \$0-config, f 56;
#N canvas 0 22 450 300 \$0-meter 0;
#X scalar 2865-t-meter -4.18723e-06 0.75 8 16 24 32 555 90 990 950
900 \;;
#X scalar 2864-t-meter 0.530328 0.530333 8 16 24 32 555 90 990 950
900 \;;
#X scalar 2863-t-meter 0.75 3.34978e-06 8 16 24 32 555 90 990 950 900
\;;
#X scalar 2862-t-meter 0.530332 -0.530328 8 16 24 32 555 90 990 950
900 \;;
#X scalar 2861-t-meter 2.51234e-06 -0.75 8 16 24 32 555 90 990 950
900 \;;
#X scalar 2860-t-meter -0.530329 -0.530332 8 16 24 32 555 90 990 950
900 \;;
#X scalar 2859-t-meter -0.75 -1.67489e-06 8 16 24 32 555 90 990 950
900 \;;
#X scalar 2858-t-meter -0.530331 0.530329 8 16 24 32 555 90 990 950
900 \;;
#X coords -1 1 1 -1 153 153 2 100 100;
#X restore 201 557 pd \$0-meter;
#X obj 228 463 s \$0-qsgs;
#X obj 155 463 s \$0-qsgs;
#X obj 296 487 r \$0-qsgs;
#N canvas 0 22 450 300 init 0;
#N canvas 237 132 503 391 grain_env 0;
#X obj 270 148 / 256;
#X obj 270 247 * 0.5;
#X obj 270 219 sin;
#X obj 270 271 + 0.5;
#X obj 270 120 t f f;
#X obj 270 299 pack;
#X obj 270 169 - 0.5;
#X obj 271 32 t b b;
#X obj 270 76 until;
#X obj 270 97 f;
#X obj 297 98 + 1;
#X msg 270 55 512;
#X obj 271 8 loadbang;
#X obj 270 193 * 3.14159;
#X obj 310 55 f 0;
#X obj 335 11 bng 15 250 50 0 empty empty empty 17 7 0 10 -262144 -1
-1;
#X obj 270 323 tabwrite \$0-grain-env;
#X connect 0 0 6 0;
#X connect 1 0 3 0;
#X connect 2 0 1 0;
#X connect 3 0 5 0;
#X connect 4 0 0 0;
#X connect 4 1 5 1;
#X connect 5 0 16 0;
#X connect 6 0 13 0;
#X connect 7 0 11 0;
#X connect 7 0 14 0;
#X connect 8 0 9 0;
#X connect 9 0 10 0;
#X connect 9 0 4 0;
#X connect 10 0 9 1;
#X connect 11 0 8 0;
#X connect 12 0 7 0;
#X connect 13 0 2 0;
#X connect 14 0 9 1;
#X connect 15 0 7 0;
#X restore 5 12 pd grain_env;
#X obj 13 42 loadbang;
#X obj 13 86 s \$0-gain;
#X obj 93 42 loadbang;
#X msg 93 64 100;
#X obj 93 87 s \$0-size;
#X obj 173 42 loadbang;
#X obj 173 87 s \$0-delay;
#X msg 173 64 1000;
#X obj 253 42 loadbang;
#X obj 253 87 s \$0-feedback;
#X msg 253 64 0.5;
#X obj 353 42 loadbang;
#X msg 353 64 1;
#X obj 353 87 s \$0-auto;
#X msg 13 64 60;
#X connect 1 0 15 0;
#X connect 3 0 4 0;
#X connect 4 0 5 0;
#X connect 6 0 8 0;
#X connect 8 0 7 0;
#X connect 9 0 11 0;
#X connect 11 0 10 0;
#X connect 12 0 13 0;
#X connect 13 0 14 0;
#X connect 15 0 2 0;
#X restore 365 713 pd init;
#X obj 153 349 s \$0-qsgs;
#X obj 315 350 s \$0-qsgs;
#X obj 232 349 s \$0-qsgs;
#X obj 6 781 xel.footer;
#X obj 364 754 declare -stdpath spam;
#X obj 5 5 xel.header xel.2d.syn.spray~;
#X msg 232 327 grainsize \$1;
#X msg 155 441 size \$1;
#X obj 14 450 noise~;
#X obj 14 509 spam~ 36 xel.2d.syn.spray~ 6 6 \$0-grain-env, f 56;
#X text 4 30 The abstraction synthesizes the signals of the cells of
a matrix for a sound source using a quasi-synchronous granular synthesizer
(QSGS). The idea is to create a spatial spray effect. In this implementation
\, the QSGS has four parameters \, the grain size \, the delay time
\, the feedback and the rarefaction. The scaling of this parameters
depends on the encoding coordinates and the size of the spray. With
the default size \, the grain are concentrated around the encoding
coordinates because the rarefaction of the cells that are distant from
these coordinate is maximum. While the size increases \, the rarefaction
of these cells decreases and the grains are spread over the space.
Furthermore \, the size of the grain decreases and the delay time increases
with the distance. Thus if the spray size is relatively important \,
the main grains appear first around the encoding coordinates and are
spread thereafter into smaller grains around the space. Only the feedback
value is global to all the cells.;
#X text 4 258 The arguments are the dimensions of the matrix \, the
number of rows and the number of columns. The third argument is the
name of the buffer that defines the enveloppe of the grains.;
#N canvas 217 367 450 300 pos 0;
#X obj 145 100 nbx 4 14 -1e+37 1e+37 0 0 empty empty empty 0 -8 0 10
-262144 -1 -1 -0.402903 256;
#X obj 100 100 nbx 4 14 -1e+37 1e+37 0 0 empty empty empty 0 -8 0 10
-262144 -1 -1 -0.947094 256;
#X obj 119 77 t b f;
#X obj 101 150 pack 1 f;
#X obj 101 18 r \$0-pos;
#X obj 101 40 unpack f f;
#X obj 101 172 outlet;
#X obj 164 19 inlet;
#X connect 0 0 2 0;
#X connect 1 0 3 0;
#X connect 2 0 1 0;
#X connect 2 1 3 1;
#X connect 3 0 6 0;
#X connect 4 0 5 0;
#X connect 5 0 1 0;
#X connect 5 1 0 0;
#X connect 7 0 5 0;
#X coords 0 -1 1 1 90 14 2 100 100;
#X restore 228 422 pd pos;
#X connect 0 0 1 0;
#X connect 1 0 39 0;
#X connect 2 0 4 0;
#X connect 3 0 2 0;
#X connect 4 0 5 0;
#X connect 5 0 6 1;
#X connect 6 0 36 0;
#X connect 7 0 8 0;
#X connect 8 0 9 0;
#X connect 9 0 34 0;
#X connect 11 0 33 0;
#X connect 12 0 13 0;
#X connect 13 0 28 0;
#X connect 14 0 15 0;
#X connect 15 0 27 0;
#X connect 19 0 18 0;
#X connect 19 0 21 0;
#X connect 19 1 18 1;
#X connect 19 1 21 1;
#X connect 19 2 18 2;
#X connect 19 2 21 2;
#X connect 19 3 18 3;
#X connect 19 3 21 3;
#X connect 19 4 18 4;
#X connect 19 4 21 4;
#X connect 19 5 18 5;
#X connect 19 5 21 5;
#X connect 19 6 18 6;
#X connect 19 6 21 6;
#X connect 19 7 18 7;
#X connect 19 7 21 7;
#X connect 25 0 36 1;
#X connect 33 0 29 0;
#X connect 34 0 24 0;
#X connect 35 0 6 0;
#X connect 36 0 20 0;
#X connect 36 0 19 0;
#X connect 36 1 20 1;
#X connect 36 1 19 1;
#X connect 36 2 20 2;
#X connect 36 2 19 2;
#X connect 36 3 20 3;
#X connect 36 3 19 3;
#X connect 36 4 20 4;
#X connect 36 4 19 4;
#X connect 36 5 20 5;
#X connect 36 5 19 5;
#X connect 36 6 20 6;
#X connect 36 6 19 6;
#X connect 36 7 20 7;
#X connect 36 7 19 7;
#X connect 36 8 20 8;
#X connect 36 8 19 8;
#X connect 36 9 20 9;
#X connect 36 9 19 9;
#X connect 36 10 20 10;
#X connect 36 10 19 10;
#X connect 36 11 20 11;
#X connect 36 11 19 11;
#X connect 36 12 20 12;
#X connect 36 12 19 12;
#X connect 36 13 20 13;
#X connect 36 13 19 13;
#X connect 36 14 20 14;
#X connect 36 14 19 14;
#X connect 36 15 20 15;
#X connect 36 15 19 15;
#X connect 36 16 20 16;
#X connect 36 16 19 16;
#X connect 36 17 20 17;
#X connect 36 17 19 17;
#X connect 36 18 20 18;
#X connect 36 18 19 18;
#X connect 36 19 20 19;
#X connect 36 19 19 19;
#X connect 36 20 20 20;
#X connect 36 20 19 20;
#X connect 36 21 20 21;
#X connect 36 21 19 21;
#X connect 36 22 20 22;
#X connect 36 22 19 22;
#X connect 36 23 20 23;
#X connect 36 23 19 23;
#X connect 36 24 20 24;
#X connect 36 24 19 24;
#X connect 36 25 20 25;
#X connect 36 25 19 25;
#X connect 36 26 20 26;
#X connect 36 26 19 26;
#X connect 36 27 20 27;
#X connect 36 27 19 27;
#X connect 36 28 20 28;
#X connect 36 28 19 28;
#X connect 36 29 20 29;
#X connect 36 29 19 29;
#X connect 36 30 20 30;
#X connect 36 30 19 30;
#X connect 36 31 20 31;
#X connect 36 31 19 31;
#X connect 36 32 20 32;
#X connect 36 32 19 32;
#X connect 36 33 20 33;
#X connect 36 33 19 33;
#X connect 36 34 20 34;
#X connect 36 34 19 34;
#X connect 36 35 20 35;
#X connect 36 35 19 35;
#X connect 39 0 23 0;
#X coords 0 821 1 820 85 60 0;
