#N canvas 742 167 711 588 10;
#X obj 13 13 inlet;
#X obj 13 35 route matrix;
#X obj 13 57 list split 2;
#X obj 13 145 spigot;
#N canvas 0 22 137 149 init.size 0;
#X obj 6 33 t b b, f 8;
#X obj 6 56 f \$2;
#X obj 6 78 pack f f;
#X obj 51 56 f \$3;
#X obj 6 10 loadbang;
#X obj 6 100 outlet;
#X connect 0 0 1 0;
#X connect 0 1 3 0;
#X connect 1 0 2 0;
#X connect 2 0 5 0;
#X connect 3 0 2 1;
#X connect 4 0 0 0;
#X restore 20 78 pd init.size;
#N canvas 470 263 324 281 check.size 0;
#X obj 12 12 inlet;
#X obj 45 222 outlet;
#X obj 12 244 s \$0-size;
#X obj 12 34 t l l, f 6;
#X obj 12 191 spigot;
#X obj 45 54 unpack f f, f 13;
#X obj 45 100 >= 0;
#X obj 120 100 >= 0;
#X obj 45 124 &&, f 13;
#X obj 94 166 sel 0;
#X msg 94 188 matrix sizes can't be negatives;
#X obj 94 210 print xel.2d.gui.mat;
#X obj 45 76 t f f, f 6;
#X obj 120 76 t f f, f 6;
#X obj 78 100 != 0;
#X obj 153 100 != 0;
#X obj 99 34 unpack f f, f 13;
#X obj 78 144 &&, f 13;
#X obj 45 166 &&, f 6;
#X obj 99 12 r \$0-size;
#X connect 0 0 3 0;
#X connect 3 0 4 0;
#X connect 3 1 5 0;
#X connect 4 0 2 0;
#X connect 5 0 12 0;
#X connect 5 1 13 0;
#X connect 6 0 8 0;
#X connect 7 0 8 1;
#X connect 8 0 18 0;
#X connect 8 0 9 0;
#X connect 9 0 10 0;
#X connect 10 0 11 0;
#X connect 12 0 6 0;
#X connect 12 1 14 0;
#X connect 13 0 7 0;
#X connect 13 1 15 0;
#X connect 14 0 17 0;
#X connect 15 0 17 1;
#X connect 16 0 14 1;
#X connect 16 1 15 1;
#X connect 17 0 18 1;
#X connect 18 0 4 1;
#X connect 18 0 1 0;
#X connect 19 0 16 0;
#X restore 46 124 pd check.size;
#X obj 13 301 xel.2d.get.nelems;
#N canvas 0 22 153 164 counter 0;
#X obj 35 17 inlet;
#X obj 35 39 t f b, f 7;
#X obj 35 61 until;
#X obj 74 61 f 0;
#X obj 35 83 f, f 7;
#X obj 85 83 + 1;
#X obj 35 105 outlet;
#X connect 0 0 1 0;
#X connect 1 0 2 0;
#X connect 1 1 3 0;
#X connect 2 0 4 0;
#X connect 3 0 4 1;
#X connect 4 0 5 0;
#X connect 4 0 6 0;
#X connect 5 0 4 1;
#X restore 13 397 pd counter;
#N canvas 0 22 254 380 compute.positions 0;
#X obj 11 42 xel.2d.get.itorc;
#X obj 104 21 r \$0-size;
#X obj 11 64 unpack f f, f 14;
#X obj 53 86 r \$0-size;
#X obj 53 108 unpack f f, f 14;
#X obj 92 202 - 1;
#X msg 134 130 2 \$1;
#X msg 53 130 2 \$1;
#X obj 53 152 /;
#X obj 134 152 /;
#X obj 11 180 *;
#X obj 92 180 *;
#X obj 11 224 t f f;
#X obj 38 246 +;
#X obj 92 224 t f f;
#X obj 119 244 +;
#X obj 11 298 pack f f f f f f, f 23;
#X obj 65 267 -;
#X obj 80 244 / 1.5;
#X obj 146 267 -;
#X obj 161 244 / 2.5;
#X obj 11 342 outlet;
#X obj 11 20 inlet;
#X msg 11 320 \$1 \$4 \$2 \$5 \$3 \$6;
#X obj 11 202 - 1;
#X connect 0 0 2 0;
#X connect 1 0 0 1;
#X connect 2 0 10 0;
#X connect 2 1 11 0;
#X connect 3 0 4 0;
#X connect 4 0 7 0;
#X connect 4 1 6 0;
#X connect 5 0 14 0;
#X connect 6 0 9 0;
#X connect 7 0 8 0;
#X connect 8 0 10 1;
#X connect 8 0 13 1;
#X connect 8 0 18 0;
#X connect 9 0 11 1;
#X connect 9 0 15 1;
#X connect 9 0 20 0;
#X connect 10 0 24 0;
#X connect 11 0 5 0;
#X connect 12 0 16 0;
#X connect 12 1 13 0;
#X connect 13 0 16 1;
#X connect 13 0 17 0;
#X connect 14 0 16 3;
#X connect 14 1 15 0;
#X connect 15 0 16 4;
#X connect 15 0 19 0;
#X connect 16 0 23 0;
#X connect 17 0 16 2;
#X connect 18 0 17 1;
#X connect 19 0 16 5;
#X connect 20 0 19 1;
#X connect 22 0 0 0;
#X connect 23 0 21 0;
#X connect 24 0 12 0;
#X restore 13 441 pd compute.positions;
#X msg 13 463 \$1 \$2 \$3 \$4 \$5 \$6 0 999 0;
#X obj 13 101 t l l, f 6;
#N canvas 429 287 408 129 \$0-struct-element 0;
#X obj 15 8 struct \$0-struct-element float x1 float y1 float x2 float
y2 float xv float yv float c1 float c2 float val;
#X obj 15 93 outlet;
#X obj 35 46 filledpolygon -x c1 c2 1 x1 y1 x2 y1 x2 y2 x1 y2 x1 y1
;
#X obj 35 68 drawnumber val xv yv 0;
#X connect 0 0 1 0;
#X restore 332 41 pd \$0-struct-element;
#N canvas 460 323 431 108 \$0-stuct-matrix 0;
#X obj 27 70 outlet;
#X obj 37 46 plot cells 0 1 0 0 0;
#X obj 27 18 struct \$0-stuct-matrix float x array cells \$0-struct-element
;
#X connect 2 0 0 0;
#X restore 332 19 pd \$0-stuct-matrix;
#X obj 40 255 append \$0-stuct-matrix x;
#N canvas 0 22 450 300 get.ptr 0;
#X obj 4 72 pointer;
#X msg 4 48 traverse pd-\$1 \, bang;
#X obj 4 3 inlet;
#X obj 4 94 outlet;
#X obj 4 23 symbol \$1;
#X connect 0 0 3 0;
#X connect 1 0 0 0;
#X connect 2 0 4 0;
#X connect 4 0 1 0;
#X restore 181 235 pd get.ptr;
#N canvas 248 34 137 159 do.clear 0;
#X msg 23 85 \; pd-\$1 clear;
#X obj 23 35 inlet;
#X obj 23 61 symbol \$1;
#X connect 1 0 2 0;
#X connect 2 0 0 0;
#X restore 193 210 pd do.clear;
#X obj 40 210 t l b, f 24;
#X obj 40 188 t b b, f 26;
#X obj 13 167 t l b;
#X obj 40 375 setsize \$0-stuct-matrix cells;
#X obj 13 353 t f f;
#X obj 13 419 t f f, f 27;
#X obj 172 441 element \$0-stuct-matrix cells, f 15;
#X obj 13 488 set \$0-struct-element x1 y1 x2 y2 xv yv val c1 c2,
f 27;
#X obj 40 277 s \$0-ptr;
#X obj 211 353 r \$0-ptr;
#X obj 259 416 r \$0-ptr;
#X obj 40 232 f 0;
#X obj 332 88 float 0;
#X obj 33 324 s \$0-nelems;
#X obj 371 63 r \$0-nelems;
#X obj 332 63 bang;
#N canvas 0 22 232 275 counter 0;
#X obj 35 17 inlet;
#X obj 35 59 t f b, f 7;
#X obj 35 81 until;
#X obj 74 81 f 0;
#X obj 35 103 f, f 7;
#X obj 85 103 + 1;
#X obj 62 155 outlet;
#X obj 35 125 t f f;
#X obj 35 155 ==;
#X obj 35 39 t f f, f 13;
#X obj 110 134 - 1;
#X obj 35 177 sel 1;
#X obj 35 199 outlet;
#X connect 0 0 9 0;
#X connect 1 0 2 0;
#X connect 1 1 3 0;
#X connect 2 0 4 0;
#X connect 3 0 4 1;
#X connect 4 0 5 0;
#X connect 4 0 7 0;
#X connect 5 0 4 1;
#X connect 7 0 8 0;
#X connect 7 1 6 0;
#X connect 8 0 11 0;
#X connect 9 0 1 0;
#X connect 9 1 10 0;
#X connect 10 0 8 1;
#X connect 11 0 12 0;
#X restore 332 112 pd counter;
#X obj 389 134 t f f, f 9;
#X obj 389 249 / 100;
#X obj 389 179 element \$0-stuct-matrix cells, f 15;
#X obj 476 154 r \$0-ptr;
#X obj 428 319 r \$0-size;
#X obj 389 227 get \$0-struct-element val;
#X obj 389 273 array set \$0-vals;
#X obj 484 16 array define \$0-vals;
#X obj 485 40 r \$0-nelems;
#X obj 485 62 array size \$0-vals;
#X obj 332 296 array get \$0-vals;
#X obj 332 362 list prepend matrix \$2 \$3;
#X obj 332 384 list trim;
#X msg 428 341 matrix \$1 \$2;
#X obj 332 406 outlet;
#X obj 276 88 print;
#X connect 0 0 1 0;
#X connect 1 0 2 0;
#X connect 2 0 10 0;
#X connect 3 0 18 0;
#X connect 4 0 10 0;
#X connect 5 0 3 1;
#X connect 6 0 20 0;
#X connect 6 0 29 0;
#X connect 7 0 21 0;
#X connect 8 0 9 0;
#X connect 9 0 23 0;
#X connect 10 0 3 0;
#X connect 10 1 5 0;
#X connect 11 0 31 0;
#X connect 11 0 48 0;
#X connect 13 0 24 0;
#X connect 14 0 13 1;
#X connect 16 0 27 0;
#X connect 16 1 14 0;
#X connect 17 0 16 0;
#X connect 17 1 15 0;
#X connect 18 0 6 0;
#X connect 18 1 17 0;
#X connect 20 0 7 0;
#X connect 20 1 19 0;
#X connect 21 0 8 0;
#X connect 21 1 22 0;
#X connect 22 0 23 9;
#X connect 25 0 19 1;
#X connect 26 0 22 1;
#X connect 27 0 13 0;
#X connect 28 0 32 0;
#X connect 30 0 28 1;
#X connect 31 0 28 0;
#X connect 32 0 43 0;
#X connect 32 1 33 0;
#X connect 33 0 35 0;
#X connect 33 1 39 1;
#X connect 34 0 39 0;
#X connect 35 0 38 0;
#X connect 36 0 35 1;
#X connect 37 0 46 0;
#X connect 38 0 34 0;
#X connect 41 0 42 0;
#X connect 43 0 44 0;
#X connect 44 0 45 0;
#X connect 45 0 47 0;
#X connect 46 0 44 1;
