#N canvas 352 27 613 533 10;
#X obj 227 16 namecanvas \$0-xel.kernel;
#X obj 229 40 loadbang;
#N canvas 84 258 268 338 script 0;
#X obj 7 9 inlet;
#X obj 7 74 f \$0;
#X obj 70 51 * 20;
#X obj 70 73 + 10;
#X obj 7 94 pack f f f, f 11;
#X obj 7 30 t b f f, f 11;
#X msg 7 116 \; \$1-xel.kernel obj 10 \$3 pd out-\$1-\$2 \; pd-out-\$1-\$2
vis 0 \; pd-out-\$1-\$2 obj 10 10 spam.in~ \; pd-out-\$1-\$2 obj 25
30 r \$1-g-\$2 \; pd-out-\$1-\$2 obj 75 50 r \$1-ramp \; pd-out-\$1-\$2
obj 25 70 pack f 20 \; pd-out-\$1-\$2 obj 25 90 line~ \; pd-out-\$1-\$2
obj 10 110 *~ \; pd-out-\$1-\$2 obj 10 130 spam.out~ \$2 \; pd-out-\$1-\$2
connect 0 0 5 0 \; pd-out-\$1-\$2 connect 5 0 6 0 \; pd-out-\$1-\$2
connect 1 0 3 0 \; pd-out-\$1-\$2 connect 2 0 3 1 \; pd-out-\$1-\$2
connect 3 0 4 0 \; pd-out-\$1-\$2 connect 4 0 5 1 \;;
#X connect 0 0 5 0;
#X connect 1 0 4 0;
#X connect 2 0 3 0;
#X connect 3 0 4 2;
#X connect 4 0 6 0;
#X connect 5 0 1 0;
#X connect 5 1 4 1;
#X connect 5 2 2 0;
#X restore 229 104 pd script;
#N canvas 0 22 132 132 counter 0;
#X obj 13 29 t f b, f 7;
#X obj 13 51 until;
#X obj 52 51 f 0;
#X obj 13 73 f, f 7;
#X obj 63 73 + 1;
#X obj 13 8 inlet;
#X obj 13 95 outlet;
#X connect 0 0 1 0;
#X connect 0 1 2 0;
#X connect 1 0 3 0;
#X connect 2 0 3 1;
#X connect 3 0 4 0;
#X connect 3 0 6 0;
#X connect 4 0 3 1;
#X connect 5 0 0 0;
#X restore 229 83 pd counter;
#X obj 229 61 xel.2d.get.nelems \$2 \$3;
#X obj 386 16 spam.in 0;
#N canvas 481 283 544 403 check.length 0;
#X obj 15 12 inlet;
#X msg 105 306 The kernel size is not coherent with the number of arguments!
, f 35;
#X obj 105 343 print xel.2d.syn.kernel~;
#X obj 35 74 unpack, f 7;
#X obj 35 116 *, f 7;
#X obj 109 144 % 2;
#X obj 178 206 sel 0;
#X obj 90 74 list length;
#X obj 90 116 - 2;
#X obj 15 34 t l l, f 10;
#X obj 148 143 % 2;
#X obj 217 205 sel 0;
#X msg 178 238 The number of rows and the number of columns in the
kernel must be odd., f 37;
#X obj 178 273 print xel.2d.syn.kernel~;
#X obj 35 96 t f f;
#X obj 109 168 &&, f 7;
#X obj 105 281 sel 0;
#X obj 35 144 ==, f 8;
#X obj 35 189 &&, f 13;
#X obj 35 211 outlet;
#X connect 0 0 9 0;
#X connect 1 0 2 0;
#X connect 3 0 14 0;
#X connect 3 1 4 1;
#X connect 3 1 10 0;
#X connect 4 0 17 0;
#X connect 5 0 6 0;
#X connect 5 0 15 0;
#X connect 6 0 12 0;
#X connect 7 0 8 0;
#X connect 8 0 17 1;
#X connect 9 0 3 0;
#X connect 9 1 7 0;
#X connect 10 0 11 0;
#X connect 10 0 15 1;
#X connect 11 0 12 0;
#X connect 12 0 13 0;
#X connect 14 0 4 0;
#X connect 14 1 5 0;
#X connect 15 0 18 1;
#X connect 16 0 1 0;
#X connect 17 0 16 0;
#X connect 17 0 18 0;
#X connect 18 0 19 0;
#X restore 405 124 pd check.length;
#X obj 386 80 t l l b;
#X obj 435 59 s \$0-ramp;
#X obj 386 38 route matrix ramp;
#X obj 386 154 spigot;
#N canvas 0 22 195 174 reset.to.zero 0;
#X obj 21 19 inlet;
#N canvas 0 22 132 132 counter 0;
#X obj 13 29 t f b, f 7;
#X obj 13 51 until;
#X obj 52 51 f 0;
#X obj 13 73 f, f 7;
#X obj 63 73 + 1;
#X obj 13 8 inlet;
#X obj 13 95 outlet;
#X connect 0 0 1 0;
#X connect 0 1 2 0;
#X connect 1 0 3 0;
#X connect 2 0 3 1;
#X connect 3 0 4 0;
#X connect 3 0 6 0;
#X connect 4 0 3 1;
#X connect 5 0 0 0;
#X restore 21 64 pd counter;
#X obj 21 42 xel.2d.get.nelems \$2 \$3;
#X obj 21 130 float 0;
#X obj 21 86 makefilename \$0-g-%d;
#X msg 21 108 send \$1;
#X connect 0 0 2 0;
#X connect 1 0 4 0;
#X connect 2 0 1 0;
#X connect 4 0 5 0;
#X connect 5 0 3 0;
#X restore 425 102 pd reset.to.zero;
#N canvas 0 22 311 619 compute.coefficients 0;
#X obj 108 552 makefilename \$0-g-%d;
#X obj 63 573 s, f 8;
#X obj 116 44 list split 2;
#X obj 108 209 f;
#X obj 63 188 t f b, f 8;
#X obj 134 209 - 1;
#X obj 123 189 - 1;
#X obj 108 253 unpack f f, f 16;
#X obj 108 325 -;
#X obj 108 417 +;
#X obj 108 231 xel.2d.get.itorc;
#N canvas 0 22 158 113 list.elems 0;
#X obj 9 32 list split 1, f 15;
#X obj 52 54 t l;
#X obj 9 10 inlet;
#X obj 9 54 outlet;
#X connect 0 0 3 0;
#X connect 0 1 1 0;
#X connect 1 0 0 0;
#X connect 2 0 0 0;
#X restore 63 166 pd list.elems;
#X obj 143 98 unpack f f, f 16;
#X obj 201 325 -;
#X obj 201 417 +;
#X obj 123 145 *, f 16;
#X obj 123 372 xel.2d.get.itorc \$2 \$3 \$1;
#X obj 123 394 unpack f f, f 16;
#X obj 123 349 loadbang;
#X obj 123 301 / 2;
#X obj 216 301 / 2;
#X obj 116 66 t b l;
#X obj 63 143 list;
#X obj 108 439 pack f f, f 16;
#X obj 108 530 xel.2d.get.rctoi \$2 \$3;
#X obj 63 529 spigot;
#N canvas 0 22 193 198 filter.rc 0;
#X obj 34 18 inlet;
#X obj 34 40 unpack f f, f 12;
#X obj 34 62 t f f, f 6;
#X obj 34 84 >= 0;
#X obj 34 106 &&, f 6;
#X obj 67 84 < \$2;
#X obj 103 62 t f f, f 6;
#X obj 103 84 >= 0;
#X obj 103 106 &&, f 6;
#X obj 136 84 < \$3;
#X obj 34 128 &&, f 12;
#X obj 34 150 outlet;
#X connect 0 0 1 0;
#X connect 1 0 2 0;
#X connect 1 1 6 0;
#X connect 2 0 3 0;
#X connect 2 1 5 0;
#X connect 3 0 4 0;
#X connect 4 0 10 0;
#X connect 5 0 4 1;
#X connect 6 0 7 0;
#X connect 6 1 9 0;
#X connect 7 0 8 0;
#X connect 8 0 10 1;
#X connect 9 0 8 1;
#X connect 10 0 11 0;
#X restore 141 481 pd filter.rc;
#X obj 108 461 t l l, f 6;
#X obj 108 503 spigot;
#X obj 117 19 inlet;
#X obj 123 280 - 1;
#X obj 216 280 - 1;
#X connect 0 0 1 1;
#X connect 2 0 21 0;
#X connect 2 1 22 1;
#X connect 3 0 5 0;
#X connect 3 0 10 0;
#X connect 4 0 25 0;
#X connect 4 1 3 0;
#X connect 5 0 3 1;
#X connect 6 0 3 1;
#X connect 7 0 8 0;
#X connect 7 1 13 0;
#X connect 8 0 9 0;
#X connect 9 0 23 0;
#X connect 10 0 7 0;
#X connect 11 0 4 0;
#X connect 12 0 15 0;
#X connect 12 0 30 0;
#X connect 12 1 15 1;
#X connect 12 1 31 0;
#X connect 13 0 14 0;
#X connect 14 0 23 1;
#X connect 15 0 6 0;
#X connect 16 0 17 0;
#X connect 17 0 9 1;
#X connect 17 1 14 1;
#X connect 18 0 16 0;
#X connect 19 0 8 1;
#X connect 20 0 13 1;
#X connect 21 0 22 0;
#X connect 21 1 12 0;
#X connect 21 1 10 1;
#X connect 22 0 11 0;
#X connect 23 0 27 0;
#X connect 24 0 0 0;
#X connect 25 0 1 0;
#X connect 26 0 28 1;
#X connect 26 0 25 1;
#X connect 27 0 28 0;
#X connect 27 1 26 0;
#X connect 28 0 24 0;
#X connect 29 0 2 0;
#X connect 30 0 19 0;
#X connect 31 0 20 0;
#X restore 386 179 pd compute.coefficients;
#X connect 1 0 4 0;
#X connect 3 0 2 0;
#X connect 4 0 3 0;
#X connect 5 0 9 0;
#X connect 6 0 10 1;
#X connect 7 0 10 0;
#X connect 7 1 6 0;
#X connect 7 2 11 0;
#X connect 9 0 7 0;
#X connect 9 1 8 0;
#X connect 10 0 12 0;
