#N canvas 448 306 239 175 10;
#X obj 21 7 inlet;
#X obj 21 123 outlet;
#X obj 21 49 unpack f f;
#X obj 21 29 route list, f 13;
#X obj 21 71 f \$1;
#X obj 96 48 bang;
#X obj 21 91 * \$2, f 10;
#X connect 0 0 3 0;
#X connect 2 0 4 0;
#X connect 2 1 6 1;
#X connect 3 0 2 0;
#X connect 3 1 5 0;
#X connect 4 0 6 0;
#X connect 5 0 4 0;
#X connect 6 0 1 0;
