#N canvas 858 137 568 474 10;
#N canvas 0 22 450 300 get.ptr 0;
#X obj 4 72 pointer;
#X msg 4 48 traverse pd-\$1 \, bang;
#X obj 4 3 inlet;
#X obj 4 94 outlet;
#X obj 4 23 symbol \$1;
#X connect 0 0 3 0;
#X connect 1 0 0 0;
#X connect 2 0 4 0;
#X connect 4 0 1 0;
#X restore 154 259 pd get.ptr;
#X obj 13 256 f 0;
#N canvas 248 34 137 159 do.clear 0;
#X msg 23 85 \; pd-\$1 clear;
#X obj 23 35 inlet;
#X obj 23 61 symbol \$1;
#X connect 1 0 2 0;
#X connect 2 0 0 0;
#X restore 172 234 pd do.clear;
#N canvas 425 23 656 721 resize.cells 0;
#X obj 103 25 inlet;
#N canvas 0 22 450 300 counter 0;
#X obj 35 17 inlet;
#X obj 35 39 t f b, f 7;
#X obj 35 61 until;
#X obj 74 61 f 0;
#X obj 35 83 f, f 7;
#X obj 85 83 + 1;
#X obj 35 105 outlet;
#X connect 0 0 1 0;
#X connect 1 0 2 0;
#X connect 1 1 3 0;
#X connect 2 0 4 0;
#X connect 3 0 4 1;
#X connect 4 0 5 0;
#X connect 4 0 6 0;
#X connect 5 0 4 1;
#X restore 103 203 pd counter;
#X obj 414 487 r \$0-c0;
#X obj 103 225 t f f, f 43;
#X obj 103 47 t p p, f 72;
#X obj 103 69 t b p, f 34;
#X obj 133 180 setsize \$0-stuct-matrix cells;
#X obj 103 158 t f f;
#X obj 358 402 element \$0-stuct-matrix cells;
#X obj 103 269 xel.2d.get.itorc;
#X obj 103 136 xel.2d.get.nelems;
#X obj 103 114 list;
#X obj 124 91 r \$0-size;
#X obj 196 248 r \$0-size;
#X obj 103 291 unpack f f;
#X obj 145 331 r \$0-size;
#X obj 145 353 unpack f f;
#X obj 103 447 - 1;
#X obj 190 447 - 1;
#X msg 202 375 2 \$1;
#X msg 145 375 2 \$1;
#X obj 145 397 /;
#X obj 202 397 /;
#X obj 103 425 *;
#X obj 190 425 *;
#X obj 103 469 t f f;
#X obj 130 491 +;
#X obj 190 469 t f f;
#X obj 217 491 +;
#X obj 103 632 set \$0-struct-element val c1 c2 x1 y1 x2 y2 xv yv;
#X obj 103 543 pack f f f f f f;
#X obj 140 512 -;
#X obj 103 578 pack f f f f f f 999, f 39;
#X msg 103 604 0 \$7 0 \$1 \$4 \$2 \$5 \$3 \$6;
#X obj 156 432 / 1.5;
#X obj 227 521 -;
#X obj 247 432 / 2.5;
#X obj 493 631 outlet;
#X connect 0 0 4 0;
#X connect 1 0 3 0;
#X connect 2 0 32 6;
#X connect 3 0 9 0;
#X connect 3 1 8 0;
#X connect 4 0 5 0;
#X connect 4 1 8 1;
#X connect 4 1 37 0;
#X connect 5 0 11 0;
#X connect 5 1 6 1;
#X connect 7 0 1 0;
#X connect 7 1 6 0;
#X connect 8 0 29 9;
#X connect 9 0 14 0;
#X connect 10 0 7 0;
#X connect 11 0 10 0;
#X connect 12 0 11 1;
#X connect 13 0 9 1;
#X connect 14 0 23 0;
#X connect 14 1 24 0;
#X connect 15 0 16 0;
#X connect 16 0 20 0;
#X connect 16 1 19 0;
#X connect 17 0 25 0;
#X connect 18 0 27 0;
#X connect 19 0 22 0;
#X connect 20 0 21 0;
#X connect 21 0 23 1;
#X connect 21 0 26 1;
#X connect 21 0 34 0;
#X connect 22 0 24 1;
#X connect 22 0 28 1;
#X connect 22 0 36 0;
#X connect 23 0 17 0;
#X connect 24 0 18 0;
#X connect 25 0 30 0;
#X connect 25 1 26 0;
#X connect 26 0 30 1;
#X connect 26 0 31 0;
#X connect 27 0 30 3;
#X connect 27 1 28 0;
#X connect 28 0 30 4;
#X connect 28 0 35 0;
#X connect 30 0 32 0;
#X connect 31 0 30 2;
#X connect 32 0 33 0;
#X connect 33 0 29 0;
#X connect 34 0 31 1;
#X connect 35 0 30 5;
#X connect 36 0 35 1;
#X restore 13 304 pd resize.cells;
#X obj 13 279 append \$0-stuct-matrix x;
#X obj 13 212 t b b, f 27;
#X obj 13 234 t b b, f 24;
#X obj 13 13 inlet;
#X obj 80 113 t b b, f 8;
#X obj 80 136 f \$2;
#X obj 80 158 pack f f;
#X obj 125 136 f \$3;
#X obj 80 180 s \$0-size;
#X obj 53 65 loadbang;
#X obj 53 87 t b b;
#X obj 13 57 t b l;
#X obj 13 35 route list;
#N canvas 429 287 403 106 \$0-struct-element 0;
#X obj 15 8 struct \$0-struct-element float x1 float y1 float x2 float
y2 float xv float yv float c1 float c2 float val;
#X obj 15 46 filledpolygon c1 c2 1 x1 y1 x2 y1 x2 y2 x1 y2 x1 y1;
#X obj 15 68 drawnumber val xv yv 0;
#X restore 332 42 pd \$0-struct-element;
#N canvas 460 323 431 108 \$0-stuct-matrix 0;
#X obj 37 46 plot cells 0 1 0 0 0;
#X obj 27 18 struct \$0-stuct-matrix float x array cells \$0-struct-element
;
#X obj 27 70 outlet;
#X connect 1 0 2 0;
#X restore 332 19 pd \$0-stuct-matrix;
#X obj 128 59 bng 15 250 50 0 empty empty empty 17 7 0 10 -262144 -1
-1;
#X obj 15 332 get \$0-stuct-matrix cells;
#X obj 295 96 print;
#X obj 330 68 get \$0-stuct-matrix;
#X connect 0 0 4 1;
#X connect 1 0 4 0;
#X connect 4 0 3 0;
#X connect 5 0 6 0;
#X connect 5 1 2 0;
#X connect 6 0 1 0;
#X connect 6 1 0 0;
#X connect 7 0 16 0;
#X connect 8 0 9 0;
#X connect 8 1 11 0;
#X connect 9 0 10 0;
#X connect 10 0 12 0;
#X connect 11 0 10 1;
#X connect 13 0 14 0;
#X connect 14 0 5 0;
#X connect 14 1 8 0;
#X connect 15 0 5 0;
#X connect 15 1 12 0;
#X connect 16 0 15 0;
#X connect 18 0 21 0;
#X connect 19 0 14 0;
