#N canvas 448 306 220 308 10;
#X obj 48 125 int;
#X obj 21 81 t f f;
#X obj 21 195 -, f 5;
#X obj 21 247 pack f f;
#X obj 21 272 outlet;
#X obj 21 222 swap, f 8;
#X obj 21 7 inlet;
#X obj 71 7 inlet;
#X obj 48 147 t f f;
#X obj 71 29 unpack f f;
#X obj 48 167 * \$2;
#X obj 48 103 / \$2;
#X obj 21 59 f \$3;
#X connect 0 0 8 0;
#X connect 1 0 2 0;
#X connect 1 1 11 0;
#X connect 2 0 5 0;
#X connect 3 0 4 0;
#X connect 5 0 3 0;
#X connect 5 1 3 1;
#X connect 6 0 12 0;
#X connect 7 0 9 0;
#X connect 8 0 10 0;
#X connect 8 1 5 1;
#X connect 9 1 10 1;
#X connect 9 1 11 1;
#X connect 10 0 2 1;
#X connect 11 0 0 0;
#X connect 12 0 1 0;
