#N canvas 629 98 732 695 10;
#X obj 13 13 inlet;
#X obj 13 35 route matrix;
#X obj 13 57 list split 2;
#X obj 13 145 spigot;
#N canvas 0 22 137 149 init.size 0;
#X obj 6 33 t b b, f 8;
#X obj 6 56 f \$2;
#X obj 6 78 pack f f;
#X obj 51 56 f \$3;
#X obj 6 10 loadbang;
#X obj 6 100 outlet;
#X connect 0 0 1 0;
#X connect 0 1 3 0;
#X connect 1 0 2 0;
#X connect 2 0 5 0;
#X connect 3 0 2 1;
#X connect 4 0 0 0;
#X restore 20 78 pd init.size;
#N canvas 470 263 324 281 check.size 0;
#X obj 12 12 inlet;
#X obj 45 222 outlet;
#X obj 12 244 s \$0-size;
#X obj 12 34 t l l, f 6;
#X obj 12 191 spigot;
#X obj 45 54 unpack f f, f 13;
#X obj 45 100 >= 0;
#X obj 120 100 >= 0;
#X obj 45 124 &&, f 13;
#X obj 94 166 sel 0;
#X msg 94 188 matrix sizes can't be negatives;
#X obj 94 210 print xel.2d.gui.mat;
#X obj 45 76 t f f, f 6;
#X obj 120 76 t f f, f 6;
#X obj 78 100 != 0;
#X obj 153 100 != 0;
#X obj 99 34 unpack f f, f 13;
#X obj 78 144 &&, f 13;
#X obj 45 166 &&, f 6;
#X obj 99 12 r \$0-size;
#X connect 0 0 3 0;
#X connect 3 0 4 0;
#X connect 3 1 5 0;
#X connect 4 0 2 0;
#X connect 5 0 12 0;
#X connect 5 1 13 0;
#X connect 6 0 8 0;
#X connect 7 0 8 1;
#X connect 8 0 18 0;
#X connect 8 0 9 0;
#X connect 9 0 10 0;
#X connect 10 0 11 0;
#X connect 12 0 6 0;
#X connect 12 1 14 0;
#X connect 13 0 7 0;
#X connect 13 1 15 0;
#X connect 14 0 17 0;
#X connect 15 0 17 1;
#X connect 16 0 14 1;
#X connect 16 1 15 1;
#X connect 17 0 18 1;
#X connect 18 0 4 1;
#X connect 18 0 1 0;
#X connect 19 0 16 0;
#X restore 46 124 pd check.size;
#X obj 13 221 xel.2d.get.nelems;
#N canvas 0 22 153 164 counter 0;
#X obj 35 17 inlet;
#X obj 35 39 t f b, f 7;
#X obj 35 61 until;
#X obj 74 61 f 0;
#X obj 35 83 f, f 7;
#X obj 85 83 + 1;
#X obj 35 105 outlet;
#X connect 0 0 1 0;
#X connect 1 0 2 0;
#X connect 1 1 3 0;
#X connect 2 0 4 0;
#X connect 3 0 4 1;
#X connect 4 0 5 0;
#X connect 4 0 6 0;
#X connect 5 0 4 1;
#X restore 13 267 pd counter;
#N canvas 0 22 280 487 compute.positions 1;
#X obj 11 42 xel.2d.get.itorc;
#X obj 104 21 r \$0-size;
#X obj 11 64 unpack f f, f 14;
#X obj 53 86 r \$0-size;
#X obj 53 108 unpack f f, f 14;
#X obj 92 222 - 1;
#X msg 53 150 2 \$1;
#X obj 53 172 /;
#X obj 11 200 *;
#X obj 92 200 *;
#X obj 38 266 +;
#X obj 92 244 t f f;
#X obj 119 264 +;
#X obj 11 348 pack f f f f f f, f 23;
#X obj 146 287 -;
#X obj 161 264 / 2.5;
#X obj 11 392 outlet;
#X obj 11 20 inlet;
#X msg 11 370 \$1 \$4 \$2 \$5 \$3 \$6;
#X obj 11 222 - 1;
#X msg 134 150 2 \$1;
#X obj 134 172 /;
#X obj 11 244 t f f f, f 10;
#X obj 68 287 +;
#X obj 80 264 * 0.25;
#X connect 0 0 2 0;
#X connect 1 0 0 1;
#X connect 2 0 8 0;
#X connect 2 1 9 0;
#X connect 3 0 4 0;
#X connect 4 0 6 0;
#X connect 4 1 20 0;
#X connect 5 0 11 0;
#X connect 6 0 7 0;
#X connect 7 0 8 1;
#X connect 7 0 10 1;
#X connect 7 0 24 0;
#X connect 8 0 19 0;
#X connect 9 0 5 0;
#X connect 10 0 13 1;
#X connect 11 0 13 3;
#X connect 11 1 12 0;
#X connect 12 0 13 4;
#X connect 12 0 14 0;
#X connect 13 0 18 0;
#X connect 14 0 13 5;
#X connect 15 0 14 1;
#X connect 17 0 0 0;
#X connect 18 0 16 0;
#X connect 19 0 22 0;
#X connect 20 0 21 0;
#X connect 21 0 9 1;
#X connect 21 0 12 1;
#X connect 21 0 15 0;
#X connect 22 0 13 0;
#X connect 22 1 10 0;
#X connect 22 2 23 0;
#X connect 23 0 13 2;
#X connect 24 0 23 1;
#X restore 13 288 pd compute.positions;
#X msg 13 310 \$1 \$2 \$3 \$4 \$5 \$6 0 999 0;
#X obj 13 101 t l l, f 6;
#N canvas 460 323 431 134 \$0-stuct-matrix 1;
#X obj 15 93 outlet;
#X obj 35 46 filledpolygon -x c1 c2 1 x1 y1 x2 y1 x2 y2 x1 y2 x1 y1
;
#X obj 15 8 struct \$0-stuct-matrix float x1 float y1 float x2 float
y2 float xv float yv float c1 float c2 float val;
#X obj 35 68 drawnumber val xv yv 0;
#X connect 2 0 0 0;
#X restore 272 19 pd \$0-stuct-matrix;
#N canvas 0 22 450 300 get.ptr 0;
#X obj 4 72 pointer;
#X msg 4 48 traverse pd-\$1 \, bang;
#X obj 4 3 inlet;
#X obj 4 94 outlet;
#X obj 4 23 symbol \$1;
#X connect 0 0 3 0;
#X connect 1 0 0 0;
#X connect 2 0 4 0;
#X connect 4 0 1 0;
#X restore 154 215 pd get.ptr;
#N canvas 248 34 137 159 do.clear 0;
#X msg 23 85 \; pd-\$1 clear;
#X obj 23 35 inlet;
#X obj 23 61 symbol \$1;
#X connect 1 0 2 0;
#X connect 2 0 0 0;
#X restore 166 190 pd do.clear;
#X obj 13 190 t l b, f 24;
#X obj 13 387 s \$0-ptr;
#X obj 33 244 s \$0-nelems;
#X obj 506 14 array define \$0-vals;
#X obj 507 38 r \$0-nelems;
#X obj 507 60 array size \$0-vals;
#X obj 272 109 outlet;
#X obj 13 168 t l b, f 26;
#X obj 13 335 append \$0-stuct-matrix x1 y1 x2 y2 xv yv val c1 c2,
f 24;
#X obj 390 455 array set \$0-vals;
#X obj 272 41 route click change;
#X obj 222 129 bng 15 250 50 0 empty empty empty 17 7 0 10 -262144
-1 -1;
#X obj 272 63 t b p, f 14;
#X obj 354 143 / 100;
#X obj 316 165 nbx 5 14 -1e+37 1e+37 0 0 empty empty empty 0 -8 0 10
-262144 -1 -1 0 256;
#X obj 354 85 get \$0-stuct-matrix val x1 y1;
#X obj 454 115 r \$0-size;
#X obj 454 137 unpack f f, f 15;
#X obj 568 396 r \$0-size;
#X obj 439 395 pack f f, f 15;
#X obj 439 323 int;
#X obj 526 323 int;
#X obj 541 465 print;
#X obj 439 417 xel.2d.get.rctoi \$2 \$3;
#X obj 573 441 print pos;
#X obj 646 160 print real;
#X obj 647 96 pack f f;
#X obj 525 214 + 1;
#N canvas 0 22 286 179 do.output 0;
#X obj 12 32 float 0;
#X obj 51 10 r \$0-nelems;
#N canvas 0 22 232 275 counter 0;
#X obj 35 17 inlet;
#X obj 35 59 t f b, f 7;
#X obj 35 81 until;
#X obj 74 81 f 0;
#X obj 35 103 f, f 7;
#X obj 85 103 + 1;
#X obj 62 155 outlet;
#X obj 35 125 t f f;
#X obj 35 155 ==;
#X obj 35 39 t f f, f 13;
#X obj 110 134 - 1;
#X obj 35 177 sel 1;
#X obj 35 199 outlet;
#X connect 0 0 9 0;
#X connect 1 0 2 0;
#X connect 1 1 3 0;
#X connect 2 0 4 0;
#X connect 3 0 4 1;
#X connect 4 0 5 0;
#X connect 4 0 7 0;
#X connect 5 0 4 1;
#X connect 7 0 8 0;
#X connect 7 1 6 0;
#X connect 8 0 11 0;
#X connect 9 0 1 0;
#X connect 9 1 10 0;
#X connect 10 0 8 1;
#X connect 11 0 12 0;
#X restore 12 54 pd counter;
#X obj 159 54 r \$0-size;
#X obj 12 75 array get \$0-vals;
#X obj 12 97 list prepend matrix \$2 \$3;
#X obj 12 119 list trim;
#X msg 159 76 matrix \$1 \$2;
#X obj 12 141 outlet;
#X obj 12 10 inlet;
#X connect 0 0 2 0;
#X connect 1 0 0 1;
#X connect 2 0 4 0;
#X connect 3 0 7 0;
#X connect 4 0 5 0;
#X connect 5 0 6 0;
#X connect 6 0 8 0;
#X connect 7 0 5 1;
#X connect 9 0 0 0;
#X restore 272 85 pd do.output;
#X obj 379 510 set \$0-stuct-matrix x1 y1;
#X msg 454 159 2 \$1;
#X obj 454 181 /;
#X msg 541 159 2 \$1;
#X obj 541 181 /;
#X obj 439 302 /;
#X obj 526 302 /;
#X obj 439 345 nbx 5 14 -1e+37 1e+37 0 0 empty empty empty 0 -8 0 10
-262144 -1 -1 3 256;
#X obj 526 345 nbx 5 14 -1e+37 1e+37 0 0 empty empty empty 0 -8 0 10
-262144 -1 -1 4 256;
#X obj 454 210 / 2.5;
#X obj 439 236 -;
#X obj 439 274 + 1;
#X obj 373 243 nbx 5 14 -1e+37 1e+37 0 0 empty empty empty 0 -8 0 10
-262144 -1 -1 3.6 256;
#X obj 366 212 nbx 5 14 -1e+37 1e+37 0 0 empty empty empty 0 -8 0 10
-262144 -1 -1 0.6 256;
#X connect 0 0 1 0;
#X connect 1 0 2 0;
#X connect 2 0 10 0;
#X connect 3 0 21 0;
#X connect 4 0 10 0;
#X connect 5 0 3 1;
#X connect 6 0 16 0;
#X connect 6 0 7 0;
#X connect 7 0 8 0;
#X connect 8 0 9 0;
#X connect 9 0 22 0;
#X connect 10 0 3 0;
#X connect 10 1 5 0;
#X connect 11 0 24 0;
#X connect 12 0 22 9;
#X connect 14 0 6 0;
#X connect 14 1 12 0;
#X connect 18 0 19 0;
#X connect 21 0 14 0;
#X connect 21 1 13 0;
#X connect 22 0 15 0;
#X connect 24 0 26 0;
#X connect 24 1 26 0;
#X connect 25 0 13 0;
#X connect 26 0 42 0;
#X connect 26 1 29 0;
#X connect 27 0 28 0;
#X connect 27 0 23 0;
#X connect 29 0 27 0;
#X connect 29 1 40 0;
#X connect 29 1 53 0;
#X connect 29 1 56 0;
#X connect 29 2 40 1;
#X connect 29 2 41 0;
#X connect 30 0 31 0;
#X connect 31 0 44 0;
#X connect 31 1 46 0;
#X connect 32 0 37 1;
#X connect 33 0 37 0;
#X connect 33 0 38 0;
#X connect 34 0 50 0;
#X connect 35 0 51 0;
#X connect 37 0 23 1;
#X connect 40 0 39 0;
#X connect 41 0 49 0;
#X connect 42 0 20 0;
#X connect 44 0 45 0;
#X connect 45 0 52 0;
#X connect 45 0 48 1;
#X connect 46 0 47 0;
#X connect 47 0 49 1;
#X connect 48 0 34 0;
#X connect 48 0 55 0;
#X connect 49 0 35 0;
#X connect 52 0 53 1;
#X connect 53 0 54 0;
#X connect 54 0 48 0;
