#N canvas 448 306 217 190 10;
#X obj 21 148 outlet;
#X obj 21 7 inlet;
#X obj 101 7 inlet;
#X obj 101 59 unpack f f;
#X obj 21 79 f \$3;
#X obj 21 101 * \$2;
#X obj 21 123 + \$4;
#X obj 21 29 route list bang;
#X obj 21 51 unpack f f;
#X connect 1 0 7 0;
#X connect 2 0 3 0;
#X connect 3 1 5 1;
#X connect 4 0 5 0;
#X connect 5 0 6 0;
#X connect 6 0 0 0;
#X connect 7 0 8 0;
#X connect 7 1 4 0;
#X connect 8 0 4 0;
#X connect 8 1 6 1;
