#N canvas 58 245 636 536 10;
#X obj 21 7 inlet;
#X obj 247 15 r \$0-nelems, f 12;
#X obj 21 29 route bang matrix;
#N canvas 0 22 261 257 check.size 0;
#X obj 12 12 inlet;
#X obj 12 34 unpack f f;
#X obj 12 61 >= 0;
#X obj 69 61 >= 0;
#X obj 12 85 &&, f 10;
#X obj 12 177 outlet;
#X obj 32 107 sel 0;
#X msg 32 129 matrix sizes can't be negatives;
#X obj 32 151 print xel.2d.mat;
#X connect 0 0 1 0;
#X connect 1 0 2 0;
#X connect 1 1 3 0;
#X connect 2 0 4 0;
#X connect 3 0 4 1;
#X connect 4 0 5 0;
#X connect 4 0 6 0;
#X connect 6 0 7 0;
#X connect 7 0 8 0;
#X restore 136 96 pd check.size;
#X obj 103 73 t l l, f 6;
#X obj 103 118 spigot;
#X obj 103 160 unpack f f;
#X obj 103 182 *, f 10;
#X obj 103 204 s \$0-nelems;
#X obj 70 51 t b l, f 6;
#X obj 247 60 array define \$0-values;
#X obj 247 36 array size \$0-values;
#N canvas 0 22 137 149 init.size 0;
#X obj 6 33 t b b, f 8;
#X obj 6 78 pack f f;
#X obj 6 10 loadbang;
#X obj 6 100 outlet;
#X obj 6 56 f \$1;
#X obj 51 56 f \$2;
#X connect 0 0 4 0;
#X connect 0 1 5 0;
#X connect 1 0 3 0;
#X connect 2 0 0 0;
#X connect 4 0 1 0;
#X connect 5 0 1 1;
#X restore 114 51 pd init.size;
#X obj 116 139 s \$0-size;
#N canvas 402 180 153 176 counter 0;
#X obj 8 75 f, f 7;
#X obj 59 75 + 1;
#X obj 47 53 f 0;
#X obj 59 98 sel;
#X obj 8 53 until;
#X obj 8 8 inlet;
#X obj 8 127 outlet;
#X obj 59 120 outlet;
#X obj 8 31 t f b f, f 11;
#X obj 8 97 t f f;
#X connect 0 0 9 0;
#X connect 1 0 0 1;
#X connect 1 0 3 0;
#X connect 2 0 0 1;
#X connect 3 0 7 0;
#X connect 4 0 0 0;
#X connect 5 0 8 0;
#X connect 8 0 4 0;
#X connect 8 1 2 0;
#X connect 8 2 3 1;
#X connect 9 0 1 0;
#X connect 9 1 6 0;
#X restore 22 315 pd counter;
#X obj 22 295 float;
#X obj 49 273 r \$0-nelems;
#X obj 22 448 array set \$0-values;
#X obj 22 338 t b f, f 9;
#X obj 22 382 / 5e+07;
#X obj 22 360 random 1e+08;
#X obj 22 404 - 1;
#X obj 151 470 +, f 5;
#X obj 198 470 f;
#X obj 178 448 f 0;
#X obj 151 448 abs;
#X obj 22 426 t f f, f 22;
#X obj 21 73 s \$0-compute;
#X obj 22 223 r \$0-compute;
#X obj 369 424 outlet;
#X obj 369 402 list trim;
#X obj 369 380 list prepend matrix \$1 \$2;
#X obj 516 337 r \$0-size;
#X msg 516 359 matrix \$1 \$2;
#X obj 369 360 array get \$0-values;
#X obj 22 245 t b b, f 6;
#X obj 232 295 float;
#X obj 259 273 r \$0-nelems;
#X obj 232 400 array get \$0-values;
#X obj 287 357 loadbang;
#X obj 287 379 f 1;
#X obj 232 337 t f f, f 8;
#X obj 232 467 array set \$0-values;
#N canvas 402 180 153 176 counter 0;
#X obj 8 75 f, f 7;
#X obj 59 75 + 1;
#X obj 47 53 f 0;
#X obj 59 98 sel;
#X obj 8 53 until;
#X obj 8 8 inlet;
#X obj 8 127 outlet;
#X obj 59 120 outlet;
#X obj 8 31 t f b f, f 11;
#X obj 8 97 t f f;
#X connect 0 0 9 0;
#X connect 1 0 0 1;
#X connect 1 0 3 0;
#X connect 2 0 0 1;
#X connect 3 0 7 0;
#X connect 4 0 0 0;
#X connect 5 0 8 0;
#X connect 8 0 4 0;
#X connect 8 1 2 0;
#X connect 8 2 3 1;
#X connect 9 0 1 0;
#X connect 9 1 6 0;
#X restore 232 315 pd counter;
#X obj 232 442 / 1;
#X connect 0 0 2 0;
#X connect 1 0 11 0;
#X connect 2 0 27 0;
#X connect 2 1 9 0;
#X connect 3 0 5 1;
#X connect 4 0 5 0;
#X connect 4 1 3 0;
#X connect 5 0 6 0;
#X connect 5 0 13 0;
#X connect 6 0 7 0;
#X connect 6 1 7 1;
#X connect 7 0 8 0;
#X connect 9 0 27 0;
#X connect 9 1 4 0;
#X connect 12 0 4 0;
#X connect 14 0 18 0;
#X connect 14 1 36 0;
#X connect 15 0 14 0;
#X connect 16 0 15 1;
#X connect 18 0 20 0;
#X connect 18 1 17 1;
#X connect 19 0 21 0;
#X connect 20 0 19 0;
#X connect 21 0 26 0;
#X connect 22 0 23 0;
#X connect 22 0 44 1;
#X connect 23 0 22 1;
#X connect 24 0 22 1;
#X connect 25 0 22 0;
#X connect 26 0 17 0;
#X connect 26 1 25 0;
#X connect 28 0 35 0;
#X connect 30 0 29 0;
#X connect 31 0 30 0;
#X connect 32 0 33 0;
#X connect 33 0 31 1;
#X connect 34 0 31 0;
#X connect 35 0 15 0;
#X connect 35 1 24 0;
#X connect 36 0 43 0;
#X connect 37 0 36 1;
#X connect 38 0 44 0;
#X connect 39 0 40 0;
#X connect 40 0 38 1;
#X connect 41 0 38 0;
#X connect 41 1 42 1;
#X connect 43 0 41 0;
#X connect 43 1 34 0;
#X connect 44 0 42 0;
