#N canvas 617 294 429 512 10;
#X declare -path ../spam;
#X obj 49 147 int;
#X obj 22 103 t f f;
#X obj 22 197 -, f 5;
#X obj 22 224 swap, f 8;
#X obj 49 125 /;
#X obj 49 169 *;
#X obj 22 37 loadbang;
#X obj 22 81 f \$1;
#X obj 67 81 f \$3;
#X obj 21 13 declare -path ../spam;
#X obj 22 404 print \$1;
#X obj 189 399 -, f 6;
#X obj 222 347 / 2;
#X obj 126 399 -, f 6;
#X obj 159 347 / 2;
#X obj 159 325 - 1;
#X obj 222 325 - 1;
#X obj 126 421 /, f 6;
#X obj 189 421 /, f 6;
#X obj 189 443 * -1;
#X obj 22 59 t b b, f 8;
#X obj 196 299 f \$2;
#X obj 22 340 pack f f s f f;
#X obj 22 249 pack f f;
#X obj 22 271 t l b l;
#X msg 51 313 symbol |;
#X obj 119 247 unpack f f;
#X connect 0 0 3 1;
#X connect 0 0 5 0;
#X connect 1 0 2 0;
#X connect 1 1 4 0;
#X connect 2 0 3 0;
#X connect 3 0 23 0;
#X connect 3 1 23 1;
#X connect 4 0 0 0;
#X connect 5 0 2 1;
#X connect 6 0 20 0;
#X connect 7 0 1 0;
#X connect 8 0 4 1;
#X connect 8 0 5 1;
#X connect 8 0 15 0;
#X connect 11 0 18 0;
#X connect 12 0 11 1;
#X connect 12 0 18 1;
#X connect 13 0 17 0;
#X connect 14 0 13 1;
#X connect 14 0 17 1;
#X connect 15 0 14 0;
#X connect 16 0 12 0;
#X connect 17 0 22 3;
#X connect 18 0 19 0;
#X connect 19 0 22 4;
#X connect 20 0 7 0;
#X connect 20 1 8 0;
#X connect 20 1 21 0;
#X connect 21 0 16 0;
#X connect 22 0 10 0;
#X connect 23 0 24 0;
#X connect 24 0 22 0;
#X connect 24 1 25 0;
#X connect 24 2 26 0;
#X connect 25 0 22 2;
#X connect 26 0 11 0;
#X connect 26 1 13 0;
