#N canvas 508 162 645 468 10;
#X obj 328 21 loadbang;
#X obj 328 43 f \$4;
#X obj 328 65 moses 1;
#X obj 328 87 bang;
#X obj 328 109 f 1;
#N canvas 243 57 147 182 counter 0;
#X obj 84 101 + 1;
#X obj 34 30 inlet;
#X obj 34 101 f, f 7;
#X obj 34 123 outlet;
#X obj 34 79 until;
#X obj 34 52 t f b, f 7;
#X obj 73 79 f 0;
#X connect 0 0 2 1;
#X connect 1 0 5 0;
#X connect 2 0 0 0;
#X connect 2 0 3 0;
#X connect 4 0 2 0;
#X connect 5 0 4 0;
#X connect 5 1 6 0;
#X connect 6 0 2 1;
#X restore 328 131 pd counter;
#X obj 385 21 namecanvas \$0-pencil;
#X obj 328 176 f \$0;
#X obj 421 176 * 20;
#X obj 182 166 route matrix;
#X obj 182 188 list split 2;
#X obj 216 210 list split \$1;
#X obj 148 16 spam.in 0;
#X obj 148 303 float;
#X obj 148 259 makefilename \$0-coeff-%d;
#X msg 148 281 send \$1;
#X obj 197 59 t b l;
#X obj 253 234 float;
#X obj 148 38 route list matrix;
#X obj 148 110 list split 1;
#X obj 182 146 list trim;
#X msg 197 81 1;
#X obj 359 176 + 1;
#X obj 328 153 t b f f f, f 16;
#X obj 328 221 pack f f f f, f 16;
#X obj 421 198 + 10;
#X msg 328 246 \; \$1-pencil obj 10 \$4 pd \$1-input-\$2 \; pd-\$1-input-\$2
vis 0 \; pd-\$1-input-\$2 obj 10 10 spam.in~ \$3 \; pd-\$1-input-\$2
obj 10 90 *~ \; pd-\$1-input-\$2 obj 10 110 spam.out~ \; pd-\$1-input-\$2
obj 25 30 receive \$1-coeff-\$2 \; pd-\$1-input-\$2 obj 25 50 pack
f 10 \; pd-\$1-input-\$2 obj 25 70 line~ \; pd-\$1-input-\$2 connect
0 0 1 0 \; pd-\$1-input-\$2 connect 1 0 2 0 \; pd-\$1-input-\$2 connect
3 0 4 0 \; pd-\$1-input-\$2 connect 4 0 5 0 \; pd-\$1-input-\$2 connect
5 0 1 1 \;;
#X connect 0 0 1 0;
#X connect 1 0 2 0;
#X connect 2 0 3 0;
#X connect 2 1 4 0;
#X connect 3 0 4 0;
#X connect 4 0 5 0;
#X connect 5 0 23 0;
#X connect 7 0 24 0;
#X connect 8 0 25 0;
#X connect 9 0 10 0;
#X connect 10 1 11 0;
#X connect 11 1 17 0;
#X connect 12 0 18 0;
#X connect 14 0 15 0;
#X connect 15 0 13 0;
#X connect 16 0 21 0;
#X connect 16 1 10 0;
#X connect 17 0 13 1;
#X connect 18 0 19 0;
#X connect 18 1 16 0;
#X connect 19 0 14 0;
#X connect 19 1 20 0;
#X connect 20 0 9 0;
#X connect 21 0 14 0;
#X connect 22 0 24 1;
#X connect 23 0 7 0;
#X connect 23 1 22 0;
#X connect 23 2 24 2;
#X connect 23 3 8 0;
#X connect 24 0 26 0;
#X connect 25 0 24 3;
