#N canvas 460 120 476 474 10;
#X obj 21 7 inlet;
#X obj 257 65 r \$0-nelems;
#X obj 256 17 r \$0-array;
#X obj 256 41 array define \$0-values;
#X obj 257 87 array size \$0-values;
#X obj 21 443 outlet;
#X obj 21 421 list trim;
#X obj 21 399 list prepend matrix \$1 \$2;
#X obj 168 356 r \$0-size;
#X msg 168 378 matrix \$1 \$2;
#X obj 21 379 array get \$0-values;
#N canvas 0 22 261 257 check.size 0;
#X obj 12 12 inlet;
#X obj 12 34 unpack f f;
#X obj 12 61 >= 0;
#X obj 69 61 >= 0;
#X obj 12 85 &&, f 10;
#X obj 12 177 outlet;
#X obj 32 107 sel 0;
#X msg 32 129 matrix sizes can't be negatives;
#X obj 32 151 print xel.2d.mat;
#X connect 0 0 1 0;
#X connect 1 0 2 0;
#X connect 1 1 3 0;
#X connect 2 0 4 0;
#X connect 3 0 4 1;
#X connect 4 0 5 0;
#X connect 4 0 6 0;
#X connect 6 0 7 0;
#X connect 7 0 8 0;
#X restore 107 156 pd check.size;
#X obj 74 133 t l l, f 6;
#X obj 74 178 spigot;
#X obj 74 247 unpack f f;
#X obj 74 269 *, f 10;
#X obj 101 313 s \$0-nelems;
#N canvas 0 22 137 149 init.size 0;
#X obj 6 33 t b b, f 8;
#X obj 6 78 pack f f;
#X obj 6 10 loadbang;
#X obj 6 100 outlet;
#X obj 6 56 f \$1;
#X obj 51 56 f \$2;
#X connect 0 0 4 0;
#X connect 0 1 5 0;
#X connect 1 0 3 0;
#X connect 2 0 0 0;
#X connect 4 0 1 0;
#X connect 5 0 1 1;
#X restore 85 111 pd init.size;
#X obj 101 226 s \$0-size;
#X obj 74 291 t b f;
#X obj 74 336 s \$0-compute;
#X obj 274 148 r \$0-compute;
#X obj 127 62 s \$0-sigma;
#X obj 259 123 r \$0-sigma;
#X obj 74 200 t l l;
#X obj 21 29 route bang matrix deviation;
#X obj 29 358 r \$0-output;
#N canvas 0 22 200 430 do.normalize 0;
#X obj 18 62 float, f 8;
#X obj 63 40 r \$0-nelems;
#X obj 18 167 array get \$0-values;
#X obj 73 124 loadbang;
#X obj 73 146 f 1;
#X obj 18 104 t f f, f 8;
#X obj 18 341 array set \$0-values, f 16;
#N canvas 402 180 153 176 counter 0;
#X obj 8 75 f, f 7;
#X obj 59 75 + 1;
#X obj 47 53 f 0;
#X obj 59 98 sel;
#X obj 8 53 until;
#X obj 8 8 inlet;
#X obj 8 127 outlet;
#X obj 59 120 outlet;
#X obj 8 31 t f b f, f 11;
#X obj 8 97 t f f;
#X connect 0 0 9 0;
#X connect 1 0 0 1;
#X connect 1 0 3 0;
#X connect 2 0 0 1;
#X connect 3 0 7 0;
#X connect 4 0 0 0;
#X connect 5 0 8 0;
#X connect 8 0 4 0;
#X connect 8 1 2 0;
#X connect 8 2 3 1;
#X connect 9 0 1 0;
#X connect 9 1 6 0;
#X restore 18 82 pd counter;
#X obj 18 9 inlet;
#X obj 75 104 outlet;
#X obj 18 31 t b l;
#X obj 18 189 moses 0;
#X obj 33 212 unpack f f;
#X obj 58 249 /;
#X obj 18 249 /;
#X connect 0 0 7 0;
#X connect 1 0 0 1;
#X connect 2 0 11 0;
#X connect 3 0 4 0;
#X connect 4 0 2 1;
#X connect 5 0 2 0;
#X connect 5 1 6 1;
#X connect 7 0 5 0;
#X connect 7 1 9 0;
#X connect 8 0 10 0;
#X connect 10 0 0 0;
#X connect 10 1 12 0;
#X connect 11 0 14 0;
#X connect 11 1 13 0;
#X connect 12 0 14 1;
#X connect 12 1 13 1;
#X connect 13 0 6 0;
#X connect 14 0 6 0;
#X restore 274 218 pd do.normalize;
#N canvas 246 55 295 547 do.compute 0;
#N canvas 402 180 153 176 counter 0;
#X obj 8 75 f, f 7;
#X obj 59 75 + 1;
#X obj 47 53 f 0;
#X obj 59 98 sel;
#X obj 8 53 until;
#X obj 8 8 inlet;
#X obj 8 127 outlet;
#X obj 59 120 outlet;
#X obj 8 31 t f b f, f 11;
#X obj 8 97 t f f, f 13;
#X connect 0 0 9 0;
#X connect 1 0 0 1;
#X connect 1 0 3 0;
#X connect 2 0 0 1;
#X connect 3 0 7 0;
#X connect 4 0 0 0;
#X connect 5 0 8 0;
#X connect 8 0 4 0;
#X connect 8 1 2 0;
#X connect 8 2 3 1;
#X connect 9 0 1 0;
#X connect 9 1 6 0;
#X restore 25 155 pd counter;
#X obj 25 135 float;
#X obj 52 113 r \$0-nelems;
#X obj 35 286 array set \$0-values;
#X obj 25 85 t b b, f 6;
#X obj 25 178 t f f, f 9;
#X obj 25 200 xel.2d.get.itorc \$1 \$2;
#X obj 154 177 r \$0-size;
#X obj 25 222 xel.2d.get.rctocar \$1 \$2;
#X obj 25 13 inlet;
#X obj 104 513 outlet;
#X obj 25 35 route bang float;
#X obj 71 58 t b f;
#X obj 136 119 float 0.5;
#N canvas 352 185 454 398 compute.log 0;
#X obj 137 97 *, f 5;
#X obj 137 76 t f f;
#X obj 137 31 inlet;
#X obj 12 209 exp;
#X obj 12 162 /, f 11;
#X obj 12 32 unpack f f;
#X obj 12 54 t f f;
#X obj 69 54 t f f;
#X obj 12 76 *, f 5;
#X obj 69 76 *, f 5;
#X obj 12 98 +, f 10;
#X obj 12 377 outlet;
#X obj 12 10 inlet;
#X obj 284 97 sqrt;
#X obj 284 76 f 6.28319;
#X obj 12 120 t f f, f 17;
#X obj 12 323 *, f 17;
#X obj 111 213 t f f;
#X obj 111 235 *, f 5;
#X obj 111 257 /, f 13;
#X obj 186 218 *;
#X obj 111 280 -, f 21;
#X obj 235 218 *;
#X msg 235 240 1 \$1;
#X obj 235 262 /;
#X obj 75 141 * 2;
#X obj 12 184 * -1;
#X obj 12 345 * -1;
#X obj 137 119 *;
#X obj 137 53 t f f f f b, f 25;
#X obj 137 141 *;
#X obj 137 163 *;
#X connect 0 0 25 0;
#X connect 0 0 28 0;
#X connect 1 0 0 0;
#X connect 1 1 0 1;
#X connect 2 0 29 0;
#X connect 3 0 16 0;
#X connect 4 0 26 0;
#X connect 5 0 6 0;
#X connect 5 1 7 0;
#X connect 6 0 8 0;
#X connect 6 1 8 1;
#X connect 7 0 9 0;
#X connect 7 1 9 1;
#X connect 8 0 10 0;
#X connect 9 0 10 1;
#X connect 10 0 15 0;
#X connect 12 0 5 0;
#X connect 13 0 22 1;
#X connect 13 0 20 1;
#X connect 14 0 13 0;
#X connect 15 0 4 0;
#X connect 15 1 17 0;
#X connect 16 0 27 0;
#X connect 17 0 18 0;
#X connect 17 1 18 1;
#X connect 18 0 19 0;
#X connect 19 0 21 0;
#X connect 20 0 19 1;
#X connect 21 0 16 1;
#X connect 22 0 23 0;
#X connect 23 0 24 0;
#X connect 24 0 21 1;
#X connect 25 0 4 1;
#X connect 26 0 3 0;
#X connect 27 0 11 0;
#X connect 28 0 22 0;
#X connect 28 0 30 0;
#X connect 29 0 1 0;
#X connect 29 1 28 1;
#X connect 29 2 30 1;
#X connect 29 3 31 1;
#X connect 29 4 14 0;
#X connect 30 0 31 0;
#X connect 31 0 20 0;
#X restore 25 248 pd compute.log;
#X obj 88 319 moses 0;
#N canvas 130 23 450 300 accum 0;
#X obj 27 60 +, f 5;
#X obj 74 60 f;
#X obj 54 38 f 0;
#X obj 12 82 f;
#X obj 27 37 abs;
#X obj 12 11 inlet;
#X obj 112 11 inlet;
#X obj 12 104 outlet;
#X obj 52 11 inlet;
#X connect 0 0 1 0;
#X connect 0 0 3 1;
#X connect 1 0 0 1;
#X connect 2 0 0 1;
#X connect 3 0 7 0;
#X connect 4 0 0 0;
#X connect 5 0 4 0;
#X connect 6 0 3 0;
#X connect 8 0 2 0;
#X restore 88 382 pd accum;
#N canvas 0 22 450 300 accum 0;
#X obj 27 60 +, f 5;
#X obj 74 60 f;
#X obj 54 38 f 0;
#X obj 12 82 f;
#X obj 27 37 abs;
#X obj 12 11 inlet;
#X obj 72 11 inlet;
#X obj 12 104 outlet;
#X obj 52 11 inlet;
#X connect 0 0 1 0;
#X connect 0 0 3 1;
#X connect 1 0 0 1;
#X connect 2 0 0 1;
#X connect 3 0 7 0;
#X connect 4 0 0 0;
#X connect 5 0 4 0;
#X connect 6 0 3 0;
#X connect 8 0 2 0;
#X restore 151 382 pd accum;
#X obj 70 346 t b b b, f 21;
#X obj 104 488 pack f f, f 11;
#X obj 88 404 * 2;
#X obj 151 404 * 2;
#X connect 0 0 5 0;
#X connect 0 1 18 0;
#X connect 1 0 0 0;
#X connect 2 0 1 1;
#X connect 4 0 1 0;
#X connect 4 1 13 0;
#X connect 4 1 16 1;
#X connect 4 1 17 1;
#X connect 5 0 6 0;
#X connect 5 1 3 1;
#X connect 6 0 8 0;
#X connect 7 0 6 1;
#X connect 7 0 8 1;
#X connect 8 0 14 0;
#X connect 9 0 11 0;
#X connect 11 0 4 0;
#X connect 11 1 12 0;
#X connect 12 0 4 0;
#X connect 12 1 13 1;
#X connect 13 0 14 1;
#X connect 14 0 3 0;
#X connect 14 0 15 0;
#X connect 15 0 16 0;
#X connect 15 1 17 0;
#X connect 16 0 20 0;
#X connect 17 0 21 0;
#X connect 18 1 16 2;
#X connect 18 2 17 2;
#X connect 19 0 10 0;
#X connect 20 0 19 0;
#X connect 21 0 19 1;
#X restore 274 176 pd do.compute;
#X obj 274 240 s \$0-output;
#X connect 0 0 25 0;
#X connect 1 0 4 0;
#X connect 2 0 3 0;
#X connect 6 0 5 0;
#X connect 7 0 6 0;
#X connect 8 0 9 0;
#X connect 9 0 7 1;
#X connect 10 0 7 0;
#X connect 11 0 13 1;
#X connect 12 0 13 0;
#X connect 12 1 11 0;
#X connect 13 0 24 0;
#X connect 14 0 15 0;
#X connect 14 1 15 1;
#X connect 15 0 19 0;
#X connect 17 0 12 0;
#X connect 19 0 20 0;
#X connect 19 1 16 0;
#X connect 21 0 28 0;
#X connect 23 0 28 0;
#X connect 24 0 14 0;
#X connect 24 1 18 0;
#X connect 25 0 10 0;
#X connect 25 1 12 0;
#X connect 25 2 22 0;
#X connect 26 0 10 0;
#X connect 27 0 29 0;
#X connect 28 0 27 0;
