#N canvas 448 306 274 346 10;
#X obj 21 288 outlet;
#X obj 21 7 inlet;
#X obj 131 7 inlet;
#X obj 131 29 unpack f f;
#X obj 21 29 route list bang;
#X obj 21 121 unpack f f;
#X obj 21 143 f \$3;
#X obj 78 143 f \$4;
#X obj 21 217 /;
#X obj 21 195 -;
#X obj 78 217 /;
#X obj 78 195 -;
#X obj 78 239 * -1;
#X obj 21 261 pack f f, f 10;
#X obj 64 80 t b b;
#X obj 131 80 f \$1;
#X obj 188 80 f \$2;
#X obj 131 102 - 1;
#X obj 131 124 / 2;
#X obj 187 102 - 1;
#X obj 187 124 / 2;
#X obj 204 29 loadbang;
#X obj 21 165 swap, f 10;
#X connect 1 0 4 0;
#X connect 2 0 3 0;
#X connect 3 0 15 0;
#X connect 3 1 16 0;
#X connect 4 0 5 0;
#X connect 4 1 14 0;
#X connect 5 0 6 0;
#X connect 5 1 7 0;
#X connect 6 0 22 0;
#X connect 7 0 22 1;
#X connect 8 0 13 0;
#X connect 9 0 8 0;
#X connect 10 0 12 0;
#X connect 11 0 10 0;
#X connect 12 0 13 1;
#X connect 13 0 0 0;
#X connect 14 0 6 0;
#X connect 14 1 7 0;
#X connect 15 0 17 0;
#X connect 16 0 19 0;
#X connect 17 0 18 0;
#X connect 18 0 11 1;
#X connect 18 0 10 1;
#X connect 19 0 20 0;
#X connect 20 0 9 1;
#X connect 20 0 8 1;
#X connect 21 0 15 0;
#X connect 21 0 16 0;
#X connect 22 0 9 0;
#X connect 22 1 11 0;
