#N canvas 459 95 307 377 10;
#X obj 12 323 *~;
#X obj 12 16 spam.in~ 0;
#X obj 12 349 spam.out~;
#X obj 37 112 spam.in 0;
#X obj 27 301 line~;
#X obj 27 37 loadbang;
#X msg 27 88 0 0;
#X obj 27 58 t b b b, f 27;
#N canvas 0 22 237 255 size 0;
#X obj 53 59 spam.in 0;
#X obj 53 81 route size;
#X obj 53 103 max 1;
#X obj 33 27 inlet;
#X obj 33 159 / 1, f 5;
#X obj 33 181 outlet;
#X obj 53 129 t b f;
#X connect 0 0 1 0;
#X connect 1 0 2 0;
#X connect 2 0 6 0;
#X connect 3 0 4 0;
#X connect 4 0 5 0;
#X connect 6 0 4 0;
#X connect 6 1 4 1;
#X restore 27 189 pd size;
#N canvas 0 22 450 300 scale 0;
#X obj 26 62 * 3.14129;
#X obj 26 106 + 1;
#X obj 26 40 min 1;
#X obj 26 84 cos;
#X obj 26 128 * 2.535;
#X obj 26 150 clip 0 1;
#X obj 26 17 inlet;
#X obj 26 238 outlet;
#X connect 0 0 3 0;
#X connect 1 0 4 0;
#X connect 2 0 0 0;
#X connect 3 0 1 0;
#X connect 4 0 5 0;
#X connect 5 0 7 0;
#X connect 6 0 2 0;
#X restore 27 211 pd scale;
#X obj 27 135 route list, f 11;
#N canvas 0 22 450 300 opacity 0;
#X obj 60 25 spam.in 0;
#X obj 60 47 route opacity;
#X obj 60 69 clip 0 100;
#X obj 60 92 / 100;
#X obj 24 25 inlet;
#X obj 24 232 outlet;
#X obj 24 157 * 1, f 5;
#X obj 60 115 t b f, f 6;
#X connect 0 0 1 0;
#X connect 1 0 2 0;
#X connect 2 0 3 0;
#X connect 3 0 7 0;
#X connect 4 0 6 0;
#X connect 6 0 5 0;
#X connect 7 0 6 0;
#X connect 7 1 6 1;
#X restore 27 257 pd opacity;
#N canvas 175 156 450 367 hardness 0;
#X obj 46 39 spam.in 0;
#X obj 46 61 route hardness;
#X obj 46 83 clip 0 100;
#X obj 46 105 / 100;
#X obj 34 158 f;
#X obj 34 253 outlet;
#X obj 34 16 inlet;
#X obj 46 126 t b f;
#X obj 34 205 bang;
#X obj 34 227 f 0;
#X obj 73 159 - 1e-06;
#X obj 34 181 moses 0;
#X connect 0 0 1 0;
#X connect 1 0 2 0;
#X connect 2 0 3 0;
#X connect 3 0 7 0;
#X connect 4 0 11 0;
#X connect 6 0 4 0;
#X connect 7 0 4 0;
#X connect 7 1 10 0;
#X connect 8 0 9 0;
#X connect 9 0 5 0;
#X connect 10 0 11 1;
#X connect 11 0 8 0;
#X connect 11 1 5 0;
#X restore 27 234 pd hardness;
#X obj 27 279 pack f 10;
#X obj 106 86 xel.2d.get.itorc \$2 \$3 \$1;
#X obj 106 112 xel.2d.get.rctocar \$2 \$3;
#X obj 27 165 xel.2d.get.distance, f 27;
#N canvas 0 22 184 205 weight 0;
#X obj 19 14 inlet;
#X obj 19 80 / 2;
#X obj 76 80 / 2;
#X obj 19 102 - 1;
#X obj 76 102 - 1;
#X obj 19 124 pack f f, f 10;
#X obj 19 36 t b b, f 10;
#X obj 19 58 f \$2;
#X obj 76 58 f \$3;
#X obj 19 146 outlet;
#X connect 0 0 6 0;
#X connect 1 0 3 0;
#X connect 2 0 4 0;
#X connect 3 0 5 0;
#X connect 4 0 5 1;
#X connect 5 0 9 0;
#X connect 6 0 7 0;
#X connect 6 1 8 0;
#X connect 7 0 1 0;
#X connect 8 0 2 0;
#X restore 186 139 pd weight;
#X connect 0 0 2 0;
#X connect 1 0 0 0;
#X connect 3 0 10 0;
#X connect 4 0 0 1;
#X connect 5 0 7 0;
#X connect 6 0 10 0;
#X connect 7 0 6 0;
#X connect 7 1 14 0;
#X connect 7 2 17 0;
#X connect 8 0 9 0;
#X connect 9 0 12 0;
#X connect 10 0 16 0;
#X connect 11 0 13 0;
#X connect 12 0 11 0;
#X connect 13 0 4 0;
#X connect 14 0 15 0;
#X connect 15 0 16 1;
#X connect 16 0 8 0;
#X connect 17 0 16 2;
