#N struct 3087-t-scope float x array cells 3087-t-scope-value;
#N struct 3087-t-scope-value float x1 float y1 float x2 float y2 float
c1 float c2;
#N canvas 330 23 677 817 10;
#X declare -stdpath spam;
#X obj 94 75 spam~ 12 xel.2d.test.order 3 4;
#X obj 261 392 declare -stdpath spam;
#X obj 261 415 text define -k \$0-scope-attr;
#A set colors 999 90 990 950 900 \; gain 0 \;;
#X msg 383 79 \; pd dsp 1;
#N canvas 0 22 450 300 \$0-scope 0;
#X scalar 3087-t-scope 0 \; -1 1 -0.333333 0.333333 999 0 \; -0.333333
1 0.333333 0.333333 999 0 \; 0.333333 1 1 0.333333 999 0 \; -1 0.333333
-0.333333 -0.333333 999 0 \; -0.333333 0.333333 0.333333 -0.333333
999 0 \; 0.333333 0.333333 1 -0.333333 999 0 \; -1 -0.333333 -0.333333
-1 999 0 \; -0.333333 -0.333333 0.333333 -1 999 0 \; 0.333333 -0.333333
1 -1 900 0 \; \;;
#X coords -1 1 1 -1 228 190 2 100 100;
#X restore 38 131 pd \$0-scope;
#X obj 122 345 sig~ 1;
#X obj 53 349 sig~ 1;
#X obj 368 523 xel.2d.syn.brush~;
#X obj 402 433 nbx 5 14 0 100 0 0 empty \$0-hardness empty 0 -8 0 10
-262144 -1 -1 0 256;
#X msg 402 455 hardness \$1;
#X obj 289 466 r \$0-brush;
#X obj 402 477 s \$0-brush;
#X obj 149 476 s \$0-brush;
#N canvas 217 367 450 300 pos 0;
#X obj 145 100 nbx 4 14 -1e+37 1e+37 0 0 empty empty empty 0 -8 0 10
-262144 -1 -1 0.32 256;
#X obj 100 100 nbx 4 14 -1e+37 1e+37 0 0 empty empty empty 0 -8 0 10
-262144 -1 -1 57 256;
#X obj 119 77 t b f;
#X obj 101 150 pack 1 f;
#X obj 101 18 r \$0-pos;
#X obj 101 40 unpack f f;
#X obj 101 172 outlet;
#X obj 164 19 inlet;
#X connect 0 0 2 0;
#X connect 1 0 3 0;
#X connect 2 0 1 0;
#X connect 2 1 3 1;
#X connect 3 0 6 0;
#X connect 4 0 5 0;
#X connect 5 0 1 0;
#X connect 5 1 0 0;
#X connect 7 0 5 0;
#X coords 0 -1 1 1 90 14 2 100 100;
#X restore 149 453 pd pos;
#X obj 34 597 *~;
#X obj 84 597 *~;
#X obj 144 597 *~;
#X obj 204 597 *~;
#X obj 86 646 sqrt~;
#X obj 86 693 snapshot~;
#X obj 86 715 nbx 5 14 -1e+37 1e+37 0 0 empty empty empty 0 -8 0 10
-262144 -1 -1 0 256;
#X obj 106 673 metro 20;
#X obj 128 650 tgl 15 0 empty empty empty 17 7 0 10 -262144 -1 -1 0
1;
#X obj 66 468 sig~ 0.5;
#X obj 274 674 snapshot~;
#X obj 274 696 nbx 5 14 -1e+37 1e+37 0 0 empty empty empty 0 -8 0 10
-262144 -1 -1 0 256;
#X obj 297 628 metro 20;
#X obj 319 605 tgl 15 0 empty empty empty 17 7 0 10 -262144 -1 -1 0
1;
#X obj 344 674 snapshot~;
#X obj 344 696 nbx 5 14 -1e+37 1e+37 0 0 empty empty empty 0 -8 0 10
-262144 -1 -1 0 256;
#X obj 415 674 snapshot~;
#X obj 415 696 nbx 5 14 -1e+37 1e+37 0 0 empty empty empty 0 -8 0 10
-262144 -1 -1 0 256;
#X obj 277 727 snapshot~;
#X obj 277 749 nbx 5 14 -1e+37 1e+37 0 0 empty empty empty 0 -8 0 10
-262144 -1 -1 0 256;
#X msg 324 491 0 0;
#X msg 462 601 opacity \$1;
#X obj 462 579 nbx 5 14 0 100 0 0 empty \$0-opacity empty 0 -8 0 10
-262144 -1 -1 0 256;
#X obj 384 581 nbx 5 14 1 10 0 0 empty \$0-size empty 0 -8 0 10 -262144
-1 -1 1 256;
#X msg 384 600 size \$1;
#X obj 462 623 s \$0-brush;
#X obj 384 622 s \$0-brush;
#X obj 122 517 spam~ 9 xel.2d.syn.brush~ 3 3;
#X obj 212 571 *~;
#X obj 262 571 *~;
#X obj 322 571 *~;
#X obj 316 545 *~;
#X obj 356 545 *~;
#X obj 344 724 snapshot~;
#X obj 344 746 nbx 5 14 -1e+37 1e+37 0 0 empty empty empty 0 -8 0 10
-262144 -1 -1 0 256;
#X obj 415 724 snapshot~;
#X obj 415 746 nbx 5 14 -1e+37 1e+37 0 0 empty empty empty 0 -8 0 10
-262144 -1 -1 0 256;
#X obj 277 767 snapshot~;
#X obj 277 789 nbx 5 14 -1e+37 1e+37 0 0 empty empty empty 0 -8 0 10
-262144 -1 -1 0 256;
#X obj 344 764 snapshot~;
#X obj 344 786 nbx 5 14 -1e+37 1e+37 0 0 empty empty empty 0 -8 0 10
-262144 -1 -1 0 256;
#X obj 415 764 snapshot~;
#X obj 415 786 nbx 5 14 -1e+37 1e+37 0 0 empty empty empty 0 -8 0 10
-262144 -1 -1 0 256;
#N canvas 217 367 450 300 pos 0;
#X obj 145 100 nbx 4 14 -1e+37 1e+37 0 0 empty empty empty 0 -8 0 10
-262144 -1 -1 0 256;
#X obj 100 100 nbx 4 14 -1e+37 1e+37 0 0 empty empty empty 0 -8 0 10
-262144 -1 -1 0 256;
#X obj 119 77 t b f;
#X obj 101 150 pack 1 f;
#X obj 101 18 r \$0-pos;
#X obj 101 40 unpack f f;
#X obj 101 172 outlet;
#X obj 164 19 inlet;
#X connect 0 0 2 0;
#X connect 1 0 3 0;
#X connect 2 0 1 0;
#X connect 2 1 3 1;
#X connect 3 0 6 0;
#X connect 4 0 5 0;
#X connect 5 0 1 0;
#X connect 5 1 0 0;
#X connect 7 0 5 0;
#X coords 0 -1 1 1 90 14 2 100 100;
#X restore 384 150 pd pos;
#X obj 20 403 spam~ 9 xel.2d.gui.scope~ 3 3 \$0-scope \$0-scope-attr
, f 38;
#N canvas 217 367 450 300 pos 0;
#X obj 145 100 nbx 4 14 -1e+37 1e+37 0 0 empty empty empty 0 -8 0 10
-262144 -1 -1 0 256;
#X obj 100 100 nbx 4 14 -1e+37 1e+37 0 0 empty empty empty 0 -8 0 10
-262144 -1 -1 0 256;
#X obj 119 77 t b f;
#X obj 101 150 pack 1 f;
#X obj 101 18 r \$0-pos;
#X obj 101 40 unpack f f;
#X obj 101 172 outlet;
#X obj 164 19 inlet;
#X connect 0 0 2 0;
#X connect 1 0 3 0;
#X connect 2 0 1 0;
#X connect 2 1 3 1;
#X connect 3 0 6 0;
#X connect 4 0 5 0;
#X connect 5 0 1 0;
#X connect 5 1 0 0;
#X connect 7 0 5 0;
#X coords 0 -1 1 1 90 14 2 100 100;
#X restore 384 270 pd pos;
#X obj 389 184 spam~ 9 xel.2d.syn.brush2~ 3 3;
#X msg 537 260 0 0;
#X obj 389 304 spam~ 16 xel.2d.syn.brush2~ 4 4;
#X connect 6 0 58 0;
#X connect 6 0 58 5;
#X connect 6 0 58 8;
#X connect 8 0 9 0;
#X connect 9 0 11 0;
#X connect 10 0 41 1;
#X connect 13 0 12 0;
#X connect 13 0 41 1;
#X connect 14 0 18 0;
#X connect 15 0 18 0;
#X connect 16 0 18 0;
#X connect 17 0 18 0;
#X connect 18 0 19 0;
#X connect 19 0 20 0;
#X connect 21 0 19 0;
#X connect 22 0 21 0;
#X connect 23 0 41 0;
#X connect 24 0 25 0;
#X connect 26 0 24 0;
#X connect 26 0 28 0;
#X connect 26 0 30 0;
#X connect 26 0 32 0;
#X connect 26 0 47 0;
#X connect 26 0 49 0;
#X connect 26 0 51 0;
#X connect 26 0 53 0;
#X connect 26 0 55 0;
#X connect 27 0 26 0;
#X connect 28 0 29 0;
#X connect 30 0 31 0;
#X connect 32 0 33 0;
#X connect 34 0 41 1;
#X connect 35 0 39 0;
#X connect 36 0 35 0;
#X connect 37 0 38 0;
#X connect 38 0 40 0;
#X connect 41 0 14 0;
#X connect 41 0 14 1;
#X connect 41 0 24 0;
#X connect 41 1 15 0;
#X connect 41 1 15 1;
#X connect 41 1 28 0;
#X connect 41 2 16 0;
#X connect 41 2 16 1;
#X connect 41 2 30 0;
#X connect 41 3 17 0;
#X connect 41 3 17 1;
#X connect 41 3 32 0;
#X connect 41 4 42 0;
#X connect 41 4 42 1;
#X connect 41 4 47 0;
#X connect 41 5 43 0;
#X connect 41 5 43 1;
#X connect 41 5 49 0;
#X connect 41 6 44 0;
#X connect 41 6 44 1;
#X connect 41 6 51 0;
#X connect 41 7 45 0;
#X connect 41 7 45 1;
#X connect 41 7 53 0;
#X connect 41 8 46 0;
#X connect 41 8 46 1;
#X connect 41 8 55 0;
#X connect 42 0 18 0;
#X connect 43 0 18 0;
#X connect 44 0 18 0;
#X connect 45 0 18 0;
#X connect 46 0 18 0;
#X connect 47 0 48 0;
#X connect 49 0 50 0;
#X connect 51 0 52 0;
#X connect 53 0 54 0;
#X connect 55 0 56 0;
#X connect 57 0 60 1;
#X connect 59 0 62 1;
#X connect 61 0 62 1;
#X coords 0 817 1 816 85 60 0;
