#N canvas 222 130 303 264 10;
#X obj 86 141 outlet;
#X obj 22 6 inlet;
#X obj 59 6 inlet;
#X obj 59 28 t f f;
#X obj 86 120 text get \$1;
#X obj 22 162 text set \$1, f 19;
#X obj 22 86 list;
#X obj 109 6 inlet;
#X obj 22 130 spigot \$2;
#X obj 109 50 t b b b;
#X obj 109 28 route bang float;
#X obj 109 72 f 1;
#X obj 148 72 f 0;
#X connect 1 0 6 0;
#X connect 2 0 3 0;
#X connect 3 0 5 1;
#X connect 3 1 4 0;
#X connect 4 0 0 0;
#X connect 6 0 8 0;
#X connect 7 0 10 0;
#X connect 8 0 5 0;
#X connect 9 0 11 0;
#X connect 9 1 6 0;
#X connect 9 2 12 0;
#X connect 10 0 9 0;
#X connect 10 1 8 1;
#X connect 11 0 8 1;
#X connect 12 0 8 1;
