#N canvas 527 141 476 474 10;
#X obj 21 7 inlet;
#X obj 257 65 r \$0-nelems;
#X obj 256 17 r \$0-array;
#X obj 256 41 array define \$0-values;
#X obj 257 87 array size \$0-values;
#X obj 21 443 outlet;
#X obj 21 421 list trim;
#X obj 21 399 list prepend matrix \$1 \$2;
#X obj 168 356 r \$0-size;
#X msg 168 378 matrix \$1 \$2;
#X obj 21 379 array get \$0-values;
#N canvas 0 22 261 257 check.size 0;
#X obj 12 12 inlet;
#X obj 12 34 unpack f f;
#X obj 12 61 >= 0;
#X obj 69 61 >= 0;
#X obj 12 85 &&, f 10;
#X obj 12 177 outlet;
#X obj 32 107 sel 0;
#X msg 32 129 matrix sizes can't be negatives;
#X obj 32 151 print xel.2d.mat;
#X connect 0 0 1 0;
#X connect 1 0 2 0;
#X connect 1 1 3 0;
#X connect 2 0 4 0;
#X connect 3 0 4 1;
#X connect 4 0 5 0;
#X connect 4 0 6 0;
#X connect 6 0 7 0;
#X connect 7 0 8 0;
#X restore 103 106 pd check.size;
#X obj 70 83 t l l, f 6;
#X obj 70 128 spigot;
#X obj 70 197 unpack f f;
#X obj 70 219 *, f 10;
#X obj 97 263 s \$0-nelems;
#N canvas 0 22 137 149 init.size 0;
#X obj 6 33 t b b, f 8;
#X obj 6 78 pack f f;
#X obj 6 10 loadbang;
#X obj 6 100 outlet;
#X obj 6 56 f \$1;
#X obj 51 56 f \$2;
#X connect 0 0 4 0;
#X connect 0 1 5 0;
#X connect 1 0 3 0;
#X connect 2 0 0 0;
#X connect 4 0 1 0;
#X connect 5 0 1 1;
#X restore 81 61 pd init.size;
#X obj 97 176 s \$0-size;
#X obj 70 241 t b f;
#X obj 70 286 s \$0-compute;
#X obj 274 148 r \$0-compute;
#X obj 70 150 t l l;
#X obj 29 358 r \$0-output;
#N canvas 0 22 200 430 do.normalize 0;
#X obj 18 62 float, f 8;
#X obj 63 40 r \$0-nelems;
#X obj 18 167 array get \$0-values;
#X obj 73 124 loadbang;
#X obj 73 146 f 1;
#X obj 18 104 t f f, f 8;
#X obj 18 225 array set \$0-values, f 16;
#N canvas 402 180 153 176 counter 0;
#X obj 8 75 f, f 7;
#X obj 59 75 + 1;
#X obj 47 53 f 0;
#X obj 59 98 sel;
#X obj 8 53 until;
#X obj 8 8 inlet;
#X obj 8 127 outlet;
#X obj 59 120 outlet;
#X obj 8 31 t f b f, f 11;
#X obj 8 97 t f f;
#X connect 0 0 9 0;
#X connect 1 0 0 1;
#X connect 1 0 3 0;
#X connect 2 0 0 1;
#X connect 3 0 7 0;
#X connect 4 0 0 0;
#X connect 5 0 8 0;
#X connect 8 0 4 0;
#X connect 8 1 2 0;
#X connect 8 2 3 1;
#X connect 9 0 1 0;
#X connect 9 1 6 0;
#X restore 18 82 pd counter;
#X obj 18 9 inlet;
#X obj 75 104 outlet;
#X obj 18 193 /;
#X obj 18 31 t b f;
#X connect 0 0 7 0;
#X connect 1 0 0 1;
#X connect 2 0 10 0;
#X connect 3 0 4 0;
#X connect 4 0 2 1;
#X connect 5 0 2 0;
#X connect 5 1 6 1;
#X connect 7 0 5 0;
#X connect 7 1 9 0;
#X connect 8 0 11 0;
#X connect 10 0 6 0;
#X connect 11 0 0 0;
#X connect 11 1 10 1;
#X restore 274 218 pd do.normalize;
#N canvas 238 176 302 633 do.compute 0;
#N canvas 402 180 153 176 counter 0;
#X obj 8 75 f, f 7;
#X obj 59 75 + 1;
#X obj 47 53 f 0;
#X obj 59 98 sel;
#X obj 8 53 until;
#X obj 8 8 inlet;
#X obj 8 127 outlet;
#X obj 59 120 outlet;
#X obj 8 31 t f b f, f 11;
#X obj 8 97 t f f, f 13;
#X connect 0 0 9 0;
#X connect 1 0 0 1;
#X connect 1 0 3 0;
#X connect 2 0 0 1;
#X connect 3 0 7 0;
#X connect 4 0 0 0;
#X connect 5 0 8 0;
#X connect 8 0 4 0;
#X connect 8 1 2 0;
#X connect 8 2 3 1;
#X connect 9 0 1 0;
#X connect 9 1 6 0;
#X restore 25 155 pd counter;
#X obj 25 135 float;
#X obj 52 113 r \$0-nelems;
#X obj 25 436 array set \$0-values;
#X obj 25 85 t b b, f 6;
#X obj 25 178 t f f, f 9;
#X obj 25 200 xel.2d.get.itorc \$1 \$2;
#X obj 25 13 inlet;
#X obj 82 533 outlet;
#X obj 25 35 route bang;
#X obj 154 173 r \$0-size;
#X obj 25 314 -;
#X obj 82 314 -;
#X obj 96 240 unpack f f;
#X obj 96 262 / 2;
#X obj 153 262 / 2;
#X obj 96 284 int;
#X obj 153 284 int;
#X obj 25 222 unpack f f;
#X obj 25 360 +, f 10;
#X text 133 55 3x3->9;
#X text 147 128 5x5->33;
#X obj 25 407 +, f 12;
#X obj 94 361 == 0;
#X obj 151 361 == 0;
#X obj 94 383 &&, f 10;
#X obj 25 336 t f f, f 12;
#X obj 82 500 f;
#X obj 97 458 abs;
#X obj 97 478 +;
#X obj 122 478 f;
#X msg 122 457 0;
#X connect 0 0 5 0;
#X connect 0 1 27 0;
#X connect 1 0 0 0;
#X connect 2 0 1 1;
#X connect 4 0 1 0;
#X connect 4 1 31 0;
#X connect 5 0 6 0;
#X connect 5 1 3 1;
#X connect 6 0 18 0;
#X connect 7 0 9 0;
#X connect 9 0 4 0;
#X connect 10 0 6 1;
#X connect 10 0 13 0;
#X connect 11 0 26 0;
#X connect 12 0 19 1;
#X connect 12 0 24 0;
#X connect 13 0 14 0;
#X connect 13 1 15 0;
#X connect 14 0 16 0;
#X connect 15 0 17 0;
#X connect 16 0 11 1;
#X connect 17 0 12 1;
#X connect 18 0 11 0;
#X connect 18 1 12 0;
#X connect 19 0 22 0;
#X connect 22 0 3 0;
#X connect 22 0 28 0;
#X connect 23 0 25 0;
#X connect 24 0 25 1;
#X connect 25 0 22 1;
#X connect 26 0 19 0;
#X connect 26 1 23 0;
#X connect 27 0 8 0;
#X connect 28 0 29 0;
#X connect 29 0 27 1;
#X connect 29 0 30 0;
#X connect 30 0 29 1;
#X connect 31 0 30 0;
#X restore 274 176 pd do.compute;
#X obj 274 240 s \$0-output;
#X obj 21 29 route bang matrix;
#X connect 0 0 27 0;
#X connect 1 0 4 0;
#X connect 2 0 3 0;
#X connect 6 0 5 0;
#X connect 7 0 6 0;
#X connect 8 0 9 0;
#X connect 9 0 7 1;
#X connect 10 0 7 0;
#X connect 11 0 13 1;
#X connect 12 0 13 0;
#X connect 12 1 11 0;
#X connect 13 0 22 0;
#X connect 14 0 15 0;
#X connect 14 1 15 1;
#X connect 15 0 19 0;
#X connect 17 0 12 0;
#X connect 19 0 20 0;
#X connect 19 1 16 0;
#X connect 21 0 25 0;
#X connect 22 0 14 0;
#X connect 22 1 18 0;
#X connect 23 0 10 0;
#X connect 24 0 26 0;
#X connect 25 0 24 0;
#X connect 27 0 10 0;
#X connect 27 1 12 0;
