#N canvas 448 306 576 442 10;
#X obj 21 375 outlet;
#X obj 21 7 inlet;
#X obj 334 136 array size \$0-matrix;
#X obj 333 5 loadbang;
#X obj 334 164 array define \$0-matrix;
#X obj 333 49 f \$1;
#X obj 402 49 f \$2;
#X obj 334 115 *, f 12;
#X obj 333 71 s \$0-nrows;
#X obj 402 71 s \$0-ncloumns;
#X obj 333 27 t b b, f 12;
#X obj 334 93 r \$0-nrows;
#X obj 403 93 r \$0-ncloumns;
#N canvas 0 22 261 257 check.size 0;
#X obj 12 12 inlet;
#X obj 12 34 unpack f f;
#X obj 12 61 >= 0;
#X obj 69 61 >= 0;
#X obj 12 85 &&, f 10;
#X obj 12 177 outlet;
#X obj 32 107 sel 0;
#X obj 32 151 print xel.2d.mat.blur;
#X msg 32 129 matrix sizes can't be negatives;
#X connect 0 0 1 0;
#X connect 1 0 2 0;
#X connect 1 1 3 0;
#X connect 2 0 4 0;
#X connect 3 0 4 1;
#X connect 4 0 5 0;
#X connect 4 0 6 0;
#X connect 6 0 8 0;
#X connect 8 0 7 0;
#X restore 54 100 pd check.size;
#X obj 21 77 t l l, f 6;
#X obj 413 9 bng 15 250 50 0 empty empty empty 17 7 0 10 -262144 -1
-1;
#X obj 21 122 spigot;
#X obj 21 144 unpack f f;
#X obj 78 280 * 2;
#X obj 21 280 * 2;
#X obj 78 302 + 1;
#X obj 21 302 + 1;
#X obj 21 324 *, f 10;
#X obj 21 236 + 0.5;
#X obj 21 258 int;
#X obj 78 236 + 0.5;
#X obj 78 258 int;
#X obj 21 166;
#X obj 78 166 t f f f;
#X obj 135 191 int;
#X obj 108 210 -, f 5;
#X obj 108 232 nbx 5 14 -1e+37 1e+37 0 0 empty empty empty 0 -8 0 10
-262144 -1 -1 0 256;
#X obj 21 29 route list float;
#X msg 67 51 \$1 \$1;
#X connect 1 0 32 0;
#X connect 3 0 10 0;
#X connect 5 0 8 0;
#X connect 6 0 9 0;
#X connect 7 0 2 0;
#X connect 10 0 5 0;
#X connect 10 1 6 0;
#X connect 11 0 7 0;
#X connect 12 0 7 1;
#X connect 13 0 16 1;
#X connect 14 0 16 0;
#X connect 14 1 13 0;
#X connect 15 0 10 0;
#X connect 16 0 17 0;
#X connect 17 0 23 0;
#X connect 17 0 27 0;
#X connect 17 1 28 0;
#X connect 18 0 20 0;
#X connect 19 0 21 0;
#X connect 20 0 22 1;
#X connect 21 0 22 0;
#X connect 23 0 24 0;
#X connect 24 0 19 0;
#X connect 25 0 26 0;
#X connect 26 0 18 0;
#X connect 28 1 30 0;
#X connect 28 2 29 0;
#X connect 29 0 30 1;
#X connect 30 0 31 0;
#X connect 32 0 14 0;
#X connect 32 1 33 0;
#X connect 33 0 14 0;
