#N canvas 453 23 352 663 10;
#X obj 11 7 inlet;
#X obj 44 144 unpack f f;
#X obj 11 121 t l l, f 6;
#X obj 11 230 spigot;
#X obj 44 186 > 0;
#X obj 101 186 > 0;
#X obj 44 208 &&, f 10;
#X obj 44 166 t f f, f 17;
#X obj 144 343 *;
#X obj 38 277 list split 2;
#X obj 129 322 list length;
#X obj 11 252 t l l;
#X obj 129 364 ==;
#X obj 72 297 route bang;
#X obj 11 612 outlet;
#X obj 11 405 spigot, f 10;
#X obj 11 100 list \$1 \$2;
#X obj 72 319 f 1;
#X obj 129 386 sel 0;
#X obj 64 230 sel 0;
#X obj 11 517 list prepend matrix;
#X obj 11 539 list trim;
#X obj 11 28 route bang matrix list, f 30;
#X obj 129 408 s \$0-out;
#X obj 64 252 s \$0-out;
#X obj 11 591 r \$0-out;
#X obj 56 470 == 1;
#X obj 70 78 t b l b, f 19;
#X obj 56 443 r \$0-mode;
#X obj 11 561 s \$0-out;
#X obj 111 561 s \$0-out;
#X obj 181 118 s \$0-mode;
#X msg 181 98 1;
#X obj 129 48 t b l b, f 19;
#X obj 240 88 s \$0-mode;
#X msg 240 68 0;
#X obj 156 516 == 0;
#X obj 111 538 spigot 1;
#X obj 11 492 spigot 0;
#X connect 0 0 22 0;
#X connect 1 0 7 0;
#X connect 1 1 5 0;
#X connect 1 1 8 1;
#X connect 2 0 3 0;
#X connect 2 1 1 0;
#X connect 3 0 11 0;
#X connect 4 0 6 0;
#X connect 5 0 6 1;
#X connect 6 0 3 1;
#X connect 6 0 19 0;
#X connect 7 0 4 0;
#X connect 7 1 8 0;
#X connect 8 0 12 1;
#X connect 9 1 13 0;
#X connect 10 0 12 0;
#X connect 11 0 15 0;
#X connect 11 1 9 0;
#X connect 12 0 15 1;
#X connect 12 0 18 0;
#X connect 13 0 17 0;
#X connect 13 1 10 0;
#X connect 15 0 37 0;
#X connect 15 0 38 0;
#X connect 16 0 2 0;
#X connect 17 0 15 1;
#X connect 18 0 23 0;
#X connect 19 0 24 0;
#X connect 20 0 21 0;
#X connect 21 0 29 0;
#X connect 22 0 16 0;
#X connect 22 1 27 0;
#X connect 22 2 33 0;
#X connect 25 0 14 0;
#X connect 26 0 38 1;
#X connect 27 0 16 0;
#X connect 27 1 16 1;
#X connect 27 2 32 0;
#X connect 28 0 26 0;
#X connect 28 0 36 0;
#X connect 32 0 31 0;
#X connect 33 0 16 0;
#X connect 33 1 16 1;
#X connect 33 2 35 0;
#X connect 35 0 34 0;
#X connect 36 0 37 1;
#X connect 37 0 30 0;
#X connect 38 0 20 0;
